<svg xmlns="http://www.w3.org/2000/svg" xmlns:xlink="http://www.w3.org/1999/xlink" version="1.0" width="450" height="300"><path fill="#bf0a30" d="M0 0h450v300H0z"/><path d="M37.5 148.84L224.225 275 412.5 148.595 224.225 25 37.5 148.84z" fill="#002868"/><path d="M84 149.128L224.417 244 366 148.944 224.417 56 84 149.128z" fill="#fff"/><path d="M148.175 145.014h7.835l1.36 4.376h4.82l-7.48-21.228h-5.116l-7.568 21.228h4.671l1.478-4.376zm3.903-12.063h.059l2.631 8.397h-5.41l2.72-8.397zm12.97 16.439h4.345v-8.308h4.583c1.58-.014 2.566.294 2.96.924.394.63.56 1.661.499 3.097.001 1.073.043 1.935.126 2.587.082.651.198 1.218.347 1.7h4.908v-.562c-.454-.138-.73-.498-.828-1.083-.099-.585-.138-1.633-.118-3.145-.003-1.91-.234-3.205-.691-3.888-.458-.682-1.124-1.18-2-1.493 1.055-.375 1.865-1.014 2.428-1.918.564-.903.848-1.95.854-3.138.022-.65-.137-1.44-.477-2.37-.34-.93-.995-1.757-1.963-2.483-.967-.725-2.381-1.108-4.242-1.148h-10.732v21.228zm4.345-11.886v-5.676h5.529c1.268.045 2.11.368 2.528.968.417.6.61 1.204.576 1.811.001 1.04-.282 1.784-.85 2.236-.568.451-1.428.672-2.58.661h-5.203zm21.78 4.701l2.07-2.128 6.563 9.313h5.706l-9.165-12.536 8.662-8.692h-5.735l-8.101 8.633v-8.633h-4.435v21.228h4.435v-7.185zm21.1 2.809h7.834l1.36 4.376h4.82l-7.48-21.228h-5.115l-7.569 21.228h4.671l1.479-4.376zm3.902-12.063h.06l2.63 8.397h-5.41l2.72-8.397zm25.919 9.993h-.06l-8.425-14.782h-4.672v21.228h4.14v-15.138h.059l8.662 15.138h4.435v-21.228h-4.14v14.782zm7.322-.088c-.031.916.18 1.919.632 3.009.453 1.09 1.336 2.034 2.649 2.831 1.313.798 3.245 1.216 5.796 1.255.69.033 1.688-.095 2.997-.382 1.308-.287 2.513-.93 3.614-1.926 1.102-.997 1.687-2.543 1.756-4.64-.05-1.862-.615-3.2-1.693-4.017-1.078-.816-2.366-1.379-3.866-1.689l-5.174-1.27a4.085 4.085 0 01-1.456-.566c-.489-.298-.752-.848-.79-1.652.048-.947.453-1.611 1.215-1.992a5.272 5.272 0 012.48-.55c1.868.073 3.062.487 3.581 1.24.52.755.774 1.405.765 1.952h4.258c.009-.904-.23-1.882-.714-2.934-.485-1.053-1.33-1.961-2.534-2.725-1.205-.763-2.881-1.163-5.03-1.2-2.27.037-3.996.426-5.178 1.168s-1.981 1.616-2.398 2.62c-.417 1.006-.611 1.92-.585 2.746.067 2.254.762 3.777 2.085 4.571 1.323.794 2.875 1.35 4.656 1.667l2.277.532c1.143.24 2.064.537 2.764.895.7.357 1.06.936 1.08 1.737-.054 1.097-.531 1.836-1.431 2.217-.9.38-1.901.558-3.005.532-1.88-.069-3.109-.493-3.688-1.271-.579-.779-.847-1.498-.805-2.158h-4.258zm25.337 2.158h7.835l1.36 4.376h4.819l-7.48-21.228h-5.115l-7.569 21.228h4.672l1.478-4.376zm3.902-12.063h.06l2.63 8.397h-5.41l2.72-8.397zm11.876 9.905c-.032.916.179 1.919.632 3.009.452 1.09 1.335 2.034 2.648 2.831 1.314.798 3.246 1.216 5.796 1.255.69.033 1.689-.095 2.997-.382 1.309-.287 2.514-.93 3.615-1.926 1.101-.997 1.686-2.543 1.755-4.64-.05-1.862-.615-3.2-1.692-4.017-1.078-.816-2.367-1.379-3.866-1.689l-5.174-1.27a4.085 4.085 0 01-1.456-.566c-.49-.298-.753-.848-.79-1.652.048-.947.453-1.611 1.215-1.992a5.272 5.272 0 012.48-.55c1.868.073 3.062.487 3.58 1.24.52.755.775 1.405.766 1.952h4.257c.01-.904-.229-1.882-.714-2.934-.485-1.053-1.33-1.961-2.534-2.725-1.204-.763-2.88-1.163-5.03-1.2-2.27.037-3.995.426-5.177 1.168-1.182.742-1.982 1.616-2.398 2.62-.417 1.006-.612 1.92-.585 2.746.066 2.254.761 3.777 2.084 4.571 1.323.794 2.876 1.35 4.657 1.667l2.276.532c1.144.24 2.065.537 2.765.895.7.357 1.06.936 1.079 1.737-.054 1.097-.53 1.836-1.43 2.217-.9.38-1.902.558-3.005.532-1.88-.069-3.11-.493-3.688-1.271-.58-.779-.848-1.498-.806-2.158h-4.257z" style="text-align:start;line-height:125%;-inkscape-font-specification:Helvetica LT Std Bold" font-size="28" font-weight="700" fill="#002868" font-family="Helvetica LT Std"/><path d="M229.484 49.981l-5.521-4L218.452 50l2.095-6.491-5.522-4.004 6.815-.012 2.1-6.493 2.118 6.484 6.818-.01-5.507 4.02 2.116 6.487z" fill="#fff"/><path d="M234.964 190L225 197.081l-9.976-7.075 3.81 11.453-9.966 7.088 12.319-.003L225.004 220l3.804-11.454 12.324-.009-9.968-7.076 3.8-11.461z" fill="#002868"/><path d="M202.7 190l-9.965-7.081-9.976 7.075 3.81-11.453-9.965-7.088 12.319.003L192.74 160l3.803 11.454 12.325.009-9.968 7.076L202.7 190z" id="a" fill="#002868"/><path d="M215.981 243.541l-4 5.521 4.019 5.511-6.491-2.095-4.004 5.522-.012-6.815-6.493-2.099 6.484-2.118-.01-6.818 4.02 5.507 6.487-2.116z" id="c" fill="#fff"/><path d="M233.019 243.541l4 5.521-4.019 5.511 6.491-2.095 4.004 5.522.012-6.815 6.493-2.099-6.484-2.118.01-6.818-4.02 5.507-6.487-2.116z" id="m" fill="#fff"/><use transform="translate(64.528)" id="b" x="0" y="0" width="450" height="300" xlink:href="#a"/><use transform="translate(-32.264 -85)" width="450" height="300" xlink:href="#b"/><use transform="translate(151.478 -119)" id="d" x="0" y="0" width="450" height="300" xlink:href="#c"/><use transform="translate(-27 -18)" id="e" x="0" y="0" width="450" height="300" xlink:href="#d"/><use transform="translate(-27 -18)" id="f" x="0" y="0" width="450" height="300" xlink:href="#e"/><use transform="translate(-27 -17)" id="g" x="0" y="0" width="450" height="300" xlink:href="#f"/><use transform="translate(-27 -18)" id="h" x="0" y="0" width="450" height="300" xlink:href="#g"/><use transform="translate(-163.478 108)" id="i" x="0" y="0" width="450" height="300" xlink:href="#h"/><use transform="translate(24 16)" id="j" x="0" y="0" width="450" height="300" xlink:href="#i"/><use transform="translate(24 16)" id="k" x="0" y="0" width="450" height="300" xlink:href="#j"/><use transform="translate(24 17)" id="l" x="0" y="0" width="450" height="300" xlink:href="#k"/><use transform="translate(24 16)" width="450" height="300" xlink:href="#l"/><use transform="translate(-144 -99.075)" width="450" height="300" xlink:href="#c"/><use transform="translate(-151 -119)" id="n" x="0" y="0" width="450" height="300" xlink:href="#m"/><use transform="translate(27 -18)" id="o" x="0" y="0" width="450" height="300" xlink:href="#n"/><use transform="translate(27 -18)" id="p" x="0" y="0" width="450" height="300" xlink:href="#o"/><use transform="translate(27 -17)" id="q" x="0" y="0" width="450" height="300" xlink:href="#p"/><use transform="translate(27 -18)" id="r" x="0" y="0" width="450" height="300" xlink:href="#q"/><use transform="translate(187 90.925)" id="s" x="0" y="0" width="450" height="300" xlink:href="#r"/><use transform="translate(-24 17.075)" id="t" x="0" y="0" width="450" height="300" xlink:href="#s"/><use transform="translate(-24 16)" id="u" x="0" y="0" width="450" height="300" xlink:href="#t"/><use transform="translate(-24 16)" id="v" x="0" y="0" width="450" height="300" xlink:href="#u"/><use transform="translate(-24 17)" id="w" x="0" y="0" width="450" height="300" xlink:href="#v"/><use transform="translate(-24 16)" width="450" height="300" xlink:href="#w"/></svg>