<svg xmlns="http://www.w3.org/2000/svg" version="1.0" width="594" height="459"><path d="M0 0h594v459H0V0z" fill="#0c2d83"/><path fill="#129612" d="M281.704 64.003h35.609v24.758h-35.609z"/><path d="M264.78 82c0 .534 1.74 1.184 4.868 1.184 2.593 0 6.101.292 7.78.521 2.44.382 3.116-.288 2.353-1.052-1.144-1.3-15-1.876-15-.654zm62.235 0l-3.117 1.392 7.128.389c3.814 0 7.472-.573 7.472-.955s-1.345-.97-2.87-.97c-1.45 0-3.343-.368-4.03-.75-.838-.382-2.676.052-4.583.893z"/><path d="M298.948 53.185c-.915 1.376-2.288 3.21-3.05 3.974-.763.841-1.373 2.217-1.45 3.058 0 1.223-.228 1.07-.838-.688-1.373-3.745-2.44-4.357-4.958-3.057-1.144.611-3.356 1.375-4.805 1.605-1.449.229-3.05.917-3.508 1.452-.381.611-2.593 1.223-4.729 1.376-4.5.382-6.711 1.605-12.508 6.802-1.296 1.223-2.822 2.14-3.355 2.14-1.45 0-1.373.459.61 2.675 1.068 1.223 2.135 1.758 2.974 1.529.763-.23 1.526-.077 1.83.382.23.382 1.373.764 2.518.84 1.677.077 1.525.23-1.068.918-1.983.611-4.271 2.14-6.254 4.28-3.509 3.745-3.89 4.662-1.83 4.662.762 0 1.753.382 2.287.917.458.459 2.67.917 4.882.994 3.508.076 4.042.382 4.27 1.758.306 2.14 1.297 2.14 6.33-.153 5.34-2.37 8.695-4.968 11.517-8.79 2.212-3.057 2.288-4.662.23-4.662-1.45 0-2.365-3.669-1.374-5.274 1.22-1.987 4.729-1.987 6.788 0 1.678 1.605 1.983 1.605 4.958.688 2.745-.917 3.355-.917 5.567.306 2.517 1.376 2.593 1.376 4.5-.612 2.136-2.14 4.957-2.598 6.483-1.07 1.296 1.3 1.144 5.121-.229 5.656-1.45.612-1.45 2.064.076 5.045 1.678 3.21 4.424 5.426 9.991 8.178 5.644 2.828 6.178 2.828 7.017.688.458-1.376 1.22-1.682 4.576-1.758 2.136-.077 4.348-.535 4.805-.994.534-.535 1.525-.917 2.288-.917 2.136 0 1.678-1.3-1.754-4.815-1.983-1.91-4.424-3.592-6.33-4.127-2.593-.688-2.746-.841-1.068-.918 1.144-.077 2.288-.458 2.517-.84.305-.459 1.068-.612 1.83-.382.84.229 1.907-.306 2.975-1.529 1.983-2.217 2.059-2.675.61-2.675-.534 0-2.06-.994-3.356-2.217-5.11-4.891-8.542-6.573-14.338-6.878-.534-.077-1.068-.841-1.297-1.682-.381-1.376-.839-1.528-2.974-1.146-1.373.305-3.204.535-4.043.611-.839.076-2.745.917-4.194 1.91-2.67 1.759-3.737 1.377-3.814-1.298 0-.612-1.22-2.523-2.67-4.128-1.448-1.681-2.669-3.286-2.669-3.668 0-1.529-2.364-.383-3.965 1.834zm4.878 3.429c1.449 1.376 2.978 3.144 3.283 4.138 1.068 3.515 2.192 4.026 5.853 2.039 1.906-.994 3.82-1.803 4.811-1.803.915 0 2.215-.445 2.75-.98 1.525-1.529 1.347-.604.127 3.37-1.754 5.809.188 1.66-4.388-1.015-.153-.153-1.82 3.739-1.057 2.898.762-.84 1.251-1.994 1.022-2.223-.457-.459-7.506 4.002-8.803 5.76-.915 1.223-.689 1.3-2.748.23-2.135-1.147-2.118-1.019-2.118-6.98 0-3.593-.711-6.146-1.169-6.146-.458 0-.794 2.835-.794 6.427 0 5.885-.107 5.722-2.014 6.41-2.67 1.07-3.65 1.104-3.192-.042.381-1.146-5.835-7.653-6.674-6.889-.229.306.166 1.924 1.081 2.918.916.994 1.24 1.755 1.24 1.984 0 .153-.948-.056-2.703.097-2.669.153-3.164.316-4.613-1.365-.992-1.147-1.63-2.28-1.63-2.508 0-1.147 2.871-2.68 4.473-2.68.915 0 1.473-.368 1.473-.75s.596-1.01 1.283-1.24c1.449-.535 3.012 1.692 3.012 3.679 0 .84.44 1.254 1.05 1.79.915.764 1.658.83 2.344-.928.381-1.07.825-2.248.825-2.4 0-.23.818-1.297 2.038-2.596 1.297-1.223 2.413-2.755 2.413-3.137 0-1.147.156-.733 2.825 1.942zm-23.948 7.316c0 2.064-2.28 3.405-5.79 3.405-2.592 0-6.257 1.671-6.257 2.741 0 .382.673.678 1.435.372.687-.306 2.212-.67 3.432-.9 1.83-.306 1.935-.326 1.935 1.355 0 1.07-.292 2.258-.52 2.946-.534 1.3-3.137 1.525-3.137.302 0-.458-1.023-.701-2.32-.701-1.22 0-2.038-.382-2.038-.841 0-.535-.919-.657-1.987-.351-2.669.688-2.595-.486-.46-2.627 3.89-3.821 7.22-5.864 10.653-6.475 5.415-.918 5.054-1.136 5.054.774zm48.596.063c3.814.611 11.86 6.18 10.868 7.786-.305.382-.609.458-1.677.229-1.068-.306-1.893.004-1.893.538 0 .459-.804.841-2.1.841-1.22 0-2.632-.007-2.632.452 0 1.529-2.18 1.233-2.637-.525-.554-1.623 1.956-2.759 3.493-3.158 2.517.153 4.858-.454 4.858-.76 0-.918-2.288-1.453-6.178-1.453-2.212 0-4.496-.441-5.716-1.205-1.144-.688-1.573-.925-1.837-1.189-.077 0-.25-.59.055-1.507.305-1.223.339-1.543 1.56-1.314.838.23 2.839.785 4.211 1.015zm-44.932 4.402c2.44 2.293 1.838 3.464-1.975 3.54l-3.44.358 2.957 1.22c1.678.458 4.136.997 5.356 1.99l2.136 1.758-2.44 1.3c-2.975 1.452-3.313.92-6.67-.303-1.525-.535-2.44-.873-2.211-1.485.229-.535.015-1.207-.29-1.36-1.296-.84-.273-4.192 2.016-6.255 1.296-1.147 2.4-2.081 2.629-2.081.229 0 1.017.401 1.932 1.318zm40.051.997c1.754 1.605 2.44 3.846 2.06 7.209-.153 1.375-3.103 2.87-5.772 2.87-2.212 0-5.221-2.134-4.459-3.357.23-.458 2.372-1.365 4.355-2.665 2.288-1.528 3.082-3.12 2.167-3.12-.763.001-2.247.473-3.01 1.238-1.983 1.758-1.365.562.694-1.807 2.06-2.37 1.6-2.508 3.965-.368zm-48.645 10.304c.457.688 2.874 1.643 5.391 1.872 4.119.459 4.271.05 3.05 1.348-.762.841-3.463 2.148-5.98 3.37-4.194 2.14-4.402 2.373-4.707 1.15-.381-1.987-1.664-2.522-4.486-2.063-2.44.458-7.356-.778-7.356-1.848 0-.994 4.035-4.743 5.56-5.125 2.441-.764 7.613.073 8.528 1.296zm64.231 1.303c1.22 1.375 2.257 2.268 2.257 2.574 0 1.223-4.29 2.165-7.19 1.706-2.897-.458-4.368.198-4.444 2.185 0 .382-.405.55-1.244.473-2.135-.382-7.966-3.68-9.415-5.284-1.068-1.223-1.29-.689 2.752-1.07 2.44-.23 4.701-.921 4.93-1.38.915-1.452 3.927-2.15 7.13-1.768 2.365.229 3.547.806 5.224 2.564z"/><path d="M300.73 54.52c-.137.362-1.187 1.728-2.32 2.984-1.63 1.84-2.211 2.705-2.653 4.044-.746 2.259-1.188 2.845-1.852 2.454-.607-.362-1.381-1.84-1.74-3.347-.608-2.454-2.653-3.374-4.09-1.813-.47.53-1.16.893-1.852 1.032-1.547.28-2.984 1.06-3.84 2.064-.388.474-.72.977-.72 1.06 0 .112.554.92 1.244 1.785 1.741 2.231 2.404 2.538 5.527 2.399 1.437-.028 2.68-.168 2.791-.307.11-.112-.055-.558-.387-.976-1.41-1.73-2.266-3.236-1.99-3.514.526-.53 4.975 3.598 6.025 5.606.193.334.331.864.331 1.171 0 .474.166.586.83.586 1.243 0 3.84-1.088 4.2-1.757.193-.363.414-2.79.524-5.774.194-5.048.332-6.136.83-6.136.359 0 .525 1.423.773 6.722.138 2.705.332 5.076.442 5.271.36.614 2.708 1.953 3.4 1.953.441 0 1.298-.586 2.514-1.757.995-.949 2.874-2.455 4.173-3.347 3.26-2.204 3.758-2.148 2.072.25-.525.754-.967 1.507-.967 1.674 0 .446 2.625 1.59 3.62 1.59.608 0 1.078-.223 1.52-.725.69-.81 2.238-5.355 2.514-7.336.194-1.394-.083-1.534-1.27-.669-.415.335-1.604.753-2.626.976-1.05.223-3.15.976-4.698 1.674-4.007 1.785-4.587 1.701-5.554-.865-.276-.753-.801-1.869-1.188-2.482-.774-1.255-4.587-5.16-5.03-5.16-.165 0-.414.307-.552.67zm-25.809 8.422c-3.288.642-6.41 2.399-9.837 5.495-1.934 1.757-2.874 3.096-2.653 3.71.138.39.442.446 1.907.278 1.52-.14 1.74-.111 2.128.39.303.42.94.67 2.21.837 1.271.168 1.935.419 2.266.837.498.614 1.437.725 2.542.28.774-.28 1.272-1.646 1.272-3.543 0-2.26-.498-2.454-3.731-1.45-.995.306-2.128.53-2.515.474-.635-.084-.663-.112-.248-.698.608-.864 3.067-1.7 5.968-2.036 4.2-.474 5.776-1.506 5.776-3.765v-1.255l-1.575.028c-.884 0-2.46.195-3.51.418zm48.249-.112c-.139.196-.36.67-.47 1.06-.084.391-.25.893-.305 1.144-.165.586 2.1 2.092 3.924 2.65.691.195 2.93.502 4.947.641 3.51.251 5.25.67 5.25 1.283 0 .168-1.658.307-4.117.363-2.68.056-4.283.195-4.532.39-.277.251-.332.67-.221 1.534.22 1.73.856 2.762 1.851 3.124 1.106.39.94.419 1.713-.418.498-.53 1.078-.753 2.432-.948 1.16-.168 1.88-.419 2.128-.754.276-.39.746-.502 2.21-.502 1.659 0 1.852-.056 1.935-.585.166-1.255-3.924-4.993-7.793-7.112-2.929-1.59-8.262-2.706-8.953-1.87zm-43.164 5.105c-2.128 1.701-3.344 3.486-3.814 5.662-.193.78-.165 1.283.111 1.757.193.362.36 1.004.387 1.422 0 .92.94 1.702 2.846 2.343 2.349.809 4.117.67 6.798-.586l2.321-1.087-1.216-1.088c-1.575-1.395-3.786-2.538-6.632-3.375l-2.266-.641 2.543-.14c2.735-.167 3.896-.67 3.896-1.673 0-.67-2.736-3.57-3.344-3.57-.22 0-.94.446-1.63.976zm39.654 1.311c-1.327 1.478-2.211 2.956-1.962 3.207.083.084.746-.25 1.464-.725 1.354-.92 2.487-1.339 2.764-1.032.276.279-.746 1.227-2.957 2.817-3.592 2.594-3.896 3.04-2.93 4.295.636.837 2.792 1.98 3.731 1.98 1.63 0 4.09-.864 5.195-1.812 1.023-.893 1.023-.893.995-3.096 0-2.678-.801-4.519-2.597-6.08-1.603-1.367-2.156-1.311-3.703.446zm-53.333 8.869c-1.52.474-6.107 4.909-5.858 5.69.138.474 1.852 1.255 3.482 1.562.829.14 2.736.279 4.283.279 3.178 0 3.813.25 4.31 1.813.25.753.47.976.996.976.801 0 7.24-3.291 8.87-4.547 1.105-.864 1.879-1.812 1.658-2.036-.055-.056-1.41-.306-2.984-.53-3.455-.53-4.532-.836-5.665-1.673-.442-.363-1.492-.837-2.266-1.088-1.824-.53-5.72-.78-6.826-.446zm8.732 3.738c3.123.39 4.947.976 4.947 1.617 0 .195-.387.251-1.16.112-.664-.084-3.787-.307-6.992-.474-3.178-.168-6.107-.419-6.466-.586-.719-.251-.553-.642.387-.865 1.133-.279 6.19-.167 9.285.195zm55.792-3.849c-1.575.306-3.288 1.004-3.758 1.561-.718.781-1.382 1.004-4.504 1.479-4.256.669-4.45.697-4.45.948 0 .92 5.334 4.462 8.65 5.773 2.21.893 2.957.81 3.344-.362.525-1.534.718-1.618 4.974-1.785 3.426-.112 4.09-.223 5.278-.837.746-.363 1.381-.809 1.437-.948.138-.446-2.791-3.877-3.814-4.49a15.605 15.605 0 00-1.824-.893c-1.05-.363-4.338-.614-5.333-.446zm.691 3.486c.608.195 2.266.474 3.703.641 2.68.307 3.51.781 1.934 1.116-.47.084-3.564.167-6.853.14l-5.969-.029 1.52-.697c1.686-.78 3.51-1.422 4.145-1.45.221-.028.912.111 1.52.279z" fill="#129612"/><path d="M247.927 307.64h0c11.037 13.402 41.031 14.573 49.471 30.448 12.855-17.046 40.382-19.128 56.483-32.27h0" fill="none" stroke="#d2d2d2" stroke-width="3.109"/><path d="M235.292 148.568c-1.872.75-4.493 1.25-4.992 3.252.125.75 1.498.875 2.62.625-.124-1.376.25-1.876 1.998-1.501-.25-.75.25-1.5.374-2.376h0zm128.422 0c1.872.75 4.493 1.25 4.992 3.252-.125.75-1.498.875-2.62.625.124-1.376-.25-1.876-1.998-1.501.25-.75-.25-1.5-.374-2.376h0zm-54.289 65.035c1.622.5 4.118 1.126 4.493 2.877 0 .75-1.248.75-2.372.625.125-1.25-.25-1.751-1.872-1.5.25-.626-.25-1.377-.25-2.002h0z" fill="#b68c5b" stroke="#000" stroke-width=".375"/><path d="M312.545 80.406c1.373 0 2.62.25 3.994.375 8.486 24.513 49.297 24.513 57.783 8.63-4.368-4.002-5.242-7.004-4.742-12.382.374-3.127 1.123-9.38 9.36-9.755 3.12-.126 5.117 2 5.366 11.006.624 14.633-17.597 29.64-34.82 28.64-11.98-.75-37.69-8.38-36.941-26.514z" fill="#fff"/><path d="M260.752 187.589c-.25-1.751-.999-3.377-1.747-4.628 0 .25-.999.501-.999.25.749 1.251 1.373 2.877 1.623 4.128.374.25.748.25.998.375h0l.125-.125h0zM262 143.815c-.25-1.75-.999-3.376-1.747-4.627 0 .25-.999.5-.999.25.749 1.25 1.373 2.877 1.623 4.127.374.25.748.25.998.375h0l.125-.125h0zm-32.574 12.757c.25-1.75.999-3.377 1.748-4.627 0 .25.998.5.998.25-.749 1.25-1.373 2.877-1.622 4.127-.375.25-.75.25-.999.375h0l-.125-.125h0z" fill="#0f0" stroke="#000" stroke-width=".375"/><path d="M260.003 185.338c.5 0 1.248.375 1.498.5.998 1 2.995 3.127 2.995 4.503 0-1.001 1.123-3.753.125-4.628-.624-.875-3.87-1-4.618-.375h0zm0 .5c-.624 0-1.248.75-1.622 1.376-.624 1.626-1.748 4.878-1.124 6.504-.499-1.376-2.995-3.752-2.496-5.379.5-1.25 3.994-3.001 5.242-2.501h0zm-.374-1.126c-.5.25-1.248.876-1.373 1.501-.624 1.501-1.997 4.753-1.123 6.504-.624-1.376-2.996-3.752-2.621-5.503.374-1.376 4.118-3.002 5.117-2.502h0zm1.622-43.148c.5 0 1.248.375 1.498.5.998 1.001 2.995 3.127 2.995 4.503 0-1 1.123-3.753.125-4.628-.624-.875-3.87-1-4.618-.375h0zm0 .5c-.624 0-1.248.75-1.622 1.376-.624 1.626-1.748 4.878-1.124 6.503-.499-1.375-2.995-3.751-2.496-5.378.5-1.25 3.994-3 5.242-2.5h0zm-.374-1.125c-.5.25-1.248.875-1.373 1.5-.624 1.501-1.997 4.753-1.123 6.504-.624-1.376-2.996-3.752-2.621-5.503.374-1.376 4.118-3.001 5.117-2.501h0zm-30.702 13.382c-.5 0-1.248.375-1.497.5-.999 1-2.996 3.127-2.996 4.503 0-1-1.123-3.753-.125-4.628.624-.875 3.87-1 4.618-.375h0zm0 .5c.624 0 1.248.75 1.623 1.376.624 1.626 1.747 4.878 1.123 6.503.499-1.375 2.995-3.751 2.496-5.378-.5-1.25-3.994-3-5.242-2.5h0zm.375-1.125c.499.25 1.248.875 1.372 1.5.624 1.501 1.997 4.753 1.124 6.504.624-1.376 2.995-3.752 2.62-5.503-.374-1.376-4.118-3.002-5.116-2.501h0z" fill="#7eff00" stroke="#000" stroke-width=".375"/><path d="M259.629 184.838c-.624.125-1.373.625-1.623 1-.749 1-2.122 3.502-1.248 4.503-.624-1.001-3.494-2.627-2.995-3.753.5-.875 4.618-2.126 5.866-1.75h0zm-.125.125c.624.125 1.373.875 1.622 1.625.624 1.376 1.872 4.753 1.123 6.379.624-1.25 2.996-3.627 2.621-5.378-.499-1.25-4.118-3.127-5.366-2.626h0zm1.373-43.9c-.624.126-1.373.626-1.623 1.001-.749 1.001-2.121 3.502-1.248 4.503-.624-1-3.494-2.627-2.995-3.753.5-.875 4.618-2.126 5.866-1.75h0zm-.125.126c.624.125 1.373.875 1.622 1.625.624 1.376 1.872 4.753 1.123 6.379.624-1.25 2.996-3.627 2.621-5.378-.499-1.25-4.118-3.127-5.366-2.626h0zm-30.202 12.632c.624.125 1.372.625 1.622 1 .749 1 2.122 3.502 1.248 4.503.624-1 3.494-2.627 2.995-3.753-.499-.875-4.617-2.126-5.865-1.75h0zm.124.125c-.624.125-1.372.875-1.622 1.625-.624 1.377-1.872 4.753-1.123 6.379-.624-1.25-2.996-3.627-2.621-5.378.5-1.25 4.118-3.127 5.366-2.626h0z" fill="#7eff00" stroke="#000" stroke-width=".125"/><path d="M338.629 187.589c.25-1.751.998-3.377 1.747-4.628 0 .25.998.501.998.25-.749 1.251-1.373 2.877-1.622 4.128-.375.25-.749.25-.999.375h0l-.124-.125h0zm-1.248-43.774c.25-1.75.998-3.376 1.747-4.627 0 .25.998.5.998.25-.749 1.25-1.373 2.877-1.622 4.127-.375.25-.749.25-.999.375h0l-.124-.125h0zm32.573 12.757c-.25-1.75-.998-3.377-1.747-4.627 0 .25-.999.5-.999.25.75 1.25 1.373 2.877 1.623 4.127.374.25.749.25.998.375h0l.125-.125h0z" fill="#0f0" stroke="#000" stroke-width=".375"/><path d="M339.377 185.338c-.499 0-1.248.375-1.497.5-.999 1-2.995 3.127-2.995 4.503 0-1.001-1.124-3.753-.125-4.628.624-.875 3.869-1 4.617-.375h0zm0 .5c.624 0 1.248.75 1.623 1.376.624 1.626 1.747 4.878 1.123 6.504.5-1.376 2.995-3.752 2.496-5.379-.5-1.25-3.994-3.001-5.242-2.501h0zm.375-1.126c.499.25 1.248.876 1.373 1.501.624 1.501 1.996 4.753 1.123 6.504.624-1.376 2.995-3.752 2.62-5.503-.374-1.376-4.118-3.002-5.116-2.502h0zm-1.623-43.148c-.499 0-1.248.375-1.497.5-.999 1.001-2.996 3.127-2.996 4.503 0-1-1.123-3.753-.124-4.628.624-.875 3.869-1 4.617-.375h0zm0 .5c.624 0 1.248.75 1.623 1.376.624 1.626 1.747 4.878 1.123 6.503.5-1.375 2.995-3.751 2.496-5.378-.5-1.25-3.994-3-5.242-2.5h0zm.375-1.125c.499.25 1.248.875 1.373 1.5.624 1.501 1.996 4.753 1.123 6.504.624-1.376 2.995-3.752 2.62-5.503-.374-1.376-4.118-3.001-5.116-2.501h0zm30.701 13.382c.5 0 1.248.375 1.498.5.998 1 2.995 3.127 2.995 4.503 0-1 1.123-3.753.125-4.628-.624-.875-3.869-1-4.618-.375h0zm0 .5c-.624 0-1.248.75-1.622 1.376-.624 1.626-1.747 4.878-1.123 6.503-.5-1.375-2.996-3.751-2.496-5.378.499-1.25 3.993-3 5.241-2.5h0zm-.374-1.125c-.5.25-1.248.875-1.373 1.5-.624 1.501-1.997 4.753-1.123 6.504-.624-1.376-2.995-3.752-2.621-5.503.374-1.376 4.118-3.002 5.117-2.501h0z" fill="#7eff00" stroke="#000" stroke-width=".375"/><path d="M339.752 184.838c.624.125 1.373.625 1.622 1 .75 1 2.122 3.502 1.248 4.503.624-1.001 3.495-2.627 2.996-3.753-.5-.875-4.618-2.126-5.866-1.75h0zm.125.125c-.624.125-1.373.875-1.623 1.625-.624 1.376-1.872 4.753-1.123 6.379-.624-1.25-2.995-3.627-2.62-5.378.498-1.25 4.118-3.127 5.366-2.626h0zm-1.373-43.9c.624.126 1.373.626 1.622 1.001.749 1.001 2.122 3.502 1.248 4.503.624-1 3.495-2.627 2.996-3.753-.5-.875-4.618-2.126-5.866-1.75h0zm.125.126c-.624.125-1.373.875-1.623 1.625-.624 1.376-1.872 4.753-1.123 6.379-.624-1.25-2.995-3.627-2.62-5.378.498-1.25 4.118-3.127 5.366-2.626h0zm30.202 12.632c-.624.125-1.373.625-1.623 1-.748 1-2.121 3.502-1.248 4.503-.624-1-3.494-2.627-2.995-3.753.5-.875 4.618-2.126 5.866-1.75h0zm-.125.125c.624.125 1.373.875 1.622 1.625.624 1.377 1.872 4.753 1.124 6.379.624-1.25 2.995-3.627 2.62-5.378-.499-1.25-4.118-3.127-5.366-2.626h0z" fill="#7eff00" stroke="#000" stroke-width=".125"/><path d="M284.09 251.75c.25-1.752.998-3.378 1.747-4.628 0 .25.999.5.999.25-.75 1.25-1.373 2.876-1.623 4.127-.374.25-.749.25-.998.375h0l-.125-.125h0zm-1.248-43.775c.25-1.75.998-3.377 1.747-4.627 0 .25.999.5.999.25-.75 1.25-1.373 2.876-1.623 4.127-.374.25-.749.25-.998.375h0l-.125-.125h0zm32.573 12.757c-.25-1.75-.998-3.376-1.747-4.627 0 .25-.998.5-.998.25.748 1.25 1.372 2.876 1.622 4.127.375.25.749.25.999.375h0l.124-.125h0z" fill="#0f0" stroke="#000" stroke-width=".375"/><path d="M284.839 249.498c-.5 0-1.248.375-1.498.5-.998 1-2.995 3.127-2.995 4.503 0-1-1.123-3.752-.125-4.628.624-.876 3.869-1 4.618-.375h0zm0 .5c.624 0 1.248.75 1.622 1.376.624 1.626 1.747 4.878 1.123 6.503.5-1.375 2.996-3.751 2.496-5.377-.499-1.251-3.993-3.002-5.241-2.502h0zm.374-1.125c.5.25 1.248.875 1.373 1.5.624 1.5 1.997 4.753 1.123 6.504.624-1.376 2.995-3.752 2.621-5.503-.374-1.376-4.118-3.002-5.117-2.501h0zm-1.622-43.15c-.5 0-1.248.376-1.498.501-.998 1.001-2.995 3.127-2.995 4.503 0-1-1.123-3.752-.125-4.628.624-.875 3.869-1 4.618-.375h0zm0 .501c.624 0 1.248.75 1.622 1.376.624 1.626 1.747 4.878 1.123 6.504.5-1.376 2.996-3.753 2.496-5.378-.499-1.251-3.993-3.002-5.241-2.502h0zm.374-1.125c.5.25 1.248.875 1.373 1.5.624 1.501 1.997 4.753 1.123 6.504.624-1.376 2.995-3.752 2.621-5.503-.374-1.376-4.119-3.002-5.117-2.501h0zm30.701 13.382c.5 0 1.249.375 1.498.5.999 1 2.995 3.127 2.995 4.503 0-1.001 1.124-3.752.125-4.628-.624-.875-3.869-1-4.618-.375h0zm0 .5c-.624 0-1.248.75-1.622 1.376-.624 1.626-1.747 4.877-1.123 6.504-.5-1.376-2.995-3.753-2.496-5.378.499-1.251 3.993-3.002 5.241-2.502h0zm-.374-1.126c-.5.25-1.248.876-1.373 1.502-.624 1.5-1.997 4.752-1.123 6.503-.624-1.376-2.995-3.752-2.62-5.503.374-1.376 4.118-3.001 5.116-2.502h0z" fill="#7eff00" stroke="#000" stroke-width=".375"/><path d="M285.213 248.997c.624.125 1.373.626 1.623 1.001.748 1 2.121 3.502 1.248 4.503.624-1 3.494-2.627 2.995-3.752-.5-.876-4.618-2.127-5.866-1.752h0zm.125.125c-.624.126-1.373.876-1.623 1.627-.624 1.375-1.872 4.752-1.123 6.378-.624-1.25-2.995-3.627-2.62-5.378.499-1.25 4.118-3.127 5.366-2.627h0zm-1.373-43.898c.624.125 1.373.625 1.622 1 .75 1.001 2.122 3.502 1.249 4.503.624-1 3.494-2.627 2.995-3.752-.5-.876-4.618-2.126-5.866-1.751h0zm.125.125c-.624.125-1.373.875-1.623 1.626-.624 1.376-1.872 4.752-1.123 6.378-.624-1.25-2.995-3.627-2.62-5.378.499-1.25 4.118-3.126 5.366-2.626h0zm30.202 12.632c-.624.125-1.373.625-1.622 1-.75 1-2.122 3.502-1.248 4.503-.624-1.001-3.495-2.627-2.996-3.752.5-.876 4.618-2.126 5.866-1.751h0zm-.125.125c.624.125 1.373.875 1.623 1.626.624 1.375 1.872 4.752 1.123 6.378.624-1.25 2.995-3.627 2.62-5.378-.498-1.25-4.118-3.126-5.366-2.626h0z" fill="#7eff00" stroke="#000" stroke-width=".125"/><path d="M365.708 365.44c-11.488 13.986-17.235 9.05-29.553 5.35-12.31-3.708-25.444-9.87-37.346-12.745-11.903-2.884-41.463-4.95-59.52-5.767-16.718-.767-22.524-7.512-22.975-12.746.116-.036 5.31-1.365 16.135-.284 10.948 1.102 11.494.832 13.68-2.468a16.241 16.241 0 001.493-2.737c1.041-.723 1.522-1.767 1.522-3.146 0-4.125-2.877-10.279-32.43-10.279-10.037 0-17.453-.343-23.113-.89l8.749-22.564c2.666-7.402-9.645-8.628-9.645-8.628-11.494 0-20.323.197-26.063-1.241-10.832-2.709-19.296-3.694-35.708-2.876-16.418.824-29.552.824-51.718-5.76 2.054 8.439 18.473 19.943 18.473 19.943l-25.86 11.935 7.387 1.854c22.166 6.585 35.3 6.585 51.718 5.76 12.522-.628 20.411-.204 28.256 1.241l-5.718 18.403c10.366 10.767 17.562 16.424 50.247 19.563l-6.286 7.957 1.355.27c11.771 16.184 18.334 21.381 45.701 21.943 27.36.54 39.955.27 61.021 9.862 21.074 9.6 30.733 12.95 47.421 8.016 0 0 .299.868 3.329-6.278 3.409-8.037 4.254-23.396 7.532-26.148 3.285-2.738 7.663-10.417 7.663-10.417l-5.747 2.876" fill="#ffd300"/><path d="M441.239 328.283c3.554 1.643 7.386 2.738 18.88-.555 11.488-3.277 44.872-9.037 62.383-7.672-6.84-6.03-24.897-15.081-24.897-15.081l18.334-15.082s-4.654.27-11.218-1.372c-19.427-5.475-38.038.825-54.457 7.687-3.249 1.35-5.93 2.38-8.158 3.146l-3.883-13.57s-6.68-4.877-22.516.43c-14.452 4.862-17.708 12.731-16.885 14.644.823 1.92 7.663 14.811 7.663 14.811l-.16.467c-6.024 2.825-13.855 5.694-23.375 8.57-27.09 8.242-33.108 12.06-57.19 29.63l6.294 15.082 13.134 4.11s3.285 1.094 6.017.824l.335.212c13.701-9.366 22.071-13.089 42.904-19.418 27.09-8.226 40.494-16.183 37.485-23.855l-4.647-12.614s6.017-3.563 8.479-2.468l5.478 12.06" fill="#ffd300"/><path d="M161.099 314.64l3.197-11.22c.46-2.752 4.75-4.446 16.776-2.694 8.312 1.212 14.94 2.54 18.7-.496l.167-.073c.495-5.35-7.03-4.832-7.03-4.832h-.204c-11.494 0-20.323.197-26.063-1.241-10.839-2.709-19.296-3.709-35.715-2.884-15.042.76-27.338.818-46.343-4.234 3.693 4.519 13.097 11.439 13.097 11.439l-18.473 8.84c22.167 6.585 35.3 6.585 51.72 5.76 13.562-.687 21.692-.117 30.214 1.606m56.418 24.213c2.818-.555 7.982-.632 13.962.207 9.31 1.343 12.742.44 13.489-.752l-6.087 14.015s-23.684.27-22.591-13.161" fill="#fff"/><path d="M370.969 363.257l-4.92 7.03c-9.002 12.103-20.089 8.41-32.764 5.43-12.318-3.686-25.451-9.862-37.354-12.745-11.902-2.876-41.455-4.927-59.513-5.76-18.065-.825-23.397-8.635-22.989-13.986a6.104 6.104 0 01.35-1.664l3.037-5.417.452-.591c2.025-2.519 7.255-2.249 16.273-.95 5.747.811 9.645.928 12.114.3l.204-.715c0-4.117-2.462-8.643-32.015-8.643-29.552 0-36.326-2.876-42.897-5.76-3.868-1.693-9.448-7.329-8.391-10.993l-6.658 21.687c11.218 11.804 16.622 17.827 50.83 21.119l-5.748 8.511c11.764 16.17 18.335 21.382 45.695 21.929 27.367.555 39.954.27 61.028 9.862 21.066 9.614 31.439 12.79 48.127 7.855" fill="#fff"/><path d="M164.916 306.588c1.522 3.307 5.973 6.971 8.908 8.256 4.371 1.92 8.836 3.833 20.069 4.898l-.03.03 6.425-17.462c-2.658 7.395-11.341 5.446-21.947 3.891m260.705 16.038c3.555 1.657 7.386 2.752 18.881-.54 11.495-3.278 38.723-9.184 56.235-7.811l-17.271-8.3 12.704-10.22a47.386 47.386 0 01-2.411-.533c-19.428-5.49-38.04.818-54.458 7.673-16.419 6.861-18.335 5.489-20.52 3.007l-4.378-8.497s.27-3.832 3.555-5.205c3.285-1.365 3.832-1.65 3.832-1.65s-3.555-4.934-17.242 0c-13.68 4.928-14.503 11.25-14.227 12.344 0 0 2.74-.27 5.47-1.365 2.74-1.102 9.31-4.934 11.226-.27 1.908 4.658 1.908 5.614 1.908 5.614 3.016 7.672-10.664 15.213-37.754 23.44-27.09 8.226-32.568 11.519-56.65 29.067l3.831 10.425 12.566 3.905c17.125-12.176 24.817-16.009 48.185-23.097 27.09-8.227 40.501-16.183 37.486-23.863l-4.378-12.066s4.931-4.373 7.94-3.293l5.47 11.25" fill="#fff"/><path d="M170.073 330.466c-1.231 1.7-1.384 4.022.575 5.277.357.227.918.358 1.319.358l-.277-3.022 2.185 1.168.16 1.606c.846-.27 1.661-.993 2.171-1.708 1.202-1.65 1.275-4.176-.517-5.329-1.945-1.24-4.334-.102-5.616 1.65l-1.974-1.438c2.069-2.854 5.973-4.037 8.967-2.11 2.986 1.913 3.249 5.745 1.173 8.614-1.006 1.365-2.375 2.409-3.905 2.905l.197 2.57-2.156-1.103-.088-1.299c-1.02.015-2.105-.336-3.037-.934-2.994-1.913-3.285-5.723-1.151-8.643l1.974 1.438m16.9.701l2.483.24-1.952 6.548c-.43 1.439-.903 3.49 1.21 3.687 2.105.204 2.848-1.81 3.285-3.263l1.952-6.54 2.484.24-2.09 7c-.853 2.848-2.812 4.877-6.229 4.563-3.416-.343-4.086-2.62-3.234-5.475l2.083-7m16.091 12.943l-2.527-.052 2.52-11.753 2.528.058-2.52 11.746m9.891 23.331l-1.98-1.388 5.878-8.438-2.047-1.424 1.202-1.73 6.06 4.234-1.195 1.73-2.046-1.43-5.872 8.445m16.128-2.387l-1.122 2.103.306.08c1.297.401 2.397.328 3.103-1.008.721-1.357-.087-1.898-1.333-2.285l-.32-.102-.634 1.212-2.375-.664 1.588-2.993 3.183.949c2.382.73 3.519 2.182 2.273 4.533-.743 1.387-2.33 2.526-4.08 2.285l.955 5.657-2.848-.854-.575-5.3-.037-.015-2.345 4.417-2.353-.716 4.24-7.964 2.374.665m14.561 4.212l-1.442 2.504 2.972.234-.488-4.497h-.03l-1.012 1.76-2.069-.585 3.147-4.766 1.894.146 1.72 12.701-2.608-.182-.343-2.628-4.349-.329-1.653 2.468-2.579-.197 4.771-7.213 2.07.584m13.432-4.781l1.777.102 4.778 8.767h.022l1.785-8.095 2.455.124-2.703 12.293-1.77-.103-4.771-8.767h-.037l-1.799 8.183-2.455-.124 2.717-12.38m23.216 4.664c-.3-.642-.794-1.08-1.603-1.153-.772-.088-1.675.409-1.887 1.183-.546 2.022 4.619 1.679 3.526 5.7-.656 2.41-2.673 3.95-5.216 3.694-1.719-.167-2.717-1.255-3.197-2.722l1.974-1.314c.08.941.728 1.868 1.77 1.97.99.096 1.82-.656 2.076-1.569.335-1.24-.758-1.708-1.632-2.182-1.428-.796-2.39-1.694-1.887-3.548.547-2 2.52-3.453 4.619-3.241 1.107.117 2.498.803 3.037 1.686l-1.58 1.496m8.828 11.133l-2.36-.453 3.657-9.825-2.433-.468.743-2.014 7.233 1.416-.743 1.993-2.44-.467-3.657 9.818m11.335-9.79l2.243.884-2.55 6.453c-.568 1.416-1.238 3.467.67 4.226 1.91.767 2.827-1.19 3.388-2.613l2.542-6.46 2.244.898-2.717 6.89c-1.115 2.811-3.147 4.476-6.228 3.25-3.082-1.227-3.431-3.833-2.317-6.644l2.725-6.898m13.089 16.504l3.155 1.315-.809 1.942-5.383-2.241 4.735-11.446 2.229.927-3.927 9.504m10.286 6.263l-2.273-.817 4.16-11.673 2.272.796-4.16 11.694m10.264 2.606l-2.41-.467 2.826-9.752-2.492-.49.576-1.993 7.393 1.453-.575 1.986-2.491-.49-2.827 9.768m9.907-39.521c-.706-.329-1.413-.387-2.12.015-.67.372-1.027 1.255-.633 1.97 1.02 1.81 4.873-1.357 6.905 2.278 1.21 2.168.721 4.46-1.486 5.687-1.479.846-3.052.584-4.494-.241l.619-2.095c.743.671 1.916.985 2.819.481.86-.481.976-1.51.517-2.336-.626-1.109-1.835-.854-2.863-.708-1.704.197-3.117.066-4.05-1.613-1.005-1.781-.48-3.978 1.333-5.008.955-.54 2.55-.81 3.62-.452l-.167 2.022m4.094-5.417l2.134-1.139 3.264 6.118c.713 1.336 1.843 3.175 3.656 2.219 1.807-.971.91-2.935.19-4.292l-3.256-6.118 2.127-1.138 3.482 6.547c1.42 2.68 1.369 5.3-1.56 6.855-2.92 1.57-5.127.16-6.548-2.511l-3.49-6.54m19.464-6.818c-.677-.366-1.376-.468-2.105-.14-.699.329-1.121 1.183-.779 1.913.881 1.89 4.96-.985 6.716 2.789 1.056 2.24.4 4.496-1.886 5.562-1.552.73-3.096.358-4.473-.555l.765-2.051c.7.708 1.85 1.124 2.782.679.896-.409 1.093-1.424.685-2.292-.539-1.168-1.763-.986-2.797-.913-1.72.073-3.11-.175-3.926-1.898-.867-1.869-.19-4.022 1.697-4.905.998-.467 2.608-.628 3.65-.183l-.321 1.993m13.242 4.921l-2.243.883-3.773-9.563-2.316.912-.773-1.956 6.884-2.723.772 1.956-2.316.913 3.766 9.577m8.413-3.036l-2.28.788-3.999-11.738 2.287-.781 3.992 11.73m.634-13.599l1.639-.584 9.018 6.03.022-.015-2.747-7.87 2.266-.81 4.181 11.943-1.639.569-9.01-6h-.03l2.783 7.956-2.28.796-4.203-12.015"/><path d="M286.087 81.907c1.747 6.878 15.974 6.378 19.095 6.128l13.104-3.752-.375.219c3.993 10.255 19.22 16.04 31.575 15.915 12.106-.125 20.094-4.002 24.96-11.006-4.242-4.503-5.366-5.879-4.866-13.758.374-4.502 4.243-8.254 8.611-8.38 4.992-.125 9.235 3.878 12.855 7.38 5.74 5.503 10.233 12.006 16.474 16.884 5.74 4.752 12.105 4.627 17.347 8.254 5.616 4.002 11.856 10.38 14.352 16.76 2.122 5.503-1.747 11.38-5.366 11.38-4.119 0-8.487-3.627-7.738-7.003-7.238-5.378-21.216 6.128-24.586 18.51-4.493 16.134 2.371 33.518 10.608 40.522-2.62 6.879-11.731 12.632-16.474 17.01-1.747 6.378.75 15.258 6.116 19.26 6.365 1 16.973.75 23.837 1.25 3.12 1.126 2.496 5.379 3.37 8.63 1.123 4.253 3.245 9.13 2.62 13.757-2.121 14.384-6.614 26.64-20.217 36.02-7.114 4.753-12.98 8.004-21.217 11.006-3.62-3.251-6.864-8.004-10.858-9.88-12.854-.25-28.58 6.379-32.948 15.758-2.121 4.628 3.37 9.63 9.61 14.759-13.104 9.505-28.58 14.257-42.932 20.76-4.867 2.252-9.235 5.504-16.474 13.883-7.488-9.004-11.357-12.882-18.346-16.133-12.355-5.629-27.207-8.88-36.567-18.51 5.74-3.378 9.235-6.129 10.109-11.382-7.987-10.13-17.348-20.886-29.703-24.013-4.118 1.626-9.36 8.88-12.605 14.258-30.452-6.379-55.163-40.022-39.188-67.787 3.494 1.376 8.611 3.877 12.855 1.626 7.987-5.003 17.472-11.382 18.096-20.761-.25-9.006-7.114-15.384-15.226-19.51 5.367-3.878 11.232-17.636 11.607-27.516.374-9.255-4.743-17.76-9.61-25.64-2.247-3.876-7.488-7.378-10.608-8.504-1.373 2.126-6.864 6.88-10.983 7.129-4.118.125-10.109-3.252-10.109-7.504 0-3.252 1.373-8.38 5.117-10.63 10.234-6.254 22.215-10.382 31.575-17.885 5.616-4.628 8.237-12.882 14.103-17.635 2.246-1.751 4.742-3.627 7.113-4.253 6.048 25.368 15.044 28.424 27.672 32.711 13.853 1.626 32.234-4.195 44.215-18.327z" fill="#fff"/><path d="M282.717 80.53c-1.872 11.632-21.738 18.932-33.22 19.341-11.415-.819-19.946-5.958-26.81-13.462 2.746-.625 5.866-6.504 5.491-11.131-.124-3.752-3.619-7.63-7.238-8.255-2.746-.5-4.493-.375-6.74.5-5.366 27.015 22.465 38.772 36.568 38.396 14.102-.5 35.038-10.818 34.04-24.95v-.282l-2.091-.156z" fill="#fff"/><path d="M407.498 328.4l1.092 2.511 3.519-1.555.845 1.927-3.519 1.548 1.34 3.066 3.65-1.591.845 1.92-5.856 2.569-4.976-11.351 5.864-2.577.845 1.92-3.65 1.613m16.871 2.62l-2.098 1.198-3.831-9.578-2.17 1.227-1.028-1.825 6.44-3.65 1.034 1.825-2.171 1.24 3.824 9.564m-69.652-30.01c.08.102-.08.168-.16.256h-.088v-.241l.248-.015m-.153 1.08l-.168-.24c.16-.168.495.16.168.24m.983-.27h.576-.576"/><path d="M84.087 286.932c19.121 5.125 31.446 5.066 46.54 4.293 16.418-.81 24.875.175 35.714 2.883 5.733 1.438 14.57 1.241 26.056 1.241m-113.49 11.935c22.167 6.57 35.3 6.57 51.72 5.76 13.665-.701 20.723-.672 29.319 1.095m32.459-25.579s12.31 1.227 9.644 8.643c-2.666 7.395-10.533 5.658-21.139 4.103-28.117-4.103-13.957 10.694-7.386 13.577 6.563 2.876 13.337 5.76 42.89 5.76 29.552 0 32.43 6.168 32.43 10.278 0 4.117-4.109 5.343-15.603 3.708-11.488-1.642-16.827-1.642-17.235 3.687-.415 5.365 4.924 13.161 22.982 13.993 18.058.81 47.617 2.876 59.52 5.76 11.903 2.876 25.036 9.037 37.347 12.745 12.317 3.701 18.065 8.636 29.552-5.35m-173.483-70.115s7.889.358 7.874 5.19m15.938 38.762c2.674-1.153 7.452-.766 14.635.256 7.706 1.102 12.099.912 14.146-.57m1.391-4.058c-.233-6.79-4.982-9.359-32.364-9.359-29.553 0-36.327-2.861-42.898-5.745-3.277-1.438-7.794-5.716-8.31-9.183m2.214-3.876c2.287-1.095 6.49-1.482 13.49-.511 9.171 1.255 18.05 2.124 21.54-2.256l2.185-5.832m-46.437 32.769c11.217 11.774 16.892 17.41 51.099 20.702m-4.378 5.76c-32.677-3.154-38.512-8.797-48.878-19.579l11.386-35.2m52.818 32.28l-19.704 30.44c11.764 16.177 19.15 21.666 46.518 22.214 27.36.54 39.954.27 61.02 9.862 21.074 9.6 30.376 12.891 47.064 7.957 0 0 3.286-3.293 4.932-9.454 1.639-6.175 11.08-25.089 13.95-32.075l-3.279 5.329c-11.494 13.986-22.58 10.293-34.891 6.584-12.318-3.686-25.452-9.876-37.354-12.745-11.903-2.876-41.455-4.927-59.513-5.76-17.308-.78-22.931-7.993-23.011-13.3l-.386-2.467m142.838 58.398c-16.689 4.95-25.998 2.482-47.064-7.117-21.074-9.592-33.661-9.322-61.02-9.877-27.368-.54-34.754-6.03-46.518-22.198m-42.17-41.288c-7.808-1.43-15.69-1.854-28.16-1.227-16.42.825-29.553.825-51.72-5.76l-7.385-1.853 25.859-11.92s-16.419-11.52-18.473-19.944c22.166 6.57 35.3 6.57 51.718 5.745 16.42-.818 24.876.168 35.715 2.89 5.74 1.424 14.57 1.227 26.064 1.227" fill="none"/><path d="M200.133 303.489l-5.47 15.628m44.601 32.638l9.033-19.191m180.054-34.558l12.864 30.163c3.554 1.643 7.386 2.738 18.88-.555 11.488-3.292 44.872-9.051 62.383-7.672-5.193-6.03-25.174-14.54-25.174-14.54l18.611-15.622s-4.654.27-11.218-1.373c-19.427-5.475-38.038.825-54.457 7.687-16.419 6.84-18.335 5.475-20.52 3.007-4.655-3.007-.546-6.03 4.924-9.051 5.47-3.008 4.378-6.03-.823-6.307-18.058-1.636-30.099 7.956-33.653 12.35-3.555 4.373-1.093 9.308 9.302 4.935 5.667-2.401 9.032-3.854 10.948-.284 3.008 7.68-10.402 15.636-37.492 23.848-27.09 8.242-33.108 12.074-57.19 29.63l6.294 14.797m71.415-66.355c-.27-7.125 21.897-18.644 31.469-13.432m-14.227 11.797l11.218 30.148c3.009 7.686-10.394 15.629-37.485 23.856-20.993 6.372-29.334 10.124-43.225 19.643m80.273-69.633c2.193 2.468 4.815 4.212 21.234-2.65 16.419-6.854 35.03-13.161 54.457-7.671.277.073 1.385.401 1.654.474m-69.791 26.929c3.555 1.657 7.386 2.752 18.881-.54 11.495-3.278 38.854-8.767 56.366-7.402m-186.07 44.696c24.081-17.548 29.282-20.84 56.373-29.067 27.09-8.227 40.85-16.352 37.842-24.024M344.37 373.18c17.089-12.162 24.788-15.98 48.134-23.082 27.09-8.227 40.501-16.17 37.485-23.849m-31.19-25.22l7.385 14.256M438.2 285.94l3.562 12.891m-1.916-6.314c-4.931 2.19-10.671 5.49-7.94 7.68m-29.822 6.306c1.362 1.65 4.101 1.365 9.026-.832 4.924-2.182 9.578-2.737 8.748-.54m5.755 8.782c2.462-1.65 5.2-3.293 8.486-2.752m-7.117 7.416c3.008-1.927 7.117-2.752 9.302-2.197" fill="none"/><path d="M401.981 306.673c1.596 2.46 6.312.689 11.483-1.508 3.318-.945 6.285-1.81 5.972.385-.409 3.72-12.685 10.115-13.071 9.31-1.473-3.069-1.578-3.426-4.384-8.187zm39.38-7.713c-3.449 1.256-1.986.611-4.377 1.384-2.7.14-5.42 1.192-5.353-1.747 1.582-3.038 8.028-5.654 8.066-5.533.749 2.388.836 3.117 1.664 5.896zM172.742 102.265l9.816-5.142c9.584-6.05 10.664-6.093 15.643-12.323 6.507-8.143 2.63-5.83 8.942-12.181.868 10.598 19.441 40.414 39.286 40.198 24.37-.023 39.405-15.202 44.022-24.832 5.774-.366 11.528-.704 17.473-.25 5.366 15.508 25.46 25.389 41.808 25.264 17.722-.126 41.435-11.632 39.438-39.772 25.761 33.587 24.32 15.542 44.804 35.77-37.395-2.888-64.523 47.753-33.696 83.523-4.339 5.414-6.745 13.015-3.068 13.424l15.117 13.511c31.158 29.049-9.429 53.13-29.771 58.633L351.729 299.6h-8.486c-9.735 11.506-34.196 11.757-45.803 25.64-14.976-17.26-33.946-11.757-42.183-27.015h-5.367s-15.242-7.376-38.837-20c-27.321-12.576-39.46-20.247-29.566-54.654 24.408-16.194 22.635-24.824 17.234-34.906 19.73-29.483 20.287-71.152-29.452-84.762l3.473-1.638z" fill="#fff"/><path d="M263.123 187.714c.874-1.375 2.122-1.626 3.245-1 .998.5 1.498 2.25.25 3.376 2.246.75 1.996 4.003-.375 4.253 1.747.875 1.747 3.752-.624 4.127 1.123 1.25.375 3.252-.998 3.752.124.75-.375 1.501-1.248 1.876.499 1 .25 1.876-.375 2.502-.125.75-.624 1.125-1.123 1.5-.25.876-.998 1.626-2.122 1.626-1.123 0-2.121-.876-2.121-2.126-1.748-1-1.373-2.877 0-3.752-1.872-.75-2.122-2.752-.874-3.627-.374-.5-.5-1-.5-1.5-.998-.626-1.372-1.752-.873-2.628-1.997-.5-2.246-2.5-1.373-3.501-1.497-1.126-.873-3.252.5-3.752-.25-1.251.748-2.252 1.872-2.377.749-.124 1.622.25 1.997.876.624-.375 1.747-.125 2.37.625.5-.375 1.498-.75 2.372-.25h0zm1.248-43.774c.874-1.375 2.122-1.625 3.245-1 .998.5 1.498 2.251.25 3.376 2.246.75 1.996 4.003-.375 4.253 1.747.876 1.747 3.752-.624 4.127 1.123 1.25.375 3.252-.998 3.752.125.75-.375 1.5-1.248 1.876.499 1 .25 1.876-.375 2.502-.125.75-.624 1.125-1.123 1.5-.25.876-.998 1.626-2.122 1.626-1.123 0-2.121-.875-2.121-2.126-1.747-1-1.373-2.877 0-3.752-1.872-.75-2.122-2.752-.874-3.627-.374-.5-.5-1-.5-1.5-.997-.626-1.372-1.752-.873-2.627-1.997-.5-2.246-2.501-1.373-3.502-1.497-1.126-.873-3.252.5-3.752-.25-1.25.749-2.252 1.872-2.376.749-.125 1.622.25 1.997.875.624-.375 1.747-.125 2.37.625.5-.375 1.498-.75 2.372-.25h0zm-37.316 12.757c-.874-1.376-2.122-1.625-3.245-1-.998.5-1.497 2.251-.25 3.377-2.246.75-1.996 4.002.375 4.252-1.747.875-1.747 3.752.624 4.127-1.123 1.25-.374 3.252.998 3.752-.124.75.375 1.5 1.248 1.876-.499 1-.249 1.876.375 2.501.125.751.624 1.126 1.123 1.501.25.876.999 1.626 2.122 1.626 1.123 0 2.121-.875 2.121-2.126 1.748-1 1.373-2.877 0-3.752 1.872-.75 2.122-2.751.874-3.627.374-.5.5-1 .5-1.5.998-.626 1.372-1.752.873-2.627 1.997-.5 2.246-2.501 1.373-3.502 1.497-1.126.873-3.252-.5-3.752.25-1.25-.748-2.252-1.872-2.376-.748-.126-1.622.25-1.996.875-.624-.375-1.748-.125-2.372.626-.499-.376-1.497-.75-2.37-.25h0zm109.202 31.017c-.873-1.375-2.121-1.626-3.245-1-.998.5-1.497 2.25-.25 3.376-2.246.75-1.996 4.003.375 4.253-1.747.875-1.747 3.752.624 4.127-1.123 1.25-.374 3.252.999 3.752-.125.75.374 1.501 1.248 1.876-.5 1-.25 1.876.374 2.502.125.75.624 1.125 1.123 1.5.25.876.999 1.626 2.122 1.626 1.123 0 2.122-.876 2.122-2.126 1.747-1 1.372-2.877 0-3.752 1.872-.75 2.121-2.752.873-3.627.375-.5.5-1 .5-1.5.998-.626 1.372-1.752.873-2.628 1.997-.5 2.247-2.5 1.373-3.501 1.498-1.126.874-3.252-.5-3.752.25-1.251-.748-2.252-1.871-2.377-.75-.124-1.623.25-1.997.876-.624-.375-1.747-.125-2.371.625-.5-.375-1.498-.75-2.372-.25h0zm-1.248-43.774c-.873-1.375-2.121-1.625-3.245-1-.998.5-1.497 2.251-.25 3.376-2.246.75-1.996 4.003.375 4.253-1.747.876-1.747 3.752.624 4.127-1.123 1.25-.374 3.252.999 3.752-.125.75.374 1.5 1.248 1.876-.5 1-.25 1.876.374 2.502.125.75.624 1.125 1.123 1.5.25.876.999 1.626 2.122 1.626 1.123 0 2.122-.875 2.122-2.126 1.747-1 1.372-2.877 0-3.752 1.872-.75 2.121-2.752.873-3.627.375-.5.5-1 .5-1.5.998-.626 1.372-1.752.873-2.627 1.997-.5 2.247-2.501 1.373-3.502 1.498-1.126.874-3.252-.5-3.752.25-1.25-.748-2.252-1.871-2.376-.75-.125-1.623.25-1.997.875-.624-.375-1.747-.125-2.371.625-.5-.375-1.498-.75-2.372-.25h0zm37.316 12.757c.874-1.376 2.122-1.625 3.245-1 .999.5 1.498 2.251.25 3.377 2.246.75 1.997 4.002-.375 4.252 1.748.875 1.748 3.752-.624 4.127 1.124 1.25.375 3.252-.998 3.752.125.75-.374 1.5-1.248 1.876.5 1 .25 1.876-.375 2.501-.124.751-.624 1.126-1.123 1.501-.25.876-.998 1.626-2.121 1.626-1.124 0-2.122-.875-2.122-2.126-1.747-1-1.373-2.877 0-3.752-1.872-.75-2.122-2.751-.874-3.627-.374-.5-.499-1-.499-1.5-.998-.626-1.373-1.752-.873-2.627-1.997-.5-2.247-2.501-1.373-3.502-1.498-1.126-.874-3.252.499-3.752-.25-1.25.749-2.252 1.872-2.376.749-.126 1.622.25 1.997.875.624-.375 1.747-.125 2.371.626.5-.376 1.498-.75 2.371-.25h0z" fill="#b400b4" stroke="#000" stroke-width=".375"/><path d="M259.005 205.224c-.5 1.875.873 3.752 2.37 3.376-.998 1.251-3.369 1-3.868-1-.374-.625.25-2.126 1.498-2.376h0zm1.497-1.626c-.499 1.626 1.248 3.002 2.746 2.751-.999 1.251-3.37.876-3.869-.875-.374-.625-.125-1.75 1.123-1.876h0zm1.373-3.502c-.5 1.75.874 3.627 2.371 3.252a2.205 2.205 0 01-3.869-.876c-.374-.75.125-2.25 1.498-2.376h0zm-3.994-3.502c-.624 1.751.874 3.627 2.372 3.252-1.124 1.5-3.37 1-3.994-.876-.25-.75.25-2.126 1.622-2.376h0zm2.746-1.626c-.5 1.876.874 3.752 2.496 3.252-1.123 1.375-3.494 1-3.994-.75-.374-.75.25-2.252 1.498-2.502h0zm-3.62-2.25c-.623 1.875.874 3.125 2.372 2.75-1.123 1.501-3.37 1-3.994-.875-.25-.75.25-1.626 1.623-1.876h0zm6.116-.126c-.624 1.75.874 3.501 2.371 3.251-1.123 1.376-3.37 1.001-3.993-.875-.25-.75.25-2.25 1.622-2.376h0zm-3.37-2.376c-.499 1.876.25 3.376 1.748 3.126-.999 1.376-2.746 1.126-3.245-.625-.25-.876.25-2.252 1.497-2.501h0zm-5.117-1.376c-.499 1.876.874 3.752 2.497 3.376-1.124 1.376-3.495.876-3.994-.875-.375-.75.25-2.251 1.497-2.501h0zm1.248-2.252c-.499 1.877.874 3.628 2.372 3.378a2.205 2.205 0 01-3.87-.876c-.374-.75.126-2.376 1.498-2.502h0zm5.741 1c-.499 1.752.874 3.628 2.372 3.378-.999 1.376-3.37.875-3.87-.876-.374-.75.25-2.376 1.498-2.501h0zm2.996-1.125c-.624 1.876.873 3.627 2.37 3.378a2.205 2.205 0 01-3.868-.876c-.374-.75.125-2.251 1.498-2.502h0zm-4.368-25.013c-.5 1.876.873 3.752 2.37 3.377-.998 1.25-3.369 1-3.868-1.001-.374-.625.25-2.126 1.498-2.376h0zm1.497-1.626c-.499 1.626 1.248 3.002 2.746 2.752-.999 1.25-3.37.875-3.869-.876-.374-.625-.125-1.751 1.123-1.876h0zm1.373-3.502c-.5 1.75.874 3.627 2.371 3.252a2.205 2.205 0 01-3.869-.876c-.374-.75.125-2.25 1.498-2.376h0zm-3.994-3.502c-.624 1.75.874 3.627 2.372 3.252-1.124 1.5-3.37 1-3.994-.876-.25-.75.25-2.126 1.622-2.376h0zm2.746-1.626c-.5 1.876.874 3.752 2.496 3.252-1.123 1.376-3.494 1-3.994-.75-.374-.75.25-2.251 1.498-2.502h0zm-3.62-2.251c-.623 1.876.874 3.127 2.372 2.751-1.123 1.501-3.37 1-3.994-.875-.25-.75.25-1.626 1.623-1.876h0zm6.116-.125c-.624 1.75.874 3.502 2.371 3.252-1.123 1.375-3.37 1-3.993-.876-.25-.75.25-2.251 1.622-2.376h0zm-3.37-2.377c-.499 1.877.25 3.378 1.748 3.127-.999 1.376-2.746 1.126-3.245-.625-.25-.875.25-2.251 1.497-2.502h0zm-5.117-1.375c-.499 1.876.874 3.752 2.497 3.377-1.124 1.376-3.495.875-3.994-.876-.375-.75.25-2.251 1.497-2.5h0zm1.249-2.252c-.5 1.877.873 3.627 2.37 3.378a2.205 2.205 0 01-3.868-.876c-.375-.75.125-2.376 1.498-2.502h0zm5.74 1.001c-.499 1.751.874 3.627 2.372 3.377-.999 1.376-3.37.876-3.87-.876-.374-.75.25-2.376 1.498-2.5h0zm2.996-1.125c-.624 1.875.873 3.626 2.37 3.376a2.205 2.205 0 01-3.868-.875c-.374-.75.125-2.251 1.498-2.501h0zm-34.695 31.517c.499 1.876-.874 3.752-2.372 3.376.999 1.251 3.37 1.001 3.87-1 .374-.625-.25-2.126-1.498-2.376h0zm-1.498-1.626c.5 1.626-1.248 3.001-2.745 2.752.998 1.25 3.369.875 3.868-.876.375-.625.125-1.751-1.123-1.876h0zm-1.373-3.502c.5 1.75-.873 3.627-2.371 3.252a2.205 2.205 0 003.869-.876c.374-.75-.125-2.25-1.498-2.376h0zm3.994-3.502c.624 1.75-.874 3.627-2.371 3.252 1.123 1.5 3.37 1 3.993-.875.25-.75-.25-2.127-1.622-2.377h0zm-2.746-1.626c.5 1.876-.873 3.752-2.496 3.252 1.123 1.376 3.495 1 3.994-.75.374-.75-.25-2.252-1.498-2.502h0zm3.62-2.251c.623 1.876-.874 3.126-2.372 2.751 1.123 1.501 3.37 1.001 3.994-.875.25-.75-.25-1.626-1.623-1.876h0zm-6.116-.125c.624 1.751-.874 3.502-2.371 3.252 1.123 1.375 3.37 1 3.994-.876.25-.75-.25-2.251-1.623-2.376h0zm3.37-2.377c.499 1.877-.25 3.378-1.747 3.127.998 1.376 2.745 1.126 3.244-.625.25-.875-.25-2.251-1.497-2.502h0zm5.117-1.375c.499 1.876-.874 3.752-2.496 3.377 1.123 1.376 3.494.875 3.993-.876.375-.75-.25-2.251-1.497-2.501h0zm-1.248-2.252c.499 1.876-.874 3.627-2.372 3.378a2.205 2.205 0 003.87-.876c.374-.75-.126-2.376-1.498-2.502h0zm-5.741 1.001c.5 1.751-.874 3.627-2.372 3.377.999 1.376 3.37.876 3.87-.875.374-.75-.25-2.377-1.498-2.502h0zm-2.996-1.125c.624 1.875-.873 3.627-2.37 3.376a2.205 2.205 0 003.868-.875c.375-.75-.124-2.251-1.498-2.501h0z" fill="#642864" stroke="#000" stroke-width=".375"/><path d="M175.387 220.607c2.621.5 5.117.876 7.363-.125-11.731 26.014 6.74 47.4 31.2 59.157-1.122 1.876-2.246 3.252-3.369 4.878-24.212-10.881-47.8-34.144-35.194-63.91zm79.5 78.418h-5.367v6.629c10.608 12.882 39.437 14.007 47.55 29.266 12.355-16.384 38.813-18.386 54.288-31.017V300.4h-8.486c-9.735 11.506-34.196 11.756-45.803 25.639-14.976-17.26-33.946-11.757-42.183-27.015zm156.252-82.045c2.62.125 5.242-.125 7.862.376 14.852 33.142-3.244 51.403-31.45 67.036-1.622-1.876-3.494-4.003-5.366-5.503 20.343-5.503 48.673-28.766 28.954-61.909zm-5.616-29.766l-5.616 4.878c-30.827-35.77-5.741-88.049 33.696-82.296 3.744.501 6.74 8.756 5.242 8.255-45.678-18.76-54.29 49.903-33.322 69.163zM312.794 80.406c.375 2.501 2.122 4.002 3.745 3.501 1.747-.625 2.246-3.627 1.872-5.378-.25-2.25-1.997-5.628-4.868-5.628-2.496 0-5.616 2.877-5.74 6.629-.125 2.877-.125 6.004-.25 9.005 5.366 15.508 25.46 25.39 41.809 25.264 17.722-.125 41.434-11.631 39.437-39.772-1.497-1.375-2.87-2.876-4.243-4.252 3.37 23.262-18.97 37.395-35.32 37.02-13.603-.375-38.563-10.506-36.442-26.39zm-21.34-3.377c.124 4.627-.126 7.254-1.374 11.756-4.617 9.63-11.481 22.763-39.936 24.014-30.702 1.25-45.553-23.513-41.81-41.898 1.748-1.627 4.244-2.877 5.991-3.377-5.366 18.51 12.98 38.395 36.443 38.395 16.598 0 35.943-14.007 33.696-25.138-6.49 0-7.238-10.006 1.748-9.88 4.492 0 5.366 3.751 5.241 6.128zM166.65 104.294c51.169 10.13 52.042 57.531 31.7 85.171-1.748-2.126-3.495-4.252-5.242-6.253 20.093-23.388 10.858-66.411-31.7-75.917l5.242-3.001zm207.92-15.008c3.62-4.378 4.993-5.754 5.118-9.255.124-2.001-.5-7.255-2.496-7.255-2.122 0-2.87 4.128-3.12 6.129-.25 2.627 3.12 5.878.499 10.38zm51.42 31.517c4.243 1.125 6.614-1.25 8.86.25 1.498 1 1.748 2.25 1.124 3.251-.624 1.252-2.496 1.876-3.87 1.501-2.62-.75-3.494-3.251-6.115-5.002zM222.81 86.659c-2.495-3.377-4.242-7.129-4.367-10.005-.125-2.377 1.373-6.128 3.245-5.253 1.747.625 3.37 4.252 2.37 7.254-.873 3.126-1.746 5.502-1.247 8.004zm-45.552 31.517c-4.992-2.5-7.738-4.377-11.856-3.877-2.496.25-5.117 2.752-4.618 5.378.5 2.627 3.994 4.002 6.49 3.127 3.744-1 5.117-3.752 9.984-4.628z" fill="#ffd312"/><path d="M340.376 205.224c.5 1.875-.874 3.752-2.371 3.376.998 1.251 3.37 1 3.868-1 .375-.625-.25-2.126-1.497-2.376h0zm-1.498-1.626c.5 1.626-1.248 3.002-2.745 2.751.998 1.251 3.37.876 3.868-.875.375-.625.125-1.75-1.123-1.876h0zm-1.373-3.502c.5 1.75-.873 3.627-2.37 3.252a2.205 2.205 0 003.868-.876c.374-.75-.125-2.25-1.498-2.376h0zm3.994-3.502c.624 1.751-.874 3.627-2.371 3.252 1.123 1.5 3.37 1 3.993-.876.25-.75-.25-2.126-1.622-2.376h0zm-2.746-1.626c.5 1.876-.873 3.752-2.496 3.252 1.124 1.375 3.495 1 3.994-.75.374-.75-.25-2.252-1.498-2.502h0zm3.62-2.25c.624 1.875-.874 3.125-2.372 2.75 1.124 1.501 3.37 1 3.994-.875.25-.75-.25-1.626-1.622-1.876h0zm-6.116-.126c.624 1.75-.873 3.501-2.37 3.251 1.122 1.376 3.369 1.001 3.993-.875.25-.75-.25-2.25-1.623-2.376h0zm3.37-2.376c.5 1.876-.25 3.376-1.747 3.126.998 1.376 2.745 1.126 3.245-.625.25-.876-.25-2.252-1.498-2.501h0zm5.117-1.376c.5 1.876-.874 3.752-2.496 3.376 1.123 1.376 3.494.876 3.994-.875.374-.75-.25-2.251-1.498-2.501h0zm-1.248-2.252c.5 1.877-.874 3.628-2.371 3.378a2.205 2.205 0 003.869-.876c.374-.75-.125-2.376-1.498-2.502h0zm-5.741 1c.5 1.752-.874 3.628-2.371 3.378.998 1.376 3.37.875 3.869-.876.374-.75-.25-2.376-1.498-2.501h0zm-2.995-1.125c.624 1.876-.874 3.627-2.372 3.378a2.205 2.205 0 003.87-.876c.374-.75-.125-2.251-1.498-2.502h0zm4.368-25.013c.499 1.876-.874 3.752-2.371 3.377.998 1.25 3.37 1 3.868-1.001.375-.625-.25-2.126-1.497-2.376h0zm-1.498-1.626c.5 1.626-1.248 3.002-2.745 2.752.998 1.25 3.37.875 3.868-.876.375-.625.125-1.751-1.123-1.876h0zm-1.373-3.502c.5 1.75-.873 3.627-2.37 3.252a2.205 2.205 0 003.868-.876c.374-.75-.125-2.25-1.498-2.376h0zm3.994-3.502c.624 1.75-.874 3.627-2.371 3.252 1.123 1.5 3.37 1 3.993-.876.25-.75-.25-2.126-1.622-2.376h0zm-2.746-1.626c.5 1.876-.873 3.752-2.496 3.252 1.124 1.376 3.495 1 3.994-.75.374-.75-.25-2.251-1.498-2.502h0zm3.62-2.251c.624 1.876-.874 3.127-2.372 2.751 1.124 1.501 3.37 1 3.994-.875.25-.75-.25-1.626-1.622-1.876h0zm-6.116-.125c.624 1.75-.873 3.502-2.37 3.252 1.122 1.375 3.369 1 3.993-.876.25-.75-.25-2.251-1.623-2.376h0zm3.37-2.377c.5 1.877-.25 3.378-1.747 3.127.998 1.376 2.745 1.126 3.245-.625.25-.875-.25-2.251-1.498-2.502h0zm5.117-1.375c.5 1.876-.874 3.752-2.496 3.377 1.123 1.376 3.494.875 3.994-.876.374-.75-.25-2.251-1.498-2.5h0zm-1.248-2.252c.5 1.877-.874 3.627-2.371 3.378a2.205 2.205 0 003.869-.876c.374-.75-.125-2.376-1.498-2.502h0zm-5.741 1.001c.5 1.751-.874 3.627-2.371 3.377.998 1.376 3.37.876 3.869-.876.374-.75-.25-2.376-1.498-2.5h0zm-2.995-1.125c.624 1.875-.874 3.626-2.372 3.376a2.205 2.205 0 003.87-.875c.374-.75-.125-2.251-1.498-2.501h0zm34.695 31.517c-.5 1.876.873 3.752 2.371 3.376-.998 1.251-3.37 1.001-3.869-1-.374-.625.25-2.126 1.498-2.376h0zm1.497-1.626c-.499 1.626 1.248 3.001 2.746 2.752-.998 1.25-3.37.875-3.869-.876-.374-.625-.125-1.751 1.123-1.876h0zm1.373-3.502c-.499 1.75.874 3.627 2.372 3.252a2.205 2.205 0 01-3.87-.876c-.374-.75.125-2.25 1.498-2.376h0zm-3.993-3.502c-.624 1.75.873 3.627 2.37 3.252-1.122 1.5-3.369 1-3.993-.875-.25-.75.25-2.127 1.623-2.377h0zm2.745-1.626c-.499 1.876.874 3.752 2.496 3.252-1.123 1.376-3.494 1-3.993-.75-.375-.75.25-2.252 1.497-2.502h0zm-3.619-2.251c-.624 1.876.874 3.126 2.371 2.751-1.123 1.501-3.37 1.001-3.993-.875-.25-.75.25-1.626 1.622-1.876h0zm6.115-.125c-.624 1.751.874 3.502 2.372 3.252-1.124 1.375-3.37 1-3.994-.876-.25-.75.25-2.251 1.622-2.376h0zm-3.37-2.377c-.499 1.877.25 3.378 1.748 3.127-.999 1.376-2.746 1.126-3.245-.625-.25-.875.25-2.251 1.498-2.502h0zm-5.116-1.375c-.5 1.876.873 3.752 2.496 3.377-1.123 1.376-3.495.875-3.994-.876-.374-.75.25-2.251 1.498-2.501h0zm1.248-2.252c-.5 1.876.873 3.627 2.371 3.378a2.205 2.205 0 01-3.869-.876c-.374-.75.125-2.376 1.498-2.502h0zm5.74 1.001c-.499 1.751.874 3.627 2.372 3.377-.999 1.376-3.37.876-3.869-.875-.374-.75.25-2.377 1.498-2.502h0zm2.996-1.125c-.624 1.875.874 3.627 2.371 3.376a2.205 2.205 0 01-3.869-.875c-.374-.75.125-2.251 1.498-2.501h0z" fill="#642864" stroke="#000" stroke-width=".375"/><path d="M292.452 275.387c.748-2.376 2.496-2.502 2.496-5.878h0v-71.29h0c0-1 .873-1.75 1.872-1.75h0c.998 0 2.121.75 2.121 1.75v71.29c.999 3.376-.624 5.253 2.247 5.378 7.363.5 15.35 1 22.215 3.001.749.626.624 1.251 0 1.877h0H277.1h0c-.374-.876-.125-2.127.874-2.752 7.612-2.251 14.227-.626 14.477-1.626h0zm53.166-58.407c.873-2.626 2.745-2.752 2.745-6.378h0v-78.794h0c0-1.125.874-1.875 1.997-1.875h0c1.123 0 2.246.875 2.246 2 0 26.14 0 52.404.125 78.669.999 3.626-.873 5.753 2.247 5.878 7.987.5 16.723 1 23.962 3.252.873.625.624 1.375 0 2.126h0-49.921 0c-.375-1-.125-2.376.998-3.127 8.237-2.501 15.226-.625 15.6-1.75h0zm-92.354 0c-.874-2.626-2.746-2.752-2.746-6.378h0v-78.794h0c0-1.125-.874-1.875-1.997-1.875h0a1.973 1.973 0 00-1.997 2c0 26.14 0 52.404-.125 78.669-.998 3.626.625 5.753-2.246 5.878-7.987.5-16.723 1-23.962 3.252-.874.625-.624 1.375 0 2.126h49.671c.375-1 .125-2.376-.998-3.127-8.237-2.501-15.226-.625-15.6-1.75h0z" fill="#961e1d" stroke="#000" stroke-width="1.403"/><path d="M290.08 197.47c.999 1.875 1.997 2.751 4.244 2.751 2.995 0 7.488 2.126 9.36 3.877 2.62 2.251 5.242 6.628 5.99 10.13.375 2.002.125 4.003-1.123 5.129-2.87 2.626-6.365 4.252-9.36 6.378-3.12 2.126-6.365 4.753-8.237 8.505-1.373 2.626-.749 5.877.5 8.254 2.37 4.502 7.238 8.255 11.107 12.632.748.75 2.995-.125 3.37 1.126 1.871 5.503.623 10.255 1.747 16.008.624 3.502 5.366 3.502 7.488 4.502-4.244-.25-8.986-.5-12.73-2.25.998-.876 1.497-1.627 1.497-3.378 0-4.002-1.622-10.005-3.744-12.006-3.12-3.252-7.113-7.129-10.109-10.506-2.37-2.5-3.619-4.127-4.118-7.004-.874-4.252.624-7.754 2.995-11.38 3.12-4.753 9.485-7.254 14.103-10.256 1.123-.75 2.62-3.752 2.62-6.003-.124-3.502-3.619-7.38-5.366-7.755-2.246-.375-7.114.125-9.36-.5-.749-.25-.125-1.25-1.248-1.25-1.248-.126-2.122.75-2.62 2 .124-1-1.374-1.5-2.871-1.125 1.747-2.251 3.744-3.127 6.49-3.502.249-1.376-1.124-2.752-2.372-3.627 1.248.5 1.747.25 1.747-.75h0zm52.917-66.662c1.123 2.001 2.121 3.002 4.493 3.002 3.244 0 8.237 2.501 10.233 4.252 2.746 2.626 5.492 7.38 6.365 11.256.375 2.127.125 4.378-1.248 5.628-2.995 2.877-6.739 4.753-9.984 7.004-3.37 2.377-6.989 5.253-8.986 9.38-1.373 2.877-.749 6.504.624 9.13 2.621 5.003 7.738 9.13 11.857 13.883.873 1 3.244 0 3.744 1.375 1.996 6.004.624 11.257 1.747 17.635.749 3.877 5.99 3.877 8.237 4.878-4.618-.25-9.735-.5-13.853-2.376 1.123-1 1.747-1.876 1.747-3.753 0-4.502-1.872-11.13-3.994-13.382-3.494-3.502-7.737-7.754-10.982-11.506-2.621-2.752-3.87-4.502-4.493-7.63-.874-4.752.749-8.63 3.37-12.631 3.244-5.253 10.108-8.004 15.1-11.256 1.249-.876 2.871-4.252 2.746-6.629 0-3.877-3.744-8.254-5.616-8.504-2.496-.5-7.738 0-10.234-.626-.749-.25-.124-1.376-1.373-1.376-1.248-.124-2.121.876-2.745 2.126.125-1-1.498-1.5-3.12-1.125 1.872-2.626 4.118-3.502 6.989-4.002.25-1.376-1.248-3.002-2.621-3.877 1.373.5 1.997.25 1.997-.876h0zm-86.863 0c-1.123 2.001-2.122 3.002-4.493 3.002-3.245 0-8.237 2.501-10.234 4.252-2.745 2.626-5.49 7.38-6.365 11.256-.374 2.127-.124 4.378 1.248 5.628 2.996 2.877 6.74 4.753 9.985 7.004 3.37 2.377 6.989 5.253 8.985 9.38 1.373 2.877.75 6.504-.624 9.13-2.62 5.003-7.737 9.13-11.856 13.883-.873 1-3.245 0-3.744 1.375-1.997 6.004-.624 11.257-1.747 17.635-.749 3.877-5.99 3.877-8.237 4.878 4.618-.25 9.735-.5 13.853-2.376-1.123-1-1.747-1.876-1.747-3.753 0-4.502 1.872-11.13 3.993-13.382 3.495-3.502 7.738-7.754 10.983-11.506 2.371-2.752 3.62-4.502 4.243-7.63.874-4.752-.748-8.63-3.12-12.631-3.245-5.253-10.109-8.004-15.1-11.256-1.249-.876-2.871-4.252-2.746-6.629 0-3.877 3.744-8.254 5.616-8.504 2.496-.5 7.737 0 10.233-.626.75-.25.125-1.376 1.373-1.376.999-.124 1.872.876 2.496 2.126-.124-1 1.498-1.5 3.12-1.125-1.872-2.626-4.118-3.502-6.739-4.002-.25-1.376 1.248-3.002 2.371-3.877-1.123.5-1.747.25-1.747-.876h0z" fill="#961e1d" stroke="#000" stroke-width="1.403"/><path d="M281.719 251.874c-.874-1.376-2.122-1.626-3.245-1-.999.5-1.498 2.251-.25 3.377-2.246.75-1.997 4.001.375 4.252-1.748.875-1.748 3.752.624 4.127-1.124 1.25-.375 3.252.998 3.752-.125.75.374 1.5 1.248 1.876-.5 1-.25 1.876.374 2.501.125.75.624 1.126 1.124 1.501.25.876.998 1.626 2.121 1.626 1.124 0 2.122-.875 2.122-2.126 1.747-1 1.373-2.877 0-3.752 1.872-.75 2.122-2.751.874-3.627.374-.5.499-1 .499-1.501.998-.625 1.373-1.751.873-2.626 1.997-.5 2.247-2.502 1.373-3.502 1.498-1.126.874-3.252-.499-3.752.25-1.25-.749-2.251-1.872-2.376-.749-.126-1.622.25-1.997.875-.624-.375-1.747-.125-2.371.625-.5-.375-1.498-.75-2.371-.25h0zM280.47 208.1c-.874-1.376-2.122-1.626-3.245-1-.999.5-1.498 2.251-.25 3.377-2.246.75-1.997 4.002.375 4.252-1.748.875-1.748 3.752.624 4.127-1.124 1.251-.375 3.252.998 3.752-.125.75.374 1.501 1.248 1.876-.5 1-.25 1.876.374 2.501.125.75.624 1.126 1.124 1.501.25.876.998 1.626 2.121 1.626s2.122-.875 2.122-2.126c1.747-1 1.373-2.876 0-3.752 1.872-.75 2.122-2.751.874-3.627.374-.5.499-1 .499-1.5.998-.626 1.373-1.752.873-2.627 1.997-.5 2.247-2.501 1.373-3.502 1.498-1.126.874-3.252-.499-3.752.25-1.25-.749-2.251-1.872-2.377-.749-.125-1.622.25-1.997.876-.624-.375-1.747-.125-2.371.626-.5-.376-1.498-.75-2.371-.25h0zm37.316 12.757c.873-1.375 2.121-1.626 3.244-1 .999.5 1.498 2.25.25 3.377 2.246.75 1.997 4.002-.374 4.252 1.747.875 1.747 3.752-.624 4.127 1.123 1.25.374 3.252-.999 3.752.125.75-.374 1.501-1.248 1.876.5 1 .25 1.876-.374 2.502-.125.75-.624 1.125-1.123 1.5-.25.876-.999 1.626-2.122 1.626-1.123 0-2.122-.875-2.122-2.126-1.747-1-1.373-2.876 0-3.752-1.872-.75-2.121-2.751-.873-3.627-.375-.5-.5-1-.5-1.5-.998-.626-1.372-1.752-.873-2.627-1.997-.5-2.247-2.502-1.373-3.502-1.498-1.126-.874-3.252.5-3.752-.25-1.25.748-2.251 1.871-2.377.749-.124 1.623.25 1.997.876.624-.375 1.747-.125 2.371.625.5-.375 1.498-.75 2.372-.25h0z" fill="#b400b4" stroke="#000" stroke-width=".375"/><path d="M285.837 269.33c.5 1.877-.874 3.753-2.371 3.378.998 1.25 3.37 1 3.869-1.001.374-.626-.25-2.126-1.498-2.377h0zm-1.498-1.625c.5 1.625-1.248 3.001-2.745 2.751.998 1.25 3.37.875 3.869-.875.374-.626.125-1.751-1.124-1.876h0zm-1.372-3.502c.499 1.75-.874 3.627-2.372 3.251a2.205 2.205 0 003.87-.875c.374-.75-.126-2.251-1.498-2.376h0zm3.993-3.502c.624 1.75-.873 3.627-2.37 3.251 1.122 1.502 3.369 1.001 3.993-.875.25-.75-.25-2.126-1.623-2.376h0zm-2.745-1.626c.499 1.876-.874 3.752-2.496 3.252 1.123 1.376 3.494 1 3.993-.75.375-.75-.25-2.252-1.497-2.502h0zm3.619-2.251c.624 1.876-.874 3.126-2.371 2.751 1.123 1.5 3.37 1 3.993-.875.25-.75-.25-1.626-1.622-1.876h0zm-6.115-.125c.624 1.75-.874 3.502-2.372 3.251 1.124 1.376 3.37 1.001 3.994-.875.25-.75-.25-2.251-1.622-2.376h0zm3.37-2.377c.499 1.877-.25 3.377-1.748 3.127.998 1.376 2.746 1.126 3.245-.625.25-.876-.25-2.251-1.498-2.502h0zm5.116-1.376c.5 1.877-.873 3.753-2.496 3.378 1.123 1.375 3.495.875 3.994-.876.374-.75-.25-2.251-1.498-2.502h0zm-1.248-2.25c.5 1.875-.873 3.626-2.371 3.376a2.205 2.205 0 003.869-.875c.374-.75-.125-2.377-1.498-2.501h0zm-5.74 1c.498 1.751-.874 3.627-2.372 3.377.998 1.375 3.37.875 3.869-.876.374-.75-.25-2.376-1.498-2.5h0zm-2.996-1.125c.624 1.876-.874 3.626-2.371 3.376a2.205 2.205 0 003.869-.875c.374-.75-.125-2.252-1.498-2.501h0zm4.368-25.014c.5 1.876-.874 3.752-2.371 3.377.998 1.25 3.37 1 3.869-1 .374-.626-.25-2.127-1.498-2.377h0zm-1.498-1.626c.5 1.626-1.248 3.001-2.745 2.751.998 1.251 3.37.876 3.869-.875.374-.626.124-1.751-1.124-1.876h0zm-1.372-3.502c.499 1.751-.874 3.627-2.372 3.252a2.205 2.205 0 003.87-.876c.374-.75-.126-2.251-1.498-2.376h0zm3.993-3.502c.624 1.751-.873 3.627-2.37 3.252 1.122 1.5 3.369 1 3.993-.876.25-.75-.25-2.126-1.623-2.376h0zm-2.745-1.626c.499 1.876-.874 3.752-2.496 3.252 1.123 1.375 3.494 1 3.993-.75.375-.751-.25-2.252-1.497-2.502h0zm3.619-2.251c.624 1.876-.874 3.127-2.371 2.752 1.123 1.5 3.37 1 3.993-.876.25-.75-.25-1.626-1.622-1.876h0zm-6.115-.125c.624 1.75-.874 3.502-2.372 3.252 1.124 1.376 3.37 1 3.994-.876.25-.75-.25-2.251-1.622-2.376h0zm3.37-2.376c.498 1.875-.25 3.377-1.748 3.126.998 1.376 2.746 1.126 3.245-.625.25-.875-.25-2.251-1.498-2.501h0zm5.116-1.376c.5 1.876-.873 3.752-2.496 3.377 1.123 1.376 3.495.875 3.994-.876.374-.75-.25-2.25-1.498-2.501h0zm-1.248-2.251c.5 1.875-.873 3.627-2.371 3.376a2.205 2.205 0 003.869-.875c.374-.75-.125-2.377-1.498-2.501h0zm-5.74 1c.498 1.751-.874 3.627-2.372 3.377.998 1.376 3.37.876 3.869-.875.374-.75-.25-2.377-1.498-2.502h0zm-2.996-1.126c.624 1.877-.874 3.628-2.371 3.378a2.205 2.205 0 003.869-.876c.374-.75-.125-2.252-1.498-2.502h0zm34.695 31.517c-.5 1.877.874 3.753 2.371 3.378-.998 1.25-3.37 1-3.869-1-.374-.627.25-2.127 1.498-2.378h0zm1.498-1.625c-.5 1.625 1.248 3.002 2.745 2.751-.998 1.251-3.37.876-3.869-.875-.374-.626-.124-1.751 1.124-1.876h0zm1.373-3.502c-.5 1.751.873 3.627 2.37 3.252a2.205 2.205 0 01-3.868-.876c-.374-.75.125-2.251 1.498-2.376h0zm-3.994-3.502c-.624 1.751.873 3.627 2.371 3.252-1.123 1.5-3.37 1-3.994-.876-.25-.75.25-2.126 1.623-2.376h0zm2.746-1.626c-.5 1.876.873 3.752 2.496 3.252-1.124 1.375-3.495 1-3.994-.75-.375-.751.25-2.252 1.498-2.502h0zm-3.62-2.251c-.624 1.876.874 3.127 2.371 2.752-1.123 1.5-3.37 1-3.993-.876-.25-.75.25-1.626 1.622-1.876h0zm6.116-.125c-.624 1.75.873 3.502 2.37 3.252-1.122 1.375-3.369 1-3.993-.876-.25-.75.25-2.251 1.623-2.376h0zm-3.37-2.376c-.5 1.875.25 3.376 1.747 3.126-.998 1.376-2.746 1.126-3.245-.625-.25-.875.25-2.251 1.498-2.501h0zm-5.117-1.377c-.5 1.877.874 3.753 2.496 3.378-1.123 1.375-3.494.875-3.994-.876-.374-.75.25-2.251 1.498-2.502h0zm1.248-2.25c-.5 1.876.874 3.627 2.371 3.376a2.205 2.205 0 01-3.869-.875c-.374-.75.125-2.377 1.498-2.501h0zm5.74 1c-.498 1.75.875 3.627 2.372 3.377-.998 1.376-3.37.875-3.869-.875-.374-.751.25-2.377 1.498-2.502h0zm2.996-1.126c-.624 1.877.874 3.628 2.371 3.377a2.205 2.205 0 01-3.868-.875c-.375-.75.124-2.252 1.497-2.502h0z" fill="#642864" stroke="#000" stroke-width=".375"/><path d="M252.265 134.56c1.498-1.75 3.37-2.876 5.117-2.376-1.997-2.877-3.744-10.13-2.62-13.757.623 1.625.998 2 2.12 1.75.25-1.5 1.748-2.126 2.996-2.501.624.75.999 2.126.25 3.752.499-1.125 1.997-1.751 2.995-.375.874 1.25 1.498 3.502-.374 5.628 2.246.875 5.616-.626 6.739-4.503 1.248 1.251 1.248 1.751.5 3.252 1.372-1.126 3.743-.375 5.366 1.126 0 1.876-1.748 4.377-3.245 4.377 1.123.125 1.747.876 1.872 2.502-3.12-1.251-5.616-.5-7.987 1.5 2.745.876 3.244 2.126 3.744 3.627-.125 1.376-1.373 1.877-2.372 1.877 1.248 0 1.872.875 1.997 2.626-1.248.75-2.371.25-3.494-.5-.75.875-.375 1.5-.25 3.001-3.62-1.125-6.365-6.878-7.488-11.13-1.872-.626-3.62.25-4.992 2.125-.624.75-1.623-1-.874-2h0zm-11.731 4.753c-.624-1.876-1.997-3.502-3.87-3.377 2.747-2.126 6.615-8.005 6.49-11.381-.998 1.25-1.372 1.376-2.37.875.249-1.5-.75-2.376-1.748-3.126-.873.5-1.622 1.625-1.497 3.251 0-1.125-1.249-2.126-2.497-1.25-1.123.875-2.37 2.751-1.372 5.128-2.247.125-4.868-2.127-4.618-5.879-1.498.626-1.747 1-1.373 2.626-.874-1.375-3.37-1.375-5.117-.625-.624 1.876.125 4.503 1.498 4.878-.999-.125-1.747.25-2.371 1.626 3.12-.125 4.992 1.125 6.614 3.752-2.62-.125-3.62.75-4.368 2-.25 1.377.624 2.002 1.622 2.502-1.122-.375-1.996 0-2.62 1.501.873 1.126 1.996 1 3.244.625.375 1.001-.124 1.501-.748 2.752 3.744.125 7.737-4.252 9.984-7.63 1.872 0 3.12 1.252 3.869 3.378.25.75 1.622-.5 1.248-1.626h0zm4.243 55.655c-1.622-1.25-3.869-1.876-5.866-1.125 1.997-3.127 3.245-10.131 1.498-13.008-.374 1.501-.874 1.751-2.122 1.877-.499-1.251-2.121-1.626-3.494-1.751-.749.875-.999 2.25 0 3.627-.624-1-2.371-1.251-3.37.124-.749 1.376-1.248 3.503.874 5.128-2.371 1.126-6.24.625-7.862-2.876-1.374 1.375-1.374 1.876-.126 3.126-1.747-.75-4.368.5-5.99 2.002.25 1.875 2.246 3.751 4.118 3.502-1.248.375-1.996 1.125-1.996 2.626 3.37-1.751 6.115-1.626 9.11-.125-2.87 1.25-3.494 2.501-3.62 4.002.25 1.25 1.499 1.376 2.871 1.25-1.372.25-2.121 1.126-1.997 2.752 1.373.5 2.621-.125 3.87-1.25.748.75.499 1.375.374 3.001 4.118-1.876 6.49-7.629 7.238-11.881 2.122-.876 3.994-.375 5.866 1.125.749.5 1.747-1.376.624-2.126h0zm12.98-18.385c1.622.876 3.619 1.501 4.992.5-.999 3.127-.874 9.63 1.123 12.382 0-1.5.25-1.75 1.373-1.876.624 1.25 1.997 1.376 3.12 1.376.499-.75.499-2.251-.5-3.252.75.875 2.122 1 2.746-.375.375-1.376.375-3.502-1.622-4.753 1.622-1.25 4.992-.875 6.864 2.127.749-1.251.874-1.626-.25-2.752 1.498.625 3.495-.625 4.368-2.252-.374-1.75-2.37-3.376-3.868-3 .998-.376 1.372-1.002 1.123-2.377-2.496 1.626-4.743 1.626-7.364.5 2.122-1.25 2.372-2.501 2.247-4.002-.375-1.126-1.498-1.126-2.621-1 1.123-.25 1.622-1.001 1.373-2.752-1.373-.25-2.247.375-2.87 1.376-1.124-.626-1-1.251-1.124-2.627-2.995 2.001-3.869 7.504-3.869 11.381-1.497 1-3.37.626-4.992-.5-.749-.75-1.123 1.126-.25 1.876h0zm35.943 24.263c-1.373-1.625-3.12-2.626-4.743-2.126 1.872-2.627 3.495-9.255 2.371-12.507-.499 1.501-.873 1.751-1.872 1.626-.374-1.376-1.622-2.001-2.745-2.376-.624.75-.999 2.001-.25 3.502-.5-1-1.872-1.626-2.746-.376-.873 1.126-1.372 3.127.25 5.129-2.122.75-5.242-.626-6.24-4.128-1.123 1.126-1.248 1.626-.374 3.002-1.248-1-3.62-.376-4.993 1 0 1.626 1.498 4.002 2.996 4.002-1.124.126-1.623.751-1.748 2.252 2.87-1.126 5.117-.5 7.364 1.376-2.496.75-2.995 1.876-3.495 3.251.125 1.25 1.248 1.626 2.247 1.751-1.123-.125-1.747.75-1.872 2.252 1.123.75 2.121.374 3.245-.376.624.75.374 1.376.124 2.752 3.495-1 5.99-6.254 7.114-10.13 1.623-.626 3.245.25 4.618 1.875.5.75 1.498-.875.749-1.75h0zm10.857 4.253c.625-1.626 1.873-3.127 3.62-3.002-2.496-2.001-6.116-7.254-6.116-10.38.999 1.125 1.373 1.25 2.247.875-.25-1.376.749-2.251 1.747-2.877.749.5 1.498 1.5 1.248 3.002.125-1.126 1.123-2.001 2.371-1.126.999.75 2.247 2.376 1.248 4.628 2.122.125 4.493-2.001 4.244-5.378 1.497.625 1.622.875 1.373 2.376.748-1.25 2.995-1.25 4.617-.5.624 1.626 0 4.002-1.373 4.377.999-.125 1.748.25 2.247 1.5-2.87-.124-4.618 1.001-6.115 3.378 2.496-.125 3.244.625 3.993 1.876.25 1.125-.499 1.751-1.497 2.126.998-.25 1.872.125 2.496 1.5-.874.877-1.872.877-2.996.501-.374.875 0 1.376.624 2.502-3.37.125-7.113-3.877-9.235-6.88-1.747 0-2.87 1.126-3.494 3.003-.25.75-1.623-.501-1.249-1.501h0zm-3.993 50.527c1.622-1.125 3.62-1.75 5.491-1-1.872-2.877-2.995-9.255-1.373-11.882.375 1.376.75 1.626 1.872 1.75.5-1.125 1.997-1.5 3.37-1.625.624.875.874 2.001 0 3.252.5-.875 2.122-1.126 2.995.125.874 1.25 1.248 3.252-.749 4.753 2.247 1 5.866.5 7.239-2.627 1.373 1.251 1.373 1.626.25 2.751 1.622-.625 3.993.5 5.49 1.877-.249 1.75-2.12 3.377-3.868 3.126 1.248.376 1.872 1.001 1.872 2.377-3.12-1.5-5.616-1.376-8.487-.125 2.746 1.125 3.245 2.251 3.495 3.627-.25 1.125-1.498 1.25-2.746 1.25 1.248.126 1.997 1.001 1.872 2.377-1.248.5-2.37 0-3.494-1.001-.874.626-.624 1.126-.5 2.626-3.743-1.75-5.865-6.878-6.614-10.756-1.997-.75-3.744-.375-5.491 1.001-.624.5-1.498-1.25-.624-1.876h0zm-11.981-16.759c-1.498.876-3.37 1.501-4.618.5.874 2.877.874 8.755-.998 11.257-.125-1.376-.25-1.627-1.248-1.751-.624 1.125-1.872 1.25-2.996 1.25-.374-.625-.374-2 .5-2.877-.624.75-1.997.876-2.496-.375-.375-1.25-.375-3.127 1.497-4.377-1.622-1.125-4.618-.75-6.365 2-.749-1.125-.749-1.5.25-2.5-1.373.625-3.245-.625-4.119-2.127.375-1.5 2.247-3 3.62-2.626-.874-.375-1.373-1-.999-2.25 2.247 1.5 4.368 1.5 6.74.499-1.997-1.125-2.247-2.25-2.122-3.502.5-1.126 1.373-1.126 2.496-1-1.123-.25-1.498-1-1.373-2.502 1.373-.25 2.122.375 2.746 1.251.998-.5.998-1.125.998-2.376 2.746 1.75 3.62 6.753 3.62 10.255 1.372 1.001 3.12.626 4.742-.375.624-.625.874 1 .125 1.626h0zm58.283-104.307c-1.498-1.75-3.37-2.876-5.117-2.376 1.997-2.877 3.744-10.13 2.62-13.757-.623 1.625-.998 2-2.121 1.75-.25-1.5-1.747-2.126-2.995-2.501-.624.75-.999 2.126-.25 3.752-.5-1.125-1.997-1.751-2.995-.375-.874 1.25-1.498 3.502.374 5.628-2.246.875-5.616-.626-6.74-4.503-1.247 1.251-1.247 1.751-.498 3.252-1.373-1.126-3.744-.375-5.367 1.126 0 1.876 1.747 4.377 3.245 4.377-1.123.125-1.747.875-1.872 2.502 3.12-1.251 5.616-.5 7.987 1.5-2.745.876-3.245 2.126-3.744 3.627.125 1.376 1.373 1.877 2.371 1.877-1.248 0-1.872.875-1.996 2.626 1.248.75 2.37.25 3.494-.5.749.875.374 1.5.25 3.001 3.619-1.125 6.365-6.878 7.488-11.13 1.872-.626 3.62.25 4.992 2.125.624.75 1.622-1 .874-2h0zm11.731 4.753c.624-1.876 1.997-3.502 3.869-3.377-2.746-2.126-6.615-8.005-6.49-11.381.999 1.25 1.373 1.376 2.371.875-.25-1.5.75-2.376 1.748-3.126.873.5 1.622 1.625 1.497 3.251 0-1.125 1.248-2.126 2.496-1.25 1.124.875 2.372 2.751 1.373 5.128 2.247.125 4.867-2.127 4.618-5.879 1.497.626 1.747 1 1.373 2.626.873-1.375 3.37-1.375 5.117-.625.624 1.876-.125 4.503-1.498 4.878.998-.125 1.747.25 2.371 1.626-3.12-.125-4.992 1.125-6.614 3.752 2.62-.125 3.619.75 4.368 2 .25 1.377-.624 2.002-1.623 2.502 1.124-.375 1.997 0 2.621 1.501-.873 1.126-1.997 1-3.245.625-.374 1.001.125 1.501.75 2.752-3.745.125-7.739-4.252-9.985-7.63-1.872 0-3.12 1.252-3.869 3.378-.25.75-1.622-.5-1.248-1.626h0zm-4.243 55.655c1.622-1.25 3.869-1.876 5.865-1.125-1.996-3.127-3.244-10.131-1.497-13.008.374 1.501.873 1.751 2.121 1.877.5-1.251 2.122-1.626 3.495-1.751.749.875.998 2.25 0 3.627.624-1 2.371-1.251 3.37.124.748 1.376 1.248 3.503-.874 5.128 2.371 1.126 6.24.625 7.863-2.876 1.372 1.375 1.372 1.876.124 3.126 1.748-.75 4.368.5 5.99 2.002-.249 1.875-2.246 3.751-4.118 3.502 1.248.375 1.997 1.125 1.997 2.626-3.37-1.751-6.115-1.626-9.11-.125 2.87 1.25 3.494 2.501 3.619 4.002-.25 1.25-1.498 1.376-2.87 1.25 1.372.25 2.121 1.126 1.996 2.752-1.373.5-2.62-.125-3.869-1.25-.748.75-.499 1.375-.374 3.001-4.118-1.876-6.49-7.629-7.239-11.881-2.121-.876-3.993-.375-5.865 1.125-.75.5-1.747-1.376-.624-2.126h0zm-12.98-18.385c-1.622.876-3.619 1.501-4.992.5.999 3.127.874 9.63-1.123 12.382 0-1.5-.25-1.75-1.373-1.876-.624 1.25-1.997 1.376-3.12 1.376-.5-.75-.5-2.251.5-3.252-.75.875-2.122 1-2.746-.375-.375-1.376-.375-3.502 1.622-4.753-1.622-1.25-4.992-.875-6.864 2.127-.749-1.251-.874-1.626.25-2.752-1.498.625-3.495-.625-4.369-2.252.375-1.75 2.372-3.376 3.87-3-1-.376-1.374-1.002-1.124-2.377 2.496 1.626 4.743 1.626 7.363.5-2.121-1.25-2.37-2.501-2.246-4.002.374-1.126 1.498-1.126 2.62-1-1.122-.25-1.622-1.001-1.372-2.752 1.373-.25 2.246.375 2.87 1.376 1.124-.626.999-1.251 1.124-2.627 2.995 2.001 3.869 7.504 3.869 11.381 1.497 1 3.37.625 4.992-.5.748-.75 1.123 1.125.25 1.876h0z" fill="#129612" stroke="#000" stroke-width="1.403"/><path d="M223.474 277.394c-.17.068-1.051.205-1.933.342-2 .274-2.563.293-3.241 2.587-.306 1.027-1.045 2.49-1.621 3.175-.984 1.301-1.89 3.83-1.654 4.993.204 1.164 1.511 1.552 3.817 1.038 2.95-.616 3.677-.92 3.813-.236.135.685-1.648 2.15-3.785 3.724-2 1.472-2.577 2.913-2.882 6.234-.102 1.403-.32 3.514-.625 4.883-.271 1.37-.589 3.07-.521 3.343.271.685 4.527 1.08 7.24.635 4.274-.685 6.525-2.803 6.966-6.226.305-2.225 1.343-4.834 2.734-6.271 1.22-1.267 1.365-1.066 2.314-.107.882.89.484.753-.568 5.956-1.017 5.066-.665 7.146 1.132 8.652 1.458 1.233 3.185 1.061 3.728-.513.237-.685 1.146-2.487 1.926-3.548 1.967-2.602 2.38-4.48 1.125-7.321-.882-2.02-1.375-2.36-.595-2.36.203 0 .477.39 1.393 1.347.916.925 2.757 2.016 3.13 2.016 2.238 0 2.39-9.987.253-11.356-1.085-.685-1.458.24-1.458 3.663 0 2.464.323 3.149-.05 3.149-.508 0-.631-.601-1.106-2.176-.407-1.437-2.286-2.084-3.628-.984l-1.307 1.072.177 5.35c.203 4.04.352 3.71-.09 3.71-.711 0-.523-.495-.828-4.808-.136-1.985-.407-4.085-.645-4.496-.203-.376-1.105-1.296-1.885-1.638-1.22-.548-2.02-.582-3.376-.24-2.984.822-6.05 3.978-7.847 7.606-.983 1.985-.966 2.461-1.712 2.153-.475-.171-.475-.004 0-1.168.814-1.951 2.854-4.362 5.635-7.375 3.188-3.491 3.149-4.172 2.64-5.917-.61-2.088-1.074-2.921-4.024-3.332-1.696-.24-3.49-.149-3.49-.457 0-.787.814-.992 4.002-.992 2.95 0 3.222-.068 3.832-.822.374-.445.747-1.198.882-1.677.34-1.403-.576-1.78-4.273-1.746-1.797 0-3.391.068-3.595.137z" fill="#129612"/><path d="M217.46 277.015c-2.247 3.47-4.68 9.192-4.68 11.068 0 2.44 3.276 4.034 5.71 2.627 1.497-.75 1.871-.75 1.31.094-.375.563-1.685 1.407-2.902 1.876-1.872.75-2.246 1.5-2.246 4.596 0 2.064-.52 2.637-.843 4.221-.11.536-.264 2.208-.264 3.846 0 3.94 3.192 5.387 9.69 3.797 3.722-.91 2.173-.4 4.818-2.15.936-1.688 1.669-3.43 2.324-5.587.655-2.157 1.685-4.22 2.246-4.596.562-.375.749-.094.468.657-2.62 6.378-2.808 8.442-1.31 11.631 1.31 2.814 2.059 3.283 4.773 3.283 2.902 0 .915-.81 4.095-4.51.936-2.346 2.076-3.08 2.289-3.498.663-1.303.577-1.239.51-1.986-.144-1.619 1.53-1.262 1.999-1.262 3.65 0 5.054-7.973 2.433-13.132-1.778-3.47-2.433-3.47-4.96 0-3.838 5.159-11.42 3.001-11.42-3.283 0-1.501.655-3.377 1.498-4.315 1.03-1.22 1.216-2.064.561-3.283-.749-1.313-2.433-1.689-7.862-1.876-6.272-.282-7.02-.094-8.237 1.782zm14.227 1.688c-.655 2.627-2.153 3.565-5.242 3.002-1.872-.282-3.37-.094-3.744.563-.468.656.281 1.031 1.966 1.031 3.276 0 4.493.845 5.335 3.471.468 1.595-.093 2.72-2.808 5.16-2.901 2.72-5.99 7.128-5.99 8.723 0 1.688 2.153 0 2.901-2.252 1.404-3.845 6.833-7.879 9.548-7.035 2.901.845 3.463 2.064 3.463 7.13 0 2.626.468 4.502 1.03 4.502.655 0 .842-1.595.374-4.784-.468-3.658-.374-5.065.562-5.628 2.153-1.407 3.65-.938 3.65 1.032 0 1.031.468 1.876 1.03 1.876.655 0 .842-1.032.561-2.533-.936-4.972 1.592-7.035 2.621-2.158.843 3.659-.28 8.443-1.872 8.443-.749 0-1.965-.938-2.714-2.064-1.779-2.439-3.276-1.407-1.685 1.126 1.685 2.72 1.404 5.44-.749 7.691-1.03 1.126-1.872 2.627-1.872 3.283 0 2.064-3.182 1.314-4.306-1.031-.748-1.595-.655-3.471.281-7.036 1.31-5.159 1.03-6.66-1.123-6.66-1.498 0-4.212 4.597-4.212 7.223-.094 4.409-4.119 6.566-11.326 6.097-2.434-.187-2.527-.375-1.685-3.752.468-1.876.843-4.784.843-6.284 0-2.158.748-3.377 3.276-5.066 3.744-2.532 4.493-5.346 1.217-4.22-4.4 1.406-5.897 1.031-5.617-1.502.188-1.219.936-2.72 1.592-3.283.748-.469 1.404-1.97 1.59-3.283.188-1.876.937-2.438 3.558-2.814 6.084-.844 9.828-.469 9.547 1.032z"/><path d="M182.696 183.36c-.204.617-.814 1.028-2.103 1.473-2.747.958-6.535 2.844-6.637 3.426-.034.308 1.314 1.502 2.908 2.529 4.273 2.807 4.354 2.325-.394 2.736-3.561.308-4.306 1.087-7.053 3.62-1.288 1.198-2.93 2.61-3.778 3.225-.916.65-2.114 2.141-2.25 2.689-.203.821 1.067 1.589 3.102 3.54 2.374 2.293 4.564 3.275 6.158 3.31 1.425 0 2.958-.849 6.078-3.142 1.56-1.13 3.284-2.72 4.165-3.027 1.459-.514 1.446-.331 2.226.182 1.153.787 1.092 1.967-.06 3.131-.442.48-1.478 1.16-1.715 1.16-.746 0-4.742 4.81-5.454 6.42-.882 1.95-.909 3.76.04 4.411 1.018.753 2.06.745 3.11-.247.51-.48 2.059-.978 2.296-.978 1.289 0 2.006-1.288 3.329-2.52 1.763-1.644 3.096-1.994 3.435-3.98.136-.821-.14-1.696.03-1.799.542-.342 1.045.37 1.045 1.5 0 4.039 3.46 4.929 5.257 1.369.373-.753 1.409-1.495 1.748-1.872.746-.855 1.682-3.6 1.444-4.217-.271-.685-1.802-.21-2.582.612-.407.445-1.423 1.609-1.897 2.601-.848 1.712-1.358 2.465-1.833 1.986-.102-.103.642-.88.947-1.974.678-2.294-.201-3.024-2.032-3.024-1.459 0-2.712.753-4.849 3.594-4.171 5.58-3.89 4.34.01-1.685 1.05-1.643 1.176-3.415 1.278-3.963.237-1.163-.916-3.525-2.069-4.313-1.356-.89-4.359-1.182-8.123.222-1.662.616-4.223 1.623-4.8 1.726-.983.171-.8.597-.292-.225 1.153-1.78 6.493-3.553 9.986-3.621 2.815-.034 3.5-1.011 4.145-2.346 1.12-2.225 1.516-3.062-.925-5.63-1.221-1.266-2.448-2.274-2.448-2.41 0-.685.661-.077 2.357 1.19 2.543 1.95 3.459 2.362 5.02 2.362 1.66 0 4.41-1.26 4.037-2.218-.102-.342-1.47-1.6-2.386-2.08-.916-.444-2.543-1.54-3.663-2.395-3.425-2.602-6.197-2.888-6.808-1.347z" fill="#129612"/><path d="M181.042 182.144c-.655.751-2.527 1.595-4.212 1.877-4.399.844-6.084 5.534-2.433 6.66 2.714.844 2.246 2.157-.562 1.594-1.966-.375-3.089.188-4.96 2.345-1.311 1.5-3.183 3.002-4.026 3.377-.936.281-1.685 1.22-1.685 1.876 0 .75-.655 1.876-1.404 2.533-1.216 1.031-.842 1.782 2.996 5.252 2.527 2.252 5.241 4.034 6.177 4.128 2.247 0 6.365-2.158 8.518-4.597 1.03-1.125 2.434-1.97 3.089-1.97.749 0-.28 1.595-2.34 3.471-4.587 4.409-6.084 9.943-2.995 11.538 2.62 1.407 7.956-.282 11.513-3.565 1.404-1.313 2.527-1.97 2.527-1.407s.655 1.314 1.498 1.595c1.684.657 5.054-.938 5.054-2.439 0-.563.562-1.5 1.31-2.064.75-.562 1.592-2.626 1.873-4.596l.655-3.564-4.212.563c-3.744.562-4.493.375-6.646-1.783-1.966-1.97-2.434-3.095-1.966-5.065.75-3.002 3.838-5.816 6.365-5.816 2.434 0 1.966-4.596-.655-6.003-1.03-.563-3.089-1.97-4.493-3.189-2.995-2.345-7.394-2.72-8.986-.75zm7.957 2.908c1.497 1.314 3.463 2.627 4.399 2.908 2.34.75 1.965 2.908-.749 3.377-1.591.375-3.182-.187-4.96-1.688-2.435-2.158-3.932-2.814-3.932-1.783 0 .282 1.123 1.501 2.527 2.72 1.966 1.69 2.34 2.627 1.778 4.597-.561 2.251-1.03 2.533-4.586 2.533-4.025 0-10.109 2.532-10.764 4.502-.187.657 1.404.281 3.744-.75 2.246-1.032 5.522-1.876 7.394-1.876 2.715 0 3.557.469 4.493 2.532.936 2.158.843 2.814-.655 4.878-2.714 3.658-4.118 6.66-3.182 6.66.468 0 2.059-1.689 3.463-3.752 1.872-2.814 3.182-3.752 4.586-3.565 1.966.375 2.153.844 1.03 3.752-.374.938-.28 1.689.28 1.689.562 0 1.405-1.313 1.966-2.814 1.124-3.377 4.306-4.034 3.277-.75-.281 1.219-1.03 2.25-1.405 2.438-.468.188-.842.75-.842 1.313s-.749 1.595-1.591 2.251c-2.153 1.501-4.025.095-4.025-3.001 0-1.22-.374-2.251-.936-2.251-.468 0-.936 1.031-.936 2.25 0 2.534-3.931 6.192-6.646 6.192-.842 0-1.778.469-1.965 1.125-.188.563-1.124.845-1.966.47-1.217-.47-1.498-1.22-1.03-3.19.562-2.626 5.148-7.785 6.74-7.785 1.123 0 2.246-2.72 1.497-3.846-.936-1.595-4.025-.844-7.114 1.782-5.054 4.409-7.581 4.502-11.887.657-3.65-3.377-3.744-3.377-1.872-5.253.936-.938 2.06-1.782 2.434-1.782.374 0 1.684-1.126 2.901-2.627 1.779-1.97 2.996-2.533 5.99-2.533 4.962 0 5.43-1.407 1.218-3.658-1.779-1.032-3.276-2.063-3.276-2.439 0-.75 3.276-2.438 6.365-3.283 1.123-.375 2.059-1.031 2.059-1.5 0-1.689 3.463-.845 6.178 1.5z"/><path d="M413.307 185.768c-.713.377-1.92.72-2.904 1.473-.95.719-3.638 2.205-4.587 2.753-2.001 1.095-1.395 2.244-.004 3.168 1.56 1.027 4.257.878 6.97-1.141 3.833-2.876 3.837-2.867.547.35-2.306 2.225-2.193 3.393-1.549 5.446.577 1.814 1.553 2.632 4.3 2.632 3.324 0 8.433 2.02 9.96 3.731 1.356 1.506 1.176.397-3.912-1.486-3.29-1.198-7.663-1.54-8.985-.65-1.12.719-3.036 4.266-2.764 5.395.135.445 1.544 2.13 2.63 3.808 1.865 2.875 2.375 3.96 1.968 4.37-.306.274-.58-.68-2.92-3.727-2.205-2.841-3.708-3.468-5.505-3.263-.916.103-.74.692-.706 1.958 0 .753.135 1.883.305 2.533.44 1.883-.814 1.232-2.035-1.061-1.255-2.362-2.224-4.205-3.072-4.205-.95 0-.692 2.87.359 4.308a17.99 17.99 0 011.322 2.19c.747 1.61 2.205 2.91 3.256 2.91 1.289 0 2.001-.958 2.374-3.252.509-3.08 1.425-3.457 1.865-.753.34 1.917.848 2.875 2.442 4.416 1.323 1.3 3.29 2.327 4.477 2.327.373 0 1.085.377 1.594.856.983.924 1.526 1.027 2.543.513.814-.445 1.611-2.164.865-3.91-.95-2.327-4.618-6.423-6.517-7.21-1.017-.445-1.858-1.628-1.689-2.826.068-.48.171-.932.68-1.172 1.289-.616 2.884.198 6.242 2.662 1.526 1.096 3.282 2.199 3.893 2.507 1.593.821 3.911.806 5.742-.29 2.001-1.163 5.845-4.719 5.845-5.472 0-.856-.996-2.03-2.624-3.126-.814-.548-2.53-2.004-3.649-3.1-2.51-2.361-3.072-3.019-6.633-3.327-2.95-.274-4.157-.267-3.818-1.157.102-.308 1.222-1.1 2.85-2.16 2.781-1.815 2.883-1.952 2.374-2.533-.576-.65-2.95-1.78-6.07-2.944-1.086-.377-1.73-.856-1.933-1.404-.407-1.027-1.662-1.06-3.527-.137z" fill="#129612"/><path d="M418.677 184.48c.656.75 2.528 1.594 4.212 1.876 4.4.844 6.085 5.534 2.434 6.66-2.714.844-2.246 2.157.562 1.594 1.965-.375 3.089.188 4.96 2.345 1.311 1.501 3.183 3.002 4.025 3.377.936.282 1.685 1.22 1.685 1.876 0 .75.656 1.876 1.404 2.533 1.217 1.032.843 1.782-2.995 5.253-2.527 2.25-5.242 4.033-6.178 4.127-2.246 0-6.365-2.158-8.517-4.596-1.03-1.126-2.434-1.97-3.09-1.97-.748 0 .282 1.594 2.34 3.47 4.587 4.41 6.085 9.943 2.996 11.538-2.62 1.407-7.956-.281-11.513-3.564-1.404-1.314-2.527-1.97-2.527-1.407 0 .562-.655 1.313-1.498 1.594-1.685.657-5.054-.938-5.054-2.439 0-.562-.562-1.5-1.31-2.063-.75-.563-1.592-2.627-1.873-4.597l-.655-3.564 4.212.563c3.744.563 4.493.375 6.646-1.782 1.965-1.97 2.433-3.096 1.965-5.066-.748-3.001-3.837-5.815-6.365-5.815-2.433 0-1.965-4.596.656-6.003 1.03-.563 3.089-1.97 4.493-3.19 2.995-2.345 7.394-2.72 8.985-.75zm-7.956 2.908c-1.497 1.313-3.463 2.626-4.4 2.908-2.34.75-1.965 2.907.75 3.376 1.59.375 3.182-.187 4.96-1.688 2.434-2.157 3.932-2.814 3.932-1.782 0 .281-1.123 1.5-2.527 2.72-1.966 1.688-2.34 2.626-1.779 4.596.562 2.251 1.03 2.533 4.587 2.533 4.025 0 10.109 2.532 10.764 4.502.187.657-1.404.282-3.744-.75-2.247-1.032-5.523-1.876-7.395-1.876-2.714 0-3.557.469-4.493 2.532-.936 2.158-.842 2.814.656 4.878 2.714 3.658 4.118 6.66 3.182 6.66-.468 0-2.06-1.688-3.463-3.752-1.872-2.814-3.183-3.752-4.587-3.565-1.965.376-2.153.845-1.03 3.753.375.938.281 1.688-.28 1.688-.562 0-1.404-1.313-1.966-2.814-1.123-3.377-4.305-4.034-3.276-.75.281 1.219 1.03 2.25 1.404 2.438.468.188.843.75.843 1.314 0 .562.748 1.594 1.59 2.25 2.154 1.502 4.026.095 4.026-3 0-1.22.374-2.252.936-2.252.468 0 .936 1.032.936 2.251 0 2.533 3.931 6.191 6.646 6.191.842 0 1.778.469 1.965 1.126.187.562 1.123.844 1.966.469 1.217-.47 1.497-1.22 1.03-3.19-.562-2.626-5.149-7.785-6.74-7.785-1.123 0-2.246-2.72-1.498-3.846.936-1.595 4.025-.844 7.114 1.782 5.055 4.409 7.582 4.503 11.888.657 3.65-3.377 3.744-3.377 1.872-5.253-.936-.938-2.06-1.782-2.434-1.782-.374 0-1.685-1.126-2.902-2.627-1.778-1.97-2.995-2.532-5.99-2.532-4.961 0-5.43-1.407-1.217-3.658 1.778-1.032 3.276-2.064 3.276-2.44 0-.75-3.276-2.438-6.365-3.282-1.123-.376-2.06-1.032-2.06-1.501 0-1.689-3.462-.844-6.177 1.5z"/><path d="M368.21 278.123c-1.05.41-1.152.719-.644 1.95.747 1.747 1.501 2.598 4.01 2.393 2.612-.24 3.63-.122 3.868.528.271.72.608.31-2.071.583-2.137.24-3.003.775-3.817 1.7-2.069 2.327-1.79 4.088 1.804 7.921 4.002 4.28 5.345 3.516 5.98 8.205-.406.685-.964.064-2.117-2.126-2.035-3.8-5.386-7.203-8.234-7.717-1.527-.274-4.582 1.057-5.124 2.29-.238.479-.145 2.81-.28 4.898-.238 3.936-.172 4.998-.885 3.937-.407-.65-.285-.442.122-3.968.475-3.56.237-5.601-1.017-6.251-1.594-.822-3.227-.138-3.43.957-.271 1.301-.95 2.602-1.357 2.636-.203.034-.373-1.3-.44-3.183-.034-1.78-.272-3.457-.475-3.697-1.289-1.575-2.442 1.335-2.239 5.648.238 5.169 1.527 6.093 4.375 3.149.916-.959 1.555-.739 1.758-.739.746 0 .287.21-.561 2.093-1.323 2.944-.822 4.72 1.009 7.424.814 1.232 1.73 2.772 2 3.457.645 1.54 2.832 1.426 4.358.023.95-.856 1.206-1.441 1.342-3.392.068-1.438-.44-3.157-.88-5.143-1.153-4.894-1.463-6.097.47-6.097 1.696 0 3.664 3.678 4.207 7.41.44 3.08 2.467 4.803 6.265 5.624 2.001.411 4.997.358 6.625.05 1.255-.274 1.323-.89.543-5.032-.272-1.472-.51-3.624-.543-4.411-.034-2.568-.401-3.872-3.114-6.131-3.968-3.286-4.84-4.31-1.076-3.352 3.866 1.027 5.634.035 5.261-2.293-.136-.684-.928-2.053-1.573-2.978-.644-.958-1.208-3.106-1.445-4.03-.238-.959-1.354-1.883-1.761-2.123-1.357-.924-9.251-.898-10.913-.213z" fill="#129612"/><path d="M381.419 277.63c2.246 3.471 4.68 9.193 4.68 11.069 0 2.439-3.276 4.033-5.71 2.626-1.497-.75-1.872-.75-1.31.094.374.563 1.685 1.407 2.901 1.876 1.872.75 2.247 1.501 2.247 4.597 0 2.063.374 3.94.842 4.22.468.282.843 2.064.843 3.847 0 3.94-3.91 4.494-7.812 4.52-3.43-.595-5.496-1.702-7.274-2.583-.936-1.688-1.669-3.72-2.324-5.877-.655-2.157-1.685-4.221-2.247-4.596-.561-.376-.315 3.525-.034 4.275 2.62 6.379 1.074 3.665.732 8.881-1.599 1.656-2.395 2.407-4.629 2.27-2.341-.143-2.647-.954-4.094-3.063-.936-2.345-3.457-6.899-3.3-5.234.054.576-1.03-2.814-1.498-2.814-3.65 0-5.055-7.974-2.434-13.133 1.779-3.47 2.434-3.47 4.961 0 3.838 5.16 11.42 3.002 11.42-3.283 0-1.5-.656-3.376-1.498-4.314-1.03-1.22-1.217-2.064-.562-3.284.75-1.313 2.434-1.688 7.863-1.876 6.271-.28 7.02-.094 8.237 1.783zm-14.228 1.689c.656 2.626 2.153 3.564 5.242 3.002 1.872-.282 3.37-.094 3.744.562.468.657-.28 1.032-1.966 1.032-3.276 0-4.492.844-5.335 3.47-.468 1.595.094 2.721 2.808 5.16 2.902 2.72 5.99 7.129 5.99 8.723 0 1.689-2.152 0-2.9-2.25-1.405-3.847-6.834-7.88-9.548-7.036-2.902.844-3.464 2.064-3.464 7.129 0 2.626-.468 4.502-1.03 4.502-.654 0-.842-1.594-.374-4.783.468-3.659.375-5.066-.561-5.628-2.153-1.407-3.65-.938-3.65 1.031 0 1.032-.469 1.876-1.03 1.876-.656 0-.843-1.032-.562-2.532.936-4.972-1.591-7.035-2.62-2.158-.843 3.658.28 8.442 1.871 8.442.75 0 1.966-.938 2.715-2.063 1.778-2.44 3.276-1.407 1.685 1.125-1.685 2.72-1.404 5.44.748 7.692 1.03 1.126 1.872 2.626 1.872 3.283 0 2.064 3.183 1.313 4.306-1.032.749-1.594.655-3.47-.28-7.035-1.311-5.159-1.03-6.66 1.123-6.66 1.497 0 4.212 4.597 4.212 7.223.093 4.409 4.118 6.566 11.325 6.097 2.434-.187 2.528-.375 1.685-3.752-.468-1.876-.842-4.784-.842-6.285 0-2.157-.749-3.376-3.276-5.065-3.744-2.532-4.493-5.347-1.217-4.22 4.4 1.406 5.897 1.03 5.616-1.502-.187-1.22-.936-2.72-1.591-3.283-.749-.469-1.404-1.97-1.591-3.283-.188-1.876-.936-2.439-3.557-2.814-6.084-.844-9.828-.469-9.548 1.032z"/><path d="M300.432 73.777c3.869 0 6.989 3.127 6.989 7.13 0 3.876-3.12 7.128-6.989 7.128-3.869 0-7.114-3.252-7.114-7.129a7.118 7.118 0 017.114-7.129h0zM193.975 227.111c-4.617 0-8.36-3.502-8.36-8.13-.001-4.627 3.743-8.38 8.36-8.38 4.743 0 8.362 3.753 8.362 8.38 0 4.628-3.619 8.13-8.362 8.13h0zm.126-36.145c4.492 0 7.987 3.627 7.987 8.004 0 4.503-3.495 8.13-7.987 8.13-4.369 0-7.988-3.627-7.988-8.13 0-4.377 3.62-8.004 7.988-8.004h0zm-15.102-19.135c4.243 0 7.863 3.626 7.863 8.004 0 4.377-3.62 8.004-7.863 8.004-4.368 0-7.987-3.627-7.987-8.004 0-4.378 3.62-8.004 7.987-8.004h0zm240.994 4.252c-5.117 0-9.36 4.127-9.36 9.255 0 5.128 4.243 9.38 9.36 9.38 5.117 0 9.235-4.253 9.235-9.38a9.224 9.224 0 00-9.235-9.255h0zm-16.474 50.403c4.618 0 8.487-3.878 8.487-8.63 0-4.628-3.87-8.505-8.487-8.505-4.743 0-8.611 3.877-8.611 8.504 0 4.753 3.868 8.63 8.611 8.63h0zm1.123-35.395c4.743 0 8.612 3.877 8.612 8.63 0 4.753-3.87 8.63-8.612 8.63s-8.486-3.877-8.486-8.63c0-4.753 3.744-8.63 8.486-8.63h0zm-33.447 78.043c-3.494 0-6.365 2.876-6.365 6.378 0 3.627 2.87 6.504 6.365 6.504 3.62 0 6.49-2.877 6.49-6.504 0-3.502-2.87-6.378-6.49-6.378h0zm-10.234 8.254a6.851 6.851 0 016.864 6.879c0 3.752-3.12 6.879-6.864 6.879-3.744 0-6.864-3.127-6.864-6.88a6.851 6.851 0 016.864-6.878h0zm-12.106 7.629c4.493 0 8.237 3.877 8.237 8.38 0 4.627-3.744 8.505-8.237 8.505-4.617 0-8.361-3.878-8.361-8.505 0-4.503 3.744-8.38 8.361-8.38h0zm-124.742-16.634c3.744 0 6.989 3.127 6.989 7.004 0 4.002-3.245 7.129-6.989 7.129a7.118 7.118 0 01-7.114-7.13c0-3.876 5.556-7.003 9.425-7.003h-2.311zm13.543 7.13c-4.368 0-7.987 3.626-7.987 8.129 0 4.377 3.62 8.004 7.987 8.004 4.493 0 8.113-3.627 8.113-8.004 0-4.503-3.62-8.13-8.113-8.13h0zm13.23 23.262c-3.994 0-7.24-3.252-7.24-7.13 0-4.001 3.246-7.253 7.24-7.253 3.993 0 7.363 3.252 7.363 7.254 0 3.877-3.37 7.128-7.364 7.128h0z" fill="#ffd300" stroke="#000" stroke-width="1.403"/></svg>