<svg xmlns="http://www.w3.org/2000/svg" xmlns:xlink="http://www.w3.org/1999/xlink" height="400" width="800"><path fill="#fff" d="M0 0h800v400H0z"/><path d="M200 20l-8.98 27.639h-29.063l23.512 17.082-8.98 27.64L200 75.28l23.512 17.082-8.98-27.64 23.511-17.082H208.98L200 20z" fill="#e81b39"/><path fill="#e81b39" id="a" d="M0 120h800v80H0z"/><use y="120" xlink:href="#a"/><path d="M400 20l-8.98 27.64h-29.063l23.512 17.081-8.98 27.641L400 75.28l23.512 17.082-8.98-27.64 23.51-17.083H408.98zm200 0l-8.981 27.64h-29.063l23.512 17.082-8.98 27.64 23.511-17.082 23.512 17.082-8.98-27.64 23.511-17.082H608.98z" fill="#e81b39"/></svg>