<svg xmlns="http://www.w3.org/2000/svg" width="1200" height="600" viewBox="0 0 48 24"><clipPath id="a"><path d="M0 0h24v15H0z"/></clipPath><clipPath id="b"><path d="M0 0v6h22v6h-1zm21 0H10.5v13H0v-1z"/></clipPath><path fill="#012169" d="M0 0h48v24H0z"/><path d="M0 0l21 12m0-12L0 12" stroke="#fff" stroke-width="2.4" clip-path="url(#a)"/><path d="M0 0l21 12m0-12L0 12" stroke="#c8102e" stroke-width="1.6" clip-path="url(#b)"/><path d="M10.5 0v15M0 6h24" stroke="#fff" stroke-width="4"/><path d="M10.5 0v15M0 6h24" stroke="#c8102e" stroke-width="2.4"/><path d="M21 12V9l3-3-3-3V0h27v24H0v-6z" fill="#fff"/><path d="M21 6v3h27V3zM0 15v3h48v-6z" fill="#012169"/><path d="M21 4.5h27m-48 9h48m-48 9h48" stroke="#c8102e" stroke-width="3"/></svg>