<svg xmlns="http://www.w3.org/2000/svg" width="1000" height="600"><path fill="#FFF" d="M0 0h1000v600H0z"/><path d="M379.926 538.991v-2.702h2.301c1.467 0 2.428-.201 2.893-.592.464-.39.696-1.446.696-3.146v-21.177c0-1.678-.232-2.724-.696-3.114-.465-.39-1.426-.591-2.893-.591h-2.301v-2.671H396.7v2.67h-2.28c-1.49 0-2.46.201-2.904.592-.454.4-.675 1.436-.675 3.114v21.177c0 1.7.232 2.745.696 3.146.465.402 1.425.592 2.893.592h2.28v2.702h-16.785zm19.688-34.004h16.723v2.671h-2.523c-1.489 0-2.46.2-2.925.591-.464.401-.697 1.436-.697 3.115v24.925h8.119c2.46 0 4.36-.233 5.69-.708 1.34-.475 2.28-1.224 2.819-2.259.443-.845.77-1.869.96-3.093.201-1.214.296-2.766.296-4.624v-.74h2.65v14.126h-31.122v-2.702h2.08c1.467 0 2.438-.201 2.913-.592.475-.39.708-1.446.708-3.146v-21.177c0-1.678-.233-2.724-.697-3.114-.465-.39-1.436-.591-2.914-.591h-2.08v-2.682zm34.648 0h16.723v2.671h-2.523c-1.489 0-2.46.2-2.925.591-.464.401-.697 1.436-.697 3.115v24.925h8.119c2.46 0 4.36-.233 5.69-.708s2.28-1.224 2.819-2.259c.443-.845.77-1.869.96-3.093.201-1.214.296-2.766.296-4.624v-.74h2.65v14.126h-31.112v-2.702h2.08c1.468 0 2.439-.201 2.914-.592.475-.39.707-1.446.707-3.146v-21.177c0-1.678-.232-2.724-.697-3.114-.464-.39-1.435-.591-2.924-.591h-2.08v-2.682zm34.733 34.004v-2.702h2.301c1.468 0 2.428-.201 2.893-.592.464-.39.697-1.446.697-3.146v-21.177c0-1.678-.233-2.724-.697-3.114-.465-.39-1.425-.591-2.893-.591h-2.301v-2.671h16.775v2.67h-2.28c-1.489 0-2.46.201-2.904.592-.454.4-.675 1.436-.675 3.114v21.177c0 1.7.232 2.745.696 3.146.465.402 1.426.592 2.893.592h2.28v2.702h-16.785zm53.819.137h-4.307l-20.829-29.538v22.961c0 1.7.232 2.745.697 3.146.464.402 1.425.592 2.892.592h2.545v2.702h-15.118v-2.702h1.985c1.467 0 2.439-.201 2.903-.592.475-.39.707-1.446.707-3.146v-21.124c0-1.7-.232-2.756-.707-3.157-.475-.4-1.436-.601-2.903-.601h-1.974v-2.671h11.401l19.298 27.321v-20.882c0-1.7-.232-2.755-.696-3.156-.465-.401-1.426-.602-2.893-.602h-2.703v-2.67h14.97v2.67h-1.678c-1.468 0-2.439.2-2.893.602-.464.401-.697 1.457-.697 3.156v27.712zm14.126-17.165c0 4.624 1.16 8.308 3.473 11.063 2.312 2.756 5.394 4.128 9.237 4.128s6.925-1.372 9.248-4.128c2.312-2.755 3.473-6.44 3.473-11.063 0-4.614-1.15-8.298-3.462-11.032-2.312-2.735-5.395-4.107-9.259-4.107-3.843 0-6.925 1.372-9.237 4.107-2.312 2.734-3.473 6.418-3.473 11.032zm-5.511 0c0-2.64.475-5.089 1.436-7.359.96-2.27 2.354-4.254 4.18-5.975 1.605-1.488 3.494-2.628 5.68-3.441 2.185-.813 4.497-1.214 6.936-1.214s4.75.4 6.936 1.214c2.185.813 4.075 1.953 5.68 3.441 1.847 1.732 3.25 3.727 4.19 5.975.95 2.25 1.426 4.709 1.426 7.359 0 2.67-.475 5.141-1.426 7.4-.95 2.26-2.343 4.255-4.19 5.986-1.595 1.488-3.495 2.629-5.68 3.442-2.186.812-4.498 1.214-6.936 1.214s-4.751-.402-6.936-1.214c-2.186-.813-4.075-1.954-5.68-3.442a17.343 17.343 0 01-4.18-5.986c-.961-2.28-1.436-4.74-1.436-7.4zm40.001 17.028v-2.702h2.3c1.468 0 2.429-.201 2.893-.592.465-.39.697-1.446.697-3.146v-21.177c0-1.678-.232-2.724-.697-3.114-.464-.39-1.425-.591-2.892-.591h-2.302v-2.671h16.775v2.67h-2.28c-1.489 0-2.46.201-2.903.592-.454.4-.676 1.436-.676 3.114v21.177c0 1.7.232 2.745.697 3.146.464.402 1.425.592 2.892.592h2.28v2.702H571.43zm20.47 0v-14.083h2.797c.528 3.695 1.91 6.598 4.16 8.72 2.248 2.122 5.067 3.178 8.466 3.178 2.46 0 4.434-.591 5.912-1.753 1.488-1.171 2.227-2.713 2.227-4.624 0-1.636-.56-2.903-1.678-3.821-1.12-.919-3.178-1.7-6.166-2.365l-4.201-.918c-4.55-1.024-7.59-2.25-9.121-3.664-1.52-1.414-2.291-3.505-2.291-6.26 0-2.871 1.108-5.162 3.315-6.862 2.206-1.71 5.194-2.555 8.952-2.555 1.869 0 3.621.306 5.278.93 1.658.622 3.273 1.572 4.836 2.86l1.488-3.072h2.375v12.869h-2.744c-.433-3.431-1.605-6.06-3.526-7.897-1.922-1.826-4.477-2.744-7.654-2.744-2.513 0-4.466.506-5.87 1.52-1.404 1.013-2.1 2.428-2.1 4.244 0 1.414.559 2.565 1.667 3.452 1.12.887 2.861 1.552 5.236 2.016l4.899 1.014c4.36.876 7.432 2.09 9.227 3.642 1.794 1.552 2.702 3.737 2.702 6.556 0 3.146-1.161 5.711-3.494 7.685-2.333 1.974-5.374 2.956-9.121 2.956-2.175 0-4.191-.39-6.028-1.161-1.837-.77-3.6-1.974-5.279-3.61l-1.657 3.758h-2.608v-.01z" fill="#002768"/><path fill="#64B4FF" d="M572.086 364.528s14.004 27.345 18.46 27.358c4.455.012 18.02 1.301 22.84 1.339 4.83-.013 12.339-2.215 20.06-1.127 7.973 1.127 11.702 1.152 16.708.013 4.38-.976 14.717.763 20.262 1.49 7.721-7.622 18.985-28.522 18.985-28.522l-117.152-.563"/><path fill="none" stroke="#3C3C9E" stroke-width="1.201" d="M591.71 391.548c4.455.012 18.384 1.852 23.202 1.877 4.83-.012 12.34-2.215 20.061-1.126 7.972 1.126 11.702 1.151 16.708.012 4.38-.976 13.44 1.314 18.272.951"/><path fill="#64B4FF" d="M327.382 376.004l10.587 15.744c-5.193 1.577-20.361-1.577-25.092.175-5.457-5.156-13.028-15.931-13.028-15.931l27.533.012z"/><path fill="none" stroke="#000" stroke-width="1.201" d="M325.68 376.18l-25.718-.013m36.668 15.569c-5.193 1.576-17.833-1.04-22.564.713"/><path d="M585.965 370.836c2.04-.564 6.307-1.302 10.024.375m30.837 9.349c2.04-.563 6.308-1.302 10.025.375m16.732-9.499c2.04-.55 6.308-1.301 10.024.376m-47.368 2.015c2.052-.538 6.32-1.29 10.036.375m-28.809-.926c2.053-.563 6.32-1.301 10.037.376m38.07 14.204c2.053-.563 6.32-1.302 10.037.375m5.757-2.99c2.053-.564 6.32-1.29 10.037.387m-23.403-4.142c2.053-.538 6.32-1.29 10.037.388m-1.864-6.158c2.052-.538 6.32-1.289 10.037.388m-56.293 7.246c2.04-.563 6.308-1.301 10.025.376m-26.194 3.88c2.053-.539 6.32-1.29 10.037.413" stroke-width="2.24" fill="none" stroke="#3C3C9E"/><path d="M625.725 380.685c1.64-1.34 6.683-4.468 12.04.475m9.072.3c1.627-1.35 6.683-4.48 12.04.476m-3.717-6.295c1.627-1.326 6.683-4.467 12.04.476m-14.568-4.668c1.64-1.314 6.708-4.468 12.04.475m-68.069 1.302c1.64-1.314 6.683-4.48 12.039.45m.425 9.574c1.64-1.339 6.683-4.48 12.04.451m-28.384 3.842c1.64-1.339 6.695-4.468 12.04.476m55.578-2.654c1.64-1.339 6.683-4.48 12.04.438m-57.206-11.688c1.64-1.34 6.695-4.456 12.04.475m-42.201-3.754c1.64-1.34 6.683-4.48 12.04.438m10.386 7.771c1.64-1.314 6.696-4.467 12.04.476m17.996-2.678c1.627-1.352 6.683-4.48 12.04.45m-4.931 10.588c1.64-1.34 6.695-4.468 12.052.438m-18.422-17.909c1.64-1.314 5.056-4.468 10.4.463m-46.205-.788c1.626-1.327 5.944-4.456 11.275.488m54.703.15c1.64-1.314 5.056-4.443 10.4.463m-47.569 14.442c1.64-1.339 5.068-4.468 10.4.463m-13.366-13.879c1.64-1.339 5.068-4.48 10.4.463m-20.7-2.34c.513-1.414 2.74-5.144 6.458.526m-32.414 6.82c1.627-1.326 5.044-4.442 10.4.463m5.92 11.076c2.478-2.04 5.819-3.804 10.4.438m-23.604-7.183c2.478-2.028 5.795-3.767 10.4.463m55.879-3.117c2.478-2.027 5.795-3.767 10.4.463m-5.944-5.381c2.49-2.027 5.807-3.78 10.412.463m-53.163 14.292c1.64-1.339 5.068-4.468 10.4.463m-320.27-9.048c1.64-1.34 6.683-4.455 12.04.475m-4.543 6.22c1.64-1.339 5.068-4.467 10.4.463" stroke-width="1.79" fill="#3C3C9E" stroke="#FFF"/><path fill="#B4B4B4" d="M471.866 351.275l3.267-10.563 2.54-3.279 19.236 2.553 28.309 6.195 15.067 2.766 24.13 40.924 24.679 1.815-22.452 26.043-74.79.013-13.89-7.347-20.663-18.81 29.298-23.503-14.73-16.807z"/><path fill="#B4B4B4" stroke="#000" stroke-width="1.339" d="M524.492 345.63c4.643-.788 24.529-2.34 30.461 9.061 0 0-.275-.012-2.603.076 3.066.2 16.257-3.53 21.626 12.327-1.953-.739-3.63-.563-3.63-.563s12.828-1.34 20.237 23.703c1.289 4.643-16.532-1.69-26.194 1.477m26.094-.438c3.992 1.464 4.743 8.272 6.783 10.362 2.052 2.04 6.683 4.843 6.307 8.372-.375 3.555-5.944 8.586-10.975 9.712-5.006 1.114-18.76-2.44-23.954-1.902-5.193.575-20.624 5.23-29.172 5.03-8.548-.2-17.258-3.929-24.504-3.741-7.234.15-19.886 1.101-23.578-1.34m-7.084-5.406c-.926-3.354-2.39-14.505 10.237-19.01 3.893-1.39 6.22-1.402 7.972-1.952 2.866-.889 5.107-1.765 7.172-1.04 2.04.752 3.98 5.245 11.038 6.17m3.93-32.838c-2.416-.2-4.268-4.468-10.025-3.742-5.77.75-14.33 6.532-15.619 14.18-1.314 7.658-1.414 10.724 3.968 16.681"/><path d="M519.073 373.163v10.2c0 .626.313 1.039.95 1.039h1.34v1.814h-8.373v-1.814h1.415c.65 0 .95-.413.95-1.039v-6.658h-2.314v-1.815h.538c1.251 0 2.152-.4 2.715-1.727h2.779m16.357 2.941c0 1.39-1.039 2.028-2.215 2.453 1.74.676 2.903 1.752 2.903 3.755 0 3.291-2.941 4.217-6.045 4.217-2.352 0-5.82-.475-5.82-3.554 0-1.727.927-2.653 2.491-3.216-1.076-.538-2.015-1.515-2.015-2.779 0-3.316 2.816-4.142 5.62-4.142 2.065 0 5.08.65 5.08 3.266zm-7.034 4.556c-.838.288-1.564 1.251-1.564 1.965 0 1.864 1.765 2.327 3.316 2.327 1.14 0 2.641-.4 2.641-1.777 0-.613-.363-1.063-1.902-1.614l-2.49-.901zm3.655-3.179c.538-.325.8-.726.8-1.39 0-1.338-1.439-1.664-2.515-1.664-.989 0-2.29.25-2.29 1.465 0 .488.288.85.8 1.026l2.654.926.55-.363m9.387 1.727c1.164-.8 1.865-.976 3.291-.976 2.416 0 4.43 1.427 4.43 3.942 0 3.079-2.715 4.355-5.468 4.355-4.23 0-6.208-2.377-6.208-6.27 0-4.417 2.04-7.421 6.733-7.421 1.69 0 4.405.851 4.405 2.74 0 1.34-.775 1.878-2.127 1.878-.926 0-1.677-.638-1.677-1.427 0-.663.263-.95.838-1.264a1.912 1.912 0 00-1.1-.325c-2.216 0-3.117 1.602-3.117 3.58v1.188zm.238 3.191c0 1.652.663 2.416 1.764 2.416 1.102 0 1.765-.764 1.765-2.416 0-1.664-.663-2.44-1.765-2.44-1.101 0-1.764.763-1.764 2.44m20.011-6.295c0 1.39-1.039 2.028-2.215 2.453 1.74.676 2.903 1.752 2.903 3.755 0 3.291-2.953 4.217-6.044 4.217-2.353 0-5.832-.475-5.832-3.554 0-1.727.926-2.653 2.503-3.216-1.077-.538-2.028-1.515-2.028-2.779 0-3.316 2.829-4.142 5.62-4.142 2.09 0 5.093.65 5.093 3.266zm-7.033 4.556c-.839.288-1.565 1.251-1.565 1.965 0 1.864 1.765 2.327 3.317 2.327 1.151 0 2.64-.4 2.64-1.777 0-.613-.363-1.063-1.914-1.614l-2.478-.901zm3.666-3.179c.539-.325.801-.726.801-1.39 0-1.338-1.439-1.664-2.528-1.664-.988 0-2.277.25-2.277 1.465 0 .488.288.85.8 1.026l2.654.926.55-.363m-19.285 20.324v10.212c0 .601.3 1.04.951 1.04h1.34v1.801h-8.36v-1.802h1.426c.65 0 .951-.438.951-1.039v-6.67h-2.315v-1.815h.538c1.251 0 2.153-.413 2.716-1.727h2.778m16.332 2.929c0 1.401-1.026 2.052-2.215 2.453 1.74.7 2.903 1.752 2.903 3.754 0 3.304-2.953 4.23-6.044 4.23-2.353 0-5.832-.488-5.832-3.567 0-1.714.926-2.64 2.503-3.19-1.077-.551-2.028-1.515-2.028-2.78 0-3.316 2.829-4.154 5.62-4.154 2.077 0 5.093.65 5.093 3.254zm-7.033 4.555c-.839.288-1.565 1.252-1.565 1.965 0 1.865 1.765 2.328 3.317 2.328 1.139 0 2.64-.4 2.64-1.777 0-.614-.363-1.052-1.914-1.615l-2.478-.9zm3.654-3.154c.538-.325.788-.713.788-1.401 0-1.327-1.439-1.652-2.515-1.652-.989 0-2.278.225-2.278 1.464 0 .488.288.839.801 1.001l2.653.926.551-.338m13.278-4.33v10.212c0 .601.3 1.04.951 1.04h1.327v1.801h-8.36v-1.802h1.427c.65 0 .95-.438.95-1.039v-6.67h-2.314v-1.815h.538c1.251 0 2.14-.413 2.69-1.727h2.804m16.344 2.929c0 1.401-1.026 2.052-2.215 2.453 1.74.7 2.904 1.752 2.904 3.754 0 3.304-2.954 4.23-6.045 4.23-2.34 0-5.82-.488-5.82-3.567 0-1.714.927-2.64 2.503-3.19-1.076-.551-2.027-1.515-2.027-2.78 0-3.316 2.828-4.154 5.62-4.154 2.077 0 5.08.65 5.08 3.254zm-7.033 4.555c-.839.288-1.564 1.252-1.564 1.965 0 1.865 1.764 2.328 3.316 2.328 1.139 0 2.64-.4 2.64-1.777 0-.614-.362-1.052-1.914-1.615l-2.478-.9zm3.654-3.154c.55-.325.801-.713.801-1.401 0-1.327-1.439-1.652-2.515-1.652-.989 0-2.278.225-2.278 1.464 0 .488.275.839.801 1.001l2.64.926.551-.338"/><path fill="#FFB30F" stroke="#000" stroke-width="1.489" d="M459.514 324.343c2.779 8.635 20.675 33.415 44.779 32.826-1.314 7.009-35.705 77.518-127.815 82.499-25.981-87.755 21.913-142.795 38.27-148.114 5.47 22.264 35.88 32.35 44.754 32.789h.012z"/><path fill="#FFF" d="M457.074 328.21c2.54 7.884 11.313 44.178 25.893 56.117-5.694 6.02-42.375 46.868-101.746 49.233-19.235-59.959 5.006-103.285 13.278-117.152 18.848 13.767 54.453 11.401 62.562 11.802"/><path fill="#002768" d="M412.07 297.473c9.674 20.963 35.518 28.334 44.891 30.399 3.166 15.769 34.329 34.904 41.262 33.352-1.214 8.573-17.546 26.394-22.978 31.162-.087-.1-87.078-63.738-87.053-63.763 2.428-7.359 18.41-31.025 23.878-31.15"/><path d="M466.76 392.937c.05-.013 4.643 3.354 4.693 3.329-3.779 3.066-13.466 10.487-15.643 11.952 0 .012 11-15.294 10.95-15.281m-80.896-59.221c.012-.012 6.896 5.081 6.896 5.081l-15.92 22.277c3.017-11.99 3.355-14.63 9.024-27.358m12.039 8.798l8.686 6.308-32.464 45.354c-.914-5.882-.25-13.228.263-18.772l23.515-32.89m13.754 10l8.623 6.395-43.076 60.184c-.889-4.756-2.253-10.788-2.478-15.018l36.931-51.561M439.24 372.7l8.623 6.345-35.593 49.534c-2.252 1.214-13.103 3.33-15.68 3.755l42.65-59.634m-13.616-9.936l8.485 6.244-45.817 63.927c-1.014.55-3.955.45-6.983.525-.4-1.877-1.54-4.88-1.953-6.145l46.268-64.551m27.408 20.061l8.647 6.307-19.548 27.108c-2.253 1.201-16.17 8.36-19.61 9.31l30.51-42.725" fill="#BE0A2F"/><path fill="#FFF" d="M408.829 316.083l-2.315 8.085-3.08-8.223 7.147 5.231-8.673-.375 6.92-4.718zm14.091-1.013l-2.315 8.084-3.078-8.222 7.146 5.23-8.673-.375 6.92-4.718zm-11.213 14.692l-2.315 8.084-3.079-8.222 7.146 5.231-8.672-.375 6.92-4.718zm14.643-.839l-2.316 8.085-3.078-8.222 7.146 5.23-8.673-.375 6.92-4.718zm15.48-.263l-2.315 8.085-3.078-8.222 7.146 5.231-8.673-.375 6.92-4.719zm19.11 13.955l-2.314 8.084-3.079-8.222 7.146 5.231-8.673-.375 6.92-4.718zm-14.867.588l-2.315 8.084-3.079-8.222 7.146 5.231-8.673-.375 6.921-4.718zm-15.018.463l-2.315 8.084-3.079-8.222 7.146 5.231-8.672-.375 6.92-4.718zm18.835 14.042l-2.315 8.084-3.079-8.222 7.146 5.231-8.672-.375 6.92-4.718zm14.58-1.202l-2.315 8.085-3.079-8.223 7.146 5.232-8.673-.376 6.921-4.718zm13.278-1.339l-2.315 8.085-3.078-8.223 7.146 5.232-8.673-.376 6.92-4.718zm-10.775 15.043l-2.315 8.085-3.079-8.223 7.146 5.231-8.673-.375 6.921-4.718zm14.205-1.202l-2.316 8.085-3.078-8.222 7.146 5.231-8.673-.375 6.92-4.719z"/><path fill="#FFE60F" stroke="#FFF" stroke-width=".313" d="M586.028 364.103l89.306.125-65.44-29.598-23.866 29.473h0z"/><path fill="#FFE60F" stroke="#FFF" stroke-width=".313" d="M612.459 352s-15.518-7.67-17.183-8.397c-1.664-.738-5.57-.575-5.57-.575s.351 3.416 1.853 4.104c1.502.689 19.786 7.297 19.786 7.297m2.416-4.756s-12.278-7.371-15.131-8.86c-2.853-1.49-6.683-1.027-6.683-1.027s1.802 3.242 3.342 3.942c1.514.676 17.183 8.285 17.183 8.285m58.319 11.426s9.073-1.251 11.589-1.664c2.54-.426 6.896-6.145 6.896-6.145s-4.819-2.74-7.447-2.265c-2.603.45-25.63 7.246-25.63 7.246s25.355-6.595 27.658-7.409c2.34-.826 5.218-5.62 5.218-5.62s-3.867-1.25-5.932-.55c-2.065.689-28.07 9.662-28.07 9.662s28.896-9.612 31.211-10.776c2.303-1.163 5.207-6.157 5.207-6.157s-3.955-.85-5.194-.2c-.75.388-12.34 5.757-21.263 10.6 7.885-3.855 17.546-8.598 19.586-9.687 3.542-1.852 10.6-11.188 10.6-11.188s-6.733.864-8.723 2.065c-1.99 1.189-32.99 21.238-32.99 21.238s33.679-21.313 36.42-23.09c2.765-1.802 5.844-9.336 5.844-9.336s-5.42.325-7.51 1.852c-2.09 1.552-36.518 27.308-36.518 27.308s36.932-27.62 39.322-29.548c2.365-1.877 4.73-9.224 4.73-9.224s-5.406-.288-7.596 1.327c-2.19 1.602-37.92 35.768-37.92 35.768s39.084-37.207 42.2-39.973c3.104-2.766 6.333-10.813 6.333-10.813s-5.895 1.114-7.722 3.166c-1.84 2.078-42.125 46.606-42.125 46.606s45.554-50.748 47.794-53.126c2.228-2.403 3.73-9.524 3.73-9.524s-5.494 2.315-7.822 4.78c-2.315 2.441-45.379 56.38-45.379 56.38s41.524-51.799 44.09-55.003c2.553-3.203 3.704-9.323 3.704-9.323s-5.706 2.015-8.072 5.131c-2.377 3.104-41.099 57.994-41.099 57.994s32.339-46.092 33.39-47.444c1.051-1.39 1.114-6.157 1.114-6.157s-3.204.95-4.18 2.415c-1.114 1.665-31.437 50.247-31.437 50.247s32.801-52.374 33.953-54.352c1.15-1.952.738-5.757.738-5.757s-2.728.689-3.992 2.228c-1.252 1.54-32.001 57.23-32.001 57.23s33.64-60.434 34.704-62.274c1.064-1.79 1.114-7.646 1.114-7.646s-4.143 1.314-5.757 3.279c-1.615 1.965-31.162 66.204-31.162 66.204s32.125-68.182 33.953-72.274c1.84-4.092 2.24-10.625 2.24-10.625s-4.055.913-5.482 3.179c-1.289 2.04-32.676 78.48-32.676 78.48l34.64-84.074 1.114-8.398s-6.783 4.493-7.81 7.634c-.5 1.577-13.165 37.67-19.748 58.62 6.946-20.825 19.185-56.755 19.573-57.681.764-1.802-.087-6.32-.087-6.32s-4.68 4.017-5.494 6.695c-.35 1.24-9.049 31.212-14.242 50.46 3.967-13.416 10.525-37.044 10.888-38.158.926-2.765-.726-7.997-.726-7.997s-2.79 3.842-3.717 7.81a103351.9 103351.9 0 01-14.955 64.314c3.954-16.182 13.09-56.668 13.829-59.446.85-3.279-2.028-8.948-2.028-8.948s-3.229 2.928-3.541 5.193c-.213 1.652-5.62 36.995-8.648 56.806 3.354-20.3 8.335-57.306 8.648-59.584.438-3.166-2.403-9.16-2.403-9.16s-2.891 2.427-2.979 4.042c-.088 1.589-7.208 77.467-7.208 77.467s7.483-79.645 7.784-82.624c.288-2.966-2.416-8.022-2.416-8.022s-2.09 1.89-2.227 3.717c-.1 1.19-1.777 36.356-2.966 61.574 1.577-26.22 3.016-63.927 3.153-66.43.226-3.83-2.59-7.433-2.59-7.433s-1.84 2.115-2.053 5.97c-.25 4.617-.838 93.085-.838 93.085s.901-94.4.851-97.378c-.05-2.966-4.067-8.974-4.067-8.974s-3.192 4.869-2.979 9.149c.163 3.416 4.543 97.19 4.543 97.19s-3.592-83.486-4.18-87.867c-.576-4.392-5.194-7.834-5.194-7.834s-1.702 4.88-1.301 10.425c.388 5.582 7.033 61.41 7.033 61.41a61242.74 61242.74 0 01-6.307-52.049c-.326-2.89-5.47-8.585-5.47-8.585s-.4 9.073.464 13.529c.525 2.728 12.928 71.147 12.928 71.147-.013 0-11.627-64.477-12.39-68.256-.739-3.78-4.43-6.546-4.43-6.546s-.902 6.32.35 12.315c.576 2.766 14.793 62.5 14.793 62.5-1.002-5.044-14.055-59.446-14.78-62.5-.776-3.166-3.33-5.97-3.33-5.97s-.813 6.095-.025 8.573c.789 2.503 16.846 60.46 16.846 60.46s-17.359-61.023-19.436-66.793c-1.277-3.591-6.195-8.397-6.195-8.397s-.1 6.045.914 8.485c.725 1.74 13.165 35.743 20.336 54.49-7.646-20.5-22.176-59.571-22.827-61.46-.863-2.616-7.784-8.961-7.784-8.961s-1.127 4.104-.188 6.144c.926 2.04 33.728 76.955 33.728 76.955s-30.662-70.046-32.802-74.915c-2.14-4.843-9.649-8.773-9.649-8.773s.576 9.437 2.578 13.266c2.015 3.817 38.196 71.285 38.196 71.285s-33.615-62.975-34.854-65.14c-1.24-2.153-7.797-5.419-7.797-5.419s1.327 7.584 3.329 10.65c1.452 2.215 32.964 51.487 32.964 51.487-10.05-16.007-29.372-46.568-30.736-47.945-1.903-1.89-8.448-5.144-8.448-5.144s3.717 10.175 6.02 13.053c2.29 2.891 37.67 49.297 37.67 49.297s-35.092-46.406-36.932-48.233c-2.115-2.127-7.421-3.441-7.421-3.441s3.529 8.11 6.12 11.188c2.603 3.054 35.242 41.887 35.242 41.887s-29.811-35.943-32.64-38.833c-2.853-2.866-8.172-3.555-8.172-3.555s3.442 7.622 7.972 12.327c4.543 4.706 31.175 31.45 31.175 31.45m-6.795 11.552s-23.44-4.781-26.469-5.32c-3.04-.575-13.278.814-13.278.814s9.75 5.131 14.48 5.432c4.718.313 24.329 1.977 24.329 1.977"/><path fill="#FFE60F" stroke="#FFF" stroke-width=".313" d="M616.99 345.393s-22.965-24.38-25.594-26.219c-2.615-1.865-8.748-1.877-8.748-1.877s.576 5.657 3.53 7.634c2.966 1.99 29.247 22.151 29.247 22.151s-14.217-11.138-16.695-12.978c-2.478-1.84-7.997-.938-7.997-.938s4.03 5.394 6.783 7.27c2.753 1.89 16.257 9.25 16.257 9.25m-2.44 4.743s-18.623-6.946-22.002-8.047c-3.391-1.064-14.68-.551-14.68-.551s6.245 5.206 9.186 5.87c2.941.638 26.47 5.318 26.47 5.318m-.94 2.904s-24.328-2.478-26.543-2.165c-2.228.312-9.487 3.341-9.487 3.341s7.184 1.827 9.837 1.89c2.653.05 26.006-1.29 26.006-1.29"/><path fill="#FFB316" d="M649.453 364.178c0-8.986-7.271-16.282-16.232-16.282-8.96 0-16.22 7.296-16.22 16.282h32.452"/><g fill="#FFF"><path stroke="#3F863F" stroke-width="1.277" d="M348.97 409.507c-1.214-2.278-1.39-7.885-1.39-7.885s-.425 6.708-1.989 9.261"/><path stroke="#FFF" stroke-width="1.277" d="M347.643 399.582c.076 3.092 1.327 9.925 2.516 10.813"/><path stroke="#3F863F" stroke-width="1.026" d="M376.553 448.003c-.989-1.84-1.139-6.383-1.139-6.383s-.338 5.444-1.614 7.496"/><path stroke="#FFF" stroke-width="1.026" d="M375.477 439.968c.075 2.478 1.076 8.022 2.027 8.735"/><path stroke="#3F863F" stroke-width="1.277" d="M471.428 465.599c1.152-2.303 1.152-7.935 1.152-7.935s.638 6.696 2.29 9.199"/><path stroke="#FFF" stroke-width="1.277" d="M472.442 455.612c.025 3.103-1.014 10-2.152 10.913"/><path stroke="#3F863F" stroke-width="1.277" d="M521.313 463.283c1.151-2.302 1.151-7.91 1.151-7.91s.626 6.696 2.29 9.2"/><path stroke="#FFF" stroke-width="1.277" d="M522.327 453.321c.012 3.08-1.014 9.975-2.153 10.888"/><path stroke="#3F863F" stroke-width="1.277" d="M353.788 421.496c1.14-2.328 1.14-7.922 1.14-7.922s.65 6.67 2.29 9.199"/><path stroke="#FFF" stroke-width="1.277" d="M354.79 411.522c.024 3.09-1.002 9.987-2.166 10.925"/><path stroke="#3F863F" stroke-width="1.277" d="M428.527 462.12c1.14-2.303 1.152-7.935 1.152-7.935s.625 6.695 2.29 9.223"/><path stroke="#FFF" stroke-width="1.277" d="M429.541 452.12c.013 3.104-1.014 10-2.153 10.913"/><path stroke="#3F863F" stroke-width="1.277" d="M576.016 472.62c-1.214-2.278-1.39-7.885-1.39-7.885s-.425 6.696-2.002 9.249"/><path stroke="#FFF" stroke-width="1.277" d="M574.702 462.695c.087 3.066 1.326 9.924 2.502 10.788"/><path stroke="#3F863F" stroke-width="1.139" d="M447 469.353c-1.102-2.052-1.252-7.096-1.252-7.096s-.388 6.032-1.802 8.323"/><path stroke="#FFF" stroke-width="1.139" d="M445.81 460.417c.063 2.741 1.19 8.936 2.253 9.712"/><path stroke="#3F863F" stroke-width="1.277" d="M453.958 473.42c1.138-2.302 1.151-7.934 1.151-7.934s.626 6.695 2.29 9.198"/><path stroke="#FFF" stroke-width="1.277" d="M454.959 463.459c.025 3.053-1.001 9.974-2.14 10.888"/><path stroke="#3F863F" stroke-width="1.277" d="M466.422 469.829c-1.239-2.253-1.389-7.885-1.389-7.885s-.425 6.708-2.002 9.261"/><path stroke="#FFF" stroke-width="1.277" d="M465.108 459.904c.063 3.091 1.327 9.925 2.49 10.826"/><path stroke="#3F863F" stroke-width="1.277" d="M463.056 486.824c-1.214-2.278-1.39-7.885-1.39-7.885s-.425 6.708-2.002 9.249"/><path stroke="#FFF" stroke-width="1.277" d="M461.742 476.887c.075 3.066 1.326 9.937 2.49 10.8"/><path stroke="#3F863F" stroke-width="1.139" d="M498.473 461.907c-1.089-2.065-1.251-7.096-1.251-7.096s-.376 6.044-1.79 8.347"/><path stroke="#FFF" stroke-width="1.139" d="M497.284 452.971c.075 2.79 1.19 8.948 2.253 9.75"/><path stroke="#3F863F" stroke-width="1.277" d="M502.165 481.718c-1.214-2.29-1.39-7.885-1.39-7.885s-.425 6.696-2.001 9.249"/><path stroke="#FFF" stroke-width="1.277" d="M500.851 471.78c.088 3.067 1.327 9.938 2.503 10.789"/><path stroke="#3F863F" stroke-width="1.277" d="M489.538 476.7c1.15-2.303 1.15-7.91 1.15-7.91s.64 6.695 2.291 9.198"/><path stroke="#FFF" stroke-width="1.277" d="M490.539 466.725c.025 3.079-1.014 9.974-2.153 10.888"/><path stroke="#3F863F" stroke-width="1.277" d="M480.239 487.6c1.139-2.303 1.126-7.91 1.126-7.91s.651 6.67 2.303 9.174"/><path stroke="#FFF" stroke-width="1.277" d="M481.24 477.638c.025 3.079-1.001 9.974-2.152 10.888"/><path stroke="#3F863F" stroke-width="1.026" d="M481.84 461.619c.94-1.902.927-6.42.927-6.42s.526 5.394 1.865 7.446"/><path stroke="#FFF" stroke-width="1.026" d="M482.667 453.522c.012 2.49-.814 8.097-1.752 8.835"/><path stroke="#3F863F" stroke-width="1.026" d="M518.41 486.46c.926-1.901.938-6.42.938-6.42-.012 0 .513 5.395 1.852 7.447"/><path stroke="#FFF" stroke-width="1.026" d="M519.235 478.364c.013 2.49-.813 8.097-1.74 8.81"/><path stroke="#3F863F" stroke-width="1.026" d="M510.262 460.968c.926-1.865.926-6.42.926-6.42s.513 5.431 1.865 7.446"/><path stroke="#FFF" stroke-width="1.026" d="M511.088 452.896c.013 2.503-.813 8.072-1.752 8.823"/><path stroke="#3F863F" stroke-width="1.277" d="M492.591 489.677c1.152-2.302 1.152-7.91 1.152-7.91s.638 6.671 2.29 9.2"/><path stroke="#FFF" stroke-width="1.277" d="M493.592 479.703c.013 3.079-1.013 9.974-2.152 10.888"/><path stroke="#3F863F" stroke-width="1.277" d="M508.372 490.416c1.152-2.303 1.14-7.91 1.14-7.91s.65 6.67 2.302 9.174"/><path stroke="#FFF" stroke-width="1.277" d="M509.386 480.454c.025 3.078-1.014 9.974-2.152 10.888"/><path stroke="#3F863F" stroke-width="1.277" d="M472.167 485.322c-1.227-2.278-1.39-7.884-1.39-7.884s-.425 6.708-2.002 9.26"/><path stroke="#FFF" stroke-width="1.277" d="M470.84 475.385c.075 3.104 1.327 9.937 2.503 10.8"/><path stroke="#3F863F" stroke-width="1.277" d="M476.16 474.935c1.138-2.328 1.138-7.935 1.138-7.935s.65 6.683 2.303 9.186"/><path stroke="#FFF" stroke-width="1.277" d="M477.16 464.948c.025 3.091-1 9.987-2.152 10.9"/><path stroke="#3F863F" stroke-width="1.277" d="M450.616 481.956c-1.214-2.278-1.389-7.885-1.389-7.885s-.426 6.683-2.002 9.261"/><path stroke="#FFF" stroke-width="1.277" d="M449.302 472.006c.075 3.104 1.314 9.962 2.49 10.826"/><path stroke="#3F863F" stroke-width="1.277" d="M438.915 477.5c1.139-2.315 1.126-7.91 1.126-7.91s.65 6.696 2.29 9.2"/><path stroke="#FFF" stroke-width="1.277" d="M439.916 467.526c.025 3.079-1.001 9.974-2.153 10.913"/><path stroke="#3F863F" stroke-width="1.277" d="M402.334 465.26c1.138-2.302 1.126-7.909 1.126-7.909s.65 6.696 2.29 9.199"/><path stroke="#FFF" stroke-width="1.277" d="M403.335 455.299c.025 3.078-1.001 9.974-2.153 10.888"/><path stroke="#3F863F" stroke-width="1.277" d="M415.6 471.218c-1.215-2.278-1.39-7.885-1.39-7.885s-.425 6.683-2.002 9.249"/><path stroke="#FFF" stroke-width="1.277" d="M414.285 461.293c.075 3.067 1.327 9.9 2.49 10.8"/><path stroke="#3F863F" stroke-width="1.277" d="M420.993 473.483c1.14-2.315 1.152-7.934 1.152-7.934s.625 6.695 2.277 9.223"/><path stroke="#FFF" stroke-width="1.277" d="M421.995 463.521c.025 3.079-1.002 9.974-2.153 10.888"/><path stroke="#3F863F" stroke-width="1.026" d="M434.334 474.91c-.976-1.865-1.126-6.395-1.126-6.395s-.338 5.419-1.615 7.483"/><path stroke="#FFF" stroke-width="1.026" d="M433.27 466.838c.063 2.503 1.064 8.072 2.015 8.773"/><path stroke="#3F863F" stroke-width="1.277" d="M440.229 465.16c-1.227-2.277-1.39-7.884-1.39-7.884s-.437 6.708-2.002 9.261"/><path stroke="#FFF" stroke-width="1.277" d="M438.915 455.224c.062 3.09 1.326 9.937 2.503 10.8"/><path stroke="#3F863F" stroke-width="1.277" d="M415.061 453.059c1.152-2.303 1.152-7.91 1.152-7.91s.625 6.696 2.29 9.199"/><path stroke="#FFF" stroke-width="1.277" d="M416.075 443.084c.012 3.079-1.014 9.975-2.153 10.888"/><path stroke="#3F863F" stroke-width="1.277" d="M394.261 460.492c-1.226-2.315-1.389-7.909-1.389-7.909s-.425 6.696-2.002 9.249"/><path stroke="#FFF" stroke-width="1.277" d="M392.935 450.518c.062 3.104 1.314 9.974 2.49 10.826"/><path stroke="#3F863F" stroke-width="1.277" d="M381.258 452.483c1.14-2.34 1.152-7.935 1.152-7.935s.626 6.696 2.29 9.199"/><path stroke="#FFF" stroke-width="1.277" d="M382.247 442.509c.025 3.078-1.001 9.974-2.14 10.888"/><path stroke="#3F863F" stroke-width="1.277" d="M398.53 451.895c-1.215-2.29-1.39-7.885-1.39-7.885s-.426 6.696-2.002 9.249"/><path stroke="#FFF" stroke-width="1.277" d="M397.215 441.958c.075 3.079 1.314 9.95 2.503 10.8"/><path stroke="#3F863F" stroke-width="1.026" d="M407.477 450.931c.926-1.89.926-6.42.926-6.42s.526 5.394 1.865 7.446"/><path stroke="#FFF" stroke-width="1.026" d="M408.303 442.834c.013 2.49-.813 8.097-1.74 8.835"/><path stroke="#3F863F" stroke-width="1.139" d="M488.01 461.306c1.027-2.078 1.027-7.121 1.027-7.121s.576 6.032 2.077 8.272"/><path stroke="#FFF" stroke-width="1.139" d="M488.912 452.345c.025 2.779-.901 8.973-1.94 9.8"/><path stroke="#3F863F" stroke-width="1.277" d="M503.204 461.056c1.151-2.303 1.151-7.935 1.151-7.935s.626 6.696 2.29 9.199"/><path stroke="#FFF" stroke-width="1.277" d="M504.205 451.081c.013 3.054-1.014 9.975-2.153 10.888"/><path stroke="#3F863F" stroke-width="1.026" d="M517.608 473.22c-.976-1.865-1.113-6.395-1.113-6.395s-.338 5.419-1.627 7.509"/><path stroke="#FFF" stroke-width="1.026" d="M516.532 465.148c.063 2.516 1.064 8.035 2.015 8.773"/><path stroke="#3F863F" stroke-width=".926" d="M532.376 483.094c-.901-1.664-1.026-5.769-1.026-5.769s-.313 4.893-1.464 6.77"/><path stroke="#FFF" stroke-width=".926" d="M531.4 475.873c.062 2.253.976 7.234 1.827 7.872"/><path stroke="#3F863F" stroke-width="1.277" d="M526.406 476.85c1.152-2.353 1.152-7.935 1.152-7.935s.638 6.683 2.29 9.186"/><path stroke="#FFF" stroke-width="1.277" d="M527.408 466.838c.025 3.09-1.002 10.011-2.14 10.925"/><path stroke="#3F863F" stroke-width="1.277" d="M533.853 463.07c-1.214-2.252-1.39-7.884-1.39-7.884s-.425 6.708-2.002 9.261"/><path stroke="#FFF" stroke-width="1.277" d="M532.539 453.134c.075 3.09 1.326 9.924 2.49 10.825"/><path stroke="#3F863F" stroke-width="1.277" d="M506.72 473.546c1.152-2.303 1.152-7.91 1.152-7.91s.626 6.696 2.29 9.199"/><path stroke="#FFF" stroke-width="1.277" d="M507.734 463.571c.013 3.079-1.014 9.975-2.152 10.888"/><path stroke="#3F863F" stroke-width="1.277" d="M539.059 472.231c-1.226-2.277-1.39-7.884-1.39-7.884s-.412 6.67-2.002 9.224"/><path stroke="#FFF" stroke-width="1.277" d="M537.732 462.282c.076 3.091 1.315 9.962 2.49 10.813"/><path stroke="#3F863F" stroke-width="1.277" d="M568.607 459.178c-1.227-2.277-1.402-7.884-1.402-7.884s-.413 6.708-1.99 9.261"/><path stroke="#FFF" stroke-width="1.277" d="M567.28 449.254c.075 3.079 1.34 9.937 2.516 10.813"/><path stroke="#3F863F" stroke-width="1.277" d="M540.46 449.98c1.14-2.315 1.14-7.91 1.14-7.91s.638 6.671 2.29 9.174"/><path stroke="#FFF" stroke-width="1.277" d="M541.462 440.006c.025 3.078-1.001 9.974-2.14 10.888"/><path stroke="#3F863F" stroke-width="1.277" d="M565.328 473.934c1.151-2.303 1.151-7.91 1.151-7.91s.626 6.696 2.29 9.199"/><path stroke="#FFF" stroke-width="1.277" d="M566.342 463.997c.025 3.053-1.002 9.937-2.153 10.888"/><path stroke="#3F863F" stroke-width="1.277" d="M583.65 453.071c1.151-2.303 1.151-7.934 1.151-7.934s.638 6.695 2.29 9.223"/><path stroke="#FFF" stroke-width="1.277" d="M584.663 442.922c.013 3.078-1.013 9.974-2.152 10.888"/><path stroke="#3F863F" stroke-width="1.277" d="M550.848 477.262c-1.214-2.277-1.39-7.884-1.39-7.884s-.425 6.708-2.001 9.249"/><path stroke="#FFF" stroke-width="1.277" d="M549.522 467.338c.075 3.066 1.326 9.937 2.502 10.8"/><path stroke="#3F863F" stroke-width="1.277" d="M549.359 459.116c1.151-2.315 1.151-7.91 1.151-7.91s.638 6.67 2.29 9.199"/><path stroke="#FFF" stroke-width="1.277" d="M550.373 449.141c.025 3.08-1.014 9.975-2.153 10.888"/><path stroke="#3F863F" stroke-width="1.026" d="M558.22 464.247c-.99-1.84-1.127-6.395-1.127-6.395s-.35 5.444-1.614 7.521"/><path stroke="#FFF" stroke-width="1.026" d="M557.143 456.2c.063 2.515 1.064 8.047 2.015 8.773"/><path stroke="#3F863F" stroke-width="1.277" d="M530.9 446.901c1.138-2.302 1.138-7.934 1.138-7.934s.65 6.695 2.29 9.198"/><path stroke="#FFF" stroke-width="1.277" d="M531.9 436.927c.026 3.054-1 9.974-2.152 10.888"/><path stroke="#3F863F" stroke-width="1.277" d="M574.163 459.88c1.152-2.329 1.152-7.935 1.152-7.935s.638 6.683 2.29 9.186"/><path stroke="#FFF" stroke-width="1.277" d="M575.177 449.905c.025 3.091-1.014 9.987-2.152 10.9"/><path stroke="#3F863F" stroke-width="1.277" d="M559.759 479.428c-1.214-2.303-1.39-7.897-1.39-7.897s-.425 6.695-2.002 9.248"/><path stroke="#FFF" stroke-width="1.277" d="M558.445 469.466c.075 3.103 1.314 9.962 2.49 10.825"/><path stroke="#3F863F" stroke-width="1.026" d="M557.08 449.892c.927-1.864.927-6.42.927-6.42s.513 5.432 1.864 7.447"/><path stroke="#FFF" stroke-width="1.026" d="M557.894 441.82c.012 2.503-.813 8.072-1.752 8.81"/><path stroke="#3F863F" stroke-width="1.277" d="M516.044 435.425c1.151-2.34 1.139-7.947 1.139-7.947s.638 6.696 2.29 9.199"/><path stroke="#FFF" stroke-width="1.277" d="M517.045 425.426c.025 3.078-1 9.974-2.152 10.888"/><path stroke="#3F863F" stroke-width=".926" d="M550.698 443.597c-.889-1.664-1.014-5.769-1.014-5.769s-.313 4.893-1.464 6.77"/><path stroke="#FFF" stroke-width=".926" d="M549.734 436.364c.05 2.227.964 7.233 1.827 7.872"/><path stroke="#3F863F" stroke-width="1.139" d="M576.691 445.7c-1.088-2.065-1.251-7.109-1.251-7.109s-.376 6.033-1.79 8.323"/><path stroke="#FFF" stroke-width="1.139" d="M575.502 436.752c.076 2.766 1.19 8.948 2.253 9.736"/><path stroke="#3F863F" stroke-width="1.277" d="M528.496 434.249c-1.214-2.29-1.389-7.885-1.389-7.885s-.425 6.696-1.99 9.249"/><path stroke="#FFF" stroke-width="1.277" d="M527.17 424.324c.087 3.067 1.326 9.925 2.503 10.813"/><path stroke="#3F863F" stroke-width="1.277" d="M505.006 432.76c-1.227-2.29-1.39-7.885-1.39-7.885s-.437 6.696-2.002 9.249"/><path stroke="#FFF" stroke-width="1.277" d="M503.667 422.823c.087 3.066 1.339 9.936 2.515 10.8"/><path stroke="#3F863F" stroke-width=".926" d="M540.673 433.798c-.876-1.664-1.013-5.77-1.013-5.77s-.313 4.894-1.464 6.771"/><path stroke="#3F863F" stroke-width="1.026" d="M559.408 437.966c.926-1.878.926-6.42.926-6.42s.526 5.393 1.865 7.446"/><path stroke="#FFF" stroke-width="1.026" d="M560.222 429.894c.012 2.49-.814 8.072-1.752 8.81"/><path stroke="#3F863F" stroke-width="1.277" d="M567.318 443.047c-1.227-2.278-1.39-7.885-1.39-7.885s-.425 6.696-2.002 9.249"/><path stroke="#FFF" stroke-width="1.277" d="M566.004 433.122c.087 3.067 1.326 9.925 2.503 10.788"/><path stroke="#3F863F" stroke-width="1.264" d="M564.164 431.395c1.039-2.077 1.039-7.108 1.039-7.108s.563 6.02 2.065 8.26"/><path stroke="#3F863F" stroke-width="1.139" d="M582.711 465.473c1.026-2.077 1.026-7.146 1.026-7.146s.576 6.02 2.078 8.273"/><path stroke="#FFF" stroke-width="1.139" d="M583.625 456.475c.012 2.779-.914 8.998-1.94 9.8"/><path stroke="#3F863F" stroke-width="1.277" d="M547.269 433.46c1.139-2.327 1.139-7.922 1.139-7.922s.638 6.696 2.29 9.199"/><path stroke="#FFF" stroke-width="1.277" d="M548.257 423.473c.026 3.092-1 9.987-2.152 10.913"/><path stroke="#3F863F" stroke-width="1.026" d="M544.04 468.59c.926-1.89.926-6.42.926-6.42s.526 5.393 1.852 7.446"/><path stroke="#FFF" stroke-width="1.026" d="M544.853 460.492c.025 2.491-.8 8.073-1.74 8.811"/><path stroke="#3F863F" stroke-width=".926" d="M571.46 430.92c.839-1.69.839-5.77.839-5.77s.463 4.856 1.677 6.67"/><path stroke="#3F863F" stroke-width="1.026" d="M557.193 430.482c-.989-1.84-1.114-6.395-1.114-6.395s-.338 5.419-1.627 7.509"/><path stroke="#FFF" stroke-width="1.026" d="M556.13 422.422c.062 2.516 1.063 8.072 2.027 8.798"/><path stroke="#3F863F" stroke-width="1.026" d="M579.945 439.267c.926-1.865.926-6.42.926-6.42s.513 5.444 1.853 7.446"/><path stroke="#FFF" stroke-width="1.026" d="M580.746 431.208c.025 2.503-.8 8.072-1.74 8.823"/><path stroke="#3F863F" stroke-width="1.139" d="M580.884 429.293c-1.089-2.09-1.252-7.121-1.252-7.121s-.388 6.045-1.802 8.347"/><path stroke="#FFF" stroke-width="1.139" d="M579.707 420.32c.076 2.79 1.19 8.948 2.253 9.749"/><path stroke="#3F863F" stroke-width="1.277" d="M590.996 434.349c1.164-2.34 1.151-7.935 1.151-7.935s.639 6.683 2.303 9.186"/><path stroke="#FFF" stroke-width="1.277" d="M592.01 424.35c.012 3.116-1.014 10.011-2.153 10.925"/><path stroke="#3F863F" stroke-width="1.277" d="M601.12 456.675c-1.213-2.277-1.389-7.884-1.389-7.884s-.425 6.708-2.002 9.261"/><path stroke="#FFF" stroke-width="1.277" d="M599.794 446.751c.075 3.104 1.326 9.937 2.503 10.8"/><path stroke="#3F863F" stroke-width="1.139" d="M591.534 462.195c1.026-2.065 1.039-7.109 1.039-7.109s.563 6.02 2.065 8.26"/><path stroke="#FFF" stroke-width="1.139" d="M592.448 453.221c.025 2.779-.901 8.974-1.953 9.812"/><path stroke="#3F863F" stroke-width="1.139" d="M591.822 446.388c1.026-2.102 1.026-7.146 1.026-7.146s.576 6.02 2.065 8.26"/><path stroke="#FFF" stroke-width="1.139" d="M592.735 437.39c.013 2.778-.913 9.01-1.952 9.837"/><path stroke="#228B22" stroke-width="1.139" d="M604.112 428.642c-1.114-2.065-1.252-7.096-1.252-7.096s-.375 6.02-1.802 8.323"/><path stroke="#FFF" stroke-width="1.139" d="M602.923 419.694c.062 2.79 1.189 8.948 2.252 9.749"/><path stroke="#3F863F" stroke-width="1.277" d="M599.343 443.122c1.164-2.34 1.152-7.935 1.152-7.935s.625 6.696 2.29 9.199"/><path stroke="#FFF" stroke-width="1.277" d="M600.357 433.135c.025 3.066-1.014 9.962-2.152 10.9"/><path stroke="#3F863F" stroke-width="1.026" d="M606.577 453.309c.926-1.865.939-6.42.939-6.42s.5 5.419 1.852 7.446"/><path stroke="#FFF" stroke-width="1.026" d="M607.403 445.237c.012 2.503-.813 8.072-1.74 8.81"/><path stroke="#3F863F" stroke-width="1.026" d="M609.143 440.994c-1.002-1.864-1.127-6.395-1.127-6.395s-.338 5.42-1.627 7.484"/><path stroke="#FFF" stroke-width="1.026" d="M608.054 432.922c.062 2.516 1.076 8.072 2.015 8.773"/><path stroke="#228B22" stroke-width="1.264" d="M611.82 427.741c1.152-2.353 1.152-7.934 1.152-7.934-.012 0 .626 6.695 2.278 9.185"/><path stroke="#FFF" stroke-width="1.277" d="M612.822 417.729c.025 3.116-1.001 10.012-2.153 10.926"/><path stroke="#3F863F" stroke-width="1.139" d="M621.733 440.068c1.038-2.077 1.038-7.146 1.038-7.146s.563 6.02 2.065 8.272"/><path stroke="#FFF" stroke-width="1.139" d="M622.646 431.07c.025 2.778-.9 8.973-1.927 9.8"/><path stroke="#3F863F" stroke-width="1.139" d="M615.538 441.97c-1.09-2.065-1.252-7.108-1.252-7.108s-.388 6.032-1.79 8.322"/><path stroke="#FFF" stroke-width="1.139" d="M614.349 433.022c.075 2.791 1.189 8.948 2.252 9.737"/><path stroke="#3F863F" stroke-width="1.277" d="M613.886 411.184c-1.214-2.278-1.39-7.885-1.39-7.885s-.425 6.683-2.002 9.249"/><path stroke="#FFF" stroke-width="1.277" d="M612.56 401.26c.087 3.066 1.326 9.924 2.502 10.8"/><path stroke="#3F863F" stroke-width="1.277" d="M619.805 427.54c1.152-2.302 1.152-7.934 1.152-7.934s.638 6.696 2.29 9.224"/><path stroke="#FFF" stroke-width="1.277" d="M620.806 417.566c.025 3.079-1.013 9.975-2.152 10.888"/><path stroke="#3F863F" stroke-width="1.139" d="M638.002 424.888c1.039-2.078 1.039-7.121 1.039-7.121s.575 5.994 2.065 8.26"/><path stroke="#FFF" stroke-width="1.139" d="M638.916 415.902c.025 2.778-.914 8.986-1.94 9.812"/><path stroke="#3F863F" stroke-width="1.139" d="M631.269 422.597c-1.089-2.065-1.252-7.096-1.252-7.096s-.363 6.02-1.79 8.348"/><path stroke="#FFF" stroke-width="1.139" d="M630.08 413.65c.075 2.79 1.189 8.947 2.253 9.748"/><path stroke="#3F863F" stroke-width=".926" d="M631.657 434.499c-.889-1.664-1.014-5.77-1.014-5.77s-.313 4.894-1.464 6.771"/><path stroke="#FFF" stroke-width=".926" d="M630.693 427.24c.063 2.253.964 7.259 1.815 7.897"/><path stroke="#3F863F" stroke-width="1.277" d="M619.455 410.195c1.139-2.315 1.139-7.947 1.139-7.947s.638 6.696 2.29 9.199"/><path stroke="#FFF" stroke-width="1.277" d="M620.456 400.233c.025 3.079-1.001 9.975-2.153 10.888"/><path stroke="#3F863F" stroke-width="1.277" d="M626.513 408.155c1.14-2.315 1.127-7.91 1.127-7.91s.65 6.671 2.302 9.174"/><path stroke="#FFF" stroke-width="1.277" d="M627.514 398.18c.025 3.054-1 9.975-2.152 10.889"/><path stroke="#3F863F" stroke-width="1.139" d="M636.85 412.172c-1.1-2.065-1.25-7.133-1.25-7.133s-.389 6.057-1.816 8.36"/><path stroke="#FFF" stroke-width="1.139" d="M635.662 403.237c.062 2.766 1.189 8.948 2.252 9.724"/><path stroke="#3F863F" stroke-width="1.139" d="M644.284 408.53c-1.088-2.064-1.251-7.108-1.251-7.108s-.376 6.032-1.79 8.323"/><path stroke="#FFF" stroke-width="1.139" d="M643.096 399.595c.075 2.79 1.188 8.948 2.252 9.737"/><path stroke="#3F863F" stroke-width="1.139" d="M648.327 410.258c1.026-2.09 1.038-7.134 1.038-7.134s.576 5.995 2.065 8.26"/><path stroke="#FFF" stroke-width="1.139" d="M649.24 401.26c.025 2.778-.913 8.998-1.952 9.836"/><path stroke="#3F863F" stroke-width="1.026" d="M656.537 407.63c-1.002-1.84-1.14-6.37-1.14-6.37s-.337 5.418-1.626 7.483"/><path stroke="#FFF" stroke-width="1.026" d="M655.46 399.57c.063 2.515 1.077 8.072 2.015 8.798"/><path stroke="#3F863F" stroke-width="1.277" d="M367.517 437.753c1.151-2.353 1.151-7.935 1.151-7.935s.639 6.683 2.278 9.186"/><path stroke="#FFF" stroke-width="1.277" d="M368.518 427.753c.025 3.092-1 10.012-2.165 10.926"/><path stroke="#3F863F" stroke-width="1.277" d="M359.357 436.189c-1.239-2.253-1.389-7.885-1.389-7.885s-.425 6.708-2.002 9.261"/><path stroke="#FFF" stroke-width="1.277" d="M358.03 426.264c.076 3.091 1.327 9.925 2.491 10.826"/><path stroke="#3F863F" stroke-width="1.026" d="M353.15 431.395c-.976-1.864-1.139-6.382-1.139-6.382s-.338 5.419-1.602 7.471"/><path stroke="#FFF" stroke-width="1.026" d="M352.086 423.348c.075 2.478 1.064 8.06 2.028 8.76"/><path stroke="#3F863F" stroke-width="1.277" d="M343.576 426.715c1.139-2.303 1.126-7.91 1.126-7.91s.639 6.696 2.29 9.199"/><path stroke="#FFF" stroke-width="1.277" d="M344.565 416.74c.025 3.079-1.001 9.975-2.153 10.888"/><path stroke="#3F863F" stroke-width="1.277" d="M329.284 408.606c1.139-2.316 1.126-7.91 1.126-7.91s.626 6.696 2.29 9.199"/><path stroke="#FFF" stroke-width="1.277" d="M330.285 398.631c.025 3.079-1.001 9.975-2.152 10.888"/><path stroke="#3F863F" stroke-width=".926" d="M325.617 401.297c-.888-1.677-1.026-5.744-1.026-5.744s-.3 4.868-1.452 6.72"/><path stroke="#FFF" stroke-width=".926" d="M324.666 394.038c.05 2.253.964 7.259 1.827 7.897"/></g><path fill="#3F863F" stroke="#000" stroke-width="1.277" d="M351.999 360.598c-.476 5.22-.288 11.84 2.052 17.509-4.167-3.742-12.552-9.411-22.69-11.814-4.73-4.58-9.636-21.276-7.871-27.245 9.01-.55 26.644 14.292 28.509 21.55h0zm17.045 34.429c-8.185-5.344-15.694-6.896-33.978-6.433 2.778 10.238 30.636 22.477 35.28 21.626-.388-1.765-1.765-13.579-1.302-15.193h0z"/><path fill="#3F863F" stroke="#000" stroke-width="1.277" d="M368.956 394.752c-23.69-10.513-17.345-44.629-13.153-48.596 11.702 6.445 12.703 21.55 14.18 25.568a159.25 159.25 0 00-1.027 23.028h0z"/><path fill="#3F863F" stroke="#000" stroke-width="1.277" d="M364.689 392.399c-5.657-4.093-9.099-9.036-10.55-14.104-6.984-6.308-17.746-12.666-31.488-13.141.263 11.126 9.549 21.463 15.03 23.428 8.911.012 18.11-.438 27.02 3.854l-.012-.037h0zm96.552 49.971c-3.892 4.306-17.195 17.897-40.41 7.723 3.441-4.005 6.32-4.48 8.46-4.744 7.434.751 17.47-2.215 23.227-6.895 2.879 1.489 7.885 3.73 8.723 3.917h0z"/><path fill="#3F863F" stroke="#000" stroke-width="1.277" d="M460.603 428.116c-6.87-4.58-14.117-4.017-21.175-6.17-.764 13.955 21.288 19.474 23.202 21.076 2.316-1.214 7.434-2.39 10.876-2.128-2.603-1.977-9.937-5.694-12.903-12.778h0z"/><path fill="#3F863F" stroke="#000" stroke-width="1.277" d="M504.893 442.22c2.991-.087 12.077-2.214 14.68-.187 2.59 2.065 7.797 8.01 3.705 12.127-4.093 4.105-7.81-1.677-9.474-2.628-1.677-.926-7.046-6.52-28.972-2.265-9.574 1.864-9.587 8.047-20.55 10.262-8.01 1.627-9.023.1-18.209-.2 3.817-4.656 6.883-7.46 10.413-12.29 3.541-4.868 13.854-6.32 17.007-6.157-4.743-3.242-15.78-8.11-15.856-27.32 7.246 1.677 15.881 3.429 26.256 23.778-3.98-8.56-11.213-17.446-14.38-18.848-.713-.3.376-12.565 1.69-14.63 7.797 8.298 8.898 8.448 12.815 12.328 5.657 5.594 4.631 13.791 7.61 18.447 3.066 4.868 9.36 7.684 13.265 7.584h0z"/><path fill="#3F863F" stroke="#000" stroke-width="1.277" d="M452.506 438.454c-3.066 2.515-17.008 11.1-33.352 4.568 9.023-11.389 14.68-11.577 24.354-10.988 2.227 2.227 5.656 5.03 8.998 6.42h0zm-82.173-28.234c-1.026-.588-13.378 1.026-15.143 3.73.563 4.843 13.829 12.214 17.546 11.2-.65-4.092-2.503-13.14-2.403-14.93h0z"/><path fill="none" stroke="#000" stroke-width="1.277" d="M520.937 446.714c1.302 1.852.701 6.207-2.703 4.155m.4.137c2.516.376 2.88-2.328 2.504-3.904"/><path fill="none" stroke="#3F863F" stroke-width="1.277" d="M521.15 445.662c3.98 7.584-2.052 7.472-3.817 4.606"/><path fill="none" stroke="#000" stroke-width="1.126" d="M475.12 414.738c1.114 3.767 8.223 12.027 9.712 17.283m-20.938-9.774c1.114 2.265 8.586 10.913 13.079 14.304m-29.56-7.909c1.113 1.114 9.348 7.884 17.207 10.137m-19.836-1.865c-3.366-.413-12.727-.012-17.971 4.13m23.578 3.354c-2.991.751-14.217 1.903-20.212 4.894m46.03-3.354c-8.973.726-13.115 8.247-20.587 9.749M356.917 355.68c0 3.38.726 21.038 5.97 25.931m-35.518-36.068c2.24 8.623 15.694 15.393 16.82 20.662m17.534 49.972c2.252-.738 6.357-1.114 8.985 1.127m-26.907-24.818c3.367.025 19.824 3.78 24.68 10.926m-39.647-31.95c4.117 1.476 18.71 10.136 22.063 16.932"/><path fill="#FFF" stroke="#000" stroke-width="1.026" d="M303.704 347.595c3.066.94 11.701.877 14.492-4.993.813-1.715.75-5.031 3.354-8.385 2.603-3.354 6.545-3.992 7.17-8.11 1.127-7.459-7.245-6.457-8.897-10.637-1.414-3.53.375-4.568 4.092-5.42 2.416-.525 9.95 2.328 26.169 8.974 11.889 4.856 22.664 1.877 26.294-.55 4.117-2.742 7.897-10.626 14.968-16.946 1.2-1.076 17.095-6.345 22.677-16.044 2.765-4.806 6.345-21.626-8.148-32.451-14.467-10.826-34.891-17.922-43.426-21.664-8.548-3.729-21.3-5.882-22.74-16.607-.65-4.756 3.43-6.658 6.796-6.545 4.442.213 10.274 1.852 13.804 2.19 2.603.275 11.45 1.39 12.84-6.908-.676-.739-.826-.951-1.49-2.04-.287 1.477-1.026 4.543-6.97 4.167-7.121-.45-14.405-5.093-19.911-5.08-6.67 0-11.289 3.591-17.972 5.456-6.445 1.79-14.28 1.289-17.834 7.809-2.24 4.105-4.105 18.66 6.658 29.097 10.75 10.475 16.77 15.469 41.938 25.03 18.484 6.996 23.065 10.838 25.305 13.466 2.228 2.616 2.127 5.119 1.251 6.132-1.113 1.302-6.783 2.516-21.075-3.641-12.878-5.545-23.202-6.37-29.147-6.358-5.945-.025-22.39 2.979-25.268 8.76-3.341 6.696-.75 8.198-.112 18.172.175 2.828-.613 6.708.913 10.175 1.114 2.515 3.792 5.481 5.745 6.32 5.844 2.515 3.604 5.431 1.752 7.659-1.852 2.228-4.455 6.433-3.817 9.987.938 5.294-9.411 8.985-9.411 8.985h0zM487.585 93.117c-6.42 2.44-7.634 1.477-9.849 3.242-3.63 2.89-6.62 6.057-7.446 4.755-1.102-1.777 9.51-3.617 11.714-10.325 1.764-5.431-.639-6.445-1.928-15.33-2.002-13.704-8.635-16.044-13.466-14.555-4.83 1.514-17.846 7.934-39.021 15.28-14.893 5.17-38.91 7.76-43.114 15.269-1.665 3.003-6.708 15.343 10.387 27.62 3.892 2.803 5.094 3.554 14.943 6.808-5.982-.913-14.054-3.379-33.465-2.052-35.355 2.453-72.599 35.204-68.106 61.21 1.101 6.408 9.374 3.83 16.07 4.931 6.682 1.126 7.696 4.28 12.527 3.504 4.83-.75 5.656-8.047 10.5-8.785 4.83-.739 4.455 4.117 9.649 4.105 5.206.012 9.498-8.76 13.228-8.385-1.852-.751-2.24-.651-3.542-.826-3.316 2.628-7.521 3.63-10.124 2.127-2.591-1.476-3.405-3.817-7.222-3.804-2.227-.025-4.455 1.176-9.098 4.555 3.892-4.755 20.575-30.098 56.117-22.727 16.244 3.367 18.21-1.752 18.948-4.38.75-2.603-.739-6.883.012-13.867.613-5.681 4.105-9.711 2.979-13.453-1.114-3.717-3.016-5.644-9.274-7.722-2.778-.939-2.515-2.278-1.314-3.304 1.226-1.089 5.119-1.251 7.91-1.74 4.893-.8 29.172-6.77 45.441-17.007 8.41-5.294 13.203-10.938 13.579-7.61.263 2.316-12.177 3.968-11.827 9.475.15 2.34.326 6.007 7.159 6.52 4.918.388 7.934-3.104 11.326-6.045 4.067-3.567 5.644-4.605 6.307-7.484h0z"/><path fill="#BE0A2F" stroke="#000" stroke-width="1.026" d="M361.06 234.949c-18.047-7.534-31.901-14.893-22.59-28.872-10.713 5.369-28.734 1.79-27.658 15.794 3.517 45.954 87.354 37.069 79.895 74.651 19.023-2.653 36.293-31.45 4.493-46.23-11.826-5.482-23.315-10.788-34.14-15.343h0zm49.846-104.5c3.242.801-.25 6.483-1.189 11.94-.613 3.566 2.616 10.775-.312 12.402-9.962 5.506-51.111-15.994-74.477 30.524-2.678 5.33-7.584.012-11.876-.388-7.46-.726-13.053.725-11.014-5.42 17.584-53.138 73.175-55.328 98.868-49.058h0zm43.865-60.635c6.67-2.84 12.152-5.118 15.644-4.08 6.983 2.103 5.193 16.433 7.709 19.724-4.143-1.402-10.888 3.129-18.472 8.122-6.007 3.942-12.966 7.76-19.148 10.212-4.856 1.915-12.102 4.105-18.91 5.532-11.689 2.465-22.352 4.205-19.448 9.224-4.455-1.652-18.572-11.051-14.542-21.789 2.24-5.982 10.3-8.61 19.698-11.013 9.399-2.365 17.671-4.218 26.244-7.471 8.61-3.317 14.53-5.57 21.225-8.46h0zm-137.439 214.33c31.963-11.9 47.807 11.915 69.358 8.223.375 9.674-7.922 26.807-24.654 25.668-11.59-.763-39.71-21.838-48.896-4.718-.35-12.29-7.209-24.93 4.192-29.172h0z"/><path d="M324.028 290.477c-.588-.725-1.252-1.038-2.215-.888-1.002.137-2.015.989-1.865 2.115.15.976 1.201 1.364 2.04 1.564l.964.213c1.914.438 3.404 1.251 3.716 3.392.326 2.302-1.214 4.23-3.491 4.555-2.053.3-3.88-.989-4.443-2.991l1.564-.563c.188 1.389 1.44 2.24 2.816 2.052 1.364-.188 2.178-1.49 1.978-2.828-.188-1.364-1.377-1.802-2.541-2.103l-.926-.238c-1.527-.425-2.966-1.05-3.229-2.828-.3-2.052 1.327-3.567 3.254-3.83 1.402-.2 2.666.313 3.542 1.452l-1.164.926m11.038 10.3l-1.602-.137.876-11.402-3.041-.225.113-1.452 7.684.589-.113 1.464-3.041-.225-.876 11.388m8.272-1.827l-2.503 2.478-1.614-.613 10.462-10.363 1.014 14.718-1.614-.613-.238-3.53-5.507-2.077zm5.119-5.206l-3.967 4.067 4.267 1.602-.3-5.67m8.785 13.83l-1.514-.5 3.58-10.801-2.892-.964.476-1.389 7.284 2.428-.463 1.377-2.879-.964-3.567 10.8m10.425-10.15l6.846.84-.175 1.463-5.244-.663-.438 3.58 5.094.625-.176 1.464-5.106-.638-.588 4.83 5.256.652-.175 1.464-6.833-.839 1.552-12.765m29.435-16.482c-.563.55-.776 1.164-.563 1.952.212.864 1.026 1.627 1.952 1.402.839-.213 1.051-1.139 1.139-1.865l.1-.838c.213-1.64.75-3.004 2.516-3.442 1.927-.488 3.679.638 4.167 2.553.438 1.715-.488 3.367-2.14 4.03l-.613-1.276c1.164-.276 1.777-1.427 1.489-2.566-.288-1.139-1.452-1.702-2.566-1.414-1.138.288-1.401 1.326-1.551 2.34l-.113.801c-.213 1.352-.626 2.628-2.103 2.991-1.714.438-3.128-.813-3.529-2.428-.3-1.189.025-2.303.901-3.141l.914.901m-4.455-14.617c2.665-1.853 6.144-1.152 7.96 1.439 1.801 2.603 1.263 6.12-1.39 7.997-2.578 1.802-6.17 1.126-7.96-1.44-1.802-2.577-1.176-6.194 1.39-7.996zm.788 1.113c-1.977 1.39-2.603 4.03-1.139 6.133 1.477 2.127 4.155 2.44 6.132 1.051a4.423 4.423 0 001.14-6.132 4.403 4.403 0 00-6.133-1.052m-4.756-7.547l-7.484 4.456-1.188-.9 10.762-6.27-3.228 12.064-1.19-.914 2.328-8.435m-10.512 2.616l-5.131-2.879.6-1.076 3.943 2.202 1.489-2.69-3.83-2.14.601-1.09 3.83 2.128 2.002-3.629-3.93-2.19.601-1.089 5.131 2.854-5.306 9.599m-9.762-17.096l1.515.663 1.038 5.57.526.225 1.89-4.23 1.239.563-4.48 10-1.503-.676c-.888-.4-1.827-.851-2.415-1.665-.626-.85-.663-2.015-.238-2.966.639-1.427 2.128-2.203 3.655-1.727l-1.227-5.757zm2.603 7.497l-.4-.188c-1.277-.576-2.753-.964-3.467.638-.7 1.565.676 2.453 1.915 3.004l.338.15 1.614-3.604m-9.373 1.602l-5.432-2.253.476-1.139 4.167 1.715 1.164-2.829-4.042-1.677.463-1.151 4.055 1.664 1.564-3.817-4.167-1.727.475-1.164 5.432 2.253-4.155 10.137m-5.657-14.217l1.264.513-4.193 10.137-1.264-.513 4.193-10.137m-14.818-.5l.175-.401c1.252-2.753 4.13-3.98 6.921-2.703 2.791 1.264 3.942 4.705 2.69 7.471-1.288 2.866-4.667 4.193-7.533 2.879-1.552-.701-2.766-2.09-3.179-3.767l1.24-.438c.262 1.289 1.176 2.503 2.402 3.053 2.228 1.014 4.793-.012 5.807-2.252.951-2.103.125-4.856-2.028-5.845-1.539-.7-3.804-.125-4.592 1.477l2.565 1.176-.5 1.14-3.968-1.79m-6.533 3.303l-1.927-11.789-4.568 6.708-1.126-.776 6.445-9.436 1.915 11.79 4.618-6.759 1.126.776-6.483 9.486m-5.055-19.385l.838 1.089-7.684 5.957 1.59 2.065-.99.763-4.017-5.219.989-.75 1.59 2.064 7.683-5.97m-12.277 1.215l-.575-1.464 3.366-4.23-5.331-.789-.576-1.464 7.059 1.076 4.43-1.752.5 1.277-4.43 1.727-4.443 5.619m.163-49.872l12.365-1.915-6.971-4.88.826-1.165 9.824 6.871-12.365 1.902 7.021 4.931-.813 1.177-9.887-6.921m17.809-7.96l1.089 2.979-1.102 1.089-4.48-12.415 12.315 4.718-1.102 1.064-2.953-1.127-3.767 3.692zM333 161.011l1.802 4.743 2.916-2.879-4.718-1.864m14.543-.876l-1.139.888-6.157-8.147-2.165 1.664-.788-1.05 5.481-4.168.789 1.05-2.166 1.64 6.145 8.123m6.658-4.455l-1.226.738-5.97-9.837 1.227-.751 5.97 9.85m12.238-12.165c1.315 3.141-.174 6.583-3.228 7.884-3.054 1.29-6.545-.05-7.86-3.216-1.276-3.041.2-6.583 3.23-7.86 3.028-1.289 6.582.15 7.859 3.192zm-1.313.563c-.976-2.353-3.542-3.567-6.032-2.516-2.49 1.052-3.404 3.73-2.428 6.07a4.622 4.622 0 006.032 2.528c2.29-.976 3.441-3.68 2.428-6.082m4.906-8.135l10.124 7.384-1.527-8.397 1.415-.25 2.152 11.813-10.124-7.371 1.539 8.46-1.414.275-2.165-11.914m18.221 6.946l-1.376 2.853-1.54-.025 5.757-11.926 5.231 12.164-1.539-.025-1.251-2.94-5.282-.101zm2.779-5.945l-2.153 4.643 4.092.088-1.94-4.706m10.438 8.573l3.454.588-.225 1.302-4.868-.839 1.964-11.388 1.415.238-1.74 10.1m-3.379-49.998l1.677 7.184c.45 1.99 1.49 3.704 3.817 3.153 2.34-.538 2.503-2.515 2.04-4.505l-1.664-7.184 1.501-.362 1.79 7.696c.626 2.703-.55 5.131-3.342 5.795-2.778.65-4.918-1.014-5.544-3.705l-1.777-7.709 1.515-.338m13.316-3.804l11.588 7.02-2.415-8.91 1.502-.4 3.391 12.552-11.589-7.046 2.428 8.998-1.502.426-3.404-12.64m22.039 7.196l-1.477.5-3.842-11.889 1.477-.488 3.842 11.877M448.99 84.82c1.789 3.254.587 7.108-2.554 8.835-3.154 1.765-7.058.726-8.835-2.515-1.727-3.116-.551-7.121 2.553-8.836 3.116-1.752 7.108-.613 8.835 2.516zm-1.352.75c-1.327-2.402-4.23-3.428-6.783-2.002-2.554 1.415-3.242 4.406-1.915 6.82 1.376 2.504 4.43 3.317 6.783 2.003 2.353-1.289 3.291-4.33 1.915-6.82m3.266-9.599l12.765 4.505-4.167-8.222 1.376-.701 5.857 11.576-12.752-4.505 4.205 8.297-1.377.714-5.907-11.664"/><path fill="none" stroke="#000" stroke-width="1.339" d="M375.965 276.098c13.378 6.708 10.362 18.109 10.537 20.186"/><path fill="#785A3C" stroke="#000" stroke-width="1.339" d="M511.89 299.375c5.443 5.47 7.12 14.868 7.27 17.108.2 3.517.726 10.45-4.468 11.189-5.193.738-8.823-.664-10.862-1.965 0-1.502-1.552-3.617-2.378-3.88-1.702-.5-1.978-.876-3.48.013-.375.425-3.98-.25-4.905-1.44-3.33-4.367-3.767-19.448-13.629-27.833-5.932-5.03-7.334-6.895-24.492-14.53-34.403-15.355-55.816-55.603-57.994-58.62-2.79-3.829-7.684-8.822-11.05-9.698-15.694-4.118-15.882-11.389-16.345-15.682 3.905 6.446 19.323 11.59 18.572 8.21-.525-2.378-2.553-6.17-8.91-10.437-5.557-3.755-5.933-9.9-8.16-11-2.228-1.115-5.019-1.878-9.099-.952 7.071-14.93 24.53-5.381 24.53-5.381 4.455 4.467 8.648 9.223 11.326 11.2 2.978 2.166 4.693 5.257 17.646 8.385 17.433 2.791 29.798 5.72 34.44 6.746 1.427-2.678 1.79-22.014-1.176-26.482-2.966-4.48-7.046-7.47-9.273-17.183-2.215-9.686-5.181-18.634-8.898-27.595-3.692-8.948 2.99-16.42 14.88-17.508 31.813-2.991 48.082 17.383 51.073 19.223"/><path fill="#785A3C" d="M511.714 301.002l40.849-32.476-47.945-33.59 7.096 66.066z"/><path fill="#D2B78C" stroke="#000" stroke-width="1.339" d="M551.461 267.926c18.422 20.812 36.056 62.186 36.757 67.63-.188 7.446-4.543 4.205-6.771 2.516-.088 3.454-4.93 3.429-7.346.45-1.114 4.493-6.32 3.091-9.286-.738.938 3.917-5.845 4.192-8.535-.025.725 2.728-4.38 1.577-5.933-.751-.012 1.502.263 3.83-4.092.75-4.818-7.095-35.893-39.91-34.366-38.383"/><path d="M519.761 296.134s10.926 11.564 12.427 13.354c1.502 1.802 4.118 5.92 1.677 7.871-2.803 2.253-8.047-2.628-8.61-3.178-.939-.964-18.222-20.024-18.222-20.024s21.864 25.755 25.981 22.564c4.318-3.341-12.89-20.199-13.253-20.587"/><path fill="none" stroke="#000" stroke-width="1.427" d="M550.322 337.058c0-5.394-13.841-22.977-17.208-26.532m23.166 27.258c-1.29-9.587-13.517-26.782-16.97-31.112m25.492 31.137c-1.026-6.67-11.013-27.183-15.869-33.19m25.168 33.928c-.689-4.543-13.279-30.549-18.798-36.931m26.344 36.468c.488-6.595-7.27-23.04-25.768-49.046"/><path fill="none" stroke="#FFF" stroke-width="1.439" d="M551.574 336.132c0-5.432-13.917-23.103-17.308-26.682m23.29 27.408c-1.289-9.637-13.591-26.932-17.07-31.3m25.655 31.325c-1.026-6.708-11.075-27.333-15.956-33.39m25.305 34.14c-.688-4.567-13.353-30.724-18.91-37.144m26.494 36.669c.488-6.633-7.309-23.165-25.918-49.334"/><path fill="none" stroke="#000" stroke-width="1.427" d="M545.604 274.834c.5.638 15.782 21.676 18.122 25.555 1.865 3.091 2.152 6.47.288 7.61-1.877 1.138-4.493-1.59-6.458-3.655-1.965-2.053-18.41-24.905-19.911-26.77-1.49-1.89 15.055 20.187 17.02 23.19 1.327 2.078 2.215 4.781 1.114 6.108-1.302 1.602-4.668.288-5.807-1.014-1.114-1.326-12.89-15.894-13.078-16.257-.188-.375 10.287 12.478 11.501 14.38 1.302 2.04 1.677 5.356-.938 7.133-1.09.739-3.33-.55-5.945-2.765-5.694-4.794-11.902-13.88-14.805-16.32 3.179 2.841 7.96 9.211 11.038 12.678 3.116 3.517 3.642 6.583 1.577 7.91-2.053 1.313-4.58-.476-6.545-2.629-1.965-2.165-11.59-12.214-12.903-13.741-1.314-1.49 11.276 12.002 12.427 13.353"/><path fill="#D2B78C" d="M397.49 217.79l7.51 12.54 5.556 8.36v-10.312l8.898 1.677-2.503-10.587 10.838 1.389-5.006-7.81 8.898 1.678-5.281-8.924 10 2.516-7.222-8.648 12.227.563-16.394-3.341-10.563-1.677-16.958 22.577z"/><path fill="#BE0A2F" stroke="#000" stroke-width="1.277" d="M373.512 197.967c-.839-1.577.275-.838-1.49-3.266 5.282 2.903 8.46-1.001 13.179 2.353 1.214 1.389 3.441 4.743 2.703 5.769-1.126 1.965-10.5-1.777-14.392-4.856z"/><path fill="#FFF" stroke="#000" stroke-width="1.339" d="M397.015 219.518c-2.791-3.83-7.684-8.81-11.05-9.7-15.695-4.117-15.882-11.388-16.345-15.68 3.904 6.445 19.323 11.588 18.572 8.21-.526-2.378-2.553-6.183-8.91-10.438-5.557-3.755-5.933-9.9-8.16-11-2.228-1.115-5.02-1.878-9.099-.952 7.071-14.93 24.53-5.381 24.53-5.381 4.455 4.468 8.647 9.223 11.325 11.2 2.979 2.166 4.693 5.257 17.646 8.386"/><path fill="#FFB316" d="M386.828 175.628s-1.715 8.373 1.501 13.779c3.217 5.406 4.306 9.311 4.443 12.027.288 5.444-2.628 8.86-5.994 7.984-15.694-4.117-15.519-9.749-16.883-14.943 3.73 7.347 17.971 11.627 19.11 8.76.6-1.5-2.553-6.907-8.91-11.162-5.557-3.755-5.382-7.897-7.434-10.638-2.228-1.852-5.019-2.616-9.462-2.403 8.36-13.128 23.629-3.404 23.629-3.404z"/><path fill="#FFF" stroke="#000" stroke-width="1.339" d="M386.44 174.464c17.646-5.582 24.14 15.494 37.695 15.519-3.167 2.966-9.925 2.953-17.096 1.476-7.246-1.514-20.6-16.995-20.6-16.995h0z"/><path fill="#FFF" stroke="#000" stroke-width="1.026" d="M395.338 191.272c2.778 2.24 10.4-.176 10.4-.176-6.67-3.178-12.052-9.148-12.052-9.148-2.24 5.782.025 7.997 1.652 9.324z"/><path d="M396.915 188.994c1.414 1.164 5.318-.075 5.318-.075-3.404-1.627-6.17-4.68-6.17-4.68-1.814 1.902.013 4.092.852 4.792"/><path fill="#785A3C" stroke="#000" stroke-width="1.339" d="M456.748 278.876c-4.267.7-5.03 21.989 3.68 27.508.375-1.665 2.79-1.565 4.93.926.74.914.714 2.89.264 3.166 1.15 3.192 4.092 4.405 8.26 4.68 5.944.376 12.54-4.842 12.915-11.938-2.228-5.983-6.17-9.524-9.286-12.202-6.57-5.72-15.857-10.1-20.788-12.152l.025.012h0z"/><path fill="#FFB30F" stroke="#000" stroke-width="1.339" d="M466.01 309.387c0 2.616-5.945 4.093-1.865 8.586 4.08 4.455 3.717 4.105 6.307 5.218 2.603 1.127 7.81-.375 7.059 4.118-.751 4.455-6.884 3.166-8.923-.2-.977-1.59-3.717-4.844-7.434-3.918-3.217.814-3.717 1.477-5.207 4.856-1.489 3.342-2.615 5.57-5.581 3.717-2.966-1.877-1.101-3.742.75-5.594 1.853-1.877 2.967-2.603 2.591-4.48-.363-1.853-4.442-2.228-7.409-1.49-2.966.739-5.206-2.603-3.716-4.48 1.489-1.852 5.944-1.477 7.809 0 1.84 1.49 6.295 3.366 8.16 2.616 1.852-.726 1.489-9.324 1.864-11.927.4-2.64 5.594-.213 5.594 2.978h0zm37.507 15.056c1.59 4.242-5.119 9.298-1.04 13.779 4.08 4.493 8.336 2.94 11.14 2.615 1.676-.162 7.809-.35 7.058 4.118-.589 3.542-7.209 2.177-13.003-.013-1.74-.65-5.757-2.215-8.723-.763-2.979 1.49-3.442 2.903-4.093 7.096-.563 3.63-3.441 5.394-6.407 3.517-2.966-1.865-1.865-3.717 0-5.595 1.864-1.84 2.515-5.03 2.14-6.895-.376-1.865-4.456-2.228-7.434-1.49-2.966.714-5.194-2.603-3.705-4.48 1.49-1.852 5.945-1.49 7.797 0 1.865 1.49 6.32 3.367 8.185 2.616 1.84-.739 2.14-14.505 2.503-17.12 1.59-1.052 4.48-.389 5.582 2.59v.025h0z"/><path d="M469.05 290.377c2.441.939 7.497 6.195 8.61 10.7m-9.548-2.79c1.877 1.476 3.917 4.68 4.856 7.496m-13.266-10.525c.375 1.69 0 3.204 2.428 5.62m33.39 11.964c.175 3.942 5.894 4.893 6.257 6.858m-10.462-18.31c2.515.088 6.357 1.114 7.571 5.444-1.877-3.554-6.633-5.28-7.571-5.444m22.264 22.102c-3.13-10.826-8.66-12.403-8.26-10.763 3.104 2.903 3.179 2.378 4.393 4.167 2.553 3.742 3.316 7.522 3.867 6.596m1.751-1.527c-.537-4.105-2.515-3.504-2.377-2.265.475.525 1.076 1.164 1.364 1.764.225.526.55 1.114 1.014.5m5.356 21.514c3.079-.2 4.368 3.041 3.805 4.93-1.39-3.065-3.717-2.527-4.456-2.052-.012-.012 1.214-1.601.651-2.878m-41.424-6.745c-3.029-.476-4.643 2.628-4.268 4.542 1.677-2.94 3.955-2.152 4.63-1.601 0 0-1.038-1.703-.362-2.941m-1.653-9.925c3.017.55 3.517 4.005 2.541 5.694-.625-3.303-3.016-3.328-3.854-3.04.012 0 1.564-1.277 1.314-2.654m-35.33-10.312c-3.078-.025-4.205 3.304-3.554 5.131 1.226-3.141 3.58-2.728 4.355-2.29 0 .012-1.301-1.49-.8-2.841m6.995 14.329c-1.126 1.965-.851 4.268-.613 5.294 2.077-3.366 2.766-3.466 3.592-3.704 0 0-2.065-.3-2.979-1.59m38.921 23.04c-1.126 1.965-.85 4.268-.625 5.294 2.077-3.366 2.765-3.466 3.591-3.704.013 0-2.052-.3-2.966-1.59m-1.076-63.3c-.375 1.777 2.428 1.877 2.616 4.13m-16.27-6.858c8.76 3.692 10.15-3.993 8.323-5.156l-.288-.188c2.903 1.139 2.515 12.79-8.035 5.344M420.055 214.8c-3.655 1.564-5.92-3.317-4.568-6.358-4.831 3.592 1.602 10.187 5.544 8.122 4.793-2.528 2.64-10.087-2.866-7.571 3.63-.175 5.306 4.33 1.89 5.807"/><path d="M414.348 221.307c-2.566 2.14-4.818-.588-4.868-3.166-2.003 3.504 3.04 6.833 5.932 4.53 3.341-2.703 1.151-9.849-5.056-6.682 5.243-.088 6.082 3.566 3.992 5.318m-8.235 7.472c-3.341.2-4.355-1.94-3.066-4.33-2.69 2.09-.613 6.207 3.116 6.057 4.53-.175 5.607-4.994 1.915-7.346 2.102 3.304 1.502 5.419-1.965 5.619m26.795-15.119c-1.828-.425-3.092-2.49-1.94-4.454-3.73 3.153.175 5.831 1.764 6.207 4.005.876 7.059-4.017 2.303-7.271 2.165 3.091 1.139 6.32-2.127 5.519m-18.472 23.59c-.801 2.629-4.118 1.064-4.769-1.176-.738 4.13 4.994 4.555 5.957 1.627 1.164-3.554-1.802-5.682-4.58-3.467 2.49-.625 4.243.288 3.392 3.016m9.098 6.17c-.326 3.33-5.194 2.316-6.72-.162.212 5.106 7.996 4.08 8.434.388.539-4.53-5.97-8.06-8.272-1.177 3.805-3.88 6.908-2.54 6.558.951"/><path d="M429.153 236.088c-.325 3.366-5.194 2.315-6.72-.163.2 5.106 7.984 4.105 8.422.413.538-4.556-5.97-8.06-8.272-1.189 3.817-3.88 6.92-2.528 6.57.939m14.129-19.273c-3.053-1.365-.538-5.682 2.278-6.358-4.88-1.402-6.408 6.32-3.041 7.884 4.13 1.953 9.499-3.103 3.742-7.509 2.465 4.856.2 7.41-2.979 5.983m10.125-7.497c-.325 3.367-4.017 2.253-4.83.688 1.2 3.98 6.119 3.254 6.557-.438.538-4.517-5.957-8.06-8.272-1.188 3.792-3.868 6.895-2.516 6.545.938m-37.87-11.313c1.314.663 1.777 4.33.838 5.281-.938.926-2.903 2.34-2.89.914 1.3-1.014 1.401-1.302 2.052-2.353.65-1.026.375-2.516 0-3.842m-4.793 12.577c1.276-1.014 1.401-3.892-.176-5.744-1.589-1.827-4.267-1.952-5.556-.926-1.277 1.026-1.026 3.329.563 5.18 1.577 1.853 3.892 2.516 5.169 1.49"/><path fill="#D2B78C" d="M409.48 209.468c.913-.713 1.151-2.953.025-4.242-1.114-1.29-3.142-1.19-4.055-.45-.926.738-.764 2.365.35 3.691 1.114 1.29 2.766 1.74 3.68 1.001"/><path d="M404.874 213.61c-1.727 1.59-3.804-.75-4.768-2.577.388 3.441 3.379 5.281 5.507 3.817 2.615-1.777 2.115-5.219-1.59-7.271 2.678 2.903 2.816 4.255.851 6.032"/><path d="M401.382 219.405c1.277-1.001 1.59-3.341.013-5.193-1.59-1.828-4.468-2.516-5.744-1.49-1.277 1.026-1.027 3.354.55 5.206 1.577 1.828 3.905 2.49 5.181 1.477"/><path fill="#D2B78C" d="M400.131 218.279c.914-.713 1.314-2.365.213-3.655-1.127-1.301-3.317-1.777-4.255-1.013-.926.738-.764 2.365.35 3.692 1.114 1.289 2.753 1.74 3.692.976"/><path d="M423.884 206.29c-2.077-.964-2.015-4.08.876-4.243-4.355-1.59-4.956 3.417-1.902 5.632 3.692 2.665 10.738-.376 5.995-4.706 2.215 4.33-1.802 4.743-4.969 3.317m4.793 7.759c-.763-.063-1.489.112-2.077.588-1.277.989-1.026 3.316.563 5.169 1.577 1.852 3.905 2.528 5.181 1.501 1.277-1.026 1.59-3.329 0-5.18-1-1.177-2.39-1.966-3.667-2.078zm-.175 1.114c.976.062 2.103.538 2.804 1.339 1.113 1.289.713 2.94-.213 3.692-.914.713-2.578.275-3.692-1.027-1.126-1.289-1.277-2.953-.363-3.666.35-.263.876-.376 1.464-.338zm-4.142 4.505c-.864.038-1.652.3-2.203.738-2.215 1.765.038 5.294.651 6.008 1.84 2.115 4.518 2.903 5.995 1.727 1.476-1.164 1.627-4.53-.213-6.633a5.202 5.202 0 00-4.23-1.84zm.588 1.114c.876.05 1.79.4 2.428 1.139 1.289 1.501 1.79 4.355.713 5.206-1.063.85-3.73.025-5.018-1.477-1.29-1.49-1.464-3.404-.4-4.255.537-.425 1.388-.663 2.277-.613zm12.802-19.924c-1.726.138-3.353.989-4.004 1.965-1.039 1.602.063 4.067 2.478 5.532 2.89 1.727 5.231 1.276 6.245-.276 1.039-1.564.7-5.156-1.715-6.608-.9-.538-1.964-.7-3.003-.613zm.576 1.039c.514.012 1.002.125 1.427.388 1.702 1.039 2.49 3.967 1.74 5.08-.751 1.14-3.53 1.202-5.231.201-1.69-1.051-2.466-2.803-1.715-3.93.563-.876 2.253-1.777 3.78-1.74zm31.313 68.369c3.642-.939 6.458 1.602 5.894 4.893-.563 3.304-5.619 4.03-7.496 1.89 2.903.55 4.593.563 5.794-1.69 1.227-2.252-1-4.242-4.192-5.093m1.251-12.277c1.152 1.063 2.215 3.554-.313 4.117-2.327.526-4.417-1.39-3.166-3.804.526 1.389.626 3.09 2.528 2.865 1.677-.212.951-3.178.951-3.178"/><path d="M460.54 261.956c-.65-.738 3.767-3.554 6.546-.851 2.79 2.703.538 6.896-2.265 6.595 1.076-.95 3.116-2.49 1.727-4.88-1.427-2.441-4.518-1.49-6.008-.864"/><path d="M458.413 266.461c3.016-1.276 10.024 3.367 4.856 7.947-5.169 4.556-9.824-1.84-9.812-4.392 2.027 2.452 6.207 5.569 8.598 3.166 2.24-2.228.826-4.668-3.642-6.72m11.464-41.087c1.426-.45 4.305.4 4.017 2.928-.275 2.528-2.153 4.018-4.393 3.367-2.253-.638 2.904.375 2.816-3.28-.113-3.666-3.004-2.827-2.44-3.015m-4.794 10.187c.651-2.115 6.57-4.943 8.736.063 2.14 4.993-1.627 7.22-5.957 4.405 3.391 1.151 6.595-.263 4.88-3.442-2.127-3.867-5.494-2.177-7.646-.989m-10.888-4.079c-1.202.05-2.428.625-3.229 2.565-1.602 3.867 3.58 6.007 5.181 6.408 1.59.4 4.881.676 6.358-1.865 2.115-3.667-3.554-6.22-5.294-6.57-.65-.125-1.815-.588-3.016-.538zm1.264 1.827c.588.037 1.089.163 1.39.213 2.965.488 5.293 2.427 3.841 4.13-1.464 1.752-4.092 1.626-4.893 1.339-.801-.25-4.656-2.278-3.317-4.293.814-1.239 2.003-1.452 2.979-1.39zm4.305 18.347c-.813.025-1.64.413-2.19 1.727-1.076 2.603 2.428 4.067 3.504 4.342 1.076.276 3.317.438 4.305-1.251 1.44-2.49-2.403-4.193-3.579-4.43-.45-.088-1.226-.413-2.04-.388zm.45 1.239c.564-.05 1.09.087 1.352.125 2.003.338 3.58 1.627 2.59 2.803-.988 1.164-2.765 1.089-3.316.901-.538-.188-3.153-1.54-2.252-2.89.45-.677 1.063-.89 1.627-.94zm-7.797 3.153c.702-.988 5.057-.488 6.083 2.353.914 2.466-.838 6.383-4.968 6.583 2.99-1.69 3.842-4.33 3.291-5.744-.8-1.99-2.34-2.729-4.405-3.192m-8.886 6.295c2.791-1.189 10.663 4.318 5.895 8.536-4.781 4.23-9.074-1.69-9.074-4.055 1.765 3.416 5.832 5.218 7.947 2.928 2.616-2.828.013-5.832-4.768-7.409m19.261-18.634c-1.202.05-2.428.625-3.23 2.565-1.601 3.867 3.58 6.007 5.182 6.408 1.602.388 4.893.676 6.358-1.865 2.115-3.667-3.542-6.207-5.294-6.57-.651-.125-1.815-.588-3.016-.538zm1.276 1.814c.588.038 1.089.15 1.39.2 2.965.501 5.293 2.403 3.829 4.13-1.464 1.753-4.092 1.602-4.906 1.34-.788-.25-4.643-2.278-3.316-4.293.826-1.226 2.027-1.427 3.003-1.377zm-4.818-19.448c-.588.038-1.201.426-1.602 1.74-.8 2.678 1.777 4.117 2.553 4.405.789.275 2.44.463 3.166-1.289 1.04-2.503-1.764-4.255-2.628-4.48-.313-.088-.888-.413-1.49-.376zm.688 1.44c.3-.038.526.062.726.112 1.477.363 2.54 1.464 1.802 2.653-.726 1.214-2.027 1.102-2.428.951-.388-.187-2.302-1.814-1.264-2.953.488-.526.864-.714 1.164-.764zm3.078-2.091c-.037-.763-1.113-5.093 3.367-4.605 4.506.475-3.454-2.078-4.492.288-1.014 2.328 1.226 5.807 1.126 4.317m2.903-7.784c.764-1.164 2.44-3.892 7.021-1.514 2.528 1.339-.175-2.703-3.266-2.628-4.13.137-5.156 6.295-3.755 4.142m-11.05 23.466c1.464-.626 5.894 3.78 3.078 6.77-2.803 3.004-8.873-.55-8.122-6.107.839 4.718 4.981 6.82 6.633 4.718 1.665-2.178-.087-4.155-1.59-5.381"/><path d="M451.505 254.56c2.715-.25 3.178-4.656 1.026-6.17-2.14-1.515-5.982-1.314-6.358 2.503 1.49-2.228 3.88-2.653 5.332-1.302 1.301 1.24 1.764 3.204-.025 4.969m-10.638 5.932c2.59 2.065 6.733-1.352 6.132-4.506-.6-3.141-4.092-6.232-7.671-3.216 3.203-.7 5.631.989 5.744 3.391.113 2.178-1.151 4.306-4.205 4.33m-9.148.626c3.804.326 5.006-4.455 2.916-7.296-2.003-2.716-7.985-2.828-8.123 2.115 1.915-4.393 5.282-2.99 6.871-.913 1.452 1.902 1.777 4.805-1.664 6.094"/><path d="M429.34 245.461c1.765-.838 7.197.576 5.983 4.78-1.214 4.231-5.144.376-5.62-1.889.94 1.152 4.018 3.767 4.406 1.402.526-3.242-2.153-4.017-4.768-4.293m8.385-1.751c1.864-.877 7.559.6 6.282 5.043-1.289 4.455-5.419.4-5.907-1.965.989 1.176 4.23 3.955 4.618 1.477.55-3.417-2.252-4.255-4.993-4.556m10.187-4.405c-.388 3.892-3.992 3.141-6.045 1.702 2.59 4.155 7.51 2.89 8.035-1.414.626-5.244-5.106-8.898-9.574-3.23 5.857-2.615 7.984-1.063 7.584 2.942"/><path d="M448.551 229.43c.801 2.615-.1 4.155-3.517 3.316 3.304 3.33 7.009-.05 5.37-4.042-1.99-4.906-7.472-3.73-8.085.2 1.376-2.603 5.369-2.278 6.232.526m2.553-6.183c.989 1.452.651 2.979-.638 3.942 1.076.99 4.493-1.464 2.228-5.13-2.216-3.655-6.67-2.14-6.633.225 2.24-1.29 3.404-1.44 5.043.963m7.784-3.692c-.45 1.69-1.752 2.24-3.93 1.953.777 1.264 4.556 2.578 5.895-1.54 1.314-4.067-4.467-7.17-7.546-4.042 3.73-.638 6.357.788 5.581 3.63"/><path d="M459.264 210.42c.388-1.728 1.664-2.328 3.842-2.116-.813-1.251-4.656-2.39-5.794 1.765-1.14 4.143 4.768 7.008 7.696 3.73-3.692.788-6.37-.526-5.744-3.38m-23.954 24.793c-.588.037-1.201.425-1.602 1.752-.788 2.665 1.778 4.105 2.579 4.392.788.3 2.427.463 3.153-1.264 1.064-2.528-1.764-4.267-2.628-4.505-.325-.1-.913-.413-1.502-.375zm.689 1.439c.3-.038.538.075.726.137 1.464.338 2.528 1.44 1.802 2.641-.714 1.189-2.028 1.089-2.428.901-.388-.163-2.29-1.777-1.264-2.916.488-.538.85-.726 1.164-.763zm-2.053-9.637c-.688.038-1.389.488-1.852 2.015-.926 3.091 2.065 4.768 2.979 5.094.926.325 2.815.55 3.654-1.49 1.226-2.916-2.04-4.93-3.029-5.18-.4-.1-1.076-.476-1.752-.439zm.789 1.69c.35-.05.613.075.838.137 1.702.4 2.929 1.69 2.09 3.08-.85 1.363-2.353 1.263-2.816 1.05-.463-.225-2.653-2.102-1.464-3.404.563-.6 1.001-.813 1.352-.863zm5.957-3.642c-2.854 2.353-4.969-.263-5.044-1.577-.863 3.454 3.18 5.281 6.095 2.941 3.567-2.84 2.415-8.41-3.166-7.334 4.067.901 4.78 3.742 2.115 5.97m-19.536 4.443c-.288 3.053-2.74 3.053-4.868 2.69 2.778 2.804 5.97.914 6.332-2.465.463-4.167-4.392-5.995-6.282-2.415 2.728-1.602 5.118-.964 4.818 2.19m20.474-93.8c-.876 2.178-2.415 3.042-5.393 2.328 2.653 1.978 5.844.488 6.194-2.152.363-1.677-1.476-4.956-5.706-3.817 3.817.137 5.056 2.89 4.905 3.641m14.343-15.08c-1.39 3.091-7.434 3.366-11.602 2.378 4.043 3.028 11.952 2.903 13.253-1.715.551-2.553-.688-7.108-7.133-5.344 5.431.2 5.82 2.941 5.482 4.681"/><path d="M443.357 125.268c-1.264 2.74-3.416 3.417-7.571 2.415 4.042 3.029 8.147.952 8.823-2.165.55-2.528-.688-7.083-7.134-5.319 5.432.163 6.233 3.317 5.882 5.069m8.461 18.334c-.451-3.917-6.646-4.743-11.101-3.904 4.968-2.603 12.252-.55 12.377 3.954.138 4.53-3.817 7.872-9.686 4.706 5.306 1.039 8.86-.813 8.41-4.756m15.656-20.349c-.238 2.265-3.742 2.253-5.62 1.815 2.541 1.877 5.945.85 6.408-1.665.45-2.503-1.414-4.73-5.431-3.629 3.617.138 4.906 1.201 4.643 3.48m8.96 2.827c-.312 2.916-4.868 2.44-7.246 1.89.563.426-.65.563.038.826 3.316 1.24 7.659.638 8.185-2.503.538-3.204-1.79-6.007-6.909-4.63 4.606.175 6.245 1.514 5.932 4.417"/><path d="M470.127 131.788c-.313 2.891-4.255 5.206-9.724 4.48 6.708 2.203 10.137-1.076 10.713-4.267.588-3.191-3.23-6.408-8.348-5.043 4.593.15 7.672 1.927 7.359 4.83m2.403 3.592c5.018.075 7.96 2.365 5.794 4.73-2.165 2.354-6.683 1.565-7.471 1.477 1.189 1.077 1.076 2.666-.5 4.43-1.04 1.152-2.754 1.177-4.719.501 1.176 1.277 2.078 2.54.976 4.718-1.477 2.979-7.271 1.79-8.047.902.2 1.664-.513 2.916-1.477 3.641-1.464 1.09-4.33 1.49-5.206.476 2.941-.263 4.243-.826 5.306-2.954.589-1.151-.588-2.352-2.365-3.83 2.666 1.59 8.36 3.755 10.513.89.888-1.152.688-3.743-5.207-6.108 2.854.989 7.835 2.115 9.437.513 1.577-1.59.1-4.167-4.706-5.431 3.83.888 11.088 2.766 12.177.288.901-2.028-.375-3.167-4.505-4.243m-18.86-1.714c-1.252 2.728-7.56 3.116-11.702 1.289 4.243 3.666 12.265 2.102 12.953-1.052.55-2.528-.688-7.083-7.133-5.319 5.431.163 6.22 3.354 5.882 5.082m.65 35.329c-.262 3.33-4.905 3.267-7.646 2.64 3.704 2.78 9.073 1.29 9.361-2.427.388-4.981-5.794-7.784-11.689-6.157 5.294.162 10.35 1.339 9.975 5.944"/><path d="M460.253 179.795c-.276 3.342-4.906 3.33-7.672 2.666 3.704 2.778 9.086 1.314 9.374-2.415.388-4.981-5.795-7.797-11.702-6.195 5.307.175 10.363 1.352 10 5.944m5.156 10.363c-.263 3.003-4.218 3.079-6.708 2.503 3.341 2.49 7.734 1.101 8.46-2.178.888-4.055-2.528-6.432-7.784-4.505 5.03-.2 6.32.75 6.032 4.18m-.238 10.537c-.325 3.342-4.906 3.317-7.647 2.641 3.705 2.766 8.911 1.314 9.362-2.428.538-4.518-3.304-7.284-9.211-5.694 5.306.188 7.846 2.015 7.496 5.481"/><path d="M474.42 185.715c-3.43 2.428-7.397.713-8.348-2.127-.901-2.679 3.291-2.992 6.42-3.567-.626-.15.163-.513-.425-.601-4.18-.738-8.423 1.014-7.735 4.58.789 4.08 6.809 6.258 10.85 2.416-.562.275-.3-1.014-.762-.701m-3.38-11.476c-4.305 3.467-8.397.388-9.135-2.128-.701-2.352 3.153-3.93 5.97-3.767-.426-.087-.05-.513-.464-.55-3.68-.3-7.834 1.514-7.221 4.643.826 4.28 6.946 6.482 11.188 2.428-.312.137-.1-.826-.338-.626m-5.619-12.515c1.177 4.155-1.59 4.768-4.455 4.443-3.091-.338-4.08-1.815-2.628-3.317-.013-1.314-.426-.676-.663-.475-2.929 2.565.888 4.768 3.341 5.03 3.817.414 6.558-1.451 4.93-5.731.013.263-.6-.163-.525.05m-14.367-3.454c-.275 3.341-4.18 2.428-7.258 2.253 3.479 2.465 8.685 1.576 8.973-2.128.388-5.006-5.32-7.108-11.226-5.482 5.306.163 9.862.751 9.511 5.357m36.231-22.152c-.063.426-2.403 1.177-2.403 1.177-1.977.438-3.642.037-4.493-.138.914.676 2.115 1.001 3.304 1.026l4.468-2.503c.45-2.49-2.79-4.918-6.82-3.817 3.629.126 6.394 1.314 5.944 4.255m-9.299 71.135c-.275 2.766-4.067 2.728-6.332 2.19 3.066 2.29 7.384 1.077 7.746-1.99.438-3.754-2.728-6.057-7.609-4.705 4.38.125 6.47 1.64 6.195 4.505"/><path fill="none" stroke="#000" stroke-width="1.352" d="M436.574 197.892c21.063 3.892 31.35 8.598 40.686 14.905"/><path fill="#785A3C" stroke="#000" stroke-width="1.339" d="M474.82 217.04c7.07-9.474 4.293-22.19 3.379-26.281-.926-4.105-3.43-9.6-5.557-12.878-6.432-9.85-8.898-18.084-6.47-26.307 2.416-8.197 19.686-13.779 26.394-17.52 6.696-3.73 8.548-7.26 19.423-12.49 16.32-7.822 29.26-4.268 54.903-.526 25.63 3.754 70.572 24.68 81.698 31.788 11.138 7.096 3.992 11.188.375 10.437 6.796 2.578 10.237 8.26 10.087 11.977-.175 4.005-3.241 4.618-15.306.325 7.021 4.593 5.232 9.362-1.877 8.36-8.61-.425-23.853-5.781-27.846-8.36 3.492 4.343 3.617 7.197 1.314 9.424-5.469 2.553-11.175-.363-21-2.716 5.282 12.966-9.949 10.138-15.243 7.071 1.477 10.162-8.084 9.787-14.117 7.071 4.819 3.817 17.81 22.777 20.412 27.245 2.178 4.38 5.307 15.87-8.322 2.14-4.418-4.43-.576.338-8.598-9.699 7.784 9.662 4.455 4.844 9.174 10.813 10.099 12.803 10.625 15.481 8.084 18.022-3.88.563-8.535-3.955-27.207-25.606 23.615 29.272 11.35 26.632 9.31 25.706-2.19-.976-11.338-8.736-17.633-15.18l-1.239-1.19c1.502 1.965-1.314-.475 0 1.202 1.64 2.127 2.741 5.619.288 8.084-1.389 1.39-4.255 1.039-5.431-.087-3.83-3.692-13.842-9.962-16.445-12.14 4.856 4.018 13.466 9.399 16.445 12.14 4.267 3.88 6.745 8.335 4.292 11.538-1.214 1.577-5.23 1.427-7.947-.95-.688-.589-10.925-7.898-14.392-10.6 6.082 4.517 15.97 11.588 18.873 14.078 3.83 3.28 9.786 11.852 7.847 14.743-.3.463-.701.788-1.14 1.014-2.665 1.364-7.408-1.001-8.772-2.14-1.59-1.314-14.593-11.064-19.073-14.38 2.428 1.89 17.02 12.89 18.697 14.117 2.804 2.015 4.856 10.437 2.14 12.09-2.703 1.689-4.48.85-6.833-.276-2.328-1.139-10.838-8.448-15.981-12.49 4.205 3.392 13.453 10.438 15.418 12.402 1.051 1.052 6.82 9.111 3.354 11.727-2.14 1.627-7.096 1.126-10.663-1.214-1.752-1.164-5.143-3.93-7.484-5.169"/><path d="M471.854 167.856c-1.552-3.341-1.214-9.348-.413-12.052 2.428-8.222 18.772-13.416 25.468-17.158 6.708-3.729 8.56-7.283 19.435-12.502 16.32-7.81 29.448-5.194 55.079-1.452 14.029 2.078 34.09 8.823 50.798 16.533-17.371-7.059-34.955-13.73-51.136-15.82-17.922-2.302-35.793-7.483-54.315 1.415-11.301 5.456-14.442 9.724-19.498 12.552-5.044 2.791-22.727 10.3-24.43 16.708-1.689 6.382-.162 6.946.188 8.81.438 2.528.075 3.642-1.176 2.966"/><path d="M502.215 256.562c3.367 2.74 10.838 5.932 12.34 3.116 1.502-2.79.85-4.88-4.193-8.272 4.018 2.64 12.628-.926 4.118-8.81 10.187 4.805 11.413-6.283 5.994-9.862 5.782 2.265 9.724-5.056 2.991-9.762 4.406 1.026 9.637-2.328 3.28-8.36 11.5 7.634 19.548 5.181 16.281-2.891 12.828.663 4.418-9.874-6.057-15.581 12.628 4.605 18.435-5.081 9.837-7.91 10.1.288 12.915-7.483 2.44-10.3 7.209.364 17.308-6.682 3.842-10.8 28.997 11.752 40.599 3.855 26.87-4.793 4.092.751 11.876-10.124-3.079-11.451 8.035 2.165 23.566-7.384 3.554-12.114 0 0-18.597-4.606-26.193-5.745.663.839 22.539 5.657 26.18 6.783 3.655 1.14 8.236 3.755 7.022 6.583-1.214 2.804-5.72 4.418-11.877 3.267-6.17-1.114-20.124-3.868-21.338-4.055 2.253.65 19.736 5.456 21.513 5.92 1.777.487 9.111 2.552 8.235 5.856-1.039 3.83-4.868 3.655-7.584 3.467-2.716-.188-20.212-4.53-22.452-4.893-2.24-.376 23.478 6.382 24.605 7.133 1.126.763 5.807 3.692 5.23 6.02-.562 2.353-9.636 2.628-14.491 1.414-4.869-1.214-38.71-10.175-39.472-9.987 2.903.939 20.211 6.308 22.351 7.359 2.153 1.026 7.009 2.428 6.183 4.868-.851 2.466-7.497 4.493-10.113 4.03-2.615-.45-27.683-6.12-31.525-6.858 3.655 1.214 30.036 7.696 31.813 8.635 1.777.951 6.633 3.316 5.607 5.256-1.039 1.978-3.842 3.58-8.235 2.729-4.405-.851-27.32-7.622-29.648-8.198 4.018 1.702 27.77 9.512 29.273 10.638 1.502 1.164 4.956 2.64 3.179 4.718-1.778 2.04-8.323 1.752-11.139 1.101-2.803-.638-23.09-6.958-25.342-7.621-2.253-.663 21.475 8.685 23.553 9.786 4.492 2.366 14.029 10.45 11.789 12.115-3.092 2.315-6.633.563-7.297.275-.663-.263-26.731-11.651-27.958-12.402 3.28 1.427 27.683 13.453 28.985 14.968 1.301 1.464.826 4.593-.851 5.444-1.69.826-5.82-.075-10.763-2.64-5.42-2.83-19.724-7.81-23.666-7.81 3.655.85 16.845 6.107 19.649 8.372 2.327 1.865 3.454 4.418 2.227 5.444-1.214 1.027-4.105 1.277-5.982.45-1.865-.85-10.663-5.255-16.732-6.957 4.305 2.052 14.417 7.47 16.457 8.923 2.615 1.902 4.568 5.006 3.642 6.683-.939 1.69-3.93 1.952-5.995 1.113-2.052-.85-21.6-9.598-23.653-10.424-2.065-.864 21.313 10.525 23.19 12.302 1.852 1.79 4.393 6.007 3.066 7.809-1.301 1.79-4.868 1.852-7.847.275-3.516-1.877-17.02-10.162-18.885-11.676 2.616 1.99 17.584 12.778 18.885 14.667 1.29 1.89 3.342 4.806 1.953 6.008-1.415 1.239-5.782.362-6.834-.489-1.013-.813-17.283-11.826-18.972-12.84 3.842 3.442 17.583 14.818 19.173 16.132 1.589 1.314 5.331 4.993 3.641 6.207-1.689 1.24-8.134-2.315-9.448-2.903-1.302-.563-4.005-1.29-4.568-1.69-.563-.363 4.568 3.68 2.69 5.169-1.802 1.477-1.864.851-3.917 1.151 2.053 1.49 7.672 6.37 4.48 8.823-3.166 2.416-9.623-2.077-10.086-3.016-.463-.938 2.803 3.755.738 5.344-2.065 1.602-5.419-.55-5.895-1.026-.463-.463 3.18 2.265 1.027 4.518-2.153 2.252-3.642-.463-4.218-1.026-.263.65-.1 2.715-2.065 2.715-1.401-.025-2.215-1.414-2.978-2.252.087.65.988 4.38 3.366 3.767 1.39-.363 2.153-1.314 2.14-2.078.839.939 3.554 1.69 4.58.663 1.027-1.038 1.115-3.003.651-3.767 1.402.864 3.092.676 4.393-.075 1.314-.763 1.227-3.016.751-3.679 1.314 1.402 6.746 3.754 9.274.288 2.528-3.454-1.777-7.309-2.891-8.16 1.026.275 4.668-1.94 1.214-5.056"/><path d="M550.598 122.114c11.977.764 16.282 3.755 15.243 8.46-.726 3.292-4.868 3.38-7.109 3.004 3.354 2.052 2.879 4.505 2.604 6.958-.376 3.38-3.655 4.981-7.109 5.044 2.153.663 5.807 2.84 5.231 6.032-.7 4.005-3.554 4.518-5.056 4.493 1.978.75 5.144 2.165 4.03 6.495-1.126 4.318-4.693 4.405-11.238 2.816 5.894 1.69 10.1-1.214 10.112-3.304 0-2.065-1.302-4.693-3.917-5.069-2.629-.363-25.356-6.57-26.857-6.57 4.017.375 23.94 4.343 25.455 4.505 1.49.213 5.394-.75 5.707-2.628.563-3.366-2.428-5.243-4.856-5.82-2.428-.562-20.112-4.717-22.552-5.268 3.93.488 18.885 2.866 20.4 2.916 3.554.213 8.797-.838 8.973-3.73.112-1.739-.739-5.18-2.804-6.12-2.052-.938-14.392-3.754-20.574-3.39 7.96-.376 16.544 1.126 20.487 1.526 3.93.388 7.32-.738 7.584-2.428.475-3.204-2.804-6.77-13.73-7.91"/><path d="M619.167 138.296c21.325 9.574 37.858 17.22 35.242 22.464-1.402 2.804-4.155 2.29-5.457 2.49 7.885 2.491 11.339 10.676 9.474 14.043-1.777 3.216-13.466-1.427-14.692-1.753 2.703 1.377 7.096 5.595 2.615 8.048-4.492 2.44-28.346-5.094-32.338-8.048 1.852 1.64 3.905 5.394 2.228 8.398-2.929 5.194-19.098-1.139-21.914-1.677 1.239 2.991 1.69 7.209-1.026 8.623-4.493 2.315-10.75-.025-14.117-1.327.375 2.14.012 6.896-3.842 7.972-2.991.864-8.585.25-11.501-1.965-5.882-3.391-19.449-7.521-23.078-9.674 3.542 1.114 21.763 7.622 23.466 8.16 4.48 1.527 9.761 2.203 11.5 1.051 1.678-1.114 2.529-5.894-.462-7.046-2.979-1.101-28.134-10.525-30.587-11.276-2.415-.763 31.338 9.512 33.953 10.463 2.628.926 11.514 3.73 13.291 1.79 2.052-2.253 1.314-7.51-1.677-8.648-2.991-1.14-35.805-12.327-39.372-13.642 4.668 1.315 42.613 13.079 45.066 13.742 1.415.375 15.256 4.518 17.308 2.828 2.053-1.69 1.315-5.894-2.427-8.16-3.742-2.265-29.085-11.951-33.94-13.453 11.876 3.742 33.314 10.75 38.057 12.527 3.554 1.29 22.715 8.06 26.469 7.897 6.27-.288 5.632-3.566-.463-6.77-3.93-2.065-51.511-20.137-64.051-24.467 10.2 3.016 58.832 19.56 65.653 22.014 5.757 2.077 13.166 4.718 14.03 2.39 2.164-5.932-7.56-10.813-11.302-12.34-3.742-1.476-28.058-11.663-66.216-24.078 21.137 3.579 65.09 22.289 68.093 22.764 2.04.326 7.109.526 6.083-3.09-.601-2.003-3.58-5.282-34.066-20.25"/><path d="M562.237 194.238c3.554.663 21.663 26.494 23.127 29.397 1.452 2.929 3.129 7.259 1.252 8.398-1.865 1.126-7.296-1.89-10.85-5.832 1.326.926 2.164 2.64 6.082 4.806 1.551.826 8.948 12.164 4.605 14.654-4.343 2.528-11.176-5.756-13.028-7.997-1.865-2.265-7.008-8.735-7.934-9.674-.94-.926 12.139 15.607 6.908 17.934-4.506 2.015-10.85-4.117-12.528-5.419-1.677-1.326-22.339-21.826-20.186-22.013.938-.739 18.972 18.71 21.588 20.774 2.628 2.065 6.82 6.295 9.824 5.357 3.004-.926-1.952-8.723-2.803-9.95-.839-1.226-14.855-21.638-16.62-23.59 3.917 4.618 20.474 21.7 22.615 24.254 2.152 2.528 8.31 10.725 10.938 8.635 2.603-2.052-4.493-12.865-6.258-14.83-5.043-3.78-20.737-24.642-25.042-30.349 8.222 8.535 22.79 25.268 24.191 26.882 1.402 1.577 6.07 5.82 7.384 4.981 1.314-.863-1.314-6.946-2.315-8.272-.839-1.14-16.445-22.264-20.925-28.084m-46.005-54.264c2.89 1.038 10.625 2.64 9.148 7.871-1.026 3.655-6.545 2.153-8.047 2.353 1.59 1.127 2.053 3.18.65 5.457-1.5 2.44-6.269 2.803-8.797 1.852 2.428 1.427 3.817 3.241 2.616 5.644-1.114 2.24-3.655 2.078-5.52 2.065 1.978 1.014 4.881 2.804 3.267 6.283-1.126 2.44-2.053 1.79-3.742 2.165 1.777.388 4.03 1.602 3.742 4.68-.213 2.366-1.314 3.392-3.554 3.955 1.126.55 2.615 2.828 2.14 5.544-.438 2.54-2.704 4.218-4.58 4.405.938.764 2.377 1.064 1.689 4.518-.476 2.353-2.065 3.016-3.93 3.204 1.214.65 3.041 2.165 2.428 5.62-.476 2.627-3.554 3.366-5.056 3.203-1.49-.213-7.096-1.139-8.61-1.702 2.54-.263 6.933.188 8.81.188 1.865.012 3.104-.376 3.354-1.865.388-2.052-.738-3.754-1.865-4.305-1.113-.563-4.104-1.89-6.357-2.453 2.716-.088 4.968.663 6.357.4 1.402-.3 3.367-.85 3.555-2.665.2-1.765.112-2.315-1.59-3.066-1.677-.739-4.192-1.427-7.571-2.165 2.803.187 5.794 0 7.484.012 1.69-.025 3.942-1.99 4.13-3.304.175-1.326.287-3.567-2.153-4.693-1.614-.738-7.772-.763-9.536-1.414 2.515-.751 8.322-.175 9.636-.376 1.302-.175 2.991-.826 3.454-3.09.263-1.29-.926-2.716-2.428-3.292-1.664-.613-8.522-2.428-10.012-3.367 2.44-.287 7.109 1.214 8.974 1.027 1.877-.188 3.541-.914 3.754-2.24.275-1.778-1.126-3.28-2.99-4.23-1.866-.914-5.708-2.716-7.76-4.118 4.393.663 6.633 1.777 8.51 1.79 1.877-.013 4.217-.1 4.58-1.24.376-1.113.2-2.34-1.113-3.454-1.314-1.126-7.109-5.168-8.873-6.795 4.392 1.314 5.982 2.89 8.034 3.592 3.091 1.026 7.396.275 8.147-1.24.739-1.489.926-2.89-.75-3.929-1.252-.75-8.51-3.58-10.939-4.98 5.232 1.025 7.947 2.164 10.388 2.727 1.564.35 7.847 1.314 8.698-1.139.638-1.952-.851-4.03-7.772-7.433m9.549-3.116c-2.979-3.68-7.572-.751-4.218 3.491-1.214-4.242.839-5.269 4.218-3.492m-13.203-4.893c5.206 2.778 9.173-2.29 4.455-5.782-.3-.213-.288.588-.676.388 3.154 3.53 1.264 5.845-3.78 5.394"/><path d="M504.243 143.077c6.72 3.566 11.726-3.605 4.117-7.81 4.418 5.532 2.002 8.373-4.117 7.81m-19.086 10.6c6.708 3.567 17.997-5.47 10.363-9.65 4.43 5.507-4.268 10.2-10.363 9.65m5.357 1.351c1.301 1.778 2.415 7.998-4.493 8.073 2.24 1.314 3.354 2.54 2.99 4.342-.575 2.703-2.765 2.54-4.68 3.18 4.856 1.689 9.724 2.352 4.393 8.347 6.27-3.18 3.291-7.234-.65-8.173.838-.475 4.217-3.942 1.589-7.233 2.165-.188 5.431-6.083.85-8.536m-16.006 2.341c1.977 0 5.97 1.264 5.795 5.056-.088 2.077-1.027 2.74-1.865 3.479 1.026.576 2.615 3.504.55 6.12.1-1.615.94-5.269-4.955-5.644 1.877-.852 3.09-.564 4.117-2.078 1.039-1.49.939-3.079.1-4.28-.863-1.29-3.742-2.653-3.742-2.653m4.118 17.934c3.178-.438 7.283-.639 6.244 5.006 2.716-.664 7.397 2.34 4.118 6.37 1.865 1.226 3.83 4.705.738 7.033 2.253 3.554 2.716 6.032.088 7.434.938 3.754 3.266 7.697-3.83 9.962 3.442-1.49 4.293-5.457 2.891-7.434-1.401-1.952-1.114-1.777-3.179-2.716 2.616-1.139 4.118-.475 4.118-3.867.012-1.164-1.314-2.978-3.267-3.567 2.791-.838 2.891-1.69 2.616-3.667-.263-1.964-2.503-3.09-3.354-3.166 1.114-.488 3.742-2.165 2.328-4.042-1.59-2.128-4.393-.839-6.27-.476 1.402-1.501 2.052-3.767 1.214-4.618-.814-.838-3.817-2.34-4.455-2.252m3.879 42.938c1.69-.588 8.423.1 7.284 6.884-1.114 6.745-.276-2.253-2.69-4.53-1.953-1.803-5.908-1.866-4.594-2.354m28.91 81.573c-5.357-6.033-6.37-7.434-6.37-7.434s.312.313 7.27 6.645l-.9.789m-19.348-12.891c3.942 1.414 6.27-.175 5.256-3.854 3.742 2.615 7.384 1.727 7.296-3.18 4.68 1.703 6.095-.562 5.156-4.505 9.048.864 7.184-5.994 4.393-8.635 2.803 2.628 3.742 8.448-5.331 7.61.926 3.916-.489 6.194-5.144 4.492.1 4.88-3.554 5.832-7.309 3.179 1.026 3.667-.375 6.295-4.317 4.893m22.664 6.132c-.388 1.014-2.265 2.516-6.383-.225 3.28.563 4.168.914 5.056-.838 1.49-2.991-4.017-6.858-4.017-6.858 1.702.65 7.109 3.479 5.344 7.921m6.558-10.249c-1.24 1.59-3.204 2.353-6.746.187 3.267.539 4.543.526 5.42-1.201 1.501-3.016-1.402-5.844-1.402-5.844 1.702.675 4.492 2.427 2.728 6.858m-23.753-30.074c.738.063-2.353 1.314-1.415 2.629.939 1.326.564 1.589 1.59 1.777 1.026.187-3.079.45-3.179-1.415-.075-1.877.939-3.19 3.004-2.99m-4.593 7.208c.187.951-2.253 7.334-8.423 2.353-4.793-3.892-.088-7.697 4.13-6.583-.939.288-6.458.75-2.628 5.356 2.89 3.467 6.458.188 6.92-1.126m-10.474 1.214c.85 1.226 2.553 4.067.563 6.22-1.214 1.314-3.655.926-5.144.175 0 1.014-4.292 5.419-6.645-1.039.938.651 2.803 2.253 4.305 1.515 1.777-.876 1.126-2.641.85-3.292-.274-.65 3.605 3.079 5.608 1.414 2.14-1.777.463-4.993.463-4.993m-3.893-38.796c-.237-1.377 8.786 2.74 6.346 7.446-2.428 4.68-7.772.738-8.423-.275-.638-1.051 4.656 2.202 6.37.075 2.34-2.929-4.117-6.095-4.293-7.246m4.193 12.59c1.214.575 4.493 6.945-2.628 7.621-7.109.651-4.193-7.233-3.166-7.884 1.026-.65-2.24 6.483 3.078 5.832 5.332-.663 2.716-5.57 2.716-5.57"/><path d="M475.008 241.744c-1.127.038-2.29.576-3.041 2.378-1.502 3.667 3.379 5.682 4.88 6.045 1.515.375 5.27 1.026 6.646-1.377 1.99-3.454-3.992-6.207-5.632-6.52-.626-.125-1.727-.576-2.853-.526zm1.289 1.702c.55.025 1.026.15 1.301.2 2.791.464 5.645 2.654 4.255 4.28-1.376 1.628-4.518 1.127-5.268.877-.739-.276-4.38-2.14-3.13-4.018.802-1.188 1.928-1.401 2.842-1.339z"/><path d="M478.825 250.455c1.965.663 5.694 8.447-2.916 8.272-8.61-.2-5.131-6.207-3.354-7.91.175.952-3.78 6.646 3.354 6.32 6.095-.3 3.103-5.456 2.916-6.682m7.897-3.479c-.789-.076-1.677.2-2.39 1.902-1.115 2.703 1.789 4.017 2.903 4.305 1.126.288 3.366.576 4.393-1.189 1.501-2.59-2.416-4.48-3.642-4.73-.338-.076-.789-.238-1.264-.288zm.9 1.351c.176.025.339.063.476.088v-.025c2.078.35 3.642 1.802 2.616 3.003-1.026 1.252-2.803 1.052-3.367.851-.55-.187-2.515-1.414-1.589-2.816.688-1.063 1.34-1.163 1.865-1.1z"/><g fill="#C88E44"><path d="M499.3 254.197c3.366 2.74 10.837 5.932 12.339 3.116 1.502-2.791.85-4.88-4.193-8.272 4.018 2.64 12.628-.927 4.118-8.811 10.187 4.806 11.413-6.282 5.994-9.862 5.782 2.265 9.724-5.056 2.991-9.761 4.406 1.026 9.637-2.328 3.28-8.36 11.5 7.634 19.548 5.18 16.281-2.891 12.828.663 4.418-9.875-6.057-15.594 12.628 4.606 18.435-5.08 9.837-7.897 10.1.288 12.915-7.484 2.44-10.3 7.209.363 17.308-6.683 3.842-10.8 28.997 11.752 40.599 3.855 26.87-4.793 4.092.75 11.876-10.125-3.079-11.451 8.035 2.165 23.566-7.384 3.554-12.115 0 0-18.597-4.605-26.193-5.744.663.838 22.539 5.657 26.18 6.783 3.655 1.139 8.236 3.754 7.022 6.583-1.214 2.803-5.72 4.418-11.877 3.266-6.17-1.114-20.124-3.867-21.338-4.055 2.253.651 19.736 5.457 21.513 5.92 1.777.488 9.111 2.553 8.235 5.857-1.039 3.83-4.868 3.654-7.584 3.467-2.716-.188-20.212-4.53-22.452-4.894-2.24-.375 23.478 6.383 24.605 7.134 1.126.763 5.807 3.692 5.23 6.02-.562 2.352-9.636 2.628-14.491 1.414-4.869-1.214-38.71-10.175-39.472-9.987 2.903.938 20.211 6.307 22.351 7.358 2.153 1.027 7.009 2.428 6.183 4.869-.851 2.465-7.497 4.493-10.113 4.03-2.615-.45-27.682-6.12-31.525-6.859 3.655 1.214 30.036 7.697 31.813 8.636 1.777.95 6.633 3.316 5.607 5.256-1.039 1.977-3.842 3.58-8.235 2.728-4.405-.85-27.32-7.621-29.648-8.197 4.018 1.702 27.771 9.511 29.273 10.638 1.502 1.164 4.956 2.64 3.179 4.718-1.778 2.04-8.323 1.752-11.139 1.101-2.803-.638-23.09-6.958-25.342-7.622-2.253-.663 21.475 8.686 23.553 9.787 4.492 2.365 14.029 10.45 11.789 12.115-3.091 2.315-6.633.563-7.297.275-.663-.263-26.731-11.651-27.958-12.402 3.28 1.426 27.683 13.453 28.985 14.967 1.301 1.465.826 4.593-.851 5.444-1.69.826-5.82-.075-10.763-2.64-5.42-2.829-19.724-7.797-23.666-7.81 3.642.852 16.845 6.095 19.649 8.373 2.327 1.865 3.454 4.418 2.227 5.444-1.214 1.026-4.105 1.276-5.982.45-1.865-.85-10.663-5.256-16.732-6.958 4.305 2.053 14.417 7.46 16.457 8.923 2.615 1.903 4.568 5.006 3.642 6.683-.939 1.69-3.93 1.953-5.995 1.114-2.052-.85-21.6-9.599-23.653-10.425-2.065-.863 21.313 10.525 23.19 12.302 1.852 1.79 4.393 6.008 3.066 7.81-1.301 1.79-4.868 1.852-7.847.275-3.516-1.877-17.02-10.162-18.885-11.676 2.616 1.99 17.584 12.777 18.885 14.667 1.29 1.877 3.342 4.793 1.953 6.007-1.415 1.24-5.782.363-6.834-.488-1.013-.813-17.283-11.826-18.972-12.84 3.842 3.441 17.583 14.818 19.16 16.132 1.59 1.314 5.331 4.993 3.642 6.207-1.69 1.239-8.135-2.315-9.449-2.903-1.301-.564-4.005-1.29-4.568-1.69-.563-.363 4.568 3.68 2.691 5.169-1.802 1.476-1.865.85-3.917 1.139 2.052 1.489 7.671 6.37 4.48 8.823-3.166 2.415-9.624-2.078-10.087-3.017-.463-.938 2.803 3.755.739 5.344-2.065 1.602-5.42-.55-5.895-1.026-.463-.463 3.179 2.265 1.026 4.518-2.152 2.253-3.642-.463-4.217-1.026-.276.65-.1 2.715-2.065 2.715-1.402-.025-2.215-1.414-2.979-2.252.088.65.989 4.38 3.367 3.754 1.389-.363 2.152-1.314 2.14-2.077.838.938 3.554 1.69 4.58.663 1.026-1.039 1.114-3.003.651-3.767 1.402.864 3.091.663 4.393-.075 1.314-.763 1.226-3.016.75-3.68 1.315 1.402 6.746 3.755 9.274.288 2.528-3.454-1.777-7.308-2.89-8.16 1.025.276 4.667-1.94 1.213-5.055"/><path d="M547.694 119.736c11.977.764 16.282 3.755 15.243 8.46-.725 3.292-4.868 3.38-7.108 3.004 3.354 2.053 2.878 4.505 2.603 6.958-.375 3.38-3.642 4.981-7.108 5.044 2.152.663 5.807 2.84 5.23 6.032-.7 4.005-3.553 4.518-5.055 4.493 1.977.75 5.143 2.165 4.03 6.495-1.127 4.318-4.693 4.405-11.239 2.816 5.895 1.69 10.1-1.214 10.112-3.304 0-2.065-1.314-4.693-3.93-5.068-2.627-.363-25.355-6.57-26.856-6.57 4.017.375 23.94 4.342 25.455 4.505 1.49.212 5.394-.751 5.707-2.629.563-3.366-2.428-5.243-4.856-5.819-2.428-.563-20.111-4.718-22.552-5.269 3.93.488 18.885 2.866 20.4 2.916 3.554.213 8.797-.838 8.973-3.73.112-1.739-.739-5.18-2.804-6.119-2.052-.939-14.392-3.754-20.574-3.392 7.96-.375 16.544 1.127 20.487 1.527 3.93.388 7.32-.738 7.584-2.428.475-3.203-2.804-6.77-13.73-7.91"/><path d="M616.264 135.93c21.325 9.575 37.857 17.221 35.242 22.465-1.402 2.803-4.155 2.29-5.457 2.49 7.884 2.49 11.339 10.676 9.474 14.042-1.777 3.217-13.466-1.427-14.693-1.752 2.716 1.377 7.109 5.594 2.616 8.047-4.493 2.44-28.346-5.093-32.339-8.047 1.853 1.64 3.905 5.394 2.228 8.385-2.928 5.194-19.098-1.139-21.914-1.677 1.24 2.991 1.69 7.209-1.026 8.623-4.493 2.315-10.75-.025-14.117-1.327.376 2.14.013 6.896-3.842 7.972-2.99.864-8.585.25-11.5-1.965-5.883-3.379-19.45-7.521-23.09-9.674 3.54 1.114 21.763 7.622 23.465 8.16 4.48 1.527 9.761 2.203 11.5 1.051 1.69-1.113 2.529-5.894-.462-7.045-2.979-1.102-28.134-10.526-30.587-11.276-2.415-.764 31.338 9.51 33.953 10.45 2.628.926 11.514 3.729 13.291 1.79 2.053-2.254 1.314-7.51-1.677-8.649-2.991-1.139-35.805-12.327-39.372-13.64 4.668 1.313 42.613 13.077 45.066 13.74 1.415.376 15.256 4.518 17.308 2.829 2.053-1.69 1.315-5.895-2.427-8.16-3.742-2.265-29.085-11.952-33.94-13.453 11.876 3.742 33.314 10.75 38.057 12.527 3.554 1.289 22.715 8.06 26.469 7.897 6.27-.288 5.632-3.567-.463-6.77-3.93-2.066-51.511-20.137-64.051-24.467 10.2 3.016 58.832 19.56 65.653 22.013 5.757 2.078 13.166 4.719 14.03 2.39 2.164-5.931-7.56-10.812-11.302-12.339-3.742-1.477-28.058-11.664-66.216-24.079 21.137 3.58 65.09 22.302 68.093 22.765 2.04.325 7.096.526 6.083-3.091-.589-1.99-3.58-5.256-34.053-20.224m-102.911 1.727c2.891 1.039 10.626 2.64 9.149 7.872-1.026 3.654-6.545 2.152-8.047 2.352 1.59 1.127 2.052 3.18.65 5.457-1.501 2.44-6.27 2.803-8.797 1.852 2.427 1.427 3.817 3.242 2.615 5.644-1.114 2.24-3.654 2.078-5.519 2.065 1.977 1.014 4.88 2.804 3.266 6.283-1.126 2.44-2.065 1.79-3.742 2.165 1.778.388 4.03 1.602 3.742 4.68-.212 2.366-1.314 3.392-3.554 3.955 1.127.55 2.616 2.829 2.14 5.544-.438 2.54-2.703 4.218-4.58 4.406.938.763 2.378 1.063 1.69 4.517-.476 2.353-2.066 3.017-3.93 3.204 1.214.651 3.04 2.165 2.428 5.62-.476 2.628-3.555 3.366-5.057 3.203-1.489-.2-7.095-1.139-8.61-1.702 2.54-.263 6.933.188 8.81.188 1.865.013 3.104-.375 3.355-1.865.388-2.052-.739-3.754-1.865-4.305-1.114-.563-4.105-1.89-6.358-2.453 2.716-.075 4.969.664 6.358.4 1.402-.3 3.367-.85 3.554-2.665.2-1.765.113-2.315-1.59-3.066-1.676-.739-4.192-1.427-7.57-2.165 2.803.187 5.794 0 7.483.012 1.69-.025 3.942-1.99 4.13-3.304.175-1.326.288-3.566-2.152-4.693-1.615-.738-7.772-.763-9.537-1.414 2.516-.75 8.323-.175 9.637-.375 1.301-.176 2.99-.826 3.454-3.092.263-1.289-.926-2.715-2.428-3.291-1.665-.613-8.523-2.428-10.012-3.366 2.44-.288 7.108 1.213 8.973 1.013 1.877-.188 3.542-.913 3.755-2.24.275-1.777-1.127-3.279-2.991-4.23-1.865-.914-5.707-2.728-7.76-4.117 4.393.663 6.633 1.777 8.51 1.79 1.878-.026 4.218-.113 4.581-1.24.388-1.114.2-2.34-1.114-3.454-1.314-1.126-7.108-5.169-8.873-6.795 4.393 1.314 5.982 2.89 8.035 3.591 3.09 1.027 7.396.276 8.147-1.239.738-1.489.926-2.89-.751-3.93-1.252-.75-8.51-3.579-10.938-4.98 5.231 1.026 7.947 2.165 10.387 2.728 1.565.35 7.847 1.314 8.698-1.139.638-1.927-.863-4.017-7.772-7.421m-3.666-8.01c5.206 2.779 9.173-2.29 4.455-5.782-.3-.212-.288.589-.676.388 3.166 3.53 1.277 5.857-3.78 5.394"/><path d="M501.34 140.711c6.72 3.567 11.726-3.604 4.116-7.809 4.406 5.532 1.99 8.36-4.117 7.81m-19.085 10.587c6.708 3.567 17.996-5.469 10.362-9.649 4.43 5.52-4.267 10.212-10.362 9.649m5.356 1.351c1.314 1.778 2.416 7.998-4.493 8.085 2.24 1.314 3.354 2.54 2.991 4.343-.575 2.703-2.765 2.54-4.68 3.179 4.856 1.69 9.724 2.353 4.393 8.347 6.27-3.191 3.291-7.233-.651-8.172.838-.476 4.217-3.942 1.602-7.234 2.152-.187 5.419-6.094.838-8.547m-16.006 2.352c1.977 0 5.97 1.264 5.794 5.056-.088 2.078-1.026 2.741-1.865 3.48 1.027.575 2.616 3.504.551 6.12.1-1.615.939-5.27-4.956-5.645 1.877-.85 3.091-.563 4.117-2.077 1.04-1.49.94-3.079.1-4.28-.863-1.29-3.741-2.654-3.741-2.654m4.105 17.922c3.178-.438 7.283-.638 6.244 5.006 2.716-.664 7.397 2.34 4.118 6.37 1.865 1.226 3.83 4.705.738 7.033 2.253 3.554 2.716 6.032.088 7.434.938 3.755 3.266 7.697-3.83 9.962 3.442-1.49 4.293-5.457 2.891-7.434-1.401-1.952-1.114-1.777-3.179-2.716 2.616-1.138 4.118-.475 4.13-3.854.013-1.177-1.314-2.979-3.266-3.567 2.79-.838 2.89-1.677 2.616-3.667-.263-1.965-2.503-3.091-3.354-3.166 1.113-.488 3.742-2.165 2.327-4.042-1.589-2.128-4.392-.839-6.27-.476 1.402-1.502 2.053-3.767 1.214-4.618-.826-.838-3.83-2.34-4.467-2.265"/></g><path fill="none" stroke="#C88E44" stroke-width="1.339" d="M542.476 234.71c-3.83-3.691-13.842-9.96-16.445-12.139 4.843 4.03 13.454 9.412 16.445 12.14 4.267 3.88 6.745 8.335 4.292 11.539-1.226 1.577-5.231 1.426-7.947-.951-.688-.589-10.925-7.897-14.392-10.6 6.082 4.517 15.97 11.588 18.873 14.079 3.83 3.279 9.786 11.851 7.846 14.742m-1.15 1.039c-2.667 1.364-7.41-1.001-8.774-2.153-1.59-1.314-14.592-11.063-19.073-14.38 2.428 1.89 17.02 12.891 18.698 14.118 2.803 2.015 4.855 10.437 2.14 12.089-2.704 1.69-4.48.851-6.833-.275-2.328-1.14-10.838-8.448-15.982-12.49 4.205 3.379 13.454 10.437 15.418 12.402 1.04 1.051 6.821 9.111 3.354 11.727-2.14 1.627-7.096 1.126-10.662-1.214-1.752-1.164-5.144-3.93-7.484-5.169"/></svg>