<svg xmlns="http://www.w3.org/2000/svg" xmlns:xlink="http://www.w3.org/1999/xlink" width="750" height="500"><path fill="#000f5d" d="M0 0h750v500H0z"/><use transform="translate(94.998 -302.576)" xlink:href="#a"/><use transform="translate(165.102 -239.96)" xlink:href="#a"/><use transform="translate(202.316 -149.822)" xlink:href="#a"/><use transform="translate(126.44 -126.448)" xlink:href="#a"/><use transform="translate(187.864 -50.087)" xlink:href="#a"/><use transform="translate(131.659 27.026)" xlink:href="#a"/><use transform="translate(88.727 -37.115)" xlink:href="#a"/><use transform="translate(47.98 74.91)" xlink:href="#a"/><use transform="translate(-52.94 74.91)" xlink:href="#a"/><use transform="translate(-88.937 -37.115)" xlink:href="#a"/><use transform="translate(-136.79 27.026)" xlink:href="#a"/><use transform="translate(-191.937 -50.087)" xlink:href="#a"/><use transform="translate(-204.367 -149.822)" xlink:href="#a"/><use transform="translate(-127.052 -126.448)" xlink:href="#a"/><use transform="translate(-166.336 -239.96)" xlink:href="#a"/><use transform="translate(-95.803 -302.576)" xlink:href="#a"/><use transform="translate(-.231 -328.736)" xlink:href="#a"/><use transform="matrix(-1 0 0 1 752.207 0)" xlink:href="#b"/><use transform="matrix(-1 0 0 1 751.833 0)" xlink:href="#c"/><use transform="matrix(-1 0 0 1 751.657 0)" xlink:href="#d"/><path d="M354.95 372.003l15.954-.011 5.257-15.586 4.872 15.633 16.069-.003-12.455 10.12 4.514 14.802-13.16-8.896-13.046 8.967 4.443-15.004-12.448-10.022z" id="a" fill="#d59f0f"/><path d="M346.35 114.652l22.503.047 7.409-21.984 6.863 21.995 22.626.022-17.549 14.238 6.358 20.856-18.513-12.505-18.401 12.622 6.255-21.168-17.55-14.123zm1.179 108.051a.587.587 0 01-.114-.154c-18.136-23.954.312-32.758.685-49.705 12.002 22.282-5.586 29.213 15.324 49.875l-15.895-.016z" fill="#d59f0f"/><path d="M367.56 222.718c-6.386-8.982-10.865-23.32-8.95-32.687 1.901-9.362 8.388-18.581 7.49-25.667 3.378 7.978 6.556 11.053 5.572 16.925 5.077-15.141 16.747-22.966 32.568-23.744-28.454 21.622 8.689 38.24-15.871 65.197l-20.81-.024z" fill="#d59f0f"/><path d="M393.642 222.754c22.596-27.264-6.159-41.236 20.048-53.452.964 8.06-5.459 8.054-2.628 17.92.485 4.271-.107 7.757-1.49 10.732 2.665-3.268 7.851-9.433 11.144-11.832-7.792 11.74.575 22.011-18.22 36.631l-9.243.003m-3.432 58.828c1.008-25.563 6.477-33.345 16.847-44.036-20.122-.047-42.609-.05-60.906-.064 10.326 10.708 15.789 18.495 16.742 44.055 9.107.004 18.21.022 27.317.045zm-13.75 62.405l7.96 24.97 4.398-74.085c-8.198-.028-16.396-.039-24.594-.05l4.22 74.119zm-.117 111.963c3.512-3.257 4.51-13.866 4.51-13.866l2.184-43.3-6.634-4.661-6.65 4.647 2.115 43.31s.943 10.58 4.46 13.873l.015-.003zm35.591-222.994l-70.75-.076.008-6.715 70.765.073-.023 6.718zm-17.225 59.686l-37.32-.038.01-8.354 37.325.054-.013 8.338z" fill="#d59f0f"/><path d="M200.582 226.533l133.232-15.962-.416-3.576-133.26 15.986.444 3.552z" id="d" fill="#d59f0f"/><path d="M225.896 145.688l109.567 42.132 1.288-3.344L227.2 142.342l-1.304 3.346z" id="c" fill="#d59f0f"/><path d="M293.742 98.652l47.15 67.173 2.923-2.076-47.162-67.153-2.911 2.056z" id="b" fill="#d59f0f"/><path d="M373.889 142.719l-.034 24.444 3.585.003.014-24.457-3.565.01zm-37.022-27.725l-15.482-7.939 1.078-2.102 15.482 7.938-1.078 2.103m2.638-5.718l-12.51-12.092 1.798-1.86 14.735 2.941c.324.062.62.129.89.202.268.074.506.156.714.247l-10.14-9.802 1.568-1.622 12.509 12.093-1.782 1.842-14.985-2.937a7.783 7.783 0 01-.688-.172c-.224-.074-.454-.16-.69-.255l10.14 9.802-1.56 1.613m13.207-28.688l-3.786 1.476 4.819 12.358 3.785-1.476c1.622-.632 2.642-1.634 3.062-3.006.417-1.38.224-3.1-.58-5.162-.77-1.974-1.78-3.32-3.033-4.04-1.253-.721-2.675-.77-4.267-.15m-.396 16.673l-6.32-16.21 6.173-2.407c2.26-.88 4.25-.88 5.973.004 1.73.88 3.09 2.594 4.083 5.14 1.027 2.634 1.203 4.927.528 6.881-.67 1.943-2.12 3.35-4.351 4.22l-6.086 2.372m16.362-4.93l-1.375-17.345 2.355-.186 1.375 17.344-2.355.187m10.644-7.122l5.324 1.022-1.198-8.047-4.126 7.025m-6.304 6.152l9.624-15.87 2.563.492 3.09 18.309-2.517-.483-.83-5.451-6.728-1.291-2.801 4.754-2.401-.46m17.006 3.858l9.835-14.353 2.134 1.462-.44 15.02c-.007.33-.024.633-.051.91a5.19 5.19 0 01-.124.745l7.971-11.634 1.861 1.275-9.834 14.353-2.115-1.449.394-15.265a8.1 8.1 0 01.055-.707c.036-.234.082-.474.137-.723l-7.971 11.634-1.852-1.268m21.632 9.467l2.888 4.588 5.063-6.369-7.951 1.781m-8.798-.407l18.166-3.801 1.39 2.21-11.27 14.756-1.365-2.17 3.417-4.327-3.65-5.798-5.386 1.199-1.302-2.07" fill="#d59f0f"/></svg>