<svg viewBox="0 0 36 24" width="750" height="500" xmlns="http://www.w3.org/2000/svg" xmlns:xlink="http://www.w3.org/1999/xlink"><defs><path id="a" transform="scale(.024)" d="M0 215a32 32 0 0032-32v-16h31a32 32 0 000-64H32V32h199v31a32 32 0 0064 0V32h28a32 32 0 0032-32H0z"/></defs><path d="M0 0h36v24H0z"/><path fill="#eaaa00" d="M0 24V2l3 2v20h3V0h3v24h3V0h3v24h3V0h3v24h3V0h3v24h3V0h3v24h3v-2L3 0v4l30 20z"/><g id="b"><path fill="#fff" d="M18 0h9v12h9V6H18z"/><path fill="#9d2235" d="M27 0h9v6H18v6h9z"/><g transform="translate(27 6)"><use fill="#9d2235" xlink:href="#a"/><use fill="#fff" transform="scale(-1 1)" xlink:href="#a"/><use fill="#fff" transform="scale(1 -1)" xlink:href="#a"/><use fill="#9d2235" transform="scale(-1)" xlink:href="#a"/></g></g><use x="-18" y="12" xlink:href="#b"/></svg>