<svg xmlns="http://www.w3.org/2000/svg" width="685" height="457" version="1.0"><path d="M0 457h685V0H0v457z" fill="#00287e"/><path d="M324.033 280.764h65.827l.45-.383V298.3c0 4.072.578 7.56-7.17 9.487-7.725 1.935-40.297 10.665-40.297 10.665s-32.573-8.73-40.298-10.665c-7.747-1.927-7.17-5.415-7.17-9.487v-.293c.128-.015.368-.045.675-.105h.045c.518-.075 1.23-.187 2.048-.322.015 0 .022 0 .037-.015l.578-.09c.03 0 .067 0 .105-.015.18-.03.36-.053.547-.083.038-.015.068-.015.105-.015l.533-.09c.06-.015.12-.015.18-.03.157-.03.322-.06.48-.075l.195-.045c.157-.015.315-.037.472-.067.068 0 .143-.015.21-.03.15-.03.293-.045.435-.075.083-.015.158-.03.233-.045.157-.015.3-.045.45-.075.06 0 .12-.015.172-.03.21-.023.413-.068.615-.098 3.263-.57 5.753 0 10.748-.765 4.987-.772 8.437-.57 14.58-1.155 6.142-.57 13.05-1.335 14.97-1.92 1.92-.57 3.645-1.335 8.632-2.302 4.98-.953 3.075-1.155 3.075-1.155s-1.537-.383-4.035-1.335c-2.49-.96-2.107-1.343-5.37-1.913-3.262-.577-.96.57-3.84 0-2.88-.577-3.45-.952-3.45-.952s-3.457-.398-4.8-.78c-1.342-.383-2.302-.188-3.067-.758-.773-.577-4.035-1.732-4.035-1.732s-1.755-.465-3.255-.953" fill="#9ed9ff"/><path d="M343.225 322.771c1.92 0 4.605.78 1.92 5.76-2.685 4.995 5.663 7.868 5.663 7.868l3.157-3.255c-3.84-3.458-3.84-4.598.765-7.673 4.605-3.075 6.525 4.215 6.525 4.215l3.458-1.537.382-4.215c9.21.757 14.588 0 22.643-4.98-15.353 4.98-24.18-.78-24.18-.78s16.89-4.598 23.032-6.135c6.128-1.523 9.968-3.06 9.968-11.123v-77.535c0-24.562 9.21-21.87 9.21-21.87l-9.975-16.125c-25.335 8.835-30.705-7.297-52.583-7.297-21.877 0-27.24 16.132-52.582 7.297l-9.968 16.125s9.203-2.692 9.203 21.87v77.535c0 8.063 3.84 9.585 9.982 11.123 6.135 1.537 23.025 6.135 23.025 6.135s-8.827 5.76-24.18.78c8.063 4.98 13.433 5.737 22.643 4.98l.382 4.215 3.458 1.537s1.912-7.29 6.517-4.215c4.605 3.06 4.605 4.215.48 7.763l2.88 3.367s8.925-3.075 6.233-8.07c-2.685-4.98 0-5.76 1.92-5.76l-.383-4.32s-32.572-8.73-40.297-10.665c-7.748-1.927-7.163-5.415-7.163-9.487v-69.345h94.928v69.345c0 4.072.577 7.56-7.163 9.487-7.725 1.935-40.297 10.665-40.297 10.665l.382 4.32" fill="#006fff"/><path d="M305.808 302.634c4.605 0 6.33-1.155 9.21-1.155 2.872 0 4.597 0 8.625-1.148 4.035-1.155 15.547-2.295 10.365-.57-5.183 1.718-3.458 2.303 4.605 1.718 8.062-.563 13.245-1.148 12.667-2.873-.577-1.732.188-.57-4.417-.195-4.605.383-4.988-.375-4.988-.375s1.538-1.92 4.605-1.545c3.075.383 7.68-.172 9.405-.57 1.725-.382 3.645 1.733 1.53 2.115-2.107.375-.952 1.725.578 1.913 1.537.195 2.692 3.84-6.33 3.27-9.023-.57-11.895.382-18.038.57-6.142.195-13.627.382-10.365-.57 3.263-.968 4.988-1.538-2.497-.383-7.47 1.148-6.51.195-12.465.57-5.948.383-9.015.383-9.015.383l6.525-1.14m51.57-10.868c-4.605.435 6.27-.705 8.512-.937 2.243-.21 7.253-.953 2.865.142-4.395 1.118-4.155 1.185-.412 1.088 3.75-.105 6.052-.66 6.39-.72.33-.06 2.385-.015 2.385-.015s2.632.06-4.073.952c-6.697.878-11.895 1.185-9.682.75 2.212-.442 7.02-1.042 1.477-.795-5.542.263-6.832 0-4.605-.337 2.228-.323-.615-.368-2.857-.128" fill="#006fff"/><path d="M389.86 287.499s3.068.367-2.88.135c-5.947-.248-8.062-.135-8.062-.135s-2.303-.113 2.497.502c4.793.63 10.748 1.245 5.948 1.493-4.8.247-7.103.742-5.565.997 1.537.248 2.302.128 3.84-.135 1.53-.232 3.067 0 3.067 0l1.538.263v2.49s.96.12-3.458.12c-4.41 0-10.935.247-7.672.367 3.262.113 4.605.113 6.712.113h4.598m-44.513-11.408c1.733 0 6.915.555 4.605.555-2.302 0-3.262.585.39.78 3.638.188 6.705.188 6.705.188l-7.095.57s-4.605 0-3.645-.383c.96-.375-1.725-.952-1.725-.952l-1.342-.96 2.107.187m23.22 23.805c7.29-.21 5.76-.78 14.205-2.317 8.445-1.523.765-3.06-4.417-4.013-5.183-.967 8.64-1.725 7.102-2.107-1.537-.383-10.552.382-16.312.382-5.753 0-1.148 3.443 4.8 4.028 5.947.57-6.72 1.327-12.668 1.537 0 0 2.498 1.14-9.592 1.71-12.09.585-20.73.765-15.548 1.538 5.183.765 25.718.967 11.513 2.302-14.198 1.35-18.42.585-21.3 1.155-2.88.57-8.828 1.335-8.828 1.335s6.908 1.725 7.485 1.725c.578 0-1.92-.757 6.72-.757 8.633 0 14.393-.57 21.3-1.35 6.908-.758 18.225-2.295 11.513-2.873-6.713-.57-10.935-1.537-5.565-1.537s9.592-.758 9.592-.758" fill="#006fff"/><path d="M326.725 144.309l-2.302-1.538s-.195 2.7 1.53 5.573m5.955 8.64s-2.498-.953-3.458-1.538c-.96-.57-3.262-.952-3.262-.952s.082-.428.067-1.088a1.953 1.953 0 00-.405-2.265 7.428 7.428 0 00-1.2-2.212c-2.107-2.685-2.88-2.49-6.712-3.458-3.84-.952-6.525-2.49-6.525-2.49s-.758 2.678 3.262 4.215c4.028 1.538 8.25 3.84 8.25 3.84s-.382 1.538-3.067 1.35c-.51-.03-1.05-.12-1.605-.27a1.978 1.978 0 00-1.852-2.692c-.856 0-1.576.54-1.861 1.305-1.185-.6-2.28-1.29-3.127-1.995-2.115-1.725-5.948-3.645-9.203-3.645 0 0 1.523 1.155 4.02 3.075.885.675 1.883 1.477 2.813 2.227a1.97 1.97 0 00-1.92 1.98c0 .143.022.293.045.435-1.313-.247-1.658-.697-2.82-1.402a1.997 1.997 0 00-1.958-2.378c-.675 0-1.282.353-1.65.885a70.11 70.11 0 01-1.8-.21c-3.067-.382-6.135 0-6.135 0s.96.953 2.303 1.335c1.335.398 3.06 0 3.45 1.725.232 1.073.105 1.335.015 2.055-.068 0-.143 0-.218.015a2.19 2.19 0 00.083-.54 1.988 1.988 0 10-3.975 0c0 .248.045.48.127.683a2.032 2.032 0 00-.825-.173 1.983 1.983 0 100 3.968 1.981 1.981 0 001.988-1.988c0-.24-.045-.472-.128-.675.255.098.533.173.825.173.135 0 .27-.015.398-.03a1.796 1.796 0 00-.083.532c0 1.035.795 1.883 1.815 1.973-.135.84-.712.75-2.317 1.687-2.31 1.35-6.72 4.995-6.72 4.995s3.262-.967 5.565-1.537c2.302-.57 4.222-1.163 4.987-3.27.765-2.108 2.678-4.215 2.678-4.215s.3-.263.735-.555a1.799 1.799 0 00-.038.345c0 1.102.893 1.995 1.995 1.995a1.993 1.993 0 001.988-1.995c0-.203-.038-.405-.105-.6.667.307 1.185.615 1.185.615s.195 3.075-1.725 4.995c-1.92 1.905-5.948 4.41-5.948 4.41s4.028.57 6.33-1.155c2.303-1.733 2.108-2.678 3.263-4.793 1.147-2.122 2.107-2.505 2.107-2.505s.39 0 1.065-.045a1.99 1.99 0 001.815 2.798c.143 0 .278-.008.413-.038a6.994 6.994 0 01-.795.555c-2.88 1.725-5.378 4.598-5.378 4.598s1.92 1.35 5.183-1.335c3.262-2.678 4.035-4.41 5.76-5.183 1.725-.765 3.84-.187 3.84-.187s-.578 2.49-4.035 4.402c-3.45 1.92-5.753 4.808-5.753 4.808s2.49-.188 4.605-1.35c2.1-1.14 4.598-2.678 4.598-2.678m-27.435 110.52c2.115 0 3.84-.187 6.907 1.733 3.075 1.92 4.028 2.677 6.143 3.06 2.1.382 2.1 0 4.417.967 2.295.953 1.14 1.155 3.638.953 2.49-.195 4.41-.765 5.947-.195 1.53.592 4.41 1.35 4.41 1.35s3.263 1.155 4.035 1.732c.765.57 1.725.375 3.068.758 1.342.382 4.8.78 4.8.78s.57.375 3.45.952c2.88.57.577-.577 3.84 0 3.262.57 2.88.953 5.37 1.913 2.49.952 4.035 1.335 4.035 1.335s1.905.21-3.075 1.162c-4.988.96-6.713 1.725-8.633 2.295-1.92.585-8.827 1.35-14.97 1.92-6.142.585-9.592.383-14.58 1.155-4.995.765-7.485.195-10.747.765-3.263.585-8.25 1.35-8.25 1.35l.187-24m21.36 60.03c7.193 5.76 10.215 5.333 18.278 16.26-3.743-9.78-4.605-12.082-9.788-16.402 8.633 6.045 11.228 6.045 17.558 16.125-14.108-42.023-71.385-19.568-86.64-13.245 19.86-4.613 34.83 1.44 42.6 10.942 0 0-3.458-9.21-6.908-13.237 13.238 8.055 12.953 7.192 19.86 14.677 0 0-4.89-11.805-5.76-14.107 10.365 2.872 18.135 14.677 18.135 14.677s-3.307-9.36-7.335-15.69m52.095 0c-7.192 5.76-10.215 5.333-18.277 16.26 3.742-9.78 4.605-12.082 9.787-16.402-8.632 6.045-11.227 6.045-17.557 16.125 14.107-42.023 71.385-19.568 86.64-13.245-19.86-4.613-34.83 1.44-42.6 10.942 0 0 3.457-9.21 6.907-13.237-13.237 8.055-12.952 7.192-19.86 14.677 0 0 4.89-11.805 5.76-14.107-10.365 2.872-18.135 14.677-18.135 14.677s3.308-9.36 7.335-15.69" fill="#35b336"/><path d="M200.643 99.459c-.72-3.015 0-5.04.577-2.873.578 2.153.863 2.445.863 2.445" fill="#86473f"/><path d="M289.878 223.381c0-24.562-9.21-21.885-9.21-21.885l9.975-16.11c8.805 3.06 15.195 3.12 20.707 1.89l.12-.457s-.577-2.295-2.017-6.908c-1.44-4.605-2.588-4.605-5.76-4.882-3.165-.293-10.358 4.32-16.118 6.037-5.76 1.725-12.09 4.028-12.09 4.028s-4.32-7.763-5.752-9.495c-1.433-1.725-3.45-2.588-4.89-6.915-1.44-4.305-2.018-4.305-4.89-7.47-2.468-2.723-6.833-7.748-8.033-9.135.075-.165.323-.6 1.125-1.53 1.005-1.14 3.308-.698 7.05-1.14 3.743-.435 3.593-4.178 4.463-5.46.862-1.305.427-1.163.142-4.328-.292-3.157-3.022-4.17-4.605-4.597-1.582-.435-4.035-1.305-6.765-3.458-2.737-2.152-10.507-5.902-12.09-6.915-1.582-.99-.142-2.722 1.44-3.292 1.583-.585 11.37 0 14.963-.293 3.6-.292 1.297-1.155-.143-1.582-1.44-.428-8.632-1.013-8.632-1.013s4.027-.57 14.25-5.317c10.215-4.748 13.095-14.543 13.095-14.543-3.165 4.613-10.223 7.485-12.233 7.92-2.017.428-.72-1.875.143-4.89.862-3.015-.578-1.305-2.88 3.015-2.303 4.328-8.49 6.48-11.513 7.635-3.022 1.14-2.587.998.143-1.582 2.737-2.595 3.022-4.32 4.32-7.928 1.297-3.585.72-4.447-1.725.15-2.453 4.598-10.943 10.5-13.103 11.805-2.152 1.29-.57-2.317.72-5.61 1.298-3.307.72-3.457-.862-.72-1.583 2.73-3.165 5.175-5.753 7.05-2.595 1.875-2.16.863-2.16-.585 0-6.037-2.152-7.47-2.872-8.34-.72-.862-1.44-1.875-.578 1.148.863 3.03.293 6.472 0 7.777-.285 1.29-1.29.713-2.302.128-1.005-.555-1.868-2.295-1.005-4.155 5.182-9.51 4.462-15.12 4.462-19.575 0-4.463-1.297-1.155-1.297-1.155.72 16.552-7.628 20.437-7.628 20.437-1.582-6.48-2.595-5.61-2.595-5.61 0 2.88-.997 4.89-.997 4.89s-7.193-8.055-5.753-15.397c1.433-7.335-.577-11.235-.577-11.235-1.875 22.605-17.993 14.692-17.993 14.692l7.913 5.318c-2.73 10.357-15.975 4.89-15.975 4.89 4.177 7.927 28.215 4.605 28.215 4.605s2.16 2.737 6.765 5.902c4.605 3.165 8.775 6.045 8.775 6.045l-1.29.675c-5.76-4.23-11.52-4.23-14.97-2.692-3.458 1.537-5.378 3.457-5.378 3.457 1.92 7.298 11.903 8.82 11.903 8.82-1.538 3.848-1.92 11.13-.773 19.583 1.155 8.437-1.53 16.492-1.53 16.492l3.068-1.92s.382 2.303 0 4.223c-.375 1.92.765 2.692 2.302 3.457 1.538.758 1.538 2.693 1.538 2.693v4.597l2.685-1.537s1.155 8.835 1.155 12.292c0 3.458-.773 6.518-1.155 8.055-.383 1.523-.765 4.98-.765 4.98l2.302-1.14s-2.692 10.358-4.605 14.573c-1.912 4.237-11.902 10.372-22.267 21.127-10.35 10.733-8.055 20.708-8.813 25.703-.772 4.987 3.068 1.92 3.068 1.92s5.362 7.282 5.362 16.5c0 9.21-5.752 14.587-7.672 16.507-1.913 1.92-.375 3.443-.758 6.9-.39 3.458 0 7.29 1.905 10.748 1.92 3.457.39 16.117 0 19.575-.375 3.457 0 3.457 1.538 4.612 1.537 1.14 3.457 3.825 5.76 5.738 2.302 1.92 3.45-1.14 3.832-3.818.39-2.7-.765-3.075-.765-3.075l.578-.3s-1.725-1.14-4.32-4.597c-2.588-3.458-1.44-12.668-.578-22.163.863-9.487 1.44-7.777 11.228-16.695C220.24 291.601 226 276.631 226 276.631s3.165 2.025 10.073 6.623c6.907 4.612 4.897 4.32 3.165 12.097-1.725 7.763-1.44 9.788 0 11.79 1.44 2.025 3.165 3.735 7.485 5.76 4.32 2.018 4.597 2.303 8.925 8.055 4.32 5.76 6.615 7.208 10.65 7.778 4.02.57 4.02 2.302 4.02 2.302l6.622-2.872c-1.44-4.028-4.897-3.458-8.632-3.75-3.735-.278-4.035-1.155-8.34-5.753-4.32-4.605-6.908-8.355-9.788-15.547-2.88-7.193.278-12.945 4.598-25.035 4.312-12.083-1.725-16.695-1.725-16.695s5.467-6.33 10.642-10.943c5.183-4.597 10.943-16.117 11.52-19.275.57-3.165 1.148-3.165 5.468-2.887 4.32.292 2.302 8.347 1.725 14.97-.578 6.622-1.148 7.192.577 9.21 1.725 2.025 1.148 3.735.285 8.355-.727 3.862 4.065 6.12 6.623 5.52V223.38m183.63-99.606c12.09-1.433 21.877-11.79 25.912-17.273 4.028-5.46-1.155-4.027-2.88-2.002-1.732 2.002-.292 1.14-4.035 4.597-3.742 3.458-4.89 2.595-3.45-.847 1.44-3.458-2.88.555-7.485 3.735-4.597 3.165-4.89 1.432-2.01-1.733 2.873-3.157-.285-2.002-3.165-.57-2.88 1.44-9.21 3.735-9.21 3.735s-.577-2.295 6.623-6.322c7.192-4.035 16.98-12.105 18.412-15.84 1.44-3.75.285-6.045-1.717-1.433-2.018 4.598-4.32 4.028-7.77 1.14-8.355 7.193-8.063-.862-8.063-.862s-.862 1.447-2.302 3.75c-1.44 2.302-3.458 2.01-4.898 1.14-1.432-.863-2.01-1.433-6.33 2.595-4.32 4.027-8.925-4.32-9.21-8.64-.285-4.313-.577-4.605-2.017-.278-1.44 4.32-.278 9.78 2.017 15.54 2.303 5.753-1.725 3.458-4.32 3.165-2.587-.292-8.347-5.467-11.512-8.632-3.165-3.165-2.588-2.31-2.588.57 0 2.872 1.725 6.622 1.725 6.622s-8.925-3.735-12.082-6.915c-3.165-3.157-3.743-1.432-2.303 1.163 1.44 2.572 2.303 8.332 16.688 10.357 14.392 2.003 17.842 5.183 17.272 10.073-17.557 1.44-23.602-5.46-25.035-6.623-1.44-1.155-.577 3.458-.577 3.458s-6.045-2.018-8.64-4.905c-2.588-2.873-2.295.292 0 3.18 10.365 13.245 34.357 10.162 34.357 10.162s-4.612 2.303-6.525 4.223c-1.92 1.92-3.457 2.31-5.565 2.49-6.142.382-9.405.202-14.782 2.692-5.37 2.49-4.605 7.68-3.833 10.943.765 3.255 5.753 3.255 6.908 4.605 1.147 1.327 4.222 1.537 5.182.952.953-.577 1.148-1.717 2.873-2.497 1.725-.758 2.685-.375 1.725 1.92-.953 2.302-7.673 9.405-10.943 12.675-3.255 3.247-2.482 2.872-2.872 5.167-.383 2.318 1.35 2.873 1.155 4.238-.195 1.327-.383 1.71-2.115 4.215-1.725 2.49-4.028 4.605-4.215 6.33-.195 1.725-4.995 5.76-4.995 5.76-6.33-3.84-14.775-8.648-18.225-10.943-3.458-2.302-3.458-2.872-9.023-2.872-5.565 0-7.672 6.33-8.062 11.895l.465.337c3.915-.03 8.377-.765 13.74-2.64l9.975 16.11s-1.838-.525-3.87 1.073l.517.382 3.45 3.165-7.485 3.165h-.292c-.915 3.218-1.53 7.748-1.53 14.1v41.325c3.24-1.875 2.955-8.04 2.115-13.125 4.027-.57 2.872-4.597 2.01-4.89-.863-.277-1.44-14.4-.285-20.73 1.147-6.33 3.165-5.167 6.907-5.752 3.743-.578 2.595 3.457 3.743 8.347 1.155 4.89 4.32 9.21 4.32 9.21l-.293-3.457s-1.147-3.435 2.595 2.025c3.743 5.467 23.31 16.687 23.31 16.687s-3.742 2.588-6.907 12.098c-3.165 9.495 3.742 20.715 1.44 35.977-1.508 9.99-9.21 19.568-14.393 22.44-5.182 2.888-6.33 5.183-6.33 5.183l5.753 3.165s.87-1.433 2.302-2.873c1.44-1.447 0-1.447 3.735-1.447 3.743 0 4.898-5.168 7.2-10.065 2.303-4.89 10.65-13.815 10.65-13.815 3.458-5.183 2.588-4.598 2.018-7.2-.578-2.58-1.733-5.175-.293-10.358 3.645-13.11 16.125-21.592 16.125-21.592v5.182c0 10.943 3.165 12.09 12.375 25.05 9.21 12.953 6.908 28.785 6.045 36.548-.862 7.762-4.32 10.65-4.32 10.65l2.303 8.347s.292-.862 1.155-2.587c.862-1.733 2.587-5.468 4.32-6.623 1.717-1.162 2.287.585 2.002-6.9-.285-7.485.285-14.692 2.018-25.05 1.725-10.357.862-7.762-2.595-17.55-3.45-9.787-1.148-10.942 1.732-17.272 2.873-6.338 4.605-11.805 4.605-11.805s2.588.292 2.303-2.888c0-7.192-5.76-13.515-16.41-23.302-10.65-9.788-12.375-19.86-12.375-19.86h.285c-1.44-5.483 2.017-2.873 2.017-2.873-1.725-6.345 2.295-13.245 2.295-13.245-2.595-5.182-2.295-6.915-2.295-6.915l2.295-1.432c-3.157-10.08-2.295-10.65-2.295-10.65l2.295-.585c-.277-5.175.285-9.203.285-9.203l2.88.293s-.285-6.338 1.44-14.4c1.725-8.055 3.743-3.735 0-19.86 9.788-2.873 9.21-7.763 9.21-7.763s-4.89-2.595-10.935-2.595c-6.045 0-3.742-3.165.57-3.457" fill="#86473f"/><path d="M362.418 124.929l2.88 2.302 1.147-4.012c.375 1.14 3.84 3.63 3.84 3.63l.953-3.075 2.88 4.995 2.302-1.725c.765 1.92 3.45 2.88 3.45 2.88l1.725-3.645s-2.107-4.028.578 0c2.685 4.027 5.565 3.442 5.565 3.442l.96-2.872 3.84 4.027 2.107-3.06c2.115 7.47 4.598 10.74 4.598 10.74l1.35-.57c.57 5.183 2.302 8.055 2.302 8.055l1.53-4.41s.773 4.028 1.538 7.868c.765 3.84 2.107 5.752 2.107 5.752l.765-3.457 2.88 5.947c5.753-39.705-11.325-57.757-17.655-65.43-6.337-7.68-20.91-12.862-30.705-13.432-9.787-.57-8.242 9.787-.765 14.19 5.843 3.457-3.832 11.137-3.832 11.137s-.99-1.507-2.183-3.345l-.12.075s-.195.78.383 2.303c.57 1.537.57 2.887.57 2.887l-1.343.188s-.187 1.35-.57 2.49c-.382 1.155.57 2.692.57 2.692l-2.685-2.295-.57 3.248-2.88-1.913-.96 2.88-2.115-1.92-1.342 1.92-2.303-1.155-1.342 2.888-2.1-2.7-1.92 2.7-1.343-2.888-.39.765-1.147-1.732-1.343 3.27s-.96-2.49-2.302-2.685c-1.343-.188-1.733-.188-2.295-.585-.578-.383-.578-3.06-.578-3.06l-1.92.57 1.92-8.438.195.188c-6.525-4.785-11.707-8.445-9.217-17.265 1.732-6.533-4.988-13.433-21.105.187-18.615 17.655-24.18 50.468-22.838 71.76l3.068-6.135 1.35 1.538 2.872-5.948 1.335.953s4.8-4.598 5.76-8.438c.96-3.84.195.57.195.57l1.148 1.733s1.155.757 2.302-1.35c1.155-2.108 4.8-8.82 4.8-8.82s-.577 3.637 1.538 4.41c0 0 2.482-.758 4.597-4.598l1.53 2.303s3.653-1.538 4.418-3.653l.96 3.075s3.832-2.692 5.565-5.37l1.725 3.833s2.497-1.538 3.645-4.028l4.222 3.06s-1.92 2.7.96 6.158c-.382 2.295 0 6.517 0 6.517l-.765 3.458c-.39 1.725-.772 3.262-.577 5.362.187 2.108.96 4.028 3.262 4.41 2.303.39 3.068.96 5.565 1.358 2.498.382 4.41-.203 6.525-.773 2.1-.57 2.873-2.685 2.685-4.222-.187-1.538-.382-1.155-.382-3.84 0-2.693-.96-4.8.96-4.8s2.302-.765 3.645 2.31c1.342 3.067 1.342 2.302 1.342 5.557 0 3.263 0 5.37 1.913 5.768 1.92.382.96.765 4.41.555 3.457-.173 4.035-.173 6.337-.375 2.303-.18 3.833-1.523 4.41-3.255.578-1.725.383-2.49.195-4.028-.195-1.537.578.57-.772-2.677-1.343-3.27-2.685-8.453-3.068-11.52-.375-3.075-.96-6.135-.765-9.21m-36.532 41.685v-8.055l39.72-.713v8.055l-39.72.713" fill="#86473f"/><path d="M332.86 155.169s1.733.66-2.685 3.442c-4.41 2.783-7.29 2.88-7.29 5.37 0 2.498.48 2.595.48 2.595s1.343-.097 2.685 0c1.343.09 2.783.383 3.458.09.667-.277 1.725 1.155 3.352.773 1.635-.375 3.36-1.245 3.36-1.245s-.097 0 1.343.472c1.44.48.862.383 2.88 0 2.01-.382 3.36-.765 3.36-.765s2.392-2.865-.765-4.785c-3.173-1.92-4.515-2.212-4.995-2.595-.48-.382-.863-1.627-1.05-2.595m18.517.195s1.628 1.245-1.822 3.263c-3.458 2.01-5.76 1.245-6.045 4.117-.248 2.445.48 3.165.48 3.165s1.44-.292 2.782-.382c0 0 .57-.188 1.343-1.628.765-1.432 3.067-3.262 3.067-3.262s.96-.488.293 2.212c-.675 2.678 1.05 3.54 1.05 3.54l2.115-.187s.18-1.725.277-2.678c.098-.967 0-2.79 0-2.79s.383-.187 1.343.765c.96.968 1.155 1.155 1.725 2.888.577 1.71.48 1.522.862 1.522.39 0 2.31-.472 2.31-.472s2.393-2.693.285-4.23c-2.115-1.523-5.467-2.58-6.81-5.55" fill="#ffef6f"/><path d="M365.898 162.699l10.755-2.61.27.922 3.187-2.655-4.11-.495.24.848-10.68 2.58m.398 4.485l15.165 3.615-.18.952 4.057-.922-3.45-2.303-.165.87-15.09-3.622m-.045-.045l19.635-.218.06.878 3.698-1.905-3.915-1.358.06.938-19.568.232m24.09 118.065v-51.997h-94.935l.068 45.082c2.115 0 3.84-.187 6.907 1.733 3.075 1.92 4.028 2.677 6.135 3.075 2.108.382 2.108 0 4.418.952 2.295.968 1.147 1.155 3.645.968 2.49-.21 4.41-.78 5.947-.21l67.808.397" fill="#ffef6f"/><path d="M326.148 289.389c1.537-.758 2.302-.953 3.645.195 0 0 1.155-5.363 1.342-6.525.195-1.14 2.303-6.908 2.303-6.908s.195 2.295.375 6.15c.195 3.825-.563 5.55 1.92 6.135 2.497.57 4.035 0 4.035 0s-1.538-.397-1.538-3.075c0-2.677-.96-12.667-1.147-13.815-.188-1.155-.188-3.075-.188-3.075l.758-3.06s1.537.188 3.457 0c1.92-.202 2.685-.967 3.45-.967.773 0 1.733-.383 1.733-.383l.382-1.327s-2.497-.383-4.605-.383c-2.115 0-4.035-.78-4.035-.78s-.375-.382-.562-1.725c-.195-1.335-1.92-2.872-1.92-2.872s.757-.765.757-1.92c0-1.155.96-1.725.195-3.075-.765-1.335-1.147-2.303-3.075-1.718-1.912.563-1.912.383-2.677 2.303-.765 1.92-.383 1.717-.195 2.677.195.953-.188 1.35-.188 1.35s-1.155-1.155-1.725-.202c-.577.967-1.155 1.537-1.155 1.537l-2.107.188-.578-2.108s-.382-.952-.577-2.107c-.195-1.148-.96-4.223-.96-4.223l-1.343-1.537s-.757 1.92-.57 2.505c.188.57.96 2.49.96 4.012v4.808s0 1.92 1.913 2.302c1.92.375 4.222.375 4.222.375s.578.765.765 4.028c.195 3.27 0 .967.195 2.7.188 1.725-.195.952-.577 4.41-.383 3.457-1.343 7.672-1.725 9.195-.383 1.537-.96 6.915-.96 6.915" fill="#86473f"/><path d="M253.42 261.384l-5.377 4.98s5.76 8.437 1.155 20.73c-4.605 12.27.765 16.11.765 16.11s-2.303-8.82 3.075-22.253c5.37-13.432 4.207-13.83.375-19.567m-60.638 59.107c1.92-3.075 4.223-11.91-.765-16.507l-1.155 1.155.39 11.115 1.148 2.7m8.445-21.885c2.685-10.74.382-13.058 2.685-26.865 2.302-13.815.765-28.013 6.525-26.093 5.76 1.92 13.05 5.76 11.895 14.573-1.148 8.835-7.29 21.495-13.043 29.167-5.76 7.68-8.062 11.895-7.68 7.68" fill="#b37535"/><path d="M200.838 267.901c5.332-8.895-.383-21.487 8.062-26.865 8.438-5.377 4.988-3.457 4.988-3.457s-14.588 1.537-15.353 18.81c-.772 17.272 1.148 13.432 2.303 11.512m33.772-56.047c-8.04 22.132-10.747 30.322-6.525 34.56 4.223 4.215 10.748 3.832 16.89-5.378 6.143-9.217 9.593-21.87 10.358-24.945.772-3.075.39-4.995 6.915-2.302 6.525 2.685 14.962 5.76 18.802 6.9 3.84 1.155 7.283 0 6.9 13.05-.375 13.05-2.295 11.512-1.522 18.052.757 6.518-.773 12.27 3.067 13.418l-.382-46.823s-18.428-7.29-21.113-9.21c-2.685-1.92-6.907-22.65-12.667-33.382-5.753-10.755-14.198-18.428-19.568-26.865-5.377-8.453-5.76-12.675-1.92-10.755s7.673 6.915 14.58 7.68c0 0-3.45-3.068-5.37-5.378-1.92-2.302-3.075-3.442-1.155-3.442 1.92 0 3.84.382 3.84 2.295 0 1.92-.382 1.92 3.068 3.067 3.457 1.155 5.377 0 1.92-1.92-3.45-1.92-3.45-5.745-3.45-5.745s3.84.765 6.142 2.303c2.303 1.522 3.833 3.442 3.833 3.442l6.142-3.06s-1.537-.78-4.987-.78c-3.458 0-8.445-2.287-9.6-3.442-1.148-1.155-6.135-6.135-12.66-4.598-6.525 1.538-8.063 3.833-8.063 3.833H225.4l1.155 1.92s-1.92 1.522-2.31 5.362c-.375 3.84 1.92 1.92 1.92 1.92s1.155 1.92 1.538 8.835c.382 6.9-1.538 4.215-1.538 9.593 0 5.377.39 6.517.39 6.517s1.53-4.597 1.913.383c.39 4.98-1.148 8.437 2.692 14.205 3.833 5.745 3.45 9.585 3.45 9.585l-3.84-3.84s2.693.765.383 8.835c-2.295 8.055 1.147 7.282 1.147 7.282s2.303.773.765 4.23c-1.53 3.458 1.92 1.14 1.92 1.14s1.155-.757-.382 3.458m-26.858-84.81s5.76-3.825 10.748-2.685c4.987 1.162 7.672 6.142 7.672 6.142s-7.29 3.458-9.975 1.913c-2.685-1.538-8.445-5.37-8.445-5.37m-17.655-15.735c6.525 0 9.593-1.14 10.748-6.518-.383 5.378 2.685 5.378-10.748 6.518m10.365-9.975c-3.097 0 7.29-2.303 8.828-6.135 1.53-3.84 1.53-3.083 0 1.14-1.538 4.215-1.92 4.995-8.828 4.995m273.263 183.06c-6.825-10.71-6.143-13.035-6.525-21.09-.383-8.07-2.685-8.453-.383-13.83 2.303-5.363 12.668-8.438 14.97 0 2.303 8.452 4.988 13.05.383 23.025-4.605 9.975-5.76 16.132-8.445 11.895m-11.895-22.628s-3.84-3.457-9.983 6.9c-6.142 10.365-8.445 9.593-8.827 17.648-.383 8.07.765 13.05.765 13.05l3.075-.383s-2.303-8.437-.765-12.667c1.53-4.215 4.987-11.115 9.21-14.955 4.222-3.84 6.907-6.533 6.907-6.533l-.382-3.06m-28.02-45.675s.765 11.895 9.592 18.81c8.828 6.893 13.05 10.35 16.125 7.658 3.068-2.678 4.598-2.678.375-11.895-4.222-9.195-6.9-16.11-6.9-19.185v-11.52l2.678 4.237-.375-12.292 2.302 1.537s-.772-3.457-1.155-8.055c-.382-4.612-.382-7.297-.382-7.297l2.685 2.685s-.765-6.518-1.92-10.74c-1.148-4.215-.765-2.303-.765-2.303l3.067 1.905 1.155-8.437 1.538-9.975s1.147-1.14 1.92-7.29c.757-6.143 1.147-7.68 1.147-7.68s1.913 0 6.518-.758c4.605-.765 10.365-4.605 10.365-4.605s-5.76-3.832-12.285-1.537c-6.525 2.302-8.063 2.302-8.063 2.302s-4.98-4.98-9.202-2.302c-4.223 2.685-6.908 5.377-11.13 5.76-4.223.382-10.748-.383-12.66 3.06-1.92 3.457-3.84 6.15-.39 7.297 0 0 0-4.605 2.302-5.377 2.303-.765 5.76-1.92 5.76-1.92s6.908-.383 9.975-2.303c3.068-1.912 4.988-3.442 8.055-3.06 3.075.383 5.76-1.155 3.458 3.06-2.303 4.238-6.135 4.995-6.135 4.995s3.06.765.757 4.995c-2.302 4.223-4.98 5.363-6.135 6.9-1.147 1.53-4.987 6.915-4.987 6.915l4.987-1.155-8.835 12.668 4.613-1.538-4.223 3.84 2.303.765-7.298 8.828s-.375 2.685-3.832 6.525c-3.45 3.832-3.84 3.45-5.37 5.37-1.53 1.92-3.068 4.605-3.068 4.605s-3.457 5.37-9.592 7.672c-6.143 2.303-13.823 4.598-13.823 4.598s-1.53 5.377-1.147 18.427c.382 13.058.382 18.413.382 18.413s1.538-.758 1.92-11.513c.383-10.732-3.457-20.707 7.29-23.025 10.748-2.302 17.655-5.362 25.335-5.745 7.673-.375 9.593 1.148 5.753 3.068-3.84 1.912-5.37 2.295-5.37 2.295s2.302-2.295 2.685 2.302m-50.663-28.012s-.382-8.438 4.223-8.813c4.605-.382 4.987-.382 10.365 4.598 5.37 4.98 4.98 8.835 3.832 10.755l-5.37-8.835-13.05 2.295m62.558-78.675s7.68 0 8.827 3.075c1.148 3.067 3.075 12.66 3.075 12.66s4.598 2.692 7.673.772c3.067-1.912 1.53-1.912 5.37-4.23 3.832-2.302 16.5-7.68 16.5-7.68s-3.068-.757-1.155-3.06c1.92-2.295-.375 1.148-.375 1.148s-6.525 3.457-9.21 3.832c-2.685.383-2.303-1.522-1.148-2.677l-8.445 2.302s-2.302-.382-1.155-3.067c1.155-2.693 3.84-4.995 3.84-4.995s-4.987-1.538-6.142 3.457c-1.14 4.98-.758 10.74-.758 10.74h-3.067s-.39-3.457-1.155-7.282c-.765-3.84-3.84-11.91-3.84-11.91s1.155 4.237-.383 6.157c-1.537 1.913-8.445.758-8.445.758m-24.57-11.13s4.223 4.98 7.298 6.915c3.067 1.92 9.592 2.677 9.592 2.677l-4.605-10.74.765 7.665s-9.975-3.84-13.05-6.517" fill="#b37535"/><path d="M419.215 111.309s6.143 3.84 9.6 5.377v-3.457s3.45 3.457 9.203 5.752c5.752 2.303 7.29 1.92 16.5 1.148l-.758 1.92s-9.21 0-13.815-.765c-4.605-.758-9.21-3.84-9.21-3.84l1.148 2.685s-.765.757-3.45-.383c-2.693-1.14-9.6-7.282-9.6-7.282m-91.92 176.542s1.155-6.322 1.732-8.827c.57-2.49.953-4.793 1.343-6.713.375-1.92 1.147-2.692.765-3.84-.383-1.155-.195-.757-.383-2.49-.195-1.725-.772-3.457-.772-4.612 0-1.14-.57-.953.577-2.093 1.155-1.155 1.92-4.237 2.498-.967.577 3.27.577 3.457.577 3.457l2.678-4.612.577.39-3.255 5.76s-.577-.78-.577 2.107c0 2.873.757 4.41-.195 4.98-.96.585-.765 1.733-.188 2.115.57.375.383.57-.577 3.075-.96 2.49-1.725 5.565-2.115 7.29-.383 1.718-1.148 4.793-1.148 4.793l-1.537.187m9.022-1.155s.188.78-.195-3.247c-.382-4.05-.96-8.078-.96-8.078l.773-2.49s-.578.57.187 3.458c.773 2.887.96 6.517 1.155 8.055.188 1.545.758 2.7.758 2.7l-1.725-.383m.195-34.177s-1.53 0-2.108-.758c-.577-.765-1.155.188-1.155.188s-.382.952 0 1.92c.39.952.773 1.92.773 1.92h1.725l1.155-1.523-.39-1.747" fill="#b37535"/><path d="M332.29 268.869s1.92.555 2.873.382l.96-.21-2.303.78h1.148l-3.06 1.905m-9.6-17.655s1.155.78 1.155 2.888c0 2.107 1.725 4.597 1.725 4.597s-2.303.78-2.685-1.14c-.383-1.92-.195-6.345-.195-6.345" fill="#b37535"/><path d="M328.645 100.554s6.135-9.195 2.49-12.653c-3.645-3.457-4.222-3.075-4.222-3.075s-.765-.57-.765-1.92c0 0-1.155-.187-2.88.188-1.725.382-1.92-1.14-1.148-3.63.765-2.505 3.45-4.613 8.25-2.693 0 0 2.468-2.227 6.525-.765 4.793 1.725 9.015 3.84 11.513 10.358 2.497 6.532 3.067 6.915 4.417 8.835.72 1.02 2.378 3.54 3.765 5.662l-.12.075s-.195.78.383 2.318c.57 1.522.57 2.872.57 2.872l-1.343.188s-.187 1.35-.57 2.49c-.382 1.155.57 2.692.57 2.692l-2.685-2.295-.57 3.248-2.88-1.913-.96 2.88-2.115-1.92-1.342 1.92-2.303-1.155-1.342 2.888-2.1-2.7-1.92 2.7-1.343-2.888-.39.765-1.147-1.717-1.343 3.255s-.96-2.49-2.302-2.685c-1.343-.188-1.733-.188-2.303-.57-.57-.383-.57-3.075-.57-3.075l-1.92.57 1.92-8.438.188.188m34.725 34.942c4.027 4.028 12.66 8.438 8.25 9.975 0 0-2.115.383-3.458-.952-1.342-1.35.195.555.195.555s0 1.537-1.342 1.92c0 0-2.88-5.55-3.645-11.498m-13.815 13.223c-1.92 0-5.76.322-5.76-3.818 0-1.545-.96-1.92.765-2.505 1.732-.577 1.342-2.1 2.88.773 0 0 2.295 3.06 2.115 5.55m-27.3 99.802l-.143-.187-.015.015.158.172m.045 6.518v-.383c0-1.522-.765-3.457-.96-4.027-.083-.263.022-.788.172-1.305l-.555.922 1.155 3.068.188 1.725m9.555 25.575l1.875.015c-.165-2.828-.3-4.478-.3-4.478s-.893 2.445-1.575 4.463m-3.03-7.335c.382-3.458.765-2.7.577-4.41-.195-1.748 0 .555-.195-2.7-.187-3.263-.765-4.028-.765-4.028s-2.302 0-4.222-.375c-1.92-.382-1.92-2.302-1.92-2.302v-2.333c-.473.81-1.958 2.918-5.565 5.01-4.598 2.685-4.98 5.378-1.92 5.378 3.075 0 2.302-1.538 6.142 1.537 3.84 3.06 3.458 2.685-3.84 1.148-7.29-1.538-5.362-1.538-8.445-.765-3.067.765-4.98 1.14-2.302 2.302 2.692 1.155 4.995 2.295 1.92 3.075a38.975 38.975 0 01-5.948.953c3.075 1.92 4.028 2.677 6.143 3.075 2.107.382 2.107 0 4.417.952 2.295.968 1.148 1.155 3.645.968 2.49-.21 4.41-.78 5.948-.21l5.047.03c.443-1.973 1.005-4.83 1.283-7.305" fill="#fff"/><path d="M385.443 248.334c-3.84 1.14-5.753 1.537-6.908-1.545-1.155-3.075-5.76-1.913-7.672-1.14-1.92.765-4.613 1.14-5.76 1.14-1.148 0-5.37-2.678-3.068-3.45 2.303-.765 1.148-6.143-5.37-3.84-6.525 2.295-11.512 1.537-6.907 3.457 4.597 1.92 7.29 4.995 1.92 6.518-5.37 1.537-7.29 3.457-9.21 3.84-1.92.375-1.538 1.155-3.84-2.303-2.303-3.457-3.458-6.135-6.908-3.457-3.457 2.692-2.685 4.995-4.222 6.135-1.538 1.162-2.685 1.162-2.685 1.162l-1.305-4.237c.24.997.607 2.535.727 3.27.195 1.155.578 2.107.578 2.107l.577 2.123 2.108-.203s.577-.57 1.147-1.537c.57-.953 1.725.202 1.725.202s.383-.382.188-1.342c-.188-.953-.57-.765.195-2.685.765-1.92.765-1.725 2.685-2.303 1.92-.585 2.302.383 3.075 1.718.765 1.35-.195 1.92-.195 3.075 0 1.155-.765 1.92-.765 1.92s1.725 1.537 1.92 2.872c.187 1.343.57 1.725.57 1.725s1.92.78 4.035.78c2.107 0 4.605.383 4.605.383l-.383 1.327s-.96.383-1.732.383c-.765 0-1.53.765-3.45.967-1.92.188-3.458 0-3.458 0l-.765 3.06s0 1.92.188 3.075c.127.765.585 5.303.885 9.113l52.342.292V246.4s-1.027.757-4.867 1.92m-42.6 103.634c-39.533.765-60.255-4.223-93.263-16.508-33.007-12.277-34.162 2.295-44.52 10.373l-3.945 5.347c.81-.367 1.575-.72 2.325-1.072l.465.322c33.008 30.323 66.78 61.215 138.938 61.598 70.237-.765 101.707-31.658 134.715-61.98l.525-.398c.787.383 1.59.765 2.437 1.148l-3.345-5.73c-10.365-8.07-14.205-19.583-41.07-9.608-33.015 12.263-53.73 17.273-93.262 16.508v16.89c60.42-.338 84.21-11.483 99.787-18.578-19.5 15.78-45.99 40.245-99.787 38.715-53.993 1.53-84.615-22.747-104.213-38.49 16.305 7.013 43.343 18.015 104.213 18.353v-16.89" fill="#fff"/><path d="M371.77 280.921a6.233 6.233 0 001.56-4.14 6.309 6.309 0 00-6.307-6.315 6.309 6.309 0 00-6.308 6.315 6.26 6.26 0 001.313 3.848m-17.01-2.43h14.25v-1.493h-14.25v1.493zm14.205-3l-12.503-1.515-.135 1.147 12.495 1.508.143-1.14m.352-1.553l-13.177-5.835-.465 1.058 13.177 5.827.465-1.05m.93-1.47l-10.815-6.442-.585.982 10.815 6.443.585-.983m.953-1.29L350.47 258.79l-.855.78 10.995 12.097.848-.78m1.455-.968l-7.29-10.268-.938.66 7.283 10.283.945-.675m1.387-.788l-5.992-18.015-1.088.353 5.985 18.03 1.095-.368m1.71-.277l-2.497-12.353-1.133.24 2.505 12.33 1.125-.232m1.59-.15l1.823-18.908-1.148-.12-1.815 18.915 1.14.113m1.688.412l2.707-12.292-1.125-.248-2.707 12.308 1.125.232m1.522.51l9.315-16.567-1.005-.555-9.315 16.552 1.005.57m1.365 1.058l7.455-10.133-.93-.69-7.447 10.148.922.675m1.193 1.087l15.217-11.37-.69-.922-15.217 11.37.69.922m.817 1.538l10.92-6.27-.57-.998-10.92 6.255.57 1.013m.653 1.447l12.817-2.932-.255-1.11-12.817 2.932.255 1.11m.127 1.74l12.525-1.312-.12-1.148-12.525 1.305.12 1.155m.008 1.598l11.67 2.257.217-1.125-11.67-2.257-.217 1.125" fill="#ffb935"/><path d="M342.558 63.631c25.327 0 52.672 6.323 73.395 17.265 0 0 2.017 0 3.457-2.88 1.44-2.872 2.018-3.165 2.018-3.165s11.512 10.073 17.257 12.098c0 0-2.587-5.475-2.587-11.805l13.815-4.028c-10.073-4.605-22.448-12.382-28.785-19.297-6.33-6.9-16.695-9.488-17.843-3.443-1.147 6.038-2.595 8.048-2.595 8.048s-24.172-9.495-58.14-9.495c-33.96 0-58.14 9.495-58.14 9.495s-1.44-2.01-2.595-8.048c-1.147-6.045-11.512-3.457-17.842 3.443-6.338 6.915-18.713 14.677-28.785 19.297l13.815 4.028c0 6.33-2.588 11.805-2.588 11.805 5.745-2.025 17.258-12.098 17.258-12.098s.577.293 2.017 3.165c1.44 2.88 3.458 2.88 3.458 2.88 20.722-10.942 48.067-17.265 73.402-17.265" fill="#ef1439"/><path d="M232.503 130.876c3.067-.187 4.605-1.71 7.29-.757 2.685.967 4.027 1.725 6.142 3.645 2.1 1.92 1.148.952 1.148.952s-2.49-.952-3.45.195c-.96 1.155-4.418 1.343-5.565 0-1.155-1.335-.773-1.92-2.303-2.302-1.537-.383-2.302-.195-4.417-.953-2.108-.78-2.108-.967-2.108-.967l4.988.78c1.342.172 2.302-.21 3.262.945.96 1.147.578.967 1.343.382.757-.57 1.342-1.537 1.92-1.155.57.383 2.1.203 1.53 1.538-.578 1.35-.383 1.35-.383 1.35s.57-.383 1.53-.57c.96-.195 1.343-.195 1.343-.195s-3.833-1.92-4.8-2.505c-.945-.57-1.905-.758-3.833-.57-1.912.187-3.637.187-3.637.187m31.087 6.728c-1.732-.383-1.732.382-3.645 1.14-1.92.765-3.075 1.162-3.075 1.162s1.538 1.14 2.88.758c1.343-.383 3.45-1.155 4.605-1.155l-.765-1.92m-53.16-10.358c2.498-1.14 2.115-1.335 5.378-.757 3.255.57 4.98.375 6.705 2.692 1.725 2.303-3.255 1.92-4.598 1.14-1.342-.757-7.29-1.92-8.062-3.075m223.372 16.41c-3.45 4.89-7.005 1.065-4.027-2.302 1.08-1.215 1.485-1.35 2.302-1.785 2.04-1.133 4.32-1.38 4.32-1.38s-3.742 1.23-5.04 2.812c-1.297 1.583-.217 1.433-.502 2.52-.293 1.073-.143 1.013.72.353.862-.645 1.005.075 1.582-1.14.578-1.238 1.223.127.645.922m12.285-7.77c2.49-1.725 4.223-3.075 5.753-3.457 1.537-.375 2.692-.188 4.035.382 1.342.585 1.92.968 1.92.968l-3.263-.383s-1.155 4.605-2.88.578l-2.88.952-2.685.96m18.998-1.912c.96-.765.765-1.163 3.067-1.733 2.303-.57 2.685-1.35 4.223-.967 1.537.382 4.417.967 4.417.967s-2.115 1.733-5.76 1.733h-5.947M330.37 76.681c2.303.953 4.125 1.71 7.673 4.013 3.555 2.317.48 1.83-.57.967-1.058-.862-1.733-.765-1.733-.765s-1.44 1.523-2.302-.375c-.863-1.92.195-1.44-.863-2.13-1.057-.667-2.782-1.62-2.782-1.62l.577-.09m-2.685 88.845c0-2.115-.195-3.082.765-3.945.96-.847 3.158-2.002 3.158-2.002s-1.62.277-2.1 2.782c-.48 2.49-.96 3.54-.48 4.118l-1.538-.09.195-.863m7.77.668c.383-.375.863-.96.383-2.295-.48-1.35-1.148-2.888-.675-3.165.48-.293.772-.488 1.057 1.14.293 1.627 0 3.36 1.058 4.41l-.96-.383-.863.293m-12.187.577l.96 1.433.765-1.523m6.337.66s.668.57 1.05 1.92c.39 1.343.39.773.39.773s.375-.968.563-1.35c.195-.375.39-1.245.39-1.245l-2.4-.098m8.64-.487c.382.585.96 2.13.96 2.13s.097-.383.577-.968c.48-.577.66-1.627.66-1.627l-1.905.292m7.958-.105c-.188.488.48 2.108.48 2.108l1.252-2.108h-1.732m8.257.675l1.44 1.905.668-2.197-2.108.292m6.045-.57l1.343 2.093s.097-.09.48-.758c.382-.675.862-1.822.862-1.822l-2.685.487m-16.792 95.46l.96-5.565.57.195-.765 5.565m-1.343 2.108l-2.107 16.507-.96 1.733-.773.375.578.577-1.14 4.215 1.522.383.773-4.98s.765-1.35 1.147-2.888c.383-1.537 1.725-16.11 1.725-16.11m-19.762 25.133s2.107-1.14 3.45-.188c1.35.968-.188 1.538-.953 1.538-.772 0-2.497-1.35-2.497-1.35m13.627-.758l.383.57s-.578.188-2.498.188c-1.92 0-3.067-1.14-3.067-1.14M277.6 329.394l-1.537-3.443-4.688 4.29 1.23-1.23-8.632-.847s4.027.847 4.89 1.44c.772.51 1.537 1.245 1.695 1.387l-.353.323 7.395-1.92m-80.985 18.045c2.303.292 6.908-.293 7.77-.863l-1.147 4.898-1.733.57-4.89-4.605m223.658-14.4l.285-1.14-5.175-4.32-2.303 3.165 7.193 2.295m57.862 7.207l4.313 2.58-1.148 1.748-3.457-1.748.292 6.915-1.44-5.76-1.732-.862 3.172-2.873m-233.04 5.73c-.217.645.188 1.185.788 1.395.57.173 1.192-.09 1.387-.675.285-.877-.367-1.395-.96-1.83-.48-.352-.892-.66-1.155-1.2a2.438 2.438 0 01-.127-1.762c.435-1.335 1.852-1.935 3.142-1.523 1.245.413 2.033 1.815 1.605 3.075l-1.537-.495a.938.938 0 00-.63-1.147c-.495-.158-.938.105-1.08.592-.21.585.262.99.69 1.313.502.382.997.735 1.327 1.26.428.645.51 1.335.248 2.13-.473 1.432-2.033 2.167-3.465 1.68-1.38-.45-2.265-1.92-1.8-3.323l1.567.51m7.005-4.132l1.5.487-2.64 8.085-1.5-.487 2.64-8.085m12.593 13.2c-.773-.188-1.44-.66-1.913-1.29-.772.21-1.74.135-2.52-.113-2.332-.735-3.742-3.195-2.992-5.572.375-1.155 1.08-2.078 2.145-2.618a4.547 4.547 0 013.472-.277c2.348.742 3.773 3.187 3 5.625-.33 1.035-.885 1.77-1.8 2.325.195.21.525.412.795.502l.24.068-.427 1.35m5.37-7.485l-1.523 5.085c-.112.367-.247.757-.172 1.14.097.487.397.877.87 1.027.397.113.87.015 1.2-.262.345-.308.457-.735.585-1.163l1.522-5.077 1.508.45-1.523 5.085c-.24.802-.532 1.537-1.252 2.017-.72.473-1.65.66-2.475.413-.773-.233-1.455-.893-1.793-1.613-.39-.847-.232-1.62.023-2.475l1.522-5.077 1.508.45m9.915 2.917l3.765 1.005-.398 1.47-2.437-.645-.503 1.89 2.31.615-.39 1.478-2.317-.615-.503 1.89 2.438.645-.398 1.477-3.952-1.05.57-2.13-2.183-.57-1.845 1.778-1.77-.473 7.62-6.765m6.21 1.523l2.408.51c.772.195 1.515.397 2.017 1.057.495.63.69 1.478.525 2.258-.135.615-.577 1.297-1.08 1.665-.495.352-1.05.472-1.65.472l1.583 3.555-1.898-.405-1.492-3.652-.683 3.18-1.545-.338 1.815-8.317m6.833 1.417l1.552.293-1.515 8.37-1.552-.278 1.515-8.385m3.615 6.833c-.098.667.39 1.14 1.02 1.23.592.082 1.155-.285 1.245-.915.127-.923-.6-1.298-1.26-1.62-.533-.263-.99-.503-1.35-.983-.345-.487-.51-1.147-.428-1.717.203-1.388 1.493-2.228 2.835-2.033 1.298.188 2.318 1.433 2.115 2.753l-1.612-.233c.06-.532-.323-.952-.818-1.027-.51-.06-.9.277-.96.78-.097.615.435.937.915 1.17.563.292 1.11.555 1.53 1.012.533.57.728 1.23.608 2.048-.218 1.492-1.628 2.475-3.12 2.272-1.433-.225-2.565-1.507-2.348-2.977l1.628.24m8.895 3.51l.682-8.483 1.995.165c.818.06 1.59.09 2.25.63a2.6 2.6 0 01.953 2.228c-.06.832-.473 1.612-1.178 2.077-.742.51-1.732.383-2.565.308l-.307-.015-.255 3.21-1.575-.12m7.447-7.965l4.56.217-.075 1.538-2.992-.158-.098 1.958 2.865.15-.082 1.522-2.858-.15-.105 1.965 2.993.15-.083 1.523-4.56-.233.435-8.497m6.338.322l1.77.06 3.36 6.308.187-6.21 1.575.045-.255 8.497-1.747-.045-3.383-6.3-.187 6.195-1.575-.037.255-8.513m8.902.233l1.575.03-.157 8.497-1.575-.03.157-8.497m3.615.075l1.778.015 3.472 6.255.068-6.21 1.575.015-.09 8.505-1.755-.03-3.495-6.225-.068 6.195-1.582-.023.097-8.497m9.908 6.21c-.008.675.54 1.065 1.177 1.065.6 0 1.11-.435 1.11-1.05.008-.938-.772-1.215-1.477-1.455-.563-.188-1.043-.345-1.463-.788a2.413 2.413 0 01-.66-1.642c.008-1.388 1.163-2.4 2.52-2.4 1.313.015 2.49 1.095 2.475 2.43h-1.627c-.015-.54-.45-.893-.945-.893-.518 0-.855.383-.848.893-.007.615.555.862 1.065 1.042.6.203 1.17.383 1.65.788.608.487.893 1.117.885 1.935-.007 1.522-1.267 2.685-2.775 2.685-1.447-.015-2.745-1.148-2.737-2.625l1.65.015m6.93-6.113l.075 5.303c0 .382-.015.795.172 1.147.24.435.645.72 1.133.72a1.333 1.333 0 001.057-.622c.24-.39.225-.833.218-1.283l-.075-5.302 1.575-.015.075 5.302c.015.833-.045 1.635-.593 2.31-.54.66-1.372 1.118-2.235 1.133-.81.015-1.65-.413-2.19-.998-.63-.705-.712-1.477-.727-2.377l-.06-5.303 1.575-.015m6.142-.112l1.575-.06.24 6.975 2.603-.09.052 1.522-4.177.15-.293-8.497m8.243-.353l1.23-.075 4.065 8.28-1.733.098-1.042-2.138-3.015.18-.81 2.25-1.74.09 3.045-8.685m5.977-.367l2.145-.203 2.88 6.27 1.688-6.697 2.13-.188.795 8.468-1.568.142-.585-6.352-1.597 6.562-1.335.113-2.783-6.135.593 6.345-1.568.142-.795-8.467m16.988-1.92l1.215-.173 4.792 7.898-1.725.247-1.23-2.04-2.985.443-.607 2.302-1.718.263 2.258-8.94m5.895-.893l2.115-.397 3.465 5.947 1.042-6.825 2.108-.397 1.59 8.37-1.538.277-1.2-6.255-.96 6.675-1.312.255-3.36-5.85 1.2 6.255-1.545.308-1.605-8.363m18.96 4.643l-.225-.908c-.398.833-1.53 1.508-2.4 1.733-2.348.57-4.658-.953-5.228-3.255-.57-2.355.758-4.748 3.128-5.333.885-.217 2.175-.142 2.925.443l-.225-.938 3.96-.967.367 1.477-2.452.6.465 1.905 2.332-.57.36 1.478-2.325.57.473 1.905 2.445-.6.367 1.492-3.967.968m3.562-9.728l1.695-.495 5.168 4.95-1.77-5.962 1.515-.45 2.422 8.16-1.68.495-5.182-4.92 1.762 5.932-1.507.45-2.423-8.16m11.138-3.457l1.17-.39 6.112 6.915-1.642.555-1.575-1.785-2.858.96-.187 2.392-1.65.555.63-9.202m5.662-1.928l2.01-.765 4.448 5.258-.158-6.9 1.995-.758 3.03 7.935-1.47.578-2.272-5.963.217 6.75-1.245.473-4.32-5.175 2.273 5.962-1.478.54-3.03-7.935m-178.267 31.388c.24-1.35.367-3-1.103-3.983-1.71-1.125-3.367.218-4.417 1.815-1.268 1.92-1.928 4.238-.158 5.393 1.35.892 2.783.09 3.99-.585l1.478 1.725c-1.598 1.26-4.08 1.762-6.863-.09-3.15-2.078-4.53-5.34-2.325-8.685 2.205-3.323 5.76-3.338 8.505-1.523 1.208.795 1.5 1.493 1.71 2.01l.45-.322 1.298.862-.488 4.163-2.077-.765m4.215 9.39l.472.277c.885.503 1.545.81 2.04-.09l3.158-5.55c.502-.877-.098-1.29-.983-1.785l-.465-.262.728-1.29 7.38 4.177-.735 1.283-.465-.263c-.885-.495-1.545-.787-2.048.09l-3.15 5.535c-.495.893.09 1.305.975 1.808l.473.277-.735 1.275-7.373-4.192.728-1.29m13.522 7.515l.495.202c.93.413 1.62.645 2.025-.292l2.528-5.858c.405-.922-.225-1.275-1.163-1.687l-.495-.203.593-1.365 7.432 3.225c3.6 1.553 4.988 4.133 4.35 5.61-.645 1.478-2.347 1.905-4.2 1.478l.6 2.857c.21 1.043.435 1.5 1.673 2.04l.667.278-.592 1.365-5.123-2.228-.967-5.557-.848-.36-.855 1.957c-.405.938.195 1.26.998 1.613l.517.232-.585 1.35-7.642-3.292.592-1.365m32.61 5.595c-.187-1.365-.592-2.985-2.287-3.458-1.988-.525-3.128 1.275-3.63 3.105-.6 2.228-.503 4.628 1.537 5.19 1.575.42 2.678-.795 3.608-1.807l1.942 1.177c-1.117 1.695-3.322 2.94-6.547 2.063-3.63-.998-5.97-3.66-4.92-7.515 1.042-3.87 4.417-4.995 7.597-4.118 1.388.368 1.89.938 2.243 1.35l.337-.442 1.5.412.848 4.103-2.228-.06m16.163-1.463l-.188 1.463-.517-.06c-.803-.098-1.208.03-1.283.615l-.757 5.917c-.143 1.208.54 1.995 2.017 2.183 1.613.21 2.318-.33 2.513-1.815l.727-5.708c.068-.577-.195-.81-.952-.9l-.855-.112.187-1.47 6.405.825-.187 1.462-.72-.09c-.96-.112-1.26.045-1.328.615l-.787 6.143c-.33 2.602-2.955 2.902-5.648 2.565-5.137-.66-5.452-2.655-5.197-4.688l.682-5.422c.075-.555-.322-.818-1.32-.953l-.517-.06.187-1.477 7.545.967m13.058 11.378h.54c1.012-.015 1.74-.068 1.732-1.08l-.052-6.405c-.008-1.005-.735-1.065-1.748-1.05h-.547l-.008-1.485 7.29-.053 2.67 6.308h.045l2.565-6.353 7.215-.06.008 1.478h-.533c-1.012.015-1.74.09-1.725 1.102l.045 6.368c.008 1.027.728 1.087 1.74 1.072h.548l.007 1.478-7.957.06-.015-1.463.607-.015c.99 0 1.418-.15 1.41-.825l-.045-6.592h-.045l-3.675 8.925-1.53.015-3.84-8.94h-.045l.053 6.667c0 .69.435.81 1.425.81h.592l.008 1.463-6.728.06-.007-1.485m26.692-2.97l1.778-.908c1.102.788 3.3 2.123 5.55 1.77 1.29-.187 2.055-.862 1.98-1.35-.113-.727-.87-.907-2.438-1.155l-4.222-.705c-1.71-.292-2.798-1.26-3-2.4-.3-1.935 1.702-3.855 4.492-4.29 1.178-.18 2.295 0 2.828.143l.022-.375 1.56-.255 2.393 2.872-1.8.923c-1.223-.983-2.685-2.003-4.583-1.71-1.132.172-1.657.757-1.567 1.327.112.735 1.35.915 2.64 1.133l3.997.615c1.755.262 2.805 1.095 3.015 2.46.315 2.025-2.017 3.915-4.935 4.365-.645.12-1.725.202-3.27-.135l-.037.442-1.83.293-2.58-3.075m19.987-1.523l.525-.15c.983-.262 1.658-.51 1.395-1.492l-1.68-6.15c-.262-.983-.982-.855-1.957-.585l-.525.142-.39-1.432 7.597-2.07c3.18-.878 6.555-.66 7.215 1.747.683 2.52-2.97 4.133-6.082 4.98l-.96.263.57 2.062c.262.983.975.87 1.957.593l.848-.24.39 1.44-8.513 2.31-.39-1.418m20.348-6.022l.502-.173c.953-.367 1.605-.675 1.253-1.627l-2.235-5.978c-.353-.952-1.058-.765-2.003-.412l-.51.195-.517-1.395 7.942-2.955.525 1.387-.51.18c-.952.345-1.605.668-1.252 1.62l2.235 5.978c.36.952 1.057.765 2.01.412l.502-.187.518 1.372-7.943 2.978-.517-1.38m21.495-15.428c-1.035-.892-2.4-1.86-3.99-1.095-1.853.878-1.53 3-.713 4.718.998 2.077 2.64 3.825 4.553 2.917 1.462-.705 1.5-2.362 1.537-3.742l2.25-.375c.263 2.017-.592 4.41-3.607 5.842-3.39 1.643-6.908 1.14-8.64-2.46-1.725-3.607.082-6.652 3.052-8.085 1.305-.615 2.055-.517 2.595-.427l-.037-.555 1.402-.675 3.315 2.55-1.717 1.387m10.657.938l.45-.308c.84-.555 1.395-1.005.833-1.86l-3.563-5.287c-.57-.833-1.207-.495-2.047.075l-.45.307-.825-1.23 9.93-6.697 3.69 1.35-1.343 1.612c-2.017-.862-3.952-.09-5.895 1.215l-.412.278 1.912 2.827.765-.51c.69-.472.9-.922.48-1.552l-.262-.383 1.725-1.155 2.617 3.878-1.717 1.162-.278-.412c-.39-.57-.802-.825-1.68-.218l-.765.51 1.98 2.933.638-.428c2.467-1.657 3.262-2.752 3.592-5.317l1.935-.69-.06 4.102-10.417 7.043-.833-1.23"/><path d="M274.255 62.094l5.61-1.95.653 1.875-3.675 1.275.832 2.4 3.518-1.215.652 1.875-3.517 1.215.832 2.4 3.675-1.275.653 1.89-5.61 1.95-3.63-10.44m20.572 5.032l-2.782-10.702 2.52-.66c1.027-.263 1.987-.555 3.045-.18 1.042.367 1.837 1.26 2.122 2.332.27 1.043.098 2.183-.57 3.06-.697.938-1.957 1.2-3.015 1.478l-.39.09 1.05 4.057-1.98.525m6.263-12.975l2.01-.442 1.927 8.865 3.3-.72.42 1.95-5.302 1.155-2.355-10.823m9.45-1.92l1.162 6.81c.083.503.143 1.013.458 1.44.382.51.96.788 1.597.69a1.71 1.71 0 001.238-1.012c.225-.54.112-1.118.015-1.688l-1.155-6.795 2.025-.352 1.155 6.795c.18 1.087.27 2.13-.293 3.09-.57.967-1.545 1.732-2.655 1.92-1.027.18-2.205-.203-3.015-.848-.937-.78-1.2-1.755-1.395-2.887l-1.155-6.81 2.018-.338m8.527-1.365l3.18-.36c1.043-.105 2.033-.15 2.948.435a3.635 3.635 0 011.582 2.565c.09.803-.165 1.845-.63 2.49-.465.645-1.102 1.043-1.83 1.29l3.443 3.72-2.513.278-3.367-3.878.48 4.215-2.033.233-1.26-10.995m9.563-.983l2.04-.15.825 11.033-2.048.142-.817-11.025m5.13-.367l2.002-.06c1.005-.03 2.018-.12 2.963.322.922.443 1.597 1.395 1.627 2.43.03.863-.345 1.733-1.14 2.153 1.223.337 1.928 1.35 1.973 2.61.03 1.08-.428 2.01-1.268 2.677-.847.675-1.972.765-3.03.825l-2.767.098-.36-11.055m11.82-.18l-.18 6.885c-.015.517-.06 1.042.172 1.515.285.57.795.96 1.44.975a1.688 1.688 0 001.41-.743c.33-.502.33-1.072.345-1.657l.18-6.9 2.048.06-.18 6.9c-.03 1.095-.143 2.122-.885 2.97-.743.825-1.845 1.38-2.97 1.35-1.043-.015-2.123-.615-2.79-1.403-.788-.937-.848-1.95-.818-3.112l.18-6.893 2.048.053m9.27 8.37c-.075.877.6 1.432 1.425 1.507.772.06 1.477-.472 1.545-1.275.097-1.2-.893-1.657-1.778-2.025-.712-.292-1.32-.555-1.822-1.17a3.109 3.109 0 01-.698-2.182c.15-1.8 1.748-3 3.51-2.873 1.703.15 3.12 1.673 2.963 3.398l-2.1-.173c.03-.69-.503-1.185-1.14-1.245-.675-.06-1.148.428-1.185 1.08-.083.795.637 1.178 1.275 1.455.757.323 1.485.615 2.07 1.185.735.69 1.042 1.523.952 2.595-.157 1.973-1.905 3.368-3.862 3.203-1.875-.158-3.443-1.74-3.293-3.66l2.138.18m20.07-5.453l-1.298 6.78c-.097.503-.225 1.013-.082 1.515.187.6.63 1.065 1.267 1.2a1.69 1.69 0 001.508-.502c.405-.435.502-1.005.607-1.583l1.305-6.78 2.003.398-1.29 6.765c-.21 1.072-.488 2.07-1.358 2.797-.87.705-2.047 1.058-3.15.848-1.027-.188-1.995-.96-2.527-1.86-.623-1.035-.518-2.063-.3-3.188l1.297-6.772 2.018.382m8.452 1.703l2.235.57 2.483 8.962 1.98-7.837 1.987.502-2.707 10.718-2.205-.555-2.52-8.933-1.98 7.793-1.988-.503 2.715-10.717m13.688 3.69l-2.048 6.592c-.15.48-.337.968-.247 1.478.12.63.51 1.155 1.125 1.35.51.142 1.132.03 1.56-.338.442-.397.6-.937.772-1.492l2.04-6.593 1.958.615-2.04 6.578c-.33 1.035-.72 2.002-1.665 2.617-.938.6-2.145.84-3.225.503-.99-.308-1.875-1.178-2.295-2.13-.503-1.11-.285-2.108.052-3.203l2.04-6.592 1.965.615m8.19 2.58l2.618.96-.15 8.955 5.752-6.885 2.61.967-3.832 10.373-1.92-.705 2.872-7.778-5.557 6.78-1.628-.6.195-8.76-2.88 7.778-1.92-.72 3.84-10.365M294.873 218.664h.667c1.035 0 1.77-.083 1.77-1.538V206.47c-1.927.262-2.602 1.327-4.005 3.54l-1.98-.758 2.445-4.897h11.258l2.28 4.702-1.868.968c-1.035-1.71-2.07-3.165-4.125-3.555v10.657c0 1.455.743 1.538 1.778 1.538h.667v2.13h-8.887v-2.13m20.745-14.326v2.13h-.533c-.825 0-1.215.262-1.215 1.095v8.527c0 1.74.803 2.738 2.325 2.738 1.658 0 2.303-.893 2.303-3.03v-8.22c0-.833-.3-1.11-1.088-1.11h-.87v-2.13h6.585v2.13h-.735c-.99 0-1.267.307-1.267 1.11v8.865c0 3.75-2.625 4.642-5.393 4.642-5.287 0-5.865-2.782-5.865-5.715v-7.792c0-.803-.442-1.11-1.47-1.11h-.525v-2.13h7.755m8.925 14.325h.555c1.035 0 1.77-.083 1.77-1.538v-9.105c0-1.455-.735-1.552-1.77-1.552h-.555v-2.115h12.225l2.348 4.56-2.048.832c-1.222-2.64-3.292-3.277-5.685-3.277h-.51v4.89h.945c.855 0 1.29-.368 1.29-1.463v-.66h2.115v6.705h-2.115v-.727c0-.983-.21-1.613-1.29-1.613h-.945v5.063h.788c3.037 0 4.327-.638 6.075-3.428l2.025.75-2.393 4.808H324.55v-2.13m16.598 0h.555c1.035 0 1.77-.083 1.77-1.538v-9.105c0-1.455-.735-1.552-1.77-1.552h-.555v-2.115h6.285c3.435-.045 7.252.487 7.297 4.32.023 2.055-1.335 3.39-4.282 3.667v.045c3.367.038 5.272 1.89 5.325 3.735 0 4.365-3.87 4.658-7.163 4.658h-7.462v-2.115m23.917-14.618c4.883 0 6.885 4.238 6.885 8.513 0 4.29-2.002 8.527-6.885 8.527-3.84 0-6.855-2.797-6.855-8.527 0-5.7 3.015-8.513 6.855-8.513m8.873 14.618h.547c1.043 0 1.778-.083 1.778-1.538v-9.105c0-1.455-.735-1.552-1.778-1.552h-.547v-2.115h8.265c4.005 0 6.352 2.58 6.352 4.882 0 2.295-1.425 3.818-3.337 4.32l1.725 3.413c.615 1.23 1.005 1.695 2.392 1.695h.735v2.13h-5.715l-3.142-6.728h-.945v3.06c0 1.455.682 1.538 1.582 1.538h.578v2.115h-8.49v-2.115M263.163 351.879c.592-.323 1.005-.878 1.215-1.538.487-1.537-.353-3.21-1.898-3.705a2.99 2.99 0 00-2.295.233c-.607.307-1.17.907-1.38 1.567l-.12.458.105 1.357c.338 1.028 1.065 1.658 2.078 1.965.352.12.63.075 1.005.03l1.29-.367m15.382 3.15l.563-2.108-1.838 1.77 1.275.338m9.173 1.44c.397.082.93.142 1.297-.075.3-.195.503-.473.578-.825.082-.345 0-.743-.248-1.02-.3-.353-.652-.458-1.08-.548l-.855-.172-.54 2.46.848.18m20.062 2.692c.39.03.833.09 1.223 0 .472-.12.81-.495.847-.982.045-.51-.27-.908-.727-1.08-.338-.12-.825-.135-1.17-.15l-.285-.03-.18 2.212.292.03m57.09 1.538l-1.057-2.52-.758 2.64 1.815-.12m39.705-5.993a2.794 2.794 0 003.368 2.07c1.492-.367 2.347-1.905 1.987-3.39-.367-1.492-1.822-2.527-3.367-2.152-1.605.412-2.37 1.92-1.988 3.472m23.993-6.352l-1.688-2.16-.037 2.745 1.725-.585m-149.61 40.657c1.425.615 3.202 1.073 3.795-.307.562-1.298-.863-2.31-2.558-3.045l-.457-.203-1.425 3.293.645.262m104.992 6.405l.825-.217c1.395-.383 2.783-1.148 2.423-2.453-.398-1.462-2.295-1.297-3.773-.892l-.412.12.937 3.442m4.29-37.162l-1.275-2.415-.525 2.677 1.8-.262" fill="#fff"/><path d="M295.615 60.541c.488-.135 1.065-.255 1.5-.532.533-.338.795-.938.63-1.568-.165-.645-.72-.997-1.357-.997-.465-.015-1.065.18-1.5.292l-.368.09.728 2.798.367-.083m27.195-4.792c.533-.06 1.215-.218 1.568-.645.292-.353.42-.795.367-1.26-.052-.473-.315-.923-.735-1.155-.517-.308-.997-.278-1.56-.195l-1.132.12.375 3.247 1.117-.112m14.138 2.722c.6-.015 1.147-.06 1.68-.435.367-.27.517-.63.502-1.087-.015-.54-.285-.863-.772-1.11-.465-.225-.96-.195-1.455-.18l-.9.03.09 2.827.855-.03m-.623-4.807c.435-.015 1.005-.015 1.388-.203.382-.187.607-.615.6-1.042-.015-.45-.315-.803-.72-.953-.398-.157-.915-.067-1.35-.052l-.375.015.075 2.25.375-.015" fill="#ef1439"/><path d="M347.943 211.224c1.402 0 2.505-.923 2.505-2.183 0-1.507-1.035-2.34-2.595-2.34h-.375v4.523h.465m0 7.44c2.115 0 3.27-.975 3.27-2.445 0-1.928-1.958-2.633-3.203-2.633h-.532v5.078h.465m17.122.165c1.988 0 2.468-3.443 2.468-6.21 0-2.768-.48-6.21-2.468-6.21-1.95 0-2.437 3.442-2.437 6.21 0 2.767.487 6.21 2.437 6.21m15.915-7.02c1.59 0 3.435-.405 3.435-2.558 0-2.025-1.755-2.55-3.645-2.55h-.502v5.108h.712" fill="#006fff"/><path d="M203.523 344.281s1.155.375.765 3.075c-.383 2.678-1.53 5.738-3.833 3.818-2.302-1.913-4.222-4.598-5.76-5.738-1.537-1.155-1.92-1.155-1.537-4.612.39-3.458 1.92-16.118 0-19.575-1.913-3.458-2.303-7.29-1.913-10.748.383-3.457-1.155-4.98.765-6.9s7.673-7.297 7.673-16.507c0-9.218-5.37-16.5-5.37-16.5s-3.84 3.067-3.068-1.92c.765-4.995-1.537-14.97 8.82-25.703 10.365-10.755 20.348-16.89 22.268-21.127 1.912-4.215 4.605-14.573 4.605-14.573l-2.303 1.14s.383-3.457.765-4.98c.375-1.537 1.148-4.597 1.148-8.055 0-3.457-1.148-12.292-1.148-12.292l-2.685 1.537v-4.597s0-1.92-1.537-2.693c-1.538-.765-2.685-1.537-2.303-3.457.383-1.92 0-4.223 0-4.223l-3.067 1.92s2.685-8.055 1.53-16.492c-1.148-8.453-.765-15.735.772-19.583 0 0-9.982-1.522-11.902-8.82 0 0 1.92-1.92 5.377-3.457 3.45-1.523 9.203-1.523 14.963 2.692l1.29-.675s-4.17-2.88-8.775-6.045c-4.598-3.165-6.758-5.902-6.758-5.902s-24.037 3.307-28.215-4.605c0 0 13.238 5.467 15.968-4.89l-7.905-5.318s16.11 7.913 17.985-14.692c0 0 2.01 3.9.577 11.235-1.44 7.342 5.753 15.397 5.753 15.397s1.005-2.01 1.005-4.89c0 0 1.012-.87 2.595 5.61 0 0 8.347-3.885 7.627-20.437 0 0 1.298-3.308 1.298 1.155 0 4.455.72 10.065-4.463 19.575-.862 1.86 0 3.6.998 4.155 1.012.585 2.017 1.162 2.302-.128.293-1.305.863-4.747 0-7.777-.862-3.023-.135-2.01.578-1.148.72.87 2.88 2.303 2.88 8.34 0 1.448-.435 2.46 2.16.585 2.587-1.875 4.17-4.32 5.752-7.05 1.583-2.737 2.16-2.587.863.72-1.29 3.293-2.873 6.9-.72 5.61 2.16-1.29 10.65-7.192 13.102-11.805 2.445-4.597 3.015-3.735 1.725-.15-1.297 3.608-1.582 5.333-4.32 7.928-2.73 2.58-3.165 2.737-.142 1.582 3.022-1.155 9.21-3.307 11.512-7.635 2.303-4.32 3.743-6.045 2.88-3.015-.862 3.015-2.16 5.318-.142 4.89 2.01-.435 9.067-3.307 12.232-7.92 0 0-2.88 9.795-13.095 14.543-10.222 4.747-14.25 5.317-14.25 5.317s7.193.585 8.633 1.013c1.44.427 3.742 1.29.142 1.582-3.592.293-13.38-.292-14.962.293-1.583.57-3.023 2.302-1.44 3.292 1.582 1.013 9.352 4.763 12.09 6.915 2.722 2.153 5.175 3.023 6.757 3.458 1.583.427 4.313 1.44 4.605 4.597.285 3.165.72 3.023-.142 4.328-.87 1.282-.72 5.025-4.463 5.46-3.735.442-6.037 0-7.05 1.14-1.005 1.162-1.147 1.597-1.147 1.597M200.643 99.46c-.72-3.015 0-5.04.577-2.873.578 2.153.863 2.445.863 2.445m49.515 52.68s5.467 6.33 8.347 9.488c2.865 3.165 3.45 3.165 4.883 7.485 1.44 4.312 3.457 5.175 4.89 6.915 1.44 1.717 5.76 9.495 5.76 9.495s6.33-2.303 12.09-4.028c5.76-1.732 12.952-6.345 16.117-6.052 3.173.292 4.32.292 5.76 4.897 1.44 4.598 2.01 6.893 2.01 6.893m-28.2 16.425c-1.44 1.432-3.742 2.887-4.027 4.32-.285 1.432-1.155 6.052-1.155 6.052l11.805 4.875m-.188 47.903c-2.602.435-7.14-1.785-6.435-5.58.863-4.605 1.44-6.33-.285-8.355-1.725-2.003-1.155-2.573-.577-9.195.577-6.623 2.595-14.678-1.725-14.97-4.32-.278-4.898-.278-5.46 2.872-.578 3.158-6.338 14.678-11.52 19.29-5.175 4.598-10.643 10.943-10.643 10.943s6.038 4.597 1.725 16.68c-4.32 12.105-7.485 17.842-4.605 25.05 2.88 7.192 5.468 10.927 9.788 15.547 4.312 4.598 4.605 5.46 8.347 5.753 3.728.277 7.193-.293 8.625 3.735m-6.622 2.887s0-1.732-4.028-2.302c-4.027-.57-6.33-2.018-10.65-7.778-4.32-5.752-4.605-6.037-8.925-8.055-4.32-2.01-6.045-3.735-7.485-5.76-1.432-2.002-1.725-4.027 0-11.79 1.733-7.777 3.743-7.485-3.157-12.097-6.908-4.598-10.073-6.623-10.073-6.623s-5.76 14.97-15.547 23.895c-9.788 8.918-10.365 7.208-11.228 16.695-.862 9.495-2.01 18.705.578 22.163 2.595 3.457 4.32 4.597 4.32 4.597m72.532-115.995s-4.32-1.162-6.045-2.302c-1.732-1.155-3.172-1.433-6.915-1.155-3.735.292-10.935-4.028-10.935-4.028m25.328-7.192s-9.21-3.458-10.65-5.19c-1.44-1.725-5.175-6.33-5.175-6.33m13.237-16.973s1.155 1.433 2.303 6.623c1.155 5.167 2.595 7.47 2.302 10.35-.285 2.872-.862 4.312-.862 4.312m-53.25 70.53s2.01-8.917 1.725-13.815c-.285-4.89 2.017-8.917 2.017-8.917" fill="none" stroke="#000" stroke-width=".862"/><path d="M253.038 261.384s-4.035 4.305-5.475 5.167c-1.44.863-2.588 4.028-7.77 5.468-5.183 1.447-8.925 3.165-8.925 3.165M200.065 103.44s4.613 1.92 7.298 5.565c0 0-4.988.578-4.035-3.262m16.89 5.182s-2.108 1.92-3.645-.187m10.17 5.167s3.84.585 5.565 1.92c1.725 1.35 5.947 5.948 5.947 5.948m9.788-11.31s-4.8 2.49-6.33 3.825c-1.538 1.35-3.075.967-2.303 3.855.765 2.872 1.343 3.457 1.343 3.457m23.602 20.138s-3.067.952-5.37 1.537c-2.302.578-3.262 1.718-4.035 2.303-.757.57-3.067.382-3.645.187m130.298 39.923c.39-5.573 2.497-11.895 8.062-11.895 5.565 0 5.565.57 9.023 2.872 3.45 2.295 11.895 7.103 18.225 10.943 0 0 4.792-4.035 4.987-5.76.188-1.733 2.49-3.84 4.215-6.33 1.733-2.505 1.92-2.888 2.115-4.215.195-1.365-1.537-1.92-1.155-4.238.39-2.295-.382-1.92 2.88-5.167 3.263-3.27 9.983-10.373 10.943-12.675.96-2.295 0-2.678-1.733-1.92-1.725.765-1.92 1.92-2.872 2.49-.96.592-4.035.382-5.183-.945-1.147-1.35-6.142-1.35-6.907-4.62-.765-3.248-1.53-8.438 3.832-10.943 5.378-2.475 8.64-2.295 14.783-2.677 2.107-.195 3.645-.57 5.565-2.49 1.912-1.92 6.525-4.223 6.525-4.223s-23.993 3.068-34.358-10.162c-2.295-2.888-2.587-6.053 0-3.18 2.595 2.887 8.64 4.905 8.64 4.905s-.862-4.613.578-3.458c1.44 1.148 7.477 8.063 25.042 6.623.57-4.89-2.88-8.07-17.272-10.08-14.393-2.018-15.255-7.778-16.695-10.35-1.44-2.595-.863-4.328 2.302-1.163s12.09 6.915 12.09 6.915-1.725-3.75-1.725-6.622c0-2.88-.577-3.75 2.588-.585s8.925 8.355 11.512 8.647c2.595.293 6.623 2.588 4.32-3.165-2.302-5.76-3.457-11.22-2.017-15.547 1.44-4.32 1.732-4.028 2.017.285.285 4.32 4.89 12.667 9.21 8.64 4.313-4.028 4.89-3.458 6.33-2.595 1.433.862 3.45 1.162 4.89-1.14 1.44-2.303 2.303-3.75 2.303-3.75s-.293 8.055 8.062.862c3.45 2.888 5.753 3.458 7.77-1.155 2.01-4.597 3.165-2.302 1.725 1.448-1.44 3.735-11.227 11.805-18.42 15.825-7.2 4.042-6.622 6.337-6.622 6.337s6.33-2.295 9.21-3.735c2.88-1.447 6.045-2.587 3.165.57-2.873 3.165-2.588 4.898 2.017 1.733 4.605-3.18 8.925-7.208 7.485-3.75-1.44 3.457-.292 4.32 3.45.862 3.735-3.457 2.303-2.595 4.028-4.597 1.725-2.025 6.907-3.458 2.88 2.002-4.035 5.483-13.815 15.84-25.913 17.273-4.312.292-6.607 3.457-.562 3.457 6.037 0 10.927 2.595 10.927 2.595s.578 4.89-9.21 7.763c3.743 16.125 1.725 11.805 0 19.875-1.717 8.047-1.432 14.385-1.432 14.385l-2.88-.293s-.57 4.043-.285 9.218l-2.303.57s-.862.585 2.303 10.65l-2.303 1.432s-.292 1.733 2.303 6.915c0 0-4.028 6.9-2.303 13.245 0 0-3.457-2.595-2.017 2.88m-.27-.007s1.725 10.072 12.375 19.86c10.65 9.787 16.41 16.11 16.41 23.302.285 3.18-2.303 2.888-2.303 2.888s-1.732 5.467-4.605 11.805c-2.88 6.33-5.182 7.47-1.732 17.272 3.457 9.788 4.32 7.193 2.595 17.55-1.733 10.358-2.303 17.565-2.018 25.05.285 7.485-.285 5.738-2.002 6.9-1.733 1.155-3.458 4.89-4.32 6.623-.863 1.725-1.155 2.587-1.155 2.587l-2.303-8.347s3.458-2.873 4.32-10.65c.863-7.763 3.165-23.595-6.045-36.548-9.21-12.952-12.375-14.107-12.375-25.05v-5.182s-12.48 8.467-16.125 21.592c-1.44 5.183-.285 7.778.293 10.358.57 2.602 1.44 2.017-2.018 7.2 0 0-8.347 8.925-10.65 13.815-2.302 4.897-3.457 10.065-7.2 10.065-3.735 0-2.467-.15-3.735 1.447l-2.302 2.873-5.753-3.165s1.148-2.295 6.33-5.183c5.183-2.872 12.885-12.45 14.393-22.44 2.302-15.262-4.605-26.49-1.44-35.977 3.165-9.51 6.907-12.098 6.907-12.098s-19.567-11.227-23.31-16.687c-3.742-5.468-2.595-2.025-2.595-2.025l.293 3.457s-3.165-4.32-4.32-9.21c-1.148-4.89 0-8.925-3.743-8.347-3.742.585-5.76-.578-6.907 5.752-1.155 6.33-.578 20.438.285 20.73.862.293 2.017 4.32-2.01 4.89.862 5.19 1.147 11.513-2.303 13.245m1.995-55.545l7.485-3.165-3.45-3.165m3.45 2.873l7.77-2.595s.293-4.028 1.155-5.19c.863-1.14-.292-1.71 1.725-3.735 2.01-2.003 4.313-2.295 6.33-3.735 2.01-1.448 3.45-2.588 3.45-2.588" fill="none" stroke="#000" stroke-width=".862"/><path d="M417.97 192.301s.293-2.61 1.44-4.612m2.303-3.165s1.44 2.587 4.027.277m2.303-12.382s.577 1.455 3.172-1.418c2.588-2.887 3.735-4.612 3.735-4.612m-25.612 53.82s13.815-2.58 18.705-3.735c4.897-1.148 5.76-1.148 5.76-1.148m28.207 49.223s.578-3.165-1.44-8.07m-30.51-106.223s2.303 1.733 4.32-.277c2.01-2.018 4.028-4.598 8.918-3.458m31.185-9.105s-.383-.21-3.45 0c-3.075.173-5.183.173-5.183.173M275.485 155.25c-1.342-21.292 4.223-54.105 22.838-71.76 16.117-13.635 22.837-6.72 21.105-.202-2.49 8.827 2.692 12.48 9.217 17.265 0 0 6.128-9.195 2.483-12.653-3.645-3.457-4.223-3.075-4.223-3.075s-.765-.57-.765-1.92c0 0-1.147-.172-2.872.203-1.725.382-1.92-1.155-1.148-3.645.765-2.505 3.45-4.598 8.25-2.693 0 0 2.468-2.227 6.525-.765 4.793 1.725 9.015 3.84 11.513 10.358 2.49 6.532 3.06 6.915 4.41 8.835 1.342 1.912 5.947 9.007 5.947 9.007s9.683-7.68 3.833-11.122c-7.47-4.41-9.015-14.775.772-14.205 9.788.585 24.368 5.767 30.705 13.432 6.33 7.673 23.408 25.725 17.655 65.43l-2.88-5.947-.772 3.457s-1.343-1.912-2.1-5.752c-.765-3.84-1.538-7.868-1.538-7.868l-1.53 4.41s-1.732-2.872-2.302-8.055l-1.35.57s-2.49-3.255-4.605-10.74l-2.1 3.075-3.84-4.027-.96 2.872s-2.88.57-5.565-3.457c-2.685-4.028-.578 0-.578 0l-1.725 3.645s-2.685-.96-3.45-2.88l-2.302 1.74-2.88-4.995-.96 3.075s-3.458-2.505-3.84-3.645l-1.148 4.027-2.872-2.302m-86.948 30.307l3.068-6.135 1.35 1.523 2.872-5.948 1.335.968s4.8-4.598 5.76-8.453c.96-3.825.195.585.195.585l1.148 1.733s1.155.757 2.302-1.35c1.155-2.108 4.8-8.835 4.8-8.835s-.577 3.652 1.538 4.425c0 0 2.482-.773 4.597-4.598l1.53 2.303s3.653-1.545 4.418-3.653l.96 3.06s3.832-2.677 5.565-5.355l1.725 3.833s2.497-1.538 3.645-4.028l4.222 3.06s-1.92 2.7.96 6.143c-.382 2.295 0 6.532 0 6.532s-.382 1.71-.765 3.458c-.39 1.71-.772 3.247-.577 5.362.187 2.108.96 4.028 3.262 4.41 2.303.39 3.068.96 5.565 1.343 2.498.382 4.41-.188 6.525-.758 2.1-.585 2.873-2.7 2.685-4.237-.187-1.523-.382-1.14-.382-3.825 0-2.693-.96-4.8.96-4.8s2.302-.765 3.645 2.295c1.342 3.082 1.342 2.302 1.342 5.572 0 3.263 0 5.37 1.913 5.753 1.92.382.96.765 4.41.57 3.457-.188 4.035-.188 6.337-.375 2.303-.195 3.833-1.538 4.41-3.255.578-1.725.383-2.49.195-4.028-.195-1.537.578.57-.772-2.692-1.343-3.255-2.685-8.438-3.068-11.505-.375-3.075-.96-6.15-.765-9.225m-83.842 23.805c.96-1.733 1.732-22.838 6.915-34.163m-2.88 29.925c.765-1.92 2.107-20.332 6.525-27.435m1.342 18.81c.765-5.377.96-8.647 4.028-15.922m3.645 9.577l1.537-5.55m4.605 4.995l1.155-2.887m103.433 25.515s-.39-7.485-1.343-13.433c-.96-5.947-1.732-8.242-1.732-8.242m-1.53 11.895s-.383-5.378-1.155-10.17c-.765-4.8-2.49-9.023-2.49-9.023m.187 15.165s-1.725-10.357-4.027-17.46m-2.115 7.485c-.96-3.457-3.45-9.975-3.45-9.975m-2.303 8.625l-2.302-6.9m-5.378 5.168l-1.53-3.45m-51.24-21.113l-1.92 8.438 1.92-.555s0 2.677.578 3.06c.57.382.96.382 2.302.57 1.343.195 2.303 2.7 2.303 2.7l1.335-3.27 1.147 1.732.39-.765 1.343 2.873 1.92-2.685 2.107 2.685 1.343-2.873 2.302 1.14 1.335-1.92 2.115 1.92.96-2.872 2.88 1.92.57-3.263 2.685 2.295s-.952-1.537-.57-2.677c.383-1.155.57-2.49.57-2.49l1.343-.203s0-1.335-.57-2.872c-.578-1.523-.383-2.303-.383-2.303" fill="none" stroke="#000" stroke-width=".862"/><path d="M326.148 82.719s2.497-.383 6.33 1.537m-40.103 26.085c0 2.123-.382 5.19 4.223-.952m-2.88-5.565c0 2.107-.383 5.182 4.222-.968m-.382 7.688c0 2.1-.39 5.175 4.215-.96m1.732-3.27c0 2.107-.39 5.182 4.223-.953m-6.525-2.505c0 2.123-.383 5.183 4.222-.952m-7.102-6.915c0 2.122-.383 5.19 4.222-.953m-.195 21.87c0 2.13-.382 5.19 4.223-.952m2.302-12.48c0 2.13-.382 5.19 4.223-.953m-1.725 9.023c0 2.1-.383 5.175 4.222-.96m-3.652 9.022c0 2.108-.383 5.168 4.222-.967m3.075-4.41c0 2.107-.382 5.182 4.223-.953m-19.958-1.155c0 2.108-.39 5.168 4.223-.952M292.18 98.64c0 2.123-.382 5.183 4.223-.952m-8.25 8.437c0 2.123-.383 5.183 4.222-.952m6.908-15.165c0 2.107-.383 5.19 4.222-.968m90.578 21.3c0 2.123.382 5.19-4.223-.952m2.873-5.565c0 2.107.39 5.182-4.215-.968m.382 7.688c0 2.1.383 5.175-4.222-.96m-1.725-3.27c0 2.107.382 5.182-4.223-.953m6.525-2.505c0 2.123.383 5.183-4.222-.952m7.095-6.915c0 2.122.39 5.19-4.223-.953m.195 21.87c0 2.13.383 5.19-4.222-.952m-2.303-12.48c0 2.13.383 5.19-4.222-.953m1.725 9.023c0 2.1.39 5.175-4.215-.96m3.645 9.022c0 2.108.382 5.168-4.223-.967m-3.075-4.41c0 2.107.39 5.182-4.222-.953m19.965-1.155c0 2.108.382 5.168-4.223-.952m15.54-11.528c0 2.123.383 5.183-4.222-.952m8.25 8.437c0 2.123.39 5.183-4.215-.952m-6.915-15.165c0 2.107.39 5.19-4.215-.968m-19.575 46.455c4.027 4.028 12.66 8.438 8.25 9.975 0 0-2.115.383-3.458-.952-1.342-1.35.195.555.195.555s0 1.537-1.342 1.92m-17.46 1.725c-1.92 0-4.613.21-5.76-3.818m-10.943 10.27s1.733.66-2.685 3.442c-4.41 2.783-7.29 2.88-7.29 5.37 0 2.498.48 2.595.48 2.595s1.343-.097 2.685 0c1.343.09 2.783.383 3.458.09.667-.277 1.725 1.155 3.352.773 1.635-.375 3.36-1.245 3.36-1.245s-.097 0 1.343.472c1.44.48.862.383 2.88 0 2.01-.382 3.36-.765 3.36-.765s2.392-2.865-.765-4.785c-3.173-1.92-4.515-2.212-4.995-2.595-.48-.382-.863-1.627-1.05-2.595m18.517.195s1.628 1.245-1.822 3.263c-3.458 2.01-5.76 1.245-6.045 4.117-.248 2.445.48 3.165.48 3.165s1.44-.292 2.782-.382c0 0 .57-.188 1.343-1.628.765-1.432 3.067-3.262 3.067-3.262s.96-.488.293 2.212c-.675 2.678 1.05 3.54 1.05 3.54l2.115-.187s.18-1.725.277-2.678c.098-.967 0-2.79 0-2.79s.383-.187 1.343.765c.96.968 1.155 1.155 1.725 2.888.577 1.71.48 1.522.862 1.522.39 0 2.31-.472 2.31-.472s2.393-2.693.285-4.23c-2.115-1.523-5.467-2.58-6.81-5.55M263.973 74.56s-2.018-4.898-3.165-7.485c-1.155-2.58-4.32-5.175 2.587-8.063 6.908-2.865 18.713-4.027 17.85-11.497M258.79 63.339c1.44 3.157 2.588 2.295 6.623.57 4.02-1.733 12.66-5.76 18.697-7.763m58.448 7.485c25.327 0 52.672 6.323 73.395 17.265 0 0 2.017 0 3.457-2.88 1.44-2.872 2.018-3.165 2.018-3.165s11.512 10.073 17.257 12.098c0 0-2.587-5.475-2.587-11.805l13.815-4.028c-10.073-4.605-22.448-12.382-28.785-19.297-6.33-6.9-16.695-9.488-17.843-3.443-1.147 6.038-2.595 8.048-2.595 8.048s-24.172-9.495-58.14-9.495c-33.96 0-58.14 9.495-58.14 9.495s-1.44-2.01-2.595-8.048c-1.147-6.045-11.512-3.457-17.842 3.443-6.338 6.915-18.713 14.677-28.785 19.297l13.815 4.028c0 6.33-2.588 11.805-2.588 11.805 5.745-2.025 17.258-12.098 17.258-12.098s.577.293 2.017 3.165c1.44 2.88 3.458 2.88 3.458 2.88 20.722-10.942 48.067-17.265 73.402-17.265h.008z" fill="none" stroke="#000" stroke-width=".862"/><path d="M421.135 74.559s2.018-4.898 3.173-7.485c1.147-2.58 4.312-5.175-2.595-8.063-6.908-2.865-18.713-4.027-17.843-11.497m22.448 15.825c-1.44 3.157-2.588 2.295-6.623.57-4.027-1.733-12.66-5.76-18.705-7.763m-62.895 102.39l17.123-.307m5.04-.105l5.325-.083v4.028m-2.888 4.087l-3.877.053m-3.023.06l-4.897.105m-3.015.045l-5.76.097m-16.26-5.46v-2.302l4.17-.075m1.875-1.695s-2.498-.953-3.458-1.538c-.96-.57-3.262-.952-3.262-.952s.082-.428.067-1.088a1.953 1.953 0 00-.405-2.265 7.428 7.428 0 00-1.2-2.212c-2.107-2.685-2.88-2.49-6.712-3.458-3.84-.952-6.525-2.49-6.525-2.49s-.758 2.678 3.262 4.215c4.028 1.538 8.25 3.84 8.25 3.84s-.382 1.538-3.067 1.35c-.51-.03-1.05-.12-1.605-.27a1.978 1.978 0 00-1.852-2.692c-.856 0-1.576.54-1.861 1.305-1.185-.6-2.28-1.29-3.127-1.995-2.115-1.725-5.948-3.645-9.203-3.645 0 0 1.523 1.155 4.02 3.075.885.675 1.883 1.477 2.813 2.227a1.97 1.97 0 00-1.92 1.98c0 .143.022.293.045.435-1.313-.247-1.658-.697-2.82-1.402a1.997 1.997 0 00-1.958-2.378c-.675 0-1.282.353-1.65.885a70.11 70.11 0 01-1.8-.21c-3.067-.382-6.135 0-6.135 0s.96.953 2.303 1.335c1.335.398 3.06 0 3.45 1.725.232 1.073.105 1.335.015 2.055-.068 0-.143 0-.218.015a2.19 2.19 0 00.083-.54 1.988 1.988 0 10-3.975 0c0 .248.045.48.127.683a2.032 2.032 0 00-.825-.173 1.983 1.983 0 100 3.968 1.981 1.981 0 001.988-1.988c0-.24-.045-.472-.128-.675.255.098.533.173.825.173.135 0 .27-.015.398-.03a1.796 1.796 0 00-.083.532c0 1.035.795 1.883 1.815 1.973-.135.84-.712.75-2.317 1.687-2.31 1.35-6.72 4.995-6.72 4.995s3.262-.967 5.565-1.537c2.302-.57 4.222-1.163 4.987-3.27.765-2.108 2.678-4.215 2.678-4.215s.3-.263.735-.555a1.799 1.799 0 00-.038.345c0 1.102.893 1.995 1.995 1.995a1.993 1.993 0 001.988-1.995c0-.203-.038-.405-.105-.6.667.307 1.185.615 1.185.615s.195 3.075-1.725 4.995c-1.92 1.905-5.948 4.41-5.948 4.41s4.028.57 6.33-1.155c2.303-1.733 2.108-2.678 3.263-4.793 1.147-2.122 2.107-2.505 2.107-2.505s.39 0 1.065-.045a1.99 1.99 0 001.815 2.798c.143 0 .278-.008.413-.038a6.994 6.994 0 01-.795.555c-2.88 1.725-5.378 4.598-5.378 4.598s1.92 1.35 5.183-1.335c3.262-2.678 4.035-4.41 5.76-5.183 1.725-.765 3.84-.187 3.84-.187s-.578 2.49-4.035 4.402c-3.45 1.92-5.753 4.808-5.753 4.808s2.49-.188 4.605-1.35c2.1-1.14 4.598-2.678 4.598-2.678m3.847-19.207l-2.302-1.538s-.195 2.7 1.53 5.573m39.945 14.355l10.755-2.61.27.922 3.187-2.655-4.11-.495.24.848-10.68 2.58m.398 4.485l15.165 3.615-.18.952 4.057-.922-3.45-2.303-.165.87-15.09-3.622m-.045-.045l19.635-.218.06.878 3.698-1.905-3.915-1.358.06.938-19.568.232m-23.377 155.565s-32.573-8.73-40.298-10.665c-7.747-1.927-7.17-5.415-7.17-9.487v-69.345h94.935v69.345c0 4.072.578 7.56-7.17 9.487-7.717 1.935-40.29 10.665-40.29 10.665m-7.777 18.045s8.925-2.97 6.232-7.95c-2.685-4.995 0-5.76 1.92-5.76" fill="none" stroke="#000" stroke-width=".862"/><path d="M325.188 329.394s1.92-6.998 6.525-3.923c4.597 3.075 4.222 4.703.375 8.16m32.73-6.052l.285-3.645c9.21.757 14.587 0 22.642-4.98-15.352 4.98-24.18-.78-24.18-.78s16.89-4.598 23.033-6.12c6.127-1.538 9.967-3.075 9.967-11.138v-77.535c0-24.547 9.21-21.87 9.21-21.87l-9.975-16.11c-25.335 8.82-30.705-7.312-52.582-7.312-21.878 0-27.24 16.132-52.583 7.312l-9.967 16.11s9.202-2.677 9.202 21.87v77.535c0 8.063 3.84 9.6 9.983 11.138 6.135 1.522 23.025 6.12 23.025 6.12s-8.828 5.76-24.18.78c8.062 4.98 13.432 5.752 22.642 4.98l.383 3.937m32.25 5.273c-3.84-3.458-3.84-4.598.765-7.673 4.605-3.075 6.337 3.458 6.337 3.458m-17.85-6.158c1.92 0 4.605.78 1.92 5.76-2.685 4.995 5.565 7.778 5.565 7.778m-55.267-62.273c2.115 0 3.84-.187 6.907 1.733 3.075 1.92 4.028 2.677 6.143 3.06 2.1.382 2.1 0 4.417.967 2.295.953 1.14 1.155 3.638.953 2.49-.195 4.41-.765 5.947-.195 1.53.592 4.41 1.35 4.41 1.35m11.91 3.27s.57.375 3.45.952c2.88.585.578-.577 3.84 0 3.263.585 2.88.968 5.37 1.913 2.49.967 4.035 1.35 4.035 1.35s1.905.195-3.075 1.155c-4.987.952-6.712 1.717-8.632 2.302-1.92.57-8.828 1.335-14.97 1.92-6.143.57-9.593.383-14.58 1.14-4.995.78-7.485.195-10.748.78-3.262.57-8.25 1.335-8.25 1.335m94.605-17.257h-51.765m-4.537 0h-1.943m-4.32 0h-4.485m3.338 8.625c1.537-.758 2.302-.953 3.645.195 0 0 1.155-5.363 1.342-6.525.195-1.14 2.303-6.908 2.303-6.908s.195 2.295.375 6.15c.195 3.825-.563 5.55 1.92 6.135 2.497.57 4.035 0 4.035 0s-1.538-.397-1.538-3.075c0-2.677-.96-12.667-1.147-13.815-.188-1.155-.188-3.075-.188-3.075l.758-3.06s1.537.188 3.457 0c1.92-.202 2.685-.967 3.45-.967.773 0 1.733-.383 1.733-.383l.382-1.327s-2.497-.383-4.605-.383c-2.115 0-4.035-.78-4.035-.78s-.375-.382-.562-1.725c-.195-1.335-1.92-2.872-1.92-2.872s.757-.765.757-1.92c0-1.155.96-1.725.195-3.075-.765-1.335-1.147-2.303-3.075-1.718-1.912.563-1.912.383-2.677 2.303-.765 1.92-.383 1.717-.195 2.677.195.953-.188 1.35-.188 1.35s-1.155-1.155-1.725-.202c-.577.967-1.155 1.537-1.155 1.537l-2.107.188-.578-2.108s-.382-.952-.577-2.107c-.195-1.148-.96-4.223-.96-4.223l-1.343-1.537s-.757 1.92-.57 2.505c.188.57.96 2.49.96 4.012v4.808s0 1.92 1.913 2.302c1.92.375 4.222.375 4.222.375s.578.765.765 4.028c.195 3.27 0 .967.195 2.7.188 1.725-.195.952-.577 4.41-.383 3.457-1.343 7.672-1.725 9.195-.383 1.537-.96 6.915-.96 6.915zm4.8-6.135l2.872.967m-17.025 49.83c7.193 5.76 10.215 5.333 18.278 16.26-3.743-9.78-4.605-12.082-9.788-16.402 8.633 6.045 11.228 6.045 17.558 16.125-14.108-42.023-71.385-19.568-86.64-13.245 19.86-4.613 34.83 1.44 42.6 10.942 0 0-3.458-9.21-6.908-13.237 13.238 8.055 12.953 7.192 19.86 14.677 0 0-4.89-11.805-5.76-14.107 10.365 2.872 18.135 14.677 18.135 14.677s-3.307-9.36-7.335-15.69zm52.095 0c-7.192 5.76-10.215 5.333-18.277 16.26 3.742-9.78 4.605-12.082 9.787-16.402-8.632 6.045-11.227 6.045-17.557 16.125 14.107-42.023 71.385-19.568 86.64-13.245-19.86-4.613-34.83 1.44-42.6 10.942 0 0 3.457-9.21 6.907-13.237-13.237 8.055-12.952 7.192-19.86 14.677 0 0 4.89-11.805 5.76-14.107-10.365 2.872-18.135 14.677-18.135 14.677s3.308-9.36 7.335-15.69zm108.278 10.988c-10.358-8.055-14.198-19.568-41.063-9.593-33.015 12.263-53.73 17.273-93.262 16.508-39.533.765-60.255-4.223-93.263-16.508-33-12.277-34.155 2.295-44.512 10.373m274.02 4.597c-11.13-4.98-14.963-9.217-30.698-2.685-15.742 6.525-37.23 20.715-105.547 21.113-68.318-.383-94.035-14.213-109.77-20.73-15.735-6.518-19.568-2.295-30.698 2.685" fill="none" stroke="#000" stroke-width=".862"/><path d="M443.395 349.651c-19.567 15.735-46.05 40.875-100.552 39.33-54.503 1.545-85.208-23.212-104.775-38.947m239.49 0c-33.008 30.307-64.478 61.215-134.715 61.98-72.158-.383-105.93-31.275-138.938-61.598M326.148 82.72s2.497-.383 6.33 1.537" fill="none" stroke="#000" stroke-width=".862"/></svg>