<svg xmlns="http://www.w3.org/2000/svg" height="960" width="1440" version="1.0"><path d="M0 960h1440V0H0z" fill="#002a86"/><path d="M659.64 800.482c34.476 8.991 89.238 5.507 89.224 6.027 0 0 16.985-1.897 21.059-2.908 2.023-1.503 25.47-7.544 28.027-8.317 0 0 23.139-9.244 28.997-11.267 19.12-7.053 37.566-22.141 54.158-34.855l8.176-6.856c8.177-11.169 16.859-16.24 25.288-27.69 25.288-32.453 38.634-63.796 46.642-98.398 0 0 7.235-40.221 6.027-57.01 0 0-.632-26.454-4.467-42.568-6.533-28.771-16.325-56.799-33.507-81.932-12.419-21.944-28.575-39.309-45.841-55.141-40.137-32.467-81.918-54.341-140.066-59.848-16.817-1.349-46.881.604-53.905 1.264-22.155 1.447-42.934 10.312-62.813 17.392-40.797 17.21-77.816 46.179-104.902 84.293-25.063 35.319-38.508 77.592-43.214 121.115-1.63 36.653 1.265 69.611 13.585 103.989 12.391 28.294 27.564 59.187 50.913 81.918 29.193 33.717 68.333 53.877 92.96 61.955l23.659 8.809"/><path d="M661.017 798.038c12.307 3.371 33.464 5.647 48.384 5.928 20.118 1.335 43.284.408 66.633-5.114 18.84-4.776 33.956-9.735 54.552-19.527 9.103-5.086 24.81-13.993 24.81-13.993 22.492-15.285 49.83-44.984 50.084-44.984 13.543-15.749 24.992-30.065 32.677-48.37 18.67-36.934 25.47-72.14 27.156-110.353 0 0-1.685-39.056-10.606-64.105-8.486-34.35-40.32-84.869-50.197-92.3-29.952-33.198-64.02-55.535-102.162-69.401-27.213-10.509-54.411-13.473-85.74-13.572l-25.878 2.136c-41.767 3.948-74.683 20.357-110.269 43.467-58.682 40.334-90.474 104.214-97.681 168.712-3.934 33.871-.857 61.997 8.036 95.602 12.883 35.43 28.308 70.103 58.288 98.2 18.11 22.226 53.343 43.032 53.343 43.032 8.486 6.364 58.57 24.613 58.57 24.613" fill="#ffd90f"/><path d="M720.008 329.89c16.97-.843 27.156-2.978 60.69 5.114 11.464 2.107 50.084 20.356 60.677 26.285 22.914 8.5 66.212 56.462 66.212 56.462 2.276 2.037 28.336 41.795 29.6 44.872 5.311 13.248 12.378 25.569 15.384 39.59 4.538 20.145 5.17 40.67 7.235 63.078.843 26.454-6.013 54.229-14.217 78.393-9.23 22.126-19.739 41.443-33.801 61.28h-.76c-15.073 15.468-26.074 33.282-45.18 43.93.997 1.265 3.02 2.277 3.287 4.061-2.556 4.58-12.475 4.06-12.475 4.552-5.493-1.068-14.288 8.865-21.438 12.672-28.196 18.502-72.66 27.802-72.66 27.802-21.383 1.967-64.934-.716-64.934-.716-17.505-.927-56.125-12.405-69.71-20.3-15.004-6.913-29.25-15.37-44.507-22.043-22.351-19.387-41.401-39.843-58.906-63.57-17.477-30.107-32.425-63.937-35.375-99.607-1.222-17.56-.759-48.454-1.264-50.491 2.894-36.653 17.94-71.747 35.627-103.273 10.214-18.937 54.355-59.271 54.355-59.271 5.353-4.552 35.572-23.841 38.62-24.614 56.884-28.449 103.568-24.206 103.568-24.206"/><path d="M921.678 440.608c-5.957-8.906-13.08-19.345-15.931-22.169-2.023-3.315-6.35-6.11-9.146-8.668-7.109-8.949-42.92-42.09-62.433-50.154-47.527-22.913-72.14-25.906-72.14-25.906-15.286-1.7-47.106-2.528-53.049-1.264-47.611-.14-97.639 27.002-104.059 31.413 0 0-51.7 33.914-73.349 66.633 2.29 3.808 5.648 8.78 7.924 12.644 7.39.773 9.146 8.921 10.902 14.54.758 2.796 4.06 6.646 6.35 6.126 8.162-8.654 14.821-19.317 22.998-27.437l3.301-1.026c9.933 3.358 7.348 14.794 10.888 21.93 10.171 7.685 14.723 19.149 22.085 28.59 3.82-4.06 7.656-7.348 10.986-11.436 7.628.267 11.225-10.41 19.12-7.825 12.461 7.403 6.547 21.677 12.377 32.13 4.833 3.82 7.629 9.16 8.612 13.781 16.072-13.459 38.24-15.187 59.131-14.358 12.743-2.009 24.22-9.356 37.187-7.797 18.348-.955 30.852-18.235 48.68-17.66 10.17 3.344 21.396-1.713 31.09-4.509 12.264-13.444 33.112-6.771 47.906-13.08 10.944-.505 17.35-12.194 28.294-12.404l2.248-2.065" fill="#ffd90f"/><path d="M602.433 427.248c2.037-2.276 2.557-1.264 4.594-3.78l2.53 4.061c-2.305 6.856-7.63-.52-12.237 1.995-3.822 3.568-8.668 3.793-13.234 2.529 0 0-.773.253-.506 0-5.606-2.065-9.933-1.56-15.285.955-3.569-.759-6.856-4.088-10.438-1.812-2.796 1.264-4.847.506-7.882 1.264.759-3.048 4.833-4.06 7.39-5.324l.506.253c3.568-.745 8.415-7.629 12.475-1.728 2.29-.492 4.594-2.796 7.137-1.265 1.77 5.1 5.858 1.784 8.907.8 1.278-2.036 3.568-1.544 5.352-.772l1.518 1.293c1.25-.492 2.795-2.037 4.074-2.796 1.517 2.023 1.77 5.591 5.085 4.327" fill="#fff"/><path d="M956.912 565.024c.689 18.77-.21 37.426-6.434 54.215-7.207 26.735-18.727 51.643-34.588 74.767-3.807-3.062-7.643.745-10.944-2.332l-.759.773c-8.654-1.293-20.104-.056-27.465-8.233-4.833-2.795-9.919-7.656-9.132-13.767-8.893-10.214-23.658-9.99-35.36-14.878-2.024-1.293-3.302-4.088-2.796-6.364-7.081-11.998-5.269-27.522-16.704-37.763 4.86-3.78 9.44-2.768 14.54-4.791 2.557-1.49 3.821-4.032 3.33-7.362-1.77-2.023-2.796-4.088-5.578-4.608-9.68-2.05-16.83 6.59-25.765 9.61l-4.566-.52c5.353-4.313 12.756-8.373 18.853-8.598 2.543-1.264 3.822-4.088 5.114-6.083 2.037-3.049-3.034-4.608-4.552-5.872-12.868.112-23.728 6.743-33.267 15.44l-5.985-.76c-14.765-6.757-31.905-8.892-45.546-16.465 0 0 6.406 2.248 8.092 1.84 1.7-.449 13.585-5.113 16.985-5.113 3.386 0 16.55 0 20.792 1.7 4.243 1.686 11.956 1.658 16.971 2.529 7.207 1.264 12.307-2.108 13.993-3.807 1.686-1.686 6.364-4.23 11.885-3.822 5.507.436 23.574-2.023 30.556-1.264 3.821.45 5.943 2.15 12.728 2.557 6.8.407 15.72.843 17.842-1.265 2.122-2.107 8.472-5.507 18.25-4.664 6.392.548 16.114 1.265 22.056 2.107 5.943.857 14.428-2.542 21.65-2.978 4.017-.225 15.79-4.229 15.79-4.229" fill="#1691ff"/><path d="M956.603 558.183c-.534-9.96-1.405-19.921-2.037-29.573-3.821 1.012-8.92.464-9.68.745-1.025 1.264-1.784-.281-2.81-.281l-22.407-.576c-13.248 3.273-27.24-.843-40.236-.113-18.825 2.01-36.4 1.152-53.217 2.641-9.651-4.608-19.359.717-29.024-1.095-19.598-2.332-38.972 4.467-57.558.87-6.87-.294-13.01 4.005-18.854 2.993-9.384-6.66-21.382-1.068-31.314.407-4.342-1.04-8.402-4.608-12.729-3.343-1.025 3.048-6.083.253-6.855 2.248l1.77 2.304c.224 8.148 7.853 7.937 13.22 10.213 4.832 2.304 5.83 6.14 7.853 10.48 5.816 1.56 10.48 5.901 15.229 9.933 0 0 40.91 1.068 43.888-.604 2.978-1.7 44.563-2.557 59.412-1.7 14.864.857 29.292-3.807 38.2-3.4 8.92.436 48.383-3.372 56.026-1.264 7.628 2.135 29.277 1.7 31.399 0 2.107-1.672 19.71-.885 19.71-.885" fill="#a8efff"/><path d="M795.702 606.834c-1.264-.267-2.29-1.279-3.568-1.279" fill="#fff"/><path d="M792.148 605.555c-9.455 7.84-17.111 17.252-23.504 26.384-.266 1.545.253 2.557 1.265 3.33 7.656-3.302 9.722-11.942 15.341-17.786 2.824-6.856 6.926-4.089 10.733-11.745l-3.82-.183" fill="#a2d100"/><path d="M672.79 726.937c-3.232.576-6.8.829-10.354.983-11.717-.042-24.445-3.4-35.628-7.235 7.404-7.109 19.626-9.876 28.308-16.985 1.532-3.316 2.571-6.856 2.824-10.424 5.718 8.963 9.37 19.612 12.981 30.008l1.869 3.68" fill="#a81800"/><path d="M675.473 726.389a21.49 21.49 0 002.487-.717c-7.348-11.21-8.823-27.521-.394-38.957 3.063-1.756 5.1 1.531 7.882 1.56l9.244-24.698-1.265-.492c-1.531.492-5.1.745-5.1.492l-18.333-.042c-6.111-.029-13.5-.562-19.865.182-6.617-1.04-16.325 4.805-20.118-3.119.028-6.617-3.26-12.742-2.22-19.345-.491-2.81 2.557-4.34 4.594-5.085.253 1.784 2.796.772 3.316 1.025 3.877 2.22 12.728.548 19.612.07 9.932-1.25 21.902-1.236 30.303-1.7-.239-5.1-6.856-9.707-3.273-14.75 4.594-1.546 9.44-4.806 12.49-1.771l12.671 18.362c2.037-3.288 4.861-7.109 6.66-10.888 3.835-6.125 5.647-12.728 9.974-18.334 4.58 1.813 13.515-2.5 13.234 5.381-4.341 6.856-5.9 15.004-11.014 21.621 3.315.52 9.426-.225 12.475.028 5.605.8 10.944-3.02 17.828-3.512 2.051-5.844 4.875-12.208 8.71-16.521 3.906-4.552 8.022-9.244 12.42-13.586l-4.117-1.475c-4.664-.52-9.146-3.456-13.346-4.804-11.956-1.293-22.127-7.432-32.804-11.801-7.868-11.225-19.837-8.205-30.795-12.068-3.61-1.349-7.643-1.981-11.59-2.641l-5.213-.295c1.152 4.93-6.195 8.808-2.318 15.116-2.304 4.341-8.162 5.072-11.983 6.097-2.023-.28-2.796 2.515-2.304 3.569 3.821 1.25 6.617 1.77 10.438 1.559 8.401 4.327 20.37.267 28 6.94.491 2.557-1.04 4.341-2.825 5.844-6.097-1.812-7.895 3.02-14.26 2.768-11.449-6.42-21.662 2.992-32.845-2.908-9.427 4.06-16.03-2.332-25.204 1.7-7.403 2.81-13.234-2.824-19.85-2.852 3.554 5.353.73 9.694 3.765 15.313-1.279 2.529-2.81 3.793-5.62 4.552 1.026.773 2.543 1.025 3.316.773 2.037 1.04 4.06 2.556 4.565 5.1-.52 1.783-1.545 3.568-3.33 4.06-5.352 1.784-12.994 3.02-17.813-.057-1.784-1.25-4.074-2.304-3.554-4.819.758-1.053 1.784-1.784 3.034-1.545 1.531-.239 2.304-2.276 1.798-3.048-.238-3.035-2.795-2.796-4.565-4.58-6.603-5.128 1.306-10.944.056-17.07-1.532-.491-2.557.773-4.06.506-.787 5.1-.801 11.464 1.46 16.816-1.025 3.05-4.326 4.805-6.883 4.552 1.517 2.768 7.375 3.077 6.336 7.91-5.339 2.795-14.246-1.082-20.104-.056-2.037-1.293-3.301-2.824-3.301-5.114 1.798-2.276 4.074-3.569 6.883-3.54.52-5.1-5.844-5.648-6.855-9.708-.24-4.341.028-7.629 3.343-10.916l-11.197-.056c.745 4.86 4.805 9.44 1.995 14.512-2.557 3.807-6.884 4.06-10.2 5.563 2.038.029 4.342.281 5.86-.463 2.809.492 3.568 2.557 5.085 4.58 2.009 3.076.225 6.87-1.812 9.174-2.29.758-6.631.238-8.149 1.011-6.11-1.04-10.69-2.585-16.55-1.84-2.795-1.04-4.326-3.836-3.792-6.884 2.304-3.569 6.645-4.552 10.2-6.097 2.036-3.035-2.544-2.543-3.555-4.58-2.543-2.023-3.807-5.1-2.782-8.668 1.279-4.341 5.367-7.376 8.682-9.652-3.301-.253-6.111.239-8.654 1.756-2.037-.253-2.81 1.25-5.605.492-4.074-.773-8.668 1.756-12.728-.548l-.506.52-1.784-1.812c-1.25-3.33-.225-7.11 2.823-8.64 4.58-3.021 12.476-3.513 18.601-3.246.759-.491.773-2.276-.239-2.824l-.506.52c-2.276-2.795-7.39-.028-9.16-2.332-4.326-3.568-9.145-9.44-7.853-15.552.787-4.566 7.404-4.805 6.898-9.637-9.412-.295-19.345.435-28.772 1.433-2.88 28.505 5.184 54.762 11.984 80.5 1.517 2.303 4.833 2.064 6.87 3.343 30.795 3.386 61.59 6.04 90.362 13.992 6.322 6.126 15.987 12.026 19.274 20.694 8.149-1.503 16.044-3.02 24.192-.435 2.543 1.04 6.365 1.531 7.882 3.315l.267-.492c1.011 1.293 2.276 2.038 3.807 2.304 9.511 10.298 12.981 23.897 17.322 36.907l1.967 4.116" fill="#a2d100"/><path d="M678.423 565.769c-2.543-4.622-5.577-9.722-8.626-13.81-2.023-2.796-4.566-3.807-7.881-3.077l-.253.253c-4.805-8.64-12.166-19.12-22.857-20.174-4.313-4.327-3.02-10.944-5.044-16.043-4.397-6.884-7.642-14.33-11.759-21.158l-2.697-6.125c4.65-5.507 10.972-9.216 17.378-12.532l4.271 3.569c1.56 1.124 3.33 2.304 3.85 4.2-.296 16.044 11.632 27.016 17.687 40.545-.155 2.388-.028 4.973.857 7.024l1.925 3.934c7.88 3.344 4.537 17.59 15.495 14.569 1.518 1.04 3.808 1.784 5.592 2.823 1.77 5.325 5.563 11.197 12.194 12.49 4.313 2.824 6.842 5.366 11.169 8.204-7.755-1.208-16.816-4.369-25.386-4.285l-5.915-.407" fill="#e8d9a8"/><path d="M841.333 479.032c.604.295 1.601.52 1.587 1.644.773-.281 1.532.238 2.29.238 1.026.534 3.569 1.293 3.569.029l.997.997c-.239-.464 0-.745.267-.997 8.893 5.872 18.348-4.032 24.937 5.17 0 2.275-2.037 3.779-2.037 5.071-.506-.253-.267-1.011-.267-1.264-1.25.253-2.276.491-3.288.253v-.253c-1.545 2.528-4.832-1.813-4.088 2.276-1.264-1.813-4.074-.759-5.1-1.04v-.52l-.505.52-1.25-1.293c-1.28.52-3.57-1.503-4.58 0l-1.532-1.53-.745 1.01c-.266-.252-.505-.491-.505-1.01h-1.265c-.267-.282-.758-.493-.505-.774l-.506.281-2.276-1.812-.014 1.012c-1.264-.492-2.543 1.264-3.568-1.012 0 1.012 1.53 1.784.252 2.768l-1.77-2.768c-.772.239-2.795-.028-2.304 1.503-1.798 3.302-.997-.52-3.048-.52 0 .492-.253.773-.492.773l-1.517-1.264.491.492-1.264 1.264c-.253-1.784-2.29-.773-3.301-1.812l.505-.492c-1.025.267-2.05 1.784-2.795 0l.505-.492-.505.492c-1.026-2.557-4.089.745-3.569-2.304-.506 0-1.264 0-1.531.492l-.759-1.265c-.772 1.265-2.023-2.557-2.29 0-.505 0-.758-.267-1.025-.491.267-.281.506-.52.52-1.04l-1.04 1.531c-.253-.267-.492-.52-.253-1.04l-.506.52c-.758.253-2.543-.28-2.276-.52l-.505.52c-.253-.28-.492-.52-.492-1.04-1.798.493-2.796-.772-3.568 1.012-2.81-.52-2.557.773-4.58-.028-1.532 1.265-3.063 1.265-3.822 1.784-3.568-2.556-6.11 2.038-9.412.464l.253.52c-1.026.253-2.304 1.264-3.063.225 0 1.292-1.784 1.264-.506 2.304-4.34 5.577-11.983 5.549-18.853 6.069-7.123 1.756-8.5.056-13.585 3.09 9.384-1.643 6.378 2.726 9.497 1.462 2.29.491 4.818 3.076 7.375.8 3.821 2.023 8.668-3.793 10.944 1.04-.267 4.833-6.111 3.78-8.668 4.552-6.097-1.293-11.197-3.344-17.56-1.84-2.81 1.264-2.993 1.615-6.056.337.253-.253-3.568-.45-3.821-.97h-5.718c-6.111-2.023-7.572-1.447-13.684.548-5.858-.787-10.185 3.273-14.526.464-6.35 1.264-13.74 1.236-18.067 1.236-4.833-.787-8.668 3.02-13.248 4.538-4.552 1.643-8.977 5.128-12.658 9.131l-5.338 1.433-.366-2.472c19.416-19.57 49.705-12.602 71.607-18.11 12.756-8.4 28.786-1.98 41.795-9.06 14.54-5.817 27.058-19.009 45.364-13.108 2.023-.506 4.58.267 5.872-.745 1.054 3.204 3.864 2.192 6.842 2.164l5.03.829" fill="#e8d9a8"/><path d="M843.201 476.011c4.96-1.067 9.596-4.889 15.285-4.481 5.1-3.288 10.453-5.044 16.817-6.055 2.023 1.011 4.327 0 6.097-.492l.506.492c3.062-2.276 8.4-.984 11.716-3.54l5.1.028c0 .491.253.772.506.772 3.568-2.318 9.174-.505 11.984-4.804 3.09-5.9 10.69-5.325 14.821-8.893l-3.512-6.07c-2.445.605-7.095 3.05-9.511 4.257-12.504 11.689-30.598 12.897-46.895 15.145-13.487-2.08-21.424 12.152-34.42 13.15v.758c.506 0 1.265 0 1.518.506-.492-1.025 1.798-.997 2.304-2.29 1.264.534-.773 2.037 0 1.545l.758-1.011c.07.548.31.955.675 1.222l6.195-.267" fill="#e8d9a8"/><path d="M786.641 526.137c10.986.113 22.83 1.518 33.492-.21 4.327.758 5.592 2.05 10.172 2.332 15.018-.717 32.101-2.234 46.866-2.178 13.74-2.486 26.454 2.641 38.958.113 12.967-1.237 24.683-.197 37.931-.38v-1.04c-1.784-26.537-12.672-50.28-25.414-72.969l-4.917.394c-5.128 2.36-10.663 3.723-14.274 8.78-1.025.759-1.784.759-2.81 1.532-.772-.801-1.798.744-2.795.744-6.364-.773-12.742 1.756-20.132 2.22-2.796 2.023-6.631 2.023-9.68 1.756-8.654-.281-15.046 7.84-24.22 7.32-2.29.491-4.088 2.275-6.125 3.792l2.29 1.785c2.796-1.518 4.074.52 7.39.028-.267.758.505.758 1.011 1.264l1.279-1.784 1.264 1.784c.759-.253.506-.744.506-1.264l2.795.028c0 .492.24.759.492.759l.759-1.25c0 .49.253.758.506 1.01l.505-.491c1.265 0 4.341-1.545 6.87.759l.492.52c.267-1.25 2.304-.268 3.063.505l.997 1.04.506-.52c3.807 2.051.253 5.353 1.25 8.668-6.097 1.264-9.174 2.248-15.538 1.728-5.338-2.051-10.438-3.077-17.055-3.596l-.759-1.04-1.025 1.011c-12.237 4.313-20.09-9.96-32.58-5.675-2.275 1.011-7.88 1.995-10.93.983-3.568.745-7.642 3.02-9.707 7.362-7.137 3.54-15.313 1.967-22.183 4.495 5.844 6.112 21.944-7.825 19.865 6.94-9.44 7.882-21.958-2.444-32.93 2.614 0-.506-9.357-3.485-13.178-3.274-9.413-.52-16.058 4.805-26.75 2.22-6.616.253-13.247 2.529-21.142 1.728-6.561 2.177-13.305 7.305-19.12 11.941l-7.04 4.341.633 4.243 3.189 2.838c3.99-.197 7.881-2.964 12.855-1.756 11.674 7.432 22.927-4.777 34.63.07 7.094 6.392 15.018-2.74 22.9-.927 9.82 2.416 18.853 1.531 28.589.225 0 0 3.189-10.214 4.453-11.17 1.279-.968 8.598-4.48 10.832-6.04 2.22-1.616 15.285-9.328 20.37-9.328 5.1.028 31.147-1.18 38.958-.38 7.825.787 18.01 1.967 17.055 3.583-.955 1.657-5.1 10.536-8.907 7.684-3.821-2.852-5.409-2.543-16.24-2.543-10.804 0-10.804 0-19.725.956-8.907.955-13.866-.773-19.823 3.891-5.956 4.693-9.764 11.689-9.764 11.689" fill="#a81800"/><path d="M642.978 474.283c3.737 2.248 5.002 6.828 5.887 10.65.997 11.716 7.586 21.396 15.186 30.345.253-.492 1.265-1.265.253-1.784-.983-7.39-8.373-10.944-9.37-18.362-5.578-8.387.056-20.877-10.115-26.257-1.77.955-3.597 1.868-5.437 2.795l3.568 2.585m-25.597 13.993a26.085 26.085 0 00-1.349 2.191h-1.53c-.254-1.011-1.265-1.784-.745-3.287-6.856-7.165-9.132-17.364-18.025-23.237-10.93-6.406-2.487-20.37-13.67-26.27l-3.315 3.905 2.051 5.788c.787 2.5.955 5.535 3.245 7.347 7.348 10.48 23.63 16.662 23.083 30.135 2.009 15.285 22.871 21.214 22.562 37.23 1.264 3.076-.534 7.417 2.515 9.693 10.185.295 13.458 12.012 22.885 13.824-2.262-6.884-9.37-13.276-16.76-13.796-8.907-5.142-4.018-17.59-10.888-24.262-2.838-5.044-5.886-10.312-8.12-15.257l-1.939-4.032" fill="#a89982"/><path d="M576.598 444.036l-12.49 14.766-.014 6.532c-.744 4.285-.59 8.64 1.518 12.49 9.398 10.2 6.813 25.484 18.249 34.925 3.02 4.58 5.057 9.44 6.322 14.793 14.737 5.381 31.287 6.969 43.987 17.94 5.085 1.546 10.69 3.105 15.004 5.128 4.088-4.06 5.844 2.81 9.68.534 0-.505-.268-.744-.506-1.025-2.29 2.009-3.569-2.304-5.086-2.304-8.907-.028-11.913-14.794-21.86-13.304-5.844-3.077-3.78-9.694-5.55-14.274-.983-16.044-23.376-20.16-21.789-37.75-3.779-12.488-18.797-19.148-25.133-30.134.126-1.447-.506-2.795-.956-4.144l-1.362-4.187" fill="#e8d9a8"/><path d="M561.973 461.274l-3.203 3.793c-1.784.73-3.302.24-4.58 1.25-7.629-4.087-7.095-12.503-10.65-18.628-7.866-.787-10.536-9.82-14.09-14.68-1.531 1.783-.927 4.34-2.964 5.085.238 1.784.786 4.959 2.05 5.732 6.35 5.1 9.385 8.007 16.002 14.287 2.262 3.077 2.782 7.137 4.552 10.214 7.362.52 4.552 8.92 5.802 13.768.703 17.322 26.426 21.213 24.586 39.786.491 2.81 3.034 6.125 1.503 8.682-1.265.492-2.023-.281-2.29-1.265-5.858.211-11.956 1.237-17.575.956l-9.904-6.912c-9.16-3.92-16.69 2.683-23.87 7.74l3.625-.435c.871-.337 1.813-.66 2.403-1.49 3.315-1.502 6.11-2.528 9.173-2.795 4.58-.463 7.882.787 12.223 1.068 6.617 1.04 6.083 8.668 11.422 11.492 7.136-.492 10.93 6.645 17.04 8.71-.491-4.86-6.082-7.165-8.372-10.986 2.304-3.049 2.29 1.784 4.58 1.292-.253-3.835 5.338-.252 7.39-1.264v.492l1.025-1.012c10.705-.983 23.433.085 29.755 11.548 2.543 2.037 6.378-1.756 8.654-.491 9.174.309 10.916 11 17.28 15.34h1.531l.014-4.312c5.367-10.171-10.424-6.42-14.737-11.773l.506-.492-.506.492c-1.784-3.315-5.591-3.063-8.134-5.62-5.339-.772-9.16-3.835-13.74-5.127l.506-.492c-4.58.983-10.944-1.068-14.765-3.596-2.29-.029-5.339-1.56-7.376-2.333-.744-10.185-7.839-17.87-13.683-26.257-.422-13.964-16.044-24.459-11.66-38.142l.477-3.625" fill="#a89982"/><path d="M535.477 547.604c-1.012.07-2.107.548-2.67.407-5.1.24-3.076 8.402-8.682 7.348l-2.795 2.304c-9.68.478-19.093-.07-27.508.66-.506.492-1.025 1.265-1.798 1.012-1.77-3.808-.983-10.172-.464-14.752 8.921-2.275 17.828-2.247 23.7-9.876-6.855-5.114-15.776-2.613-23.166-.576 3.667-33.619 15.974-64.624 31.849-93.874-.52 6.111 8.134 6.884 9.637 12.757 11.45 2.093 7.334 16.324 17.266 19.4 2.01 5.62-.295 12.49 3.512 17.843 4.032 10.972 19.318 14.835 22.071 26.552-.52 3.316.492 6.125.73 9.174-8.148 1.011-18.6 3.006-24.683-5.409-3.807-.773-8.64-2.824-12.223-.028-5.984.9-10.508 5.563-15.13 9.623l-2.5 2.178 5.942.407 3.02-.491c3.218-.604 6.575-2.276 9.905-3.049 6.111.281 11.21-1.236 15.538 3.344 3.006 12.236 16.774 7.193 22.112 16.872 3.302.773 6.856 4.622 9.933 1.813-.253-1.785-2.29-1.504-3.568-2.304.505-3.049-.998-7.11-3.794-9.16 12.237-.984 25.218-3.484 32.565 9.272 1.026 2.276 4.075 1.517 6.098 2.276-4.622 13.262-22.155 3.793-30.823 6.814l-33.113 1.938-2.304 1.265c-.759-1.265-2.276-3.316-4.06-3.569-5.31 2.065-6.224-3.863-9.174-5.9l-5.437-4.229" fill="#e8d9a8"/><path d="M538.806 552.732c2.206 1.84 3.4 5.043 5.423 7.263 3.049 2.037 7.643-.73 8.149 4.622-3.344 6.856 5.043 13.993-3.12 18.32-8.4-3.864-12.503 8.598-19.864 1.728-3.049-.295-6.617.463-8.64-2.332-2.023-3.049-5.592-6.884-4.046-10.944.52-4.861 8.668-5.325 6.898-10.678 1.798-5.1 8.668-3.779 8.682-9.904.646-.632 1.46-.955 2.374-1.208l4.158 3.105" fill="#008600"/><path d="M871.158 490.173l-.772 1.011.772-1.011" fill="#fff"/><path d="M511.2 534.946c-6.125 5.325-11.73 5.325-19.626 6.828-3.779-9.427 7.657-6.055 11.998-8.12 2.796-1.504 5.1 1.053 7.629 1.292" fill="#a89982"/><path d="M576.387 594.274c-.478-.197-1.026-.31-1.686-.31-4.833-1.783.281-8.147-2.515-10.17-3.315 1.784.24 5.071-1.545 7.375-1.04 4.341-6.884.984-7.657 4.552 3.527.225 6.87-.084 10.06-.702l3.357-.717" fill="#a2d100"/><path d="M631.388 585.789c1.025-.576 2.29-.815 3.428-.815 2.557-1.026 4.594-3.302 4.608-6.097 7.137-4.552-.239-10.425.042-16.044-3.035-3.049-5.83-7.137-8.626-10.958-9.904-7.924-7.91 9.904-16.578 10.129-8.415 6.617 2.262 11.717 1.476 19.12.491 2.557 1.77 5.086 4.818 4.58a6.236 6.236 0 011.953 1.433l8.865-1.32" fill="#008600"/><path d="M627.763 592.153c1.124-.647 2.459-1.335 1.7-3.61l-5.999.21c.38 1.068.478 2.248.464 3.54l3.835-.14m29.433 2.557c.266-1.265.014-3.569-.745-2.768l-2.754 2.711 3.499.085" fill="#a81800"/><path d="M651.843 596.466c-8.921 4.313-15.524-4.89-24.43-1.068l-4.623-.38c-2.697 2.712-6.898 1.223-10.902 2.108-2.29-.773-4.889 1.04-6.659.38l-7.6-.408c-4.341.744-9.694 2.767-14.527 1.98-2.753-.168-3.652-2.205-5.043-3.624l-4.383 1.939c-3.85.576-8.444.829-12.715.604-.253-.492-1.264-1.012-.758-1.77h-1.784v.758c-4.932-1.728-12.251-.632-16.915-3.54l-8.275-.632c-7.123-.52-14.78.716-20.638 4.004-.772 1.264-1.04 3.85.253 4.594 9.413.548 16.297.056 24.965-2.964.759 1.011 3.035-.52 3.035 1.264 4.327 1.77 8.4.267 11.955 3.344v-1.012l15.538-.478c1.026.506 2.29 1.518 3.315.506 2.304-1.756 3.316-.253 5.353-2.29.506.773 2.037 1.293 1.517 2.304h2.81c3.035.281 6.884-2.248 9.413.534-.253.267-.506.52-.253 1.04.759-.52 2.543 0 2.557-1.518 3.301-.758 8.654-.491 11.45 2.304 6.364-5.563 13.978 4.89 18.825 1.84 9.946-4.031 19.612.83 29.053-2.219 11.45 5.128 22.155-3.751 32.34 2.388 4.074-.253 11.197-.716 14.26-2.992-5.845-3.835-14.766-1.84-20.61-4.636-6.322-.028-12.124-1.096-17.673-2.908l-8.795.52" fill="#008600"/><path d="M603.726 595.833a3.563 3.563 0 01.843-1.924l-4.327-.927a7.111 7.111 0 01-.871 2.107" fill="#a81800"/><path d="M606.198 592.715c1.757-.885 4.06-1.265 5.69-2.445 2.051-5.872.548-14.526-2.74-20.638l-7.136.984c-2.29 1.784-4.341 4.34-5.62 6.87 1.012 2.795 2.023 5.858 1.756 8.668 1.532.239 1.012 2.023 1.77 2.796.296.688.45 1.404.478 2.05l5.802 1.715" fill="#008600"/><path d="M539.65 591.97c-.773-.857-1.406-1.897-1.855-3.217-2.613-.351-2.768 1.18-3.47 2.613l5.324.576" fill="#a81800"/><path d="M672.579 560.627c1.011 4.833 7.361 10.452 1.742 15.285l-.028 8.668c-4.58 2.276-11.97 1.49-14.274 6.842-.744-6.364-13.5-.548-10.916-10.241-1.264-2.515-6.617-3.569-3.287-7.137-2.276-2.796 2.051-5.564 2.81-7.868 1.812-4.06-1.756-8.148 1.573-12.46.506-1.265 2.557-1.012 3.569-.24 1.025 1.77 3.568 2.304 5.605 1.279 2.276-2.276 4.847-4.06 7.629-1.265.758 3.077 3.807 4.861 5.577 7.165" fill="#008600"/><path d="M611.2 561.484c-.773 2.543-2.557 3.288-3.836 5.592-4.074.224-8.92.224-10.958 4.804-.505 1.012-.772 2.276-1.798 2.796-5.338-1.812-9.651-7.432-15.524-5.9-3.301.744-5.1 6.616-8.907 5.085-2.542-3.077-3.554-5.633-7.628-6.673-2.81.253-5.1 1.264-7.404 2.796 1.279-2.276-.239-4.58-.477-6.856.505-1.531 2.29 1.264 2.29-.773 18.825-.955 37.678-1.91 54.228-.843m33.38 4.145c-.014.491.253 1.503-.52 1.784-1.012-.253-1.012-2.037-.492-2.557.253.492 1.265 0 1.026.773" fill="#a2d100"/><path d="M571.189 577.401c.744 2.543-1.04 4.82-3.33 5.592-1.798 2.557 2.023 5.872-1.292 8.148-2.29 1.265-4.833-1.04-5.873 2.276-.477-3.063-7.628-1.068-4.565-5.872-.984-4.847-.478-8.907-.464-13.501 1.784-1.532 3.315-3.569 5.353-4.06 4.565.52 5.83 6.364 10.157 7.417m23.939 4.145c.745 4.847-8.935 3.287-4.622 9.651-2.796 2.037-6.87 1.518-9.174 3.569-1.264-2.304-5.338-2.585-6.097-4.861 1.531-2.023 1.545-4.088.014-6.111-2.796-1.026.014-4.833-.717-7.629 2.276-2.037 4.075-5.086 7.123-4.552 4.58 1.77 11.703 4.608 13.473 9.96" fill="#008600"/><path d="M932.79 576.685l1.026-1.04-.506-.491 1.012 1.53.253-.519c.758.028-1.265.759-2.276.52h-.267l.014-1.784h.253c.253.491-.253 1.264.505 1.784m-2.809.745h-3.063l.506-.253c-.253-.281-.506-.801-1.012-.52-.014 1.784-2.037 0-2.81 0l.506.492c1.026-1.785 2.023-.492 3.316-1.504-.267.73.492 1.012.758 1.532.253-1.265 1.785-1.265 2.796-2.023-.267 1.011 1.012 2.276-1.025 2.276m-22.38-.857c0-.464-1.279 1.04-2.81 1.784-1.517-1.012-3.048.491-4.58 1.264l-.758-.744-.506.491c1.264.52 6.378-3.048 8.668-2.795m-11.491 1.756v1.04c-3.302-2.305-5.34-1.04-7.63.224l-.505-.253c-4.594 3.54-12.995-1.306-18.348 2.234-1.011-.253-2.543.239-3.301-.534 5.1-.21 10.452-3.54 14.779-.955 3.049.28 6.617.28 9.174-1.756.506-.267.506-1.012.506-1.265.267-.267.505.253.758.253l.506-.744c1.026 1.011 2.796 1.264 4.06 1.784m18.334-.464l.505-.492-.505.492 1.025 1.012.506-.492v.492c1.264.28 3.316-.464 4.847-.984-.506 0-2.051 3.288-4.088 1.503h-1.265c-.505-.266-2.81-1.292-4.074-2.023v-.772c1.026.491 2.29.52 3.049 1.264" fill="#fff"/><path d="M652.63 590.874c-1.279 3.569-5.873 2.276-8.163 3.288-4.58-.773-7.628-3.077-12.461-2.332-.745-5.1 6.111-3.288 8.415-6.856l2.81-6.097c6.87 3.315.73 12.236 9.385 11.997m-98.777-5.38c-1.026 1.53-2.051 3.315-1.04 5.1 1.012 1.264 2.276 2.556 4.06 2.303v1.784c-5.591-1.812-14.765.717-17.814-6.94 3.077-5.071 8.401 1.293 11.478-4.032 1.798-1.264 3.049.267 3.316 1.785" fill="#a2d100"/><path d="M816.382 587.798c-2.05 6.336-8.935 4.523-13.262 6.827-15.552 8.092-26.79 20.806-37.285 35.544-.506 2.542.253 6.364 3.301 7.403 3.555 2.023 6.111-1.784 8.668-4.06 8.71-18.558 25.288-28.701 42.624-36.035 2.796.773 7.39-.21 7.882 3.597-2.571 5.085-8.668 2.528-13.01 5.057-15.046 8.612-27.072 25.625-38.55 37.314-2.05 3.315-4.86 6.856-7.67 8.893-10.691-2.332-19.345-3.386-30.809-4.665-3.582 5.845-7.418 10.425-12.517 14.976-.984-5.1-6.59-8.429-9.118-12.756 3.048-4.34 4.102-9.174 8.949-11.941 11.197 2.065 22.914-1.728 32.86-3.723 6.153-17.533 21.48-31.779 36.274-42.947 6.884-2.01 14.02-7.334 21.663-3.513" fill="#354600"/><path d="M597.629 592.237c-2.304 3.821-6.126 3.793-10.958 3.54 3.048.773 6.11-.983 6.87-3.54.772-2.023-1.77-4.327 1.545-5.1 2.29.281.997 3.569 2.543 5.1m23.419.084c-1.798 1.012-5.353 1.518-7.643 1.237 2.29-1.504 1.279-4.313 2.304-6.336 1.265 2.275 6.856.52 5.339 5.1" fill="#a2d100"/><path d="M859.414 590.214l.505-.492c-3.568 2.276-8.162 1.475-11.983 1.728 1.798-2.557 6.378-1.236 10.719-2.248l.759 1.04m4.551 13.74l.506-.52c-.014.52-.014 1.264.492 1.264l.773-.744-.267.491c3.048 1.293 4.58-1.25 7.136-.463 0 .492.24.744.492.744l-1.264.52v-.52h-2.29v1.532c-.267-.267-.506-.52-1.026-.52-1.025 1.04.506 0 0-.492-.505-.253-.758-1.011-1.264-.772-.506.252-.506.772-.506 1.264 0-.492-.253-.773-.506-1.012 0 1.504-1.784 1.012-2.29.492-.758-2.276-4.313-.773-2.261-3.077 1.25-.463 2.009 1.054 2.275 1.813" fill="#fff"/><path d="M545.072 622.315c3.063-1.04 7.516-1.784 8.177-4.72.772-3.049.52-6.364-1.504-9.413-.997-7.136-10.157-6.42-12.728-2.332-3.568 1.756-5.872 6.59-5.633 10.424 1.433 2.389 3.961 3.878 6.167 5.522l5.521.52m-7.684 5.268c-2.43 1.376-5.887 1.98-7.615 3.68-1.278 1.785.239 3.569 1.77 4.327 8.401-3.02 15.271 4.37 22.914-.435 1.531-2.796-.745-4.833-1.77-6.856-1.546 0-4.229-.421-6.42.127l-8.894-.843" fill="#008600"/><path d="M538.497 626.84c.956-.788 1.588-1.87 1.616-3.373l3.006-.309c-1.138.745-1.433 1.813.07 3.569l-4.692.084" fill="#a81800"/><path d="M859.357 604.726c-1.798 4.58-6.87 3.049-9.946 3.288-2.276-2.023-6.87-.028-9.174-.028 1.026-1.04 1.026-1.25 2.304-1.785l.253.506c1.026-1.545 2.29-1.025 3.315-1.025 1.799-2.276 3.569 2.585 5.1.52-.267.252-.506.533-.506.772 1.012 1.264 1.785-.239 2.796-.239 1.517-.253 4.074-2.037 5.858-2.037l.506-.744v1.264l-.506-.52" fill="#fff"/><path d="M577.244 623.467c1.447-.323 3.386.057 3.976-.688 1.531 0 1.278-1.784 1.278-3.049-5.086-3.568.534-9.932-2.753-13.767-1.785-1.518-3.822.491-5.353 0v-1.012c-3.049-.028-4.847 2.515-7.39 3.26-6.532 5.9 1.096 8.892 4.018 13.753l6.21 1.503m0 6.617c1.138 1.265 2.725 2.164 4.229 2.852-5.353-.52-11.211-.52-16.297-1.812 1.138-1.293 3.09-1.461 4.636-2.065l7.418 1.025" fill="#008600"/><path d="M571.16 628.244c.492-.492.844-1.18.9-2.192a6.181 6.181 0 00-.127-1.98l4.032.14c-.295.38-.45.955-.337 1.84 0 .871.183 1.672.506 2.375l-4.973-.211" fill="#a81800"/><path d="M602.602 623.116c1.363-.997 3.189-1.433 4.608-2.037-2.276-3.568-.73-9.188-3.006-12.756-3.05-1.546-5.859-3.85-9.68-2.824-3.807-.253-3.063 4.088-3.835 6.364-5.578 5.76 2.093 7.685 4.776 11.83l7.137-.577m-7.235 7.404c-.689 1.096-1.658 2.023-2.712 2.472 1.026 1.012 2.543 1.265 4.075 1.785 4.58-1.518 10.944 1.56 13.248-2.782-.76-.492-1.532-1.784-2.796-1.25-.787-.253-1.644-.506-2.5-.857l-9.315.632" fill="#008600"/><path d="M602.35 628.539c-.844-.702-1.434-1.644-1.518-2.936h-4.58c.38.857.323 1.953-.014 3.048l6.111-.112m131.455-16.816c-1.56 13.009-12.532 22.112-17.913 33.59-4.34 2.768-5.127 8.12-6.406 12.7-.267 1.504-1.545 3.569-2.304 5.592-.787 9.665-5.9 18.825-7.966 28.758-3.315-1.56-6.617-2.571-10.17-3.344 3.848-10.705 7.192-23.152 13.57-32.818 3.077-5.324 4.37-11.689 8.71-16.521 2.052-8.387 8.71-16.269 12.054-24.67-1.264-7.867 6.87-2.276 10.439-3.26" fill="#a81800"/><path d="M761.24 679.002c-.842-2.163-2.303-4.2-4.692-6.097-4.34 1.545-5.366 7.109-10.452 4.805-3.315 1.025-7.207.491-9.427.491-3.301-4.818-7.614-8.176-8.106-13.795l9.708-10.888-.506-.52c2.318-4.833 9.174-.225 13.248-1.236 5.592 1.812 12.981 1.826 17.561 3.61 3.569-.239 15.018 1.574 15.018 1.574.253-.253 2.29-.253 3.808.267 0 2.81-4.594 4.313-2.81 6.87 2.276 4.06 6.336 7.403 6.842 12.475-2.037.772-5.606.491-7.896 1.756-5.605.421-12.405-.548-17.757.435l-4.538.225" fill="#a89982"/><path d="M762.028 682.079c.899 4.664-.408 9.96-1.35 15.805-3.834 6.589-9.187 10.129-15.565 13.683-10.438 2.262-18.84.478-28-4.664-.491-1.25-1.264-2.304.52-3.315 5.1-.464 9.427-3.78 13.248-6.308-3.034-5.353-6.322-10.972-9.623-16.578-2.796.253-6.097.225-7.629-1.812-.491-2.304 2.052-4.847 3.583-6.856-1.264-2.824-3.793-6.884-5.325-7.657-3.582 9.413-6.926 19.837-8.99 29.77 3.315 1.292 8.4-.984 10.69 2.585.478 11.464-8.71 21.13-17.659 28.477l9.174-.492c3.315 1.531 9.427-1.236 12.475 2.332l-.506.492c3.049 2.557 3.288 6.884 3.78 10.213 3.315-1.025 5.605 1.784 8.148.267 1.04-3.315.534-6.884 4.116-9.413 3.821-2.275 8.921-3.287 11.984-4.551 2.276.52 5.605-1.475 5.858.28 8.907-1.755 18.32 3.372 26.735 2.88 19.584 2.36 38.943.872 57.29-5.69 11.97-1.755 29.32-10.606 40.756-1.418-4.102 6.364-12.011 11.436-17.378 18.277v2.023c1.517 2.557 4.552 7.165 7.628 6.393 16.845-10.65 30.121-27.41 42.905-42.147 2.29-2.543 4.594-5.352 4.861-8.148-.253-.239 0 1.545-1.264.773-.759-.773-2.276-.253-3.554-1.785l-1.026 2.276c-7.123-2.823-15.79-2.079-23.42-4.144-3.82 1.517-9.946 2.5-12.742 2.22v-.492c-2.556 1.517-7.122-.52-8.654-1.293-5.844-5.1-16.31 2.501-20.595-6.42-4.566-6.63 6.111-4.299 4.608-10.663 3.315-5.872 7.881-2.037 11.717-3.02l1.025-1.026c.506.506 1.25.056 2.023-.21l2.529-.886a8.341 8.341 0 01.028-1.18c-2.009-3.315-6.364-2.57-8.148-4.608-10.157-2.304-17.28-5.38-27.466-7.46-8.415 4.06-15.79 1.475-23.953 3.232-1.011-1.25-3.568.505-3.568-1.532h-1.517c-1.532-.491-2.543-2.023-2.796-3.568 2.557-2.557 3.063-5.873 3.33-9.16 1.798-2.037 3.835-3.568 5.886-4.552-1.503-8.92 11.73-10.157 11.267-19.345-1.517-3.568-4.566-7.137-6.856-9.932-12.264 13.22-26.313 25.372-36.54 39.336 5.605.8 10.704 1.574 15.284 2.613 1.785.52 1.77 2.796 1.77 3.807-1.025.773-1.53 2.81-3.329 2.81-.014 5.873 8.387 10.72 6.069 17.336-3.049.773-8.148 1.757-9.68 1.237-4.58 2.023-7.628.239-11.97 1.503-.631-.955-3.006-.351-5.338-.112l-4.818-.183" fill="#a2d100"/><path d="M861.591 674.69c-2.641 1.151-6.659.631-9.3.8-2.557.281-2.81 3.049-3.077 4.86-1.025 1.785-2.81 3.288-4.594 3.288-.758 2.276 1.012 3.316 2.29 4.58 11.717-2.767 21.874 9.23 34.364 2.389-2.29-.24-2.276-3.808-4.566-3.316-4.341-2.683-10.186-7.432-11.942-13.206l-3.175.604" fill="#008600"/><path d="M914.33 618.396c2.81-1.265 5.62-3.33 8.668-2.037 1.265 0 5.592 4.86 8.402 2.065 2.556-1.265 4.34-1.517 6.884-1.517-3.063 2.795-5.1.252-8.416 2.276l-.253-.492c-1.278 1.784-3.568 1.756-5.1.463-1.783-1.784-4.565-2.795-6.87-1.812-2.542.773-5.605 2.81-8.653 1.756-3.555-6.364-9.919-.787-15.257-1.798 5.577.267 12.222-4.805 16.521 1.068h4.074" fill="#fff"/><path d="M705.2 639.16c1.265 3.821-2.81 6.336-2.57 10.185-.506-.28-.773.24-1.026.492-4.566-5.38-7.348-11.998-13.712-15.833-2.023-3.316-2.782-7.137-3.526-10.944 11.492-8.626 14.484 10.72 20.82 16.1" fill="#a81800"/><path d="M855.733 626.347l-.506.52c2.29 2.796 6.617 2.304 9.174 1.293 3.568-4.06 8.148 3.835 12.475.548 0-.773-1.025-1.293-1.531-1.813 2.037 1.04 4.341 1.813 6.111-.491.506-.492 1.026-1.265 1.798-1.012 1.25 3.035-3.315 1.264-3.835 3.807-4.341.745-8.92 2.248-12.728-1.067-3.049 1.011-7.91 4.06-11.464.983-1.011-5.1-4.341-1.264-7.39-1.531-1.784 1.011-3.82 1.756-5.858 1.995 4.074-2.768 5.1-2.248 9.68-3.78.267.267 3.33-2.275 4.074.52" fill="#fff"/><path d="M828.155 655.569c-8.668 3.02-16.058 1.728-24.712 2.74l-3.315-1.28c3.835-3.567 1.068-11.196 7.432-12.46 2.795-1.012 1.798-4.861 2.823-7.376 3.316-2.29 7.91-5.844 8.683-9.918.997 9.693 6.574 18.614 9.09 28.294" fill="#008600"/><path d="M699.82 652.113l-3.836 8.668c-6.097-2.332-12.995.197-19.106-.576-14.765-.267-25.71.197-39.477 1.672 1.292-5.873-.211-11.464-.464-17.308l-1.77-3.822c6.364-.491 13.5-.491 20.624-1.728 9.173-1.503 20.132-.435 29.291-.674l2.543-.534c5.339 3.597 7.629 8.977 12.18 14.33" fill="#354600"/><path d="M633.832 660.598h-.505c.028-7.136-4.032-13.262-1.714-20.637 4.06 5.38 3.526 14.02 2.22 20.637m277.645-19.823c-.014 2.038 2.038-.491 1.518 1.785-4.833-1.04-6.884 5.324-12.49 3.54-2.542-.759-6.617-1.04-8.654-.787-2.795 2.023-5.338 1.503-6.87.73 4.342.773 8.669-1.474 11.478-2.486 3.555 3.288 7.882 1.531 10.944.267.759-1.264 2.037-3.049 4.088-3.049m2.262.773l.506 1.531-.506-1.53m3.316 1.531c-.267.772-1.265.252-1.784.505l.505-1.517c.759 1.011.759-.267 1.265 1.011" fill="#fff"/><path d="M533.285 650.638c20.61 2.36 43.27 5.732 63.88 11.66 1.012 1.25 1.77 3.035.745 4.552-6.378 3.049-14.021 5.072-21.144 5.535-1.531 1.265-1.798 4.06-.28 5.353 5.59 5.872 13.739 7.165 20.595 11.506 15.524 2.852 28.055-13.15 45.855-6.73 4.58 1.785 10.438 3.316 13.234 7.938-2.304 3.554-1.293 8.387-3.863 11.927-9.947 5.072-20.146 11.422-30.613 16.213-14.765-3.583-31.806-5.423-44.548-.9-2.796-.744-5.353 3.05-7.643 2.796-3.835 3.049-7.643 3.54-10.213 7.629h-.998c-19.556-23.237-40.11-45.715-49.704-73.475l-3.035-8.668c8.654 2.823 18.825 3.863 27.746 4.664" fill="#e86f00"/><path d="M742.219 693.767c-1.265 2.796-4.074 3.569-6.378 4.552-6.084-9.932-12.658-21.157-17.73-31.61l-5.072-6.883 1.813-7.629c10.649 13.248 17.238 28.07 27.367 41.599" fill="#a81800"/><path d="M873.982 664.237c0 .52.267.773.506 1.054 1.264.238.267-1.265 1.026-1.054 1.025-.983 1.53.028 2.556-.983-.266 0-.772 2.275-2.556 1.503-.76.253-.506.744-.506 1.264-4.341 1.756-7.868-8.415-12.461-5.1-3.049-2.065-5.606 3.26-8.149-.828 2.29 1.053 6.87-.984 9.947-.956 5.1-.491 4.819 6.645 9.651 5.1m32.06.716c-.506-.491-1.026-1.264-1.785-.772l4.58.028c.253 1.264-1.278 1.264-2.037 1.756h-1.784c0-2.023-1.264.52-1.784-1.503-.253.239-.506.491-.506 1.011-2.276-2.023-3.301-.028-5.858-.52l-1.532 1.518c.267-4.074 4.847-3.302 7.896-2.29 0 1.053 2.023 1.573 2.81.8" fill="#fff"/><path d="M612.155 674.282c1.517 2.585 3.049 5.128 5.086 7.404-4.847 2.81-11.225 4.074-17.084 5.324-7.628-3.063-15.523-6.42-21.873-11.52 6.87 0 11.97-3.26 19.106-4.004 2.29-1.531 4.847-3.568 3.835-6.856 4.327 2.543 7.376 7.123 10.916 9.708" fill="#a81800"/><path d="M716.552 676.895l2.037-2.276 1.264 1.784-3.315.492m37.13 24.276c-6.897 7.109-17.097 9.638-26.51 6.28l-3.807-1.25c5.339-1.026 11.211-3.02 16.058-5.55 5.605-2.795 7.657-9.68 13.037-12.7 2.023-2.276 4.594-5.324 5.353-8.64 2.529 6.884 1.475 15.777-4.13 21.888" fill="#a89982"/><path d="M742.247 687.923l-4.566-7.404 10.185.52-5.62 6.856" fill="#a2d100"/><path d="M753.71 681.067c-2.303 4.327-6.125 7.629-9.707 10.425 2.037-2.796 5.367-6.87 7.923-9.933.76 0 1.026-.744 1.785-.492" fill="#3c5858"/><path d="M702.742 695.931c-.295 10.705-8.205 20.357-15.117 29.502l-7.39.745c1.799-2.81-2.795-5.114-3.02-8.162-3.54-9.68-3.512-19.893 1.854-28.505 8.402 1.04 15.524 5.127 23.659 6.448" fill="#a89982"/><path d="M710.131 696.97c1.25 10.186-8.977 17.814-15.102 24.15 4.86-7.628 11-14.976 11.028-24.67 1.265.52 2.29-.463 4.074.52" fill="#3c5858"/><path d="M871.524 719.856c-5.114 7.109-13.276 10.93-16.606 18.278.478 6.364 7.348 9.96 10.902 13.795-17.856 8.598-40.25.394-58.598 4.946-17.842 4.003-32.607 7.544-51.952 3.891-1.264-9.16 5.662-21.34-6.294-24.684-4.833-3.076-12.236 2.768-14.245-5.661 19.64-11.9 42.525 4.453 61.899.168 23.925 1.616 47.653-12.84 70.314-11.997 1.264.744 3.048.772 4.58 1.264m-193.578 9.638c2.29 1.011 6.63-2.276 9.173.786l1.799-1.77c7.881-1.025 14.765-.716 22.913-.688-3.076 6.083-12.756 7.6-15.074 15.467-3.569 6.365-3.85 12.237-6.42 19.107-8.64-5.38-22.675 1.447-32.074-4.173-22.66-4.917-45.068-6.265-66.956-4.285-1.799 1.265-4.847 0-6.364-1.812-.492-2.276 2.304-5.071 4.608-7.84l-.506-.533c2.037-3.034 6.378-5.072 5.114-8.612-5.325-6.912-9.919-9.216-16.002-15.088 35.431-11.857 63.613 20.061 99.789 9.469" fill="#e8d9a8"/><path d="M575.853 721.809c5.086 4.608 11.942 8.977 15.988 14.821l-10.214 12.7-21.34-19.668c3.821-3.301 8.415-6.589 13.768-7.853.773.267.267 1.531 1.278 1.292.492 0 .506-.8.506-1.292m141.57 14.161l-7.896-1.04c2.557-1.545 4.594-3.568 6.125-6.378.506 2.557 2.543 4.341 1.77 7.418m19.556 2.768c-.252.28-4.298-.169-4.804-.928l.38-5.9c0 .759 4.172 6.336 4.424 6.828" fill="#a81800"/><path d="M704.147 737.726c-2.796 4.299-6.126 7.84-6.14 12.953-1.531 2.543-.28 5.1-2.57 7.123.758 2.557-2.81 3.301-1.04 5.085-2.023 1.012-.014 3.316-.014 5.1 3.301 2.276 7.881 3.597 12.46 2.304 8.009-2.5 22.086-1.011 37.427 4.2 6.63-2.036 6.645-10.185 8.443-16.029-1.264-6.083 2.318-11.955-1.475-17.828-3.048-2.796-5.858-2.065-9.665-3.343 0 0-2.094 4.608-7.783 4.608-5.69 0-15.777-2.53-15.777-2.53l-13.88-1.671" fill="#e8d9a8"/><path d="M687.021 763.899c4.327 1.531 3.02 8.668 7.867 7.657 8.64 4.608 14.597-.9 26.3-.605 3.034-1.011 15.96 4.313 23.068 6.336 4.074-.983 7.642-3.54 8.682-7.839l1.545-5.872c15.004 2.852 33.1 1.124 48.637-3.161 14.274-2.529 30.683-2.416 44.184-1.869l-11.043 8.064c-17.35 11.914-35.22 18.671-58.57 25.47-25.484 7.292-53.61 2.993-78.321 3.429-26.988-3.161-53.709-11.394-77.339-24.445-9.665-3.569-21.326-10.818-28.49-14.33 23.939-1.208 45.588-.38 69.766 6.56l23.672.577" fill="#a2d100"/><path d="M672.677 352.593c-3.189-.31-6.673.295-9.553 1.91-.646.31-1.601.31-2.177.338-1.967.927-1.967 3.779-1.321 5.703.632 2.22 3.189 2.852 5.086 3.485 1.91.66 3.82.66 5.732 0 1.601-.295 2.865-2.22 4.453-2.53 4.777-1.615 9.553-.955 14.33-.322 2.543 0 5.394.955 7.32 0 1.587-.956 3.483-1.588 4.762-2.22 2.22-.97 4.762.323 6.968.604.983-.28 2.894-.604 4.594-.745.52.464 1.475 1.096 2.796.281 1.559-.45 3.47-.14 5.057-.14 0 0 .323.323.295.66 1.293.956.984-2.22 2.796.52.084-.225.421-.52 0 0 1.686-.225 2.641-.225 3.92-.225.955 0 .646-1.264 1.7-1.56 1.151-.66 2.43-.954 3.708-1.615 1.588-.97 4.145-.632 6.21-.112 1.096.112 1.096-1.152 1.798-1.546 1.545.085 3.133-.238 4.72.394.647.295 0 .955-.112 1.152.112.435.759.435 1.068.435 0 .928.646 1.588 1.194 1.869 3.273.351 7.08 1.292 8.92-2.01.717-.182 1.996-.182 2.544-.266 1.362.38 2.627 1.04 3.905.716 0 0 0-.66-.59-1.208 2.5.24 4.412.548 5.999 1.208 4.777 1.911 9.876 4.13 14.976 3.175 1.25-.323 2.852-1.615 3.161-3.175 0-1.292.31-2.556-.31-3.512-1.263-2.557-3.82-4.776-7.234-4.018-.394-.098-.703-1.067-1.026-1.067-4.144 0-7.965 0-11.97-1.012-.126.056-.126-.885-.252-.745-3.386-.786-6.561-1.756-10.073-1.095-3.19.955-5.409 3.189-8.584 4.144-3.175.632-5.718-1.292-8.837-1.84-2.936-.38-5.479 1.517-7.39 3.301-.632.464-2.542.759-2.851-.168-.323-1.265-1.602-1.616-2.557-1.925-2.22-.66-4.454-.66-6.547.492-.773.14-1.728-.492-2.796-.24-.505-1.84-.842-3.427-2.107-4.397-2.866-1.587-6.055-.955-8.907-1.264-.646 0-.955.97-1.7 1.812-.843 1.04-2.416 1.377-3.821 1.785.45.252.098.252 0 0-2.107 1.84-5.296 2.472-8.162 2.472-2.22 0-5.086.632-7.376.281-4.088-1.264-8.85-1.264-11.717 2.248m-2.908 24.164c-2.233 0-4.762-.955-6.364.632-1.264.97 0 2.557.492 3.4 1.728.744 3.962 1.377 5.872 1.377 3.175 5.1 9.553 6.673 14.976 5.1 1.911-.633 2.852-3.808 5.381-4.089 4.79-.38 9.244.885 14.007 1.546 4.776.955 9.876 1.264 13.992-1.462 2.248-1.067 4.159 1.152 6.392 1.785.647.337 0 1.587 1.237 1.545 2.908.351 5.45.042 8.317.674 2.556.31 4.453.942 6.996.31 1.264-.31 2.22-1.265 3.54-2.22.604-.31 1.869.323 2.515 0 1.264-.632 2.543-.942 3.85.295.294-1.237 1.25-.604 2.205-.927v-.633c4.13.956 8.598-.309 12.728.956 2.22.632 4.763.94 6.996 0 1.911-.633 3.513-3.203 2.234-4.777-1.91-2.543-5.732-1.25-8.612-2.22-2.22-.323-4.748.633-6.856 0-1.713-.955-3.624-1.587-5.212-2.22-2.22-.955-3.82-3.188-5.732-3.82-2.851-.956-6.35-1.251-8.654 1.404.38.197.07.197 0 0-2.149 1.152-4.72 1.784-6.926.83-1.587-.633-3.498-1.265-5.535-.858-.182-.112-1.138-.407-2.093.225-.955.323-1.602 1.897-2.866 1.587-.955-.632-2.543-.955-3.498-.323-.646.323-1.602.956-1.461.759-2.979.857-5.212 2.754-8.078 1.784-.31-.295-.31-.632-.59-1.04-.352-.547-1.321.113-1.63-.547-1.602-2.852-5.1-2.53-7.516-2.53-.127 0-.45.633 0 0-2.67.633-4.903 1.265-6.814.31-2.22-.97-4.776-2.22-7.01-1.264-.31 0-1.91.632-.955 1.671-1.265.225-1.911.548-3.569-.267-2.486-.772-5.352-1.433-7.586.183-1.574.941-4.145.941-3.484 3.161-.31 0-.31-.309-.647-.309m111.365 21.93c-3.189-1.896-7.628-2.22-9.862.66-1.91 2.543-2.557 7.629.955 8.907.632.31 1.588.31 2.22.31 3.498.632 7.32 1.264 9.862-1.925 0-.295.323-1.265-.309-1.897 2.866 0 5.732-.618 8.275.31 1.91.631 3.175 2.851 5.085 3.188 1.265.323 1.911 1.25 3.19 1.25 1.264 0 2.556.338 3.498 0 1.601-.927 2.866-2.191 4.467-2.542 1.588-.632 3.498-.632 5.1 0 2.22.66 4.762 1.615 6.996 2.22 1.588.66 3.512 0 4.79-1.265.619-.295 1.251-.632 2.207-.632 0-.323 0-.955.098-1.152.857.197 2.121.52 3.076.52.647.309 1.265.941 1.911 1.264 1.602.632 3.19 0 4.777.31 2.22.954 4.453.322 6.04-1.602.956-.633 2.234-.956 3.19-1.588.941-.295 2.22-.295 3.189.323.941.632 2.205.31 3.484 0 .632 0 .632-1.25 1.306-1.447 3.147-.463 6.322.492 9.188-.463 3.19-.97 5.732-5.732 3.19-7.966-2.543-2.543-6.674-1.883-10.186 0-.632.337-.955-.295-1.644-.239-.267-.084-.267.871-.505.759a104.54 104.54 0 01-8.654-.014c-2.557.786-5.732 1.096-7.896-.028-1.334-.478-2.908-.14-4.524-.14-.295 0-.632-.661-1.053-.633-3.386.632-6.252 4.116-9.75 2.529-.955-.31-2.234-1.265-3.19-2.234-.308 0-.631.337-.814.169-2.683-2.052-6.181-1.433-9.047-.801-.31 0-1.265 1.264-1.911 1.545-5.1.689-9.862.38-14.639-1.84-.955-.337-1.91 0-3.189.491-1.25.436-2.852.113-4.13.113-1.91.323-2.866 1.925-4.777 2.557m83.717 23.925c-3.19-.337-6.364-2.234-8.921-.632-2.22 1.559 0 4.439 1.91 6.026 1.911.97 3.513 1.925 5.41 2.557 3.188.633 6.054.633 8.92 0 1.265-.295 2.866-.955 2.866-2.852h2.206-.295c2.838 0 5.718-.955 8.57 0 .309 0 1.264 0 1.952.267 1.546 1.293 3.456 2.894 4.735 1.63 2.866-1.897 1.601-5.114.955-7.966-.309-1.587-2.866-1.264-4.453-1.264-.31 0-.956-.618-1.208-.52-2.29 1.152-4.538 1.812-6.758.857-4.144-1.264-8.907-2.852-12.714.295-.31.337-1.264 0-1.897.056m-10.382 16.058c.534.492-.126-.52 0 0-.126-.52-.126.113 0 0-3.961.113-8.092.745-11.59-.225-1.602-.632-3.498-1.264-5.409-.632-.646 0-1.264.337-2.22.337 0 .295 0 .928.127.717-.773.21-.773-.084-.506.492-2.486-.576-4.397.688-5.985-.281-1.91-.956-4.13-2.543-6.04-1.588-.31 0-.956.927-1.209 1.32-1.657.577-3.568.577-5.156-.056-3.512-.94-7.01.324-10.185 1.897-.955.646-2.557.646-3.512.323-1.265-.632-2.22-1.587-3.302-2.22-2.74-.632-5.296.633-8.162 1.476-1.897.421-4.13.421-5.086-1.476 0-.337.31-.632.506-.828-4.018-.113-11.014-1.068-11.66 4.34 0 1.265 1.587 2.515 1.952 3.021 5.367 2.683 11.422 3.639 17.561 4.13-.421-.491-.098.14 0 0 1.18-.154 2.445-.491 3.569-1.53 1.096-.212 2.697-.52 3.652-.212 3.808 2.543 7.952 3.513 12.406 3.175 1.278-3.175 4.776-1.587 7.375-2.36.267.113.59.773.492 1.518 1.053-.45 1.672-.113 2.543.266 2.318.253 4.86-.056 7.08-.379 0-.309-.309-.632-.21-.885.856.253 1.812-.716 2.795 0-.028-.38-.028-1.04-.028-1.04 2.529-.295 4.749-.632 7.418.548.52.085 1.475.085 2.29 0 .787-.224 1.742-1.18 2.29-.744.716.52 1.672.196 2.29.772 1.924.689 4.481.689 6.069-.252 3.189-1.911 1.587-6.055 1.587-9.245 0-.295-.632.66-1.77-.407m-80.963 21.79c-2.22 0-4.453.323-6.364 1.292-2.543.927-5.1.295-7.629 1.883-1.264.941-3.512.309-5.408.309.632.955-.323 2.22 0 3.203.955 1.897 2.852 3.16 4.762 3.484 3.19.31 6.055.31 9.23-.295 1.265 0 1.265-1.925 2.22-2.88 1.91-1.897 4.144-.632 6.364-.941 3.512 5.409 10.185 2.852 15.285 3.821 1.91-2.22 5.1-3.821 5.1-7.333-.955 0-1.91.309-2.473.112-1.98-1.39-3.568-2.992-5.802-2.023-3.189.955-7.32 2.543-10.185.955-1.588 1.56-2.22-.955-4.145-.955M610.104 418.06l11.97-5.296 17.181 45.11-11.464 6.828-17.687-46.642m23.096-13.88l12.94 53.203 11.983-3.54-11.548-53.512-13.375 3.82m32.467-7.571l-1.897 57.867 10.818 3.484 3.315-60.312-12.236-1.04m11.463 64.26l3.822 8.92 30.88-39.814-6.056-11.112-28.66 42.006m6.927 13.711l1.686 8.233 40.418-20.048-.281-12.77-41.823 24.585m2.317 13.01v8.892l40.433-10.817-.646-10.509-39.786 12.433" fill="#fff"/><path d="M770.71 527.346s2.866-7.952 3.82-8.584c.956-.66 19.093-13.389 28.323-14.99 9.23-1.56 14.4.253 22.296-.927 8.583-1.265 31.82 1.896 31.82 1.896s-1.587 5.732-3.807 5.732c-2.22 0-11.464-5.1-20.062-2.852-7.698 1.995-14.006 0-21.326.295-7.32.337-15.594 3.19-20.047 7.334-4.468 4.144-9.23 11.463-9.23 11.463l-11.787.633" fill="#e8d9a8"/><path d="M711.508 568.424s3.4 2.965 6.378 4.257c2.965 1.264 8.05 5.48 9.75 6.336 1.686.871 9.736 2.992 13.15 0 3.386-2.964 19.949-5.072 25.892-3.372 5.928 1.672 30.12 6.772 33.52 4.243 3.386-2.57 7.221-8.5 15.707-7.657 8.485.857 33.52-1.671 36.077-.407 2.543 1.264 21.635 3.821 23.756 1.672 2.122-2.107 8.064-6.364 16.55-6.364 8.471 0 17.392.435 22.492 2.15 5.086 1.671 16.957-.858 21.2-2.15 4.242-1.265 16.128-1.672 18.249-2.965 2.121-1.264 1.264-3.807 1.264-3.807s-11.464-1.264-15.285.408c-3.807 1.7-22.913 3.849-25.892 2.135-2.964-1.7-11.028-2.978-16.957-2.543-5.942.408-44.562 1.672-47.962 2.108-3.386.407-23.335 2.992-28.87 2.992-5.507 0-11.464.407-17.828 0-6.364-.436-29.278 0-33.52.407-4.243.422-13.164 1.7-16.972 2.122-3.82.435-26.748 1.264-29.291.843-2.543-.408-11.464-.408-11.464-.408m207.809 15.58l1.026-1.04-.506-.491 1.012 1.531.267-.52c.758 0-1.265.773-2.29.52h-.267l.014-1.812h.253c.267.534-.253 1.293.505 1.812m-2.809.745h-3.063l.506-.267c-.253-.253-.492-.745-1.012-.506-.014 1.784-2.037 0-2.795 0l.505.506c1.026-1.784 2.023-.506 3.316-1.517-.267.772.492 1.011.759 1.545.252-1.292 1.784-1.264 2.795-2.037-.267 1.012 1.012 2.304-1.025 2.276m-22.394-.829c0-.52-1.278 1.026-2.81 1.784-1.517-1.04-3.048.506-4.58 1.265l-.758-.759-.506.492c1.264.491 6.378-3.049 8.668-2.782m-11.492 1.77v1.012c-3.301-2.304-5.338-1.04-7.628.21l-.506-.238c-4.594 3.568-12.995-1.293-18.348 2.22-1.025-.254-2.543.252-3.301-.492 5.1-.253 10.452-3.54 14.765-.984 3.049.267 6.617.267 9.174-1.756.506-.253.506-1.025.506-1.264.252-.253.505.239.772.239l.506-.731c.997 1.012 2.782 1.25 4.046 1.784m18.348-.477l.506-.492-.506.492 1.025 1.053.506-.534v.534c1.264.239 3.316-.506 4.833-1.025-.492 0-2.037 3.33-4.074 1.517h-1.265c-.505-.253-2.795-1.264-4.074-2.065v-.745c1.026.506 2.29.506 3.049 1.265m-55.029 12.32l.491-.491c-3.568 2.276-8.148 1.517-11.97 1.728 1.8-2.53 6.379-1.237 10.72-2.22l.759 1.011m4.551 13.754l.506-.492c-.014.492-.014 1.25.492 1.25l.773-.758-.267.52c3.048 1.264 4.58-1.264 7.136-.492-.014.492.253.759.492.759l-1.264.506v-.506l-2.29-.028v1.545c-.267-.28-.506-.492-1.026-.492-1.025.984.506 0 0-.52-.505-.252-.758-1.025-1.264-.772-.506.239-.506.773-.506 1.264 0-.491-.253-.744-.506-1.025 0 1.545-1.784 1.025-2.29.506-.744-2.29-4.313-.773-2.261-3.049 1.25-.52 2.009 1.012 2.275 1.784m-10.002-.225c-1.798 4.58-6.884 3.049-9.947 3.288-2.29-2.023-6.87-.014-9.174-.014 1.026-1.026 1.026-1.265 2.29-1.784l.267.52c1.026-1.546 2.29-1.026 3.316-1.026 1.784-2.304 3.554 2.557 5.085.534-.252.239-.491.491-.505.73 1.025 1.293 1.798-.239 2.795-.239 1.518-.252 4.075-2.009 5.873-2.009l.491-.772v1.264l-.491-.492m60.367 14.625c2.81-1.264 5.62-3.287 8.668-2.023 1.265 0 5.592 4.847 8.402 2.051 2.557-1.236 4.34-1.503 6.884-1.503-3.063 2.796-5.1.239-8.416 2.276l-.253-.52c-1.278 1.784-3.568 1.784-5.1.492-1.783-1.784-4.565-2.796-6.855-1.784-2.543.744-5.606 2.767-8.654 1.756-3.554-6.392-9.933-.801-15.271-1.84 5.591.28 12.222-4.805 16.521 1.067h4.074m-62.418 9.764l-.506.534c2.29 2.796 6.617 2.304 9.174 1.278 3.568-4.06 8.134 3.85 12.475.548 0-.758-1.026-1.278-1.531-1.798 2.037 1.04 4.34 1.798 6.11-.506.507-.492 1.027-1.25 1.8-1.011 1.25 3.048-3.33 1.264-3.836 3.82-4.341.731-8.921 2.249-12.728-1.08-3.063 1.025-7.91 4.06-11.464.997-1.012-5.114-4.327-1.293-7.39-1.546-1.784.998-3.821 1.756-5.858 2.01 4.074-2.796 5.1-2.277 9.68-3.794.266.281 3.329-2.276 4.074.534m59.567 12.672c-.015 2.023 2.022-.492 1.517 1.812-4.833-1.04-6.884 5.297-12.49 3.512-2.542-.772-6.617-1.04-8.654-.8-2.795 2.037-5.338 1.517-6.87.772 4.342.759 8.669-1.517 11.478-2.528 3.555 3.315 7.882 1.545 10.944.309.759-1.293 2.037-3.049 4.089-3.049m2.261.745l.506 1.53-.506-1.53m3.315 1.531c-.266.773-1.264.267-1.783.492l.505-1.504c.76 1.012.76-.252 1.265 1.012M889.9 679.227c-.014.52.252.759.491 1.04 1.279.252.267-1.265 1.026-1.04 1.025-1.026 1.531.028 2.557-1.026-.253 0-.773 2.318-2.557 1.546-.759.239-.506.744-.506 1.264-4.341 1.784-7.867-8.43-12.461-5.142-3.049-2.05-5.606 3.302-8.149-.786 2.29 1.04 6.884-1.012 9.947-.998 5.1-.492 4.819 6.645 9.666 5.114m14.765-.449c-.506-.492-1.026-1.251-1.784-.76l4.58.029c.252 1.264-1.279 1.264-2.038 1.756h-1.784c0-2.037-1.278.492-1.784-1.545-.267.252-.506.52-.506 1.053-2.29-2.065-3.315-.028-5.872-.548l-1.531 1.532c.28-4.06 4.86-3.288 7.91-2.248 0 .983 2.036 1.503 2.795.758m4.917-77.394c-1.812 4.58-6.884 3.034-9.947 3.287-2.276-2.023-6.87-.028-9.174-.028 1.026-1.011 1.026-1.264 2.304-1.784l.253.492c1.026-1.504 2.29-.984 3.316-.984 1.798-2.276 3.568 2.557 5.1.492-.267.28-.506.52-.506.773.997 1.292 1.784-.253 2.796-.253 1.517-.24 4.06-2.023 5.872-2.023l.506-.745-.014 1.264-.492-.52m-13.501-7.136l.506-.52c-3.569 2.276-8.163 1.503-11.984 1.756 1.798-2.557 6.378-1.264 10.72-2.248l.758 1.012m4.552 13.74l.506-.492c-.014.492-.014 1.264.491 1.264l.773-.772-.267.533c3.049 1.25 4.594-1.264 7.137-.505 0 .52.253.772.506.772l-1.279.492v-.492l-2.29-.028v1.546c-.267-.253-.506-.506-1.025-.506-1.026 1.025.505 0 0-.52-.492-.239-.759-1.011-1.265-.759-.506.267-.506.759-.506 1.25 0-.491-.252-.73-.505-.983 0 1.518-1.784.984-2.29.464-.745-2.276-4.313-.759-2.262-3.049 1.25-.491 2.009 1.026 2.276 1.785m-4.594.744c-1.798 4.58-6.87 3.049-9.947 3.302-2.276-2.037-6.87-.029-9.174-.029 1.026-1.025 1.04-1.264 2.304-1.784l.253.52c1.026-1.545 2.29-1.025 3.316-1.025 1.798-2.304 3.568 2.556 5.086.533-.253.24-.492.492-.492.73.997 1.293 1.784-.238 2.81-.238 1.503-.253 4.06-2.009 5.858-2.009l.492-.773v1.265l-.492-.492m-53.695-29.052c-1.798 4.58-6.87 3.048-9.946 3.287-2.276-2.023-6.87-.028-9.174-.028 1.026-1.04 1.026-1.265 2.304-1.785l.253.492c1.026-1.503 2.29-1.011 3.315-1.011 1.799-2.248 3.569 2.585 5.1.52-.267.28-.506.52-.506.772 1.012 1.264 1.785-.253 2.796-.253 1.517-.239 4.074-1.995 5.858-1.995l.506-.772v1.264l-.506-.492" fill="#fff"/><path d="M833.044 576.221l.506-.491c-3.569 2.276-8.162 1.503-11.984 1.756 1.798-2.557 6.378-1.265 10.705-2.29l.773 1.053m4.524 13.741l.506-.493c0 .492 0 1.265.505 1.265l.773-.773-.267.52c3.049 1.264 4.58-1.264 7.137-.492 0 .492.239.773.492.773l-1.265.492v-.492h-2.29v1.503c-.267-.239-.506-.492-1.025-.492-1.026 1.012.505 0 0-.491-.506-.281-.759-1.04-1.265-.801-.505.28-.505.773-.505 1.264 0-.491-.253-.744-.506-1.011 0 1.531-1.784 1.011-2.29.492-.759-2.276-4.313-.773-2.262-3.05 1.25-.49 2.009 1.012 2.262 1.785m-4.58.773c-1.798 4.552-6.87 3.02-9.947 3.26-2.276-2.024-6.87-.029-9.173-.029 1.025-1.011 1.025-1.264 2.304-1.784l.252.52c1.026-1.532 2.29-1.04 3.316-1.012 1.798-2.276 3.568 2.557 5.086.52-.253.253-.492.492-.492.745.997 1.264 1.784-.253 2.81-.253 1.503-.24 4.06-2.023 5.858-1.995l.492-.773v1.264l-.492-.491m38.044 54.79c-1.798 4.552-6.884 3.02-9.946 3.273-2.29-2.037-6.87 0-9.174-.028 1.025-1.025 1.025-1.264 2.29-1.756l.252.492c1.04-1.531 2.304-1.012 3.316-1.012 1.798-2.276 3.568 2.543 5.1.52-.253.239-.506.492-.506.759 1.026 1.264 1.784-.24 2.81-.24 1.531-.28 4.088-2.036 5.872-2.036l.506-.759v1.25l-.506-.491m-13.5-7.151l.505-.534c-3.568 2.304-8.162 1.517-11.97 1.756 1.785-2.514 6.365-1.25 10.706-2.248l.758 1.026m4.538 13.74l.506-.492c0 .492 0 1.293.505 1.293l.76-.773-.254.492c3.049 1.264 4.58-1.265 7.123-.492 0 .52.239.773.492.773l-1.25.491v-.491h-2.29l-.015 1.503c-.252-.24-.491-.492-1.011-.492-1.026 1.012.506 0 0-.492-.506-.28-.759-1.011-1.265-.772-.505.253-.505.772-.52 1.264.015-.492-.252-.773-.491-1.011-.014 1.503-1.784.983-2.276.463-.759-2.276-4.341-.773-2.29-3.048 1.279-.492 2.023 1.04 2.29 1.784m-5.268-.38c-1.799 4.58-6.884 3.049-9.947 3.288-2.29-2.023-6.87-.028-9.174-.028 1.026-1.012 1.026-1.265 2.29-1.784l.253.491c1.026-1.503 2.304-.983 3.316-.983 1.798-2.304 3.568 2.557 5.085.492-.238.28-.491.52-.491.772 1.025 1.293 1.784-.253 2.795-.253 1.518-.238 4.074-2.023 5.873-2.023l.491-.744v1.264l-.491-.52m52.992-24.501c-1.799 4.58-6.884 3.035-9.947 3.288-2.29-2.051-6.87-.028-9.174-.057 1.026-.983 1.026-1.264 2.29-1.756l.267.492c1.026-1.503 2.29-1.011 3.316-.983 1.784-2.304 3.554 2.557 5.085.491-.252.281-.505.492-.505.773 1.025 1.264 1.798-.253 2.81-.253 1.53-.239 4.088-2.023 5.872-2.023l.506-.744v1.264l-.506-.52m-13.501-7.137l.506-.491c-3.569 2.276-8.149 1.475-11.97 1.728 1.798-2.557 6.364-1.237 10.705-2.248l.759 1.011m4.538 13.74l.505-.492c0 .492 0 1.265.506 1.265l.759-.773-.253.52c3.034 1.264 4.58-1.25 7.123-.492 0 .492.253.773.491.773l-1.25.492v-.52h-2.29l-.014 1.531c-.253-.239-.492-.492-1.011-.52-1.026 1.054.505.028 0-.491-.506-.24-.76-1.012-1.265-.773-.506.253-.506.773-.506 1.264 0-.491-.267-.73-.505-1.011 0 1.531-1.785 1.011-2.276.491-.759-2.304-4.341-.758-2.276-3.048 1.264-.52 2.009 1.025 2.276 1.784m-4.594.773c-1.798 4.552-6.884 3.02-9.947 3.26-2.29-2.024-6.87 0-9.174-.015 1.026-1.025 1.026-1.264 2.29-1.756l.267.492c1.026-1.546 2.29-1.026 3.316-1.026 1.784-2.276 3.554 2.557 5.085.534-.252.239-.505.492-.505.759 1.025 1.264 1.798-.24 2.795-.24 1.532-.252 4.075-2.036 5.873-2.036l.506-.773v1.264l-.506-.491m-39.519-19.205c-1.799 4.58-6.884 3.049-9.933 3.287-2.29-2.023-6.87-.028-9.174-.028 1.026-1.011 1.026-1.25 2.29-1.784l.267.506c1.026-1.517 2.29-1.026 3.316-1.026 1.784-2.247 3.554 2.585 5.085.52-.253.281-.506.534-.506.773 1.026 1.264 1.799-.239 2.796-.239 1.532-.253 4.074-2.009 5.873-2.009l.491-.773v1.265l-.491-.492m-13.501-7.193l.505-.492c-3.568 2.276-8.148 1.504-11.97 1.756 1.8-2.556 6.365-1.264 10.706-2.247l.759 1.011m4.537 13.754l.506-.492c0 .492 0 1.25.506 1.25l.759-.758-.253.52c3.048 1.264 4.58-1.265 7.122-.492 0 .52.253.759.506.759l-1.264.491v-.491h-2.29l-.014 1.517c-.253-.253-.492-.492-1.012-.492-1.025 1.012.506 0 0-.534-.505-.239-.758-1.011-1.264-.73-.506.239-.506.73-.506 1.264 0-.534-.253-.773-.506-1.053 0 1.545-1.77 1.025-2.275.505-.76-2.29-4.342-.772-2.276-3.048 1.264-.492 2.023 1.04 2.276 1.784m-6.702.548c-1.798 4.58-6.884 3.048-9.946 3.287-2.276-2.023-6.856-.028-9.16-.028 1.011-1.011 1.025-1.264 2.29-1.784l.253.492c1.025-1.504 2.29-.984 3.315-.984 1.798-2.304 3.569 2.557 5.1.492-.253.28-.506.52-.506.773 1.026 1.292 1.784-.253 2.796-.253 1.517-.24 4.074-2.023 5.872-2.023l.492-.745-.014 1.264-.478-.52m93.481 25.851c-1.798 4.58-6.884 3.006-9.947 3.259-2.29-2.023-6.87-.028-9.174-.028 1.026-1.012 1.026-1.265 2.29-1.785l.267.52c1.026-1.503 2.29-1.011 3.316-1.011 1.784-2.276 3.554 2.557 5.086.52-.253.252-.506.491-.506.772 1.025 1.265 1.798-.28 2.795-.28 1.532-.24 4.075-1.996 5.873-1.996l.506-.772v1.264l-.506-.492m-13.487-7.136l.506-.52c-3.569 2.276-8.148 1.503-11.97 1.756 1.798-2.557 6.364-1.265 10.705-2.248l.759 1.012m4.538 13.739l.506-.52c0 .52 0 1.265.505 1.265l.759-.745-.253.506c3.049 1.278 4.58-1.236 7.123-.478 0 .492.253.745.506.745l-1.265.52v-.52h-2.29v1.531c-.267-.267-.506-.52-1.025-.52-1.026 1.026.505 0 0-.491-.506-.267-.759-1.012-1.265-.773-.505.253-.505.745-.505 1.264 0-.52-.267-.758-.506-1.04 0 1.532-1.784 1.04-2.29.52-.759-2.303-4.313-.758-2.262-3.076 1.25-.492 2.009 1.054 2.262 1.812m-4.58.745c-1.798 4.58-6.884 3.02-9.947 3.287-2.29-2.023-6.87-.014-9.173-.042 1.025-1.025 1.025-1.264 2.29-1.756l.266.492c1.026-1.546 2.29-1.026 3.316-1.026 1.784-2.276 3.554 2.557 5.1.534-.267.239-.52.52-.52.759 1.025 1.264 1.798-.24 2.81-.24 1.53-.252 4.088-2.036 5.872-2.036l.506-.773v1.265l-.506-.492m-33.015-55.999c-1.798 4.58-6.87 3.049-9.946 3.288-2.276-2.023-6.87-.028-9.174-.028 1.025-1.04 1.025-1.265 2.304-1.785l.253.492c1.025-1.503 2.29-1.011 3.315-1.011 1.799-2.248 3.569 2.585 5.1.52-.267.28-.506.52-.506.772.998 1.265 1.784-.253 2.796-.253 1.517-.239 4.06-1.995 5.858-1.995l.492-.772v1.264l-.492-.492m-13.487-7.192l.506-.492c-3.568 2.276-8.162 1.503-11.983 1.756 1.798-2.557 6.378-1.265 10.705-2.248l.772 1.011m4.538 13.754l.506-.506c0 .506 0 1.265.506 1.265l.772-.759-.266.52c3.048 1.264 4.58-1.264 7.136-.492 0 .52.24.759.492.759l-1.264.492v-.492l-2.29-.028v1.545c-.267-.253-.506-.506-1.026-.506-1.025 1.026.506 0 0-.52-.506-.238-.759-1.01-1.264-.73-.506.239-.506.73-.506 1.25 0-.52-.253-.758-.506-1.04 0 1.546-1.784 1.026-2.29.493-.758-2.276-4.313-.76-2.262-3.035 1.25-.506 2.01 1.012 2.262 1.784m-4.58.731c-1.798 4.58-6.87 3.048-9.946 3.301-2.276-2.037-6.87-.028-9.174-.028 1.026-1.025 1.026-1.264 2.304-1.784l.253.492c1.025-1.504 2.29-.984 3.315-.984 1.799-2.304 3.569 2.543 5.1.52-.267.239-.506.492-.506.73 1.012 1.293 1.784-.238 2.796-.238 1.517-.253 4.074-2.037 5.858-2.037l.506-.73v1.25l-.506-.52m69.977-8.416c-1.798 4.58-6.884 3.049-9.946 3.288-2.276-2.023-6.87-.028-9.174-.028 1.025-1.04 1.025-1.265 2.304-1.784l.253.491c1.025-1.503 2.29-1.011 3.315-1.011 1.799-2.248 3.569 2.585 5.1.52-.253.28-.506.52-.506.772.998 1.265 1.784-.253 2.796-.253 1.531-.239 4.06-1.995 5.872-1.995l.506-.772-.014 1.264-.492-.492m-13.501-7.164l.506-.492c-3.568 2.276-8.162 1.475-11.97 1.728 1.785-2.557 6.365-1.236 10.706-2.248l.758 1.04m4.552 13.711l.506-.491c0 .491-.014 1.264.492 1.264l.772-.773-.266.534c3.048 1.25 4.593-1.264 7.136-.506 0 .534.253.773.506.773l-1.278.492v-.492l-2.29-.028v1.545c-.253-.28-.506-.505-1.026-.505-1.025 1.025.506 0 0-.52-.492-.24-.759-1.012-1.264-.759-.492.267-.506.759-.506 1.279 0-.52-.253-.76-.492-1.04-.014 1.545-1.798 1.011-2.304.492-.744-2.276-4.313-.759-2.262-3.035 1.25-.534 2.023 1.012 2.276 1.77m-4.594.745c-1.812 4.58-6.884 3.048-9.946 3.301-2.29-2.037-6.884-.028-9.174-.028 1.04-1.025 1.04-1.264 2.304-1.784l.253.52c1.025-1.546 2.29-1.012 3.315-1.012 1.799-2.318 3.569 2.543 5.086.52-.239.239-.492.492-.492.73.998 1.293 1.784-.238 2.796-.238 1.517-.253 4.06-2.01 5.872-2.01l.492-.758-.014 1.25-.478-.491m21.158-20.582c-1.798 4.594-6.884 3.02-9.947 3.302-2.29-2.065-6.87-.028-9.174-.028 1.026-1.012 1.026-1.265 2.29-1.784l.267.491c1.026-1.503 2.29-1.011 3.316-1.011 1.784-2.276 3.554 2.57 5.086.52-.253.266-.506.491-.506.772 1.025 1.25 1.784-.253 2.795-.253 1.532-.253 4.075-2.037 5.873-2.037l.506-.758v1.292l-.506-.534m-13.487-7.151l.506-.491c-3.583 2.276-8.149 1.503-11.97 1.756 1.798-2.557 6.364-1.265 10.705-2.29l.759 1.054m4.538 13.739l.506-.491c0 .491 0 1.264.505 1.264l.759-.773-.253.492c3.049 1.292 4.58-1.236 7.123-.464 0 .492.239.773.506.773l-1.265.492v-.492h-2.29l-.014 1.503c-.253-.239-.492-.52-1.011-.52-1.026 1.04.505 0 0-.491-.506-.253-.759-1.012-1.265-.773-.505.281-.505.773-.505 1.264 0-.491-.253-.772-.506-1.011 0 1.531-1.77 1.011-2.276.492-.759-2.276-4.341-.773-2.276-3.077 1.264-.464 2.023 1.04 2.276 1.812" fill="#fff"/><path d="M938.677 592.49c-1.798 4.58-6.884 3.048-9.947 3.287-2.29-2.023-6.87-.028-9.174-.028 1.026-1.04 1.026-1.264 2.29-1.784l.267.492c1.026-1.504 2.29-1.012 3.316-1.012 1.784-2.248 3.554 2.585 5.086.52-.253.28-.506.52-.506.773 1.025 1.264 1.784-.253 2.795-.253 1.532-.24 4.089-1.995 5.873-1.995l.506-.773v1.265l-.506-.492m.801 36.765c-1.799 4.58-6.884 3.021-9.947 3.288-2.29-2.051-6.87-.028-9.174-.042 1.026-1.026 1.026-1.265 2.29-1.756l.253.491c1.026-1.545 2.304-1.025 3.316-1.025 1.798-2.276 3.568 2.557 5.1.534-.254.239-.506.52-.506.758 1.025 1.265 1.784-.238 2.81-.238 1.53-.253 4.073-2.038 5.872-2.038l.491-.772v1.264l-.491-.492m-13.502-7.164l.507-.492c-3.569 2.276-8.163 1.517-11.97 1.728 1.784-2.515 6.364-1.265 10.705-2.248l.759 1.012m7.741 16.057l.52-.52c-.014.52-.014 1.265.491 1.265l.773-.745-.267.492c3.049 1.264 4.58-1.264 7.137-.492-.014.492.239.773.491.773l-1.264.492v-.492l-2.29-.028v1.531c-.267-.253-.506-.492-1.025-.492-1.026.984.505 0 0-.52-.506-.252-.76-1.01-1.265-.772-.506.28-.506.773-.506 1.264 0-.491-.252-.772-.505-1.011 0 1.531-1.785 1.011-2.29.492-.759-2.276-4.313-.773-2.262-3.049 1.25-.492 2.009 1.011 2.262 1.784m-7.783-1.503c-1.799 4.58-6.884 3.034-9.947 3.26-2.29-2.038-6.87 0-9.174-.029 1.026-.983 1.026-1.264 2.29-1.756l.253.492c1.026-1.503 2.29-1.012 3.316-.984 1.798-2.304 3.568 2.543 5.1.492-.254.281-.506.492-.506.773 1.011 1.264 1.784-.253 2.795-.253 1.532-.239 4.074-2.023 5.873-2.023l.505-.745-.014 1.265-.491-.52m-161.997-55.24c-1.812 4.552-6.884 3.02-9.946 3.26-2.29-2.024-6.87 0-9.174-.029 1.025-.983 1.04-1.25 2.304-1.756l.253.506c1.025-1.545 2.29-1.026 3.315-1.026 1.798-2.276 3.569 2.585 5.1.52-.253.253-.506.506-.506.773 1.012 1.264 1.784-.239 2.796-.239 1.531-.253 4.074-2.037 5.872-2.037l.506-.745-.014 1.265-.492-.52m13.164 11.829l.506-.492c0 .492 0 1.25.505 1.25l.76-.758-.254.492c3.049 1.292 4.58-1.265 7.123-.464 0 .492.253.759.506.759l-1.279.506v-.534h-2.276l-.014 1.545c-.253-.281-.505-.492-1.011-.492-1.026.984.492 0 0-.52-.506-.252-.773-1.025-1.265-.772-.505.239-.52.773-.52 1.264 0-.491-.238-.772-.477-1.025-.014 1.517-1.798 1.025-2.29.505-.759-2.304-4.341-.8-2.29-3.048 1.279-.52 2.037 1.011 2.29 1.784m-.941-7.6c-1.799 4.551-6.884 3.02-9.947 3.259-2.276-2.023-6.87-.028-9.174-.028 1.026-1.012 1.026-1.265 2.29-1.784l.267.52c1.026-1.532 2.29-1.04 3.316-1.04 1.784-2.276 3.568 2.585 5.085.52-.252.28-.491.52-.491.772.997 1.265 1.784-.253 2.795-.253 1.518-.238 4.075-1.994 5.873-1.994l.491-.801v1.292l-.491-.491m9.483-.436l.505-.534c0 .534 0 1.265.506 1.265l.773-.731-.267.492c3.049 1.292 4.58-1.265 7.137-.464 0 .492.239.73.477.73l-1.25.52v-.52h-2.29v1.546c-.267-.281-.506-.52-1.025-.52-1.026 1.012.505 0 0-.506-.506-.266-.76-1.04-1.265-.758-.506.239-.506.758-.506 1.264 0-.506-.252-.772-.505-1.025 0 1.517-1.785 1.025-2.29.491-.759-2.304-4.327-.758-2.276-3.062 1.264-.492 2.037 1.04 2.276 1.812m26.06-4.777l.506-.491c0 .491 0 1.25.506 1.25l.772-.759-.267.52c3.049 1.265 4.58-1.264 7.137-.491-.014.491.24.73.478.73l-1.25.534v-.534h-2.29v1.545c-.267-.28-.506-.52-1.026-.52-1.026 1.04.506 0 0-.491-.506-.253-.759-1.054-1.264-.773-.506.24-.506.773-.506 1.265 0-.492-.253-.773-.506-1.026 0 1.545-1.784 1.026-2.29.506-.758-2.304-4.327-.773-2.276-3.077 1.265-.492 2.023 1.04 2.276 1.812m34.982-2.037l.505-.491c0 .491 0 1.292.492 1.292l.773-.773-.267.492c3.048 1.265 4.594-1.264 7.137-.492 0 .492.238.773.491.773l-1.264.492v-.492h-2.29v1.503c-.253-.238-.506-.52-1.026-.52-1.025 1.04.506 0 .014-.491-.505-.253-.772-1.012-1.278-.773-.506.281-.506.773-.506 1.265 0-.492-.253-.773-.491-1.012-.014 1.531-1.799 1.012-2.29.492-.759-2.276-4.341-.773-2.29-3.049 1.278-.492 2.037 1.026 2.29 1.784m100.491-6.364c-1.799 4.552-6.884 3.02-9.947 3.274-2.29-2.037-6.87 0-9.174-.028 1.026-1.026 1.026-1.265 2.29-1.785l.267.52c1.026-1.545 2.29-1.025 3.316-1.025 1.784-2.276 3.554 2.556 5.1.533-.268.24-.506.492-.506.76.997 1.263 1.784-.24 2.795-.24 1.532-.253 4.074-2.037 5.873-2.037l.491-.773v1.265l-.491-.492m-67.167 44.31c-1.813 4.594-6.884 3.02-9.947 3.301-2.276-2.065-6.87-.028-9.16-.028 1.026-1.04 1.026-1.264 2.29-1.784l.253.492c1.025-1.503 2.304-1.012 3.315-1.012 1.799-2.276 3.569 2.543 5.1.52-.267.239-.506.492-.506.773 1.026 1.25 1.785-.253 2.81-.253 1.517-.281 4.074-2.037 5.873-2.037l.491-.759-.014 1.265-.477-.506m47.498 52.711c-1.798 4.594-6.87 3.049-9.946 3.301-2.276-2.065-6.87-.028-9.174-.028 1.026-1.011 1.026-1.264 2.304-1.784l.253.492c1.025-1.503 2.29-1.012 3.315-.984 1.799-2.304 3.569 2.543 5.1.52-.267.239-.506.464-.506.745.998 1.25 1.785-.253 2.796-.253 1.517-.253 4.06-2.037 5.858-2.037l.506-.73v1.264l-.506-.534m3.007-135.866c4.58 1.798 3.034 6.884 3.287 9.96-2.037 2.277-.028 6.856-.028 9.16-1.025-1.04-1.264-1.04-1.784-2.304l.506-.252c-1.518-1.04-1.012-2.304-1.012-3.316-2.276-1.784 2.557-3.54.52-5.072.267.24.506.492.759.492 1.278-1.011-.253-1.784-.253-2.796-.253-1.545-2.023-4.088-2.023-5.872l-.759-.534h1.265l-.506.534m-9.343 21.832c4.566-1.812 3.02-6.856 3.274-9.96-2.037-2.248-.014-6.828-.028-9.16-1.012 1.04-1.265 1.04-1.77 2.304l.505.252c-1.531 1.04-1.025 2.304-1.011 3.316-2.29 1.784 2.557 3.568.52 5.1.252-.24.491-.52.758-.52 1.265 1.011-.253 1.784-.253 2.796-.253 1.545-2.023 4.088-2.023 5.872l-.758.52 1.264-.028-.506-.492M905.24 531.49c4.58 1.812 3.035 6.884 3.288 9.96-2.037 2.277-.028 6.856-.028 9.16-1.025-1.011-1.264-1.011-1.784-2.275l.506-.267c-1.532-1.012-1.012-2.276-1.012-3.33-2.29-1.784 2.557-3.554.52-5.072.253.253.506.492.759.492 1.278-1.011-.253-1.784-.253-2.796-.253-1.53-2.023-4.088-2.023-5.872l-.759-.492h1.264l-.505.492m-9.357 21.846c4.566-1.784 3.02-6.87 3.274-9.933-2.038-2.276-.014-6.884-.029-9.202-1.011 1.054-1.264 1.054-1.77 2.318l.492.24c-1.517 1.039-1.011 2.303-1.011 3.315-2.276 1.812 2.57 3.568.52 5.114.266-.281.505-.492.772-.492 1.264.983-.253 1.77-.253 2.767-.253 1.532-2.023 4.089-2.023 5.873l-.773.492h1.279l-.506-.492m-23.742-17.182c4.58 1.813 3.034 6.884 3.287 9.96-2.037 2.277-.028 6.857-.028 9.16-1.026-1.01-1.264-1.01-1.784-2.275l.506-.24c-1.518-1.039-1.012-2.303-1.012-3.329-2.29-1.798 2.557-3.554.52-5.1.253.253.506.492.758.492 1.279-1.011-.252-1.784-.252-2.767-.253-1.532-2.023-4.088-2.023-5.873l-.76-.52 1.265.029-.505.491m-9.357 21.846c4.566-1.812 3.02-6.884 3.273-9.96-2.037-2.276-.014-6.87-.028-9.174-1.011 1.025-1.264 1.025-1.77 2.29l.506.239c-1.531 1.04-1.026 2.304-1.012 3.343-2.29 1.784 2.557 3.54.52 5.086.253-.253.492-.492.759-.492 1.264 1.012-.253 1.784-.253 2.796-.253 1.531-2.037 4.088-2.023 5.872l-.759.492h1.265l-.506-.492m25.597-27.802c4.566 1.784 3.034 6.87 3.273 9.932-2.037 2.276-.014 6.87-.028 9.174-1.011-1.026-1.264-1.026-1.77-2.276l.506-.28c-1.532-1.012-1.026-2.277-1.012-3.288-2.29-1.813 2.557-3.569.52-5.114.253.28.492.492.759.492 1.264-.984-.253-1.77-.253-2.796-.253-1.503-2.037-4.06-2.023-5.844l-.759-.52 1.265.028-.506.492m-9.371 21.845c4.58-1.812 3.035-6.883 3.288-9.96-2.037-2.276-.028-6.856-.028-9.16-1.026 1.012-1.265 1.012-1.785 2.276l.506.267c-1.517 1.025-1.011 2.276-1.011 3.33-2.276 1.784 2.556 3.54.52 5.071.252-.253.505-.492.758-.492 1.278 1.012-.253 1.785-.239 2.796-.267 1.531-2.023 4.088-2.023 5.872l-.758.492h1.264l-.506-.492m-23.279-19.808c4.58 1.784 3.035 6.856 3.288 9.932-2.037 2.276-.014 6.856-.028 9.16-1.026-1.012-1.265-1.012-1.77-2.276l.491-.28c-1.517-1.012-1.011-2.277-1.011-3.316-2.276-1.785 2.57-3.54.52-5.072.266.239.505.52.772.52 1.265-1.04-.253-1.784-.253-2.796-.253-1.545-2.023-4.088-2.023-5.872l-.758-.52h1.264l-.506.52m-9.356 21.832c4.58-1.799 3.034-6.884 3.287-9.961-2.037-2.276-.028-6.856-.028-9.16-1.025 1.04-1.264 1.04-1.784 2.304l.506.253c-1.532 1.04-1.012 2.304-1.012 3.316-2.29 1.784 2.557 3.568.52 5.1.253-.24.506-.52.759-.52 1.278 1.025-.253 1.784-.253 2.795-.253 1.545-2.023 4.088-2.023 5.873l-.759.533 1.264-.028-.505-.505m-9.23-16.241c4.58 1.812 3.034 6.884 3.287 9.96-2.037 2.277-.028 6.857-.028 9.175-1.026-1.026-1.264-1.026-1.784-2.29l.506-.267c-1.518-1.012-1.012-2.276-1.012-3.316-2.276-1.784 2.557-3.54.52-5.085.267.252.506.491.773.491 1.264-1.011-.267-1.784-.253-2.767-.253-1.532-2.023-4.089-2.023-5.873l-.759-.52h1.264l-.505.52M827.58 559.7c4.565-1.784 3.034-6.856 3.272-9.933-2.037-2.275-.014-6.883-.014-9.187-1.025 1.04-1.278 1.04-1.784 2.304l.506.238c-1.531 1.04-1.011 2.304-1.011 3.33-2.29 1.798 2.556 3.554.52 5.1.252-.281.505-.492.758-.492 1.278.983-.253 1.784-.253 2.768-.253 1.53-2.023 4.088-2.023 5.872l-.759.52 1.265-.028-.506-.492m-8.781-27.03c4.58 1.784 3.035 6.884 3.274 9.933-2.037 2.304-.014 6.884-.014 9.188-1.026-1.04-1.279-1.04-1.784-2.304l.505-.24c-1.53-1.039-1.011-2.303-1.011-3.329-2.29-1.784 2.557-3.554.52-5.071.253.252.506.491.758.491 1.279-1.011-.252-1.812-.252-2.795-.253-1.532-2.024-4.089-2.024-5.873l-.758-.492h1.264l-.506.492m-9.37 21.846c4.58-1.812 3.034-6.884 3.287-9.96-2.037-2.277-.014-6.87-.028-9.174-1.025 1.025-1.264 1.025-1.784 2.304l.506.252c-1.517 1.012-1.012 2.276-1.012 3.316-2.276 1.784 2.571 3.568.52 5.086.267-.253.506-.492.773-.492 1.264 1.011-.253 1.784-.253 2.796-.253 1.53-2.023 4.06-2.023 5.844l-.759.52h1.265l-.506-.52m-8.106-14.934c4.58 1.812 3.034 6.898 3.287 9.96-2.037 2.277-.028 6.87-.028 9.174-1.026-1.025-1.264-1.025-1.784-2.304l.506-.252c-1.518-1.012-1.012-2.276-1.012-3.316-2.29-1.784 2.557-3.568.52-5.114.253.281.506.52.759.52 1.278-1.011-.253-1.77-.253-2.796-.253-1.53-2.023-4.06-2.023-5.872l-.759-.492h1.264l-.505.492m-9.343 21.846c4.566-1.784 3.02-6.884 3.274-9.933-2.038-2.304-.014-6.884-.029-9.188-1.011 1.04-1.264 1.04-1.77 2.304l.506.24c-1.531 1.053-1.026 2.303-1.026 3.329-2.275 1.784 2.571 3.568.52 5.071.267-.252.506-.491.773-.491 1.264 1.011-.253 1.812-.253 2.795-.253 1.532-2.023 4.089-2.023 5.873l-.773.492h1.279l-.506-.492m-6.406-28.617c4.58 1.784 3.034 6.855 3.287 9.932-2.037 2.276-.028 6.856-.028 9.16-1.025-1.012-1.278-1.012-1.784-2.276l.506-.267c-1.532-1.026-1.026-2.276-1.012-3.33-2.29-1.784 2.557-3.54.52-5.071.253.253.506.52.759.52 1.278-1.04-.253-1.813-.253-2.796-.253-1.545-2.023-4.088-2.023-5.872l-.759-.52h1.264l-.505.52m-9.357 21.817c4.58-1.784 3.035-6.87 3.288-9.932-2.037-2.29-.028-6.87-.028-9.174-1.026 1.025-1.265 1.025-1.785 2.276l.506.28c-1.517 1.012-1.011 2.277-1.011 3.288-2.276 1.813 2.556 3.569.52 5.114.266-.281.505-.506.772-.506 1.264.998-.267 1.784-.253 2.81-.253 1.531-2.037 4.06-2.037 5.872l-.758.492h1.264l-.506-.492m-8.148-13.894c4.58 1.784 3.034 6.87 3.287 9.933-2.037 2.276-.028 6.87-.028 9.173-1.025-1.025-1.264-1.025-1.784-2.304l.506-.252c-1.532-1.012-1.012-2.276-1.012-3.316-2.29-1.784 2.557-3.568.52-5.114.253.281.506.534.759.534 1.278-1.025-.253-1.784-.253-2.81-.253-1.503-2.023-4.06-2.023-5.872l-.759-.492h1.264l-.505.492m-9.343 21.846c4.566-1.784 3.02-6.856 3.274-9.933-2.037-2.276-.014-6.855-.028-9.16-1.026 1.012-1.265 1.012-1.77 2.276l.491.267c-1.517 1.026-1.011 2.276-1.011 3.33-2.276 1.784 2.57 3.568.52 5.072.266-.253.505-.492.772-.492 1.265 1.011-.253 1.784-.253 2.796-.253 1.53-2.023 4.088-2.023 5.872l-.772.492h1.278l-.506-.492m-3.863-29.39c4.58 1.812 3.034 6.884 3.287 9.932-2.037 2.276-.028 6.884-.028 9.174-1.025-1.025-1.264-1.025-1.784-2.29l.506-.239c-1.518-1.04-1.012-2.304-1.012-3.315-2.276-1.812 2.557-3.568.52-5.114.267.281.506.492.759.492 1.278-.983-.253-1.784-.24-2.796-.266-1.531-2.022-4.088-2.022-5.872l-.759-.492h1.264l-.505.492m-9.37 21.874c4.565-1.784 3.034-6.884 3.273-9.933-2.037-2.304-.014-6.884-.029-9.188-1.011 1.04-1.264 1.04-1.77 2.304l.506.24c-1.531 1.039-1.025 2.303-1.011 3.315-2.29 1.784 2.556 3.568.52 5.085.252-.252.491-.491.758-.491 1.264 1.011-.253 1.812-.253 2.795-.253 1.532-2.023 4.089-2.023 5.873l-.759.491h1.265l-.506-.491" fill="#fff"/><path d="M742.26 545.918c4.58 1.812 3.035 6.898 3.288 9.96-2.037 2.29-.014 6.87-.028 9.175-1.025-1.026-1.264-1.026-1.784-2.304l.506-.253c-1.518-1.012-1.012-2.276-1.012-3.316-2.276-1.784 2.557-3.568.52-5.1.267.267.506.52.773.52 1.264-1.025-.253-1.784-.253-2.81-.267-1.503-2.023-4.06-2.023-5.872l-.759-.492h1.265l-.506.492m-8.977 18.854c4.58-1.813 3.034-6.856 3.287-9.933-2.037-2.276-.028-6.856-.042-9.16-1.012 1.04-1.264 1.04-1.77 2.304l.506.24c-1.532 1.025-1.012 2.317-1.012 3.329-2.29 1.784 2.557 3.568.52 5.071.253-.239.506-.491.759-.491 1.264 1.011-.253 1.784-.253 2.795-.253 1.546-2.023 4.088-2.023 5.873l-.759.52 1.264-.029-.505-.491m-6.112-30.458c4.58 1.812 3.035 6.884 3.288 9.932-2.037 2.276-.028 6.884-.028 9.202-1.026-1.053-1.265-1.053-1.785-2.318l.506-.239c-1.531-1.04-1.011-2.304-1.011-3.315-2.29-1.784 2.557-3.568.52-5.086.252.253.505.492.758.492 1.279-1.011-.253-1.812-.253-2.796-.253-1.531-2.023-4.088-2.023-5.872l-.758-.492h1.264l-.506.492m-9.342 21.846c4.566-1.784 3.02-6.856 3.273-9.933-2.037-2.276-.014-6.884-.028-9.188-1.025 1.04-1.264 1.04-1.77 2.304l.492.24c-1.518 1.039-1.012 2.303-1.012 3.329-2.276 1.798 2.571 3.554.52 5.1.267-.281.506-.492.773-.492 1.264.983-.253 1.784-.253 2.795-.253 1.532-2.023 4.06-2.023 5.845l-.773.52h1.278l-.505-.52m-6.027-24.01c4.566 1.785 3.02 6.856 3.273 9.933-2.037 2.276-.014 6.856-.028 9.16-1.011-1.012-1.264-1.012-1.77-2.276l.506-.267c-1.532-1.026-1.026-2.276-1.012-3.33-2.29-1.784 2.557-3.54.506-5.071.267.253.506.491.773.52 1.264-1.04-.253-1.813-.253-2.796-.253-1.532-2.037-4.088-2.023-5.873l-.759-.52h1.264l-.505.52m-9.357 21.818c4.58-1.812 3.035-6.898 3.288-9.96-2.037-2.276-.028-6.87-.028-9.174-1.026 1.025-1.265 1.025-1.785 2.304l.506.253c-1.517 1.011-1.011 2.276-1.011 3.315-2.29 1.784 2.556 3.569.52 5.114.252-.281.505-.534.758-.534 1.278 1.026-.253 1.784-.253 2.838-.253 1.503-2.023 4.06-2.023 5.844l-.759.492h1.265l-.506-.492" fill="#fff"/><path d="M705.34 533.19c4.58 1.812 3.035 6.884 3.288 9.932-2.051 2.276-.028 6.884-.042 9.174-1.012-1.025-1.264-1.025-1.77-2.29l.506-.239c-1.532-1.04-1.026-2.304-1.012-3.315-2.29-1.812 2.557-3.568.52-5.114.253.281.492.492.759.492 1.264-.983-.253-1.784-.253-2.796-.253-1.531-2.023-4.088-2.023-5.872l-.759-.492h1.264l-.505.492m-9.357 21.874c4.58-1.784 3.035-6.884 3.288-9.933-2.038-2.304-.029-6.884-.029-9.188-1.025 1.04-1.264 1.04-1.784 2.304l.506.24c-1.517 1.039-1.012 2.303-1.012 3.315-2.275 1.784 2.557 3.568.52 5.085.267-.252.506-.491.773-.491 1.264 1.011-.267 1.812-.253 2.795-.253 1.532-2.023 4.089-2.023 5.873l-.759.491h1.265l-.506-.491m35.782-13.276c4.566 1.784 3.035 6.884 3.274 9.932-2.037 2.276-.014 6.856-.028 9.16-1.012-1.012-1.265-1.012-1.77-2.276l.505-.28c-1.531-1.012-1.025-2.277-1.011-3.288-2.29-1.785 2.557-3.569.52-5.1.252.239.505.52.758.52 1.264-1.04-.253-1.813-.253-2.796-.253-1.545-2.023-4.088-2.023-5.872l-.758-.534h1.264l-.506.534m-9.356 21.803c4.58-1.784 3.034-6.855 3.287-9.932-2.037-2.276-.028-6.856-.028-9.16-1.026 1.012-1.264 1.012-1.784 2.304l.506.253c-1.518 1.011-1.012 2.276-1.012 3.287-2.276 1.813 2.557 3.569.52 5.1.267-.239.506-.492.759-.492 1.278 1.012-.253 1.785-.24 2.796-.266 1.517-2.022 4.06-2.022 5.844l-.759.52h1.264l-.505-.52m-5.128-22.337c4.58 1.812 3.034 6.898 3.287 9.96-2.037 2.29-.028 6.87-.042 9.174-1.011-1.025-1.264-1.025-1.77-2.304l.506-.253c-1.532-1.011-1.012-2.276-1.012-3.315-2.29-1.784 2.557-3.569.52-5.1.253.267.506.52.759.52 1.264-1.026-.253-1.784-.253-2.81-.253-1.531-2.023-4.06-2.023-5.872l-.759-.492h1.265l-.506.492" fill="#1691ff"/><path d="M707.8 563.072c4.58-1.813 3.034-6.884 3.287-9.933-2.037-2.304-.028-6.884-.028-9.188-1.026 1.04-1.265 1.04-1.785 2.304l.506.24c-1.517 1.053-1.011 2.303-1.011 3.329-2.276 1.784 2.57 3.568.52 5.071.266-.239.505-.491.772-.491 1.264 1.011-.267 1.784-.253 2.795-.253 1.546-2.023 4.088-2.023 5.873l-.758.52h1.278l-.52-.52m38.241-30.697c4.58 1.784 3.034 6.856 3.287 9.933-2.05 2.275-.028 6.855-.028 9.16-1.025-1.012-1.264-1.012-1.784-2.305l.506-.252c-1.517-1.012-1.012-2.276-1.012-3.288-2.29-1.812 2.557-3.568.52-5.1.253.24.506.492.759.492 1.264-1.011-.253-1.784-.253-2.796-.253-1.517-2.023-4.088-2.023-5.872l-.759-.506h1.265l-.506.506m-9.357 21.832c4.58-1.812 3.035-6.856 3.288-9.96-2.037-2.277-.014-6.857-.028-9.16-1.026 1.039-1.265 1.039-1.77 2.303l.491.253c-1.517 1.04-1.011 2.304-1.011 3.316-2.276 1.784 2.57 3.54.52 5.071.266-.238.505-.491.772-.491 1.265 1.011-.253 1.784-.253 2.795-.253 1.518-2.023 4.089-2.023 5.873l-.758.492h1.264l-.506-.492m23.855-12.096c4.566 1.812 3.02 6.884 3.274 9.932-2.038 2.304-.014 6.884-.029 9.188-1.011-1.04-1.264-1.04-1.77-2.304l.506-.239c-1.531-1.025-1.026-2.304-1.026-3.33-2.275-1.783 2.571-3.568.52-5.07.253.252.506.49.773.49 1.25-1.01-.253-1.783-.253-2.795-.253-1.531-2.037-4.088-2.023-5.872l-.773-.492h1.279l-.506.492m-9.356 21.846c4.58-1.785 3.034-6.898 3.287-9.933-2.037-2.304-.028-6.87-.028-9.174-1.026 1.026-1.265 1.026-1.784 2.276l.505.253c-1.517 1.012-1.011 2.304-1.011 3.316-2.29 1.784 2.557 3.568.52 5.113.253-.28.505-.533.758-.533 1.279 1.053-.253 1.784-.253 2.837-.252 1.504-2.023 4.06-2.023 5.873l-.758.491 1.264-.028-.506-.463m21.298-32.495c4.58 1.812 3.035 6.884 3.288 9.96-2.051 2.276-.028 6.856-.028 9.16-1.026-1.011-1.279-1.011-1.784-2.276l.505-.267c-1.531-1.011-1.011-2.275-1.011-3.33-2.29-1.77 2.557-3.525.52-5.07.252.252.505.491.758.491 1.279-1.011-.253-1.784-.253-2.768-.253-1.53-2.023-4.088-2.023-5.872l-.758-.52h1.264l-.506.52" fill="#1691ff"/><path d="M762.983 553.308c4.566-1.784 3.02-6.856 3.273-9.933-2.037-2.276-.014-6.884-.028-9.174-1.011 1.026-1.264 1.026-1.784 2.29l.506.24c-1.518 1.039-1.012 2.303-1.012 3.315-2.276 1.812 2.571 3.568.52 5.113.267-.28.506-.491.773-.491 1.264.983-.253 1.784-.253 2.795-.253 1.532-2.037 4.06-2.023 5.845l-.773.52h1.278l-.505-.52m16.24-11.198c4.566 1.813 3.035 6.885 3.273 9.933-2.037 2.304-.014 6.884-.014 9.188-1.025-1.04-1.278-1.04-1.784-2.304l.506-.239c-1.531-1.053-1.026-2.304-1.011-3.33-2.29-1.783 2.556-3.567.52-5.099.252.281.505.52.758.52 1.264-1.012-.253-1.784-.253-2.796-.253-1.531-2.023-4.088-2.023-5.872l-.759-.52h1.265l-.506.52m-9.371 21.846c4.58-1.813 3.035-6.898 3.288-9.933-2.037-2.29-.014-6.87-.028-9.174-1.026 1.026-1.265 1.026-1.784 2.276l.505.281c-1.517 1.012-1.011 2.276-1.011 3.288-2.276 1.812 2.557 3.568.52 5.113.267-.28.505-.505.772-.505 1.265.997-.267 1.784-.253 2.81-.252 1.503-2.023 4.06-2.023 5.872l-.758.492 1.264-.029-.506-.463m26.384-32.495c4.58 1.812 3.035 6.884 3.287 9.96-2.037 2.277-.028 6.856-.028 9.16-1.025-1.011-1.264-1.011-1.784-2.275l.506-.267c-1.517-1.012-1.012-2.276-1.012-3.33-2.275-1.784 2.557-3.554.52-5.072.267.253.506.492.759.492 1.278-1.011-.253-1.784-.253-2.796-.253-1.53-2.023-4.088-2.023-5.872l-.759-.492h1.265l-.506.492m-9.357 21.846c4.566-1.784 3.021-6.87 3.274-9.933-2.037-2.276-.014-6.884-.028-9.202-1.012 1.054-1.265 1.054-1.77 2.318l.505.24c-1.531 1.039-1.025 2.303-1.011 3.315-2.29 1.812 2.557 3.568.52 5.114.253-.281.491-.492.758-.492 1.265.983-.253 1.77-.253 2.767-.252 1.532-2.023 4.089-2.023 5.873l-.758.492h1.264l-.506-.492m14.471-11.773c4.58 1.784 3.034 6.856 3.287 9.932-2.037 2.276-.028 6.856-.028 9.16-1.026-1.011-1.264-1.011-1.784-2.304l.505-.239c-1.517-1.025-1.011-2.29-1.011-3.33-2.29-1.783 2.557-3.567.52-5.07.253.252.506.491.758.491 1.279-1.012-.252-1.784-.252-2.796-.253-1.531-2.023-4.088-2.023-5.872l-.76-.492h1.265l-.505.492m14.315-9.385c4.58 1.813 3.035 6.884 3.288 9.933-2.037 2.304-.028 6.884-.028 9.188-1.026-1.04-1.265-1.04-1.785-2.304l.506-.24c-1.517-1.053-1.011-2.303-1.011-3.329-2.29-1.784 2.556-3.568.52-5.071.266.253.505.491.758.491 1.278-1.011-.253-1.784-.239-2.795-.253-1.532-2.023-4.088-2.023-5.873l-.758-.491h1.264l-.506.491m-9.357 21.846c4.567-1.812 3.035-6.898 3.274-9.96-2.037-2.276-.014-6.87-.028-9.174-1.012 1.025-1.264 1.025-1.77 2.276l.506.28c-1.532 1.012-1.026 2.277-1.012 3.316-2.29 1.784 2.557 3.54.52 5.086.253-.253.492-.506.758-.506 1.265 1.026-.252 1.784-.252 2.81-.253 1.531-2.023 4.088-2.023 5.872l-.76.492h1.265l-.505-.492m23.868-12.11c4.58 1.784 3.035 6.898 3.274 9.933-2.037 2.276-.014 6.87-.028 9.173-1.012-1.025-1.265-1.025-1.77-2.275l.505-.281c-1.531-1.012-1.011-2.276-1.011-3.288-2.29-1.784 2.557-3.568.52-5.114.253.281.491.506.758.506 1.265-.997-.253-1.784-.253-2.81-.252-1.503-2.023-4.06-2.023-5.872l-.758-.492h1.264l-.506.492m-8.415 18.277c4.566-1.812 3.035-6.883 3.274-9.932-2.038-2.304-.014-6.884-.029-9.188-1.011 1.04-1.264 1.04-1.77 2.304l.506.239c-1.531 1.054-1.026 2.318-1.011 3.33-2.29 1.784 2.556 3.568.52 5.071.252-.239.491-.492.758-.492 1.264 1.012-.253 1.785-.253 2.796-.253 1.545-2.023 4.088-2.023 5.872l-.759.492h1.265l-.506-.492m20.343-28.87c4.58 1.813 3.034 6.898 3.287 9.96-2.037 2.29-.028 6.87-.028 9.175-1.026-1.012-1.264-1.012-1.784-2.304l.506-.253c-1.518-1.012-1.012-2.276-1.012-3.316-2.29-1.784 2.557-3.568.52-5.1.253.268.506.52.758.52 1.279-1.025-.252-1.784-.238-2.837-.253-1.504-2.023-4.06-2.023-5.845l-.759-.491h1.264l-.505.491" fill="#1691ff"/><path d="M832.482 553.111c4.566-1.812 3.035-6.856 3.274-9.932-2.038-2.276-.014-6.884-.029-9.188-1.011 1.04-1.264 1.04-1.77 2.304l.506.239c-1.531 1.053-1.026 2.318-1.011 3.33-2.29 1.811 2.556 3.567.52 5.099.252-.267.491-.52.758-.52 1.264 1.012-.253 1.784-.253 2.796-.253 1.545-2.023 4.088-2.023 5.872l-.773.492h1.279l-.506-.492m16.226-11.197c4.58 1.784 3.035 6.87 3.288 9.933-2.037 2.276-.028 6.87-.028 9.174-1.026-1.026-1.265-1.026-1.784-2.276l.505-.281c-1.517-1.012-1.011-2.276-1.011-3.288-2.29-1.812 2.557-3.568.52-5.113.252.28.505.505.758.505 1.279-.997-.253-1.784-.253-2.81-.253-1.503-2.023-4.06-2.023-5.844l-.758-.491h1.264l-.506.491m-11.365 16.409c4.566-1.784 3.034-6.856 3.273-9.932-2.037-2.276-.014-6.856-.028-9.16-1.011 1.011-1.264 1.011-1.77 2.276l.506.267c-1.532 1.025-1.026 2.29-1.012 3.33-2.29 1.783 2.557 3.54.52 5.07.253-.238.492-.49.759-.519 1.264 1.04-.253 1.812-.253 2.824-.253 1.545-2.023 4.088-2.023 5.872l-.759.492h1.264l-.505-.492m28.406-27.058c4.566 1.813 3.02 6.898 3.274 9.933-2.037 2.29-.014 6.87-.028 9.174-1.026-1.012-1.265-1.012-1.785-2.276l.506-.281c-1.517-1.012-1.011-2.276-1.011-3.288-2.276-1.812 2.57-3.568.52-5.113.266.28.505.505.772.505 1.265-.997-.267-1.784-.253-2.81-.253-1.503-2.023-4.06-2.023-5.872l-.772-.491 1.278.028-.506.463m-9.37 21.875c4.58-1.813 3.034-6.885 3.287-9.933-2.051-2.304-.028-6.884-.042-9.188-1.011 1.04-1.264 1.04-1.77 2.304l.506.239c-1.518 1.053-1.012 2.304-1.012 3.33-2.29 1.783 2.557 3.568.52 5.07.253-.252.506-.49.759-.49 1.264 1.01-.253 1.783-.253 2.795-.253 1.531-2.023 4.088-2.023 5.872l-.759.52h1.264l-.505-.52m27.844-12.433c4.566 1.784 3.02 6.87 3.274 9.933-2.037 2.275-.014 6.87-.028 9.173-1.012-1.025-1.265-1.025-1.785-2.276l.506-.28c-1.517-1.012-1.011-2.276-1.011-3.288-2.276-1.812 2.57-3.568.52-5.114.266.281.505.506.772.506 1.265-.997-.253-1.784-.253-2.81-.253-1.503-2.023-4.06-2.023-5.872l-.772-.492h1.264l-.492.492m14.315-9.385c4.567 1.813 3.021 6.898 3.274 9.96-2.037 2.29-.014 6.87-.028 9.175-1.011-1.026-1.264-1.026-1.77-2.276l.506-.281c-1.532-1.012-1.026-2.276-1.012-3.288-2.29-1.812 2.557-3.568.52-5.113.253.253.492.505.759.505 1.264-.997-.253-1.784-.253-2.81-.253-1.502-2.037-4.06-2.023-5.872l-.759-.491 1.265.028-.506.463m-9.357 21.847c4.58-1.785 3.035-6.857 3.288-9.933-2.037-2.276-.028-6.856-.028-9.16-1.026 1.011-1.265 1.011-1.785 2.276l.506.267c-1.517 1.025-1.011 2.276-1.011 3.33-2.29 1.783 2.557 3.54.52 5.07.252-.252.505-.519.758-.519 1.279 1.04-.253 1.784-.253 2.824-.253 1.531-2.023 4.088-2.023 5.872l-.758.492h1.264l-.506-.492m23.869-12.124c4.58 1.812 3.035 6.884 3.288 9.933-2.038 2.304-.029 6.884-.029 9.188-1.025-1.04-1.264-1.04-1.784-2.304l.506-.253c-1.517-1.04-1.012-2.304-1.012-3.316-2.29-1.784 2.557-3.568.52-5.071.267.238.506.491.759.491 1.278-1.011-.253-1.784-.253-2.795-.253-1.546-2.023-4.089-2.023-5.873l-.759-.492h1.265l-.506.492m-8.443 16.437c4.566-1.812 3.02-6.898 3.273-9.96-2.037-2.276-.014-6.87-.028-9.174-1.012 1.025-1.264 1.025-1.784 2.304l.506.253c-1.518 1.011-1.012 2.276-1.012 3.315-2.276 1.784 2.57 3.569.534 5.114.253-.281.492-.534.759-.534 1.264 1.026-.253 1.784-.253 2.838-.253 1.503-2.037 4.06-2.023 5.844l-.773.492h1.278l-.505-.492m20.384-27.03c4.566 1.785 3.035 6.856 3.274 9.933-2.037 2.276-.014 6.856-.028 9.16-1.012-1.012-1.265-1.012-1.77-2.276l.491-.267c-1.517-1.026-1.011-2.29-1.011-3.33-2.276-1.784 2.57-3.54.534-5.071.252.253.491.491.758.491 1.265-1.011-.253-1.784-.253-2.795-.253-1.546-2.023-4.088-2.023-5.873l-.772-.491h1.278l-.506.491" fill="#1691ff"/><path d="M915.328 552.268c4.58-1.784 3.034-6.87 3.287-9.932-2.037-2.29-.028-6.87-.028-9.174-1.025 1.011-1.264 1.011-1.784 2.276l.506.28c-1.518 1.012-1.012 2.277-1.012 3.288-2.29 1.812 2.557 3.569.52 5.114.253-.281.506-.506.759-.506 1.278.998-.253 1.784-.253 2.81-.253 1.503-2.023 4.06-2.023 5.844l-.759.492h1.264l-.505-.492m15.931-15.566c4.566 1.812 3.035 6.884 3.273 9.96-2.037 2.277-.014 6.857-.028 9.16-1.011-1.011-1.264-1.011-1.77-2.275l.506-.267c-1.531-1.012-1.026-2.276-1.012-3.316-2.29-1.784 2.557-3.54.52-5.085.253.252.492.491.759.491 1.264-1.011-.253-1.784-.253-2.795-.253-1.504-2.037-4.06-2.023-5.845l-.759-.52h1.265l-.506.52m-10.663 23.237c4.58-1.798 3.034-6.884 3.287-9.96-2.037-2.277-.028-6.856-.028-9.16-1.025 1.04-1.278 1.04-1.784 2.304l.506.252c-1.532 1.04-1.012 2.304-1.012 3.288-2.29 1.812 2.557 3.568.52 5.1.253-.24.506-.492.759-.492 1.278 1.011-.253 1.784-.253 2.796-.253 1.545-2.023 4.088-2.023 5.872l-.759.534 1.265-.028-.506-.506m27.999-29.488c4.58 1.784 3.035 6.855 3.287 9.932-2.05 2.276-.028 6.856-.042 9.16-1.011-1.012-1.264-1.012-1.77-2.304l.506-.239c-1.531-1.026-1.012-2.29-1.012-3.33-2.29-1.784 2.557-3.568.52-5.071.253.239.492.492.759.492 1.264-1.012-.253-1.785-.253-2.796-.253-1.546-2.023-4.06-2.023-5.844l-.759-.52h1.265l-.506.52m-9.371 21.817c4.58-1.784 3.035-6.898 3.288-9.932-2.037-2.318-.028-6.87-.028-9.174-1.026 1.011-1.265 1.011-1.784 2.276l.505.28c-1.517 1.012-1.011 2.277-1.011 3.288-2.276 1.784 2.557 3.569.52 5.1.266-.267.505-.492.758-.492 1.279.998-.253 1.784-.239 2.81-.253 1.503-2.023 4.06-2.023 5.858l-.758.506h1.264l-.506-.506m-68.993 5.198c4.566-1.812 3.02-6.898 3.273-9.96-2.037-2.276-.014-6.87-.028-9.174-1.011 1.025-1.264 1.025-1.77 2.304l.506.253c-1.532 1.011-1.026 2.276-1.026 3.315-2.276 1.785 2.571 3.54.52 5.114.253-.28.492-.534.773-.534 1.25 1.026-.253 1.784-.253 2.81-.253 1.503-2.037 4.06-2.023 5.872l-.773.492h1.278l-.505-.492m5.9-8.345c4.58-1.784 3.035-6.884 3.288-9.932-2.037-2.304-.029-6.884-.029-9.188-1.025 1.04-1.264 1.04-1.784 2.304l.506.239c-1.517 1.04-1.011 2.304-1.011 3.33-2.276 1.77 2.556 3.554.52 5.1.266-.282.505-.493.758-.52 1.278 1.01-.253 1.812-.239 2.795-.267 1.531-2.023 4.088-2.023 5.872l-.759.492h1.265l-.506-.492" fill="#1691ff"/><path d="M943.819 556.103c4.566-1.812 3.02-6.883 3.273-9.932-2.037-2.276-.014-6.856-.028-9.16-1.012 1.012-1.264 1.012-1.77 2.276l.506.267c-1.532 1.026-1.026 2.276-1.012 3.33-2.29 1.784 2.557 3.54.52 5.071.253-.253.492-.52.759-.52 1.264 1.04-.253 1.813-.253 2.796-.253 1.531-2.023 4.088-2.023 5.872l-.773.52h1.278l-.505-.52m-7.573-23.123c4.58 1.797 3.035 6.883 3.274 9.96-2.037 2.276-.014 6.856-.028 9.16-1.012-1.04-1.265-1.04-1.77-2.304l.505-.253c-1.531-1.04-1.025-2.304-1.011-3.288-2.29-1.812 2.557-3.568.52-5.1.252.24.505.492.758.492 1.265-1.025-.253-1.784-.253-2.795-.253-1.518-2.023-4.103-2.023-5.873l-.758-.506h1.264l-.506.506" fill="#fff"/><path d="M886.907 586.997c0 2.037 2.037-.492 1.517 1.784-4.832-1.04-6.884 5.324-12.475 3.54-2.543-.772-6.617-1.04-8.654-.786-2.796 2.023-5.353 1.503-6.87.73 4.327.773 8.654-1.475 11.464-2.487 3.568 3.316 7.895 1.532 10.944.267.773-1.264 2.051-3.048 4.088-3.048m-13.543 7.333c0 2.023 2.037-.491 1.531 1.813-4.846-1.054-6.897 5.324-12.489 3.512-2.543-.773-6.617-1.054-8.654-.773-2.796 2.023-5.353 1.475-6.87.745 4.327.758 8.654-1.518 11.464-2.53 3.568 3.316 7.895 1.532 10.944.296.773-1.25 2.051-3.035 4.088-3.035m-1.644-13.613c-1.798 4.552-6.883 3.02-9.946 3.26-2.29-2.024-6.87-.029-9.174-.029 1.026-1.011 1.04-1.25 2.304-1.784l.253.534c1.026-1.545 2.304-1.054 3.315-1.026 1.799-2.276 3.569 2.557 5.086.52-.239.253-.492.506-.492.745.998 1.264 1.785-.24 2.796-.24 1.517-.252 4.06-2.008 5.873-2.008l.491-.773-.014 1.265-.477-.492m49.002-2.417c-.014 2.038 2.023-.491 1.517 1.785-4.833-1.012-6.884 5.324-12.49 3.54-2.542-.773-6.616-1.04-8.653-.8-2.796 2.036-5.339 1.517-6.87.744 4.34.773 8.668-1.475 11.478-2.5 3.554 3.3 7.88 1.545 10.944.28.758-1.264 2.037-3.048 4.088-3.048" fill="#a8efff"/><path d="M907.236 585.634c-.014 2.023 2.023-.506 1.517 1.784-4.833-1.053-6.884 5.31-12.49 3.526-2.542-.758-6.616-1.04-8.64-.758-2.81 1.995-5.352 1.475-6.883.716 4.34.787 8.668-1.489 11.478-2.528 3.554 3.343 7.88 1.559 10.944.295.772-1.25 2.023-3.035 4.074-3.035m-1.644-13.614c-1.798 4.58-6.884 3.05-9.947 3.288-2.275-2.023-6.87-.028-9.173-.028 1.025-1.04 1.025-1.264 2.29-1.784l.266.492c1.026-1.504 2.29-1.012 3.316-1.012 1.784-2.248 3.568 2.585 5.1.52-.267.28-.506.52-.506.773 1.011 1.264 1.784-.253 2.796-.253 1.531-.24 4.088-1.995 5.872-1.995l.506-.773v1.264l-.506-.491m31.427 11.689c0 2.022 2.037-.492 1.531 1.812-4.832-1.04-6.897 5.324-12.489 3.512-2.543-.773-6.617-1.04-8.654-.801-2.796 2.037-5.353 1.517-6.87.773 4.327.772 8.654-1.518 11.464-2.53 3.568 3.316 7.895 1.546 10.958.31.759-1.264 2.037-3.049 4.074-3.049m-13.543 7.292c0 2.037 2.037-.492 1.532 1.784-4.847-1.012-6.884 5.324-12.49 3.54-2.543-.758-6.617-1.04-8.654-.758-2.796 1.995-5.352 1.475-6.87.73 4.327.773 8.654-1.503 11.464-2.515 3.568 3.316 7.895 1.532 10.958.267.759-1.264 2.037-3.02 4.074-3.02m-1.629-13.599c-1.799 4.551-6.884 3.006-9.947 3.259-2.29-2.037-6.87-.028-9.174-.028 1.026-1.012 1.026-1.265 2.29-1.784l.253.491c1.04-1.503 2.304-.983 3.316-.983 1.798-2.276 3.568 2.557 5.1.492-.254.28-.507.52-.507.8 1.026 1.265 1.785-.28 2.796-.28 1.532-.24 4.074-2.024 5.873-1.995l.505-.773v1.264l-.505-.491m27.043 30.837c-.014 2.023 2.024-.492 1.518 1.784-4.833-1.04-6.884 5.324-12.476 3.54-2.556-.773-6.63-1.04-8.654-.8-2.81 2.036-5.352 1.517-6.884.744 4.342.8 8.669-1.49 11.478-2.529 3.555 3.358 7.882 1.574 10.944.31.773-1.265 2.023-3.05 4.074-3.021m-13.528 7.291c-.014 2.037 2.023-.492 1.517 1.784-4.833-1.04-6.884 5.325-12.476 3.54-2.556-.758-6.63-1.04-8.654-.786-2.81 2.023-5.352 1.503-6.883.73 4.34.773 8.668-1.475 11.477-2.486 3.555 3.315 7.882 1.531 10.944.267.759-1.265 2.023-3.049 4.075-3.049m-1.644-13.571c-1.798 4.58-6.87 3.006-9.947 3.26-2.276-2.024-6.87-.029-9.174-.029 1.026-1.011 1.026-1.264 2.304-1.784l.253.52c1.026-1.503 2.29-1.012 3.316-1.012 1.784-2.276 3.568 2.557 5.1.52-.267.253-.506.492-.506.773.997 1.264 1.784-.281 2.795-.253 1.518-.267 4.06-2.023 5.859-2.023l.506-.745v1.265l-.506-.52m11.885 17.856c-.014 2.065 2.023-.464 1.517 1.812-4.832-1.04-6.884 5.325-12.489 3.512-2.543-.744-6.617-1.011-8.654-.772-2.796 2.009-5.339 1.517-6.87.744 4.341.773 8.668-1.503 11.478-2.529 3.554 3.358 7.881 1.574 10.944.31.759-1.265 2.037-3.05 4.088-3.05m-17.631 10.369c-.014 2.037 2.023-.492 1.517 1.784-4.833-1.04-6.884 5.325-12.49 3.54-2.542-.758-6.616-1.04-8.653-.786-2.796 2.023-5.339 1.503-6.87.73 4.341.773 8.668-1.475 11.478-2.486 3.554 3.315 7.881 1.53 10.944.266.772-1.264 2.037-3.048 4.088-3.02" fill="#a8efff"/><path d="M926.384 616.64c-1.798 4.58-6.87 3.034-9.946 3.287-2.29-2.037-6.87-.028-9.174-.028 1.025-1.012 1.025-1.264 2.304-1.784l.253.492c1.025-1.504 2.29-.984 3.315-.984 1.798-2.304 3.555 2.557 5.1.492-.267.28-.506.52-.52.772 1.026 1.293 1.798-.252 2.81-.252 1.517-.24 4.074-1.995 5.858-1.995l.506-.773v1.264l-.506-.491m-28.674-3.569c0 2.023 2.038-.491 1.532 1.784-4.847-1.053-6.898 5.325-12.49 3.54-2.542-.772-6.616-1.053-8.653-.772-2.796 2.023-5.353 1.475-6.87.717 4.327.786 8.654-1.49 11.463-2.501 3.569 3.315 7.896 1.531 10.944.28.773-1.264 2.052-3.02 4.089-3.02m-13.543 7.291c0 2.038 2.037-.491 1.531 1.785-4.847-1.012-6.898 5.324-12.49 3.54-2.542-.772-6.616-1.04-8.653-.8-2.81 2.036-5.353 1.545-6.87.744 4.327.8 8.654-1.475 11.464-2.5 3.568 3.329 7.895 1.573 10.944.308.772-1.264 2.05-3.048 4.088-3.048m-1.644-13.642c-1.812 4.594-6.884 3.049-9.947 3.302-2.29-2.037-6.87-.028-9.173-.028 1.025-1.012 1.025-1.265 2.29-1.784l.252.491c1.026-1.503 2.29-.983 3.316-.983 1.798-2.276 3.568 2.543 5.1.52-.253.239-.506.491-.506.744 1.025 1.279 1.784-.253 2.796-.253 1.53-.252 4.06-2.023 5.872-2.023l.506-.744-.014 1.264-.492-.52" fill="#a8efff"/><path d="M863.502 607.915c-.014 2.023 2.037-.505 1.517 1.77-4.833-1.04-6.884 5.325-12.475 3.54-2.557-.758-6.631-1.039-8.654-.786-2.81 2.023-5.353 1.503-6.884.745 4.34.758 8.668-1.518 11.478-2.501 3.568 3.316 7.881 1.531 10.944.267.772-1.264 2.023-3.035 4.074-3.035m-13.529 7.32c0 2.037 2.037-.492 1.517 1.784-4.833-1.012-6.884 5.324-12.475 3.54-2.557-.772-6.631-1.04-8.654-.8-2.81 2.037-5.353 1.517-6.884.744 4.34.8 8.668-1.475 11.478-2.5 3.568 3.329 7.881 1.545 10.944.308.772-1.264 2.037-3.048 4.074-3.048m-1.63-13.613c-1.798 4.551-6.87 3.02-9.946 3.273-2.276-2.037-6.87 0-9.174-.028 1.025-1.026 1.025-1.264 2.304-1.756l.253.492c1.025-1.546 2.29-1.012 3.315-1.012 1.798-2.29 3.569 2.543 5.086.52-.253.239-.492.492-.492.758.998 1.265 1.784-.238 2.81-.238 1.503-.253 4.06-2.037 5.858-2.037l.492-.76v1.251l-.492-.491m25.288 33.562c0 2.009 2.037-.52 1.531 1.784-4.832-1.04-6.898 5.325-12.489 3.54-2.543-.8-6.617-1.067-8.654-.828-2.796 2.037-5.339 1.545-6.87.772 4.327.773 8.654-1.503 11.478-2.528 3.554 3.33 7.881 1.573 10.944.309.759-1.265 2.037-3.049 4.074-3.049m-17.687 7.249c0 2.023 2.037-.506 1.531 1.798-4.833-1.04-6.884 5.325-12.49 3.513-2.542-.73-6.616-1.04-8.653-.759-2.796 1.995-5.339 1.503-6.87.745 4.327.758 8.654-1.518 11.478-2.53 3.554 3.316 7.881 1.532 10.944.296.758-1.265 2.037-3.035 4.074-3.035m-9.272-13.149c-1.813 4.58-6.884 3.048-9.947 3.287-2.29-2.023-6.884-.028-9.174-.028 1.026-1.04 1.026-1.25 2.29-1.784l.253.506c1.026-1.518 2.29-1.026 3.316-1.026 1.798-2.248 3.568 2.585 5.1.52-.268.28-.507.534-.507.772.998 1.265 1.785-.238 2.81-.238 1.517-.253 4.074-2.037 5.873-2.037l.491-.745-.014 1.264-.477-.52m60.972 7.404c0 2.037 2.036-.491 1.53 1.813-4.846-1.04-6.897 5.324-12.489 3.512-2.543-.759-6.63-1.04-8.654-.759-2.795 1.995-5.352 1.475-6.87.73 4.327.773 8.654-1.503 11.464-2.514 3.569 3.315 7.896 1.531 10.944.267.773-1.265 2.051-3.049 4.088-3.049m-13.543 7.362c0 2.023 2.037-.492 1.532 1.784-4.847-1.04-6.898 5.325-12.49 3.54-2.543-.8-6.617-1.053-8.654-.8-2.81 2.037-5.352 1.503-6.87.744 4.327.759 8.654-1.517 11.464-2.529 3.569 3.316 7.896 1.56 10.944.31.773-1.265 2.051-3.05 4.088-3.05m-1.629-13.612c-1.813 4.58-6.884 3.02-9.947 3.287-2.29-2.023-6.884-.028-9.174-.028 1.026-1.04 1.026-1.25 2.29-1.77l.253.491c1.026-1.517 2.29-1.025 3.316-1.025 1.798-2.276 3.568 2.585 5.1.534-.253.267-.506.52-.506.758 1.025 1.265 1.784-.238 2.81-.238 1.53-.253 4.088-2.01 5.872-2.01l.506-.772-.014 1.264-.492-.491m40.924 15.341c-.014 2.023 2.037-.492 1.517 1.784-4.833-1.011-6.884 5.325-12.475 3.54-2.557-.772-6.631-1.04-8.654-.8-2.81 2.037-5.353 1.517-6.87.744 4.327.787 8.654-1.489 11.464-2.529 3.568 3.344 7.895 1.56 10.944.31.772-1.265 2.037-3.05 4.088-3.021m-13.543 7.291c0 2.037 2.037-.491 1.517 1.784-4.833-1.04-6.884 5.325-12.475 3.54-2.557-.758-6.631-1.039-8.654-.786-2.81 2.023-5.353 1.503-6.87.73 4.327.773 8.654-1.475 11.464-2.486 3.568 3.315 7.895 1.531 10.944.267.772-1.265 2.037-3.049 4.088-3.02" fill="#a8efff"/><path d="M918.32 639.525c-1.798 4.58-6.87 3.007-9.946 3.26-2.276-2.038-6.87-.029-9.174-.029 1.025-1.011 1.025-1.264 2.304-1.784l.253.52c1.025-1.503 2.29-1.012 3.315-1.012 1.798-2.275 3.569 2.557 5.1.52-.267.253-.506.492-.506.773 1.012 1.264 1.784-.281 2.796-.281 1.517-.239 4.074-1.995 5.858-1.995l.52-.773-.014 1.265-.506-.492m-7.951 34.068c-.014 2.037 2.037-.491 1.517 1.785-4.833-1.012-6.884 5.324-12.49 3.54-2.542-.759-6.616-1.04-8.654-.759-2.81 1.995-5.338 1.475-6.87.703 4.342.8 8.669-1.475 11.478-2.487 3.555 3.316 7.882 1.531 10.944.267.76-1.264 2.038-3.02 4.089-3.02m-15.37-8.556c0 2.023 2.037-.52 1.532 1.784-4.847-1.04-6.898 5.324-12.49 3.54-2.543-.8-6.617-1.04-8.654-.829-2.796 2.066-5.352 1.546-6.87.773 4.327.773 8.654-1.503 11.464-2.529 3.569 3.33 7.896 1.574 10.958.31.759-1.265 2.037-3.05 4.074-3.05" fill="#a8efff"/><path d="M895.21 667.314c-1.798 4.58-6.884 3.02-9.947 3.287-2.29-2.023-6.87-.028-9.173-.028 1.025-1.04 1.025-1.25 2.29-1.77l.266.492c1.026-1.518 2.29-1.026 3.316-1.026 1.784-2.276 3.554 2.557 5.1.534-.267.267-.506.52-.52.758 1.025 1.265 1.798-.238 2.81-.238 1.53-.253 4.088-2.01 5.872-2.01l.506-.772v1.264l-.506-.491m29.348 7.769c0 2.023 2.037-.492 1.531 1.784-4.847-1.04-6.898 5.324-12.49 3.54-2.542-.8-6.616-1.054-8.653-.8-2.796 2.036-5.353 1.503-6.87.744 4.327.759 8.654-1.517 11.464-2.529 3.568 3.316 7.895 1.56 10.958.31.758-1.265 2.037-3.05 4.074-3.05m-13.543 7.32c0 2.037 2.037-.52 1.531 1.784-4.847-1.04-6.884 5.325-12.49 3.54-2.542-.772-6.616-1.04-8.653-.786-2.81 2.023-5.353 1.503-6.87.73 4.327.773 8.654-1.475 11.478-2.514 3.554 3.315 7.881 1.559 10.944.295.758-1.265 2.037-3.049 4.074-3.049" fill="#a8efff"/><path d="M909.413 668.803c-1.798 4.58-6.884 3.006-9.946 3.26-2.29-2.038-6.87 0-9.174-.029 1.025-1.011 1.025-1.264 2.29-1.784l.267.52c1.025-1.504 2.29-1.012 3.301-1.012 1.798-2.276 3.569 2.571 5.1.52-.253.28-.506.492-.506.773 1.026 1.264 1.784-.281 2.796-.253 1.531-.24 4.088-2.023 5.872-2.023l.506-.745v1.265l-.506-.52M790.462 586.42c-.014 2.038 2.037-.52 1.518 1.785-4.833-1.04-6.898 5.324-12.49 3.54-2.543-.772-6.617-1.067-8.654-.8-2.796 2.037-5.352 1.517-6.87.744 4.327.773 8.668-1.503 11.478-2.515 3.554 3.316 7.881 1.56 10.944.295.759-1.264 2.037-3.048 4.088-3.048m-15.172-6.281c-1.799 4.58-6.884 3.05-9.947 3.288-2.29-2.023-6.87-.028-9.174-.028 1.026-1.04 1.026-1.25 2.29-1.784l.267.506c1.026-1.517 2.29-1.026 3.316-1.026 1.784-2.276 3.554 2.585 5.085.52-.253.253-.505.534-.505.773 1.025 1.264 1.784-.24 2.795-.24 1.532-.252 4.074-2.036 5.873-2.036l.491-.745v1.265l-.491-.52" fill="#a8efff"/><path d="M614.88 739.23c0-6.056 3.428-9.568 9.526-9.568 6.083 0 9.525 3.54 9.525 9.567 0 6.07-3.442 9.582-9.525 9.582s-9.525-3.513-9.525-9.582zm9.526-6.014c-3.456 0-4.173 3.19-4.173 6.07 0 2.739.717 5.928 4.173 5.928s4.172-3.189 4.172-5.928c0-2.852-.716-6.07-4.172-6.07m20.524 18.559h-5.099v-18.39h8.5c3.105 0 7.122.857 7.122 4.72 0 2.768-2.107 4.201-4.678 4.524v.084c3.26.085 3.864 1.728 4.2 4.58.113 1.518.408 2.993.844 4.454h-5.521c-.281-1.265-.436-2.585-.562-3.878-.197-2.22-.295-3.147-2.894-3.147h-1.911v7.025zm1.982-10.593c1.644 0 3.203-.253 3.203-2.121 0-1.883-1.574-2.108-3.203-2.108h-1.981v4.23h1.98m12.968 4.256c0-6.041 3.442-9.553 9.525-9.553s9.525 3.512 9.525 9.553c0 6.055-3.428 9.567-9.525 9.567-6.083 0-9.525-3.512-9.525-9.567zm9.525-6.013c-3.456 0-4.173 3.203-4.173 6.083 0 2.726.717 5.929 4.173 5.929s4.172-3.203 4.172-5.929c0-2.88-.716-6.083-4.172-6.083"/><path d="M707.7 759.867v-3.049m31.835 2.67v-3.049" fill="none" stroke="#000" stroke-width="12.729"/><path d="M759.85 755.259v-18.39h8.443c4.51 0 7.46 1.461 7.46 5.9 0 4.482-2.964 5.901-7.46 5.901h-3.357v6.56h-5.1zm7.713-10.13c2.009-.083 2.838-.983 2.838-2.331 0-1.349-.843-2.248-2.838-2.36h-2.613v4.692h2.613m10.199 9.82v-18.376h5.1v14.808h8.303v3.568h-13.403m15.552-2.248l7.25-18.348h6.209l7.235 18.348h-5.732l-1.222-3.568h-7.46l-1.194 3.568h-5.1zm12.518-7.137l-2.347-7.628h-.084l-2.486 7.628h4.917m12.868-8.612h-5.633v-3.568h16.479v3.568h-5.76v14.822H818.7v-14.822m9.947 13.557l7.249-18.39h6.21l7.249 18.39h-5.746l-1.222-3.596h-7.46l-1.195 3.596h-5.1zm12.517-7.164l-2.346-7.657h-.084l-2.5 7.657h4.93M720.822 757.97l-6.968-11.52h5.859l3.975 7.629 4.117-7.629h5.184l-7.137 11.52-.253 9.82h-5.043l.266-9.82"/><path style="line-height:125%;text-align:center" d="M292.546 253.568v-91.114h27.712l18.123 69.34 17.877-69.34h27.835v91.114h-17.567v-73.485l-18.495 73.485h-19.175l-18.743-73.485v73.485h-17.567m161.877-45.464c0 10.02 2.226 17.814 6.68 23.381 4.454 5.526 10.68 8.289 18.68 8.289 8.083 0 14.372-2.763 18.866-8.289 4.495-5.567 6.743-13.36 6.743-23.381 0-10.02-2.248-17.794-6.743-23.32-4.494-5.567-10.783-8.35-18.865-8.35-8 0-14.227 2.763-18.68 8.288-4.455 5.526-6.681 13.32-6.681 23.382m-19.114 0c0-14.722 4-26.392 12-35.01 8.041-8.66 18.866-12.99 32.475-12.99 13.608 0 24.432 4.33 32.474 12.99 8.082 8.66 12.123 20.33 12.123 35.01s-4.04 26.35-12.123 35.01c-8.042 8.66-18.866 12.99-32.474 12.99-13.609 0-24.433-4.33-32.475-12.99-8-8.66-12-20.33-12-35.01m140.041 45.464v-91.114h19.609l36.99 62.598v-62.598h18.494v91.114h-19.36l-37.238-62.598v62.598H575.35m149.01 0v-74.846h-27.03v-16.268h72.618v16.268h-26.845v74.846h-18.742m126.371-72.866l-12.619 38.783h25.3l-12.681-38.783m-10.887-18.248h21.65l32.845 91.114h-19.67l-6.185-18.742h-35.32l-6 18.742h-19.732l32.412-91.114m99.959 91.114v-91.114h19.608l36.99 62.598v-62.598h18.495v91.114h-19.36l-37.238-62.598v62.598h-18.495m164.041-72.866l-12.618 38.783h25.299l-12.68-38.783m-10.887-18.248h21.65l32.845 91.114h-19.67l-6.186-18.742h-35.32l-6 18.742h-19.732l32.413-91.114" font-weight="700" font-size="57.968" font-family="Swis721 BT" text-anchor="middle" fill="#ffd90f"/></svg>