<svg width="660" height="440" version="1.0" xmlns="http://www.w3.org/2000/svg"><path d="M0 440h660V0H0v440z" fill="#002a86"/><g fill="#efae0e"><path d="M336.495 71.676l10.351-7.524-13.134.088-3.949-11.671-3.619 11.561h-12.793l10.351 7.546-4.147 12.419 10.55-7.722 10.526 7.722-4.136-12.419m-93.895 29.92l10.153-7.898-12.98.55-4.334-11.66-3.564 11.858-12.617.561 10.197 7.238-3.421 12.331 10.35-8.096 10.726 7.348-4.51-12.232m-56.618 87.208l13.145-1.034-11.11-6.765 2.827-12.056-9.405 8.107-11.11-6.6 5.082 11.693-9.966 8.437 12.98-1.111 4.741 12.133 2.816-12.804m12.046 95.238l9.57-8.954-12.805 1.694-5.269-11.11-2.442 12.254-12.606 1.496 11.1 6.193-2.63 12.804 9.592-9.02 10.945 6.479-5.456-11.836m66.209 66.88l2.255-12.804-9.559 9.13-10.912-5.819 5.61 11.198-9.229 8.844 12.617-1.694 5.456 11.836 2.431-12.969 12.793-1.683-11.473-6.017"/><path d="M301.68 75.427l-1.507-.748-1.496-.748-3.2-.363-3.014.187-2.443.561-3.014.748-2.453.176 3.773-2.068 4.884-2.805 4.896-3.399 1.694-1.694 1.32-1.507.946.187 1.11-.385.76-.55.56-.759.188-1.111-.187-1.144-.561-.946-.946-.561-1.133-.363-.935.198-.935.561-.748.935-.187 1.122.187.946.374.946.748.748-.187.176-3.003 2.64-3.575 2.453-3.773 2.057-3.95 2.068-8.084 3.388-8.096 2.453 1.507-.946 1.54-1.034 5.643-2.816 4.3-2.53 1.87-1.694 1.706-1.892 1.694-1.892 1.11-2.255 1.134-2.431.56-2.64-2.442.363-2.068.583-2.266.924-1.88 1.133-3.751 2.629-3.201 3.201-2.816 3.388-2.266 3.377-1.694 3.025-1.122 2.233-.363.396-.946-.396-.375-.726.176-1.133.374-1.32 1.133-3.201.935-3.366h.946l.935-.385.76-.759.373-.946v-.924l-.374-.946-.759-.748-.935-.385h-1.133l-.946.385-.55.748-.374.946-.187.924.374.759.374.55.76.561-.947 3.036-1.32 3.366-1.694 3.586-1.694 2.816-8.085 4.884-.187-.737v-1.133l.748-2.453.76-1.309 1.308-1.122 2.64-2.079.946-1.309.748-2.068.374-2.64v-3.762l-.56.946-1.134.759-2.816 1.859-3.014 2.255-1.309 1.342-1.133 1.672-.374 1.133.187 1.507.561 1.507.935 1.87.374 1.133v1.122l-.187 2.453-2.43 1.881-.76.561-.187.561.187.363.198.198 1.111.187 1.133-.55 3.003-1.892 2.454-.374h2.815l1.32.374 1.32.55 1.122.759.748 1.133-.56.946-.177.924.176 1.144.374.924.946.748 1.122.385 1.134-.187 1.122-.561.759-.946.363-1.122-.176-1.133-.561-.946-.76-.726-.934-.396h-1.133l-.935.396-1.694-1.705-1.881-1.309-2.068-.561-2.068-.187 3.75-2.255 2.069-.385 1.892.187 2.068.385 2.068.924 2.827 1.705 3.575 1.496 1.88.561 1.881.198h2.068l1.881-.561 3.201-1.331 1.122-.363h1.31l-.935-1.32-1.694-1.518-3.378-2.992-2.255-.946-2.453-.385-2.442.198-2.068.748-2.64 1.122-2.64.77-2.441.363-2.255-.561 3.388-1.694 2.629-1.309 8.844-3.003 2.266.165 2.442.946 2.244 1.122 2.079 1.496 3.19 1.705 3.2.946 3.389.385 3.388-.385 3.014-.946 2.805-1.309 2.453-1.892 1.694-2.255-2.266.187-2.442-.363-2.442-.748-2.255-1.32m-81.28 46.475l-1.693.198-1.694.385-2.64 1.694-2.244 1.87-1.694 2.068-1.881 2.442-1.881 1.507 1.694-3.762 2.255-5.456 1.683-5.456.374-2.453v-1.87l.946-.55.56-.946.386-.946v-.946l-.572-1.122-.748-.748-1.122-.363-1.122.165-.947.385-.748.946-.384.924v1.144l.385.946.748.726.946.385 1.121.176v.198l-.934 3.949-1.32 4.147-1.694 4.125-1.881 3.971-4.334 7.689-4.697 6.798 1.309-3.762 2.64-5.654 1.694-4.312.373-2.453.374-2.64v-2.453l-.374-2.618-.748-2.453-1.133-2.453-1.507 1.705-1.507 1.892-1.11 1.859-.947 2.068-1.32 4.51-.56 4.532v4.323l.186 3.949.573 3.399.55 2.618-.176.561-.946.187-.748-.385-.572-.924-.561-1.331-.935-3.201-1.32-3.201.748-.561.374-.946.198-.924-.198-.935-.748-.759-.748-.561-1.122-.165-.946.363-.748.561-.561.946-.187.924.374.946.56.748.562.561.759.187h.935l1.122 2.816.946 3.586.935 3.762.187 3.377-3.201 8.844-.748-.55-.55-.946-.946-2.255-.187-1.705.374-1.672.759-3.201v-1.507l-.76-2.079-1.32-2.431-2.254-3.025v1.133l-.374 1.309-.946 3.201-1.122 3.762-.176 1.892.176 1.87.374 1.122.946 1.133 1.496.946 1.88.748.947.561.748.946 1.32 2.068-.935 3.003v.946l.187.561.187.187h.374l.935-.572.748-1.122 1.133-3.377 1.507-1.694 2.442-1.694 1.32-.561 1.309-.385h1.32l1.32.385v.946l.55.946.759.726.935.561h1.32l.935-.363.946-.924.374-.946.187-1.331-.561-.924-.748-.946-1.133-.561h-.946l-1.111.363-.76.561-.56.946-2.255-.363-2.255.176-2.08.748-1.693 1.133 1.507-4.147 1.32-1.309 1.694-1.133 1.88-.924 2.256-.583 3.2-.363 3.752-.946 1.88-.748 1.695-1.122 1.507-1.144 1.133-1.672 1.694-2.838.748-.924.935-.946-1.507-.385-2.244-.363-4.521-.198-2.255.561-2.266 1.331-1.881 1.683-1.122 1.694-1.31 2.618-1.693 2.277-1.694 1.485-2.068 1.144 1.507-3.399 1.309-2.618 5.082-7.909 2.068-1.144 2.112-.836 2.959-.473 2.266-.165 3.575-.583 3.2-1.122 2.817-1.87 2.453-2.277 2.068-2.618 1.32-2.816.737-2.816v-3.025l-1.683 1.694-2.068 1.122-2.453.946-2.63.385m-36.52 86.922l-1.32 1.122-.935 1.331-1.32 3.003-.56 2.816v5.654l-.562 2.453-.935-4.147-1.507-5.456-2.068-5.445-1.133-2.277-1.122-1.694.374-.924v-.946l-.374-.946-.572-.748-1.11-.561h-1.134l-.946.198-.935.748-.56.946v1.122l.373 1.111.748.77.76.561 1.121.176.935-.176.935-.748v.363l1.694 3.762 1.507 3.949 1.133 4.147.935 4.323 1.133 8.844.374 8.272-.902-1.584-.56-2.09-.98-6.094-1.32-4.51-1.122-2.277-1.309-2.244-1.507-2.079-1.88-1.672-2.069-1.705-2.266-1.133-.374 2.277v2.233l.748 4.51 1.694 4.345 2.266 3.949 2.618 3.564 2.64 3.014 2.442 2.442 2.068 1.705v.55l-.56.759-.738.187-1.133-.385-1.133-.748-2.629-2.068-1.507-.946-1.507-.748.187-.946-.187-1.111-.55-.759-.759-.561-.935-.385-.946.198-.935.561-.572.748-.374.946.187 1.111.572.759.748.748.748.198h.935l.748-.385.572-.561 2.63 1.694 3.013 2.255 3.014 2.453 2.255 2.453 2.618 9.02h-.748l-1.122-.363-2.068-1.331-1.122-1.122-.759-1.507-1.32-3.003-1.122-1.331-1.683-1.122-2.453-1.331-3.575-.726.561.726.561 1.331 1.133 3.201 1.31 3.564.945 1.705 1.32 1.309 1.111.748 1.32.198h1.694l2.068-.759h1.133l1.133.374 2.255.748 1.111 3.025.572.737.374.385h.374l.374-.385.385-.946-.198-1.309-1.122-3.179.374-2.453.748-2.816.572-1.331.935-.946 1.133-.924 1.122-.385.748.748.946.363 1.122.198.946-.198.935-.726.76-.946.186-1.111-.374-1.144-.572-1.133-1.122-.561-1.133-.176-1.133.363-.935.561-.55.748-.198 1.122v.946l-2.068 1.144-1.694 1.496-1.122 1.892-.759 1.87-1.11-4.147.175-2.057.748-1.892.946-1.683 1.31-1.892 2.452-2.255 2.255-3.003 1.133-1.694.748-1.87.374-1.892v-2.068l-.374-3.388-.187-1.122.374-1.331-1.507.77-2.068 1.122-3.575 2.453-1.507 1.87-.935 2.255-.572 2.442.198 2.255.561 2.838v2.618l-.374 2.453-1.133 2.068-1.32-6.578-.748-9.218.935-2.277 1.507-2.057 1.694-1.87 1.881-1.705 2.453-2.442 1.881-3.014 1.111-3.201.572-3.201v-3.179l-.759-3.201-1.11-2.64-1.695-2.431-.385 2.233-.935 2.255-1.32 2.277-1.88 1.87m24.277 91.267l-.374 1.705.187 1.496.56 3.201 1.31 2.64 1.507 2.068 1.88 2.64.936 2.068-3.19-2.651-4.51-3.564-4.895-3.201-2.068-.946-2.068-.55-.187-1.122-.573-.77-.935-.561-.946-.176-1.122.176-.935.561-.748.946-.187 1.133.187 1.144.55.726.946.748 1.122.198.947-.198.935-.363.572-.748.374-1.144.374.198 3.575 1.892 3.574 2.42 3.377 2.651 3.388 3.003 6.204 6.215 5.28 6.402-1.847-.847-1.54-1.408-4.51-4.147-3.95-2.816-2.068-1.144-2.453-.946-2.442-.561-2.453-.363h-2.629l-2.64.363 1.133 2.09 3.015 3.377 1.694 1.496 3.949 2.453 4.136 1.892 4.147 1.111 3.938.946 3.387.385 2.63.176.571.385v.946l-.572.561-1.122.363h-1.32l-3.388.198-3.564.363-.374-.946-.572-.726-.935-.396h-.946l-1.122.396-.572.726-.374.946-.176.946.55 1.133.572.561.935.363 1.133.198.749-.385.572-.561.55-.561.187-.946 3.014-.165h3.762l3.949.165 3.2.583 7.514 5.456-.55.561-1.133.363-2.442.363-1.694-.363-1.507-.748-2.816-1.507-1.507-.363h-2.266l-2.618.561-3.388 1.309.935.363 1.133.561 2.816 2.079 3.388 1.892 1.694.737 1.88.385h1.32l1.123-.759 1.32-1.133 1.309-1.683.935-.55.946-.583 2.442-.561 2.64 1.507.748.385h.572l.374-.198.187-.363-.385-1.133-.935-.924-2.827-1.892-1.31-2.09-.945-2.618-.187-1.507v-1.309l.374-1.331.759-1.111.935.187 1.133-.187.935-.561.56-.946.375-1.122v-1.133l-.561-.946-.935-.737-1.133-.385h-1.122l-1.134.561-.748.946-.374 1.122.176.946.385.935.748.759-1.133 2.057-.374 2.255v2.266l.76 1.881-3.576-2.64-.946-1.672-.55-1.892-.374-2.068.187-2.079.363-3.399v-3.751l-.176-2.068-.374-1.87-.946-1.892-1.133-1.496-2.442-2.453-.748-.946-.385-1.122-.935 1.331-.946 2.068-1.309 4.323-.187 2.255.76 2.442.923 2.255 1.507 1.705 2.068 2.057 1.694 2.068 1.133 2.277.374 2.057-2.816-2.277-2.079-2.057-6.204-6.963-.759-2.255v-2.618l.198-2.651.561-2.42.561-3.399-.374-3.564-.946-3.201-1.495-2.838-2.08-2.618-2.442-2.068-2.442-1.507-2.827-.77 1.133 2.09.561 2.255.187 2.618-.373 2.64m130.042 84.843h3.949l2.266-.561 2.068-1.111v-.385l-.374-.561-2.64-.946-3.95-1.507-2.266-1.111-2.442-1.32-3.575-1.881-2.442-.737-1.694-.583-.946-.55-1.11-1.144-2.069-3.003-1.507-3.762-.198-1.694v-1.507l.946-.363.76-.759.55-.946.187-.924-.385-1.133-.55-.946-.935-.748-1.32-.176-1.122.363-.946.748-.572.946-.176 1.122.176 1.144.572.748.946.748.935.176.187 3.003.748 3.762 1.122 3.201.759 1.331.748.737-4.334-.374-1.683-.946-1.496-1.309-1.507-1.496-.946-2.068-1.32-3.003-2.068-3.399-1.122-1.507-1.507-1.331-1.507-1.111-1.881-.737-3.388-.77-.946-.561-1.111-.748v1.694l.363 2.255.946 4.323 1.122 2.079 1.88 1.87 2.069 1.309 2.079.561 2.816.583 2.453 1.111 2.068 1.144 1.694 1.672-3.762-.561-2.827-.55-9.031-2.816-1.694-1.507-1.31-2.277-1.133-2.233-.935-2.255-1.32-3.399-2.068-2.64-2.64-2.255-2.815-1.87-3.014-1.122-3.003-.572-3.014.187-2.827.759 1.88 1.111 1.882 1.705 1.507 2.057.946 2.453.748 1.694.759 1.309 2.255 2.255 2.618 1.705 2.266.935 2.816 1.122 2.079 1.507-4.488-.649-5.49-.66-5.642-.198-2.453.198-2.057.55-.748-.748-.946-.363h-.946l-.935.363-.935.748-.385.946-.187 1.144.374.924.759.946.935.561h1.133l1.122-.374.748-.55.56-.946.199-1.144-.385-.924h.385l4.136-.187 4.136.187 4.334.363 4.51.759 8.459 2.255 7.909 2.618-3.96-.176-6.204-1.111-4.708-.385-2.431.165-2.453.385-2.442.759-2.453.946-2.255 1.309-1.881 1.694 2.068 1.122 2.068.946 2.266.55 2.255.396h4.52l4.51-.561 4.324-1.144 3.762-1.309 3.014-1.507 2.442-1.133h.56l.562.946-.176.748-.76.759-1.132.946-3.003 1.694-1.32.924-1.32 1.133-.748-.572-.935-.176-1.122.176-.76.572-.56.759-.374.946.187 1.111.56.759.749.748.946.198 1.122-.198.748-.561.56-.561.386-.77v-.924l-.198-.748 2.453-1.892 3.2-1.87 3.378-1.892 3.014-1.122h2.64l2.442.561 2.244.561 2.266.363 1.32.198 1.496.583 3.014 1.859 2.827 2.068 2.442 2.255m79.232-283.008l-9.977-7.887 12.804.363 4.312-11.473 3.575 11.836 12.804.561-10.527 6.963 3.564 12.606-10.34-8.074-10.724 7.15 4.51-12.045m56.264 87.131l-12.793-1.133 11.1-6.578-2.817-12.045 9.592 8.096 10.923-6.6-4.895 11.671 9.966 8.459-13.167-1.111-4.894 11.858-3.014-12.617m-11.859 95.227l-9.405-8.855 12.606 1.694 5.27-11.297 2.64 12.221 12.793 1.705L474.435 286l2.618 12.804-9.581-9.042-11.298 6.204 5.643-11.638m-66.043 66.792l-2.255-12.617 9.218 9.053 11.1-5.852-5.27 11.308 8.79 8.833-12.607-1.705-5.214 11.693-2.442-12.804-12.804-1.705 11.484-6.204"/><path d="M358.33 75.823l1.507-.946 1.496-.561 3.201-.385 3.014.187 2.442.561 3.003.748h2.442l-3.75-1.859-4.895-2.838-4.697-3.377-1.881-1.694-1.32-1.507h-.946l-.935-.198-.946-.55-.55-.946-.187-1.122.187-.946.55-.946.946-.748 1.133-.176 1.122.176.946.583.56.924.188 1.133v.924l-.561.946-.76.561.199.187 3.19 2.651 3.377 2.42 3.762 2.255 3.96 2.09 8.272 3.399 7.909 2.42-1.507-1.111-1.881-1.122-5.456-2.64-4.147-2.64-1.881-1.507-1.672-1.87-1.507-2.079-1.32-2.068-.946-2.453-.561-2.64 2.255.385 2.255.561 2.079.748 2.068 1.144 3.75 2.816 3.201 3.179 2.63 3.388 2.266 3.201 1.683 3.014 1.122 2.453.56.165.947-.363.187-.748v-.946l-.374-1.309-1.32-3.179-.935-3.399h-.946l-.935-.363-.561-.781-.374-.924v-.946l.374-.935.56-.759 1.122-.363h.947l.935.363.759.759.374.935v.759l-.187.946-.572.561-.561.55.759 3.014 1.496 3.366 1.507 3.597 1.88 2.805 7.91 4.906.187-.946v-.924l-.76-2.475-.747-1.287-1.32-1.133-2.442-2.068-.935-1.331-.935-2.068-.374-2.805v-3.597l.737.759.946.946 2.816 1.87 3.2 2.255 1.32 1.331.947 1.672.374 1.144v1.496l-.572 1.507-1.122 1.892-.374.924v1.331l.374 2.255 2.442 1.87.56.748.199.561v.385l-.385.176-1.122.198-1.133-.561-2.827-1.892-2.442-.363h-2.816l-1.496.363-1.32.561-1.133.77-.748 1.122.56.935.188.924v1.144l-.561.946-.946.748-1.122.176h-1.133l-1.122-.561-.748-.946-.187-1.111v-1.122l.56-1.133.947-.561.935-.363h.946l1.11.363 1.508-1.705 1.88-1.309 2.08-.748h2.068l-3.762-2.453-1.881-.187-2.068.187-2.068.385-1.881.924-3.014 1.705-3.388 1.496-2.068.561-1.881.198h-2.068l-1.881-.561-3.014-1.331-1.122-.363h-1.32l.935-1.309 1.694-1.705 3.388-2.816 2.068-.935 2.453-.374 2.629.176 1.88.748 2.64 1.144 2.619.748 2.453.176 2.255-.363-3.388-1.87-2.618-1.144-8.657-3.003-2.453.165-2.442.946-2.255 1.122-2.068 1.331-3.014 1.87-3.388.946-3.388.187-3.19-.187-3.201-.946-2.827-1.485-2.255-1.716-1.881-2.233 2.442.165 2.266-.363 2.442-.748 2.266-1.309m81.278 46.486l1.881.198 1.507.363 2.816 1.529 2.255 2.057 1.507 2.068 1.881 2.442 1.881 1.507-1.694-3.949-2.068-5.269-1.88-5.456-.375-2.453v-2.057l-.935-.561-.572-.748-.374-.946.187-.946.385-1.122.935-.748.935-.385h1.122l1.133.561.748.748.374 1.133-.176 1.122-.385.946-.748.748-.946.374h-.935v.385l.935 3.949 1.133 4.125 1.694 3.971 1.881 4.125 4.323 7.524 4.895 6.963-1.32-3.762-2.816-5.632-1.507-4.532-.56-2.431-.375-2.442v-2.453l.374-2.64.748-2.453 1.133-2.42 1.683 1.694 1.31 1.87 1.132 1.892.946 2.057 1.32 4.51.561 4.51.187 4.345-.374 3.927-.374 3.399-.759 2.618.374.583.946.176.748-.374.55-.946.385-1.309.935-3.201 1.32-3.201-.748-.748-.385-.748-.176-.946.363-.924.572-.946.935-.363.946-.198.935.198.946.726.374.77.187 1.122-.187.946-.56.726-.76.385-.748.385-.737-.187-1.133 3.003-1.133 3.575-.748 3.773-.385 3.377 3.201 8.657.76-.385.56-.924.946-2.453.177-1.496-.176-1.705-.76-3.201v-1.672l.561-2.09 1.31-2.442 2.266-2.816v1.111l.374 1.342 1.133 3.201.935 3.564.187 2.057v1.892l-.561 1.122-.946 1.133-1.31.759-2.078.924-.748.572-.946.924-1.111 2.09.737 3.003v1.309l-.374.396h-.363l-.946-.561-.561-1.144-1.133-3.388-1.694-1.683-2.255-1.694-1.31-.748-1.32-.198-1.507-.198-1.309.583v.924l-.374.946-.759.748-1.122.396-1.133.187-1.122-.583-.748-.748-.56-1.111v-1.122l.373-1.144.748-.748 1.133-.561h1.122l.935.374.748.572.572.924 2.442-.363 2.266.176 2.068.77 1.672 1.122-1.672-4.147-1.32-1.32-1.694-1.331-1.88-.726-2.069-.561-3.388-.385-3.574-1.122-1.881-.77-1.694-.924-1.496-1.133-1.32-1.683-1.694-3.025-.561-.924-1.133-.748 1.507-.396 2.442-.363 4.334-.187 2.442.55 2.068 1.342 1.892 1.672 1.309 1.694 1.32 2.64 1.507 2.068 1.87 1.694 1.88 1.122-1.506-3.564-1.31-2.453-5.07-7.909-2.08-1.309-2.441-.748-2.442-.396-2.453-.165-3.575-.561-3.201-1.133-2.827-1.87-2.442-2.277-1.881-2.629-1.31-2.816-.747-3.003v-2.838l1.694 1.507 2.068 1.331 2.442.924 2.442.385m36.696 86.735l1.133 1.309.935 1.309 1.309 2.838.56 3.003.187 2.629v3.025l.562 2.233.946-3.927 1.507-5.654 1.88-5.456 1.111-2.079 1.133-1.683-.374-.946v-.946l.374-.924.76-.946.935-.385 1.133-.165 1.121.363.748.748.561.946v1.122l-.187 1.133-.737.759-.946.55-.935.176-1.133-.363-.748-.561-.198.198-1.694 3.751-1.496 4.125-1.122 4.147-.935 4.323-1.133 8.855-.385 8.272.76-1.683.56-2.079 1.31-6.017 1.32-4.708.934-2.255 1.32-2.057 1.694-2.068 1.694-1.892 2.068-1.496 2.453-1.32.176 2.453v2.255l-.176 2.233-.572 2.277-1.694 4.323-2.255 3.949-2.442 3.564-2.64 3.014-2.442 2.453-2.079 1.496-.176.759.561.748h.935l.946-.363 1.122-.759 2.827-1.881 1.507-1.122 1.507-.748-.374-.946.187-.946.561-.759.737-.55.946-.396 1.133.22.748.363.76.924.186.946-.187.946-.385.946-.935.561-.759.363h-.748l-.759-.363-.737-.561-2.629 1.694-3.014 2.255-2.827 2.431-2.442 2.453-2.64 9.042h.946l.935-.385 2.266-1.309.935-1.144.946-1.485 1.111-3.025 1.133-1.309 1.694-1.309 2.64-1.144 3.575-.748-.759.748-.56 1.331-.947 3.179-1.496 3.597-.935 1.496-1.32 1.507-.946.561-1.496.385-1.694-.198-2.079-.55h-.935l-1.32.165-2.255.946-1.122 3.014-.374.55-.56.385h-.375l-.385-.187-.374-.924.187-1.331 1.133-3.377-.187-2.277-.759-2.816-.748-1.309-.946-1.111-.935-.759-1.32-.561-.748.924-.946.396-.924.187-1.133-.385-.946-.561-.56-.946-.188-1.309.187-1.133.76-.946.934-.561 1.133-.176 1.111.176.946.748.561.759.385 1.133-.198.924 2.08 1.144 1.693 1.496 1.122 1.892.76 1.87 1.308-4.312-.374-1.892-.56-1.892-.947-1.87-1.507-1.694-2.255-2.255-2.442-3.014-.946-1.87-.748-1.694-.56-1.892v-2.057l.56-3.399v-1.122l-.385-1.309 1.507.561 2.068 1.144 3.586 2.618 1.507 1.87 1.122 2.255.374 2.442-.187 2.09-.374 3.003-.187 2.629.561 2.442.76 2.068.934-3.762.561-2.816.76-9.218-.947-2.255-1.507-2.079-1.683-2.068-1.88-1.507-2.454-2.618-1.88-2.838-1.134-3.201-.55-3.179.176-3.388.572-3.014 1.122-2.816 1.694-2.255.561 2.255.748 2.266 1.507 2.057 1.881 1.892m-24.254 91.245l.186 1.694v1.694l-.748 3.179-1.32 2.651-1.507 2.057-1.88 2.453-.946 2.255 3.2-2.618 4.522-3.597 4.895-3.201 2.244-1.111 1.88-.561.375-.946.56-.748.76-.561 1.133-.198 1.11.198.946.561.562.748.187 1.122-.187 1.133-.561.946-.946.759-.924.165-1.133-.165-.946-.583-.561-.737-.374-.946-.187.176-3.575 1.892-3.575 2.453-3.575 2.618-3.377 2.838-6.028 6.38-5.456 6.402 3.388-2.255 4.707-4.147 3.751-2.816 2.255-1.144 2.266-.924 2.442-.748 2.63-.385h2.453l2.64.561-1.134 1.892-1.32 1.881-1.694 1.683-1.694 1.507-3.938 2.442-4.136 1.694-4.147 1.32-3.949.946-3.388.363h-2.64l-.374.572v.924l.561.561.946.385h4.884l3.388.374.374-.759.748-.748.946-.363h.946l.936.363.759.748.374.946v.946l-.374.946-.76.726-.934.396h-.946l-.946-.198-.562-.561-.374-.748-.176-.748-3.2-.374h-3.763l-3.762.374-3.388.572-7.524 5.456.748.561.946.363 2.63.198 1.507-.198 1.507-.748 2.816-1.694 1.694-.374h2.068l2.816.759 3.387 1.309-1.122.385-1.122.561-2.827 1.892-3.2 2.057-1.882.759-1.694.363-1.298-.198-1.32-.55-1.32-1.122-1.32-1.694-.748-.561-1.133-.561-2.255-.583-2.816 1.529-.748.363h-.572l-.374-.187v-.374l.187-1.133.946-.924 2.817-1.892 1.32-2.057.935-2.816.374-1.331v-1.485l-.374-1.331-.748-1.122-1.122.176-.946-.176-.947-.385-.748-.946-.374-1.111.187-1.144.561-.924.76-.946 1.11-.187h1.32l.946.55.748.946.385.946v1.122l-.385.946-.748.748.935 2.068.561 2.255-.176 2.255-.759 1.892 3.575-2.651.946-1.672.748-1.892.187-2.057v-2.255l-.374-3.201-.187-3.96.187-1.892.561-1.87.76-1.892 1.11-1.474 2.453-2.453.748-.946.561-1.309.76 1.507.945 2.057 1.496 4.323v2.277l-.56 2.431-1.134 2.255-1.309 1.694-2.266 1.87-1.749 2.277-1.122 2.255-.308 2.057 3.003-2.442 2.068-1.87 6.215-6.963.561-2.453v-2.442l-.187-2.651-.56-2.442-.375-3.564.187-3.399 1.122-3.179 1.507-3.025 1.87-2.431 2.453-2.09 2.63-1.496 2.64-.946-.947 2.079-.748 2.453v2.431l.374 2.64m-130.217 84.865l-1.694.187h-2.266l-2.256-.561-1.87-1.331-.187-.363.55-.363 2.453-.946 3.95-1.507 2.452-1.133 2.255-1.507 3.762-1.672 2.255-.946 1.683-.385 1.133-.561.935-1.122 2.08-3.201 1.495-3.586.374-1.672-.176-1.507-.946-.385-.748-.748-.56-.946-.188-1.122.374-1.122.76-.946.934-.55 1.122-.198 1.122.385.946.561.562 1.122.198 1.133-.199 1.122-.56.748-.946.748-.935.198-.187 3.003-.562 3.575-1.309 3.388-.56 1.309-.946.759 4.51-.385 1.704-.924 1.496-1.331 1.32-1.683 1.122-1.892 1.31-3.003 1.88-3.399 1.133-1.496 1.507-1.485 1.694-.946 1.683-.759 3.388-.935 1.122-.396 1.133-.748-.187 1.694-.187 2.255-1.133 4.323-1.11 2.079-1.695 1.683-2.266 1.518-1.88.561-2.817.561-2.64.946-2.068 1.309-1.507 1.694 3.762-.55 2.827-.561 8.844-2.838 1.694-1.694 1.507-2.068 1.111-2.255.76-2.442 1.506-3.212 2.068-2.805 2.442-2.255 2.827-1.705 3.014-1.111 3.201-.561 3.003.187 2.64.737-1.88 1.133-1.694 1.683-1.508 2.079-1.133 2.453-.56 1.507-.946 1.496-2.245 2.255-2.442 1.507-2.453 1.144-2.816 1.111-1.892 1.309 4.147-.55 5.643-.561 5.841-.198 2.442.198 1.881.561.737-.759.946-.385h.946l1.123.198.748.748.572 1.122v1.133l-.374.946-.76.946-.935.363-1.133.198-1.133-.385-.736-.759-.374-.748-.187-1.122.186-.946h-.187l-4.147-.187h-4.323l-4.334.561-4.323.77-8.645 2.057-7.91 2.816 4.136-.187 6.018-1.122 4.708-.363 2.442.165 2.64.396 2.442.55 2.255 1.122 2.266 1.331 2.068 1.672-2.068 1.144-2.266.946-2.068.561-2.255.363h-4.708l-4.51-.561-4.147-1.133-3.751-1.32-3.201-1.496-2.255-1.309-.561.187-.572.737.198.935.748.759 1.133.748 2.816 1.892 1.507.924 1.32 1.144.737-.561.946-.198.935.198.946.561.56.748-.153 1.034.154.836-.374.946-.935.583-.946.363-.946-.198-.935-.561-.55-.55-.198-.946v-.759l.198-.726-2.453-1.892-3.201-2.079-3.388-1.683-3.201-1.133h-2.63l-2.43.55-2.266.561-2.069.198-1.507.363-1.32.583-3.003 1.694-3.014 2.255-2.442 2.068"/></g><path d="M329.001 90.17c-71.151 0-128.831 57.684-128.831 128.829 0 71.15 57.68 128.831 128.831 128.831 71.145 0 128.83-57.682 128.83-128.831 0-71.15-57.69-128.83-128.83-128.83" fill="#efae0e" stroke="#000" stroke-width=".339"/><path d="M329.001 95.086c-68.432 0-123.908 55.48-123.908 123.913 0 68.434 55.475 123.913 123.908 123.913 68.428 0 123.91-55.48 123.91-123.913 0-68.434-55.481-123.913-123.91-123.913" fill="#efae0e"/><path d="M329.001 95.086c68.432 0 123.91 55.48 123.91 123.913 0 68.434-55.478 123.913-123.91 123.913-68.432 0-123.908-55.48-123.908-123.913 0-68.433 55.476-123.913 123.908-123.913z" fill="none" stroke="#000" stroke-width=".339"/><path d="M329.001 99.069c-66.238 0-119.929 53.694-119.929 119.93 0 66.238 53.691 119.932 119.929 119.932 66.232 0 119.918-53.694 119.918-119.932.009-66.24-53.686-119.93-119.918-119.93" fill="#002a86"/><path d="M329.001 120.018c-54.665 0-98.98 44.315-98.98 98.981 0 54.662 44.315 98.979 98.98 98.979 54.661 0 98.974-44.317 98.974-98.979 0-54.666-44.313-98.98-98.974-98.98" fill="#efae0e"/><g stroke="#000" stroke-width=".339"><path d="M402.136 245.77c-3.583 1.105-6.432 1.473-9.839 1.009-1.48-.2-4.405-.919-6.432-.55-5.64 1.024-122.823-1.439-148.912-5.697a92.752 92.752 0 001.697 6.214l174.037 16.21a94 94 0 007.615-19.39c-4.692.146-14.96 1.21-18.166 2.204zM278.12 276.379c7.937 1.062 18.593-1.962 25.677-3.188 7.681-1.327 20.912-2.392 24.883-2.392 3.974 0 3.628-.961 4.502-1.86.87-.896 2.379-.962 3.382-.498 1.805.85 4.369.63 8.076-.961 3.697-1.594 6.895-2.092 9.716-1.03 2.804 1.063 32.994 1.077 38.64.364a34.01 34.01 0 012.909-.218L240.437 252.03c3.526 9.444 8.527 18.162 14.69 25.9 6.66.721 15.966-2.49 22.994-1.55z" fill="none"/><path d="M395.92 266.596a34.616 34.616 0 00-2.908.215c-4.813 2.184-30.835 3.72-36.66 2.53-1.61-.338-4.105 0-6.085.795-1.99.795-4.368 1.323-7.42.926-3.046-.398-4.764.666-6.087 1.598-1.328.93-4.237 1.991-9.658 1.322-5.427-.66-11.018.963-15.227 2.925-1.37-.785-5.235-.506-8.072-3.72-7.079 1.23-17.734 4.254-25.677 3.192-7.028-.943-16.339 2.271-22.97 1.55 17.311 21.696 43.943 35.61 73.858 35.61 34.304 0 64.303-18.29 80.873-45.64.096-.159.19-.32.286-.483-3.493-.604-9.63-1-14.252-.82" fill="#4f9eff"/><path d="M395.92 266.596a34.616 34.616 0 00-2.908.215c-4.813 2.184-30.835 3.72-36.66 2.53-1.61-.338-4.105 0-6.085.795-1.99.795-4.368 1.323-7.42.926-3.046-.398-4.764.666-6.087 1.598-1.328.93-4.237 1.991-9.658 1.322-5.427-.66-11.018.963-15.227 2.925-1.37-.785-5.235-.506-8.072-3.72-7.079 1.23-17.734 4.254-25.677 3.192-7.028-.943-16.339 2.271-22.97 1.55 17.311 21.696 43.943 35.61 73.858 35.61 34.304 0 64.303-18.29 80.873-45.64.096-.159.19-.32.286-.483-3.493-.604-9.63-1-14.252-.82z" fill="none"/><path d="M329.376 124.727c-52.213 0-94.544 42.332-94.544 94.547h189.09c-.004-52.215-42.336-94.547-94.546-94.547" fill="#fff"/><path d="M234.453 218.999c0 7.412.88 14.614 2.498 21.533 26.087 4.258 143.27 6.725 148.91 5.696 2.027-.368 4.952.351 6.432.555 3.407.46 6.256.092 9.839-1.013 3.21-.994 13.474-2.058 18.166-2.2a94.533 94.533 0 003.235-24.572h-189.08" fill="#4f9eff"/><path d="M379.91 228.642l-8.099-.027-.067 4.38c3.29.053 6.153.082 8.033.082a89.64 89.64 0 00.133-4.435zm-21.864-.077l.097 4.154c2.231.055 4.567.105 6.88.156l-.072-4.287zm7.296.027l.066 4.29c2.064.04 4.09.08 5.994.104l.068-4.375zm22.662 17.776c-3.025.043-4.827.351-6.006 2.042-.352.514-.653 1.14-.903 1.935a8.64 8.64 0 00-.107.388l6.887-.09c.156-1.654.217-3.17.13-4.275zm-7.015 4.365c-.154.53-.3 1.084-.411 1.686a13.078 13.078 0 00-.228 2.852l6.924.174c.23-1.565.456-3.245.601-4.803zm2.512 10.465c1.802-.054 2.841-.212 2.893-.494.217-1.144.558-3.098.88-5.259l-6.923-.174c.091 2.212.883 4.427 3.15 5.927zm-106.97-30.194c1.594 2.124 5.2 11.57 6.038 14.226m-12.393-17.864l-16.148-15.276 16.287 17.4" fill="none"/></g><path d="M276.964 229.44c1.964-.18 1.718-2.504 1.161-3.72-.817-1.768-4.692-3.139-7.638-3.605.041 2.215-.399 4.195-.167 7.375 3.007-.265 4.595.131 6.644-.05" fill="#efae0e"/><path d="M276.964 229.44c1.964-.18 1.718-2.504 1.161-3.72-.817-1.768-4.692-3.139-7.638-3.605.041 2.215-.399 4.195-.167 7.375 3.007-.265 4.595.131 6.644-.05z" fill="none" stroke="#000" stroke-width=".339"/><path d="M380.573 252.42c-.469 2.518-.374 5.525 1.652 7.699l-96.222-8.963-4.29-.396c-.417-1.042-1.496-4.008-2.818-7.308-2.05-5.113-5.053-11.378-8.59-13.96 3.009-.268 4.606.133 6.655-.052 1.965-.18 1.717-2.504 1.16-3.716-.814-1.773-4.692-3.137-7.637-3.605-.007-.283-.02-.571-.035-.86-4.238-1.728-11.918-4.917-16.42-9.031 4.575 2.292 25.149 9.12 42.126 12.716.709.15 1.403.294 2.097.429.73.152 1.578.306 2.485.472 11.24 2.04 34.22 5.21 44.668 6.288 1.173.121 2.189.216 3.003.28.48.022 1.008.04 1.564.059 2.174.08 4.9.162 7.837.234l-.105-4.142-.953-.004v-1.605h23.188c.008-.483.014-.978.029-1.498 3.677.857 8.694 1.503 12.696 1.9.68.064 1.319.125 1.92.175 1.323.113 2.457.19 3.29.231-1.226.403-2.498 1.245-2.93 2.642-.777 2.67-1.475 6.009-.331 8.515-1.703.084-2.702.102-4.105.532-.663 2.393-1.533 4.384-2.518 6.64.009.088.023.184.03.274-3.028.046-4.832.352-6.01 2.042" fill="#803e2b"/><path d="M380.573 252.42c-.469 2.518-.374 5.525 1.652 7.699l-96.222-8.963-4.29-.396c-.417-1.042-1.496-4.008-2.818-7.308-2.05-5.113-5.053-11.378-8.59-13.96 3.009-.268 4.606.133 6.655-.052 1.965-.18 1.717-2.504 1.16-3.716-.814-1.773-4.692-3.137-7.637-3.605-.007-.283-.02-.571-.035-.86-4.238-1.728-11.918-4.917-16.42-9.031 4.575 2.292 25.149 9.12 42.126 12.716.709.15 1.403.294 2.097.429.73.152 1.578.306 2.485.472 11.24 2.04 34.22 5.21 44.668 6.288 1.173.121 2.189.216 3.003.28.48.022 1.008.04 1.564.059 2.174.08 4.9.162 7.837.234l-.105-4.142-.953-.004v-1.605h23.188c.008-.483.014-.978.029-1.498 3.677.857 8.694 1.503 12.696 1.9.68.064 1.319.125 1.92.175 1.323.113 2.457.19 3.29.231-1.226.403-2.498 1.245-2.93 2.642-.777 2.67-1.475 6.009-.331 8.515-1.703.084-2.702.102-4.105.532-.663 2.393-1.533 4.384-2.518 6.64.009.088.023.184.03.274-3.028.046-4.832.352-6.01 2.042" fill="none" stroke="#000" stroke-width=".339"/><path d="M293.35 320.773l-4.924-2.112.5-5.281-3.511 4.014-4.706-2.015 2.577 4.456-3.466 3.968 5.118-1.142 2.694 4.657.512-5.395zm71.544.089l4.915-2.11-.491-5.286 3.506 4.018 4.707-2.01-2.575 4.447 3.465 3.972-5.12-1.146-2.698 4.666-.508-5.401zm-36.108-212.736a1.955 1.955 0 00-1.953 1.955c0 1.083.872 1.958 1.953 1.958a1.956 1.956 0 000-3.914m-82.176 37.91a1.96 1.96 0 00-1.958 1.958 1.955 1.955 0 103.91 0 1.956 1.956 0 00-1.953-1.958m-25.098 52.852a1.958 1.958 0 000 3.916 1.958 1.958 0 000-3.916m3.034 49.813a1.953 1.953 0 00-1.947 1.957c0 1.08.87 1.96 1.947 1.96a1.96 1.96 0 001.957-1.96 1.958 1.958 0 00-1.957-1.958m154.703-128.654a1.96 1.96 0 011.954 1.958 1.956 1.956 0 11-1.953-1.958M301.76 322.49l-2.481-.665.379-1.417c.661.148 1.13.226 1.41.238.436.018.835-.076 1.167-.286.231-.142.432-.36.61-.65.109-.173.168-.31.197-.403l1.725.464-2.819 10.6-2.123-.57 1.935-7.31m21.68-.111l-.066 1.689c-.338.306-.807.852-1.417 1.64a14.974 14.974 0 00-1.536 2.464c-.338.666-.653 1.485-.93 2.46-.295.973-.449 1.772-.471 2.403l-2.232-.09c.14-1.967.87-3.986 2.18-6.053.846-1.282 1.542-2.173 2.1-2.67l-5.447-.227.108-1.937 7.71.32m17.01.231v1.688c-.324.32-.77.886-1.343 1.699a15.698 15.698 0 00-1.439 2.52c-.31.685-.577 1.519-.829 2.499-.25.986-.379 1.793-.379 2.421h-2.231c.07-1.966.71-4.01 1.934-6.138.792-1.313 1.453-2.233 1.977-2.749h-5.447l.032-1.94h7.725m15.519-2.157c-.653-.456-1.484-.637-2.495-.536-.707.072-1.286.295-1.757.67a3.751 3.751 0 00-1.093 1.394c-.295.657-.457 1.452-.492 2.393-.016.53.02 1.21.099 2.048.147 1.418.517 2.55 1.12 3.398.753 1.08 1.823 1.555 3.207 1.412 1.272-.13 2.166-.617 2.697-1.457.532-.836.732-1.764.639-2.784-.1-1.022-.5-1.832-1.18-2.43-.693-.591-1.513-.842-2.475-.741a3.013 3.013 0 00-1.175.34 2.498 2.498 0 00-.858.785c-.022-.848.023-1.498.14-1.943.213-.814.667-1.255 1.361-1.327.463-.047.834.086 1.096.403.153.201.241.39.255.565l2.13-.22c-.158-.857-.566-1.516-1.219-1.97m-96.938-19.261l-1.487-1.645c.33-.393.514-.752.555-1.077.08-.587-.178-1.222-.8-1.9-.368-.405-.71-.694-1.026-.869-.607-.32-1.148-.271-1.61.157a.967.967 0 00-.31.93c.078.37.287.861.64 1.478l.595 1.051c.594 1.034.917 1.818 1 2.355.116.9-.222 1.72-1.018 2.459-.741.671-1.593.961-2.57.87-.98-.09-1.942-.654-2.882-1.696-.794-.863-1.234-1.816-1.332-2.85-.097-1.033.278-1.965 1.122-2.792l1.506 1.654c-.462.483-.624 1.02-.462 1.615.098.39.338.789.704 1.179.397.446.809.719 1.226.82.42.1.786.008 1.11-.288.293-.267.395-.598.3-.99-.05-.259-.264-.717-.638-1.387l-.948-1.73c-.418-.756-.647-1.409-.694-1.955-.06-.844.278-1.603 1.01-2.27.748-.688 1.637-.97 2.658-.85 1.014.12 2.004.71 2.959 1.758.976 1.075 1.494 2.14 1.572 3.205.068 1.06-.325 1.985-1.18 2.768m-16.243-16.473l3.451 4.166 2.195-1.826-3.928-4.754 1.535-1.282 5.386 6.504-8.555 7.126-5.206-6.292 1.517-1.265 3.759 4.542 1.812-1.516-3.452-4.16zm-12.332-6.976l1.396 2.228 11.516-2.588-1.296-2.06-2.342.569-2.189-3.474 1.558-1.83-1.347-2.135zm2.397-20.745l3.073 7.226-10.217 4.38-.913-2.14 8.381-3.598-2.16-5.079zm-3.498-65.388l-8.885-2.162-.786 3.258-1.916-.468 2.119-8.776 1.916.464-.786 3.24 8.892 2.165zm-.416-18.894l-3.898-1.666.908-2.128 10.217 4.377-.903 2.135-4.561-1.958-1.712 4.01 4.561 1.954-.9 2.124-10.224-4.384.911-2.124 3.892 1.668zm10.082-13.815l-2.896 4.573 2.405 1.538 3.304-5.209 1.69 1.08-4.525 7.129-9.376-5.99 4.377-6.9 1.662 1.06-3.157 4.979 1.986 1.271 2.901-4.568zm16.996-17.401l1.615-1.525c.396.32.764.501 1.08.547.587.072 1.217-.204 1.887-.834.397-.376.686-.728.848-1.05.315-.612.253-1.152-.18-1.609-.246-.273-.556-.367-.928-.292-.38.078-.856.298-1.466.662l-1.04.618c-1.016.603-1.795.947-2.327 1.027-.895.138-1.71-.186-2.459-.986-.69-.725-.99-1.582-.91-2.56.077-.979.624-1.947 1.648-2.908.851-.81 1.79-1.27 2.82-1.382 1.024-.118 1.958.244 2.797 1.078l-1.626 1.535c-.493-.46-1.017-.606-1.615-.44-.397.117-.786.353-1.175.727-.43.411-.706.826-.794 1.25-.09.423.008.792.3 1.105.273.29.604.386.995.29.254-.062.71-.282 1.37-.664l1.711-.98c.741-.431 1.388-.668 1.943-.719.838-.072 1.601.251 2.272.976.7.737.991 1.623.88 2.646-.093 1.025-.677 2.027-1.702 3-1.05.995-2.11 1.54-3.165 1.626-1.057.086-1.983-.294-2.779-1.139m16.687-9.319l-5.016-7.675-2.795 1.836-1.078-1.651 7.525-4.955 1.08 1.653-2.775 1.829 5.015 7.678zm9.467-17.967l-2.378 1.113 1.107 11.79 2.197-1.032-.268-2.403 3.711-1.738 1.611 1.773 2.289-1.068zm16.447 5.821l-2.454-8.841-3.22.904-.526-1.907 8.667-2.428.53 1.909-3.202.889 2.457 8.844zm17.487-8.607l-5.33.824.425 2.833 6.08-.933.305 1.98-8.326 1.272-1.679-11.023 8.066-1.235.291 1.951-5.816.89.357 2.344 5.338-.811zm29.508-6.039c-1.586-.052-2.805.345-3.683 1.18-1.16.989-1.768 2.505-1.832 4.547-.07 2.001.448 3.553 1.542 4.654.808.893 2.002 1.363 3.595 1.416 1.59.052 2.818-.343 3.681-1.185 1.153-1.027 1.763-2.539 1.828-4.542.062-2.04-.447-3.591-1.534-4.65-.806-.894-2.004-1.37-3.597-1.42zm-.063 1.97c.919.03 1.642.396 2.16 1.097.524.702.755 1.675.712 2.928-.037 1.251-.339 2.216-.904 2.875-.559.664-1.3.982-2.225.95-.911-.03-1.638-.393-2.16-1.092-.528-.696-.769-1.674-.732-2.93.047-1.257.348-2.213.917-2.877.565-.662 1.319-.978 2.232-.951zm12.075 12.185l-2.188-.74 3.535-10.554 7.473 2.515-.625 1.852-5.284-1.773-.808 2.43 4.62 1.558-.614 1.837-4.623-1.562zm30.708 14.307l-1.683-1.375 7.013-8.655 1.894 1.545-1.464 8.842 4.893-6.04 1.679 1.37-7.01 8.653-1.801-1.47 1.453-9.021zm20.86 11.943l-3.822-3.83-2.019 2.024 4.347 4.37-1.41 1.415-5.956-5.976 7.857-7.884 5.765 5.782-1.388 1.398-4.16-4.173-1.67 1.675 3.818 3.829zm17.08 12.81l1.347 1.948-10.922 3.763-1.263-1.828 4.581-4.818 1.55-1.55-1.998.901-6.105 2.603-1.225-1.78 7.34-8.945 1.405 2.034-4.396 4.846-1.277 1.277 1.611-.725 5.978-2.623 1.394 2.023-4.483 4.723-1.26 1.29 1.592-.69zm9.158 31.821l4.09-1.12.602 2.235-10.716 2.938-.608-2.235 4.79-1.307-1.153-4.207-4.783 1.31-.603-2.226 10.717-2.936.61 2.227-4.085 1.12zm-4.683 8.84l.356 2.41 2.371.43.596 4.068-2.159 1.042.372 2.5 10.42-5.53-.383-2.607zm4.715 3.18l4.53.784-4.119 2.015zm-.606 17.336l8.741 2.006v3.35l-11.118.011v-2.171l7.52-.009c.225 0 .525.005.91.009.389.004.694.006.903.006l-9.333-2.101v-2.264l9.327-2.106c-.213 0-.514.004-.903.008-.391.009-.698.012-.911.012l-7.52.009v-2.174l11.117-.012v3.388l-8.733 2.037m-2.698 11.638l-.301 2.299 3.967.528-.315 2.346c-.162 1.226-.014 2.204.44 2.935.444.732 1.322 1.183 2.618 1.358 1.194.158 2.12-.052 2.772-.639.662-.583 1.057-1.432 1.204-2.541l.639-4.813zm5.557 3.08l3.244.433-.286 2.155c-.076.546-.25.949-.539 1.222-.282.267-.708.365-1.285.29-.561-.076-.962-.282-1.194-.623-.219-.335-.29-.778-.227-1.323zm-4.733 11.339l-.671 2.126c-.508-.088-.907-.07-1.208.052-.55.221-.966.772-1.234 1.647-.162.526-.234.97-.231 1.333.03.69.338 1.13.933 1.321.362.107.68.04.962-.205.287-.253.602-.682.954-1.297l.602-1.047c.595-1.025 1.109-1.707 1.535-2.036.712-.563 1.587-.682 2.629-.351.948.3 1.63.893 2.041 1.785.404.89.404 2.007-.014 3.349-.352 1.121-.954 1.986-1.795 2.592-.838.6-1.824.748-2.967.427l.672-2.134c.646.162 1.185.024 1.623-.409.287-.29.514-.692.676-1.208.176-.571.208-1.068.08-1.479a1.166 1.166 0 00-.807-.818c-.379-.12-.712-.04-1.011.239-.19.176-.484.591-.87 1.249l-1.016 1.692c-.442.744-.886 1.268-1.333 1.576-.702.477-1.52.567-2.46.27-.977-.305-1.66-.932-2.07-1.878-.405-.943-.393-2.095.03-3.453.433-1.385 1.086-2.375 1.975-2.972.88-.593 1.875-.718 2.976-.371m-4.671 21.892l3.845 1.777-.962 2.102-10.1-4.656.97-2.101 4.508 2.075 1.81-3.959-4.508-2.077.958-2.099 10.098 4.653-.958 2.101-3.85-1.778zm-11.822 6.36l1.204-1.976 9.484 5.828-1.207 1.976zm5.908 12.147l-8.73-6.907-1.403 1.787 3.42 2.71-1.486 1.89c-.417.536-.81.83-1.148.883-.338.045-.786-.148-1.347-.577l-.827-.629a4.948 4.948 0 00-.806-.517 10.26 10.26 0 00-.563-.253l-1.579 2.016.222.172c.241-.09.491-.072.755.06.17.084.448.279.851.591l.58.465c.618.487 1.138.764 1.563.83.434.067.889-.037 1.368-.313-.226.614-.211 1.185.036 1.711.228.526.547.955.969 1.284.346.271.702.46 1.05.558.352.1.709.144 1.087.128.448-.014.87-.132 1.27-.354.396-.224.85-.634 1.332-1.242l3.386-4.293m-20.207 13.513l3.881-3.772-1.987-2.058-4.416 4.297-1.392-1.444 6.047-5.875 7.736 8.014-5.857 5.688-1.373-1.42 4.23-4.104-1.64-1.7-3.882 3.765zM215.98 228.167c-.838.867-1.243 2.095-1.188 3.687.045 1.594.508 2.8 1.396 3.618 1.038 1.103 2.588 1.623 4.623 1.57 1.99-.056 3.512-.664 4.536-1.823.845-.863 1.243-2.091 1.19-3.685-.04-1.596-.51-2.798-1.394-3.618-1.087-1.1-2.63-1.619-4.627-1.563-2.033.057-3.541.662-4.536 1.814m9.705-10.471l-.006 2.322-11.095-.023.014-7.909 1.95.004-.008 5.592 2.552.002.016-4.891 1.926.004-.006 4.89zm106.262-47.579l-2.299 34.354-1.23-.18-2.117-34.007z" fill="#efae0e"/><path d="M320.114 179.682l5.476 25.134m6.701.187l5.83-25.157" fill="none" stroke="#000" stroke-width=".339"/><path fill="#efae0e" d="M309.852 173.95l12.956 31.875-1.179.376-16.776-29.621z"/><path fill="none" stroke="#000" stroke-width=".339" d="M303.402 187.75l15.918 20.172"/><path fill="#efae0e" d="M291.823 187.143l25.894 22.587-.886.867-28.288-18.84zm-10.263 19.612l33.105 9.02-.414 1.171-33.639-4.607z"/><path fill="none" stroke="#000" stroke-width=".339" d="M292.27 202.382l23.28 10.803"/><path fill="#efae0e" d="M348.193 173.95l-12.956 31.875 1.177.376 16.778-29.621z"/><path fill="none" stroke="#000" stroke-width=".339" d="M354.64 187.75l-15.917 20.172"/><path fill="#efae0e" d="M366.227 187.143l-25.899 22.587.884.867 28.282-18.84zm10.26 19.612l-33.109 9.02.416 1.171 33.636-4.607z"/><path d="M264.49 216.205l36.434-24.393m2.834.307l.022 34.267m3.276.482l-2.432-34.659m5.187 35.112l-4.692-35.065m-1.306 31.461l5.654 1.455m-5.654-3.975l5.308.936m-5.308-4.081l4.86.756m-4.86-7.231l3.994 1.004m-4.027-7.923l3.065.347m-3.065-2.972l2.694.174m-2.694-4.74l2.07.106m-2.07-2.424l1.763.207m60.225 7.026l-23.27 10.799" fill="none" stroke="#000" stroke-width=".339"/><path d="M383.5 261.198c1.803-.054 2.842-.212 2.894-.494.217-1.14.558-3.098.88-5.263l-6.923-.17c.091 2.212.883 4.429 3.15 5.927" fill="#d4212f"/><path d="M383.5 261.198c1.803-.054 2.842-.212 2.894-.494.217-1.14.558-3.098.88-5.263l-6.923-.17c.091 2.212.883 4.429 3.15 5.927z" fill="none" stroke="#000" stroke-width=".339"/><path d="M380.989 250.733c-.154.53-.3 1.084-.411 1.682-.168.91-.265 1.882-.228 2.856l6.924.174c.23-1.569.456-3.245.601-4.803l-6.886.09" fill="#d4212f"/><path d="M380.989 250.733c-.154.53-.3 1.084-.411 1.682-.168.91-.265 1.882-.228 2.856l6.924.174c.23-1.569.456-3.245.601-4.803z" fill="none" stroke="#000" stroke-width=".339"/><path d="M388.004 246.368c-3.025.045-4.827.351-6.006 2.044-.352.512-.653 1.14-.903 1.937a8.69 8.69 0 00-.107.389l6.887-.09c.156-1.653.217-3.17.13-4.28" fill="#d4212f"/><path d="M388.004 246.368c-3.025.045-4.827.351-6.006 2.044-.352.512-.653 1.14-.903 1.937a8.69 8.69 0 00-.107.389l6.887-.09c.156-1.653.217-3.17.13-4.28z" fill="none" stroke="#000" stroke-width=".339"/><path fill="#803e2b" d="M379.009 186.782l-.854 8.706h.793l.106-8.71z"/><path transform="matrix(.52407 0 0 .5259 -67.3 193.045)" fill="none" stroke="#000" stroke-width=".646" d="M851.617-11.91l-1.629 16.555h1.512l.203-16.563z"/><path fill="#803e2b" d="M375.056 226.951h3.484l.367-28.316-1.061.055z"/><path transform="matrix(.52407 0 0 .5259 -67.3 193.045)" fill="none" stroke="#000" stroke-width=".646" d="M844.074 64.473h6.649l.699-53.844-2.024.105z"/><path fill="#803e2b" d="M378.907 198.63l2.321-1.813v-1.33h-6.348l-.133 1.46 3.099 1.74z"/><path transform="matrix(.52407 0 0 .5259 -67.3 193.045)" fill="none" stroke="#000" stroke-width=".646" d="M851.422 10.621l4.43-3.449V4.645h-12.114l-.254 2.773 5.914 3.309z"/><path fill="#803e2b" d="M380.04 185.787l-2.25-.127v1.195l1.219-.073.045-.004.856-.058z"/><path transform="matrix(.52407 0 0 .5259 -67.3 193.045)" fill="none" stroke="#000" stroke-width=".646" d="M853.586-13.801l-4.293-.242v2.273l2.324-.14.086-.008 1.633-.109z"/><path fill="#803e2b" d="M353.276 175.085l.905-15.59-1.873 15.522z"/><path transform="matrix(.52407 0 0 .5259 -67.3 193.045)" fill="none" stroke="#000" stroke-width=".646" d="M802.516-34.152l1.726-29.645-3.574 29.516z"/><path d="M350.486 190.09l-5.081 42.044c1.169.12 2.178.215 3.003.279.479.022 1.007.04 1.558.06l2.44-42.43-1.92.046" fill="#803e2b"/><path d="M350.486 190.09l-5.081 42.044c1.169.12 2.178.215 3.003.279.479.022 1.007.04 1.558.06l2.44-42.43z" fill="none" stroke="#000" stroke-width=".339"/><path fill="#803e2b" d="M351.929 178.066l-.972 8.108 1.68.071.463-8.046z"/><path transform="matrix(.52407 0 0 .5259 -67.3 193.045)" fill="none" stroke="#000" stroke-width=".646" d="M799.945-28.484l-1.855 15.418 3.207.136.883-15.3z"/><path fill="#803e2b" d="M350.486 190.09l1.928-.046 4.414-.099-.184-3.537-4.006-.163-1.681-.07-2.948-.114.878 4.067z"/><path transform="matrix(.52407 0 0 .5259 -67.3 193.045)" fill="none" stroke="#000" stroke-width=".646" d="M797.191-5.621l3.68-.086 8.422-.188-.352-6.726-7.644-.309-3.207-.132-5.625-.219 1.676 7.734z"/><path fill="#803e2b" d="M350.652 174.902l-.18 3.001 1.457.163 1.171.133 2.142.236.348-3.188-2.314-.162-.968-.072z"/><path transform="matrix(.52407 0 0 .5259 -67.3 193.045)" fill="none" stroke="#000" stroke-width=".646" d="M797.508-34.5l-.344 5.707 2.781.309 2.235.254 4.086.449.664-6.063-4.414-.308-1.848-.137z"/><path d="M296.155 224.944c.708.145 1.402.294 2.096.429.731.152 1.579.306 2.485.472l2.391-33.803-2.203-.226-4.77 33.128" fill="#803e2b"/><path d="M296.155 224.944c.708.145 1.402.294 2.096.429.731.152 1.579.306 2.485.472l2.391-33.803-2.203-.226z" fill="none" stroke="#000" stroke-width=".339"/><path fill="#803e2b" d="M304.095 178.304l1.194-16.868-2.41 16.782z"/><path transform="matrix(.52407 0 0 .5259 -67.3 193.045)" fill="none" stroke="#000" stroke-width=".646" d="M708.672-28.031l2.277-32.074-4.597 31.91z"/><path fill="#803e2b" d="M301.324 189.042l2.008.1.579-8.269-1.394-.162z"/><path transform="matrix(.52407 0 0 .5259 -67.3 193.045)" fill="none" stroke="#000" stroke-width=".646" d="M703.383-7.613l3.832.191 1.105-15.723-2.66-.308z"/><path fill="#803e2b" d="M303.911 180.873l1.91.222.18-2.655-1.906-.14-1.215-.087-1.829-.125.18 2.476 1.286.147z"/><path transform="matrix(.52407 0 0 .5259 -67.3 193.045)" fill="none" stroke="#000" stroke-width=".646" d="M708.32-23.145l3.645.422.344-5.05-3.637-.266-2.32-.164-3.489-.238.344 4.707 2.453.281z"/><path fill="#803e2b" d="M305.119 192.252l.17-3.005-1.957-.105-2.008-.1-3.077-.163v2.66l2.677.273 2.203.23z"/><path transform="matrix(.52407 0 0 .5259 -67.3 193.045)" fill="none" stroke="#000" stroke-width=".646" d="M710.625-1.508l.324-5.715-3.734-.199-3.832-.191-5.871-.309v5.059l5.109.519 4.203.438z"/><path d="M365.342 228.592l.066 4.29c2.064.04 4.09.08 5.994.108l.068-4.38-6.128-.018" fill="#fff"/><path d="M365.342 228.592l.066 4.29c2.064.04 4.09.08 5.994.108l.068-4.38z" fill="none" stroke="#000" stroke-width=".339"/><path d="M358.046 228.565l.097 4.154c2.231.055 4.567.105 6.88.156l-.072-4.287-6.905-.023" fill="#fff"/><path d="M358.046 228.565l.097 4.154c2.231.055 4.567.105 6.88.156l-.072-4.287z" fill="none" stroke="#000" stroke-width=".339"/><path d="M379.91 228.642l-8.099-.027-.067 4.38c3.29.053 6.153.082 8.033.082a89.64 89.64 0 00.133-4.435" fill="#fff"/><path d="M379.91 228.642l-8.099-.027-.067 4.38c3.29.053 6.153.082 8.033.082a89.64 89.64 0 00.133-4.435z" fill="none" stroke="#000" stroke-width=".339"/><path d="M313.363 164.768c-.009.057-.023.109-.031.168-.168 1.196-.412 2.143-2.37 2.578 2.253.914 4.165.115 4.305-1.083.124-1.191 1.337-2.023 3.054-2.023-1.973.04-2.115-.745-4.958.36" fill="#d4212f"/><path d="M313.363 164.768c-.009.057-.023.109-.031.168-.168 1.196-.412 2.143-2.37 2.578 2.253.914 4.165.115 4.305-1.083.124-1.191 1.337-2.023 3.054-2.023-1.973.04-2.115-.745-4.958.36z" fill="none" stroke="#000" stroke-width=".339"/><path d="M319.603 159.384c.985 1.546-.037 3.293-1.626 3.048-1.67-.256-4.22.397-4.618 2.336 2.848-1.106 2.989-.32 4.963-.36 4.542-.094 2.331-3.816 1.28-5.024" fill="#d4212f"/><path d="M319.603 159.384c.985 1.546-.037 3.293-1.626 3.048-1.67-.256-4.22.397-4.618 2.336 2.848-1.106 2.989-.32 4.963-.36 4.542-.094 2.331-3.816 1.28-5.024z" fill="none" stroke="#000" stroke-width=".339"/><path d="M319.32 158.998c.111.123.199.254.28.386 1.051 1.208 3.26 4.934-1.278 5.025 1.719 0 4.14-.664 4.667-2.392.524-1.727-1.329-3.983-1.593-5.178-1.138.23-2.071.556-2.843.992.174.388.448.8.767 1.167" fill="#d4212f"/><path d="M319.32 158.998c.111.123.199.254.28.386 1.051 1.208 3.26 4.934-1.278 5.025 1.719 0 4.14-.664 4.667-2.392.524-1.727-1.329-3.983-1.593-5.178-1.138.23-2.071.556-2.843.992.174.388.448.8.767 1.167z" fill="none" stroke="#000" stroke-width=".339"/><path d="M353.831 160.69c-4.035.25-6.348-.184-9.792-2.808-7.224-5.497-19.722-7.937-24.97-2.459-.75.795-.82 1.633-.513 2.408.778-.436 1.704-.762 2.842-.993 4.156-.85 11.206-.267 15.442 3.055 4.237 3.316 10.985 5.845 16.33 6.24-.608-1.59-.264-3.968.661-5.442" fill="#d4212f"/><path d="M353.831 160.69c-4.035.25-6.348-.184-9.792-2.808-7.224-5.497-19.722-7.937-24.97-2.459-.75.795-.82 1.633-.513 2.408.778-.436 1.704-.762 2.842-.993 4.156-.85 11.206-.267 15.442 3.055 4.237 3.316 10.985 5.845 16.33 6.24-.608-1.59-.264-3.968.661-5.442z" fill="none" stroke="#000" stroke-width=".339"/><path d="M304.474 162.346c-4.65-1.163-16.37-.415-16.823 5.427 1.484-1.249 2.878-1.666 4.237-1.707.954-.026 1.894.132 2.842.333 2.864.58 7.116.53 9.12.53-.217-1.596-.315-3.032.624-4.583" fill="#d4212f"/><path d="M304.474 162.346c-4.65-1.163-16.37-.415-16.823 5.427 1.484-1.249 2.878-1.666 4.237-1.707.954-.026 1.894.132 2.842.333 2.864.58 7.116.53 9.12.53-.217-1.596-.315-3.032.624-4.583z" fill="none" stroke="#000" stroke-width=".339"/><path d="M291.254 174.52c.051.712-.12 1.388-1.489 2.07-1.922.964-6.544 3.74-7.414 7.873 2.812-2.872 6.043-5.099 7.945-5.748 1.902-.646 2.415-1.313 2.79-2.004-.158-.726-.948-1.464-1.832-2.191" fill="#d4212f"/><path d="M291.254 174.52c.051.712-.12 1.388-1.489 2.07-1.922.964-6.544 3.74-7.414 7.873 2.812-2.872 6.043-5.099 7.945-5.748 1.902-.646 2.415-1.313 2.79-2.004-.158-.726-.948-1.464-1.832-2.191z" fill="none" stroke="#000" stroke-width=".339"/><path d="M292.304 171.816c-1.634-1.992-1.466-4.061-.411-5.745-1.36.04-2.754.458-4.238 1.707 0 2.773 1.572 5.115 2.74 6.062.286.228.573.458.863.684.888.727 1.672 1.46 1.843 2.192.68-1.177.69-3.075-.797-4.9" fill="#d4212f"/><path d="M347.671 232.31l3.892-42.231m1.586-.03l-2.108 42.44m2.762.105l.485-42.614m-2.86 1.972l2.827.07m-3.067 2.213l3.063.102m-3.276 2.038l3.24.105m-3.41 1.906l3.378.068m-3.587 2.282l3.55.105m-3.787 2.52l3.736.163m-3.975 2.535l3.991.107m-4.306 2.937l4.28.105m-4.483 2.527l4.446.14m-4.72 2.763l4.68.174m-4.961 2.87l4.931.173m-5.177 2.35l5.141.172m-5.335 1.98l5.339.173m-5.552 2.04l5.515.207m-5.761 2.346l5.756.14m2.924-37.322l4.768 37.01m4.706 0l-9.474-37.01m2.846 37.01l-3.695-37.01m1.242 37.01l-1.52-37.01m.11 2.147l1.513-.136m-1.452 1.66h1.902m-1.76 3.184l2.48-.314m-2.411 2.56l3.032-.101m-2.97 2.142l3.414-.45m-3.308 2.805l3.656-1.492m-3.587 3.291l3.994-1.559m-3.887 3.595l4.413-1.623m-4.31 4.152l4.76-2.322m-4.59 6.572l5.752-2.038m-5.614 5.222l6.238-2.73m-6.131 5.459l6.815-2.798m-6.746 4.597l7.296-2.355m-7.195 4.746l7.687-2.907m-7.617 5.703l8.164-3.63m-73.045-51.505c-1.634-1.992-1.466-4.061-.411-5.745-1.36.04-2.754.458-4.238 1.707 0 2.773 1.572 5.115 2.74 6.062.286.228.573.458.863.684.888.727 1.672 1.46 1.843 2.192.68-1.177.69-3.075-.797-4.9z" fill="none" stroke="#000" stroke-width=".339"/><path d="M317.185 306.763c.958-2.648 2.573-10.752 1.949-14.275-.009.02-.023.043-.023.059 0-.027.009-.06.014-.09v-.003.003c.2-.978.228-2.377.068-2.815-1.484-.082-3.714-.197-6.125-.166 2.004 9.583-1.85 14.96-.44 18.681 1.679 1.792 3.595 1.26 4.557-1.394" fill="#efae0e"/><path d="M317.185 306.763c.958-2.648 2.573-10.752 1.949-14.275-.009.02-.023.043-.023.059 0-.027.009-.06.014-.09v-.003.003c.2-.978.228-2.377.068-2.815-1.484-.082-3.714-.197-6.125-.166 2.004 9.583-1.85 14.96-.44 18.681 1.679 1.792 3.595 1.26 4.557-1.394z" fill="none" stroke="#000" stroke-width=".339"/><path d="M336.006 294.039c-.74.618-1.318 1.483-1.735 2.553-.64 1.652-.9 3.782-.852 6.188 2.674-2.564 6.539-9.127 2.587-8.741" fill="#efae0e"/><path d="M336.006 294.039c-.74.618-1.318 1.483-1.735 2.553-.64 1.652-.9 3.782-.852 6.188 2.674-2.564 6.539-9.127 2.587-8.741z" fill="none" stroke="#000" stroke-width=".339"/><path d="M325.769 307.012c-.457 1.935-1.902 3.445-3.68 4.415.983 1.349 1.695 2.017 2.51 1.55.758-.43 2.821-2.623 3.845-4.708-1.076-.033-2.06-.411-2.675-1.257" fill="#efae0e"/><path d="M325.769 307.012c-.457 1.935-1.902 3.445-3.68 4.415.983 1.349 1.695 2.017 2.51 1.55.758-.43 2.821-2.623 3.845-4.708-1.076-.033-2.06-.411-2.675-1.257z" fill="none" stroke="#000" stroke-width=".339"/><path d="M325.265 302.614c-2.272-4.024-1.609-7.671.653-8.65-.117-.867-.246-1.547-.389-1.915-1.093-2.9-5.988-1.172-6.395.44.624 3.522-.991 11.626-1.943 14.274-.968 2.65-2.884 3.187-4.573 1.391-.41 4.888 5.406 5.504 9.478 3.273 1.777-.975 3.212-2.48 3.679-4.415.14-.577.241-1.23.323-1.92.047-.335.08-.674.11-1.027-.363-.49-.664-.973-.943-1.451" fill="#efae0e"/><path d="M325.265 302.614c-2.272-4.024-1.609-7.671.653-8.65-.117-.867-.246-1.547-.389-1.915-1.093-2.9-5.988-1.172-6.395.44.624 3.522-.991 11.626-1.943 14.274-.968 2.65-2.884 3.187-4.573 1.391-.41 4.888 5.406 5.504 9.478 3.273 1.777-.975 3.212-2.48 3.679-4.415.14-.577.241-1.23.323-1.92.047-.335.08-.674.11-1.027-.363-.49-.664-.973-.943-1.451z" fill="none" stroke="#000" stroke-width=".339"/><path d="M326.168 296.412a42.386 42.386 0 00-.25-2.449c-2.262.984-2.92 4.629-.653 8.655.278.478.579.961.94 1.446.202-2.459.147-5.315-.037-7.652" fill="#efae0e"/><path d="M326.168 296.412a42.386 42.386 0 00-.25-2.449c-2.262.984-2.92 4.629-.653 8.655.278.478.579.961.94 1.446.202-2.459.147-5.315-.037-7.652z" fill="none" stroke="#000" stroke-width=".339"/><path d="M348.971 287.89c-1.697 1.16-3.29 1.077-4.45 1.375-.385 1.498-1.255 2.921-2.842 4.565.86.778 1.11 1.978.39 3.209-1.534 2.64-.662 9.03.396 10.754 1.057 1.727 2.38 1.214 3.704-.395.35-2.416.049-3.704.28-7.755.213-3.437 1.982-7.722 2.522-11.752" fill="#efae0e"/><path d="M333.478 304.134c.039.464.076.928.125 1.403a45.33 45.33 0 01-.125-1.403zm-.059-1.354a28.154 28.154 0 000 0zm15.552-14.89c-1.697 1.16-3.29 1.077-4.45 1.375-.385 1.498-1.255 2.921-2.842 4.565.86.778 1.11 1.978.39 3.209-1.534 2.64-.662 9.03.396 10.754 1.057 1.727 2.38 1.214 3.704-.395.35-2.416.049-3.704.28-7.755.213-3.437 1.982-7.722 2.522-11.752z" fill="none" stroke="#000" stroke-width=".339"/><path d="M333.603 305.537c-.638 1.068-1.756 1.894-2.982 2.344 1.183 1.99 3.497 4.318 4.23 4.617 1.109.458 1.682.169 2.574-1.013-1.887-1.277-3.543-3.354-3.822-5.948" fill="#efae0e"/><path d="M333.603 305.537c-.638 1.068-1.756 1.894-2.982 2.344 1.183 1.99 3.497 4.318 4.23 4.617 1.109.458 1.682.169 2.574-1.013-1.887-1.277-3.543-3.354-3.822-5.948z" fill="none" stroke="#000" stroke-width=".339"/><path d="M333.478 304.115c-.03-.458-.051-.9-.059-1.335-.051-2.406.221-4.536.862-6.188-2.065-1.82-6.942-1.534-8.105-.18.176 2.341.231 5.19.037 7.652-.037.357-.068.694-.11 1.027a15.806 15.806 0 01-.324 1.92c.616.846 1.605 1.224 2.68 1.258a5.858 5.858 0 002.173-.386c1.218-.448 2.334-1.274 2.981-2.342a22.387 22.387 0 01-.12-1.405v-.02" fill="#efae0e"/><path d="M333.478 304.115c-.03-.458-.051-.9-.059-1.335-.051-2.406.221-4.536.862-6.188-2.065-1.82-6.942-1.534-8.105-.18.176 2.341.231 5.19.037 7.652-.037.357-.068.694-.11 1.027a15.806 15.806 0 01-.324 1.92c.616.846 1.605 1.224 2.68 1.258a5.858 5.858 0 002.173-.386c1.218-.448 2.334-1.274 2.981-2.342a22.387 22.387 0 01-.12-1.405v-.02z" fill="none" stroke="#000" stroke-width=".339"/><path d="M342.47 307.796c-.448-.737-.868-2.327-1.081-4.108-.125-1.099-.182-2.264-.108-3.352.08-1.297.315-2.48.8-3.298.712-1.228.463-2.43-.393-3.209-.815-.733-2.189-1.088-3.84-.709a4.298 4.298 0 00-1.827.919c3.951-.387.078 6.177-2.587 8.74.008.436.028.882.07 1.336v.02c.03.462.065.929.114 1.405.278 2.59 1.943 4.672 3.822 5.95 1.315.897 2.741 1.402 3.898 1.402 2.772 0 4.877-1.958 4.862-5.495-1.348 1.61-2.666 2.127-3.73.4" fill="#efae0e"/><path d="M382.23 260.119l-96.223-8.963-4.295-.396-43.072-4.01a99.444 99.444 0 001.811 5.283l155.461 14.571c4.627-.183 10.758.214 14.238.818a92.334 92.334 0 002.526-4.462zm-48.752 43.996v.02zm-.059-1.335zm9.05 5.016c-.447-.737-.867-2.327-1.08-4.108-.125-1.099-.182-2.264-.108-3.352.08-1.297.315-2.48.8-3.298.712-1.228.463-2.43-.393-3.209-.815-.733-2.189-1.088-3.84-.709a4.298 4.298 0 00-1.827.919c3.951-.386.078 6.177-2.587 8.74.008.436.028.882.07 1.336v.02c.03.462.065.929.114 1.405.278 2.59 1.943 4.672 3.822 5.95 1.315.897 2.741 1.402 3.898 1.402 2.772 0 4.877-1.958 4.862-5.495-1.348 1.61-2.666 2.127-3.73.4z" fill="none" stroke="#000" stroke-width=".339"/><path d="M311.875 276.91c4.209-1.96 9.792-3.588 15.227-2.923 5.42.664 8.334-.396 9.65-1.325 1.333-.93 3.052-1.997 6.088-1.594 3.05.39 5.425-.134 7.419-.932 1.98-.795 4.475-1.13 6.084-.795 5.826 1.191 31.856-.341 36.673-2.527-5.65.712-35.84.698-38.653-.364-2.81-1.062-6.008-.563-9.713 1.03-3.701 1.595-6.27 1.811-8.07.96-1.013-.464-2.518-.398-3.388.498-.874.9-.532 1.86-4.502 1.86-3.965 0-17.204 1.065-24.885 2.392 2.835 3.211 6.694 2.936 8.07 3.72" fill="#fff"/><path d="M311.875 276.91c4.209-1.96 9.792-3.588 15.227-2.923 5.42.664 8.334-.396 9.65-1.325 1.333-.93 3.052-1.997 6.088-1.594 3.05.39 5.425-.134 7.419-.932 1.98-.795 4.475-1.13 6.084-.795 5.826 1.191 31.856-.341 36.673-2.527-5.65.712-35.84.698-38.653-.364-2.81-1.062-6.008-.563-9.713 1.03-3.701 1.595-6.27 1.811-8.07.96-1.013-.464-2.518-.398-3.388.498-.874.9-.532 1.86-4.502 1.86-3.965 0-17.204 1.065-24.885 2.392 2.835 3.211 6.694 2.936 8.07 3.72z" fill="none" stroke="#000" stroke-width=".339"/><path d="M278.242 284.748c3.527 2.82 12.981 1.195 14.84.267 1.846-.933 3.443-1.695 7.542-1.943 4.536-.268 8.127-.798 11.652-4.3 1.666-1.652.661-2.13-.528-2.925-1.198-.795-4.609-2.075-6.361-4.253-.69-.858-1.584-.525-2.51 0-.925.533-3.179.138-4.899-.394-1.726-.534-15.1-.797-17.739 1.594-2.645 2.39-7.287 4.298-4.37 8.897.745 1.167 1.309 2.206 2.373 3.057" fill="#949492"/><path d="M278.242 284.748c3.527 2.82 12.981 1.195 14.84.267 1.846-.933 3.443-1.695 7.542-1.943 4.536-.268 8.127-.798 11.652-4.3 1.666-1.652.661-2.13-.528-2.925-1.198-.795-4.609-2.075-6.361-4.253-.69-.858-1.584-.525-2.51 0-.925.533-3.179.138-4.899-.394-1.726-.534-15.1-.797-17.739 1.594-2.645 2.39-7.287 4.298-4.37 8.897.745 1.167 1.309 2.206 2.373 3.057z" fill="none" stroke="#000" stroke-width=".339"/><path d="M340.236 219.013c-.172-6.282-3.953-11.009-11.124-11.009-5.948 0-11.051 4.08-11.444 11.01h22.568" fill="#efae0e"/><path d="M281.777 158.595c0-1.16.834-2.24 2.074-2.24 1.24 0 2.549 1.178 2.379 2.178-.231 1.426-.344 2.303-1.814 2.42-1.314.099-2.639-.595-2.639-2.358" fill="#d4212f"/><path d="M281.777 158.595c0-1.16.834-2.24 2.074-2.24 1.24 0 2.549 1.178 2.379 2.178-.231 1.426-.344 2.303-1.814 2.42-1.314.099-2.639-.595-2.639-2.358z" fill="none" stroke="#000" stroke-width=".339"/><path d="M273.304 148.238c0-1.163.834-2.242 2.074-2.242 1.236 0 2.549 1.18 2.387 2.174-.235 1.43-.352 2.307-1.822 2.426-1.314.096-2.639-.598-2.639-2.358" fill="#d4212f"/><path d="M273.304 148.238c0-1.163.834-2.242 2.074-2.242 1.236 0 2.549 1.18 2.387 2.174-.235 1.43-.352 2.307-1.822 2.426-1.314.096-2.639-.598-2.639-2.358z" fill="none" stroke="#000" stroke-width=".339"/><path d="M262.704 182.768c-.47-1.063-.162-2.385.97-2.9 1.139-.507 2.805.024 3.059 1.001.377 1.401.63 2.247-.67 2.962-1.142.632-2.634.539-3.36-1.063" fill="#d4212f"/><path d="M262.704 182.768c-.47-1.063-.162-2.385.97-2.9 1.139-.507 2.805.024 3.059 1.001.377 1.401.63 2.247-.67 2.962-1.142.632-2.634.539-3.36-1.063z" fill="none" stroke="#000" stroke-width=".339"/><path d="M250.74 176.817c-.479-1.058-.162-2.383.969-2.897 1.134-.51 2.805.027 3.063 1 .374 1.4.624 2.25-.67 2.963-1.144.628-2.639.538-3.362-1.066" fill="#d4212f"/><path d="M250.74 176.817c-.479-1.058-.162-2.383.969-2.897 1.134-.51 2.805.027 3.063 1 .374 1.4.624 2.25-.67 2.963-1.144.628-2.639.538-3.362-1.066z" fill="none" stroke="#000" stroke-width=".339"/><path d="M240.64 210.34c-.864-.777-1.11-2.116-.278-3.04.829-.929 2.577-1.118 3.212-.329.898 1.128 1.475 1.804.575 2.981-.803 1.041-2.205 1.563-3.51.388" fill="#d4212f"/><path d="M240.64 210.34c-.864-.777-1.11-2.116-.278-3.04.829-.929 2.577-1.118 3.212-.329.898 1.128 1.475 1.804.575 2.981-.803 1.041-2.205 1.563-3.51.388z" fill="none" stroke="#000" stroke-width=".339"/><path d="M256.356 243.102c-1.102-.352-1.88-1.471-1.505-2.657.385-1.187 1.898-2.078 2.79-1.618 1.286.653 2.09 1.029 1.755 2.475-.303 1.277-1.37 2.333-3.04 1.8" fill="#d4212f"/><path d="M256.356 243.102c-1.102-.352-1.88-1.471-1.505-2.657.385-1.187 1.898-2.078 2.79-1.618 1.286.653 2.09 1.029 1.755 2.475-.303 1.277-1.37 2.333-3.04 1.8z" fill="none" stroke="#000" stroke-width=".339"/><path d="M243.952 248.062c-1.102-.35-1.881-1.473-1.498-2.656.379-1.187 1.887-2.079 2.79-1.623 1.285.658 2.078 1.036 1.748 2.476-.305 1.282-1.367 2.336-3.04 1.803" fill="#d4212f"/><path d="M243.952 248.062c-1.102-.35-1.881-1.473-1.498-2.656.379-1.187 1.887-2.079 2.79-1.623 1.285.658 2.078 1.036 1.748 2.476-.305 1.282-1.367 2.336-3.04 1.803z" fill="none" stroke="#000" stroke-width=".339"/><path d="M269.613 269.977c-1.163.037-2.264-.762-2.29-2.004-.043-1.245 1.086-2.59 2.096-2.46 1.425.19 2.303.276 2.465 1.75.135 1.307-.514 2.657-2.27 2.714" fill="#d4212f"/><path d="M269.613 269.977c-1.163.037-2.264-.762-2.29-2.004-.043-1.245 1.086-2.59 2.096-2.46 1.425.19 2.303.276 2.465 1.75.135 1.307-.514 2.657-2.27 2.714z" fill="none" stroke="#000" stroke-width=".339"/><path d="M259.562 278.8c-1.157.037-2.259-.758-2.3-2.003-.034-1.247 1.096-2.593 2.095-2.461 1.43.19 2.313.275 2.473 1.75.141 1.311-.514 2.655-2.268 2.714" fill="#d4212f"/><path d="M259.562 278.8c-1.157.037-2.259-.758-2.3-2.003-.034-1.247 1.096-2.593 2.095-2.461 1.43.19 2.313.275 2.473 1.75.141 1.311-.514 2.655-2.268 2.714z" fill="none" stroke="#000" stroke-width=".339"/><path d="M284.007 300.647c-1.036.52-2.377.26-2.923-.852-.56-1.113-.088-2.815.87-3.114 1.373-.427 2.213-.72 2.974.552.672 1.128.643 2.626-.921 3.414" fill="#d4212f"/><path d="M284.007 300.647c-1.036.52-2.377.26-2.923-.852-.56-1.113-.088-2.815.87-3.114 1.373-.427 2.213-.72 2.974.552.672 1.128.643 2.626-.921 3.414z" fill="none" stroke="#000" stroke-width=".339"/><path d="M304.368 134.603c0-1.162.82-2.241 2.063-2.241 1.24 0 2.555 1.181 2.385 2.176-.227 1.425-.352 2.307-1.82 2.421-1.31.108-2.628-.593-2.628-2.356" fill="#d4212f"/><path d="M304.368 134.603c0-1.162.82-2.241 2.063-2.241 1.24 0 2.555 1.181 2.385 2.176-.227 1.425-.352 2.307-1.82 2.421-1.31.108-2.628-.593-2.628-2.356z" fill="none" stroke="#000" stroke-width=".339"/><path d="M289.444 288.408c-1.032.522-2.365.261-2.919-.852-.55-1.111-.082-2.813.87-3.11 1.374-.432 2.211-.723 2.975.55.667 1.128.644 2.626-.926 3.412" fill="#d4212f"/><path d="M279.708 232.814c8.274 5.263 24.828 7.785 34.017 8.582 16.845 1.458 41.271 2.026 56.518 1.142.154.65.095 1.714 0 2.31-12.674.98-46.958-.397-52.241-.933-5.3-.528-26.965-2.256-38.294-11.101zm9.736 55.594c-1.032.522-2.365.261-2.919-.852-.55-1.111-.082-2.813.87-3.11 1.374-.432 2.211-.723 2.975.55.667 1.128.644 2.626-.926 3.412z" fill="none" stroke="#000" stroke-width=".339"/><path d="M280.24 223.247c.26 1.99.534 3.718.534 5.71a67.156 67.156 0 005.288 1.722v-5.518c-2.049-.597-4.02-1.232-5.822-1.914" fill="#fff"/><path d="M280.24 223.247c.26 1.99.534 3.718.534 5.71a67.156 67.156 0 005.288 1.722v-5.518c-2.049-.597-4.02-1.232-5.822-1.914z" fill="none" stroke="#000" stroke-width=".339"/><path d="M297.473 227.965l-.078 5.278c1.837.335 3.683.64 5.507.92l.078-5.119a240.059 240.059 0 01-5.507-1.079" fill="#fff"/><path d="M297.473 227.965l-.078 5.278c1.837.335 3.683.64 5.507.92l.078-5.119a240.059 240.059 0 01-5.507-1.079z" fill="none" stroke="#000" stroke-width=".339"/><path d="M289.002 225.981l-.076 5.463c1.802.45 3.656.86 5.535 1.24l.203-5.327a147.161 147.161 0 01-5.662-1.376" fill="#fff"/><path d="M289.002 225.981l-.076 5.463c1.802.45 3.656.86 5.535 1.24l.203-5.327a147.161 147.161 0 01-5.662-1.376z" fill="none" stroke="#000" stroke-width=".339"/><path d="M356.621 234.5l.125 4.041c1.74.033 3.474.06 5.206.074l-.065-3.95c-1.75-.04-3.511-.101-5.266-.165" fill="#fff"/><path d="M356.621 234.5l.125 4.041c1.74.033 3.474.06 5.206.074l-.065-3.95c-1.75-.04-3.511-.101-5.266-.165z" fill="none" stroke="#000" stroke-width=".339"/><path d="M348.302 234.108l-.072 4.199c1.88.067 3.795.123 5.715.172l.06-4.086a530.04 530.04 0 01-5.703-.285" fill="#fff"/><path d="M348.302 234.108l-.072 4.199c1.88.067 3.795.123 5.715.172l.06-4.086a530.04 530.04 0 01-5.703-.285z" fill="none" stroke="#000" stroke-width=".339"/><path d="M365.058 234.726l.077 3.912c1.763.008 3.511.004 5.237-.006l.065-3.867c-1.78.002-3.58-.008-5.38-.039" fill="#fff"/><path d="M365.058 234.726l.077 3.912c1.763.008 3.511.004 5.237-.006l.065-3.867c-1.78.002-3.58-.008-5.38-.039z" fill="none" stroke="#000" stroke-width=".339"/><path d="M339.767 233.55l.066 4.392c1.865.096 3.789.183 5.748.263l.074-4.257c-2.015-.12-3.98-.255-5.888-.399" fill="#fff"/><path d="M339.767 233.55l.066 4.392c1.865.096 3.789.183 5.748.263l.074-4.257c-2.015-.12-3.98-.255-5.888-.399z" fill="none" stroke="#000" stroke-width=".339"/><path d="M377.13 234.668a178.58 178.58 0 01-3.657.072l.19 3.848c1.161-.014 2.3-.039 3.43-.068.004-1.055.037-2.67.037-3.852" fill="#fff"/><path d="M377.13 234.668a178.58 178.58 0 01-3.657.072l.19 3.848c1.161-.014 2.3-.039 3.43-.068.004-1.055.037-2.67.037-3.852z" fill="none" stroke="#000" stroke-width=".339"/><path d="M314.196 230.86l.2 4.82c2.042.233 3.952.449 5.7.64l.125-4.657a369.895 369.895 0 01-6.025-.803" fill="#fff"/><path d="M314.196 230.86l.2 4.82c2.042.233 3.952.449 5.7.64l.125-4.657a369.895 369.895 0 01-6.025-.803z" fill="none" stroke="#000" stroke-width=".339"/><path d="M305.899 229.558l.125 5.06c1.901.267 3.758.507 5.554.727v-4.871a332.4 332.4 0 01-5.68-.916" fill="#fff"/><path d="M305.899 229.558l.125 5.06c1.901.267 3.758.507 5.554.727v-4.871a332.4 332.4 0 01-5.68-.916z" fill="none" stroke="#000" stroke-width=".339"/><path d="M330.776 232.805l.14 4.581c1.944.146 4.016.282 6.19.411l.072-4.44a452.985 452.985 0 01-6.402-.552" fill="#fff"/><path d="M330.776 232.805l.14 4.581c1.944.146 4.016.282 6.19.411l.072-4.44a452.985 452.985 0 01-6.402-.552z" fill="none" stroke="#000" stroke-width=".339"/><path d="M323.124 232.013c-.074-.01-.162-.019-.232-.027l-.076 4.64.308.035c1.48.17 3.128.333 4.931.491l.19-4.59c-1.868-.186-3.58-.367-5.121-.55" fill="#fff"/><path d="M323.124 232.013c-.074-.01-.162-.019-.232-.027l-.076 4.64.308.035c1.48.17 3.128.333 4.931.491l.19-4.59c-1.868-.186-3.58-.367-5.121-.55z" fill="none" stroke="#000" stroke-width=".339"/><path d="M286.015 251.156a17.924 17.924 0 00-2.442-4.864c3.234.353 6.973.712 11.046 1.076a954.5 954.5 0 005.52.475 1349.383 1349.383 0 0012.485.988c2.321.174 4.686.347 7.056.513 1.652.121 3.313.235 4.97.35 2.504.172 5.01.339 7.505.499l4.737.304c2.76.172 5.491.335 8.156.489 1.452.086 2.868.17 4.26.244 2.606.148 5.124.284 7.552.405 1.791.093 3.517.177 5.177.257 8.636.405 15.36.61 18.562.528.33-1.487.755-3.12 1.45-4.01-12.939.433-81.36-2.174-103.14-4.957 1.326 3.293 2.401 6.261 2.82 7.303l4.286.4" fill="#d4212f"/><path d="M388.045 230.176l-.17 5.587 1.026.103.117-5.6zm-1.994-.18l-.116 5.575.894.09.06-5.59zm5.122.464l-1.058-.095-.177 5.598 1.026.103zm-7.58-.69l-.416 5.533 1.322.132.176-5.57zm-2.897 8.163l3.99 7.469 2.9-.068 2.138-6.919zm1.102-9.963l-.823 8.718 10.823.208 1.994-7.889zm-95.783 23.186a17.924 17.924 0 00-2.442-4.864c3.234.353 6.973.712 11.046 1.076a954.5 954.5 0 005.52.475 1349.383 1349.383 0 0012.485.988c2.321.174 4.686.347 7.056.514 1.652.12 3.313.234 4.97.349 2.504.172 5.01.339 7.505.499l4.737.304c2.76.172 5.491.335 8.156.489 1.452.086 2.868.17 4.26.244 2.606.148 5.124.284 7.552.405 1.791.093 3.517.177 5.177.257 8.636.405 15.36.61 18.562.528.33-1.487.755-3.12 1.45-4.01-12.939.433-81.36-2.174-103.14-4.957 1.326 3.293 2.401 6.261 2.82 7.303z" fill="none" stroke="#000" stroke-width=".339"/><path d="M294.535 250.626a134.8 134.8 0 005.368.717l.235-3.496c-1.906-.159-3.738-.32-5.519-.479-.02.844-.051 1.954-.084 3.258" fill="#fff"/><path d="M294.535 250.626a134.8 134.8 0 005.368.717l.235-3.496c-1.906-.159-3.738-.32-5.519-.479-.02.844-.051 1.954-.084 3.258z" fill="none" stroke="#000" stroke-width=".339"/><path d="M345.297 255.64c1.314.136 2.62.276 3.928.407l.076-4.817c-1.39-.074-2.813-.158-4.252-.24l.248 4.65" fill="#fff"/><path d="M345.297 255.64c1.314.136 2.62.276 3.928.407l.076-4.817c-1.39-.074-2.813-.158-4.252-.24z" fill="none" stroke="#000" stroke-width=".339"/><path d="M357.176 256.777c1.63.131 3.267.249 4.92.34a56.684 56.684 0 00-.066-5.225c-1.652-.08-3.386-.164-5.177-.257l.323 5.142" fill="#fff"/><path d="M357.176 256.777c1.63.131 3.267.249 4.92.34a56.684 56.684 0 00-.066-5.225c-1.652-.08-3.386-.164-5.177-.257z" fill="none" stroke="#000" stroke-width=".339"/><path d="M332.23 254.396c1.273.11 4.376.384 4.663.41v-4.31c-1.573-.1-3.151-.2-4.746-.303l.082 4.203" fill="#fff"/><path d="M332.23 254.396c1.273.11 4.376.384 4.663.41v-4.31c-1.573-.1-3.151-.2-4.746-.303z" fill="none" stroke="#000" stroke-width=".339"/><path d="M306.423 252.05c1.893.193 3.914.388 6.033.585l.162-3.804c-2.127-.159-4.223-.32-6.278-.483l.083 3.702" fill="#fff"/><path d="M306.423 252.05c1.893.193 3.914.388 6.033.585l.162-3.804c-2.127-.159-4.223-.32-6.278-.483z" fill="none" stroke="#000" stroke-width=".339"/><path d="M319.68 253.294l4.817.428.154-4.029c-1.656-.115-3.319-.228-4.97-.349v3.95" fill="#fff"/><path d="M319.68 253.294l4.817.428.154-4.029c-1.656-.115-3.319-.228-4.97-.349z" fill="none" stroke="#000" stroke-width=".339"/><path d="M379.656 265.752s-3.9-17.235-4.328-18.928c-.425-1.695 1.145-2.972 2-.629.862 2.34 7.21 19.44 7.21 19.44l-4.882.117" fill="#fff"/><path d="M379.656 265.752s-3.9-17.235-4.328-18.928c-.425-1.695 1.145-2.972 2-.629.862 2.34 7.21 19.44 7.21 19.44z" fill="none" stroke="#000" stroke-width=".339"/><path d="M365.797 265.004s-2.666-16.139-3.077-17.848c-.407-1.707 1.058-4.05 2.114-.433 1.055 3.622 5.822 18.497 5.822 18.497l-4.86-.216" fill="#fff"/><path d="M365.797 265.004s-2.666-16.139-3.077-17.848c-.407-1.707 1.058-4.05 2.114-.433 1.055 3.622 5.822 18.497 5.822 18.497z" fill="none" stroke="#000" stroke-width=".339"/><path d="M353.086 264.258s-2.566-17.847-2.973-19.127c-.411-1.28.87-2.026 1.5-.218.625 1.81 5.272 19.345 5.272 19.345h-3.8" fill="#fff"/><path d="M353.086 264.258s-2.566-17.847-2.973-19.127c-.411-1.28.87-2.026 1.5-.218.625 1.81 5.272 19.345 5.272 19.345z" fill="none" stroke="#000" stroke-width=".339"/><path d="M339.634 264.038s.632-18.492.536-19.655c-.092-1.163 1.374-1.698 1.586-.1.224 1.594 1.806 19.54 1.806 19.54l-3.928.215" fill="#fff"/><path d="M339.634 264.038s.632-18.492.536-19.655c-.092-1.163 1.374-1.698 1.586-.1.224 1.594 1.806 19.54 1.806 19.54z" fill="none" stroke="#000" stroke-width=".339"/><path d="M326.399 262.978s1.255-18.4 1.163-19.347c-.102-.943 1.37-2.02 1.586 0 .221 2.032 1.595 19.347 1.595 19.347h-4.344" fill="#fff"/><path d="M326.399 262.978s1.255-18.4 1.163-19.347c-.102-.943 1.37-2.02 1.586 0 .221 2.032 1.595 19.347 1.595 19.347z" fill="none" stroke="#000" stroke-width=".339"/><path d="M312.106 262.88s4.119-18.712 4.332-19.873c.221-1.16 1.173-1.079 1.173.099s-.53 19.873-.53 19.873l-4.975-.1" fill="#fff"/><path d="M312.106 262.88s4.119-18.712 4.332-19.873c.221-1.16 1.173-1.079 1.173.099s-.53 19.873-.53 19.873z" fill="none" stroke="#000" stroke-width=".339"/><path d="M298.247 260.752s4.626-15.206 4.956-16.586c.332-1.377 2.35-.964 2.234.532-.107 1.493-3.29 16.372-3.29 16.372l-3.9-.318" fill="#fff"/><path d="M298.247 260.752s4.626-15.206 4.956-16.586c.332-1.377 2.35-.964 2.234.532-.107 1.493-3.29 16.372-3.29 16.372z" fill="none" stroke="#000" stroke-width=".339"/><path d="M283.333 259.722s7.94-14.56 8.74-16.152c.792-1.598 2.327-1.064 1.666.131-.67 1.196-6.747 15.94-6.747 15.94l-3.659.081" fill="#fff"/><path d="M283.333 259.722s7.94-14.56 8.74-16.152c.792-1.598 2.327-1.064 1.666.131-.67 1.196-6.747 15.94-6.747 15.94z" fill="none" stroke="#000" stroke-width=".339"/><path d="M376.565 158.44c0-1.16-.83-2.24-2.07-2.24-1.242 0-2.557 1.176-2.387 2.177.235 1.426.352 2.305 1.82 2.422 1.308.099 2.637-.595 2.637-2.358" fill="#d4212f"/><path d="M376.565 158.44c0-1.16-.83-2.24-2.07-2.24-1.242 0-2.557 1.176-2.387 2.177.235 1.426.352 2.305 1.82 2.422 1.308.099 2.637-.595 2.637-2.358z" fill="none" stroke="#000" stroke-width=".339"/><path d="M385.034 148.083c0-1.162-.834-2.243-2.074-2.243s-2.555 1.177-2.387 2.178c.235 1.425.354 2.305 1.822 2.421 1.314.104 2.639-.6 2.639-2.356" fill="#d4212f"/><path d="M385.034 148.083c0-1.162-.834-2.243-2.074-2.243s-2.555 1.177-2.387 2.178c.235 1.425.354 2.305 1.822 2.421 1.314.104 2.639-.6 2.639-2.356z" fill="none" stroke="#000" stroke-width=".339"/><path d="M395.634 182.611c.47-1.06.162-2.382-.97-2.896-1.13-.512-2.805.022-3.061 1-.375 1.395-.624 2.247.671 2.962 1.143.63 2.637.541 3.36-1.066" fill="#d4212f"/><path d="M395.634 182.611c.47-1.06.162-2.382-.97-2.896-1.13-.512-2.805.022-3.061 1-.375 1.395-.624 2.247.671 2.962 1.143.63 2.637.541 3.36-1.066z" fill="none" stroke="#000" stroke-width=".339"/><path d="M407.6 176.663c.477-1.06.167-2.383-.975-2.9-1.13-.51-2.804.026-3.058 1.001-.377 1.401-.63 2.25.67 2.962 1.147.631 2.642.54 3.363-1.063" fill="#d4212f"/><path d="M407.6 176.663c.477-1.06.167-2.383-.975-2.9-1.13-.51-2.804.026-3.058 1.001-.377 1.401-.63 2.25.67 2.962 1.147.631 2.642.54 3.363-1.063z" fill="none" stroke="#000" stroke-width=".339"/><path d="M417.698 210.186c.864-.777 1.11-2.114.28-3.04-.83-.929-2.581-1.118-3.214-.325-.898 1.124-1.475 1.8-.575 2.981.805 1.035 2.207 1.561 3.51.384" fill="#d4212f"/><path d="M417.698 210.186c.864-.777 1.11-2.114.28-3.04-.83-.929-2.581-1.118-3.214-.325-.898 1.124-1.475 1.8-.575 2.981.805 1.035 2.207 1.561 3.51.384z" fill="none" stroke="#000" stroke-width=".339"/><path d="M401.982 242.948c1.108-.352 1.88-1.47 1.495-2.657-.375-1.19-1.888-2.08-2.78-1.618-1.288.653-2.088 1.029-1.75 2.475.3 1.277 1.365 2.33 3.035 1.8" fill="#d4212f"/><path d="M401.982 242.948c1.108-.352 1.88-1.47 1.495-2.657-.375-1.19-1.888-2.08-2.78-1.618-1.288.653-2.088 1.029-1.75 2.475.3 1.277 1.365 2.33 3.035 1.8z" fill="none" stroke="#000" stroke-width=".339"/><path d="M414.39 247.908c1.102-.355 1.873-1.473 1.507-2.656-.387-1.19-1.906-2.08-2.79-1.623-1.286.657-2.097 1.036-1.757 2.475.305 1.283 1.364 2.337 3.04 1.804" fill="#d4212f"/><path d="M414.39 247.908c1.102-.355 1.873-1.473 1.507-2.656-.387-1.19-1.906-2.08-2.79-1.623-1.286.657-2.097 1.036-1.757 2.475.305 1.283 1.364 2.337 3.04 1.804z" fill="none" stroke="#000" stroke-width=".339"/><path d="M388.725 269.823c1.163.033 2.264-.764 2.29-2.004.043-1.245-1.095-2.595-2.09-2.46-1.43.187-2.309.276-2.47 1.75-.136 1.307.517 2.657 2.27 2.714" fill="#d4212f"/><path d="M388.725 269.823c1.163.033 2.264-.764 2.29-2.004.043-1.245-1.095-2.595-2.09-2.46-1.43.187-2.309.276-2.47 1.75-.136 1.307.517 2.657 2.27 2.714z" fill="none" stroke="#000" stroke-width=".339"/><path d="M398.776 278.646c1.165.037 2.267-.76 2.291-2.005.045-1.244-1.093-2.59-2.092-2.459-1.43.191-2.305.278-2.467 1.75-.137 1.311.514 2.653 2.268 2.714" fill="#d4212f"/><path d="M398.776 278.646c1.165.037 2.267-.76 2.291-2.005.045-1.244-1.093-2.59-2.092-2.459-1.43.191-2.305.278-2.467 1.75-.137 1.311.514 2.653 2.268 2.714z" fill="none" stroke="#000" stroke-width=".339"/><path d="M368.892 288.254c1.036.522 2.369.261 2.921-.852.55-1.114.088-2.813-.87-3.112-1.371-.43-2.213-.721-2.973.55-.679 1.124-.642 2.63.922 3.414" fill="#d4212f"/><path d="M368.892 288.254c1.036.522 2.369.261 2.921-.852.55-1.114.088-2.813-.87-3.112-1.371-.43-2.213-.721-2.973.55-.679 1.124-.642 2.63.922 3.414z" fill="none" stroke="#000" stroke-width=".339"/><path d="M374.333 300.493c1.034.52 2.37.26 2.921-.852.555-1.118.084-2.816-.865-3.114-1.378-.43-2.217-.72-2.975.546-.676 1.134-.645 2.631.92 3.42" fill="#d4212f"/><path d="M374.333 300.493c1.034.52 2.37.26 2.921-.852.555-1.118.084-2.816-.865-3.114-1.378-.43-2.217-.72-2.975.546-.676 1.134-.645 2.631.92 3.42z" fill="none" stroke="#000" stroke-width=".339"/><path d="M353.978 134.447c0-1.163-.837-2.24-2.07-2.24-1.242 0-2.548 1.182-2.386 2.176.23 1.426.352 2.31 1.818 2.422 1.314.101 2.638-.595 2.638-2.358" fill="#d4212f"/><path d="M353.978 134.447c0-1.163-.837-2.24-2.07-2.24-1.242 0-2.548 1.182-2.386 2.176.23 1.426.352 2.31 1.818 2.422 1.314.101 2.638-.595 2.638-2.358z" fill="none" stroke="#000" stroke-width=".339"/><path d="M353.002 326.014c.25-.249.565-.39.931-.43a1.48 1.48 0 011.191.393c.344.306.547.777.617 1.414.059.573-.041 1.053-.273 1.437-.235.388-.587.608-1.064.654a1.498 1.498 0 01-1.255-.436c-.353-.34-.559-.8-.619-1.387-.075-.73.087-1.276.472-1.645m-119.692-48.5l2.961-3.518 1.509 2.39zm48.721-160.424l3.114 3.388-2.567 1.198zM416.95 289.723c-.463.208-.955.1-1.483-.318-.491-.388-.675-.83-.55-1.323.07-.282.255-.627.587-1.038l1.621-2.077 2.35 1.857-1.67 2.129c-.315.396-.594.65-.856.77m-193.334-55.899c-.66.57-1.623.873-2.871.902-1.247.04-2.224-.211-2.914-.743-.698-.533-1.05-1.256-1.08-2.18-.02-.925.294-1.664.962-2.225.671-.564 1.627-.856 2.874-.891 1.257-.035 2.225.208 2.913.731.7.524 1.048 1.25 1.08 2.17.021.924-.296 1.663-.964 2.236" fill="#002a86"/><path d="M399.771 204.003l-3.961 12.984-3.157 10.366c.667.066 1.319.125 1.916.18l5.855-25.669zm-2.203 7.27l2.212-7.27z" fill="none" stroke="#000" stroke-width=".339"/><path d="M395.436 202.84c-2.102-.028-4.386.458-6.359 1.104v-.003c-1.254.413-2.393.891-3.257 1.343-2.614 1.362-4.767 2.739-7.844 3.189.032.577-.023 1.217-.092 1.889h-.008a23.432 23.432 0 01-.424 2.437h-.004a29.101 29.101 0 01-.389 1.588h-.006c-.133.53-.28 1.054-.428 1.586l-.416 1.514h-.01a91.538 91.538 0 00-.585 2.157 40.88 40.88 0 00-.393 1.678c1.916.629 5.918-.948 7.724-2.64 3.472-3.273 8.69-3.11 12.886-1.695l.588-1.956-.004-.002.49-1.622-.004-.001.663-2.131v-.003l2.21-7.268c-1.183-.81-2.709-1.142-4.344-1.164z" fill="#d4212f"/><g fill="none" stroke="#fff" stroke-width=".7"><path d="M377.06 214.387c2.997.092 7.16-4.622 10.551-4.854 3.635-.276 7.373-1.565 8.144-1.53m-7.012-.383c-4.276.227-8.532 4.849-11.294 4.863m.435-2.121c2.972-.331 6.916-4.119 10.448-4.31m7.983 9.61c-3.22-1.841-9.036-1.147-12.112.628-1.835 1.054-6.08 4.412-8.693 3.985"/><path d="M375.997 218.137c2.277.164 6.764-2.77 8.504-3.768 3.148-1.825 9.26-2.314 12.402-.274"/></g><path d="M399.78 204.005s-3.267-2.82-11.96.288c.216-.364-.223 4.8.837 6.777 0 0 4.097-.67 8.794.618" fill="#002a86"/><path d="M376.503 216.27c2.905.432 7.344-4.352 10.965-5.095 0 0 4.49-.986 9.983.513" fill="none" stroke="#fff" stroke-width=".7"/><path d="M395.436 202.84c-2.102-.028-4.386.458-6.359 1.104v-.003c-1.254.413-2.393.891-3.257 1.343-2.614 1.362-4.767 2.739-7.844 3.189.032.577-.023 1.217-.092 1.889h-.008a23.432 23.432 0 01-.424 2.437h-.004a29.101 29.101 0 01-.389 1.588h-.006c-.133.53-.28 1.054-.428 1.586l-.416 1.514h-.01a91.538 91.538 0 00-.585 2.157 40.88 40.88 0 00-.393 1.678c1.916.629 5.918-.948 7.724-2.64 3.472-3.273 8.69-3.11 12.886-1.695l.588-1.956-.004-.002.49-1.622-.004-.001.663-2.131c.768-2.532 1.551-5.103 2.21-7.27-1.183-.81-2.709-1.143-4.344-1.165z" fill="none" stroke="#000" stroke-width=".339"/><path d="M319.68 142.623c2.259-1.859 4.91-3.582 6.627-4.515-2.782-1.728-5.693-1.861-8.606-1.861 1.98-1.064 3.973-4.115 4.105-6.508-3.444-.532-8.34 1.725-9.927 4.384-1.003 1.657-4.563 5.386-6.895 7.459.633-1.537 1.671-3.47 1.671-5.142 0-.694-.69-.897-.892-.068-.84 3.353-4.563 6.293-7.929 7.451-4.657 1.605-9.458 3.908-14.168 6.866-.69-.56-.864-1.212-.846-1.757.082-1.333 1.873-1.892 3.974-1.988 3.461-.152 15.261-7.225 13.352-13.587-1.358 2.78-4.676 3.607-9.215 4.018-5.71.532-10.522 5.717-9.322 11.494.294 1.411.427 2.212.397 2.9a72.656 72.656 0 00-5.265 3.842c.225-1.943.243-4.402-.205-5.78-.293-.93-1.323-2.043-.977-.1.279 1.566-.477 5.617-1.879 8.485a71.564 71.564 0 00-13.562 16.366c-.653-.252-1.014-.694-1.18-1.134-.476-1.238.901-2.502 2.766-3.477 3.077-1.59 10.83-12.977 6.447-17.949-.074 3.086-2.74 5.239-6.678 7.521-4.965 2.886-7.167 9.618-3.669 14.351.72.97 1.157 1.596 1.43 2.151-.949 1.664-1.814 3.408-2.646 5.183-.593-1.64-1.416-3.387-2.25-4.29-.652-.722-2.04-1.316-.93.315.77 1.128 1.602 4.248 1.758 7.129-2.784 5.965-4.936 13.311-6.103 21.534-.72.019-1.227-.26-1.564-.605-.903-.976-.088-2.665 1.286-4.27 2.268-2.62 5.252-16.078-.656-19.06 1.069 2.894-.607 5.889-3.429 9.474-3.53 4.53-3.09 11.598 1.925 14.688 1.095.676 1.74 1.113 2.21 1.55a88.008 88.008 0 00-.492 4.947c-1.284-1.448-3.05-3.067-4.353-3.64-.878-.4-2.401-.378-.716.66 1.292.803 3.648 3.858 4.882 6.725a104.562 104.562 0 001.74 22.568 1.895 1.895 0 01-1.476-.12c-1.134-.596-1.142-2.297-.663-4.07.81-2.915-2.156-15.456-8.218-16.411 2.05 2.223 1.873 5.295 1.006 9.205-1.087 4.918 2.123 10.951 7.49 12.25.962.23 1.62.406 2.121.602.393 1.957.956 4.166 1.687 6.546-1.762-.776-3.992-1.503-5.398-1.493-.977.004-2.343.649-.394.904 1.44.19 4.568 1.826 6.848 3.788 1.976 5.542 4.876 11.79 8.805 18.026-.522.505-1.083.64-1.564.614-1.322-.102-1.855-1.902-1.933-4.006-.098-3.475-6.984-15.402-13.355-13.58 2.743 1.397 3.525 4.745 3.877 9.298.454 5.737 5.55 10.635 11.323 9.502 1.203-.234 1.959-.349 2.583-.36a86.745 86.745 0 003.9 5.469c-1.896-.136-4.182-.072-5.487.403-.917.324-1.985 1.389-.071.982 1.416-.302 4.904.19 7.71 1.28 3.618 4.318 7.826 8.43 12.65 12.087a1.96 1.96 0 01-1.146.723c-1.31.252-3.458-2.034-4.082-4.053-1.017-3.32-10.332-7.404-15.996-3.963 3.015.623 5.177-.337 6.704 3.963 1.95 5.415 9.194 7.383 13.606 5.24.97-.466 1.623-.768 2.174-.953a69.869 69.869 0 005.71 3.727c-1.653.671-3.442 1.604-4.335 2.49-.694.684-1.226 2.105.355.924 1.027-.777 3.832-1.672 6.557-1.993 6.174 3.291 13.142 5.808 20.977 7.22-.088.693-.455 1.125-.807 1.443-1.003.883-2.659.012-4.209-1.41-2.546-2.352-15.877-5.73-19.013.116 2.909-1 5.848.776 9.34 3.703 4.406 3.68 11.463 3.44 14.679-1.503.745-1.142 1.277-1.675 1.81-2.015 1.373.215 2.782.394 4.214.538.27-1.243.617-2.422.756-3.371a69.603 69.603 0 01-4.486-.66c.447-1.276 1.17-2.726.565-4.41-1.059-3.11-5.94-7.503-10.743-7.546-3.767-.057-7.008-4.153-9.982-4.47 1.087 1.847 1.768 3.283 2.161 5.247 1.022 5.173 6.719 8.338 13.628 7.769 1.759-.144 3.038 1.662 3.308 3.215-7.095-1.369-14.291-3.854-21.102-7.365-1.755-2.069-2.35-3.996-2.591-5.166-.394-1.79-1.24-2.071-.926.152a18.66 18.66 0 00.866 3.568 79.663 79.663 0 01-4.81-2.946c.932-1.124 2.566-2.167 2.736-4.216.323-3.27-2.307-9.295-6.66-11.335-3.4-1.617-4.663-6.697-7.24-8.22.228 2.135.256 3.723-.199 5.674-1.211 5.13 2.674 10.385 9.19 12.739 1.888.682 2.158 3.396 1.472 4.879-4.706-3.182-9.083-6.882-12.952-11.067-1.476-3.496-1.161-6.158-.843-7.586.39-1.787-.258-2.4-.897-.253-.455 1.519-.786 3.464-.75 5.01a65.814 65.814 0 01-4.096-5.538c.962-1.294 3.569-1.606 4.443-3.987 1.17-3.075.215-9.579-3.452-12.703-2.872-2.464-2.743-7.687-4.827-9.842-.35 2.12-.735 3.66-1.683 5.421-2.512 4.633-.147 10.726 5.53 14.72 1.957 1.375.962 4.92-.514 5.625-3.554-5.507-6.334-11.497-8.4-17.695-.229-3.78.947-6.196 1.718-7.432.962-1.556.551-2.349-.772-.54-.82 1.127-1.662 2.608-2.188 3.948a102.287 102.287 0 01-1.474-5.923c1.255-.322 3.235.152 4.5-1.25 1.887-2.03 2.911-7.758.639-11.836-1.773-3.21-.18-7.438-1.366-10.074-.903 1.594-1.674 2.696-3.003 3.743-3.498 2.75-3.189 8.723.578 14.356 1.148 1.704-.156 3.845-1.503 4.316-2.208-10.816-2.503-21.753-1.217-31.382 1.54-.07 3.54 1.198 5.637.116 2.932-1.47 6.625-6.9 6.034-11.69-.44-3.76 3.173-7.526 3.087-10.526-1.677 1.326-3.01 2.197-4.897 2.845-4.97 1.701-7.343 7.796-5.867 14.59.477 2.192-2.258 4.028-3.877 3.847a90.266 90.266 0 015.191-19.786c2.85-3.195 5.683-4.004 7.218-4.267 1.802-.325 2.11-1.159-.11-.937-1.846.185-4.189.76-5.591 1.578a80.613 80.613 0 013.202-6.469c1.563.335 2.972 2.535 5.47 2.292 3.267-.267 8.708-3.938 9.935-8.603.98-3.654 5.726-5.803 6.765-8.622-2.055.604-3.598.92-5.595.822-5.247-.275-9.707 4.499-10.854 11.356-.39 2.354-4 2.989-5.277 1.961 3.509-6.179 7.826-11.78 12.938-16.284 3.788-1.62 6.629-1.191 8.103-.81 1.773.45 2.403-.184.278-.897-1.586-.532-3.672-.953-5.247-.914a84.072 84.072 0 015.697-4.14c1.294.964 1.65 3.557 4.017 4.389 3.073 1.13 9.542.084 12.609-3.636 2.425-2.905 7.63-2.856 9.75-4.98-2.119-.312-3.664-.682-5.423-1.61-4.647-2.455-10.694 0-14.597 5.746-1.332 1.954-4.825 1.041-5.588-.397 6.2-3.993 12.688-6.843 20.307-8.907-.106-.28-.077-.646.033-1.068 6.417 3.214 12.855 1.797 15.043-.01" fill="#3f863f"/><path d="M319.68 142.623c2.259-1.859 4.91-3.582 6.627-4.515-2.782-1.728-5.693-1.861-8.606-1.861 1.98-1.064 3.973-4.115 4.105-6.508-3.444-.532-8.34 1.725-9.927 4.384-1.003 1.657-4.563 5.386-6.895 7.459.633-1.537 1.671-3.47 1.671-5.142 0-.694-.69-.897-.892-.068-.84 3.353-4.563 6.293-7.929 7.451-4.657 1.605-9.458 3.908-14.168 6.866-.69-.56-.864-1.212-.846-1.757.082-1.333 1.873-1.892 3.974-1.988 3.461-.152 15.261-7.225 13.352-13.587-1.358 2.78-4.676 3.607-9.215 4.018-5.71.532-10.522 5.717-9.322 11.494.294 1.411.427 2.212.397 2.9a72.656 72.656 0 00-5.265 3.842c.225-1.943.243-4.402-.205-5.78-.293-.93-1.323-2.043-.977-.1.279 1.566-.477 5.617-1.879 8.485a71.564 71.564 0 00-13.562 16.366c-.653-.252-1.014-.694-1.18-1.134-.476-1.238.901-2.502 2.766-3.477 3.077-1.59 10.83-12.977 6.447-17.949-.074 3.086-2.74 5.239-6.678 7.521-4.965 2.886-7.167 9.618-3.669 14.351.72.97 1.157 1.596 1.43 2.151-.949 1.664-1.814 3.408-2.646 5.183-.593-1.64-1.416-3.387-2.25-4.29-.652-.722-2.04-1.316-.93.315.77 1.128 1.602 4.248 1.758 7.129-2.784 5.965-4.936 13.311-6.103 21.534-.72.019-1.227-.26-1.564-.605-.903-.976-.088-2.665 1.286-4.27 2.268-2.62 5.252-16.078-.656-19.06 1.069 2.894-.607 5.889-3.429 9.474-3.53 4.53-3.09 11.598 1.925 14.688 1.095.676 1.74 1.113 2.21 1.55a88.008 88.008 0 00-.492 4.947c-1.284-1.448-3.05-3.067-4.353-3.64-.878-.4-2.401-.378-.716.66 1.292.803 3.648 3.858 4.882 6.725a104.562 104.562 0 001.74 22.568 1.895 1.895 0 01-1.476-.12c-1.134-.596-1.142-2.297-.663-4.07.81-2.915-2.156-15.456-8.218-16.411 2.05 2.223 1.873 5.295 1.006 9.205-1.087 4.918 2.123 10.951 7.49 12.25.962.23 1.62.406 2.121.602.393 1.957.956 4.166 1.687 6.546-1.762-.776-3.992-1.503-5.398-1.493-.977.004-2.343.649-.394.904 1.44.19 4.568 1.826 6.848 3.788 1.976 5.542 4.876 11.79 8.805 18.026-.522.505-1.083.64-1.564.614-1.322-.102-1.855-1.902-1.933-4.006-.098-3.475-6.984-15.402-13.355-13.58 2.743 1.397 3.525 4.745 3.877 9.298.454 5.737 5.55 10.635 11.323 9.502 1.203-.234 1.959-.349 2.583-.36a86.745 86.745 0 003.9 5.469c-1.896-.136-4.182-.072-5.487.403-.917.324-1.985 1.389-.071.982 1.416-.302 4.904.19 7.71 1.28 3.618 4.318 7.826 8.43 12.65 12.087a1.96 1.96 0 01-1.146.723c-1.31.252-3.458-2.034-4.082-4.053-1.017-3.32-10.332-7.404-15.996-3.963 3.015.623 5.177-.337 6.704 3.963 1.95 5.415 9.194 7.383 13.606 5.24.97-.466 1.623-.768 2.174-.953a69.869 69.869 0 005.71 3.727c-1.653.671-3.442 1.604-4.335 2.49-.694.684-1.226 2.105.355.924 1.027-.777 3.832-1.672 6.557-1.993 6.174 3.291 13.142 5.808 20.977 7.22-.088.693-.455 1.125-.807 1.443-1.003.883-2.659.012-4.209-1.41-2.546-2.352-15.877-5.73-19.013.116 2.909-1 5.848.776 9.34 3.703 4.406 3.68 11.463 3.44 14.679-1.503.745-1.142 1.277-1.675 1.81-2.015 1.373.215 2.782.394 4.214.538.27-1.243.617-2.422.756-3.371a69.603 69.603 0 01-4.486-.66c.447-1.276 1.17-2.726.565-4.41-1.059-3.11-5.94-7.503-10.743-7.546-3.767-.057-7.008-4.153-9.982-4.47 1.087 1.847 1.768 3.283 2.161 5.247 1.022 5.173 6.719 8.338 13.628 7.769 1.759-.144 3.038 1.662 3.308 3.215-7.095-1.369-14.291-3.854-21.102-7.365-1.755-2.069-2.35-3.996-2.591-5.166-.394-1.79-1.24-2.071-.926.152a18.66 18.66 0 00.866 3.568 79.663 79.663 0 01-4.81-2.946c.932-1.124 2.566-2.167 2.736-4.216.323-3.27-2.307-9.295-6.66-11.335-3.4-1.617-4.663-6.697-7.24-8.22.228 2.135.256 3.723-.199 5.674-1.211 5.13 2.674 10.385 9.19 12.739 1.888.682 2.158 3.396 1.472 4.879-4.706-3.182-9.083-6.882-12.952-11.067-1.476-3.496-1.161-6.158-.843-7.586.39-1.787-.258-2.4-.897-.253-.455 1.519-.786 3.464-.75 5.01a65.814 65.814 0 01-4.096-5.538c.962-1.294 3.569-1.606 4.443-3.987 1.17-3.075.215-9.579-3.452-12.703-2.872-2.464-2.743-7.687-4.827-9.842-.35 2.12-.735 3.66-1.683 5.421-2.512 4.633-.147 10.726 5.53 14.72 1.957 1.375.962 4.92-.514 5.625-3.554-5.507-6.334-11.497-8.4-17.695-.229-3.78.947-6.196 1.718-7.432.962-1.556.551-2.349-.772-.54-.82 1.127-1.662 2.608-2.188 3.948a102.287 102.287 0 01-1.474-5.923c1.255-.322 3.235.152 4.5-1.25 1.887-2.03 2.911-7.758.639-11.836-1.773-3.21-.18-7.438-1.366-10.074-.903 1.594-1.674 2.696-3.003 3.743-3.498 2.75-3.189 8.723.578 14.356 1.148 1.704-.156 3.845-1.503 4.316-2.208-10.816-2.503-21.753-1.217-31.382 1.54-.07 3.54 1.198 5.637.116 2.932-1.47 6.625-6.9 6.034-11.69-.44-3.76 3.173-7.526 3.087-10.526-1.677 1.326-3.01 2.197-4.897 2.845-4.97 1.701-7.343 7.796-5.867 14.59.477 2.192-2.258 4.028-3.877 3.847a90.266 90.266 0 015.191-19.786c2.85-3.195 5.683-4.004 7.218-4.267 1.802-.325 2.11-1.159-.11-.937-1.846.185-4.189.76-5.591 1.578a80.613 80.613 0 013.202-6.469c1.563.335 2.972 2.535 5.47 2.292 3.267-.267 8.708-3.938 9.935-8.603.98-3.654 5.726-5.803 6.765-8.622-2.055.604-3.598.92-5.595.822-5.247-.275-9.707 4.499-10.854 11.356-.39 2.354-4 2.989-5.277 1.961 3.509-6.179 7.826-11.78 12.938-16.284 3.788-1.62 6.629-1.191 8.103-.81 1.773.45 2.403-.184.278-.897-1.586-.532-3.672-.953-5.247-.914a84.072 84.072 0 015.697-4.14c1.294.964 1.65 3.557 4.017 4.389 3.073 1.13 9.542.084 12.609-3.636 2.425-2.905 7.63-2.856 9.75-4.98-2.119-.312-3.664-.682-5.423-1.61-4.647-2.455-10.694 0-14.597 5.746-1.332 1.954-4.825 1.041-5.588-.397 6.2-3.993 12.688-6.843 20.307-8.907-.106-.28-.077-.646.033-1.068 6.417 3.214 12.855 1.797 15.043-.01z" fill="none" stroke="#000" stroke-width=".339"/><path d="M344.179 299.873c-.969.17-1.941.325-2.899.458-.074 1.093-.016 2.258.108 3.353a74.966 74.966 0 003.091-.426c.6.34 1.161.849 1.988 2.125 3.222 4.94 10.273 5.179 14.685 1.5 3.503-2.924 6.432-4.701 9.34-3.704-3.135-5.843-16.462-2.464-19.013-.114-1.546 1.424-3.214 2.295-4.205 1.41-.384-.34-.763-.805-.833-1.58 7.667-1.43 14.51-3.907 20.6-7.124 2.842.27 5.872 1.22 6.97 2.033 1.57 1.18 1.035-.238.343-.922-.946-.939-2.893-1.923-4.622-2.603a73.06 73.06 0 005.705-3.7c.61.165 1.333.483 2.476 1.04 4.405 2.139 11.664.175 13.599-5.24 1.535-4.3 3.689-3.34 6.71-3.963-5.66-3.443-14.985.641-15.992 3.963-.624 2.02-2.782 4.302-4.082 4.053-.448-.095-.933-.351-1.304-.918 4.706-3.56 8.83-7.544 12.402-11.728 2.868-1.2 6.634-1.763 8.107-1.45 1.932.416.855-.652-.066-.98-1.36-.494-3.795-.543-5.734-.388a89.301 89.301 0 003.972-5.481c.657-.017 1.443.106 2.753.362 5.771 1.131 10.875-3.768 11.331-9.503.348-4.552 1.134-7.9 3.87-9.298-6.36-1.822-13.248 10.105-13.35 13.58-.078 2.104-.61 3.908-1.931 4.004-.518.033-1.12-.123-1.667-.719 3.943-6.183 6.858-12.377 8.85-17.88 2.285-1.978 5.456-3.638 6.895-3.827 1.957-.259.581-.9-.389-.904-1.416-.012-3.66.719-5.41 1.501.74-2.387 1.318-4.593 1.703-6.559.518-.19 1.17-.368 2.123-.602 5.367-1.294 8.571-7.328 7.488-12.25-.865-3.91-1.042-6.982 1.005-9.2-6.049.954-9.024 13.496-8.215 16.41.477 1.776.47 3.474-.665 4.07a1.9 1.9 0 01-1.476.117 103.95 103.95 0 001.74-22.564c1.234-2.871 3.59-5.922 4.89-6.725 1.667-1.038.162-1.06-.722-.664-1.304.575-3.063 2.196-4.355 3.64a104.14 104.14 0 00-.485-4.942c.463-.438 1.11-.875 2.203-1.55 5.015-3.09 5.455-10.161 1.916-14.689-2.811-3.589-4.494-6.582-3.421-9.474-5.91 2.98-2.92 16.44-.653 19.061 1.365 1.6 2.188 3.289 1.283 4.267-.33.342-.843.626-1.563.605-1.168-8.225-3.319-15.567-6.095-21.536.156-2.88.98-5.997 1.753-7.125 1.107-1.631-.279-1.04-.934-.314-.818.902-1.648 2.643-2.25 4.289-.829-1.777-1.689-3.519-2.636-5.183.264-.552.702-1.18 1.418-2.15 3.513-4.738 1.302-11.466-3.658-14.352-3.948-2.276-6.622-4.435-6.688-7.52-4.385 4.97 3.37 16.356 6.451 17.943 1.861.978 3.249 2.244 2.763 3.482-.176.436-.528.88-1.179 1.134a71.975 71.975 0 00-13.56-16.366c-1.402-2.868-2.16-6.919-1.881-8.484.345-1.943-.682-.834-.977.099-.446 1.378-.425 3.835-.205 5.78a74.423 74.423 0 00-5.265-3.841c-.03-.689.096-1.492.389-2.901 1.206-5.78-3.605-10.962-9.317-11.494-4.53-.415-7.857-1.244-9.216-4.018-1.902 6.362 9.898 13.435 13.358 13.583 2.102.1 3.883.663 3.967 1.99.03.547-.154 1.198-.848 1.759-4.692-2.958-9.498-5.265-14.156-6.868-3.377-1.156-7.102-4.096-7.93-7.448-.213-.835-.893-.623-.893.063 0 1.672 1.04 3.61 1.664 5.146-2.335-2.075-5.885-5.805-6.894-7.46-1.587-2.656-6.486-4.915-9.929-4.383.133 2.389 2.119 5.444 4.105 6.508-2.907 0-5.822.133-8.598 1.861 1.717.932 4.368 2.656 6.616 4.515 2.189 1.806 8.627 3.221 15.071.007.107.425.136.788.037 1.068 7.61 2.064 14.097 4.907 20.297 8.903-.767 1.44-4.258 2.354-5.582.4-3.908-5.745-9.951-8.2-14.598-5.745-1.773.929-3.314 1.294-5.427 1.612 2.113 2.122 7.337 2.073 9.753 4.978 3.054 3.72 9.523 4.765 12.61 3.636 2.37-.832 2.73-3.427 4.006-4.388a81.931 81.931 0 015.708 4.14c-1.579-.046-3.666.381-5.25.913-2.11.717-1.483 1.344.28.894 1.483-.383 4.309-.812 8.106.813 5.106 4.503 9.427 10.105 12.926 16.284-1.27 1.027-4.883.393-5.268-1.961-1.148-6.864-5.603-11.631-10.856-11.36-1.994.102-3.544-.216-5.593-.818 1.026 2.818 5.78 4.969 6.764 8.62 1.226 4.667 6.655 8.338 9.926 8.605 2.504.242 3.915-1.962 5.478-2.293a78.955 78.955 0 013.206 6.474c-1.402-.822-3.746-1.397-5.597-1.582-2.223-.222-1.908.612-.108.932 1.527.267 4.375 1.077 7.218 4.267a89.82 89.82 0 015.19 19.79c-1.63.182-4.351-1.655-3.874-3.847 1.475-6.795-.895-12.886-5.87-14.59-1.887-.648-3.21-1.52-4.898-2.846-.076 3.001 3.533 6.766 3.09 10.524-.587 4.788 3.096 10.224 6.03 11.693 2.104 1.082 4.098-.187 5.64-.12 1.283 9.629.994 20.565-1.227 31.385-1.34-.47-2.632-2.615-1.494-4.316 3.767-5.632 4.075-11.608.579-14.355-1.333-1.047-2.11-2.149-3.008-3.743-1.185 2.636.406 6.864-1.361 10.072-2.282 4.08-1.249 9.803.639 11.837 1.263 1.403 3.243.929 4.502 1.253a91.534 91.534 0 01-1.48 5.92c-.522-1.34-1.366-2.82-2.189-3.948-1.32-1.808-1.732-1.015-.763.54.763 1.233 1.942 3.653 1.711 7.433-2.078 6.193-4.854 12.188-8.397 17.693-1.478-.702-2.458-4.248-.516-5.622 5.669-3.996 8.044-10.09 5.532-14.72-.958-1.761-1.337-3.302-1.68-5.422-2.087 2.15-1.968 7.38-4.832 9.842-3.658 3.124-4.618 9.629-3.452 12.7.862 2.38 3.48 2.7 4.443 3.99a68.408 68.408 0 01-4.099 5.539c.046-1.547-.292-3.498-.747-5.01-.647-2.147-1.294-1.535-.892.252.315 1.422.63 4.088-.848 7.583-3.867 4.184-8.243 7.888-12.95 11.074-.7-1.483-.418-4.2 1.47-4.883 6.52-2.358 10.404-7.605 9.2-12.738-.463-1.956-.426-3.54-.209-5.68-2.577 1.528-3.834 6.602-7.24 8.225-4.355 2.044-6.979 8.067-6.655 11.336.167 2.048 1.797 3.091 2.722 4.207a77.167 77.167 0 01-4.8 2.966c.403-1.158.71-2.46.865-3.584.316-2.221-.528-1.94-.925-.148-.24 1.163-.837 3.081-2.563 5.134-6.83 3.53-14.031 6.043-21.133 7.416.254-1.56 1.536-3.377 3.304-3.235 6.903.567 12.609-2.595 13.628-7.768.391-1.963 1.081-3.4 2.168-5.247-2.982.313-6.219 4.413-9.994 4.466-4.802.052-9.679 4.44-10.743 7.55-.621 1.69.104 3.14.55 4.413" fill="#3f863f"/><path d="M344.179 299.873c-.969.17-1.941.325-2.899.458-.074 1.093-.016 2.258.108 3.353a74.966 74.966 0 003.091-.426c.6.34 1.161.849 1.988 2.125 3.222 4.94 10.273 5.179 14.685 1.5 3.503-2.924 6.432-4.701 9.34-3.704-3.135-5.843-16.462-2.464-19.013-.114-1.546 1.424-3.214 2.295-4.205 1.41-.384-.34-.763-.805-.833-1.58 7.667-1.43 14.51-3.907 20.6-7.124 2.842.27 5.872 1.22 6.97 2.033 1.57 1.18 1.035-.238.343-.922-.946-.939-2.893-1.923-4.622-2.603a73.06 73.06 0 005.705-3.7c.61.165 1.333.483 2.476 1.04 4.405 2.139 11.664.175 13.599-5.24 1.535-4.3 3.689-3.34 6.71-3.963-5.66-3.443-14.985.641-15.992 3.963-.624 2.02-2.782 4.302-4.082 4.053-.448-.095-.933-.351-1.304-.918 4.706-3.56 8.83-7.544 12.402-11.728 2.868-1.2 6.634-1.763 8.107-1.45 1.932.416.855-.652-.066-.98-1.36-.494-3.795-.543-5.734-.388a89.301 89.301 0 003.972-5.481c.657-.017 1.443.106 2.753.362 5.771 1.131 10.875-3.768 11.331-9.503.348-4.552 1.134-7.9 3.87-9.298-6.36-1.822-13.248 10.105-13.35 13.58-.078 2.104-.61 3.908-1.931 4.004-.518.033-1.12-.123-1.667-.719 3.943-6.183 6.858-12.377 8.85-17.88 2.285-1.978 5.456-3.638 6.895-3.827 1.957-.259.581-.9-.389-.904-1.416-.012-3.66.719-5.41 1.501.74-2.387 1.318-4.593 1.703-6.559.518-.19 1.17-.368 2.123-.602 5.367-1.294 8.571-7.328 7.488-12.25-.865-3.91-1.042-6.982 1.005-9.2-6.049.954-9.024 13.496-8.215 16.41.477 1.776.47 3.474-.665 4.07a1.9 1.9 0 01-1.476.117 103.95 103.95 0 001.74-22.564c1.234-2.871 3.59-5.922 4.89-6.725 1.667-1.038.162-1.06-.722-.664-1.304.575-3.063 2.196-4.355 3.64a104.14 104.14 0 00-.485-4.942c.463-.438 1.11-.875 2.203-1.55 5.015-3.09 5.455-10.161 1.916-14.689-2.811-3.589-4.494-6.582-3.421-9.474-5.91 2.98-2.92 16.44-.653 19.061 1.365 1.6 2.188 3.289 1.283 4.267-.33.342-.843.626-1.563.605-1.168-8.225-3.319-15.567-6.095-21.536.156-2.88.98-5.997 1.753-7.125 1.107-1.631-.279-1.04-.934-.314-.818.902-1.648 2.643-2.25 4.289-.829-1.777-1.689-3.519-2.636-5.183.264-.552.702-1.18 1.418-2.15 3.513-4.738 1.302-11.466-3.658-14.352-3.948-2.276-6.622-4.435-6.688-7.52-4.385 4.97 3.37 16.356 6.451 17.943 1.861.978 3.249 2.244 2.763 3.482-.176.436-.528.88-1.179 1.134a71.975 71.975 0 00-13.56-16.366c-1.402-2.868-2.16-6.919-1.881-8.484.345-1.943-.682-.834-.977.099-.446 1.378-.425 3.835-.205 5.78a74.423 74.423 0 00-5.265-3.841c-.03-.689.096-1.492.389-2.901 1.206-5.78-3.605-10.962-9.317-11.494-4.53-.415-7.857-1.244-9.216-4.018-1.902 6.362 9.898 13.435 13.358 13.583 2.102.1 3.883.663 3.967 1.99.03.547-.154 1.198-.848 1.759-4.692-2.958-9.498-5.265-14.156-6.868-3.377-1.156-7.102-4.096-7.93-7.448-.213-.835-.893-.623-.893.063 0 1.672 1.04 3.61 1.664 5.146-2.335-2.075-5.885-5.805-6.894-7.46-1.587-2.656-6.486-4.915-9.929-4.383.133 2.389 2.119 5.444 4.105 6.508-2.907 0-5.822.133-8.598 1.861 1.717.932 4.368 2.656 6.616 4.515 2.189 1.806 8.627 3.221 15.071.007.107.425.136.788.037 1.068 7.61 2.064 14.097 4.907 20.297 8.903-.767 1.44-4.258 2.354-5.582.4-3.908-5.745-9.951-8.2-14.598-5.745-1.773.929-3.314 1.294-5.427 1.612 2.113 2.122 7.337 2.073 9.753 4.978 3.054 3.72 9.523 4.765 12.61 3.636 2.37-.832 2.73-3.427 4.006-4.388a81.931 81.931 0 015.708 4.14c-1.579-.046-3.666.381-5.25.913-2.11.717-1.483 1.344.28.894 1.483-.383 4.309-.812 8.106.813 5.106 4.503 9.427 10.105 12.926 16.284-1.27 1.027-4.883.393-5.268-1.961-1.148-6.864-5.603-11.631-10.856-11.36-1.994.102-3.544-.216-5.593-.818 1.026 2.818 5.78 4.969 6.764 8.62 1.226 4.667 6.655 8.338 9.926 8.605 2.504.242 3.915-1.962 5.478-2.293a78.955 78.955 0 013.206 6.474c-1.402-.822-3.746-1.397-5.597-1.582-2.223-.222-1.908.612-.108.932 1.527.267 4.375 1.077 7.218 4.267a89.82 89.82 0 015.19 19.79c-1.63.182-4.351-1.655-3.874-3.847 1.475-6.795-.895-12.886-5.87-14.59-1.887-.648-3.21-1.52-4.898-2.846-.076 3.001 3.533 6.766 3.09 10.524-.587 4.788 3.096 10.224 6.03 11.693 2.104 1.082 4.098-.187 5.64-.12 1.283 9.629.994 20.565-1.227 31.385-1.34-.47-2.632-2.615-1.494-4.316 3.767-5.632 4.075-11.608.579-14.355-1.333-1.047-2.11-2.149-3.008-3.743-1.185 2.636.406 6.864-1.361 10.072-2.282 4.08-1.249 9.803.639 11.837 1.263 1.403 3.243.929 4.502 1.253a91.534 91.534 0 01-1.48 5.92c-.522-1.34-1.366-2.82-2.189-3.948-1.32-1.808-1.732-1.015-.763.54.763 1.233 1.942 3.653 1.711 7.433-2.078 6.193-4.854 12.188-8.397 17.693-1.478-.702-2.458-4.248-.516-5.622 5.669-3.996 8.044-10.09 5.532-14.72-.958-1.761-1.337-3.302-1.68-5.422-2.087 2.15-1.968 7.38-4.832 9.842-3.658 3.124-4.618 9.629-3.452 12.7.862 2.38 3.48 2.7 4.443 3.99a68.408 68.408 0 01-4.099 5.539c.046-1.547-.292-3.498-.747-5.01-.647-2.147-1.294-1.535-.892.252.315 1.422.63 4.088-.848 7.583-3.867 4.184-8.243 7.888-12.95 11.074-.7-1.483-.418-4.2 1.47-4.883 6.52-2.358 10.404-7.605 9.2-12.738-.463-1.956-.426-3.54-.209-5.68-2.577 1.528-3.834 6.602-7.24 8.225-4.355 2.044-6.979 8.067-6.655 11.336.167 2.048 1.797 3.091 2.722 4.207a77.167 77.167 0 01-4.8 2.966c.403-1.158.71-2.46.865-3.584.316-2.221-.528-1.94-.925-.148-.24 1.163-.837 3.081-2.563 5.134-6.83 3.53-14.031 6.043-21.133 7.416.254-1.56 1.536-3.377 3.304-3.235 6.903.567 12.609-2.595 13.628-7.768.391-1.963 1.081-3.4 2.168-5.247-2.982.313-6.219 4.413-9.994 4.466-4.802.052-9.679 4.44-10.743 7.55-.621 1.69.104 3.14.55 4.413z" fill="none" stroke="#000" stroke-width=".339"/></svg>