<svg xmlns="http://www.w3.org/2000/svg" version="1.0" width="750" height="500"><path font-size="12" fill="#bf0a30" fill-rule="evenodd" d="M0 .043h750v250.065H0z"/><path font-size="12" fill="#fff" fill-rule="evenodd" d="M0 250.169h750v249.828H0z"/><path font-size="12" fill="#002868" fill-rule="evenodd" d="M0 0h250.031v500H0z"/><path d="M37.395 117.308c-15.631 8.729-18.465 12.37-27.032 19.063l18.998.398c-.226 1.77-4.374 23.795-4.767 25.35 14.303-9.505 21.09-13.862 40.604-19.36 7.754-2.152-.61-10.03-1.417-12.126-5.301 2.393-9.377 5.234-13.285 8.716" font-size="12" fill="#ffca00" fill-rule="evenodd" stroke="#002868"/><path d="M50.749 139.165c29.139-26.694 125.557-26.056 152.411.824.867-.311 18.24-29.62 17.374-29.31-52.724-36.934-147.195-30.607-186.845-1.458l.47 1.74 16.59 28.204z" font-size="12" fill="#ffca00" fill-rule="evenodd" stroke="#002868"/><path d="M55.757 127.582c-.145-.381-8.472-15.89-8.472-15.89l13.63 12.013-3.171-17.552 8.927 15.019m38.522-20.378c.06-4.74 3.86-5.06 6.475-4.24 1.534 1.17 2.34 4.984.5 7.158l-3.692 3.147c-1.276 1.596-2.69 3.418-2.598 5.425l8.342-.319m6.115-16.234c-1.523.745-2.036 1.922-2.39 3.666-.227 2.006-.125 6.748.285 8.708.365 1.46.728 2.417 1.824 3.374 1.276.73 2.69.593 3.465.092 1.048-.593 1.778-1.824 2.143-3.284.592-1.869.547-7.34.136-9.346-.38-1.337-.851-2.4-1.915-3.192-1.277-.547-2.773-.428-3.548-.018zm39.841 4.555c1.588-.663 2.795-1.475 4.119-3.03l-2.344 16.511m10.424-14.326c.19.072 7.93 2.322 7.93 2.322-3.774 4.716-6.868 8.904-9.39 14.228m16.151-12.436l7.672 3.784c-4.555 3.256-8.3 7.352-11.615 12.143m23.394-6.002l-5.025-2.946-4.444 6.018c3.192-.63 5.337.335 6.255 3.232.563 4.267-1.994 6.703-4.758 6.779-2.908-.066-4.41-1.663-4.819-5.015m-122.788-2.525s.485-17.925.667-17.905c.079-.726 10.121 14.861 10.121 14.861h0m-10.459-3.341l6.823-2.008" font-size="12" fill="none" stroke="#002868" stroke-width="3.125" stroke-linecap="round" stroke-linejoin="round"/><path d="M31.439 288.139l9.968.134-.315-43.188L60.2 288.501l10.373-.001v-63.524l-10.125.136.154 40.163-17.86-39.983-11.15.135-.153 62.712zm182.192-43.008h10.617l-.128-5.597c-.3-3.616-1.667-8.197-5.234-11.585-2.374-2.642-5.185-4.135-8.83-5.131-3.095-1.215-10.674-.857-14.52 1.295-4.55 2.54-8.391 7.07-10.956 14.37-3.364 12.291-1.844 27.682.288 34.925 2.538 7.676 6.52 11.773 11.82 14.357 3.299 1.108 9.054 1.954 14.439.495 5.866-2.219 8.548-6.07 10.877-10.18 1.415-2.78 3.038-8.111 2.755-14.02l-11.078.135c.008 2.162-.43 4.658-.98 6.82-1.254 3.022-3.19 5.045-8.002 5.044-3.226-.003-5.406-1.331-7.211-3.712-2.437-2.352-3.075-7.617-3.238-9.106-.734-6.72-.755-13.375 1.182-20.387.738-2.834 2.205-5.455 4.123-6.732 3.11-1.685 6.327-1.435 8.146-.904 2.388.738 4.591 2.522 5.28 4.886.534 2.222.619 3.573.65 5.027z" font-size="12" fill="#ffca00" fill-rule="evenodd"/><path d="M151.997 290.224l-23.8-18.494-24.425 18.38 9.679-28.785-24.764-18.222 29.78.705 9.122-29.642 8.726 29.22 30.401-.097-24.387 17.354 9.668 29.582z" font-size="12" fill="#fff" fill-rule="evenodd"/><path d="M50.758 139.27s0 0 0 0" fill="none" stroke="#000" stroke-width="1pt"/><path d="M50.831 139.181c1.049 1.072 3.12.806 5.98.264 2.283-.276 4.885-.38 6.932-.617 3.388.277 5.33 1.07 3.937 2.677" fill="none" stroke="#002868"/><path d="M216.645 118.25c15.63 8.73 18.465 12.37 27.032 19.064l-18.998.397c.226 1.77 4.373 23.796 4.767 25.35-14.303-9.504-21.09-13.861-40.604-19.359-7.754-2.153.89-10.17 1.696-12.266 5.302 2.393 9.798 5.234 13.006 8.855" font-size="12" fill="#ffca00" fill-rule="evenodd" stroke="#002868"/><path d="M203.281 140.212s0 0 0 0" fill="none" stroke="#000" stroke-width="1pt"/><path d="M202.985 140.124c-1.755.81-3.566.452-5.758.263-2.079-.302-4.438-.657-6.774-.735-3.915.027-5.33 1.661-4.094 2.796" fill="none" stroke="#002868"/><path d="M129.374 101.868c3.026.056 5.953.175 5.953.175m3.34-4.129l-.353 14.423m6.631.653c.844-10.352-.511-10.72-5.512-10.698" font-size="12" fill="none" stroke="#002868" stroke-width="2.25" stroke-linecap="round" stroke-linejoin="round"/><path d="M131.734 97.392l-.222 11.989c-.033 2.274.675 2.922 2.654 2.922" fill="none" stroke="#002868" stroke-width="2.25" stroke-linecap="round" stroke-linejoin="round"/><path d="M80.6 98.96l7.412 7.518 1.338 8.164m2.898-18.266l-4.061 10.462" font-size="12" fill="none" stroke="#002868" stroke-width="3.125" stroke-linecap="round" stroke-linejoin="round"/><path d="M38.025 387.45c-15.631-8.535-18.465-12.095-27.032-18.64l18.998-.39c-.226-1.73-4.374-23.268-4.767-24.788 14.303 9.294 21.09 13.555 40.604 18.93 7.753 2.106-.61 9.81-1.417 11.858-5.301-2.34-9.378-5.118-13.285-8.522" font-size="12" fill="#ffca00" fill-rule="evenodd" stroke="#002868"/><path d="M51.379 366.078c29.139 26.103 125.557 25.479 152.411-.807.867.305 18.24 28.966 17.374 28.661-52.724 36.118-147.195 29.93-186.845 1.427l.47-1.701 16.59-27.58z" font-size="12" fill="#ffca00" fill-rule="evenodd" stroke="#002868"/><path d="M50.758 366.29s0 0 0 0" fill="none" stroke="#000" stroke-width="1.318"/><path d="M51.461 366.062c1.048-1.049 3.12-.788 5.98-.258 2.283.27 4.885.372 6.932.603 3.388-.27 5.33-1.046 3.937-2.618" fill="none" stroke="#002868"/><path d="M217.274 386.529c15.63-8.536 18.465-12.095 27.032-18.641l-18.998-.389c.226-1.73 4.373-23.269 4.767-24.789-14.303 9.294-21.09 13.555-40.604 18.93-7.754 2.106.89 9.946 1.696 11.995 5.302-2.34 9.798-5.118 13.006-8.659" font-size="12" fill="#ffca00" fill-rule="evenodd" stroke="#002868"/><path d="M203.281 365.368s0 0 0 0" fill="none" stroke="#000" stroke-width="1.318"/><path d="M203.615 365.14c-1.755-.793-3.566-.442-5.758-.258-2.079.296-4.439.643-6.774.72-3.915-.027-5.33-1.625-4.094-2.735" fill="none" stroke="#002868"/><path d="M126.723 400.31c1.256-4.308 4.116-3.78 6.667-3.19 2.048 1.405 2.341 5.235.385 7.464l-3.59 2.734c-1.518 1.008-3.025 2.879-2.968 4.97l8.694-.172m-17.966-12.389c1.575-.856 1.953-1.195 3.16-2.947l-.674 15.576" font-size="12" fill="none" stroke="#002868" stroke-width="3.125" stroke-linecap="round" stroke-linejoin="round"/><path d="M98.77 392.876c-.002.095-2.65 16.27-2.763 16.93l8.423 1.191" font-size="12" fill="none" stroke="#002868" stroke-width="3.125" stroke-linecap="round"/><path d="M88.88 408.944l2.593-17.643" font-size="12" fill="none" stroke="#002868" stroke-width="3.125" stroke-linecap="round" stroke-linejoin="round"/><path d="M58.79 399.694l6.426-16.316c1.925.965 4.405 1.346 6.544 3.254 1.389 2.309.749 7.045-3.23 7.494-2.193-.292-4.025-1.354-5.948-2.225" font-size="12" fill="none" stroke="#002868" stroke-width="3.125" stroke-linecap="round"/><path d="M163.908 396.39c1.271-1.235 2.136-2.48 2.862-4.51l3.286 17.318" font-size="12" fill="none" stroke="#002868" stroke-width="3.084" stroke-linecap="round" stroke-linejoin="round"/><path d="M171.324 391.407c.205-.053 8.411-2.923 8.411-2.923-.377 6.28-.494 12.308.291 17.882M184.045 387l8.414-3.294c-.362 6.368-.756 13.148.414 17.925m11.164-21.227c-.96-1.59-2.43-2.175-4.494-1.632-1.914 1.68-2.27 3.004-2.405 5.047.078 2.531.775 5.03 1.925 7.264.788 2.083 2.493 3.57 3.778 3.896 1.454.536 2.543.4 3.71-.61.89-1.122 1.294-3.007 1.212-4.427-.277-1.885-1.128-3.593-3.05-4.593-1.487-.61-2.101-.734-3.444-.163-2.04 1.204-2.41 3.435-2.107 5.709" font-size="12" fill="none" stroke="#002868" stroke-width="3.125" stroke-linecap="round" stroke-linejoin="round"/><path d="M138.002 401.708c3.023-.14 5.952-.21 5.952-.21" font-size="12" fill="none" stroke="#002868" stroke-width="2.25" stroke-linecap="round" stroke-linejoin="round"/><path d="M140.068 397.088l.552 11.978c.114 2.272.862 2.873 2.837 2.745" fill="none" stroke="#002868" stroke-width="2.25" stroke-linecap="round" stroke-linejoin="round"/><path d="M145.93 396.963l1.661 14.331m6.659-.276c-.608-10.369-2-10.546-6.95-9.826" font-size="12" fill="none" stroke="#002868" stroke-width="2.25" stroke-linecap="round" stroke-linejoin="round"/><path d="M43.758 392.41s12.875-13.532 13.001-13.39c.567-.507-2.53 18.558-2.53 18.558h0m-5.764-9.88l6.68 3.205" font-size="12" fill="none" stroke="#002868" stroke-width="3.125" stroke-linecap="round" stroke-linejoin="round"/><path d="M72.802 405.544c-.002-.095 4.686-17.506 4.686-17.506 2.008.487 4.106.782 6.023 1.463 1.342.44 3.38 2.099 2.592 4.779-.37 1.625-1.125 3.07-2.275 3.953" font-size="12" fill="none" stroke="#002868" stroke-width="3.125" stroke-linecap="round"/><path d="M75.424 396.546l6.408 1.643c1.726.621 2.144 2.131 2.147 2.226.32 1.417-.76 7.525-.76 7.525" font-size="12" fill="none" stroke="#002868" stroke-width="3.125" stroke-linecap="round" stroke-linejoin="round"/></svg>