<svg xmlns="http://www.w3.org/2000/svg" version="1.0" width="675" height="450"><path d="M0 450h675V0H0v450z" fill="#0073cf"/><path d="M374.385 234.32h.318-.318" fill="#9a3b26"/><path d="M291.953 79.826c-.354.336-.654.828-1.17.51.138-8.34-3.468-15.198-7.59-21.78-.45-.894-1.728-1.584-2.622-1.83 1.884 5.334.51 10.11 1.44 15.456.066.186.45.504 0 .69-.774-1.578-1.674-3.102-2.19-4.812-.906-1.584-2.442-2.85-4.038-3.726-2.544-1.128-4.278-3.354-6.642-4.926-.936-.198-1.704-1.368-2.538-1.524l-1.284.036-.204 1.182c.036.492.246 1.02.21 1.47 3.15 4.698 7.95 8.094 9.828 13.5-1.08-.12-1.98-1.254-3.318-1.128-.318.012-.378.39-.312.642.84 2.22 2.442 4.248 3.096 6.414-5.556-2.838-3.888-10.362-9.126-13.572-.768-.318-1.35-1.896-2.304-1.38.714 1.524 1.038 3.102 1.56 4.698.516 1.278.462 2.226.786 3.564l-.192-.258c-1.914-.438-3.258-2.148-5.172-2.454l-.378.318c3.456 3.294 5.328 7.416 7.644 11.286 1.62 4.254 3.306 8.568 7.08 11.79-.564.738-1.29 1.344-1.806 2.016l-1.41 1.428c-1.05-.666-2.118-1.326-3.204-1.806-.702-.246-.696.576-.69 1.02l2.292 3.354-.978.702-.096.12-.6.606c-4.188 5.73-7.626 11.004-9.762 17.628-.702-.132-1.788-.696-2.166.012-1.212 1.488-.336 2.976.57 4.392l-.786 1.392c-.294-.522-.66-1.008-1.218-1.332-2.664 1.356-.294 4.02-.216 5.856-2.256 5.742-3.552 12.12-4.344 18.18-1.2 1.404-2.844 2.808-3.534 4.662l.126.126c-.378.576-.564 1.278-.678 1.986-.756.96-2.478.51-3.882.78-.948.258-.432 1.212-.558 1.842.708 1.278 2.04.378 3.186.81l.828.114c-.108 2.172-2.598 1.806-3.99 2.394-1.464.516-3.372.27-4.452 1.302.51.174.708.756 1.026 1.134.39 1.338-1.26 1.782-1.824 2.868.078 2.556-.036 4.656.174 7.266.57.438.126.954-.12 1.458-.114 2.538-.606 5.034-.396 7.578-.126.702.636.378.894.762l.048 7.128c.258.57.822.246 1.14.564-.798 3.312.684 6.936.198 10.566.258.432.768.318 1.02.624-.3 1.278-1.128 2.496-1.176 3.702-.234 3.504-.846 7.392-.762 10.884l.258.258c.192.192.384-.066.576.06-.066.186.066.39-.126.504-.99 4.02.942 7.77.198 12.036.39.702 1.47.432 2.166.432-.366.762-.618 1.656-1.386 2.172-1.89 2.55-.156 4.968-.714 7.896l.9.432c0 .444-.444.648-.444 1.092.396 1.782.474 4.38 2.202 5.778.96.114.888-1.02 1.392-1.608.06-1.008.558-1.968.87-2.988 2.532-1.992 2.262-4.602 2.37-7.524-.39-1.968 1.188-3.642 1.302-5.742-.27-2.226 1.368-3.948 1.674-6.114-.708-2.226 1.314-3.708 1.11-5.73-1.992-3.108 1.362-6.06-.252-9.18 1.524-1.02.876-2.544 1.314-4.02 1.194-2.352-1.488-3.666.534-5.844 1.578-2.052-.486-6.048 2.814-7.338l1.158 1.266.126-.138.45.444c1.62 5.214 4.074 10.29 6.654 15.234 2.448 4.956 6.168 9.444 9.258 14.13-2.28 2.382-4.62 5.064-7.086 7.242-1.734-2.586-2.454-5.832-4.698-8.304l-.126.126-.258-.246c-1.596-.504-3.312-.048-4.578 1.302-1.584.96-2.274 2.364-3.03 4.032-1.44 3.63 3.348 5.13 4.824 7.086.702.576 2.1.624 2.106 1.584-2.826 5.04-8.154 8.448-11.88 12.798-2.46 3.396-7.536 6.42-8.016 10.944.132.702.9 1.14 1.47.75 8.808-5.904 15.822-13.782 24.048-21.48.384-.258.45.576.768.12.51.51 1.272.504 1.968.444.126-.834-.138-1.782-.456-2.616 2.652-2.814 6.45-5.574 9.552-8.4-.234 2.238-1.302 4.344-1.986 6.504-.756 1.278-2.154 1.416-3.234 2.13-1.08.318-1.98-.63-2.868-.234-.948 1.02-.174 2.472.15 3.564-.57.762-1.464-.12-2.16.33-1.716.84-1.002 2.868-1.5 4.266.384.642 1.02.948 1.662 1.146-.252 1.008-.372 2.028-.81 2.988-.438.96-1.71 1.536-1.698 2.742.774 2.1-.42 4.092-.282 6.186l.45.696c.45.054 1.53-.144 2.034-.27.264 1.464-1.194 1.98-2.148 2.562-1.32 2.484-.468 5.724-.834 8.334-.18 1.404-.234 3.444.474 4.266-.126 1.02-1.2 2.166-.426 3.186.138 1.914.918 4.644.486 6.684.012 1.134-.678 3.444.6 4.062-.048 2.616.606 4.584.366 7.128 1.47 1.134-.366 2.682.276 3.876.132.576.582.834 1.026 1.14-.492 2.04-.606 4.332.606 6.114-.108 1.902.978 3.624 1.626 5.334.954-.39.948-1.662 1.26-2.484 1.956-2.25 3.078-5.814 1.914-8.862 2.28-1.734 1.308-4.722 1.164-7.02 1.074-1.836.87-3.888.792-6.042 1.068-1.728.87-3.06.54-4.974 1.512-2.238.726-4.896 1.92-7.332.564-1.02-.774-2.028.174-2.988 1.266-.33 1.26-1.854.996-2.742-.654-2.862.348-5.664-.054-8.718a22.326 22.326 0 001.686-5.04c.564-1.524-.594-3.048-.348-4.584.51-.516.558-2.04 1.836-1.476.894.06.696-1.092.564-1.596-.84-1.782 1.002-2.868.546-4.524-.912-2.538-3.342-4.5-4.056-7.158.558-1.794 1.122-3.576 1.68-5.424.228.126.42.444.618.654l.51.984a3.619 3.619 0 00-.408.906c1.104 3.234 4.902.594 6.384 3.516-.312.252-.312.768-.312 1.026.264 1.524 1.926 2.016 3.138 2.394 1.086.576 2.22-.774 2.868.678 3.702 1.956 7.224 4.92 10.986 6.87v.258c-.054.186-.306.066-.564.126-.12.762-1.008 1.35-1.578 1.854-1.338-.366-2.556-1.2-4.146-1.056-.06.456.258.642.138 1.08.318.702 1.086 1.206 1.722 1.464 1.146.246 2.61.102 3.432-.342-.378.894-.624 1.842-1.128 2.742-1.764 2.298-4.302 4.218-7.29 4.374.066.702-.114 1.464-.234 2.166.132.822.768 1.02 1.398 1.266.324.564-.048 1.266-.108 1.71-.18 1.536-.804 3.39 1.044 4.266.192 1.008-.69 1.596-.552 2.616.066.69.768.876 1.152 1.26.126.252-.126.378-.186.576.456 2.226-.606 4.584 1.374 6.294-1.584 1.218.276 3.108-.606 4.452-.06.702.954.378.768 1.14-.69.774-.492 1.92-.552 3 1.602 1.512-.486 3.558-.408 5.472 1.476 2.544 1.566 6.162.756 8.844-.06.762.894.45 1.152.696.06.186-.126.186-.258.312.018 2.418-1.368 4.782-.522 7.326 1.302 4.512.066 10.314 3.402 14.112.57-.132 1.074-.516 1.392-1.032 1.506-3.192 2.058-6.246 2.676-9.564 1.77-1.536 1.818-3.888 2.118-5.874-.018-3.102.918-6.102.9-9.348 1.374-3.588 2.682-8.166.936-11.916-.444-.246-.768-.696-.834-1.14.882-1.98 1.752-4.98.528-7.254-.324-.642.318-.384.696-.588.444-.186.762-.63.822-1.146.12-.702.312-1.278-.27-1.842-1.29-3.234 1.362-6.126.768-9.234-2.496-2.472.348-5.484-.75-8.532-.708-1.26-2.166-.3-3.192-.864-2.616-1.254-.408-4.254-.612-6.162l1.02.174c3.516 2.646 8.1 2.742 12.246 3.864.516.318 1.47.306 1.536 1.14.642.762 1.218 1.008 2.046 1.008 1.392.174 2.334-1.806 3.552-.972.954-.198 1.02.816 1.602 1.38 1.272.822 2.988-.024 4.26-.726l.528 1.596c-.264 1.722-.15 3.48-.294 5.154l-.192.246c-1.404-.306-2.49-1.626-3.456-2.706-1.272.384-1.326 1.536-2.082 2.424-.054.894.966 1.842 1.668 2.472-.252.192-.636.258-.822.27-1.206.834-3.186.198-4.134 1.362.078 2.34-.288 4.266.426 6.42.576.576 1.206-.072 1.782-.198.324.948.456 1.968.402 3.048-3.558 1.23-.864 4.392-1.806 6.762-.684 1.908 1.602 1.38 2.304 1.512-.69 1.332.216 3.816-2.01 4.464-.57.444-.372 1.206-.372 1.98.072 1.008 1.344.876 1.86 1.194-.75 2.166-.864 4.842-1.23 6.822 0 .702.702.75 1.026 1.134-.312 1.092-.432 2.676-.168 3.882-1.452 1.602-1.182 4.218-.792 5.742.066.372.318.246.576.432-.18.186-.054.576-.114.834-.564 1.848-1.44 3.63.408 5.142-.492 2.112-.858 4.536-.972 6.504.456 2.484 2.004 4.902.942 7.572-.612 3.948 1.632 7.5 1.656 11.58 1.722.042 1.836-2.052 2.526-3.33.75-2.358 1.752-4.524 1.866-7.14-.084-3.054 1.62-5.67 2.94-8.292.942-1.482.678-3.378.54-5.028.942-1.41.996-3.318 1.242-4.914-.006-.57-.582-.948-.264-1.524 1.632-2.88 1.548-6.762 1.776-10.194 1.26-2.238.918-5.298 1.092-7.782 1.248-3.444 1.098-7.194 1.524-10.77-.138-1.134-1.794-2.526.108-3.246.366-2.094 1.242-4.71.078-6.75l1.14-1.392c.312-.834-.456-1.464-.714-2.166-1.344-1.386-2.502-3.096-3.342-4.878-.642-.888-1.848-.114-2.418-.822.168-2.472.096-3.876.078-6.48l-.258-.516c2.676-.138 5.664-.162 7.956-.492 7.638.216 15.78-.996 23.34-3.774.576.882 1.782.306 2.484.426.006 1.404-.3 2.742-.546 4.146-.126.186-.444.318-.318.636-1.644 1.158-1.794-1.644-3.132-2.016-.822.516-1.134 1.464-1.446 2.298-.252.888-1.326 2.106-.294 2.868-.696.576-1.59.516-2.286.846-1.02.372-.822 1.206-.69 2.04.132.69 1.026.876 1.344 1.26-.504.576-1.398.204-1.902.774-.432 2.544.09 4.458.612 6.87.132.822 1.092 1.968-.234 2.286-.948 1.086-.618 2.742-.168 3.816.636.192 1.146-.252 1.722.192-.504.702-.882 1.464-1.26 2.238-.354 4.194 1.074 8.448 1.098 12.654l1.464.12c-.558 1.524-1.638 2.796-1.56 4.59 1.482 3.048 1.698 6.858.768 10.176.324 1.206.33 2.538.468 3.816.132.696.636.12 1.014.438l.156 4.32c.198 1.152.018 2.688 1.038 3.246l-.312.45c-.294 3.186-.342 5.856-.258 9.288-.054.576.39 1.338 1.026 1.02 1.014-.516 2.154-1.548 2.142-2.754.06-.96.24-2.094.684-3.114l-.132-.132c2.028-1.992 2.328-4.848 2.568-6.96.294-3.492 1.296-6.564 2.034-10.008-.474-4.266 1.668-8.214.684-12.348 1.458-1.482.864-3.378 2.07-4.98.366-1.842-.534-3.81.408-5.604.24-1.722-.912-3.048-1.044-4.452.804-2.616-1.938-4.374-1.89-6.726 1.206-.774 3.12.042 3.876-1.434.18-.888-.33-1.71-.462-2.598.378-.318.822-.39 1.266-.516 1.59-.33-.012-1.668.684-2.298l-.252.258-1.86-2.532c-.45-.702.438-1.278.114-1.908-1.794-2.16-3.084-4.758-3.804-7.434-1.98-.936-1.488-3.492-1.434-4.956 2.682 1.068 5.994 1.116 8.73 1.35 3.564-.402 5.628 3.468 9.312 2.226.954.12 2.28-.642 3.426-.714.9 1.71 1.806 3.42 2.772 5.13-.132.132-.318.204-.444.258.006 1.278-.042 3.378-.48 4.464-.312.834.012 2.1 1.092 2.406-1.134 1.218-.864 3.126-1.362 4.722.066.762.828.06 1.272.444-2.274 1.662-1.11 5.028-2.688 7.08-.438.96.198 1.722.582 2.412-1.254 2.424-.216 4.968.936 7.128-.822 1.074-1.254 2.61-.864 3.876 1.476 1.71-.804 2.94-.54 4.722.714 2.406.732 5.088-.906 7.194-1.134 1.596.72 2.862.408 4.386-.876 2.298 1.17 4.068.486 6.36-.054 1.212 1.092 1.842 2.04 1.398 1.08-.642 1.392-1.98 1.386-3-1.296-2.988 3.534-4.548 2.814-7.662-.018-3.234 2.382-5.43 2.808-8.544 1.206-.906 1.896-2.43 1.566-3.774-1.416-3.162 1.428-5.604 1.41-8.46-.42-2.766 1.038-4.656 1.308-7.2l.144-1.086c1.698 1.944 3.03 4.194 4.386 6.27 1.35 2.286 3.468 4.242 4.44 6.654.318.132.312-.258.438-.384 1.932 2.79 4.932 4.044 7.614 5.484 1.2-1.092-.402-2.802-.726-4.128-.132-.702-.9-1.266-.84-1.836-.39-.894-1.47-1.842-1.602-2.604-.39-.69-.9-1.452-1.734-1.638-1.8-3.048-2.904-6.354-4.896-9.33-1.482-2.862-3.726-5.52-4.512-8.568l1.272-.702c-.012-1.98-.09-3.69-1.056-5.412-.258-.624-.9-1.386-.966-2.028.576.312 1.152.948 1.722 1.008 1.08-.516 1.392-1.722 1.704-2.742.372-1.464-1.224-2.418-2.058-3.552.57-.198 1.206-.072 1.842-.144 1.272-.57 1.26-2.034 1.698-3.198-.066-.762-.768-1.134-1.032-1.824 2.718-3.33-2.508-4.83-3.168-8.004.504-.516.828-.462 1.59-.462 1.59-.012.876-2.166 1.38-3.186-.072-1.404-1.728-1.65-2.31-2.79-3.138-2.904.276-6.492-.51-10.182 2.76-1.608 2.532-4.56 1.98-7.452l.69-.42c.108.63.234 1.272.348 1.944.258.504.768.816 1.404.618 1.068-.96 1.032-2.67.762-4.278l.684-.546c.906-1.512 1.848-3.036 2.502-4.68.732-1.824 1.476-3.642 2.208-5.46l.228.636c-.204 2.004.576 4.194.432 6.21.006.816 1.02.75 1.596.876l-1.134 1.464c-1.644 2.31-.036 4.656-1.356 6.894.906 2.286-2.01 4.908.168 6.81-.378.444-1.014.768-1.14 1.344-.438 1.206.72 2.088 1.296 2.976-.06.516-.564 1.152-.882 1.722-1.068 1.722.09 3.378-.09 5.16-.954.96-1.512 2.556-.996 3.702 1.986 1.77.09 4.194.93 6.354-2.274 3.006.804 6.042.948 9.162h.384c1.266-1.536 2.91-3.144 3.276-5.178 1.392-1.596 1.824-3.636 3.084-5.37 2.046 1.068-.768-.822.63-1.404-.654-2.604 1.884-4.152 1.104-6.504.234-3.366 1.998-6.048 3.318-8.988.228-3.504 2.052-7.14 2.286-10.644 2.274-2.622 2.19-6.126 2.73-9.444-.522-3.234.852-6.234.51-9.738 3.042-2.886-.288-6.738 1.404-10.194-.528-2.676.918-5.802.39-8.016l.444-.456c-.39-1.14-1.662-.696-2.616-.81l-2.196-4.89c-.45-.948.246-1.59.69-2.28.12-.588.75-1.536-.144-1.986-.762-.504-1.776-.114-2.28.72-1.71 1.578-1.902-.492-2.484-1.926l-1.362-1.638c-.03-1.524-.594-2.964-1.74-4.104 1.23-6.816-1.23-12.852-1.59-19.206-.012-2.424-1.296-4.452-1.188-6.75.126 0 .252-.06.318.132.57-.192.63-.774.564-1.278-.678-1.644-1.986-2.958-3.462-3.996l-.198-.822c.192-.504-.45-.762-.39-1.266.444-.318 1.212.246 1.524-.456.432-2.418-2.25-3.924-4.032-4.992-.012-1.278-.906-2.172-1.038-3.306-2.706-4.884-5.16-9.9-8.814-14.4 4.044-3.774 7.776-8.064 12.27-11.976 1.134-1.35 2.652-2.568 2.838-4.482-.324-1.416-1.122-2.706-2.04-3.852l.888-.834c.69-.42 1.344-1.182 1.806-1.746-.582-1.134-1.986-2.016-2.76-2.964-1.08.576-2.148 1.608-2.652 2.628-.636-.576-1.284-1.716-2.304-2.028-1.146-.246-2.352-.048-3.18.726-3.264 3.432-7.026 5.904-9.786 9.702l-1.032.42c-1.98-1.134-2.22 1.476-3.552 1.992-.702-1.65-3.114-.36-3.762-2.388l.126-.132c.75-.516.492-1.332-.012-1.908a7.177 7.177 0 00-3.87-.162l-.636-1.02c-.396-.726-1.512-1.188-1.944-1.902-5.178-3.456-10.038-6.864-15.654-9.186-6.324-2.88-12.828-4.818-19.842-6.174l.066-.12c.312-.456.378-.9.246-1.476-.582-1.008-1.59.012-2.418.024-1.332 1.146-3.624.714-5.346.858.57-.708 1.458-1.596 1.128-2.676-2.094.39-4.128 1.044-5.838 2.196-3.186-.294-5.874-.246-8.976-.258-7.572 1.194-15.588 2.13-22.764 4.722-.888.138-4.08 1.23-4.08 1.23-.186-.894-1.062-.612-1.77-1.056-2.412.9-2.388 4.02-4.998 4.608-.774-1.77-1.674-3.492-2.772-5.136-1.218-1.842-3.078-4.122-5.43-3.654-.252.384-.444.828-.186 1.278 1.476 3.222 2.394 6.714 2.712 10.44"/><path d="M418.727 229.586c-.042.426-.018.858.084 1.302 1.656.438 3.696.426 4.704-1.17.12-.642.306-1.35.24-1.908-1.2.408-2.448.762-3.606 1.284l-1.422.492m8.856.966c-.54-.846-.708-1.914-.774-2.766.192.054.384.054.51.186 1.152.63 1.206-.9 1.776-1.35 1.218 1.2-.624 2.298-.744 3.504-.03.282-.114.588-.222.906l-.54-.48" fill="#9a3b26"/><path d="M431.867 215.258c-.816.282-.894 1.782-1.554 2.508-.324-.246-.708-.444-1.026-.69-1.272.126-1.026-.822-1.032-1.842h-.378c-.378.888.588 2.856-.864 3.258-1.32 2.742-4.374 3.138-6.852 3.48-2.436-1.842.288-4.08-.486-6.306 1.26-1.59.42-3.564.666-5.286.18-1.464 1.32-2.61 2.01-3.888-.576-.132-1.332.258-1.722-.378-.132-1.206-.276-3.432-.348-5.028-.054-.468-.282-.984-.21-1.428l-.186-1.356c3.204-7.992 6.144-16.032 7.092-24.942-.33-1.278.822-.774 1.326-1.53.582 1.392.72 3.042.474 4.578-.12 1.206-.942 2.226-1.122 3.246h.378c2.202-2.226 1.476-6.102.72-8.82l-.42-1.704c-.528-1.368-1.656-2.61-.966-4.17l.708.948c.192.636-.048 1.842.648 2.028-.066-.948.24-2.154-.654-2.73l.57-.384.936.864c-.042.612.684 1.068.798 1.662.222 4.914.324 10.818.684 16.488.816-1.404.288-3.312.408-5.022.702.69.834 1.764 1.476 2.4.438-.888-.456-1.71-.78-2.544-.318-.06-.696.144-.822-.174-.084-3.06-.366-7.254-.324-10.314 1.338.69 2.088-1.35 3.36-1.416.708.948-.36 1.968-.804 2.868-.18 1.338.708 2.286 1.038 3.426.642 1.146 1.158 2.28 1.548 3.546.444-.504 1.08-.384 1.782-.258.39 1.266.21 3.18-.036 4.716.726 3.75-1.674 6.504-.312 10.554.582 1.338-.876 2.184-1.254 3.318.594 2.928-1.416 5.94-.384 8.79-.75 2.238-.348 4.464-.972 6.69-1.092-1.194-2.436-2.142-3.588-3.408-.192-.246-.072-1.02-.702-.822.138 1.71 1.098 3.294 1.746 4.944.198.762 1.152 1.206 1.152 2.04a25.16 25.16 0 00-.66 2.076l-1.056.012" fill="#efe8c7"/><path d="M432.767 215.852c-.636 2.556-.972 5.124-2.034 7.77l-.258-.258c-.966-1.134-1.044-3.558-2.886-3.408.006 1.326.084 3.174-.864 4.392-.828-.258-.33-1.59-1.284-1.65-1.242 1.092-2.94 1.944-4.668 2.274l-1.188.432c-.426-.468-.936-.936-.876-1.578.054-.708.63-1.08 1.194-1.41 1.908-.33 3.876-.468 5.526-1.428 1.2-1.35 2.658-2.25 3.156-3.906l1.41 1.008c1.392.33 1.506-1.392 2.022-2.46l.75.234" fill="#9a3b26"/><path d="M419.71 225.56c.355.42.589.864.223 1.44-.576.654-.99 1.416-1.152 2.226l1.362-.612c1.236-.75 2.718-.816 4.056-1.32.198 1.266.012 2.226-.426 3.372-1.524.588-2.79 1.29-4.452.666-.252.504.006 1.02-.114 1.656-.378 1.092-1.644 1.98-1.128 3.318l1.71-1.728c1.662 1.512 3.246.168 5.154.084.45.06.642.894 1.152.444.69-1.218 1.836-1.734 1.698-3.126.048-.15.102-.306.162-.456l-.726-.69c-.966-.954-1.218-2.568-.996-3.612.828-.396 1.086.564 1.722.42.378-.702.69-1.836 1.068-2.166.768.114.33 1.854 1.218 1.134 0-.258-.066-.57.252-.702.054-.444.3-1.134.234-1.836-1.332-.636-1.662-2.346-2.442-3.552-.63.828.198 1.404-.234 2.298-.438.702-.432 1.836-1.452 1.98-.57.054-.768-.576-.96-.954.066-.126-.126-.198-.192-.312-1.614.726-2.94 1.734-4.68 1.758l-1.056.27" fill="#efe8c7"/><path d="M405.737 272.222a15.413 15.413 0 00-2.142-1.896c-.054 1.272.528 2.856 1.296 4.062l-.57.144c.258.3.384.762.834.948.198-.774.36-1.218.414-1.902l.162-1.356" fill="#9a3b26"/><path d="M336.377 301.964c-.234-.33-.45-.654-.762-.96-.894-.186-.06.96-.63 1.278-.444-.318-.576-.894-1.146-.696-.768.204-.504 1.212-.372 1.728.582 1.392 1.74 3.348.984 4.566-.258-.114-.576-.372-.828-.114l-.108 3.306c-.126.126-.252.312-.444.258-.126-.132-.318-.252-.318-.45-.516-.126-.96-.75-1.53-.36.462 2.73 3.522 4.044 3.732 6.84-.114 1.98-1.44 3.516-2.514 5.052-1.146-.384-1.344-1.782-2.424-2.286-.888.972-.624 2.43-.174 3.45.912 2.472-.024 5.976-1.344 8.28-.9-1.524-.09-3.816-1.182-5.154l-1.14.9c.192-.63.054-1.776.558-2.484l.384.192c.45.258 1.02.114 1.332-.33.372-1.968-.594-4.14-.798-6.048-.516-.75-1.284-1.326-2.112-1.38.306-1.782.168-3.366 1.116-4.914 1.398-.516 2.79-1.29 3.87-2.304.246-.834 1.068-1.596.552-2.556-1.782-.048-3.93 2.766-5.214.294.114-.516-.012-1.47.882-1.278 1.392-1.29 3.03-2.826 4.23-4.422-1.152-1.65-3.438.27-4.842-1.296-.012-1.596-.336-3.132.414-4.47a1.258 1.258 0 01-1.146-.372c.108-2.484.666-5.04 1.224-7.452-.642-.132-1.404-.06-1.854-.696-.9-2.538 2.724-2.562 2.07-5.166.312-.63-.324-1.908 1.002-2.04.696-.384 1.392-1.086 1.326-1.848-1.074 1.206-2.526 2.424-4.188 2.118l-.414-5.976c.57-.642 1.458-1.29 2.082-1.86-.126-1.212-.132-2.358-.462-3.624-.702-.06-.948.9-1.716.576-.51-.504-.072-1.266-.522-1.698-.066-1.224-.336-3.378.228-4.596 1.59-.27 3.36-.846 5.022-1.302-.516-.888-1.86-1.584-1.866-2.718.378-.702.756-1.476 1.392-1.992 1.086 1.206 2.298 2.85 4.152 2.388.36-1.518.03-3.864.234-5.766l.024-1.146c.708.12 1.458.132 2.172.222.066.258-.252.186-.312.378-.114 1.332.27 3.054.15 4.206.786 3.102-1.554 5.484-.9 8.4-.102 2.484 1.998 4.128 2.718 6.282l.444-.258c-.39-1.266-1.164-2.34-1.998-3.408-.324-1.536-.84-2.742-.468-4.464.048-1.212.294-2.484.546-3.438.888.246 2.034-.078 2.424.996.27 2.172 2.694 3.366 3.474 5.262.828.894-.57 1.164-.882 1.722-.57.588.072 1.278.204 1.854.264 1.908.348 4.77-1.302 6.048-.438 1.146.714 1.908.786 2.988-.432 2.742-.918 5.61-.84 8.346-.57.702-.312 1.272-.684 1.98-.582-.822-.774-1.842-1.158-2.73-.39-.696-.774-1.584-1.476-1.962-.372 1.914.156 4.512.486 6.672l-.252.198c-.45 0-.768-.186-1.152-.306-.006-.96-.834-1.842-1.032-2.856h-.318c-.06.828.396 2.226 1.35 2.73l-.186.444c.516 1.452 1.23 2.844 1.62 4.38 1.602 1.188.66 2.946.726 4.572l-.894.282" fill="#efe8c7"/><path d="M335.975 302.246a.669.669 0 00-.228-.108c-.126.258-.12.702-.564.714-.636.132-.576-.57-1.026-.816-.564 1.134.588 2.214.846 3.3.264.822.462 1.902.21 2.664l-.444.33c-.066-.192-.318-.06-.444-.132-.12 1.02-.18 2.166-.234 3.246-.312.774-1.02.27-1.464.072-.132-.318-.45-.438-.702-.564l-.126.126c.834 1.338 1.668 2.664 2.886 3.798.942-1.782 1.566-4.206.786-6.114 1.56-1.41 1.242-3.726 1.656-5.706l-1.152-.81" fill="#9a3b26"/><path d="M245.657 157.298c.054-.708-.018-1.362.03-2.064-1.278-.186-2.418.33-3.69.468-.192.318-.06.834-.12 1.146.9 1.008 2.166-.012 3.252.486l.528-.036" fill="#efe8c7"/><path d="M427.99 169.364c-.245-.348-.45-.786-.605-1.17-.522-1.584-1.296-2.976-2.448-4.242-.576 0-1.092-1.206-1.854-1.266-.384.072-.894-.114-1.146.39.33 1.464 1.608 2.598 2.316 3.996 1.098 1.578 1.488 3.618 3.282 4.884.57-.138.312-.9.18-1.278-.192-.318-.51-.576-.45-1.02.48 0 .564.648.924.858l-.198-1.152m-170.964-45.312c.24.372.462.75.624 1.122.96.948.648 1.71.21 2.862-.912-.612-1.266-1.668-1.722-2.64l.888-1.344m22.812 105.114c-.78-.96-1.704-1.92-2.568-2.844.636-.318 1.074-.834 1.644-1.41 1.602 1.584 2.886 2.976 4.674 4.362-.822.27-2.412.396-3.048.336l-.702-.444" fill="#9a3b26"/><path d="M414.035 209.408c-.132-.678-.294-1.326-.402-1.848 5.4-10.854 8.256-22.458 10.536-34.446.246-1.206.426-2.61.804-3.69 2.868 2.088.792 4.83.876 7.572-1.176 5.154-2.034 10.194-4.044 14.79-.246 1.218-1.254 2.742-1.38 3.702-2.34 4.368-3.33 9.36-5.916 13.524l-.474.396m4.362-82.65c.81.372 1.662.822 2.478 1.332l-.084-.876.174.024c-.204-.636.066-1.56-.984-1.644-.708-.63-1.728-1.008-2.622-1.452-.102.492.114 1.02.414 1.476l.624 1.128" fill="#9a3b26"/><path d="M403.133 89.576c3.072 4.86 2.31 11.13 2.52 16.05 5.376-5.754 11.01-11.07 16.512-16.578.756-1.032 1.386-1.926.798-3.258l-.252-.192-.126.132c-.654-2.928-3.654-4.5-5.388-6.972-.96-.564-1.596-.432-2.55-.108-3.51 3.12-7.746 6.306-10.704 10.302l-.81.624m19.002-7.758c.486-.564 1.326-.87 1.56-1.644-.576-.876-1.536-1.44-2.304-2.142-.888.714-1.578 1.476-2.022 2.424.606.63 1.29 1.326 1.938 2.076l.828-.714" fill="#efe8c7"/><path d="M388.03 88.016c-.125.09-.251.186-.371.294-.066 0-.132-.072-.132-.192-.06.06-.06.12-.186.12l.006 1.218c1.848.552 4.578-.858 5.166 1.62-.51.258-.444.702-.564 1.146.708 1.584 2.16.174 3.438.294l2.43 1.71-.126.576c-2.154 1.404-4.05 3.582-5.946 5.304-.888.774-1.962 2.052-3.432 1.362-.51-.174 0-.564-.006-.888-.264-1.656.552-3.12-.216-4.704-1.59-.558-3.822-.678-5.988-.666-.186.834-.558 1.662-.558 2.298-.246 1.146-.366 2.298-.804 3.372l-5.028.036c-.69 1.596-.486 3.822-.54 5.472.384.318 1.278.636 1.722.318.642.504 2.358-.024 3.12.48.204 1.278-.486 3.132.474 3.882-9.612 9.864-19.992 19.476-29.346 29.598h-.384c-.462-2.67-.546-6.306-.822-8.778-.576-.372-.072-1.536-1.086-1.266-1.392 1.608-1.764 3.576-2.706 5.43-1.446 2.55-1.428 5.412-1.662 8.34-.18.906.456 1.782-.168 2.556-.498-7.698-.87-15.912-6.126-21.996-.516-.618-.774-1.134-1.602-1.254-.312.384-.564.834-.432 1.404 2.316 4.116 1.074 9.414-.168 13.62-.21-2.226-.096-4.386-.168-6.42.402-5.988-2.106-11.454-5.136-16.212-.576-.372-1.344-.804-1.968-.36-.384.384.192.888.126 1.392.486 6.306.408 13.434-.63 19.806.27 3.048 1.254 6.234 1.836 9.15.072 1.278.462 2.418-.162 3.564-.444-.306-.834-1.008-1.278-1.38-1.098-2.286-3.216-4.374-4.5-6.726 1.32-2.43 2.382-4.98 3.516-7.464 2.1-9.246.438-20.496-3.054-29.394-.966-1.524-1.68-3.936-3.846-4.11-.57.258-.312.96-.438 1.272 2.646 5.97-1.452 12.036.816 18.33.102 6.048 1.992 12.588-.132 18.906-.192.126-.378.456-.696.324-2.304-1.512-2.832-4.242-2.526-6.606 1.512-2.298 2.514-4.914 2.688-7.584-.108-6.75.42-14.202-5.028-19.584-1.662-.75-2.82-2.718-4.602-2.952-.678 2.358-.978 5.286-.33 7.698 2.628 3.294 3.678 8.124 3.192 11.886l-2.1-1.584c-1.278-.174-2.478 1.104-3.3 1.932-.582-1.266-1.608-2.34-2.064-3.738.126-.57.438-1.146.882-1.404 1.554-5.802 3.684-11.358 1.608-17.52-.714-1.842 1.836-.588 2.4-1.734l.216-6.306c-1.656-.75-3.696-.798-5.286-1.23-.39-1.596.102-3.504-.03-5.154-1.788-.822-3.702-1.572-5.616-1.434.06-1.26-.27-2.598-.594-3.816-.006-.438-.648-1.194.054-1.452.45.558.132 1.014.708 1.452 2.034-.33 2.022-2.754 3.54-3.774 4.188-1.686 8.568-2.916 13.02-3.846 7.104-.852 14.394-2.154 20.952-2.238l.792.108c-.264.594-.396 1.218-.162 1.872 2.04.684 3.036-2.634 5.328-2.13.45.246.492-.18 1.602.456 1.206-.024-.126 1.182.834 1.614 1.404.378 2.286-1.098 3.426-1.542.636.372 1.464.246 2.04.69 4.014.48 7.338 2.496 11.166 3.36 8.322 3.942 17.136 6.906 24.714 12.492l.246.684" fill="#b3995d"/><path d="M390.953 86.078c-10.704-9.198-24.366-15.066-37.992-17.598l-2.658 2.118c2.364 1.254 5.292.984 7.59 2.37 8.862 2.358 16.974 6.576 25.152 10.722 1.602.87 3.948 2.616 5.526 3.738l2.382-1.356" fill="#9a3b26"/><path d="M382.313 242.384c2.532 1.89 4.962 3.972 8.334 4.02.126-.06.444-.186.444-.444-.45-.186.06-.318-.258-.576l-2.526-6.468c-1.782.402-3.462 1.83-5.214 2.826l-.78.642" fill="#1691ff"/><path d="M381.49 241.79c-.281-.204-.57-.402-.863-.576l1.182-.996c1.866-.924 3.558-2.202 5.34-3.27.318.384.45.834.708 1.278-1.68 1.194-3.564 2.13-5.118 3.222l-1.248.342m-14.316 5.4l-.078.612c-.174.288-.294.678-.372.984-3.048 1.23-5.91 1.824-9.084 2.67-4.896 1.302-10.626.834-15.462 1.5-2.922.024-6.798.552-9.732.06l2.4-2.112c3.948.426 7.572-.234 11.586-.396 7.146-.906 13.53-.378 19.986-3.108l.756-.21" fill="#9a3b26"/><path d="M389.375 186.536c-.258.114-.516.246-.834.246-3.18-.108-5.262 2.952-6.84 5.07-2.394 4.224-3.252 9.12-6.6 12.834-.582-1.338-1.86-2.4-2.064-3.996 1.836-1.476 3.036-3.456 4.23-5.364 4.038-5.7 2.46-13.266 2.928-19.95.618-2.808 1.044-5.742.198-8.4-.252-.33-.132-1.092-.828-.894.066.39-.444.576-.57.906-8.238 5.964-4.602 16.956-8.178 25.122-.942 1.926-.546 4.008-.978 5.988a49.868 49.868 0 00-3.978-4.242l-.066-.558 2.838-4.68c1.632-3.054 2.694-6.762 3.816-10.02.918-5.598 3.624-10.71 3.522-16.368-.462-2.358-.222-5.028-2.208-6.798-1.002 2.298-2.58 3.894-4.416 5.694-4.488 3.972-7.386 9.786-4.92 15.942l-.252.702c-.318-.06-.384-.564-.768-.378-2.67.402-3.984 3.588-4.482 6.012-1.152-1.134-1.542-2.658-1.614-4.122 2.712-3.456 4.152-7.164 3.936-11.742-.414-4.902-1.974-9.786-2.706-14.874 4.998-4.044 8.604-8.142 13.092-12.876l19.11-18.33c3.222-3.27 6.516-6.282 9.924-9.366-.678 2.556-1.362 4.986-1.662 7.782.012 1.842 1.416 3.426 1.752 5.274-1.5 3.762-1.92 8.028-.366 11.898-1.32 3-1.74 6.642-1.338 10.008-2.334 3.198-1.29 7.332-.372 11.016-1.896 3-1.164 7.518-.186 10.884-1.452 2.298-2.964 4.734-2.82 7.536.078 1.896 2.442 3.54.864 5.4-.498 1.464.462 2.73.474 3.996-.828.66-1.2 1.794-1.128 2.754.006 1.02.9 1.968.588 2.862-.948 1.02-.618 2.544-.102 3.69-.318.258-.762.762-.882 1.278-.126.888.072 1.908.78 2.604-.18 1.518-.114 2.424.15 3.888.384.504.954-.198 1.146-.588-.198-.762.942-1.218.432-1.908.438-1.218.48-3.06.474-4.266.756-1.35.678-3.126.606-4.596l.258.258.444-.516.09-5.214.444-.126c.378-.588.822-1.278.816-1.854.69-1.848.93-4.206.66-6.174l.636-.576c.24-2.364 1.374-3.582 1.11-6-.138-.948-.144-1.65-.462-2.412-.264-1.338-.912-2.604.546-3.636l-.126-.126c1.386-2.112.918-4.266 1.032-6.306.762-1.02.876-2.61 1.122-3.762-.516-1.206.882-1.65.558-2.868 3.288-3.462 2.682-8.16 2.214-12.294 2.52-3.714 1.41-8.286.81-12.294 1.692-4.02 2.358-8.286 1.956-13.056-.198-.702-.588-1.464-.654-2.04 1.8 2.286 3.09 5.076 4.254 7.746l-.192.246c-.126-.186-.318-.114-.51-.114-.444.186-.06.702-.312.888.516 1.206 1.794 2.088 3.006 2.406.096.552.33 1.242.648 1.86l.258.948c-.666-.198-1.326-.456-1.848-.828-.252-.132-.636-.258-1.014.126.018 3.06 3.456 2.85 4.998 5.322 2.916 8.13 3.48 17.028 3.666 26.004l-.636.012c-1.008 1.596.72 2.988 1.614 4.182-.372.39.324 1.464-.564 1.278-.06-.06-.126-.126-.126-.186-.702-.246-1.53-.564-2.034.198-.306 2.238 1.992 3.624 2.646 5.592-2.268 13.308-5.238 26.646-11.082 38.574l-.708-.876c-.252-.258-.768-.444-.894-.39-.39 1.176-.492 2.262-.444 3.342l-.87.48c-.024-.114-.042-.246-.06-.36l-.45-.636c-.768-.702-1.212.186-1.716.576-.696-.246.498-1.398-.702-1.266-1.902 1.734-3.924 3.972-4.416 6.528.27 2.226-1.176 4.836-2.25 6.69-.93-6.366 4.962-10.908 2.628-16.884-.648-1.842-1.038-3.168-1.746-4.89-.324-.576-.264-1.524-.906-1.71.15 3.618-1.926 7.206-4.068 10.338-.876 2.166-2.136 4.146-3.078 6.312l-.198-.432c-.3-7.068.018-17.25 1.182-24.588.048-1.968.036-3.762-.606-5.214a13.764 13.764 0 00-3.114 2.418l-1.512.246m-43.458-11.676c-1.314-.078-2.616.45-3.72 1.056-2.22 1.29-.552 3.186-.48 4.908-1.272-.3-2.994-.102-4.584-.606-1.848-.306-3.636-.798-5.604-.912.498-.966 1.512-1.536 2.076-2.442l.3-.726c.948-.516 1.284-.678 2.046-1.32 2.274-2.244 6.42-1.188 8.838-.942.354.036.63.282.942.48l.186.504" fill="#b3995d"/><path d="M369.64 234.782c2.053-.6 4.129-1.278 6.343-1.512.456 1.266.144 2.352.024 3.75-2.16.27-4.266.036-6.492-.21l-.054-.588.18-1.44" fill="#9a3b26"/><path d="M307.78 129.602c-1.41-3.594-3.341-6.78-5.987-9.804-2.094.9-4.056 2.952-6.15 3.984-8.13 2.226-14.79-3.414-23.052-1.95-.57-.312-1.14.204-1.464-.444.564-1.206 2.148-2.364 3.282-3.324.828-.708 1.974-.516 2.862-1.032-2.502-3.168-2.598-7.878-6.498-9.96-.12-.564-.636-1.2-.318-1.716.378-.444 1.074-.582 1.578-.324 6.18.726 8.514 7.452 13.626 9.972 2.424.552 5.028.15 7.326.774 2.55.3 4.722 2.142 7.458 1.416-.972-2.532-2.904-5.766-6.024-6-3.636-1.068-7.77-1.614-11.592-1.65-.126-.318-.954-.306-1.464-.504-3.444-1.242-6.54-3.93-9.036-6.87l-1.086.972c-.624 1.08-1.614 2.1-2.184 3.234-3.654 5.31-7.632 10.692-9.504 16.806.204 1.842 1.554 3.552 1.056 5.274-.39-.504-1.278-.624-1.602-1.38l-1.008 1.59c.708 1.206 1.224 2.412 1.17 3.936-.252.258-.504.576-.888.462l-1.152-.822-.504.576c-1.182 4.146-3.102 13.194-3.102 13.194-1.014 10.38-1.008 20.694 1.596 30.348.528 2.418.858 4.458 1.068 6.996 1.026 1.08 3 1.446 3.072 3.096-.63.774-1.524.588-2.352.654.006.762.396 1.458.078 2.226 1.536 1.2 3.45 1.632 4.608 3.156.384.702-.504 1.08-1.014 1.404h-.696c.264 1.41 1.356 2.862 1.746 4.194 3.672 7.176 7.794 14.406 12.864 20.676l4.104-4.362 20.484-21.138c.288-.246 0-.39.318-.702.762-.072 1.212.558 1.848.69-.198-1.266-.72-3.174.228-4.452 4.116-3.6 8.1-7.5 12.084-11.418-.834-.63-1.728-1.062-2.304-1.824.696-.648 1.65-.966 2.286-1.476-1.848.066-4.134.852-5.988.222-1.59-.624-2.61-.552-4.146-1.314-.444.198-.762-.306-1.02-.492v-.444c1.14-.33 1.962-1.29 3.108-1.734-2.43-.954-5.682-2.262-5.574-5.454-.258-.558.378-.702.696-.828 2.418-.144 5.868 2.058 8.592.396 3.882-.912 9.168-.186 12.84-3.138-4.896.348-9.786 2.61-14.436 2.508-3.126-.942-6.63-1.548-9.318-3.894-1.656-.552-3.318-1.818-4.284-3.024 4.116-3.528 8.472.714 13.176-.21 3.114-.588 5.52-3.024 8.58-2.658 3.366-.66 7.584 1.848 10.302-1.338-.51-.444-.648-1.266-1.218-1.524.12-.702-.714-1.392-1.098-1.896-.642-.834-1.476-1.782-2.496-1.956-1.332-.06-2.286.702-3.294 1.284-1.962 1.224-3.99 2.766-6.084 3.798-1.908.588-4.386 1.362-6.492.738-4.014-.984-8.16-2.166-11.046-5.274-1.542-2.022-2.508-4.308-4.05-6.276-.192-.504.312-.762.438-.954 1.524-.516 2.682.942 4.02.798 3.828 1.686 7.728 4.662 12.306 3.222 2.916-1.344 6.36-.666 9.216-2.214l-2.376-2.844c-2.478.714-4.188 2.25-6.792 2.646-5.718 1.884-9.258-4.14-15.234-2.508-1.272-.504-3.054-.432-4.338-1.242-1.656-.246-2.55-1.128-4.146-1.44-1.086-.564-2.232-1.572-2.556-2.79-.702-.306-.582-1.194-1.284-1.698l.126-.06c-.768-1.092-2.052-2.154-3.012-3.108.438-1.02 1.716-.456 2.544-.582 2.418.546 4.776 1.428 6.888 2.364 2.292.69 4.512-.09 7.002.972 2.424.438 4.722 1.692 6.768 3.27.834.432 1.914.432 2.874.678.06-.57-.582-1.074-.714-1.71-.198-1.146-.144-2.538.36-3.558 1.68-.282 3.714-.45 5.502.09l-.096-1.302" fill="#b3995d"/><path d="M367.889 246.932c.732.21 1.452.432 2.142.69-.378 1.02-1.458 1.668-2.538 1.734-.492-.48-.018-.888.114-1.332l.282-1.092m42.641-36.81c.073.366.15.726.223 1.104l.768-.072c-.084-.48-.15-.948-.204-1.416l-.708.552M271.6 97.67a95.62 95.62 0 002.245 1.362c.69-1.41 2.016-2.556 2.964-3.702-.636-.45-1.404-.762-2.106-1.14-.522.912-1.296 1.572-1.968 2.274L271.6 97.67m67.513-27.726c.216-.384.468-.762.678-1.122.378-.576.948-1.032 1.194-1.596-3.246-.306-7.002-.564-11.076.072-7.818 1.122-15.198 2.262-22.308 4.908-.636.072-2.37.762-2.37.948 0 0-.288 2.064-.918 2.766 1.908-.456 3.876-1.416 5.91-1.884 6.666-2.202 12.84-2.382 19.902-3.564 2.508.108 5.37-.564 8.076-.516l.912-.012" fill="#9a3b26"/><path d="M291.953 79.826c.126-.132.264-.228.414-.258"/><path d="M290.879 84.722c-.162 1.758-.462 3.54-.606 5.298.324.69.456 1.452 1.032 2.028-.21-3.192 2.19-5.484 1.788-8.616-.252.072-.486.408-.726.666l-1.488.624" fill="#b3995d"/><path d="M346.51 65.336c-.815 1.782-2.97 3.012-4.23 4.608-1.271.516-1.901 1.734-3.173 2.19.054-2.166 1.758-4.086 3.534-5.508 1.14-.702 2.538-.9 3.87-1.29m6.756 1.104c.33 1.464-1.452 1.92-2.016 2.742-1.458.972-2.982 1.866-4.374 2.706-.072-.504.372-1.146.69-1.662 1.512-2.112 3.414-3.144 5.7-3.786m-4.447 1.428l-2.105 2.382-1.56-.084s-.774-.048-1.602-.348l2.022-2.184c.9.144 2.1-.012 3.246.234m-47.041 10.62c-.245.372-.437.888-.881 1.146-.72-2.856.726-5.916 3.132-7.59 1.926 2.34-1.626 4.206-2.25 6.444" fill="#9a3b26"/><path d="M275.53 74.642c1.033 1.656 3.007 2.202 4.225 3.6 1.224 1.452 3.264 2.904 3.282 5.004-.96-.174-1.788-.81-2.556-1.44-1.536-1.2-3.762-.684-5.172-2.262-.906-2.1-2.316-3.996-3.096-6.156 1.146.246 2.112 1.068 3.318 1.254" fill="#395839"/><path d="M300.179 76.076c-.504.63-.246 1.722-.816 2.292-.132-.504-.198-1.02-.33-1.524.45-.138.636-.768 1.146-.768m5.22 9.828c.012 2.04-.492 3.504.03 5.358 1.848.234 3.822.294 5.292 1.23l-.216 5.472c-.51.516-1.404.072-1.974.396-.906-2.598-2.514-4.758-4.116-6.972-.384 0-.702-.444-1.086-.114-1.188 3.114.804 6.348.066 9.606-.306 2.286-.804 4.452-.408 6.552-.636.072-1.584-.102-2.412-.234 2.826-6.072 3.336-14.604-.768-20.496.18-.69.174-1.524.618-2.154 1.782.102 3.438.534 4.974 1.356" fill="#9a3b26"/><path d="M280.205 88.238l-.822.888-2.754-2.388.126-.072c1.086.636 2.172 1.254 3.45 1.572" fill="#1691ff"/><path d="M395.357 87.818c-2.412 1.53-4.704 1.488-7.248 1.194h-.192c.246-.96 1.584-1.29 2.406-1.932 1.584-.774 3.432-.588 5.028.162l.006.576m-112.404 2.118c-.252.318-.57.894-1.014.762l-2.112-1.314c.882-1.848 2.166.234 3.126.552m112.542-.408c-1.146-.048-2.28 1.92-3.12.282.822-.72 2.034-.462 2.862-1.176-.258.072 0 .648.258.894" fill="#9a3b26"/><path d="M347.819 90.404l.042 5.862c1.14-.198 2.538.42 3.63.996.774.948.144 2.412.15 3.564-.63.888.144 3.3-1.89 2.742-1.146.078-1.974-.552-3.12-.294-.426 3.186-.342 6.552-1.338 9.492-1.65 1.218-3.756.408-5.73.162-1.782-.306-.462-2.472-.66-3.306.432-2.166-.03-4.578.276-7.008-1.47-.492-3.498.216-4.59-.852-.204-1.782.294-4.08.408-6.12 1.644-1.662 5.862 1.242 5.52-2.52.186-1.206-.018-2.79.546-4.008 2.298.624 4.464.54 6.756 1.29"/><path d="M401.165 110.126c-.078.156-.168.294-.318.378-.12.702-.756 1.086-1.326 1.59-11.958 11.346-24.678 23.148-35.55 34.74-1.836 1.788-3.54 3.582-5.568 5.19-1.17-3.684-1.2-8.076-4.398-10.536-.252 0-.444 0-.57.258.972 3.174-.786 6.36-.636 9.798.456 2.226-.798 4.464-.654 6.69l-1.266.774c2.19-5.742 1.134-11.334.012-17.19l.126-.576c10.68-11.076 21.252-21.072 32.196-31.902 4.74-4.428 9.486-9.48 14.484-13.968.03 4.842 2.526 8.802 4.08 12.906l-.612 1.848m1.008-8.4c-1.278-2.976-1.752-6.024-1.062-9.366 1.452 3.156 1.8 6.894 1.602 10.5l-.54-1.134" fill="#efe8c7"/><path d="M401.435 102.242c-1.116-2.874-1.836-5.928-1.338-9.306.192-.63.564-1.338 1.332-1.02.96.69.966 1.698 1.416 2.604.6 4.452 1.206 9.222-.162 13.746l-.57 2.34c-.144.258-.402.528-.558.774-.996 3.834-3.444 8.754-.492 12.492l.444.12c.132.186-.126.318-.054.444 1.152 1.77 1.866 3.612 2.766 5.52 1.104 3.108 2.268 6.222 3.942 9.138 2.01-4.146.966-8.214-.072-12.276-3.846-4.188-5.028-9.516-6.396-14.736.126-.186.114-.57.444-.57 1.158 3.432 2.076 7.056 3.504 10.416.96 1.644 2.304 3.108 3.27 4.746 1.248-3.504 2.178-7.392 1.71-11.34-.72-3.24-3.036-7.104-6.666-7.842.126-.198.378-.132.57-.132l.114-1.02c.414-5.28.57-10.824-1.368-15.714-.444-.504-.834-1.782-1.722-1.32-.756 1.332-2.346 1.662-2.844 3.198-.552 3.63.426 7.44 1.914 10.614.126.378 1.284 2.664 1.482 3.942l.126-.012c.252-.438-.006-1.2.246-1.524.06-.504.114-1.02.162-1.536l-1.2-1.746" fill="#773141"/><path d="M347.123 90.794c.39 1.65-.228 4.134.162 5.796.516.504 1.404.048 2.04.366l1.716.69c.144 1.71-.096 3.492-.66 5.226-1.458.45-3.438-.876-4.578.282-.168 3.366-.342 6.168-1.086 9.48-1.014.588-2.292-.048-3.306.156-.702-.132-1.47-.192-2.046-.696.426-3.432.402-6.546.384-9.924-1.086-.432-2.04-.114-3.186-.234l-1.146-.186c-.078-2.16-.084-4.068.408-5.862 1.842-.642 2.928.12 4.77-.468.816-1.662.36-3.762.792-5.544l5.736.918" fill="#9a3b26"/><path d="M286.277 91.952c-.96-.186-2.172-.432-3.192-.87.882-1.602 2.166.426 3.192.87" fill="#b3995d"/><path d="M397.853 90.476c.192.186.45.372.516.762-.888.516-1.968.444-2.988.588-1.02-.06-1.968.714-2.862.264 0-.312.312-.57.57-.828.636.258.696-.444 1.14-.576 1.272-.456 2.412-.528 3.624-.21m-.043 2.916c-.575.012-.96-.504-1.403-.75.57-.126 1.146-.126 1.59-.456-.192.33-.252.774-.186 1.206" fill="#9a3b26"/><path d="M296.099 96.326c.612.162 1.236.324 1.536.714.15 2.538-.354 4.266-.528 6.75-1.026-1.08-1.224-2.73-2.19-3.996-.228-1.242-.096-2.418.234-3.528l.948.06" fill="#b3995d"/><path d="M296.117 95.702c.456.084.954.396 1.452.306-.198-1.08-.648-1.956-.972-2.976-.456.804-.882 1.65-1.206 2.532l.726.138" fill="#9a3b26"/><path d="M289.175 97.916c1.296 3.174 3.666 5.838 5.028 9-3-.48-4.548-3.786-7.476-4.278-4.146-.798-8.604-1.344-12.312-3.48.564-1.278 1.962-2.238 2.844-3.258 3.828 1.056 7.908 2.226 11.916 2.016" fill="#b3995d"/><path d="M387.389 95.876l.444.45c.078 2.034-.102 3.312-.216 5.412.45.504 1.086.504 1.722.432-2.526 3.072-5.754 5.952-8.73 8.652l-.03-4.14c-1.53-.69-2.988.024-4.71-.54-.204-1.392-.084-3.174.222-4.638 1.398-.27 3.756.348 5.346-.174.624-1.842.678-3.822 1.236-5.604 1.782-.144 3.054.552 4.716.15M269.8 100.322c-1.817 2.07-3.137 3.288-3.815 4.614-3.534 4.476-5.538 9.456-7.734 14.496.39.894.648 1.968 1.164 2.862 2.436-7.266 7.122-13.188 12.402-20.592l-2.016-1.38" fill="#9a3b26"/><path d="M405.905 105.968c-.402.408-.654.912-.558 1.638 1.344.306 2.814 1.386 3.456 2.334l-2.538-2.976-.36-.996" fill="#d1b881"/><path d="M406.277 105.614c.672-.558 1.512-1.032 1.914-1.836h.192c3.336 4.614 5.976 9.504 8.556 14.388l.966 2.604c-3.816.396-3.396-4.242-5.316-6.27-1.812-2.652-3.576-5.508-5.904-7.866l-.408-1.02" fill="#9a3b26"/><path d="M303.125 108.578c.138 2.232 2.256 4.512.486 6.624-1.098-2.286-4.482-4.17-3.36-7.302.9.444 2.04.108 2.874.678" fill="#b3995d"/><path d="M258.065 120.08c.906 2.472 1.434 5.142 2.34 7.554-1.986-1.578-3.084-4.056-4.434-6.15-.324-.822.054-1.71.69-2.286.57-.012 1.272.306 1.404.882m164.075 5.046c-.06.258.193.648-.185.774-2.43-1.134-4.344-2.586-6.768-3.456-.39-.384-.9-.822-.966-1.392 3.246.03 6.372 1.158 7.92 4.074m-166.134 1.398c.9 1.956 2.76 3.606 2.706 5.832-1.53-.372-3.132-2.202-3.588-3.738.258-.186-.318-.246-.318-.246-.198-1.392-1.734-2.73-.534-4.134 1.206.186 1.152 1.524 1.734 2.286" fill="#9a3b26"/><path d="M407.333 139.106c.45.564-.246 1.212.522 1.716.342 3.504.684 7.512-1.59 10.32-.324-1.464-.594-3.504-1.242-5.082-1.176-5.088-5.022-9.204-5.058-14.604.114-1.98.672-3.948 1.236-5.874 2.574 4.326 3.372 9.27 6.132 13.524" fill="#773141"/><path d="M424.613 133.13c-3.504.024-4.992-4.29-8.184-5.094-.318-.504-1.212-.882-1.026-1.524 3.63.864 7.848 2.88 9.21 6.618m-168.318-1.332c-2.118 7.218-4.17 15.114-3.996 22.5-.162 4.524-.324 8.472.528 13.038.294 5.346 2.292 9.99 2.904 15.588-1.026-1.278-3.954-.924-3.396-3.102-1.566-6.036-1.278-11.196-2.016-17.172l.12-1.146.06.126s-.144-3.114-.09-4.452c.474-5.1-.39-11.46 1.482-17.004.606-3.576 1.734-7.02 2.916-10.392.324.69 1.032 1.194 1.482 2.016" fill="#9a3b26"/><path d="M423.923 135.314c1.56 4.956 1.284 11.25 2.652 16.146.018 2.484.54 5.214.048 7.572-.642-.894-2.04-.75-2.304-1.83-.36-6.42-.594-13.302-2.16-19.338-.144-2.154-1.044-3.948-1.566-5.976.774 1.464 3.888 1.056 3.33 3.426" fill="#9a3b26"/><path d="M306.85 134.336c.385-.054.895.06 1.597.12.828.306 1.974.624 2.298 1.584-.762-.132-1.02-.894-1.848-.882-1.47-.372-3.444-.81-4.776-.102-.258-.132-.132-.378-.132-.564.318.114.318-.258.444-.39.576.306 2.034-.078 2.418.234"/><path d="M405.383 152.294l-.318.324c.012 1.464.024 3.18-.48 4.584-.912-3.678-3.984-6.282-4.836-10.032-.21-2.988-.36-6.606.828-9.552 2.448 4.5 4.452 9.402 4.806 14.676" fill="#773141"/><path d="M337.469 153.368c-.762.576-.882 1.338-1.71 1.668-.834-.954-1.728-1.77-2.436-2.85.042-3.114 1.044-5.856 1.788-8.604l.438-1.848c.084 3.948 1.068 7.83 1.92 11.634" fill="#b3995d"/><path d="M249.239 153.158c-.9 1.734-1.128 3.504-1.494 5.496.642.378 1.278.636 1.854 1.14.138-2.358.306-4.584.36-6.954l-.72.318" fill="#1691ff"/><path d="M249.88 151.778c.03-1.23.055-2.484.09-3.762-1.265 1.332-2.723 2.868-3.03 4.794-1.44 3.444-.515 8.142-1.193 11.586-.75 2.298.156 5.028-.654 7.452-.504.966-1.326 2.112-2.532 2.31-.582-.888.888-.96 1.26-1.602.948-1.854 1.122-4.08.666-5.988l-1.14 1.404c-.312.384-.51-.174-.828-.246.888-.96 1.77-1.92 2.274-3.072-.012-1.968.924-4.266.66-5.544-1.896 1.926-4.89 1.56-7.302 2.472.384.504.708 1.266.588 1.974-3.684 1.86-1.05 5.538-1.794 8.598.138 1.08 1.47.624 2.112 1.254.006 1.092-1.398.27-1.968.66-.624 2.484-.732 5.352-.27 7.956.252.054.318-.258.57-.39.066.132.258.192.192.378l2.67-.39c.066.12.324.246.198.438-.888.384-1.974.27-2.862.594.066.576-.624 2.04.588 1.968.702.378 1.656 1.068 1.41 2.028.576.69 1.146-.27 1.848-.078.45.642-.12 1.146.012 1.776-1.146.834-1.638 2.556-3.108 1.866.15 3.69.618 6.81.642 10.572.57.312 1.398-.204 1.848.432-.318.576-.702.186-1.02.444-.624 1.914-1.44 3.774-1.23 6l1.14-.27c1.092.822.21 2.73.792 3.882 1.08-.576 2.214-1.476 2.778-2.628 1.266-.582.576 1.14 1.218 1.584.894.06.822-1.152 1.518-1.278.192.174.066.504.132.69.768.06.9 1.02 1.602 1.398.444-.132.504-.648.756-.96.258-.072.384.186.576.246 0-.318-.006-1.08-.006-1.398-1.35-1.77 2.082-2.364.924-4.206.882-2.04-.276-3.762.09-5.862-.84-1.77-1.998-4.182-1.182-6.162 1.014-.126.96 1.584 1.218 1.71-.144-2.352 1.506-3.63 2.19-5.61.192-.318.51.054.642.174l-.18 2.106h.126c.762-.642.822-1.464.558-2.292.126-.132.252-.318.444-.258l.138-.576a3.733 3.733 0 01-.27-.318c.816-2.298-2.31-2.472-2.574-4.5-.384-.63-.33-1.908.558-2.166-1.626-5.274-1.212-10.17-1.818-15.456-1.092-1.77.978-5.286-1.818-5.91-.45-.372-.51.132-.828.33-.018-2.412.168-5.286 1.692-7.29l.882-.864" fill="#efe8c7"/><path d="M254.62 188.528c1.819 1.578 4.35 2.226 6.325 3.84.066.204.324.318.198.576-.444.642-1.338.33-1.908.27-1.728-.948-3.444-1.254-4.602-2.964-.042-.282.204-.66.198-.972l-.21-.75" fill="#9a3b26"/><path d="M343.84 164.15l-1.667-1.524c1.008-1.782-.024-3.936.474-5.916.36-3.12 1.422-5.988 1.656-9.174.864 5.214 1.032 11.646-.462 16.614" fill="#efe8c7"/><path d="M403.96 159.056c.013 1.908.09 4.062-.917 5.73-2.388-4.758-6.174-9.762-4.236-15.438-.066-.312.12-.96.498-1.272.858 3.936 4.818 6.714 4.656 10.98" fill="#773141"/><path d="M337.66 153.932c.073 1.404.589 2.544.727 3.948-.516-1.02-2.112-1.638-1.992-2.79.384-.312.888-.888 1.266-1.146" fill="#efe8c7"/><path d="M426.635 160.364c1.272.708 1.41 2.226 1.608 3.564.006.318-.372.762-.18 1.02-1.35-2.1-4.23-4.302-5.136-6.846l.126-.312c1.212.75 3.06.996 3.582 2.574" fill="#9a3b26"/><path d="M331.517 159.08c-.246.498-.882.828-1.134 1.332-.006-.444.504-1.146.432-1.836.384-.072.45.3.702.504m22.488 8.34c-.138-.138-.312-.282-.408-.396-1.464-.318-2.736.516-3.81 1.548-.438.762-.948 1.53-.876 2.484-.45-.954-1.41-1.902-1.992-2.922.372-1.968 2.334-3.444 2.64-5.298.63-1.332 1.188-3.054 2.712-3.828.558 3.09 1.986 5.04 2.082 8.364l-.348.048" fill="#b3995d"/><path d="M353.273 167.948c-.246-.21-.516-.396-.816-.222-1.08.126-2.16.96-2.538 1.98-.378.516-.12 1.146-.432 1.476.648 1.71 2.184 2.976 3.336 4.428.762-.762.438-1.722.81-2.742.612-1.428.81-2.832.774-4.23l-1.134-.69" fill="#1d5c42"/><path d="M402.347 165.11c-.876 2.298.726 4.458.552 6.87.072 1.65-.558 2.61-.804 4.146h-.126c-2.07-5.4-5.292-11.496-3.102-17.424 1.098 2.214 2.382 4.254 3.48 6.408" fill="#773141"/><path d="M248.465 161.96c-.12 1.02-.558 2.556.468 3.12 0 .498.516.816.582 1.26-.126.132-.252.318-.444.204-.324-.45-.522-1.152-1.032-1.464-.18 1.086-1.194 2.622-.102 3.444.258.57.582 1.206.456 1.836-.642-.372-.708-1.206-1.158-1.71-.126.39-.186.96-.564 1.152h-.192c.3-2.802 1.116-5.028 1.416-7.716l.252-.186c0 .132.192.06.318.06"/><path d="M426.665 165.392c-.198-1.32-2.364-1.698-1.74-3.294.708 1.08 2.556 2.016 1.74 3.294" fill="#9a3b26"/><path d="M305.555 170.126c-.072-1.086-2.298-1.008-3.198-2.082-1.146-.696-1.794-1.83-1.866-3.168 2.418-.456 4.338 1.188 6.882.714 1.968-.84 4.194-1.038 6.42-1.254-2.982 1.494-5.256 3.798-8.238 5.79" fill="#1d5c42"/><path d="M339.149 167.678c-5.598.036-9.456 3.75-14.544 5.19-2.16.588-4.83.786-7.062.492.762-.642 1.458-1.23 1.896-2.106.9-.702 3.006-1.698 3.006-1.698s5.214-.036 7.674-.54c2.346-1.29 4.956-2.004 7.302-3.354l1.728 2.016" fill="#efe8c7"/><path d="M401.207 176.258l-.252.186c.336 2.988.486 5.988-.774 8.544-1.356-2.988-3.156-5.838-3.942-9.084-.078-2.412 1.248-4.278 2.25-6.318.972 2.1 1.812 4.458 2.718 6.672" fill="#773141"/><path d="M352.097 171.032c-.888 1.146.84 2.352.402 3.444-.636-.318-.582-1.404-1.098-2.028-.192-.516-.138-1.596.696-1.416"/><path d="M315.125 173.69c1.212-.33 2.67-1.104 3.552-1.932-1.14.9-2.022 2.106-3.552 1.932" fill="#b3995d"/><path d="M244.985 174.722c-.186.888.078 2.1-.684 2.67-.132-.888.24-1.848.108-2.856.192-.258.57-.072.576.174m187.47.642c.072 1.278 1.29 2.226.918 3.564-.84-1.392-1.356-2.988-1.938-4.452.63-.258.768.576 1.02.888"/><path d="M333.347 176.468c-1.398.642-1.884 3.738-3.738 2.412l-1.398-.114c1.584-.834 3.42-1.77 5.136-2.298" fill="#efe8c7"/><path d="M246.533 177.944c.33 1.908-1.374 4.218 1.056 5.73.126.39.516.822.132 1.206-.636-.504-.834-1.392-1.41-2.028-.372 1.596-.426 2.934-1.44 4.278-.126.318-.51.132-.696 0 2.4-2.496.846-6.492 2.358-9.186m104.274.81c-.636-.06-1.716-.06-2.292-.246l-.006-.318c.768.186 1.656-.012 2.298.564m-105.96 4.56c-.252.126-.318.312-.57.258-.006-.762-.27-2.286.618-2.556l-.048 2.298"/><path d="M258.803 185.888c.132.648-.57.516-.882.774-2.358-.432-5.544-.912-6.138-3.84-.066-.258-.132-.576-.072-.894l.45-.258c2.484.996 4.536 2.766 6.642 4.218" fill="#9a3b26"/><path d="M399.737 185.618c-.186 0-.312.258-.438.39l.012 2.04c-1.158-1.968-3.024-4.5-2.022-6.984.774 1.452 1.488 3.234 2.448 4.554" fill="#773141"/><path d="M362.933 183.38c-.564 1.08-.558 2.862-1.566 4.02l-.192-.384c.312-.444.564-1.152.75-1.782-.006-.648-.204-2.1 1.008-1.854"/><path d="M238.883 186.332c-.06.516.006 1.092.582 1.278l1.398-.138c.006.948-.882 1.35-1.512 1.98-.51 0-1.02.384-1.59.084-.456-1.152-.15-2.934-.288-4.458.576.378 1.152.564 1.41 1.254" fill="#9a3b26"/><path d="M429.395 184.094c-.444.576-1.008 1.41-1.776 1.608.252-.576.882-1.464 1.776-1.608m8.022.72c-.186.258.006.57-.312.516-.258-.45-.894-.708-1.026-1.152a1.078 1.078 0 011.338.636"/><path d="M392.645 234.734c-.06-.186-.12-.378-.168-.552.054-.114.144-.234.234-.342l1.548-1.344c.474-.492 1.128-.894 1.32-1.326l.126.12c1.074-.954 1.83-2.112 2.712-3.45.924 3.414-2.868 4.14-4.95 5.886l-.822 1.008" fill="#9a3b26"/><path d="M393.917 234.416c1.296-1.11 2.994-1.944 4.206-2.94-.234 2.856-2.064 5.412-3.318 8.04-.54-1.116-1.308-2.52-1.872-3.972l.984-1.116" fill="#1691ff"/><path d="M389.567 228.662c-.354-.9-.756-1.794-1.218-2.598 1.842-1.032 3.87-2.382 4.62-4.62-.108 2.862-.288 4.842-1.29 7.326-.036.594-.576 1.008-.9 1.44l-1.212-1.536" fill="#b3995d"/><path d="M390.677 231.194c2.148-1.854 2.766-5.112 3.006-7.71.102-3.258-.234-6.492.888-9.624 1.56-5.106 5.994-9.078 6.66-14.55 1.674 4.254 3.366 9.654.402 13.8-2.13 5.112-1.134 11.724-4.92 16.2l-2.85 2.766-1.524 1.308c-.246.21-.426.54-.498.798.396 2.472 1.812 4.572 2.778 6.858.894.114.444-.894.888-1.278 2.586-3.774 4.08-8.556 3.798-12.882.48-4.464 4.722-8.178 4.5-13.074.498-1.98 2.202-3.516 3.534-5.052.936 7.698 1.758 16.02-1.764 23.238-1.944 4.794-5.676 8.25-8.322 12.654 1.038 3.048 3.162 6.096 4.77 9.144 5.088 9.012 11.19 17.496 15.384 26.82-1.14.27-2.856.846-3.294 2.25-7.77-10.512-14.334-21.492-21.024-32.46.318-.504.768.186.888-.57l-.444-.318c-3.048 1.674-7.566 2.028-10.446-.378-3.57-1.254-7.194-.336-10.764-1.524-3.318-.738-6.258-2.25-9.756-2.484-2.616-.936-5.238-2.058-7.032-4.662-.258-.504-.204-1.392.564-1.464 3.432-.6 5.928 1.86 9.492 1.278 3.306-.024 6.606-1.89 9.738-.258l3.696.738c3.834 2.964 7.74 5.868 12.642 5.904l.252-.444c-.912-2.67-1.944-5.274-3.174-7.806.066-.138-.96-1.65-1.284-2.286-1.422-2.928-4.41-2.718-6.9-3.396-1.398-.378-2.796-.048-4.14-.408-3.942.78-7.62 2.646-11.88 2.928-3.756.09-8.022.75-10.08-3.234-.39-.96-1.224-1.71-1.29-2.73 5.988 1.29 12.606.492 18.198-.822 1.98.492 4.2-.6 6.114.096 2.04.804 4.02 1.872 6.192 2.562 1.14-.384.114-1.404-.018-2.04-.576-1.26-1.602-2.28-2.31-3.42-3.486 2.124-8.646 1.266-12.396 1.668-5.04-1.866-10.278-4.326-16.128-3.072-1.398.198-3.114 1.098-4.26.078 1.392-1.272 1.95-3.312 4.104-3.324 2.988-1.29 6.18.396 9.366.318 3.306-.588 6.054 1.296 9.162.006l3.69-.78c1.086.432 1.728 1.566 2.748 1.812l.126-.114c.51.444 1.47.564 2.166.306.318-.33-.132-.762-.45-.894-2.352.516-3.642-1.626-4.92-2.964-.264-.888.69-1.404 1.134-1.98.318.258.576.822 1.212.504 1.524-.774 1.722.876 3.126.864.834 1.08 1.476 2.028 2.436 2.982.126.198.312-.06.438-.132-.258-1.134-1.47-2.088-2.178-2.85-.834-1.332-.528-3.372.42-4.578-.582-.576.492-1.218.816-1.596 1.26-1.158 2.922-.21 4.446-.864.012 2.166.978 4.392.804 6.432-.378 1.134-1.644 1.848-1.89 3.126.126.06.258.306.444.192 1.2-1.35 2.784-2.64 2.136-4.722-1.032-1.782.036-3.822-.798-5.604 2.688-7.464-2.406-18.132 4.998-24.096l1.584-1.476c.732 5.286-1.14 11.214-.912 16.758-.096 4.902-.306 10.44.288 15.33.21 3-1.236 5.928-3.708 7.602-.696.192-1.266.648-1.836 1.02.204 1.23.864 2.298 1.416 3.438l1.74 2.154" fill="#1d5c42"/><path d="M431.369 184.79c-.114 1.392.852 2.916-.288 3.876l-.024-3.876h.312"/><path d="M256.39 187.064l.27 2.022a3.837 3.837 0 01-2.171-1.566l-.012-1.152c.768-.126 1.218.636 1.914.696" fill="#9a3b26"/><path d="M399.01 191.492c-.06.186-.125-.516-.51-.33-.185.456-.053 1.35.013 1.92-1.158-1.836-2.958-4.638-1.254-6.864 1.158 1.38 1.872 3.354 1.752 5.274" fill="#773141"/><path d="M245.207 190.064c.264 1.518.978 2.844 1.62 4.11l-.318.39c-.96-1.266-1.416-2.922-1.872-4.5-.378.57-.498 1.71-1.392 1.53.63-.96 1.134-1.86 1.512-2.88.828.126.132.96.45 1.35m181.613.09c.637-.318 1.333-1.206 2.029-1.344-.312.702-1.134 1.476-2.028 1.344"/><path d="M305.849 197.54c.618.984 1.434 2.214 2.76 1.98 6.594-3.798 11.394-10.08 16.896-15.588.384.186.768.318 1.152.576 4.08.852 7.53 3.57 11.49 4.944 5.088.354 9.582-3.234 13.446-6.384 1.398-.318 2.364 1.32 3.258 2.214.072.504 1.284 1.062.204 1.452-1.218-.75-2.73.024-4.014-.222-.762.012-1.014.96-.882 1.536.456 2.058 1.776 3.828 3.432 5.178l-.828.552-2.112.432c-3.63-.234-7.332-1.608-10.902-2.67-.894-.564-1.98-.75-3-1.116-3.372-.174-7.134-.654-10.182.246-.252.702-.054 1.722.336 2.424 3.132 2.394 6.702 3.516 9.9 5.664 3.582 2.4 6.75-.108 10.176-.96l6.684-.168c.696-.066 1.59.06 2.292.306 2.166.456 4.38-.012 5.874-1.266l1.716 1.71c-.744-.336-1.668.024-2.688.036-1.206.318-3.054.198-4.194.6-.828.444-1.908.258-2.67.774-3.816.786-6.474 3.606-10.482 3.888-2.796.456-5.418-1.428-8.148-.084.144 2.358 1.806 3.81 3.474 5.262 2.43 1.716 6.306 1.176 8.592-.042l.126.054c.882-.606 1.758-1.218 2.802-1.512l-.306 1.422c-2.268 3.57-5.898 5.328-9.906 5.67-1.02.072-1.842.972-2.862.6.054-1.782.294-4.266-.294-5.862-.51-.174-1.146-.564-1.716-.234-1.716-.822-3.174.084-4.83.6.516.888.078 2.412-.042 3.558-1.584.774-3.18-.03-4.83.738-.06.762-.498 1.47-.306 2.16-.564 1.662-.294 3.702.036 5.166.51.504 1.146-.138 1.716.234.768.06 1.212-.126 1.782.12-.234 3.114-.402 5.976-.384 8.904 2.292.624 4.716.678 6.876.528.678-2.604.54-5.4.78-7.884l4.89-.99c.816-.9.294-2.94.42-4.014l.252-.318c2.292.492 4.584.036 6.744-.174-1.584 1.284-3.42 2.376-5.004 3.468l.45.96c.768.618 1.98.678 2.868.294l.126.126c1.146-.27 1.968-.846 3.114-.846-.438 1.14-1.644 1.596-2.082 2.748.648 1.518 2.676 1.002 4.014.924 2.412-.834 5.658-.984 8.016-.42 3.51 1.11 6.126 1.734 9.444 3.3-1.776.714-3.18.714-5.022.93-3.882.522-8.016.174-11.586-.624l-.258.246c.144 1.908 1.614 3.624 2.772 5.274 2.304 2.334 4.98 2.064 7.968 1.854 1.908.09 3.756-.294 5.592-.81l.144 1.11c-.048.342-.03.72 0 1.056 2.352.306 5.034.798 7.446.402.438-1.152.432-2.736.42-4.266.444-.708 1.338.054 1.908-.204 2.874 1.056 6.81-.234 8.046 3.516-2.16 1.35-4.056 2.826-6.276 4.044l.126.06c.102-.036.21-.072.312-.132l-1.092.12c-1.44-.81-2.994-1.362-4.83-1.29-2.49-.936-5.796-.15-8.274.246-4.068 1.23-7.272-2.052-11.082-1.08-.57.33-.888.834-.816 1.536 2.328 4.488 7.32 5.298 11.934 6.492l-.708.204c-2.412.84-4.89 1.626-7.482 2.07-7.632.492-15.714 1.62-23.16 1.866l-.444-.318c.564-1.092 1.386-2.106 1.374-3.444-.51-.258-.702-1.14-1.404-.822-1.71 1.278-2.586 3.576-4.422 4.608-.894-.378-1.914-.492-2.868-.738.756-1.41 3.93-2.442 2.448-4.41-.126-.198-.504 0-.63-.186-.57-.06-1.146 0-1.398.702-1.836.714-2.592 2.382-4.11 3.468-.192.258-.576-.126-.702-.246-10.266-1.836-19.272-6.888-28.218-12.102-1.404-.69-.138-1.596-.396-2.73-.966-1.722-2.298-.504-3.444-.438-1.014.774-1.722-.804-2.424-1.254.312-.444.762-.444 1.074-.888a3.047 3.047 0 00-.138-2.1c-1.854-.69-3.888-.42-5.61-.606-1.08-1.326-2.49-2.46-3.708-3.672l-.126.132-.774-1.134c3.042-3.012 6.522-5.91 9.294-9.096.15 3.492-.078 6.42-.054 9.924l.51.564c1.656-.33 4.074-.024 5.73-.468.612-2.628.534-4.914.96-7.596 1.206-1.086 3.246.048 4.776-.336l.078-7.716c-1.092-1.512-4.704 1.302-4.026-1.872 2.718-2.826 6.522-5.52 8.922-8.658.882-.894-.714-1.584-.846-2.406.15-.138.288-.27.42-.42l.594 1.02" fill="#b3995d"/><path d="M305.59 196.142c.205-.21.42-.42.703-.618-.198-.894-.972-1.968-1.74-2.73-.888.066-1.518 1.476-2.346.912-.9-1.092-1.164-2.73-.726-4.08 1.848.18 3.444 1.188 4.602 2.838.648 2.1 3.012 3.798 2.454 6.162.192-.012.318-.258.444-.384.114-2.616-1.872-4.326-2.778-6.48-.966-1.656-2.88-2.274-4.41-2.706 4.242-3.846 8.226-7.758 12.342-11.664 1.98 1.44 3.762 1.314 5.934 2.25-.192.192-.51.39-.57.702-.312.966-.054 1.782.84 2.358 1.656.234 3.312.42 4.722 1.23-4.05 4.428-8.286 8.85-12.654 12.69-1.518 1.092-2.718 2.442-4.566 2.322-.618-.33-1.158-.858-1.584-1.44l-.666-1.362" fill="#efe8c7"/><path d="M350.65 208.31c-1.541 3.816-5.861 5.82-9.731 6.276-.768.318-1.596.258-2.292.774.714 1.47 2.304 1.512 3.324 2.076 3.954.42 8.466.012 11.118-3.318 2.538-1.734 5.52-3.666 6.39-6.786-2.64.33-5.52 0-8.286-.054l-.522 1.032" fill="#1d5c42"/><path d="M330.725 162.332c.936.024 1.674.462 2.664.036.444-.258 1.14-.456 1.008-1.146-1.152-1.524-2.112-2.346-3.588-3.666l-.312.384c-.858 5.604-6.492 10.218-11.25 12.726-4.308 3.342-10.986 4.596-15.84 1.758 3.168-2.25 6.588-4.932 9.948-7.182 3.234-1.674 7.5-1.452 10.026-4.398-.762-.312-1.59.072-2.418.072-.378 0-.888.516-1.206.012l.06-.06c-3.558 1.164-7.308 1.962-11.184 2.43-1.914.012-3.054-.81-4.908-.984-3.258-1.128-6.198-3.024-9.012-5.298 2.658-2.172 6.36-.414 9.168.138 3.828 1.182 6.42-1.638 9.726-2.544 4.254-.726 9.366 1.47 12.72-1.17l-.126-.06.378-.516c-.648-2.028-2.382-4.242-4.176-5.694-.894-.186-1.914-.564-2.736-.048-5.016 2.394-9.618 7.956-15.816 5.004-3.63-.294-6.51-2.376-9.198-4.836-1.41-2.028-2.634-4.128-3.918-6.21l.444-.204c3.18.552 5.988 2.124 8.862 3.576 5.298 2.766 8.784-.564 13.176-.846 1.272-.27 3.114-.336 3.426-1.746l-2.31-2.658c-2.676-.048-4.566 2.388-7.242 2.718-3.804 1.428-7.446-1.83-10.764-2.754-3.498.012-6.942-.246-10.326-1.56-3.822-.492-5.058-4.542-7.368-7.074-.258-.45-1.02-.636-1.152-1.152 2.352-.582 4.272.798 6.312 1.434 2.232 1.32 5.166 1.242 7.776 1.344 4.392.168 6.834 4.278 11.16 4.512.822-.774 1.278.564 2.04.432 1.218.696 2.424.306 3.822.552.258-.012.444-.396.192-.582-2.04.138-4.14.09-5.742-1.68-.894-1.008-.516-2.286-.588-3.558 1.134-1.728 3.75-.528 5.526-.612 2.04.492 2.688 2.658 3.906 3.924.318 0 .258.378.576.06-.198-.762-1.092-1.134-1.41-1.896a5.366 5.366 0 00-2.46-2.124l-.318-1.278c-1.122-3.96-3.636-7.404-6.096-10.674-.828-.306-1.332.702-2.094.846-4.296 5.424-11.628 3.444-17.238 2.142-3.576-1.758-7.194-.21-11.148-1.08.696-.888 1.962-1.908 2.976-2.754 1.398-.198 2.856-1.602 4.2-.594.312-.318-.072-.576-.198-.762 1.776-.834 3.81-1.434 5.724-1.314-2.106-.678-4.458.222-6.3 1.068-2.754-2.592-2.526-6.612-5.592-8.886-.642-.63-1.92-1.38-1.482-2.4 5.922-.048 8.508 6.306 12.984 9.21 2.238 1.38 5.16 1.104 7.836 1.404 2.868.492 5.484 1.746 8.352 1.926.702.114.954-.648.822-1.092-.906-2.154-2.19-4.314-4.176-5.694-2.292-.432-4.338-1.44-6.63-1.686-5.346.102-10.254-.822-14.034-4.362-1.602-1.512-3.264-3.294-4.872-5.124-1.086-.63-2.04-1.506-2.94-2.586-.132-.444-.774-.948-.39-1.398 2.55 1.512 4.986 3.27 7.602 4.524 2.358 1.008 5.1 1.188 7.59 2.064 4.008-.096 6.762 2.874 9.96 4.83l1.146.114c.444-.312.504-.702.504-1.146-1.674-3.036-3.732-5.826-5.214-8.94-2.868-.426-5.988-.342-8.604-1.278-4.716-.858-8.622-4.596-10.752-8.91-1.944-5.718-5.286-10.776-9.012-15.726l.126-.126c1.344 1.194 3.51 1.122 4.794 2.706 1.296 4.314 3.87 8.508 7.902 11.214.888.444 1.914.81 2.304 1.89 2.814 2.856 6.138 4.8 9.96 5.352.576 0 1.092 1.326 1.53.306-1.416-2.532-4.476-3.282-6.588-4.866 0 0-.258-.312-.444-.246l-6.576-2.88c-6.588-4.476-7.908-12.366-10.056-19.104.768.696 1.668 1.266 2.31 2.16.318.186-.252.816.318.432 3.012 2.85 2.406 7.428 5.478 10.404 2.046 2.088 4.908 2.076 7.464 3.072 1.086.888 2.496 2.088 4.02 1.572-.024-3.438-3.726-5.766-6.156-7.668-2.688-2.268-3.474-6.018-5.976-8.742-1.938-2.598-5.514-4.722-6.09-7.98l.984-.816c1.962 1.308 4.002 2.82 5.712 4.404 2.556 1.884 6 2.952 7.422 6.06 1.302 4.566 4.824 8.304 6.126 12.888 1.416 1.83.024 3.882.486 5.85.192.504.456 1.71 1.152 1.38-.192-.432-.324-.816-.576-1.134.102-3.306-.042-6.234-1.65-9.096-4.434-6.138-2.064-13.344-3.57-20.472-.192-.246-.192-.372-.006-.702 5.13 6.084 7.914 13.452 8.604 21.27 1.368 4.824-2.232 9.888 1.044 14.004.318.444.39 1.65 1.026 1.452-1.674-3.552.912-6.492 1.404-9.738.348-5.484-.396-11.658-2.97-16.476-.006-.636.822-.636 1.266-.456 3.714 2.718 5.646 6.714 6.696 10.968.39 1.782 1.23 3.69 1.11 5.79-1.17 4.524-3.822 8.046-5.454 12.312-1.248 3.462 1.632 5.664 2.472 8.466.258.498.006 1.074.264 1.392.99-4.392 2.418-9.69-.03-14.136.24-1.776 1.824-3.312 2.388-5.166 3.984 5.952 3.084 14.682.132 20.628-1.128 3.372 2.262 5.328 3.612 7.932l.828-.012c.63-.888 1.008-1.854 1.002-2.988-1.422-3.564-1.896-7.182-1.026-11.262.996-3.39-.936-6.366-.132-9.738 1.218.948 1.608 2.592 2.64 3.798 2.634 4.182 2.736 10.488 1.812 15.198-1.002 2.424-.534 5.412-2.496 7.464-.372 1.722 1.296 3.12 1.878 4.698l.57.246.162 4.656c.132 1.266 2.106 1.122 1.416 2.79.324.57 1.152.876 1.722.558-1.218-1.71-.54-4.71-.744-6.678l-.384-.318c.27 2.286-.414 4.464.618 6.426l-.192.198c-1.152-.576-.462-2.418-1.992-2.862-.012-1.452-.468-3.492-.156-4.77.372-1.146 1.71-1.536 2.658-1.98 4.596 1.746.48 5.346.948 8.334l.252-.012c.06-.378.312-.894.186-1.206 1.692-3.834 2.106-8.73.864-12.738-.144-3.366-4.23-5.442-2.916-9.144.114-1.074.042-2.298.546-3.258l3.006 2.274c5.886 4.488 5.49 12.318 5.724 18.678.276 3.504-1.554 6.378-3.054 9.318.012 2.73 1.05 5.718 3.6 6.714.828-.126-.198-.69.57-.948.99-4.146 1.914-8.856.804-13.242.09-5.598-1.794-11.448-.306-17.322.624-2.796-.732-5.142-.612-7.698.63.258 1.206.948 1.596 1.524 4.506 7.92 5.658 18.552 5.076 27.342-.162 4.452-2.298 8.094-4.128 11.802.84 2.214 2.952 3.924 4.05 6.078.768.822 1.164 2.604 2.754 2.346 1.374-3.906-1.068-7.194-1.092-10.89-1.164-3.492.528-7.77.63-11.07-.408-3.822.264-8.85-.648-12.024.252-.144.384.174.636.114 3.144 3.354 3.744 7.806 5.358 11.862-.09 5.286.708 10.698-.786 16.056-.744 2.742-1.812 5.742-1.794 8.34l6.03 6.846.318-.198c-.48-5.148-2.352-9.468-2.706-14.556-1.236-5.142 1.662-9.12 1.632-14.214.048-2.214-1.11-4.056-1.188-6.096 2.694 3.354 5.076 6.972 5.862 11.226 1.446 6.552 1.62 14.184-.438 20.754-.684 2.172.54 4.71-.594 6.75.834.702 1.152 1.206 2.052 2.028-.192.132-.06.378-.126.576.258.126.384-.132.444-.198 1.818-4.782 2.232-10.008 1.308-15.156-.264-1.146-.594-2.856.228-3.888h-.126c-.84-1.956.036-3.822-.042-6.168.936-3.054 2.064-6.054 3.828-8.61l.258.432c-.204 8.16 3.414 16.596 1.488 24.048-.54 4.338-2.688 8.238-4.632 12.198.516 1.14 1.536 2.16 2.316 3.036l.126-.126c.768 1.968 2.442 3.48 3.846 5.13.57 0 .762-.318 1.14-.642.552-2.874 1.554-5.544 1.284-8.286.036-4.254-3.426-8.184-1.542-12.456-.408-3.762.966-8.16.936-12.18.576.576.84 1.206 1.29 1.854 1.746 4.626 2.412 9.714 3.72 14.472 1.446 7.254 2.958 14.754-2.796 20.46.258.564.324 1.266.648 1.842.198 1.266 1.476 2.412 1.998 3.738.444.444.834 1.332 1.47 1.452-.006-.948-1.284-1.71-1.164-2.916.882-1.914.798-4.266 3.084-5.43.51-.126 1.272-.258 1.716.12-.552 2.298-.792 4.65-.654 7.008 1.476 2.154-1.884 3.186-1.236 5.154.75-1.848 2.652-3.066 2.064-5.286-.78-3.126.852-6.186.258-9.546-3.36-8.004 5.58-13.35 9.3-19.164 1.344 2.73 1.758 6.48 1.08 9.48-2.058 7.326-3.276 15.036-6.738 21.81-.81 2.166-2.838 3.9-3.144 6.198l3.912 4.488c.444-.126.768.576 1.146-.012.03-4.452 1.854-8.538 2.778-12.75.528-6.678.612-13.932 6.756-18.504.39 1.41.594 3.048.348 4.584-1.794 8.412 1.512 17.754-4.422 24.798-.948 1.338-1.698 3-3.156 3.774-.438.702.204 1.266.33 1.968.702.888 1.344 2.154 1.734 3.174 1.782-.27 2.214-2.052 3.102-3.324 2.952-5.382 3.852-14.232 11.808-14.982l.39.294c-2.406 3.144-3.336 7.266-2.736 11.496-2.268 3.834-5.874 7.104-10.134 8.028.384.306.198.948.264 1.452.774 1.266 1.548 2.862 2.634 3.738.9 1.716-.996 3.39-.288 5.1-.762-.372-1.404-.822-2.292-.822-.714-1.638-1.734-3.234-3.15-4.428-1.47-1.842-3.63-.552-5.28-.096-4.752 2.958-9.378 6.684-14.97 7.992-3.114.66-6.036 2.148-9.216 2.16-.318-.06-.768-.378-.702-.69 7.29-4.314 13.482-11.616 22.128-13.326 1.59-.258 3.372.048 4.704-.726-.258-1.08-1.158-1.842-1.542-2.85h-.45l.006.318c-3.108 1.806-6.93 1.83-10.62 2.298-3.3 1.032-7.392-1.29-10.428 1.206-2.472.972-5.46 1.5-8.148.492-1.53-1.194-4.146-2.58-3.78-4.806.702-.126 1.338-.198 2.028-.342 3.96 1.386 8.598.528 12.024-1.662 2.598-1.476 5.52-2.388 8.382-2.844 2.076.222 3.756-.774 5.91-.414l-2.16-2.448c-1.668.762-3.342 1.62-5.28 1.404-2.49-1.134-5.664.156-8.79-.396-3.498.222-6.594 3.234-9.978 1.662-3.072-1.956-6.33-3.396-9.456-5.094-.894-.576-1.92-1.458-1.8-2.604 1.014-1.092 3.114-.396 4.2-.6 5.724-.792 9.876 2.358 14.916 3.228 2.142.312 4.788 1.086 6.816.234l1.422-.366c.84.6 1.74 1.116 2.652 1.512.066-.114.126-.318.252-.444 1.14-.186 2.286-.012 3.438-.6l-.006-.246c-1.212-.504-2.544.588-4.008.414-3.06-1.008-5.436-4.116-5.904-7.224.954-.456 2.166-.468 3.312-.468 1.458.12 2.418.942 3.318 2.076.384.762 1.41 1.71.714 2.472-.834-.69-1.974-.996-3-.996 1.404.576 2.682 1.386 3.966 2.52 0-.06.06-.186.186-.12.192-.252-.192-.756.378-.828-.834-1.464-1.356-3.234-2.826-4.314.126-.258.318 0 .51 0-.258-.576-.264-1.596-1.092-1.596-.774-1.008-1.734-1.824-2.628-2.832-.702-.258-1.404-.636-2.166-.246-4.11 3.468-9.054 7.512-14.67 5.694-4.086-2.58-8.676-4.08-13.206-5.634-1.152-.318-2.424-.246-3.444-.882-.45-.69-.138-1.584.552-1.968 4.572-2.19 9.102.072 13.878.162 4.398.984 9.498 1.842 13.632.942.696-.462 2.16-.402 2.088-1.422-.822.39-1.71.702-2.538 1.092-1.53-.12-3.876.726-5.028-.21-.51-1.092-1.218-2.16-.912-3.438 1.074-1.404 2.724-2.25 4.572-1.872.066.126.324.258.198.432 1.398.444 2.61 1.326 3.702 2.406-.06-.132.126-.192.186-.318-.132-.504-.576-.636-.9-1.008-.828-.576-2.034-.762-2.424-1.656l-.768-1.014c-.366-.378-1.014-.648-1.53-.738-2.55.006-4.464-1.056-6.876.03-3.3 2.136-6.918 3.552-10.404 5.226-2.292.012-4.458-.15-6.618.612-3.126-.738-6.252-1.548-8.742-3.504 3.042-2.052 6.606-1.44 10.11-1.65 5.148-.738 9.456-3.75 14.286-5.382 1.206-.198 2.61-.138 3.756-.468-.516-1.08-1.476-1.956-2.316-2.976-1.974-.306-3.294 1.674-5.142 1.944-2.658 1.992-5.016 1.488-8.01 1.698-.57-.114-1.014.588-1.464.012l2.154-1.722c1.2-1.278 2.406-2.376 3.414-3.714.162-.372.348-.762.57-1.146l1.344.054" fill="#1d5c42"/><path d="M329.615 161.888c.612-.984 1.392-1.908 2.226-2.508.834.648 1.47 1.206 1.986 2.028l-.444.39c-.9.57-1.884-.024-2.748-.036l-1.02.126" fill="#efe8c7"/><path d="M251.405 193.13c.012 1.722.276 3.564-.864 4.842-.702-.936-1.032-2.604-1.164-3.552.252.318.384.762.768.894 1.458-.846.492-3 1.692-4.164.258.702-.312 1.35-.432 1.98" fill="#9a3b26"/><path d="M435.299 191.126c.258 1.008.9 1.968.846 2.988-.834-.312-.906-1.59-1.164-2.484-.066-.246-.006-.63.318-.504"/><path d="M259.24 193.976c2.653 6.984 6.709 13.452 10.5 19.794l.127-.132 3.858 5.394c.258.762-.948 1.278-1.392 1.908-6.798-8.412-12.018-18.126-15.648-28.158.894.186 1.722.876 2.556 1.194" fill="#9a3b26"/><path d="M397.96 195.944c-1.025-.936-1.733-2.4-1.235-3.996l.192-.072c.516 1.278 1.926 2.664 1.044 4.068m-94.291-1.872l.697-.576 1.284 1.836c-.504.378-1.71 1.092-1.386 1.914.324.702 1.536 1.524.462 2.286-8.166 7.38-15.822 14.622-23.664 22.626-4.746 3.918-9.624 8.334-14.37 12.246-.522-1.71-1.362-3.294-1.5-5.142 2.598-2.052 4.488-4.992 7.278-6.918 8.406-9.738 18.276-18.96 27.186-28.698l.432-.234c1.332.444 2.25 2.004 3.576.66" fill="#773141"/><path d="M431.675 192.674c.132.762.336 1.908-.366 2.484l-.204-2.73c.186-.012.378.06.57.246m-2.856 1.362c-.504.198-.822.702-1.392.516.504-.762 1.392-.966 2.022-1.536.516.246-.372.816-.63 1.02m-181.68 9.114l-.252.198c-.456-1.722-.846-3.042-1.494-4.698-.636.186-.696.948-1.008 1.41l.078 2.598h-.192c-1.29-2.586 1.758-4.278 1.296-6.948-.876 2.754 1.554 4.71 1.572 7.44"/><path d="M397.793 199.322c-.576.066-1.152-.81-1.536-1.254-.39-.762-.204-1.854.234-2.556 1.218 1.02 1.668 2.154 1.302 3.81" fill="#773141"/><path d="M431.2 197.582c-.377 1.266.403 2.994-.42 4.008l-.191-.186c-.006-1.206-.276-3.06.612-3.822"/><path d="M397.42 200.912c-.317.444-.311 1.02-.437 1.464-.132-.69-.264-1.77-.21-2.598.636 0 .456.762.648 1.134" fill="#773141"/><path d="M428.74 201.158l-1.145.012c.57-.444 1.524-.528 2.028-1.29.384.636-.438 1.02-.882 1.278"/><path d="M385.829 210.476c-2.1.084-4.008.15-5.142 1.758-.318-.186-.324-.96-.834-1.02-.576-.822-.966-1.77-1.608-2.604.762-.516-.39-.816-.264-1.392 1.842-.516 3.936-1.428 5.394-2.892 1.392-.966 2.718-2.568 3.726-4.044.09 3.762.684 7.008-1.272 10.194" fill="#b3995d"/><path d="M246.149 207.356c-.066.072-.126.144-.252.144-.516-.444-.264-1.278-.84-1.596-.444.648-.816 1.596-1.452 1.926.816-1.596 2.208-3.144 1.812-5.172l.438-1.146c-.054 1.65-.864 4.074.294 5.844m184.451-4.17c0 .576.133 1.266-.245 1.854h-.318c.186-.576-.006-1.464.564-1.854"/><path d="M370.085 206.948c-1.776.456-4.008-.108-5.598.924-1.968.012-3.804 1.68-5.838 2.208.504-.894 1.386-1.794 1.38-2.748.828-.456 2.166-.078 3.18-.336 2.232-.012 4.134-.858 6.102-1.572l.774 1.524" fill="#b3995d"/><path d="M412.739 207.884l-.126.132c1.032 1.578 1.296 3.492.864 5.274-.06.258-.318.444-.57.324-1.032-2.094-.99-4.896-1.002-7.308.51.372.768 1.008.834 1.578m-173.142.354l.276 3.618c1.404.12 2.67-1.344 3.486-2.508.39 1.08.906 2.286.024 3.318-.696.894-1.776 1.092-2.598 1.734-1.086 0-1.584 1.218-2.604 1.608-.264-2.16-.096-5.472.396-7.77.318 0 .696-.516 1.02-.012m57.306 1.806c1.272.174 2.478-.33 3.306.102l-.084 6.996c-1.584.528-3.822-1.17-4.896.612.078 2.028-.474 5.028-.78 7.326-1.782.138-3.498.21-5.154.222-.084-3.18.144-7.068.192-10.188l-.132-.126 6.834-6.54c.384.504-.372 1.476.714 1.596m137.19 2.238v.06c-1.212-1.14-1.8-2.85-2.316-4.446.774 1.464 3.834 2.652 2.316 4.386m-97.668-2.742c.336 2.286.03 4.008.168 6.102.132.246.45.192.702.192 1.14-.648 1.278 1.062 2.298 1.38l1.146.306c-.114 1.59.27 2.928-.348 4.266-1.848.078-3.312.282-5.022.924-.114 2.556-.096 5.1-.396 7.698-1.908.27-3.756.024-5.736-.21-.33-2.61.09-6.114.39-9.036l-.258-.186-3.498-.108c-.396-2.226-.414-4.908.402-6.876 1.59-.144 2.988.162 4.452-.282l.252-.198.426-3.69c1.584-.966 3.18-.156 5.022-.282m73.074-.672c.534 2.988 2.724 7.5-.51 9.75-.27-2.484-.096-5.352-.81-7.824-.39-.834.492-2.172 1.32-1.926" fill="#9a3b26"/><path d="M427.259 208.622c-.312.954-.624 2.04-1.572 2.556.372-.888.942-1.98 1.572-2.556"/><path d="M248.579 218.81c-1.266 1.53.15 3.876-1.116 5.28.192.258-.252.516-.312.834l.132.06c-.132 0-.192.072-.258.126-.132-.816-1.656-.69-1.158-1.824-1.722-1.71-.528-3.822-.732-5.922l-.318-.372c-.63 1.02-.048 2.544-.87 3.432.198 1.266-.942 2.298-1.062 3.576 1.086.114.756-1.536 1.386-2.166.324.558.84 1.65 1.164 2.526-.504.966-.432 2.1-.87 3.06l-.834-.762c-1.014.714-.498 2.112-.678 2.94-.888 1.092-.99 3.438-3.162 2.688-.252.138-.636.138-.822.456.132.948 1.08.06 1.518.246.702.114 1.272-.27 1.782-.588.126-.384.69-1.146 1.068-1.722.39.822.522 2.1 1.608 2.346-.372 1.908-.036 3.876-.408 5.856.264 1.596-2.526 2.556-2.262 4.41-.51.186-.054.762-.504 1.02-.456-1.584-.906-3.18-.918-4.962 1.386-1.344 2.772-3.324 2.004-5.496-1.08.402-1.2 1.734-2.346 1.866-.252-.378-.384-1.008-.96-1.008-.504.186-.246.762-.564 1.146-.456-1.02-.21-2.538.234-3.558 1.644-.774 1.38-3.072 2.454-4.29.114-1.152.876-2.358-.21-2.862-.396-1.968-.792-3.936-1.758-5.718-.702-.114-.888.516-1.266.972.114-1.086-.846-2.928.294-3.948l1.638-1.608.192.258c1.14-.642 2.478-1.17 3.234-2.19.516.948.84 2.226 1.038 3.432.192.192.636-.066.702-.384-.138-1.278-.846-2.604-1.11-4.008.762-.126.882-.96 1.134-1.464.912 2.916 1.056 5.658 2.922 8.322" fill="#efe8c7"/><path d="M248.945 216.77c.132.312.132.888.012 1.278-1.29-2.226-1.752-4.77-2.34-7.242.45.372.96 1.38 1.596.69l.444-.456.126.126.306-.576c-.36 1.914-1.11 4.08-.144 6.18" fill="#9a3b26"/><path d="M244.895 210.806c-.06.198-.126.384-.252.456v-.444l.252-.012" fill="#efe8c7"/><path d="M427.787 211.04a10.092 10.092 0 01-1.512 2.484c-.198-.948.876-1.914 1.512-2.484"/><path d="M374.579 213.23c-.888.06-1.782-.246-2.862.33-.252 0-.762.012-1.14.27-.186 1.134-.3 2.916-.42 4.452-1.908.138-3.882.024-5.592 1.05l.006 1.278c-3.048.462-5.352-.792-8.28-.654.636-.444 1.656-.456 2.286-1.158 2.598-1.218 4.95-2.64 7.356-4.188.888-.384 1.71-1.476 2.856-1.734 1.458-.828 2.472-1.602 4.194-1.17.51.63 1.152.876 1.596 1.524" fill="#b3995d"/><path d="M376.253 215.504c-.948.888-3.108 1.806-2.4 3.516.132.312.576.57.582.948-2.868.024-6.162 1.944-9.162.63-.198-.702.114-1.518 1.008-1.53 1.464-.012 3.054-.402 4.326-.084.882-1.734.366-2.802.672-4.596 1.53-.012 4.698-1.872 4.974 1.116" fill="#9a3b26"/><path d="M383.153 219.662h-.252c-.138-1.08.108-2.868.672-3.762-.12 1.092-.108 2.742-.42 3.762m42.126-2.754c-.894.33-1.968 1.218-2.862.588 0-.246.318-.132.444-.132v.132c.762.06 1.524-.648 2.418-.588"/><path d="M239.423 220.388c.39 1.782 1.164 3.306 1.434 5.16 1.08.492.198 1.836.144 2.73-.576.312-1.332 1.02-1.974.582-.012-2.484.096-5.028-.618-7.254.186-.57.504-.9 1.014-1.218" fill="#9a3b26"/><path d="M260.885 222.548l2.778 6.03c-1.65 1.152-3.426 2.184-4.752 3.72.006.312-.504.57-.12.888-.06.132-.252.132-.384.132-1.92-2.22-6.9-3.966-5.772-7.536.936-2.43 3.216-4.536 5.694-5.064 1.206-.138 1.854 1.008 2.556 1.83" fill="#773141"/><path d="M381.635 220.94c-.636.258-1.596-.564-2.484-.42l-.006-.444c.828.3 1.914.234 2.49.876"/><path d="M246.839 225.818c-.24 1.908-.798 4.464-1.614 6.57h-.192a7.584 7.584 0 01-1.17-4.38c.702.432 1.398-.144 1.584-.774l.432-2.238c.444.06.576.576.96.822" fill="#9a3b26"/><path d="M278.11 228.356c-.185.504-.245 1.02-.563 1.524.006.648-.498 1.218-.432 1.794.264 1.08-.942 2.04-.552 2.988.72 3.174 5.19 5.508 3.366 9.024.006.762-.18 2.154.276 2.988-.51.69-1.02.132-1.53.258-1.836 1.476-1.188 3.258-.666 5.154.342 3.894-3.27 6.462-1.656 10.212-1.002 2.154.03 4.194.048 6.546-.378.708-1.524.834-1.584 1.794 1.098 2.73-1.422 5.226-.84 8.148-2.274 1.8 1.05 4.392-1.35 6.186-.06 1.08.138 2.154.018 3.114-.768-.63-.654-2.796-2.052-2.022.132.9.204 1.776.144 2.61-.378.186-.894-.564-1.272.012-.174 2.154 1.104 3.678 1.944 5.394l.57-.258c.138 1.014.396 2.094-.168 3.114l-.696.642.126.132c-.636.258-.642-.948-1.404-1.008-.702.06-.57.258-.888.834-.312.63.078 1.782.144 2.472-.318-.246-.702.012-.954.27-1.536-1.524 1.128-3.39-.6-4.584-.384-.126-.51.258-.894.132-.51-.822.054-1.716-.966-2.286 1.716-.258 2.274-2.112 2.652-3.45-.132-.828.18-1.662-.27-2.424.948-.702 1.512-1.98 2.082-3-.066-.258-.198-.63-.516-.702a44.798 44.798 0 00-1.89 3.456c-.636.132-.822.834-1.26 1.278-.138-1.134-1.092-1.896-1.416-2.988 1.332-.444 1.962-2.112 3.096-2.628 1.326-1.218 1.32-3.054 1.242-4.71-.966-1.392-1.968.774-3.114.846-.006-1.08 2.022-2.94.42-3.822-.828 0-1.014.834-1.71 1.164.06-1.02-.39-1.782-.78-2.616l-.438-.114c.564-1.092.42-2.556 1.878-3.144.126-.576 1.014-.948.69-1.596-.882-.174-.882 1.032-1.446 1.536l-1.074.774c-.204-1.464-.216-3.048.09-4.578-.012-2.1-.342-4.2.342-6.492.438-1.152 1.968-.774 2.274-1.998.06-.63.312-1.518.054-2.034-.702.138-1.398.84-2.16.594-.588-2.544 1.176-4.908.21-7.134 1.644-1.218 1.95-3 2.256-4.854.45 0 .582 1.266 1.152.564-.066-.69-.774-1.134-1.41-1.326-.51-.06-1.02-.306-1.278-.816.18-1.338.042-2.994 1.248-3.636.894.186 2.04.048 2.544-.714-.516-.948-1.032-2.154-.468-3.246 1.596 1.008 3.18-.27 4.644-.666 2.466-2.052 2.766-5.172 3.642-7.986.444.33 1.02.762 1.152 1.266" fill="#efe8c7"/><path d="M381.095 226.556c.966 1.134 1.548 2.4 2.124 3.666-1.338-.504-2.742-.81-3.828-1.818-.894-.186-1.722-.564-2.616-.678 1.338-.084 3.048-1.23 4.32-1.17" fill="#b3995d"/><path d="M374.675 227.738c-.636.126-1.272.33-2.034.138.57-.384 1.332-.012 2.034-.138m-3.18.024c-.318.444-.894 0-1.404.258.318-.444.954-.132 1.404-.258" fill="#9a3b26"/><path d="M410.62 234.83l.133.114c-.636.198-2.04.15-2.544.972-.114 2.238 2.058 3.108 3.216 4.758.258.576 1.092 1.266.588 2.1-.51.504-.888 1.206-.756 1.782 1.41.816.78 2.094.468 3.246-.432 1.908-3.762-.492-2.724 2.046.45 1.08 2.43 1.458 1.866 2.85-.504.714-.432 1.98-1.386 2.178-.642-.63-1.41-.948-2.172-1.194-.636.576.072 1.464.456 2.028 1.032 1.842 1.872 4.134 1.632 6.036-.444.198-.894.198-1.272.528-3.156-5.394-6.564-10.782-9.714-16.242l-.33-1.266c2.46-4.092 6.066-7.488 7.944-11.826-.048 2.484-1.044 5.346-2.112 7.77.126.198.318.258.576.258 1.38-2.682 2.064-5.874 2.232-8.742l-.378.012c.504-.894.936-2.742 1.374-4.152.462 2.802 5.112 3.402 2.904 6.732" fill="#efe8c7"/><path d="M265.21 232.13c.457 1.152.913 2.544.919 3.624.444.246.45 1.134.582 1.71-.636-.12-1.53.012-1.722-.75-1.98-.492-4.086-1.818-5.622-3.21.558-2.172 3.036-3.012 4.68-4.362.768.702.84 1.968 1.164 2.988" fill="#773141"/><path d="M289.457 230.948c.39 1.02-.438 1.278-1.134 1.608-2.604.582-6.36 1.05-8.22-1.224-.132-.498.12-.888.312-1.146 2.736-.084 6.234-.738 8.85.198l.192.564m-1.128 2.496c.324.444.894.504 1.026 1.008-.636.33-1.464.396-2.292.396-.258-.63-1.02-.63-1.47-1.134l2.862-.714c-.192.072-.06.318-.126.444m5.736 1.488c.138.894-.498 1.662-1.254 2.178-1.716.648-3.756.786-5.604-.09-.51-.318-1.026-.822-1.026-1.452 2.868.546 4.824-1.5 7.44-1.2l.444.564" fill="#9a3b26"/><path d="M263.717 237.302c-7.848 7.242-14.796 15.3-23.67 21.336-.444-.246-.39-.948-.39-1.524l1.134-1.908c5.178-5.892 10.56-10.956 15.936-16.524 1.074-1.158 2.016-2.556 2.646-4.032 1.41 1.008 2.94 1.698 4.344 2.652" fill="#773141"/><path d="M239.35 239.36c-.827-.186-.455-1.65-.395-2.154.57-.198.312-.96.69-1.35.198.39.774.894 1.404.636l1.14-1.032c-.114 1.536-1.188 3.444-2.838 3.9m186.954-1.38c-.648-1.146-1.608-1.908-2.88-1.71-1.524.456-2.982 1.356-4.44 2.064-.132-.504-.516-1.068-.456-1.584.702-.198.882-1.152 1.452-1.476 1.602 1.32 3.06.36 4.716-.024.384.318.768.69 1.398.564.444-.39.828-.648 1.14-1.152.006.948.084 2.664-.93 3.318m-123.15 4.536c6.198 3.528 12.834 5.832 19.782 7.32-.696.894-1.842 1.032-2.406 1.998.06-.204-.198-.762-.576-.708-4.212-1.11-9.048-1.146-12.378-3.792l.126-.144c-1.464-.552-3.06-.924-4.404-1.806-3.954-1.824-7.608-5.166-11.628-7.242.822-.324 1.584-.582 2.22-1.29 2.814 2.532 6.198 3.774 9.264 5.664" fill="#9a3b26"/><path d="M243.55 239.138c-.125.198-.317.258-.57.198l-.455-1.206c.636-.444.708.636 1.026 1.008"/><path d="M426.245 238.67c.384.702.072 1.656-.114 2.358-.948.57-1.836 1.158-2.274 2.238-.258-.576-.834-.822-1.41-.822l-.126.138c-.066-.126 1.068-2.682-1.032-1.968-.126-.384-.192-.762-.576-1.02-.57-.126-.822.33-1.332.33 0-.126 0-.63-.132-.888 1.716-.906 3.228-1.992 5.274-1.89.696.318.894 1.278 1.722 1.524" fill="#efe8c7"/><path d="M241.553 245.198l-.246.96c-1.476-1.266-1.362-3.36-1.818-5.142.06-.444.12-1.02.63-1.152.204 1.914.534 3.624 1.434 5.334" fill="#9a3b26"/><path d="M406.067 239.372c-.306 1.722-.738 3.318-1.368 4.914h-.318c.63-1.596.552-3.438 1.308-4.914h.378M271.9 242.726c.085 2.658-.545 4.452-.78 7.122-.377.462-.63 1.092-1.2 1.35-.51.072-.635.072-1.085-.06.318-.516 1.59-.774 1.71-1.722.12-.834.306-1.662.24-2.424l-.828.576c-.126-.12-.126-.378-.318-.438 1.458-.9 1.638-2.55 1.566-3.96-.51-.186-.762.516-1.146-.306.12-.516.822-.258 1.14-.456l1.518-1.278c.39.762-.504 1.02-.816 1.596"/><path d="M421.87 241.31c-.053 1.722-2.027 1.662-2.723 2.88l.132.132-.384.198c.318-.774.432-2.298-.018-3.186-.072-1.08 1.146-.33 1.65-.846.006.642.774 1.278 1.344.822" fill="#9a3b26"/><path d="M274.457 243.848c.066.708.834 1.398.204 2.1l-.324-.69c-.636.432-.18 1.968-.942 2.154l-.192-.444c.114-1.842.678-3.504 1.11-5.154.708.444.072 1.332.144 2.034"/><path d="M421.21 247.742c-.521-1.266.175-2.616-1.043-3.552l1.584-1.158c-.882 1.722 3.078 3.606-.54 4.71" fill="#efe8c7"/><path d="M423.73 244.04l.703-.204c0 .318-.438 1.41-.942 2.04-.138-.948-1.41-1.578-.786-2.73.516.132.516.762 1.026.894" fill="#9a3b26"/><path d="M407.243 243.38c-.492 3.438.174 7.698-.888 10.95l-.444.006c.936-3.258.402-7.062.888-10.764.126-.132.252-.318.444-.192"/><path d="M419.855 245.024c.768.936-.174 2.916 1.296 3.42.378-.198.888-.456 1.14-.96l.318-.012c-.306 1.662-1.764 2.88-2.52 4.416-.27-2.298-2.322-4.44-1.38-6.864.324.504.762 0 1.146 0m-89.94 1.332c-1.452 1.854-3.288 3.588-4.926 5.568-.954.39-1.842 1.29-3.054.786l-.576-.576c2.286-1.536 4.878-3.786 6.84-5.634.192-.132.888-.198.57-.588.384.132.828.132 1.146.444" fill="#9a3b26"/><path d="M305.483 247.79c-.63 1.074-.048 2.226-.87 3.186-.054 2.1.594 4.008.864 5.718.318.186.192.576.576.576.378-.648-.264-1.464-.396-2.172l-.33-1.836c.834 1.206 2.364 1.122 3.762 1.254.588 1.836-.042 3.75-.282 5.532-.12 1.59 1.674 2.856 1.05 4.638.27 2.226-1.314 4.08-.978 6.306.006 1.218 1.476 2.544.15 3.564l-1.146.138c-.444.702.198 1.278.33 1.968-1.41-1.392-1.044-3.75-2.64-5.13-.852-3.06-.36-6.048-.57-9.108l-.192-.186-.252.318c.078 2.292-.474 5.796.432 8.274.072 1.086-.81 2.034-.678 3.312.21 2.934-.792 5.1-.39 8.346.324.69 1.146.114 1.596.36.396 2.358 3.63.75 3.33 3.294.396 2.286-.102 4.326-.282 5.988-.39-1.662-.594-3.69-1.878-4.698a1.988 1.988 0 00-.372 1.464l-.156 5.532c-.198-1.008-.45-2.286-1.026-2.79-.45-.126-.828.39-.828.702-.672 4.152 3.36 7.878 2.112 12.012-.234 2.484-.6 4.974-2.25 6.894.006.384.006.702.006 1.02 0-.318-.384-1.14-.9-1.326-.438.636-.234 1.596-.552 2.298-.63 1.02-.558 2.298-1.38 3.186-.39-1.968-.474-4.452-1.248-6.606-.258-.258-.642-.504-.96-.258l-.438.456c-.714-2.04-1.248-5.532-.372-7.644.51-.444.312-1.392.624-1.968 2.214-2.25 3.6-4.734 4.344-7.674l-.384-.378c-.882.894-2.22.966-2.85 2.184-.33-1.524-1.23-3.18-2.892-3.996-.006-1.584.432-2.418.93-4.008 1.902-.846 4.122-2.196 5.004-4.23l-.258-.39c-1.65.66-3.3 1.674-5.214 1.314.246-1.338.69-1.596 2.154-1.92.636-.258 1.65-.402 2.028-1.29.06-.762.432-1.98-.336-2.418-1.326.774-2.604.462-4.128.732l-.258-.258.816-1.728c-2.238-1.452-1.044-3.864-1.506-6.03.384-.132 0-.636.444-.576-.516-.702-1.02-.69-1.41-1.398.12-1.272 1.38-3.126-.594-3.876-.204-1.71.36-2.802.348-4.452-.384-.702-1.212-.636-1.53-1.266l.24-2.166c2.796-.012 5.904-1.89 7.416-4.632.564-1.65 1.95-3.258 1.242-5.154.444.054.306-.462.63-.588.708.762 2.352.69 2.298 1.584" fill="#efe8c7"/><path d="M335.65 247.028c-.491 3.174-3.401 5.808-6.39 6.654-.317 0-.887-.06-.893-.432 1.716-1.032 3.426-1.932 4.626-3.672.756-.96 1.26-2.238 2.4-2.808l.258.258" fill="#9a3b26"/><path d="M301.853 247.496c.774 1.524-1.266 1.086-1.836 1.794-1.02.126-1.908-.048-2.616-.624a1.627 1.627 0 01-.39-1.278c1.782-.324 3.516 2.148 4.842.108" fill="#efe8c7"/><path d="M404.525 247.142c-.114 1.854-.354 3.834-.918 5.616-.126 0-.192.072-.186.126-.39-.702-.012-1.65.174-2.412l.678-3.318h.252"/><path d="M363.089 294.83c.324.36.786.714.948 1.026.318.45 1.02.492 1.338.108.504-.318.822-.702 1.524-.576-.108 2.742-3.6 4.476-2.628 7.266.318.318.96.822 1.53.444l1.584-1.734c.078 2.934-2.01 5.04-3.966 7.032-.984-4.452 1.152-8.79-1.23-13.098.024-.354.066-.684.144-1.008l.756.54" fill="#9a3b26"/><path d="M362.549 293.63c.084-.222.192-.42.324-.63l-.126-.06c.612-3.126 4.488-4.11 3.384-7.734-.45-.372-1.398-.174-1.974-.552.372-.9.876-1.722 1.128-2.61-.516-.894-1.464.066-2.166.198-.63.444-1.008 1.218-1.452 1.848-.396-2.856-1.5-6.348.84-8.598-.708-.882-2.802.468-2.304-1.572-.006-.96.306-1.908 1.134-2.298.948-.828-.204-1.59-.336-2.412-.588-2.028-.852-3.81-.732-6.174 1.008-.072 1.896-.714 2.4-1.536-.768-.444-2.1-.564-1.722-1.902l-.006-.384c1.212-.132 2.154-1.032 3.426-1.044.126-.114.318-.246.318-.444-.384-.432-1.722-.432-1.032-1.392l1.38-3.06c.96.63 1.23 2.472 2.754 2.274l.444-.39c.582 1.71.408 3.75.606 5.664.132.126.258.126.45.198.57-.456-.006-1.218.114-1.854.246-1.968-1.104-3.822-.162-5.472.18-1.464.552-3.06.546-4.464l.444-.444c.018 3.558 1.572 6.924.192 10.626.204 1.656 2.058 2.718 1.62 4.44.258.258.636-.054.702-.312 1.128-2.172-3.144-3.294-.93-5.532.054-1.98-.342-3.948-.48-5.73 1.794 2.028 1.302 5.082 3.672 6.786.132.516.702.762.708 1.332-1.194 2.112 1.614 3.366 2.004 5.274-.504.894-1.782.072-2.088 1.164-.126 1.074 1.284 2.214.144 3.102-.636.27-1.458.396-2.034.342-.444.384-1.272-.12-1.65.582.456 2.028 1.422 3.81 2.328 5.58-.312 1.092-.624 1.854.018 2.874-.258-.072-.51.126-.57.384 0 .186.126.504-.06.636-.192-.318-.642-.822-1.086-.564-.252.312.066.372-.06.69-.384-.378-.636-1.068-1.404-1.008l-.252.33c.462 2.154 1.74 3.924 3.024 5.706.258.246.384 0 .57-.072 1.038 2.16-1.236 4.152-1.098 6.492-.696.714-.816 1.278-.558 2.298-.114 1.464.408 3.822-.408 5.286h-.126c-.396-1.782-1.554-3.294-2.07-5.016-.192-.12-.324-.318-.576-.246-.378 1.02-.24 2.286-.108 3.306a29.306 29.306 0 002.076 5.274c.252.126.312-.132.504-.192-.06.318.072 1.266-.114 2.04-1.152-1.086-1.032-2.61-1.992-3.75-.318-.126-.444.132-.696.33-.24 2.598 1.362 5.076.294 7.44-.69 1.152-2.214.972-3.102 1.992-.576-.576-.522-2.226-1.728-1.638l-.06.126c-.132-.258.186-.384.06-.702l-.192-.186c.882-1.218 1.962-1.806 2.142-3.132 1.074-1.158 1.128-3 1.428-4.476-.12-.246-.06-.762-.57-.69l-2.274 2.556c-.768-.306-.39-1.452-.336-2.1.372-2.094 3.168-3.198 2.256-5.61-1.02-.438-1.842.396-2.538.84-.522-.336-.81-.912-1.182-1.392l-1.068-.636" fill="#efe8c7"/><path d="M273.245 253.73c-.126.186-.378.258-.57.258-.642-1.02-.336-2.484-.276-3.576l.378-.444c.642 1.08-.366 2.61.468 3.762"/><path d="M330.263 250.94c-1.266.702-2.658 2.124-4.194 1.044l1.326-1.608c.96.192 1.848.564 2.868.564" fill="#9a3b26"/><path d="M302.909 253.214c-.246 1.854-.108 3.504.348 5.214-.702-.114-1.458.648-1.902 1.158-.258-.816.948-1.218 1.452-1.722-.132-1.332-.204-2.412-.342-3.63-.444.198-.504.516-.822.9-.132-.63.756-1.476 1.266-1.92m-31.824.774l-.558 3.06c-1.272-.438.054-2.16.048-3.306.252-.072.318.114.51.246m133.812 1.056c-.066.054-.126.126-.252.126-.45-.63-.078-1.524.108-2.166.708.318.138 1.536.144 2.04"/><path d="M393.677 293.864c.972 2.184 0 4.794-1.092 6.774-.444.576.258.636.582.882 2.286-.144 2.142-2.874 3.852-3.906.894-.126 1.344.636 1.986 1.008 1.32-1.734-1.044-2.988-1.05-4.71-.066.06-.126.198-.258.132-.444.384-.882 1.404-1.836 1.158-.534-.282-1.17-.666-1.626-1.146l-.558-.192" fill="#9a3b26"/><path d="M393.587 293.126c0-.15-.036-.294-.162-.384 2.802-.342 3.03-3.714 4.548-5.58.06-.432.438-1.02.12-1.452-.258-.384-.834-.246-1.146-.132-.384.258-.57 1.164-1.14.846l-1.284-1.134c.378-.33.252-.834.378-1.152 2.67-.468 3.858-3.21 4.74-5.316-1.092-.942-2.028 1.416-2.616-.366-.318-.63-.324-1.392-.9-1.896-1.152-.504-2.412 1.602-2.802-.234 3.108-1.176 5.958-3.096 8.232-5.982 0-.57.438-1.074.12-1.65-1.218-1.392-2.346 1.218-3.558 1.674-1.392.576-2.466 1.734-3.738 2.382.246-1.722-.276-3.504 1.686-4.668.126-.444-.258-.816-.576-.816l-.57.012c.306-1.476.042-3.246 1.308-4.338.12-1.218-1.914-.762-1.29-2.1.312-1.59.81-3.312.48-4.896 3.084 4.62 5.79 9.378 8.874 14.004-.126.258-1.152-1.134-1.464.012-.18 1.524.66 3.12 1.494 4.44-.576-.306-1.152-1.134-1.92-1.194-1.71.9-.174 2.616.024 3.876.708.576.906 1.596 1.794 1.902-.054.834.264 1.722-.174 2.298-1.026-1.398-1.422-3.492-3.144-4.188-.438 1.224-.048 2.874.156 4.212.45 1.392.906 2.844 1.86 3.936-.75 1.452-.48 3.174-.216 4.77-1.47-1.512-1.992-3.492-3.024-5.262-.192-.06-.318.126-.444.258l.132.432-.576.258c-1.002 2.556.102 5.358 2.214 7.182-.06 1.08-.432 2.556-.996 3.702-.96-1.002-.906-2.538-1.872-3.546-1.014.066-1.134 1.278-2.022 1.464a6.723 6.723 0 01-1.53-1.116l-.996-.246" fill="#efe8c7"/><path d="M271.673 257.162c.018 1.854.348 4.008.102 5.616-.252.258-.51.126-.576-.192l-.03-5.28c.192 0 .252-.204.504-.132m33.126 3.354l-.126.114c-.45-.75-.588-1.956-.462-2.844.384.69.198 1.836.588 2.73m70.091 1.008l-.185.444c-1.086-.492-1.284-1.71-1.608-2.718l.186-.456c.708.762.714 1.98 1.608 2.73m-41.688 1.29l-.312.372c.768.576-.054 1.536.204 2.166-.876 2.358-.03 4.968-.714 7.584h-.45c.432-2.742-.162-6.048.84-8.85l-.132-.57-.57.702c-.192-.258-.45-.258-.324-.69l1.014-1.164c.318.06.252.45.444.45m-29.97 1.908c.144 2.04-.096 4.524-1.104 6.306l-.252.012c-.132-.648.564-.906.69-1.476.048-1.974.798-4.008.15-5.85.324.174.324.69.516 1.008m65.507.15c-.365 2.988.289 5.922.439 9.096l-.57.012c-.018-2.874-1.128-6.366-.06-9.108h.192m-97.008.75c-.564 1.668-.234 3.564-1.05 5.286.132.39.324 1.08-.438 1.152l-.192.006c.624-2.034.42-4.518 1.422-6.444h.258m98.622 2.616c-.432 2.67.54 4.836.426 7.44-.126-.06-.192.072-.252.072l-.192-.186c-.336-2.49-.99-5.16-.432-7.704.06-.312.378-.456.696-.456.318.318-.252.516-.246.834"/><path d="M400.979 269.96c-1.89 2.568-4.614 4.806-7.728 5.646.366-2.916 3.606-3.774 5.694-5.19l1.902-1.722c.51.318.072 1.02.132 1.266" fill="#9a3b26"/><path d="M269.47 270.242c.325 1.266-.557 2.412-1.253 3.114-.132-.504.564-1.392.684-2.166 0-.372.06-.948.57-.948m33.426 1.056c-.126.762-.564 1.464-.882 2.034-.318-.702.504-1.272.564-2.034h.318m.132.876c.006.96.078 2.37-.426 3.132-.006-.894.18-2.04.3-3.12h.126"/><path d="M305.447 272.294c.966 1.722.792 4.134 2.898 5.016.33 1.896-.168 3.372-.666 5.094-.45.06-.57.636-.312 1.02l.192.186c-1.146.258-1.29-2.154-3-1.452-.09-3.552.594-6.36.636-9.864h.252" fill="#9a3b26"/><path d="M335.435 272.924c-.246 1.722-.552 3.636.732 5.028.258.126 0 .318-.126.444-.636-.246-.894-1.074-1.218-1.71-.264-1.338-.276-2.988.42-4.008l.192.246m-6.876.234c-.564.588-1.266.972-1.896 1.422-.324-.504.312-.648.564-1.02.378-.258.954-.462 1.332-.402"/><path d="M264.803 277.388c.702-.126 1.272-.456 1.716-1.032-.186 1.224-1.578 2.628-.552 3.648a4.553 4.553 0 002.472-1.17c.072.888-.048 2.292-.294 3.312-1.458.906-2.022 2.742-3.738 3.27-.15-3.822.276-7.068-.768-10.758.516.822.27 2.1 1.164 2.73m139.914-.702a2.479 2.479 0 00-.372 1.65c-.9-1.26-2.178-2.658-1.872-4.38.96.63 2.172 1.71 2.244 2.73" fill="#9a3b26"/><path d="M339.593 276.332l-.186.33c-.576-.186-.834-.444-1.278-.888l.12-.378c.51.246.894.564 1.344.936M368.507 278l.57.06c-.552 2.868.486 6.492-1.788 8.538h-.258c1.512-2.55 1.368-5.61 1.476-8.412-.444.702-.432 2.04-1.386 1.98-.132-.504.438-1.02.558-1.584.57-1.158.234-2.424 1.002-3.252l-.174 2.67"/><path d="M396.58 279.032c.33.948 1.405.504 2.04.36-.75 1.794-2.01 3.576-3.977 4.176-.714-1.338-2.058-2.79-1.05-4.398.252-.444.378-1.134.306-1.59.636-.06 1.146-.39 1.716-.576l.966 2.028" fill="#9a3b26"/><path d="M370.427 280.34l.006.516c-.828-.444-.582-1.524-.78-2.412l.126-.588c.384.648.582 1.596.648 2.484"/><path d="M299.519 280.61c-.636.39-1.398.204-2.034.576-.642-.372.18-1.452-.27-2.154 1.272-.072 2.742.102 4.008-.6.834 1.338-.816 1.794-1.704 2.178" fill="#9a3b26"/><path d="M333.455 282.302c-.18 1.53-.678 2.868-1.56 4.02h-.384c-.006-.822.69-1.338.942-2.04.558-1.854.738-4.152.66-5.988.96 1.074.018 2.796.342 4.008"/><path d="M403.799 282.098l-.558 2.298c-1.284-1.77-1.62-3.936-1.758-6.162.768 1.338 1.29 2.73 2.316 3.864m-28.776-.126c.45 1.02-.684 2.166-.3 3.174-.834-1.38-2.112-2.532-2.442-4.11.384.114.702.69 1.02.444.126-.144.318-.258.252-.456.324.372.57-.132.888-.132.258.378.072.948.582 1.08" fill="#9a3b26"/><path d="M417.923 281.564c.258.444.33.96.774 1.332.954-.774.9.894 1.602 1.068 1.284 1.908 2.25 3.936 2.838 6.162-3-1.698-6.39-3.468-8.19-6.384-.384-.762.3-1.584 1.008-1.854.636-.114 1.2-.702 1.962-.324" fill="#1d5c42"/><path d="M364.145 282.674c-.126.948-1.644 2.112-.432 2.874l1.722.114c.522 2.028-1.062 3.444-2.454 4.464-.252 0-.636.576-.828.012.24-2.04-.408-3.762-.354-5.73 1.146.12 1.134-1.722 2.346-1.734m-62.448.528c-.816 1.146-2.154 1.734-3.168 2.436-.378-.246-.888-.246-1.146-.69l-.006-.888c1.338.054 3.12-.084 4.32-.858" fill="#9a3b26"/><path d="M369.437 284.294c-.06 1.02.714 2.538-.168 3.186-.39-1.08-.27-1.908-.15-3.174l.318-.012"/><path d="M402.52 291.032c-.065.504-.251.876-.57 1.266-.827-.192-1.47-1.008-1.853-1.704-.906-1.776-.72-2.856-.606-4.896.33 2.04 1.932 3.612 3.03 5.334" fill="#9a3b26"/><path d="M302.993 286.436c-.372 1.92.276 3.444-.096 5.358h-.186c.054-1.02-.138-1.464-.27-2.418-.318.318-.18.954-.762.96a16.27 16.27 0 00.996-3.9h.318"/><path d="M396.509 287.048l.822-.894.006.702c-1.266 1.668-1.824 3.708-3.342 5.184h-.318c2.022-1.866-.726-3.954.66-6.12.768.246 1.158 1.71 2.172 1.128m-129.72 2.364l.57-.576c.138 1.212.084 2.994-1.182 3.762-.258-.126-.576.258-.828.39.372-1.656-.276-3.75-.354-5.658.828.558.15 3.246 1.794 2.082m71.561 1.698c.079 2.298-.03 4.656-.785 6.564-.456-1.65-1.416-2.976-1.872-4.572.762.12 1.08.246 1.524-.384-.078-1.854-.852-3.624-.738-5.472.648 1.266 1.038 2.658 1.872 3.864m-66.018-.972c-1.008 1.092-.048 2.172-.36 3.378-.708-1.266-1.416-2.532-1.62-3.996.324-.072.576.246.828-.012.444-.39.444-1.08.438-1.524.516.63.84 1.452.714 2.154" fill="#9a3b26"/><path d="M332.663 287.84c.132.576-.114 1.338-.432 1.914-.51-.432-.006-1.338.114-1.914h.318"/><path d="M307.187 295.646l-.228 4.14h-.06c-.714-2.358-2.388-4.758-1.896-7.056.708.762-.102 2.298 1.164 2.73 1.08-.516.63-1.596.876-2.424l-.15-4.008c.648 2.04 1.938 4.698.294 6.618" fill="#9a3b26"/><path d="M269.219 291.11c.198.834.906 1.842.588 2.484-.696.204-.45-1.518-1.146-.888.318.258-.066.444-.126.702h-.318c.054-1.074.174-2.544.678-3.444.51.258.258.576.324 1.146m99.558-.312c-.174 2.226.474 4.062-.024 5.988-.252.054-.318-.132-.51-.258.24-1.968-.024-3.75.216-5.73h.318"/><path d="M299.609 295.25l.384.258c.762-.648 1.518-1.536 2.346-1.866-.69 2.172-1.884 4.338-3.588 6l-.006-.114-.954-.132c.558-2.802.474-5.34-.366-8.016 1.02 1.08 2.178 2.274 2.184 3.87" fill="#9a3b26"/><path d="M332.705 293.576c-.066.126-.192.126-.318.126-.384-.444-.264-1.146-.138-1.65.636.246.198 1.074.456 1.524"/><path d="M266.26 296.48h1.087c-.564 1.596-.552 3.432.474 4.698.126-.06.318-.126.57-.126-.69 1.146-.618 2.292-.546 3.57 2.1.366.27 2.73.726 4.128-1.668-1.77-.6-4.512-2.142-6.414-.522-1.518 1.176-3.756-.732-5.022-.006-.762-.516-1.14-.012-1.842.126.372.192.762.576 1.008m105.966 5.622c-.654-1.896-1.614-3.618-1.884-5.718.774 1.842 1.74 3.738 1.884 5.718m-101.394 1.926c-.264-.894-.402-2.346-.852-3.438-.006-.888-.648-1.896-.276-2.988 1.668 1.524 1.878 4.386 1.128 6.426" fill="#9a3b26"/><path d="M332.747 300.572c.33 1.908-1.248 3.51-1.878 4.662l-.45-.06c.252-.888 1.14-1.536 1.578-2.31.372-1.452.234-3.36.096-4.698.708.378.456 1.584.654 2.406"/><path d="M398.2 303.08c-.173 2.352-3.413 3.396-2.7 5.868l-2.033-.162c-1.092-1.464-.15-3.708-.612-5.418l-.516-1.464c.9.894 1.716-.324 2.67-.27 1.782-.582 1.434-5.286 3.744-2.436l-.552 3.882" fill="#efe8c7"/><path d="M301.643 304.4c-.51-.63.438-.948.564-1.59.12-.762.114-1.596.432-2.298.324 1.332.012 2.868-.996 3.888"/><path d="M270.263 305.174l-.69 1.02c-.258-.63.558-1.842-.714-2.028l-.126.132c-.192-.39-.198-1.212-.012-1.722.06-.762.378-1.02.564-1.728.642 1.338.21 2.934.978 4.326" fill="#efe8c7"/><path d="M330.149 302.318c-1.518 1.404-2.586 3.384-4.686 3.9-.516-1.14-.018-2.412-.024-3.69l.696-1.02c1.278 1.074 2.544.306 4.014.81m41.586 2.658h.252c-.618 2.73-.984 5.154-1.794 7.842.246-1.224-1.614-3.18.354-3.894.624-1.968.108-3.492-.036-5.544.324.576.522 1.656 1.224 1.596m-43.248 6.258c-1.014.258-1.842.846-2.73 1.158-.96-.948-.078-2.412-.024-3.69.45.246.708.822 1.344 1.08 1.08-.084 2.034-.846 3.114-1.116l.126-.186c.006.888-.75 2.238-1.83 2.754m66.576-1.83l-.132.132.576.114c.132 1.02-.306 1.914-1.002 2.43-1.272.456-.708-1.008-1.158-1.512l.12-1.224c.636.06 1.086.318 1.596.06m-95.484.612c.906 2.544.096 5.028 1.704 7.122.51.246.756-.396 1.008-.714.504-1.278.942-2.67 1.242-3.888.462 2.226-.792 4.332-1.092 6.558-.378.708-.564 1.728-1.392 2.052-2.31-2.976-1.758-6.738-2.358-10.428.444-.06.378-.69.888-.702m66.27.84c.132.204.45.39.576.258l-.126.132c.894.564 1.266-.846 2.034-.846.204 2.358-1.314 4.338-2.826 6.198h-.576c-.33-1.908-.342-4.452-.36-6.492l.702-.384c.192.258.45.888.576 1.134" fill="#9a3b26"/><path d="M370.007 313.694c.204 2.166-.222 4.722-1.23 6.702-1.02-.444-1.65.774-2.67.774-.324-.762.24-2.04-.906-2.286.12-1.392 1.134-2.094 2.016-3.198.948-1.206 1.77-2.802 1.692-4.392.516.63.396 1.782 1.098 2.4" fill="#efe8c7"/><path d="M326.945 318.944c.33 1.968 1.302 4.128.804 6.036-1.08.198-1.152-.624-1.218-1.452-.522-1.71-1.488-3.366-.99-5.406.696-.312.954.564 1.404.822m39.168 3.186c.252-.384.57-.324.828-.516l-.132-.054c.642.432.828-.588 1.398-.528-1.704 1.932-.15 5.73-3.078 6.582-.138-2.484-.288-5.472.078-8.028.45.762-.558 2.298.906 2.544m-33.666.786l.378-.384c-2.082 2.952-1.038 6.948-2.61 10.206-.366 1.968-1.44 3.702-2.124 5.556-.264-.834-.27-2.172-.594-3.12-.396-2.226-1.614-4.572-1.194-7.182.252-.258.57-.516.696-.834.318.378.324 1.08.456 1.584-.114 1.404.144 2.61.72 3.69.51-.186 1.08-.774 1.266-1.29.876-2.73 2.124-6.246.582-9.162l-.012-1.146c.9.57 1.098 2.226 2.436 2.094M292.499 80.06c-.426.42-1.128.666-1.584 1.23.078.816.078 1.638.03 2.484l.912-.024c.324-.42.93-.66 1.356-1.14.018-.936 0-1.848-.054-2.766l-.66.216c.102-.12.192-.234.252-.378" fill="#9a3b26"/><path d="M195.923 353.869c2.656 0 4.742.104 6.26.313 1.517.19 2.845.53 3.983 1.024 3.642 1.593 5.88 4.429 6.715 8.507.341 1.67.512 5.026.512 10.072 0 4.23-.133 7.122-.399 8.678-.758 4.42-2.864 7.445-6.316 9.076-1.328.607-2.93 1.053-4.808 1.337-1.86.266-4.278.398-7.256.398-2.996 0-5.358-.151-7.084-.455-1.726-.322-3.215-.872-4.467-1.65-2.921-1.783-4.723-4.467-5.406-8.052-.284-1.498-.427-3.993-.427-7.483 0-6.525.342-11.01 1.025-13.457.948-3.396 3.442-5.805 7.482-7.227 1.973-.702 5.368-1.062 10.186-1.081m-.313 8.933c-2.447 0-4.097.18-4.95.541-1.176.474-1.926 1.356-2.248 2.646-.322 1.29-.484 4.012-.484 8.166 0 3.983.228 6.582.683 7.796.36.929 1.015 1.564 1.963 1.906.949.322 2.59.484 4.922.484 2.144 0 3.642-.19 4.496-.57.872-.379 1.527-1.119 1.963-2.219.512-1.29.768-4.087.768-8.393 0-2.675-.047-4.495-.142-5.463-.076-.986-.266-1.83-.569-2.532-.398-.93-1.034-1.546-1.906-1.85-.854-.322-2.352-.493-4.496-.512m33.147-8.649v14.71h3.13l10.015-14.71h12.518l-13.685 19.063 14.823 19.774h-12.774l-10.812-15.307h-3.215v15.307h-10.442v-38.837h10.442m40.06 0v29.903h16.331v8.934h-26.773v-38.837h10.442m43.048 32.15h-13.97l-1.878 6.687h-10.812l11.666-38.837h15.762l11.808 38.837h-10.585l-1.991-6.686m-2.077-7.54l-4.894-16.872-4.751 16.872h9.645m51.81-24.61v38.836h-10.441v-15.28H337.67v15.279h-10.442v-38.837h10.442v14.624h13.486v-14.624h10.442m23.7-.284c2.656 0 4.742.104 6.26.313 1.517.19 2.845.53 3.983 1.024 3.642 1.593 5.88 4.429 6.715 8.507.34 1.67.512 5.026.512 10.072 0 4.23-.133 7.122-.399 8.678-.758 4.42-2.864 7.445-6.316 9.076-1.328.607-2.93 1.053-4.808 1.337-1.86.266-4.278.398-7.256.398-2.997 0-5.358-.151-7.084-.455-1.726-.322-3.215-.872-4.467-1.65-2.921-1.783-4.723-4.467-5.406-8.052-.284-1.498-.427-3.993-.427-7.483 0-6.525.342-11.01 1.025-13.457.948-3.396 3.442-5.805 7.482-7.227 1.973-.702 5.368-1.062 10.186-1.081m-.313 8.933c-2.447 0-4.097.18-4.95.541-1.176.474-1.926 1.356-2.248 2.646-.323 1.29-.484 4.012-.484 8.166 0 3.983.228 6.582.683 7.796.36.929 1.015 1.564 1.963 1.906.949.322 2.59.484 4.922.484 2.144 0 3.642-.19 4.496-.57.872-.379 1.527-1.119 1.963-2.219.512-1.29.768-4.087.768-8.393 0-2.675-.047-4.495-.142-5.463-.076-.986-.266-1.83-.57-2.532-.397-.93-1.033-1.546-1.905-1.85-.854-.322-2.352-.493-4.496-.512m70.789-8.649v38.837h-10.243v-11.637c.019-2.864.19-7.397.512-13.6l.256-4.524h-.341l-1.366 4.439-1.366 4.41-2.93 8.848-4.012 12.064h-8.99l-4.098-12.092a1054.064 1054.064 0 01-5.776-17.669h-.341l.256 4.524c.38 6.487.579 11.02.598 13.6v11.637H407.69v-38.837h16.246l3.642 11.125c1.062 3.262 2.38 7.691 3.955 13.287h.398l.882-3.3c.91-3.453 1.85-6.763 2.817-9.93l3.528-11.182h16.616m29.419 32.15h-13.97l-1.878 6.687h-10.812l11.666-38.837h15.762l11.808 38.837h-10.584l-1.992-6.686m-2.077-7.54l-4.894-16.872-4.751 16.872h9.645" style="text-align:center;line-height:125%" font-size="58.27" font-weight="400" text-anchor="middle" fill="#fff" font-family="Eurostile T Black"/></svg>