<svg height="450" width="750" xmlns="http://www.w3.org/2000/svg"><path d="M0 450h750V0H0z" fill="#002a86"/><g fill="#ffea0f"><path d="M330.9 118.749c-5.72.317-12.785 2.756-17.53 6.593.575 1.392 1.623 1.249 2.78.907l.344-.438c.81 0 1.851-.813 2.781-1.281a1.1 1.1 0 01.22-.25c.022-.017.069-.047.093-.063.749-.448 2.144-.265 2.813-.906.152-.154.286-.359.343-.625 4.746-2.904 9.357-2.08 15.375-1.625v1.156c-4.05-.81-11.463-1.386-14.937 2.094 3.474 3 7.89 4.601 12.75 4.031l3.469-1.5c1.734 6.816 9.148 9.824 14.812 12.032.696-1.164 1.173-2.657 1.281-4.157-1.386-1.626-3.837-1.646-4.875-3.5 1.962.12 4.53 1.053 5.688 2.907.582 1.734-.025 3.472-1.063 4.75.433.534 1.298.556 1.781.28.016-.009.048-.02.063-.03l8.125-6.5c.027-.023.065-.045.094-.063.577-.336 1.411.103 1.625.75l.25-.219c2.658 3.36 6.94 4.282 9.719 7.282l-.344.468.062.094c-.577-.048-1.357-.8-2.031-1.125-2.778-2.424-6.128-3.714-8.906-6.156-2.43 3.012-5.816 4.055-8.594 6.719-5.436-.24-10.638-3.595-15.156-7.063-1.038-1.5-2.413-3.12-2.875-4.969-1.158-.12-2.217 1.043-3.375 1.157-4.398-.234-10.057-.592-13.531-4.75-3.24.576-6.718 5.325-9.844 1.28h-.563c-10.884 10.759-25.829 17.466-34.625 29.97 1.854 2.544 4.648-.923 6.844-1.625 3.012-2.544 7.764-3.934 10.656-7.75l.219-1.032-.031-.03-.031-.032c-.016-.01-.047-.022-.063-.031a2.304 2.304 0 00-.063-.032c-.454-.2-1.217.028-1.624-.187-.01-.006-.022-.025-.032-.031l-.031-.032a.755.755 0 01-.063-.062c-.003-.005-.027-.027-.03-.031-.004-.005-.029-.026-.032-.032a1.758 1.758 0 01-.031-.062c-.003-.006.002-.025 0-.031-.005-.013-.028-.049-.031-.063-.006-.022.003-.07 0-.094-.007-.049-.032-.128-.032-.187.001-.03-.002-.061 0-.094.577-.864 1.723-.649 2.156-1.125.008-.009.024-.021.032-.031.003-.005.028-.026.031-.031a.614.614 0 00.031-.063c.006-.012.027-.05.031-.062.012-.032.024-.089.032-.125.002-.015-.002-.047 0-.063 3.702-2.202 8.222-4.197 11-7.437l4.969-4.157c.01.011.05.022.062.032.006.004.025.026.031.03.013.01.05.025.063.032l.062.031c.18.077.41.121.563.188a.597.597 0 01.062.031l.031.031a.46.46 0 01.032.032l.031.03c.01.016.025.046.031.063.002.007-.001.025 0 .032a.79.79 0 010 .093c-.005.05-.01.123-.031.188-5.67 4.29-9.614 9.365-16.094 11.687v1.375c1.506.348 2.787-1.24 4.406-1.593 3.127-1.968 6.022-4.407 9.376-5.907.234.456.457.82.343 1.282-1.158.702-1.853 1.262-3.125 1.718l-.344.344.188.219c-.053-.009-.107.003-.156 0a1.783 1.783 0 00-.25 0c-.411.056-.712.289-1.063.469v.375l-.219-.25c-.923 1.62-2.88 2.207-4.5 3.125-1.157.348-2.118 1.26-3.156 1.5a.82.82 0 00-.375-.375c-.17-.086-.376-.151-.531-.22a2 2 0 01-.063-.03c-.013-.008-.05-.023-.062-.032-.006-.004-.025-.026-.031-.03a.61.61 0 01-.156-.188.832.832 0 01-.032-.094c-1.763 5.742-8.13 6.668-12.281 10.125-.007.018-.025.044-.031.062-.162.59.29 1.564 1.062 1.782h1.875c4.632-3.132 9.696-6.716 14.094-10.532.555-.363 1.504-.818 2.031-.687a.59.59 0 01.25.156c.007.008.025.023.031.031.003.005-.002.027 0 .032-.001.01.002.052 0 .062-.002.014.004.05 0 .063-.003.013-.026.05-.03.062-.003.007.002.025 0 .031-.307.726-1.61.88-2.032 1.407-3.936 3.936-7.988 6.727-12.5 9.625-.006.032.002.064 0 .093-.002.059-.01.139 0 .188a.94.94 0 00.031.094l.031.062c.009.013.023.05.032.063.004.006.026.025.031.03.005.007.026.027.031.032.218.21.594.302.875.438 5.094-.69 8.231-5.534 12.281-7.844 3.937-3.234 7.183-6.01 10.657-9.375.222.218.654.35.781.562.002.004-.002.028 0 .032.081.145.146.25.156.343v.094c0 .005-.03.027-.031.031v.032a.629.629 0 01-.031.062.49.49 0 01-.094.094c-.14.105-.367.195-.5.312a.442.442 0 00-.094.125c-.001.005.002.028 0 .032-.002.008-.03.022-.031.03v.125c.006.058.036.148.063.22-3.348 1.854-5.801 5.079-8.813 7.28-2.43 1.969-5.534 4.06-7.844 6.25 1.968 1.855 4.383-.926 6.813-.812.348-1.38 2.316-3.257 3.594-3.593l.343.468c-.81 1.044-1.855 2.086-2.437 3.25 1.278.348 2.773-.242 3.469-1.406 4.86-3.468 5.562-9.837 10.656-12.969.924 2.202-2.324 2.319-2.438 4.407-1.392 1.614-2.429 3.364-3.125 5.218l-.219-.25-1.75 2.313c.697.81 1.525 1.281 2.563 1.281 2.55-2.424 3.586-5.305 6.25-7.969.21.085.37.152.469.25.012.013.02.05.031.063.003.005.028.026.031.031.006.01.026.022.031.031.003.005-.002.027 0 .032.005.01.028.051.032.062.001.006-.002.026 0 .031.001.006-.002.026 0 .032 0 .006.03.025.031.03.016.125.004.286-.031.47-1.044 1.044-2.34 2.312-2.688 3.812 3.006 1.38 3.818-2.894 5.438-4.406.93-2.424 2.213-5.079 3.719-6.813l.03.032c.049.039.13.096.188.125.128.06.295.113.406.187.03.021.07.068.094.094l.031.031c.006.009.027.022.032.031.002.005-.003.027 0 .032.004.01.027.02.031.03.011.028.023.072.031.095.005.014-.003.05 0 .062.005.019.03.047.031.063v.062c0 .004-.03.028-.03.031-.002.003 0 .03 0 .032-.003.002-.03-.002-.032 0-.007.005-.023.027-.031.03-.006.003-.025 0-.031 0-.054.014-.134.034-.188.063-.007.005-.025.027-.031.032a2.708 2.708 0 00-.031.03c-.006.008-.027.024-.032.032-.002.005.002.027 0 .031-.002.005.002.026 0 .032-1.392 2.202-2.679 4.294-3.375 6.718.006.002.026-.002.031 0 .006.003.026-.002.032 0 .005.003.026.029.031.032.39.22.699.932 1.094 1.156.005.003.026-.003.031 0 .005.002.026.029.031.031.006.002.026-.002.031 0 .006.002.026-.001.032 0 .017.004.045.03.062.031h.094c.012-.001.05-.028.063-.03.006-.002.024.001.03 0 .014-.005.05-.027.063-.032.007-.003.025.003.031 0 .061-.032.153-.099.22-.156l.062-.063c.046-.046.107-.127.156-.187.799-1.038 1.515-2.383 2.313-3.313.014.011.05.02.062.031l.031.032a.974.974 0 01.125.156l.031.062c.004.007.029.025.032.032.116.28.062.615.062.937v.063c-.002.024-.027.07-.031.093-.125.568-.826 1.093-1.063 1.594-.006.014-.025.049-.03.063-.006.014-.028.048-.032.062-.004.014.003.049 0 .063-.006.035-.032.09-.031.125 0 .014.03.048.031.062.003.014-.004.049 0 .063.004.014.026.048.031.062l.031.063c.087.148.236.315.5.468 1.507-.468 2.914-1.38 3.376-3a.929.929 0 01.343.313c.004.006.028.025.031.031.013.025.022.068.032.094.316.94-1.044 2.62-1.031 3.344.002.033-.01.096 0 .125.003.008.027.023.03.03.005.008.027.025.032.032.003.004-.003.028 0 .031a.83.83 0 00.031.032c.004.002.028-.003.031 0 .008.005.023.026.032.03.004.003.026-.001.031 0 .005.003.026.03.031.032.005.002.026-.001.031 0 .271.073.792.006 1.657-.281.009-.004.022-.027.031-.031a.685.685 0 00.219-.188c.015-.022.049-.07.062-.094.095-.177.155-.409.25-.562.005-.007.027-.025.031-.031a.447.447 0 01.25-.157c.078-.011.2-.032.313 0a.87.87 0 01.313.25c.026.033.075.09.093.125a.85.85 0 01.063.282c.007.225-.088.49-.219.687-.07.101-.163.212-.25.281 1.278 1.614 3.353 1.162 4.625 2.782.348-.576.683-1.143 1.031-1.72h.594v.032c.042.144.006.365.031.531.003.014-.004.05 0 .063.003.008.028.023.031.031.003.004-.002.028 0 .031.005.008.026.025.032.032l.031.03c.012.01.049.025.063.032-.014.009-.02.054-.032.063-.048.036-.117.084-.156.125-.249.274-.318.659-.531.906a.987.987 0 01-.156.125c-.023.014-.07.05-.094.062-.009.004-.022-.003-.031 0 .23.636.515.895.812.938.084.009.196-.015.281-.031.388-.087.807-.365 1.125-.438.016-.003.048-.03.063-.031a.99.99 0 01.094 0c.027.003.067.022.093.031l.063.031a.565.565 0 01.156.157c.093.164.154.431.188.843.303.3.63.609 1.03.75.204.067.456.1.72.063.625-.533.98-1.711 1.812-1.844.015-.002.048.002.063 0h.093c.024 0 .07-.002.094 0 .114 1.164-.352 2.545.344 3.469.228.1.434.1.594.062.043-.011.115-.045.156-.062.225-.103.44-.284.687-.344a.875.875 0 01.313 0c-.022.14-.04.277-.031.375.001.016.028.048.03.063.004.014-.003.049 0 .062.005.013.027.05.032.063a.76.76 0 00.031.062c.004.006.028.026.031.031.02.026.04.072.063.094l.031.031c.141.115.355.195.594.313l.031.031 1.438.719c.678-1.896 1.658-4.07 1.719-6.219.57-.59.882-1.095 1-1.5.02-.076.024-.179.03-.25.004-.035.032-.09.032-.125-.001-.033-.027-.092-.031-.125-.004-.024.005-.07 0-.094-.006-.023-.024-.07-.031-.093-.006-.015-.026-.048-.032-.063-.574-1.311-3.866-1.571-4.656-2.937-.004-.008-.027-.024-.031-.032-4.746-2.544-8.792-7.643-12.5-11.687a1.6 1.6 0 01-.125-.125c-.514-.587-.375-1.438-.906-1.969-2.778 4.398-8.091 2.906-12.375 2.906-3.708-1.164-8.697-3.821-9.97-8.687l.25-1.5c.095-.007.176-.007.25 0 .037.005.094.023.126.031.023.007.073.023.094.031.04.018.093.04.125.063l.03.031.032.031c.004.005.028.027.031.032.015.02.02.07.031.093.003.006.03.026.032.032.002.006-.002.025 0 .03.137.426-.057 1.126.062 1.595.004.013.027.049.031.062.005.013.026.05.032.063.003.006-.003.025 0 .03.003.007.028.026.031.032.007.012.023.052.031.063l.031.03a.624.624 0 00.063.063c.772.55.713 1.84 1.5 2.063.033.008.09.027.125.031.696-1.044 1.373-1.534 2.063-2.344 1.74 1.866-3.464 3.259-.344 4.657l2.219-2.907.906.813c-.81.81-1.371 1.862-1.719 2.906.696.456 1.486.68 2.063 1.25.348-2.082 1.623-3.703 2.78-5.437 1.273 1.278-1.052 2.792-1.28 4.406-.183.268-.56.494-.72.781-.002.006-.028.025-.03.031-.006.013.004.05 0 .063-.003.006-.03.025-.032.031-.003.013.002.05 0 .063v.062c3.354.12 7.385 2.1 9.125-2.531a.93.93 0 01.344.281c.014.023.051.07.063.094.017.04.02.113.03.156.011.053.03.132.032.188-.002.301-.133.649-.25 1l-1.031.812c3 1.266 3.594-2.432 5.562-3.812.81.804.7 2.3 1.281 3.343 5.209 5.448 9.595 11.706 16.657 14.25 1.038-1.614 2.194-3.47 2.656-5.437 1.62-.924 3.027-.91 4.875-.688 1.74 1.044 2.764 2.412 3.688 4.032.462 2.658.118 5.33-.344 7.875 1.62.81 4.177.34 6.031-.47-.234-3-2.686-8.089 1.25-9.937 2.082-.576 4.179-.472 6.375-.25.696-3.246-.822-6.94-2.094-9.718-.157-.666-.033-1.077.219-1.344a1.42 1.42 0 01.281-.219c.744-.387 2.053-.251 2.75-.656.036-.022.093-.068.125-.094 6.6-1.5 14.476-4.038 16.906-11.094h.438c-.348 7.056-8.453 9.47-13.781 11.438-1.968.576-4.141.592-5.875 1.75 0 1.386.788 2.555 1.25 3.719 3.126-.12 7.082-2.786 10.094-4.532.81 0 1.6-.813 2.062-1.28 3.936-.93 6.475-6 10.531-6 1.272.125 2.557 2.2 4.063 1.624 2.778.696 6.24-.024 8.094-2.562.032-.1.094-.18.156-.25.388-.399 1.254-.313 1.937-.313 2.43 2.202 5.322 3.44 8.094 4.719.468-.157.739-.038 1.031-.094.014-.003.049-.027.063-.031.014-.004.048.005.062 0 .015-.006.048-.025.063-.031.082-.04.182-.107.281-.188-6.708-5.316-13.418-10.403-22.094-10.625-9.378-2.322-13.445 11.67-22.937 9.594-2.196.108-5.78.003-6.938-2.313-2.082 2.082-5.311 3.804-8.437 2.532-1.968-1.5-4.052-2.3-5.906-3.813-1.968 1.392-4.035 3.339-6.813 2.313-7.062-1.974-12.28-9.36-20.031-9.125-.136.005-.27-.008-.406 0zm14.938 9.593c.003-.002.028.002.031 0 1.272.456 2.882 1.379 3.344 2.657-.14.064-.277.078-.406.093-.055.006-.134.034-.188.032-.044-.003-.113-.024-.156-.032s-.114-.018-.156-.03c-.792-.262-1.457-1.26-2.219-1.688-.168-.246-.318-.615-.313-.844v-.093c.002-.005.03-.028.032-.032.002-.003-.003-.028 0-.031.002-.003.028.002.031 0 .003-.003-.003-.03 0-.032z"/><path d="M403.088 155.78c-.192.042-.376.14-.5.219-4.506 4.17-10.417 7.167-15.625 9.375-4.278 1.392-8.925 2.297-13.438 2.53-.003.006-.028.027-.03.032-.01.022-.022.074-.032.094-.023.044-.05.113-.063.156-.007.03-.024.091-.03.125-.02.193.015.405 0 .594a1.01 1.01 0 01-.063.25 1.078 1.078 0 01-.344.375l.219.219c-1.392 1.968-4.052 1.176-5.906 1.062-2.018-.91-6.052.808-7.594-1.031a2.625 2.625 0 01-.5-1.063l-.813-1.03c-2.97-.763-6.237-1.02-8.937-2.532l-2.531-.75c-1.584-.594-3.716-1.128-3.344-3.438a.766.766 0 00-.094 0h-.281l-.063.032h-.062c-.434.178-.682.71-1.031.875l-.032.03h-.062c-.006.004-.026.029-.031.032-.003.002-.03-.001-.032 0h-.093l-.063-.031h-.063l-.062-.031-.063-.032-.062-.03a1.474 1.474 0 01-.156-.095l-.063-.062c-.734-.837-.73-2.235-1.75-2.844a2.087 2.087 0 00-.344-.156c-.233.708-.23 1.518-.812 2.094-1.734-.924-3.697-1.855-4.969-3.47-.189.267-.282.487-.312.688-.052.402.076.788-.156 1.407-2.083-.708-1.944-3.27-4.5-3.157-.336.576-.25 1.626-.25 2.094-.008.007-.024.025-.032.031a1.519 1.519 0 01-.187.125c-.055.03-.133.076-.188.094a1.141 1.141 0 01-.187.031c-.024.002-.07 0-.094 0-.016 0-.047.002-.063 0-.016-.001-.046.003-.062 0-.908-.156-1.89-1.497-3-1.75a1.74 1.74 0 00-.344-.03l-.219-.22c-.81.912.112 1.722-.812 2.532-1.506-.708-3.13-2.196-4.75-1.032.114 1.734.474 2.995-.906 4.375.216.2.412.33.594.375h.03c.033.001.094.002.126 0h.156l.094-.03c.728-.247 1.258-1.52 2-1.845.99-.08 1.8-1.222 2.719-1.5.364-.102.763-.074 1.187.22.16.445.153.834.031 1.155-.3.747-1.141 1.276-1.437 1.97-.013.031-.047.084-.063.124-.002.006.002.026 0 .031-.007.023-.025.072-.031.094.869.477 1.497.543 1.938.375.022-.01.065-.02.093-.031a.55.55 0 00.063-.031l.094-.063c.007-.005.023-.025.03-.031.904-.722.991-2.75 1.782-3.625l.063-.063a1.856 1.856 0 01.25-.187c.015-.009.046-.023.062-.031.033-.016.09-.05.125-.063.493-.161 1.199-.016 2.219.625.01.017.022.046.031.063.017.034.049.091.063.125.028.075.048.175.062.25.147.908-.738 1.738-.813 2.343a.985.985 0 000 .125v.063a.893.893 0 00.032.094c.003.005.027.026.031.03.02.029.044.074.063.095l.03.03c.038.034.107.094.157.126.157.096.388.182.688.25.923-1.044 1.525-2.427 3.03-2.781.463.588.813 1.505.345 2.093-.122.179-.292.297-.375.438a2.733 2.733 0 00-.032.062v.032l-.031.03a.7.7 0 010 .063v.094c.006.018.028.05.031.063v.03l.031.063.032.032c2.196 1.38 3.222-3.25 6-1.282.114 1.278-.352 2.097.344 2.907 1.5-.354 2.89-1.962 4.625-1.032.042.024.11.059.156.094l.031.031c.59.648.878 2.6 1.656 3.094.02.012.043.022.063.031.355.155.837.042 1.469-.593 2.202 0 4.048 2.085 6.25.687 1.506-.57 2.81-.15 4.843 3.438l31.188.937c4.92-4.398 11.069-5.656 16.625-5.656l.031-.031c.1-.092.225-.18.313-.25a1 1 0 00.093-.094l.031-.031v-.157c-6.018-1.968-9.72 1.73-15.624 1.844-.15-.383-.533-.742-.688-1.062a7.912 7.912 0 01-.031-.063c-.002-.005.002-.025 0-.031-.01-.04-.028-.092-.031-.125v-.063c.001-.022-.006-.065 0-.093.001-.007.029-.025.03-.032.003-.006-.002-.025 0-.03 4.399-1.5 7.762-5.334 12.97-5.22 2.315-.468 4.652-1.375 6.5-2.875-1.158-.468-2.322-.604-3.594-.25-1.848 1.158-4.288 3.714-6.25 2.094.57-1.848 3.112-2.219 4.156-3.719-.01-.028-.02-.068-.031-.093-.01-.019-.02-.045-.031-.063l-.032-.031c-.023-.029-.068-.07-.094-.094l-.03-.031c-.006-.004-.027-.028-.032-.031l-.063-.032c-.024-.01-.073-.024-.093-.03a1.952 1.952 0 00-.125-.032c-.034-.002-.095 0-.125 0h-.188c-.013.002-.018-.003-.031 0zm-19.969 13.687a2.33 2.33 0 01.813.063c.024.007.07.022.094.031.068.028.158.082.218.125a1.263 1.263 0 01.406.656c-.762.247-2.055.312-2.718-.125-.007-.004-.025-.026-.031-.03-.047-.036-.118-.085-.157-.126l-.031-.031c-.01-.012-.022-.05-.031-.063a.941.941 0 01-.156-.406c.45.093 1.056-.052 1.593-.094zm-6 .032h.188c.02.005.073.024.094.03.023.008.068.022.093.032l.063.031.031.032.031.03c.028.028.072.07.094.095l.063.062c.054.08.11.196.156.313a.733.733 0 01-.031.062c-.004.006-.028.026-.032.031a1.012 1.012 0 01-.125.157c-.499.415-1.554.105-2.25.218l-.219-.25h.063c.007 0 .024.002.031 0 .022-.005.07-.023.094-.03.414-.144 1-.606 1.5-.75.038-.01.088-.026.125-.032l.031-.031zm-9.906-57.282c-1.185.056-2.403.266-3.063.594-3.473 1.044-3.808 5.203-4.156 8.563-.23 1.364-1.234 2.637-1.375 3.78l.219-.187c.007-.001.024.002.031 0 .015-.002.048.003.063 0 .253-.032.543.017.75.157.065.046.139.125.187.187.004.006.027.026.031.031.008.012.025.05.032.063.003.006.028.025.031.031.015.033.022.09.031.125.752.417 1.641.945 2.375.875.087-.01.2-.034.281-.062.055-.02.136-.064.188-.094.034-.02.092-.069.125-.094.238-.191.467-.498.625-.969.346-.085.628-.046.844.125.061.053.137.144.187.22-.21.646-.046 1.484-.469 1.968a1.576 1.576 0 01-.093.094c.02.058.034.143.062.187.011.016.051.049.063.063.024.026.066.073.094.093.013.01.047.023.062.032.022.012.07.052.094.062a.94.94 0 00.094.031c.164.05.367.078.53.125l.095.032c.023.01.071.02.093.03a.957.957 0 01.125.095c.018.018.046.04.063.062 2.898.93 4.38-1.264 6.469-2.656.462-2.436-2.668-5.208-1.282-8.094 1.278-1.734 2.907-.705 4.875-1.281.104.26.295.608.531.875.042.045.112.116.157.156.256.218.583.353.937.25.462-1.512.111-3.263-1.281-4.187-1.272-.456-2.877-.217-3.688.593-.303.329-.57.487-.78.5a.737.737 0 01-.094 0c-.015-.002-.05-.028-.063-.03a.731.731 0 01-.094-.032l-.062-.031c-.006-.004-.025-.027-.031-.032-.024-.017-.071-.041-.094-.062l-.031-.031c-.416-.436-.686-1.382-1.094-1.657-.08.031-.178.049-.25.063-.416.07-.756-.122-1.219-.313l.219-.218c-.424-.029-.88-.053-1.344-.032zm.188 2.188c.539-.137 1.184.528 1.625.969.233.804-.715 1.146-1.063 1.5-.81-.354-1.26-1.17-1.031-2.094a.987.987 0 01.156-.188l.031-.03.031-.032c.016-.012.047-.021.063-.031.005-.003.026-.029.031-.032.006-.002.026.003.031 0 .006-.002.026-.029.032-.03a.743.743 0 01.094-.032zm49.065 14.271c3.012 1.278 5.79 3.942 9.378 3.132 5.67 3.582 11.802 8.568 17.706 11.448 2.778 3.246 7.176 4.524 9.378 8.112-6.714-4.866-13.89-6.954-20.604-12.036-2.664-.93-5.442.114-7.752-1.632-3.708-1.5-6.6-5.202-10.188-7.17-.576-1.032-1.506-2.076-1.044-3.234 1.626-.924 1.74 1.266 3.126 1.392m-14.58.684c-.582 8.796-10.764 14.352-16.668 19.788-1.392.234-2.43 1.62-4.164 1.398-1.392-3.132-2.316-6.834-2.424-10.182 6.474-1.74 12.03-6.258 17.814-9.39.81-1.146 1.968-2.076 3.126-2.646.924-.132 1.854.336 2.316 1.032"/><path d="M418.32 135.39c-1.392 1.632-3.012 1.278-4.98 1.044.234-.702-.576-.702-.576-1.278-1.272.354-2.43 2.898-3.936 1.044-2.424-.81-2.772 2.436-5.088.81l-2.43.234c-.81 2.886 2.778.342 3.708 1.5 1.734 1.62 2.778-3.468 4.626-.456 1.392.456 2.202-.81 3.126-1.044.696 1.5 2.082.576 3.474.81.576-.12 1.032-.576 1.728-.354 1.158 3.012 3.702 5.448 6.48 7.302.81-1.854-1.968-3.012-3.006-4.17-1.158-1.386-2.778-3.354-2.43-4.632l-.456-.468c.336.12.69-.456 1.032.234l.234-.234-.234.234c3.24 1.512 7.524 5.79 10.65 3.936 0 .228-.114.354-.234.462 3.822-.462 6.366 3.702 9.84 4.746 2.664 1.848 5.442 3.126 8.334 5.094 2.778 1.266 4.626 2.19 6.018 5.202 0 .81 0 1.974-.81 2.208l-.804-.12c-5.208-3.936-10.302-7.872-15.624-11.106-.93.456.114 1.26.348 1.734 4.626 3.348 9.954 6.48 14.004 10.182-.468.81-1.044 2.424-2.316 1.38-3.822-.69-7.41-3.804-10.65-6.246-3.24-4.158-8.1-6.126-10.416-10.758-.348.222-.81.222-1.044.576v.69c6.024 5.448 11.46 12.858 18.756 16.206 0 .474.114 1.044-.348 1.278-1.614-1.044-3.354-2.316-5.214-2.082-1.146 1.614-3.234.468-4.626.234-2.772-3.132-6.942-6.378-9.138-10.08-.348-.108-.582.234-.81.468.81 2.898 4.746 5.91 6.828 8.568-.576.456-.924 1.614-1.62 1.146l-3.822-3.702c-.114.354-.69.354-.81 0-3.354-3.114-6.018-5.892-7.752-9.948-.348-.12-.696 0-1.044.354 1.506 4.734 5.094 7.518 8.334 11.214-.348.234-.114.582-.114.936-3.006-1.158-4.968-4.404-7.98-5.214-.582-3.12-2.892-5.088-3.474-7.992-.462-.108-.576.234-.924.468.348 2.892 2.892 5.214 3.012 7.86.114 0 .228.132.342.234-2.196 0-3.354-2.424-5.436-3.582 0-1.854-.582-4.164-1.392-6.012h-.696c-.114 1.848 1.278 4.392.468 6.012-1.044-.69-1.62-3.012-3.36-2.664-1.386 2.544-5.556.93-6.48 3.708l.234.234h-.348c0-.702 0-1.278-.696-1.62-1.038.81-.462 2.544-1.614 3.468-.81-.69-2.202-.114-2.082-1.614-1.854.102-.348 2.424-1.74 3.126-.924-.234-.576-2.556-2.082-1.626l-.114 2.892c-.81-.234-2.082-.456-2.778.222-.582.468-.582 1.164-.804 1.866-.696-.12-1.272-1.164-2.082-.468-.816.468-.582 2.316-1.854 1.734.228-1.032-1.158-1.266-1.044-2.088-.228-1.956-1.386-4.044-.69-5.658 6.132-1.044 9.954-6.6 14.466-10.422 4.398-3.012 5.67-7.062 7.062-11.46 2.892.93 6.018.222 8.556-1.044.576 3.132 4.284 4.056 6.366 6.486m-54.54 13.542c-.114 5.91-1.386 11.46-2.082 16.914h-1.272c.228-1.044.462-2.556-.234-3.366-1.968.354.582 5.67-3.354 3.702-1.044-.69.462-1.968-1.158-2.082-.228.468-.696 1.038-.228 1.512-.81.102-1.734-.234-2.544-.474.234-1.848 3.012-3.582 1.734-5.436-1.272 1.398-2.778 3.246-2.778 5.1h-1.038c2.082-4.278 1.038-9.024 3.354-13.194l-.228-.234.69-.342c-.114-.936.582-2.088 1.044-3.132.234-.924 1.158-1.848 2.082-2.082.462.468 1.392 0 1.152-.69 2.316.114 3.822 1.968 4.86 3.816m10.128-2.346c-.626.006-1.346.032-2.25.032-1.158.456-1.292 1.732-1.406 2.656 1.386 5.67.484 11.47 2.218 16.906.07.109.145.205.219.281.054.054.13.118.188.157.014.009.048.022.062.03a1.43 1.43 0 00.219.094c.706.203 1.546-.343 2.312-.343l-.219-.813c.089-1.072-.998-2.644-.53-3.562a1.15 1.15 0 01.218-.281c.152-.128.38-.236.656-.313.924 1.62.798 3.466 1.031 5.188l6.5-1.72c-.695-1.157-.366-2.89-1.062-4.155a1.467 1.467 0 01-.188-.344c-.004-.013-.027-.05-.03-.063-.002-.006 0-.025 0-.03-.003-.013 0-.051 0-.063v-.125c0-.006-.002-.026 0-.032 0-.005-.002-.025 0-.03.003-.012.026-.052.03-.063.003-.006-.002-.026 0-.032l.032-.03c.017-.029.038-.067.062-.095l.063-.062.031-.031.031-.032c.055-.043.146-.081.219-.125-2.898-3.942-1.052-9.048-4.406-12.75-1.67-.235-2.623-.262-4-.25zm5.5 15.875c.93.468.797 1.733 1.031 2.657-.004.005.004.026 0 .03-.004.006-.027.027-.031.032l-.031.031a.59.59 0 01-.188.125.808.808 0 01-.188.032c-.125.005-.272 0-.374 0-.176-.698-.792-1.54-.657-2.25.008-.037.02-.09.031-.125.008-.022.022-.073.032-.094.027-.057.084-.133.125-.188.063-.081.152-.174.25-.25zm-9.61-4.853c.12 3.582.234 7.638 2.316 10.65.348.81-.576 1.266-.81 1.734-1.506.69-2.658-1.734-4.164-.924.114-.69.576-1.854 0-2.43-.582.228-1.278.81-1.278 1.386v1.278h-1.728c-.576-1.044.582-2.898-1.038-3.702.348-2.322.348-5.442.924-8.334 1.728 1.044 4.398-.354 5.778.342m-8.91 11.928v-2.088c.696.222 1.044-.456 1.62-.582l.228 2.67z"/></g><path d="M305.706 171.66s-3.762-7.038-8.682-7.614c-4.92-.588-7.716-.402-11.19 1.626s-10.002 6.084-13.698 19.77c-3.66 13.608-4.05 21.222-2.892 29.814 0 0 4.632 34.428 22.572 59.028s32.79 36.456 43.11 42.246c8.832 4.944 34.146 14.178 34.146 14.178s32.118-7.818 56.712-33.864c24.594-26.04 28.26-35.874 35.208-52.656 6.942-16.782 7.326-29.802 6.168-39.348-1.152-9.552-4.914-28.938-13.884-35.016-8.97-6.072-14.472-5.202-18.81-3.468s-8.1 6.36-8.1 6.36z" fill="none" stroke="#ffea0f" stroke-width="3.474"/><path d="M346.62 180.717c-.004.004.002.029 0 .032a2.33 2.33 0 01-.126.062 1.75 1.75 0 00-.125.063.728.728 0 00-.312.437c-.172.896.937 2.5.937 2.5l1.719 27.781-2.688-.187-.593-8.875-4.219.375v7.156h-4.25l-2.906 2.688-.563-8.313 5.969-.375-.563-2.5-5.843.594-1.313-14.094h-2.125l.406 25.469-5.218-.781-3.656-17.157-1.563.188-.75.75-4.25-.375v5.781l5 .781 2.531 11.375s-.738.177-1.219.5c-.024.017-.07.045-.093.063l-.031.031-.032.031a2.423 2.423 0 00-.031.032 2.033 2.033 0 00-.094.125l-.031.03v.032l-.031.031a.976.976 0 00-.031.094v.281l.03.063v.031c.39.972 2.313 3.094 2.313 3.094l11-.938 1.563-1.75 1.906 1.532 3.688.218 1.343-1.937 2.688 1.531s6.952-2.125 9.844-2.125c2.891 0 53.03 1.344 53.03 1.344l-1.718 2.719c.027.19.312 1.752 1.938 1.937 1.74.186 31.25.156 31.25.156l-1.75 5.032.78 3.28-3.468 4.845 3.281.187-4.844 6.906 3.094.407-3.094 3.093 4.438-.218v10.812l2.313-.187v-3.875h3.093l-.187 4.062h3.094v-5.969l1.718.188v6.187h2.125l.969-17 2.688 1.75-.375-4.625 1.156-.187s-2.719-4.455-2.719-6.375c0-1.932-.188-4.25-.188-4.25l2.126.969 1.343 2.312-.937 2.5 2.312-.969-.406 17.375-2.688 3.657 2.5-1.157.594 1.375 2.875-5.625V230.28l.781-4.813 3.094-.375.188-1.53-2.906-1.75 3.093-1.72-2.312-2.343-.406-4.813 2.906-2.5-2.906-.969-.75-4.812 1.906-1.375s-1.522-2.49-1.906-3.438c-.385-.972-.782-2.906-.782-2.906l3.875-1.344s-4.45-3.858-7.156-5.406c-2.595-1.476-7.154-3.328-8.188-4.156-.028-.026-.072-.073-.093-.094-.768-.774-3.094-3.281-3.094-3.281s-2.069-.613-3.031-.156a1.287 1.287 0 00-.156.093l-.063.032-.031.03-.031.032c-1.126 1.056-13.867 11.405-14.438 12.313-.384.774-1.543 4.852-2.125 5.812-.576.96-2.509 3.638-3.469 5-.905 1.26-1.298 2.368-1.344 2.5.08.062.611.466 1.094.594h.031l.126.031h.156c.022-.006.072-.024.094-.031h.03c.577-.186 3.097-1.16 4.063-.781.906.36 1.465 1.07 1.531 1.156h-2.5c-1.541 0-4.623 1.54-5.78 2.5-1.159.96-3.657 2.125-3.657 2.125l-.781-.375 5.406-3.875c-.125-.1-1.129-.873-1.688-.594l-.062.031c-.576.372-4.046 1.914-5.594 2.688-1.445.726-2.72 1.974-2.875 2.125v.531c-.29-.496-5.053-8.433-12.156-8.625-7.103-.18-11.867 8.136-12.156 8.656l-14.656-2.312.375 1.562-8.47-.593 4.22-1.344.406.781 2.5-.781-13.5-3.469-1.344 3.469-3.688-.375-3.062-27.781s.564-1.465.156-2.313l-.031-.062a2.037 2.037 0 00-.094-.125 1.39 1.39 0 00-.094-.094 2.074 2.074 0 00-.124-.094 1.48 1.48 0 00-.532-.187c-.074-.012-.167-.032-.25-.032h-.156a2.32 2.32 0 01-.063 0h-.124c-.003.003-.029-.003-.032 0zm104.218 10.094c.197.087 1.36.566 2.063.906.774.402.75 1.56.75 3.282 0 1.625-.333 2.741-.375 2.875l1.343 2.343 1.344-2.53h.969l-2.313 4.655.031.032.032.03.031.032a.978.978 0 00.125.094l.063.031c.174.082.458.156.875.156h.125c.034.007.096.023.125.032.692.22.884 1.348.906 1.5 0 0-.188 2.72-.188 4.843 0 .563-.133.978-.312 1.282a1.801 1.801 0 01-.281.343 2.098 2.098 0 01-.344.25 2.14 2.14 0 01-.688.22h-.062c.065.067.587.635 1.312 1.187.768.57.938 2.289.938 6.53 0 4.11-2.706 5.158-2.875 5.22l-2.906-5.782 2.312-1.156-3.063-5.812 3.063-1.532s-.748-1.545-1.906-3.093c-1.152-1.536.187-4.813.187-4.813.083-.133.728-1.25.188-2.875-.528-1.571.23-2.526.375-2.687v-.032s-.38-1.523-.188-2.687c.011-.068.032-.176.031-.25a2.325 2.325 0 010-.094c-.148-.98-1.378-2.205-1.687-2.5zm-2.625.938l-.906 1.53 1.719 1.907s-.665 3.302-.25 4.469v.031l.03.063.032.062c.582.96 2.698 2.142 1.156 6-1.542 3.852-1.754 5.59-1.562 7.125.192 1.548 0 3.656 0 3.656l-.938-.187-.594-3.469-.562-1.344s.563-3.295.563-4.843c0-1.536-1.157-4.407-1.157-4.407s-6.154 1.131-7.312 1.72c-1.158.57-3.875 1.562-3.875 1.562l-.375-1.188s8.363-3.04 9.062-3.469c.576-.384 2.125-.375 2.125-.375l1.156-4.625s-1.343-1.35-1.343-1.937v-.093l.031-.032c.35-.628 2.687-1.978 3-2.156zm-8.781 15h.187c.04-.002.109-.002.156 0h.032c.046.008.107.018.156.03h.062l.032.032h.031l.031.031h.031l.032.032.062.062.031.031c.046.058.093.148.126.22.206.478.168 1.194.156 1.312l-1.375 2.906.781.75 2.688 1.375.968-4.25 1.156-.563s.407 1.726.407 2.5c0 .762-1.17 3.86-1.938 5.594-.725 1.626.25 2.908.375 3.063l-.562 2.125h-.969v-1.157c.018-.131.132-1.225-.594-2.125l-.031-.03a3.33 3.33 0 00-.156-.156l-.031-.032c-.674-.532-1.57-.07-2.125.03a.944.944 0 01-.094 0h-.063c-.576 0-2.312-1.155-2.312-1.155s-.768.19-1.344.562l-.031.031-.063.032h-.031c-.01.006-.052.025-.063.03h-.03c-.62.043-1.586-.987-2.094-2-.576-1.157-1.157-4.25-1.157-4.25l-.969.407-.968-.969 4.062-3.28.188 1.53-1.156 1.344s-.01.976.375 3.094c.36 1.991 2.098 2.45 2.312 2.5l1.75-1.344 1.344 1.938 2.687.375.969-2.5s-4.44-1.948-5.406-3.094a1.762 1.762 0 01-.25-.406c-.479-1.124.348-2.572 1.031-3.25.516-.52.972-1.053 1.438-1.282.043-.02.112-.048.156-.062v-.031zm9.219 11.78l-.188 2.876-1.156 3.094-.406-.75-.563-4.25zm-6 5.595l1.156 2.312-.938 2.5-1.375.969v-3.281zm4.437 5.03l1.75.376s.188 2.332.188 3.094c0 .774-1.344 4.437-1.344 4.437l-1.344-2.344zm-5.375 2.876l.938 1.562-.75 2.875-1.157-.187v-3.281zm.75 6.187l.781 1.72-.594.968-1.906-.188zm3.281 2.313l1.938.375-.969 6.187-.969-.218zm-4.437 3.281l2.5.781.219.75-2.907 2.875-.781-.343-.188-3.125z" fill="#ffea0f"/><path d="M351.463 216.842c-1.774.24-3.29 1.527-4.469 2.47-.045.035-.084.084-.125.124l-.062.063c-1.565 1.782.421 7.11 1.344 11.187.966 4.242 8.5 15.25 8.5 15.25l3.656 6.938s-.955.784-1.531 1.75c-.582.96-2.14 4.622-1.75 9.062.384 4.434 4.453 6.153 6.187 7.125 1.74.96 5.781.375 5.781.375l1.344 1.156-23.719-1.156 1.719-6.75 1.375-3.062s.746 4.6.938 5.375c.001.006-.002.024 0 .03.014.041.046.091.062.126.024.045.062.115.094.156l.031.031c.013.015.048.049.063.063.015.014.046.049.062.062.065.054.15.117.219.157.324.18.755.261 1.062.187a.94.94 0 00.094-.031l.063-.031.062-.032c.024-.02.073-.069.094-.093l.031-.032c.384-.576.563-3.093.563-6.375 0-3.27.192-12.158 0-14.468-.198-2.322-2.313-2.688-2.313-2.688l-5.969-.375s.005-1.162-.187-1.75v-.031l-.031-.031a1.24 1.24 0 00-.063-.094c-.445-.548-2.149-1.24-3.375-1.594-1.35-.372-9.059-.937-11.375-.937-2.31 0-8.88 1.135-14.094.937-5.208-.186-13.875 1.75-13.875 1.75l-3.469-2.875-1.937 1.531-2.531.188.781 3.281s-1.522 7.53-1.906 8.688a1.439 1.439 0 00-.063.469c.111 1.148 1.559 2.682 2.563 3.187 1.152.576 3.281.562 3.281.562l1.875-1.843a2.817 2.817 0 00-.156.906c0 .774.594 1.906.594 1.906s2.621.94 3.625.781h.03c.967-.198 3.47-.593 3.47-.593s1.732 4.047 2.5 5.78c.774 1.747-.188 7.157-.188 7.157s-2.901.482-3.844 1.156l-.031.032a1.995 1.995 0 00-.125.125l-.031.03-.031.032a4.881 4.881 0 00-.032.063.833.833 0 00-.031.093v.157l.031.03c.014.034.044.09.063.126l.031.062.031.063.031.031.032.031c.618.63 2.367 1.25 3.906 1.25 2.124 0 8.12.375 12.938.375 4.824 0 14.257-.395 18.5-.593 4.242-.192 9.082-.75 13.906-.75 4.818 0 16.383.75 19.281.75 2.892 0 12.55.78 15.25.78 2.706 0 14.081.221 16.781.407 2.706.198 17.744 1.905 19.094 1.719.241-.035.458-.11.625-.188.118-.056.231-.121.313-.187a9.954 9.954 0 00.125-.125l.03-.031a1.97 1.97 0 00.095-.125 1.63 1.63 0 00.093-.188c.013-.028.048-.093.063-.125v-.187l-4.438-1.532s-8.535.371-9.25.313h-.031v-.031h.031c.132-.02.462-.053.969-.094 4.626-.396 8.659-4.634 9.625-6.938.966-2.31.375-7.343.375-7.343s2.128.375 3.094.375c.954 0 3.678-.192 5.406 0 1.734.198 2.904-.572 4.063-1.532 1.158-.966 2.125-1.53 2.125-1.53l-6.375-.595.968-3.656.375 3.281 2.125-.593-.187-8.47-.594-.405-2.313 2.53.782.563-1.156.782-1.344-2.313-2.719 5h1.375l-.594 2.906H425.9s.178-3.865.376-7.53c.192-3.673 6.157-16.002 8.28-18.126 2.125-2.118 2.14-4.815 1.75-5.781a3.779 3.779 0 00-.03-.063 1.326 1.326 0 00-.063-.093l-.031-.032a1.665 1.665 0 00-.125-.125c-1.016-.841-4.43-1.625-6.313-1.625-2.118 0-4.255 1.175-6.187.407-1.852-.744-5.85-.05-6.844.687l-.031.031-.063.032-.031.03c-.047.042-.124.087-.188.126-1.105.643-4.411.896-6.906-.531-2.7-1.536-5.418-.578-7.344-.188-1.931.384-3.667.192-5.593-1.344-1.932-1.548-5.007-.57-5.781 0l-.063.032-.063.03c-.94.484-3.61.428-5.25-.655-1.74-1.164-2.897-.779-6.75-.407-3.863.402-3.684-.57-6-1.53-2.315-.96-7.91.983-11 1.187-3.083.186-3.28-.399-6.562-2.907-1.1-.842-2.164-1.16-3.156-1.125h-.156a1.353 1.353 0 01-.094 0h-.031a1.463 1.463 0 01-.094 0c-.029.004-.066-.003-.094 0zm-52.625 31.032a.26.26 0 01.125 0v1.343a.572.572 0 01-.031.125.709.709 0 01-.094.157l-.063.062a1.365 1.365 0 01-.28.188c-.284.14-.62.206-.688.218 0 0-.2-.07-.375-.218a.896.896 0 01-.281-.406.775.775 0 01.062-.532c.312-.629 1.28-.87 1.625-.937zm7.156 1.937c.063-.01.13.002.188 0 .254-.002.481.075.594.125.036.018.082.025.093.031 0 0-.205.956-.781 1.532-.108.11-.219.2-.313.25a1.07 1.07 0 01-.156.062c-.013.004-.049.029-.062.031h-.156c-.053-.007-.119-.045-.157-.062l-.062-.031c-.025-.017-.055-.025-.063-.032 0 0-.367-1.36.406-1.75.169-.084.323-.133.47-.156zM422.4 251.53l.407 5.187s-1.365-2.305-2.906-2.875c-1.548-.576-3.462-.78-8.094-.78-4.482 0-7.357 4.88-7.531 5.187l-.97-.375 1.157-5-25.625.78c.26.113 2.408 1.055 4.219 2.5 1.926 1.537 3.844 5.595 3.844 5.595l-.563.78 9.844.188s-.768 3.646 0 5.188c.774 1.536 2.312 3.687 2.312 3.687H381.9s3.08-3.493 3.47-4.843c.383-1.35.968-4.22.968-4.22s-.772-.972-1.156-2.124c-.39-1.158-1.735-2.52-3.469-4.063-.007-.006-.024-.025-.031-.03-1.836-1.525-10.969-2.282-10.969-2.282l-1.938-1.156zm-31.25 2.312l.782 1.157v1.906l-1.344.219v-2.125zm23.157.97l.969.937-.782 3.28-.562-.187zm-101.094.187l.969 2.125-.969 12.03c-.169-.981-1.535-8.733-2.094-9.5-.004-.005.005-.026 0-.03-.582-.576-1.75-3.282-1.75-3.282zm50.156 0l3.875.75-2.125 1.75-2.312-1.344zm36.281 0l1.344.375-.781 3.093-.75-2.125zm12.532 0l.594 3.656-1.75.375-1.157-3.469zm-4.25.968l1.344 2.688-.375.781-2.5-1.156zm-35.094.188l1.719.187-.375 3.657-2.5-2.125zm44.563 0l.968 1.156-1.562 2.125-.75-.375zm-40.125.375l1.718 1.562-1.156 2.688h-1.156l-.188-.969zm-37.625.969l.593 2.687 4.031 2.344-1.718 7.906-6.75.188zm21.625.593l3.468 1.157-.406.562-3.656-.969zm28.343 0l5 .188.219 1.156h-5.031zm-19.281 1.157l1.719 1.53-.969 1.532-1.906-.187zm35.688.187l2.687 1.719.188 1.375-2.688.937zm-88.563.563l4.625 3.656v6.781l-5.594-.594zm102.625.187l-.188 1.375-2.687.75-.219-1.906zm-40.5.219h1.156l.188 2.875-2.313.187-.375-.937zm-19.5.375l3.875.781-3.875.563zm53.438.75c.012-.005.05.003.062 0h.156c.033.001.086-.006.125 0 .029.005.07.025.094.031.005.002.025-.002.031 0 .04.015.094.048.125.063.149.073.298.201.406.343.021.029.07.09.094.125.128.224.188.515.188.813 0 .113-.01.237-.031.344a1.602 1.602 0 01-.22.53 1.9 1.9 0 01-.062.095 2.773 2.773 0 01-.125.125l-.062.062c-.023.017-.07.048-.094.063a.997.997 0 01-.969 0c-.023-.015-.071-.046-.094-.063l-.062-.062a2.783 2.783 0 01-.125-.125c-.018-.025-.048-.072-.063-.094a1.616 1.616 0 01-.218-.531 1.854 1.854 0 01-.031-.344c0-.335.093-.668.25-.906.005-.008.025-.024.03-.032.109-.142.258-.27.407-.343.031-.015.085-.048.125-.063.006-.002.026.002.031 0 .011-.003.019-.026.031-.031zm-78.313.219l-3.656 8.875-4.25.187s-.777-1.528-.969-2.5c-.192-.96 0-6.375 0-6.375zm39.281 1.312c.016-.005.046.004.063 0h.374c.052.012.11.041.157.063.047.023.115.062.156.093.081.065.166.161.219.25l.031.063c.007.016.026.046.031.062l.032.063v.031l.031.063v.218c-.006.023-.024.072-.031.094a1.018 1.018 0 01-.031.094 1.212 1.212 0 01-.063.125c-.015.023-.045.072-.063.094-.012.014-.049.049-.062.062a1.2 1.2 0 01-.156.125c-.033.02-.09.048-.125.063-.036.013-.088.022-.125.03l-.031.032h-.25l-.063-.031a.887.887 0 01-.469-.281 1.159 1.159 0 01-.094-.157c-.006-.013-.025-.048-.03-.062-.006-.014-.027-.049-.032-.063-.002-.006.002-.024 0-.03v-.095c-.004-.013-.024-.044-.031-.062-.002-.004 0-.028 0-.031v-.063l.031-.062v-.094l.031-.063c.006-.015.025-.047.031-.062l.032-.063c.008-.014.022-.048.031-.062a1.36 1.36 0 01.094-.125.994.994 0 01.156-.125c.014-.009.048-.023.063-.031.03-.015.062-.052.093-.063zm-9.969.594l.407.969-3.281 1.75-.97-1.532zm52.876 0l1.906.219-.188.968-1.719-.218zm-48.438.219h2.906l.188 1.156-1.719 1.906zm31.438.375h1.187l-.219 1.562-.969.75zm8.312.187l.375 1.156-2.5 1.75-.781-2.312zm-30.281.406l2.687.563-.562 1.531-2.5-.562zm37.219.97l1.156 3.28-2.125.938-.375-3.844zm-50.157.187l.781.75-.78 1.937-1.907-.781zm10.813.968h.969l.562 2.125-1.344.563zm-2.688.188l1.531 1.156-.187 1.531-2.5-.187zm36.063 1.156l-.188 2.313-1.375-.594zm2.125.781l.969.375v1.907h-1.75z" fill="#ffea0f"/><g fill="none" stroke-linecap="round" stroke-width="1.158"><path d="M354.702 234.36s-2.7-4.83-2.892-6.762c-.198-1.926.96-5.976 3.66-3.27 2.7 2.694 3.474 4.428 3.282 5.586-.192 1.164-.192 3.084-.192 3.084m2.892-9.258s2.892 7.338 4.05 10.218c1.158 2.91 1.542 6.762 1.542 6.762m4.056-.972l-1.158-11.178m13.5 14.07l.582-10.026m11.766 5.598l.576-6.174m9.84 8.682l1.158-9.84m10.224 11.574l3.084-9.066m-51.696 9.066s3.282.576 4.242 1.164c.966.57 2.316.762 2.316 1.734v2.88m0-2.88s.192-2.124 2.892-1.938c2.7.204 4.44 0 4.632 2.31.192 2.322.192 3.096.192 3.096m2.508-.186s-.774-4.056 2.124-4.056c2.892 0 5.784.198 5.976 1.548.192 1.344.39 2.694.39 2.694m7.524 0s0-4.242 2.892-4.044m9.642-1.158s-3.666.57-3.474 2.508c.198 1.92.582 2.508.582 2.508m5.592-.402s.966-3.27 2.316-3.654c1.35-.39 3.09-.774 3.09-.774m-62.31.384l3.474-1.548" stroke="#002a86"/><path d="M428.004 263.094h2.124m2.31-.192l10.998-2.316m-14.856 5.988l2.898-.198m-6.558 2.892l5.976-1.158m.192 2.508s5.4 1.344 6.366.768" stroke="#ffea0f"/><path d="M361.068 246.144l3.468-1.542m-2.94 3.258l3.474-1.548m-2.316 3.282l3.474-1.548m-2.892 3.258l3.468-1.536m-63.222-5.19s6.558-1.734 8.292-1.734c1.74 0 3.474 1.146 4.056.96.576-.186 2.7-.774 4.236-1.164 1.542-.372 11.958.774 11.958.774m11.97.39l-2.508.186m-24.888 2.136s-1.926.762-1.542 1.734c.384.96.966 2.508.576 3.078-.384.576-1.926 2.124-.768 2.706 1.158.576 2.118.762 2.118.762m1.356-3.078s-.582-2.694.768-3.084c1.35-.384 2.7-.198 2.7-.198m2.898 4.626l2.31 6.564" stroke="#002a86"/></g><path d="M287.557 181.499l-1.344.218-.188.938-3.28 1.531 3.28.219v1.531l-2.5 2.125-1.937 4.25-.188 4.438-8.312 7.687 9.469 11 27.594.594.75-2.906 1.937-2.5.188-5.22.968.22.188-1h-5v.03l-.594 2.72 1.531.375-1.344 2.125-2.124.562.593-11 2.688-.75-.188-1.75-5.969-.375.376 14.063-5-.188-.22-6.562 3.095.375v-9.625l-2.875-.407v-2.5l2.312.22-.188-5.813-1.937-.188-.406-2.687h-2.094l-.406 4.062-2.313 2.5-.375 1.719 2.875.406v2.125l-5.375-.406v5.594h-1.75l.188-9.657 3.094-2.28-4.438-1zm-1.719 18.906l.781 10.594-2.312-.188.187-10.219zm-3.875 2.125v7.5l-2.094-1.906 1.531-5.407zm12.156 0l2.313.187v8.47h-8.094v-3.626l1.156.156-.187.97 4.437-.188zm-16.562 1.906l-.219 1.75-1.156-1.156z" fill="#ffea0f"/><g stroke="#ffea0f"><path d="M410.448 209.466l11.766-4.83m-13.116 3.282l15.624-8.286 35.298-17.748m-1.536-4.818l-49.77 29.118m43.206-35.496l-44.556 33.564m25.464-35.868l-26.622 36.252 38.772-37.8m-21.606 6.75l-19.674 30.294m9.066-30.486l-11.19 28.74m5.4-29.124l-6.558 29.124m.198-28.938l-2.508 28.176m-3.666-28.176l.966 28.176m-9.072-27.978l6.756 27.39m-19.68-27.588l17.556 27.972-11.382-27.774m-14.466-.198l23.34 29.706m-30.672-29.892l28.746 32.016m-36.846-32.016l35.298 32.79m-47.256-32.79l46.872 31.83m-58.836-32.016l58.062 33.36m-95.676-40.122l94.716 41.286m-102.048-36.846l99.54 40.128M276 177.252l103.776 35.112m-106.284-29.91l96.258 27.402m-97.806-19.878l10.224 2.508m40.128 8.886l20.442 6.162m-72.912 6.372l12.534.39m27.204 0l11.766.774" fill="none" stroke-width="2.316"/><g fill="#ffea0f"><path d="M280.434 217.95s-1.926-1.536-2.892-1.344c-.966.198-3.474.972-3.474.972s1.542.762 2.892.96c1.35.186 3.474-.588 3.474-.588m.12 4.032s-1.926-1.548-2.892-1.35c-.966.192-3.474.966-3.474.966s1.542.774 2.892.96 3.474-.576 3.474-.576"/><path d="M286.224 222.006s-1.932-1.548-2.898-1.35c-.966.192-3.468.966-3.468.966s1.542.768 2.892.96c1.35.198 3.474-.576 3.474-.576m-4.248 3.468s-1.926-1.548-2.892-1.344c-.966.198-3.474.96-3.474.96s1.542.774 2.898.972c1.35.186 3.468-.588 3.468-.588"/><path d="M286.248 220.086s-1.932-1.548-2.898-1.362c-.96.198-3.468.96-3.468.96s1.542.774 2.892.972c1.35.192 3.474-.57 3.474-.57m6.726-.588s-1.932-1.548-2.898-1.35c-.96.192-3.468.966-3.468.966s1.542.774 2.892.972c1.35.186 3.474-.588 3.474-.588m0 3.282s-1.932-1.548-2.898-1.362c-.96.204-3.468.972-3.468.972s1.542.774 2.892.966c1.35.198 3.474-.576 3.474-.576m6.942-3.396s-1.926-1.548-2.892-1.35c-.966.186-3.474.96-3.474.96s1.542.762 2.892.96c1.356.198 3.474-.57 3.474-.57m-7.668 5.748s-1.926-1.53-2.892-1.344c-.966.198-3.474.96-3.474.96s1.542.774 2.898.972c1.344.186 3.468-.588 3.468-.588m7.74.774s-1.926-1.53-2.892-1.344c-.966.198-3.474.972-3.474.972s1.542.762 2.892.96c1.35.186 3.474-.588 3.474-.588m-2.58 3.438s-1.926-1.548-2.892-1.35c-.966.186-3.474.948-3.474.948s1.542.774 2.892.972c1.356.192 3.474-.57 3.474-.57m5.622-7.902s-1.932-1.536-2.898-1.332c-.96.186-3.468.96-3.468.96s1.542.774 2.892.96 3.474-.588 3.474-.588m4.41 1.338s-1.926-1.548-2.892-1.362c-.966.204-3.474.972-3.474.972s1.542.774 2.892.966c1.35.198 3.474-.576 3.474-.576m3.276-2.124s-1.926-1.542-2.892-1.344c-.96.186-3.468.96-3.468.96s1.542.774 2.892.96 3.468-.576 3.468-.576m8.49-1.932s-1.926-1.548-2.892-1.344c-.966.198-3.474.96-3.474.96s1.542.774 2.892.972c1.35.186 3.474-.588 3.474-.588m-.966 3.282s-1.926-1.548-2.892-1.35c-.966.192-3.474.966-3.474.966s1.548.768 2.898.96c1.35.198 3.468-.576 3.468-.576m6.948.186s-1.932-1.536-2.892-1.344c-.966.198-3.474.972-3.474.972s1.542.762 2.892.96c1.35.186 3.474-.588 3.474-.588m-11.574 4.644s-1.932-1.548-2.898-1.35c-.96.186-3.468.948-3.468.948s1.542.774 2.892.972c1.35.192 3.474-.57 3.474-.57m5.976 1.92s-1.926-1.548-2.892-1.35c-.966.192-3.474.966-3.474.966s1.548.768 2.898.972c1.35.186 3.468-.588 3.468-.588m9.552-.642s-1.932-1.548-2.892-1.35c-.966.186-3.474.948-3.474.948s1.542.774 2.892.972c1.35.192 3.474-.57 3.474-.57"/><path d="M285.066 260.586l11.184.582-2.7 1.926 4.05-2.508 11.766-.39" stroke-width="2.316"/><path d="M305.682 265.212s-1.932-1.548-2.898-1.344c-.96.198-3.468.96-3.468.96s1.542.774 2.892.972c1.35.186 3.474-.588 3.474-.588m1.182 2.706s-1.932-1.542-2.898-1.344c-.96.186-3.468.96-3.468.96s1.542.774 2.892.96 3.474-.576 3.474-.576m-6.948 3.084s-1.926-1.548-2.892-1.35c-.966.192-3.474.966-3.474.966s1.542.768 2.892.972c1.356.186 3.474-.588 3.474-.588m8.874 8.298s-1.926-1.548-2.892-1.35c-.966.186-3.474.96-3.474.96s1.542.774 2.892.966c1.35.198 3.474-.576 3.474-.576"/></g><g fill="none" stroke-width="2.316"><path d="M320.604 286.002s3.858-.774 6.174-.96c2.316-.198 3.09.186 5.4 1.344 2.316 1.152.576 1.536.768 3.858.192 2.31-5.01 3.084-9.45 3.468-4.434.39-2.892-3.468-2.7-8.298.192-4.812-1.158-4.038-5.016-4.038-3.852 0-9.834 3.276-9.834 3.276l5.208 2.7-.582 3.468 9.456-1.152" stroke-linecap="round"/><path d="M426.894 287.16s-5.982-4.824-9.84-5.4c-3.858-.588-6.75-.588-6.168 3.468.576 4.044 1.302 6.612 1.302 6.612s1.008-.246 3.906-.246c2.892 0 4.626 1.158 4.626 1.158l.39-4.428zm-98.382-8.496s-1.926 8.1 7.14 7.722c9.066-.384 67.71-.198 67.71-.198s4.242-.57 4.05-4.242c-.192-3.654 1.92-6.36-10.224-6.936-12.156-.588-62.694-.588-62.694-.588s-6.366-.57-5.982 4.242z"/><path d="M402.156 286.626s.126 4.5 3.084 5.784c6.174 2.712 8.874-.186 8.874-.186m-3.666-8.106l-3.276.768" stroke-linecap="round"/></g></g><path d="M358.838 287.092l2.5 4.22-4.438-1.907-1.156 1.719 2.875 2.906-4.812-.781-1.906 4.062 9.437 1.531-.969 6.75-8.687-.78-3.063-8.657-2.906.375 1.938 8.5-11-.219 3.093 10.438h2.125l-1.75-7.344 8.688.594.969 3.656-5.22-1.156.376 3.28 9.281 2.907 1.531 4.625s3.082 1.33 7.906 1.906c4.825.588 17.938-.562 17.938-.562l-.594-4.25s1.357-.967 4.063-2.125c2.7-1.158 5.593-8.469 5.594-8.469l2.906-1.156-3.281-1.344 4.812-6.969 8.313-.187v-1.938l-8.875-.187-3.282 2.125 2.125-3.469 7.313-.781.187-1.531-8.875-.22-10.219 12.376-2.5-.406.376-6.563 3.093.781-1.344-1.937 2.5-.75-1.343-1.156 1.156-2.125-5.781-1.157 2.687-3.093-2.312-1.344-3.844 3.281.938-3.281h-7.125l-.375 2.906-1.157-3.094h-3.281l-.188 2.688-.968-2.5zm-.781 21.032l.375 1.937-3.469 3.063-1.938-4.813z" fill="#ffea0f"/><path d="M360.366 315.252l-2.118 3.084m8.1 2.118l1.158-2.118m4.434 2.892l.582-2.118m-8.298-13.704h8.682m5.208 3.48l-4.632 6.942h6.366" fill="none" stroke="#002a86" stroke-linecap="round" stroke-width="2.316"/><g fill="#ffea0f"><path d="M338.916 278.55h-2.244v-1.302h6.582v1.302h-2.304v5.376h-2.034z" stroke="#ffea0f"/><path d="M344.034 283.926v-6.678h2.046v2.646h2.49v-2.646h2.028v6.678h-2.028v-2.742h-2.502v2.742zm7.95 0v-6.678h5.598v1.302h-3.564v1.368h3.276v1.29h-3.276v1.422h3.564v1.284h-5.598m17.232-6.666v4.23c-.018 1.854-1.656 2.58-3.504 2.58-1.854 0-3.492-.714-3.51-2.58v-4.23h2.034v4.14c.03.84.516 1.38 1.476 1.38.954 0 1.44-.54 1.47-1.38v-4.14h2.028m1.398 0h2.85l2.46 4.968.024-.012v-4.956h1.824v6.678h-2.82l-2.484-5.118h-.018v5.118h-1.836zm8.454 6.665h2.094v-6.653h-2.094zm3.198-3.323c0-2.202 1.368-3.48 3.804-3.48 2.43 0 3.804 1.278 3.804 3.48s-1.374 3.48-3.804 3.48c-2.436 0-3.804-1.278-3.804-3.48zm3.804-2.196c-1.386 0-1.668 1.176-1.668 2.22 0 .996.282 2.154 1.668 2.154 1.38 0 1.668-1.158 1.668-2.154 0-1.044-.288-2.22-1.668-2.22m4.896-1.146h2.85l2.46 4.968.024-.012v-4.956h1.83v6.678h-2.82l-2.49-5.118h-.018v5.118h-1.836zm-132.264-67.404l1.956 3.078 3.06.39-2.046 2.718.498 3.444-3.144-1.524-3.414 1.152.774-3.06-2.124-2.73 3.132-.39zm-.06-13.488l1.962 3.078 3.054.39-2.046 2.718.504 3.444-3.144-1.524-3.414 1.152.768-3.06-2.118-2.73 3.132-.39zm4.062-15.048l1.572 3.306 2.982.75-2.364 2.448.078 3.492-2.934-1.902-3.528.708 1.14-2.946-1.77-2.964 3.156.012 1.668-2.916m4.854-13.866l1.566 3.306 2.988.75-2.364 2.46.072 3.48-2.934-1.896-3.528.714 1.146-2.952-1.776-2.964 3.156.012zm-7.92 55.362l2.004 3.072 3.06.324-2.01 2.754.552 3.444-3.168-1.488-3.396 1.2.732-3.072-2.166-2.694 3.132-.426zm1.656 13.896l2.004 3.06 3.06.354-2.01 2.742.546 3.444-3.156-1.488-3.402 1.194.732-3.072-2.16-2.694 3.126-.42zm4.596 12.75l2.148 2.964 3.072.204-1.878 2.844.714 3.402-3.228-1.326-3.342 1.35.582-3.108-2.286-2.592 3.108-.558zm4.5 11.64l2.148 2.964 3.072.186-1.878 2.862.714 3.396-3.228-1.326-3.342 1.35.582-3.108-2.286-2.586 3.102-.576zm6.942 12.15l2.148 2.964 3.072.198-1.872 2.838.714 3.408-3.234-1.32-3.336 1.344.582-3.102-2.286-2.592 3.102-.576zm7.524 11.58l2.148 2.964 3.072.186-1.872 2.85.714 3.408-3.234-1.326-3.336 1.338.582-3.096-2.286-2.586 3.102-.576zm8.49 10.416l2.148 2.964 3.072.192-1.878 2.844.714 3.408-3.234-1.332-3.336 1.356.582-3.114-2.286-2.58 3.102-.576zm10.608 9.834l2.148 2.964 3.072.198-1.872 2.838.708 3.408-3.228-1.326-3.342 1.35.588-3.102-2.292-2.592 3.108-.576zm11.97 7.5l1.89 3.126 3.048.456-2.106 2.676.426 3.456-3.108-1.596-3.444 1.068.84-3.048-2.058-2.766 3.138-.312zm10.698 7.794l1.89 3.126 3.048.456-2.106 2.676.426 3.456-3.114-1.596-3.438 1.068.84-3.048-2.058-2.766 3.138-.318zm12.15 6.948l1.896 3.126 3.042.45-2.106 2.682.426 3.456-3.108-1.596-3.438 1.056.84-3.036-2.064-2.778 3.138-.3 1.368-3.06m14.472 4.242l1.896 3.126 3.042.45-2.106 2.682.426 3.456-3.108-1.596-3.438 1.068.84-3.048-2.064-2.778 3.144-.3 1.362-3.06m14.862 2.694l1.89 3.144 3.048.444-2.106 2.67.426 3.456-3.108-1.59-3.444 1.062.846-3.042-2.064-2.766 3.138-.306 1.368-3.072m-75.726 75.624h12.6v-44.406h-12.6zm38.394-22.188c-5.412-.762-7.296-4.206-7.296-9.996 0-9.036 7.23-11.574 14.55-11.574 7.956 0 13.998 2.472 13.998 11.574 0 5.472-1.398 9.366-6.234 10.056v.33c6.24.63 9.702 5.892 9.702 12.762 0 10.44-10.278 11.226-18.678 11.226-7.698 0-16.428-3.21-16.428-12.39 0-6.936 4.02-10.968 10.386-11.796zm14.064 10.056c0-4.194-3.054-6.048-6.81-6.048s-6.81 1.854-6.81 6.048c0 4.206 3.054 6.048 6.81 6.048s6.81-1.842 6.81-6.048zm-12.732-19.158c0 3.432 2.418 5.472 5.922 5.472 3.498 0 5.916-2.04 5.916-5.472 0-3.438-2.418-5.472-5.916-5.472-3.504 0-5.922 2.034-5.922 5.472m39.978 19.56c1.158.768 4.92 3.078 8.106 3.078 4.392 0 5.778-1.266 5.778-5.016 0-4.062-1.92-6.948-3.846-6.786-2.22.18-7.788 1.02-8.106 3.318l-6.948-2.694 4.368-22.71 24.594.048v8.268l-15.456-.276-1.542 6.948c.384-1.164.756-.39 5.4-.39 8.592 0 13.89 5.298 13.89 13.5 0 10.254-6.15 15.822-16.206 15.822-9.294 0-11.958-3.084-13.89-3.852zm45.912 3.468c.066 1.464 4.608.606 5.688 1.242 1.086.63 2.25-.672 3.57-.858 2.7-.384 6.306-2.436 6.558-8.094-2.478 3.114-6.054 2.832-10.026 2.304-5.79-.774-11.19-6.066-11.19-14.658 0-10.632 5.94-15.234 15.612-15.48 12.93-.33 18.012 11.376 17.568 24.738-.192 6.114-2.856 12.96-5.4 15.444-4.524 4.386-9.264 5.394-13.314 5.766-7.8.726-12.54-1.524-12.54-1.524zm10.02-27.27c-4.266 0-6.876 2.598-6.876 6.618 0 4.572 2.928 6.612 6.876 6.612 4.584 0 6.87-3.564 6.87-6.612 0-4.266-2.736-6.618-6.87-6.618M137.88 67.974l-6.366 5.202s-3.762-3.762-7.236-3.468c-3.462.294-7.212 4.536.582 9.552 8.1 5.202 9.486 11.79 9.258 17.076-.288 6.642-5.76 11.376-11.574 11.562-8.97.294-17.94-5.496-17.94-5.496l5.208-8.388 9.546 4.056s4.632 0 3.762-4.926c-.864-4.908-9.672-13.92-11.862-17.94-3.468-6.36 4.344-16.194 10.128-15.618 8.64.864 11.574 2.028 13.02 3.762s3.474 4.626 3.474 4.626m6.078-5.79v10.71l10.416-.864.288 33.846 10.704-1.152-.288-33.564 9.258-1.746-.576-9.534-29.802 2.316m60.755-5.791l-13.875 1.156-9.844 46.313 10.719-.313 2.594-7.219 11.844-1.156 2.343 4.906 9.531-2.03zm-6.063 13.312l5.782 16.782-9.563 1.437zm20.824-16.509v9.846l11.868-1.44.576 35.292 12.726-2.022-.282-34.728 8.388-2.598V47.43zm42.828-7.512l1.158 44.556 27.774-4.056-.576-9.258-16.206 1.734.288-7.512 7.23-1.452-.282-8.388-6.366.294-.582-8.982 17.076-3.174-.87-9.27zm75.818-7.822c-9.559.396-19.409 6.077-18.25 20.843 1.673 21.378 10.134 27.188 19.968 27.188 9.84 0 17.67-13.295 17.094-24.875-.582-11.568-4.923-23.732-18.813-23.156zm.312 8.687c.183-.012.379-.006.562 0 8.1.294 8.094 9.267 8.094 14.469 0 5.214-1.15 14.169-9.25 13.875-8.106-.276-7.817-8.965-8.688-15.031-.839-5.87 4.24-12.987 9.282-13.313zm48.868-7.519l-23.436-.588-.288 45.726h11.28V64.8h5.214l-.294-8.682-5.208-.294V46.86l13.026.276zm45.35 2.957c-9.426.187-19.166 5.566-18.593 20.125.84 21.42 9.078 27.56 18.906 27.937 9.834.384 18.126-12.601 18-24.187-.126-11.592-3.973-23.911-17.875-23.875-.15 0-.288-.003-.438 0zm.344 8.687c.205-.007.422.016.625.031 8.082.612 7.735 9.58 7.531 14.782-.203 5.202-1.724 14.112-9.812 13.5-8.082-.6-7.432-9.267-8.063-15.375-.6-5.875 4.688-12.75 9.72-12.938zm27.344-5.375c-1.015.008-1.563.094-1.563.094l-1.156 48.594 9.25 1.75.594-11 15.906 14.75 1.719-10.125-8.094-8.375s11.288-6.096 11-13.032c-.294-6.936-2.028-15.337-12.156-19.375-7.28-2.915-12.907-3.301-15.5-3.28zm10.063 12.438c1.51-.04 3.392.156 5.156.968 3.762 1.734 2.595 8.67 1.437 12.157-1.158 3.468-10.125 4.03-10.125 4.03l.594-16.78s1.226-.33 2.938-.375zm28.301-3.089l-2.892 44.85 24.018 5.214.576-9.84-12.732-4.044.288-7.242h6.654l.294-9.54-6.078-1.164v-7.8l11.574 1.44.576-8.682-22.278-3.18m61.344 18.504l-6.948 5.214s-4.05-7.518-11.28-3.48c-7.236 4.056-7.236 11.58-6.078 16.782 1.158 5.214 2.652 10.326 7.524 11.004 8.388 1.152 6.366-4.056 6.366-4.056l-5.208-.57-.294-9.552 15.63.87s.546 16.884-3.474 19.968c-4.92 3.762-16.35 6.792-23.436-.294-6.078-6.084-8.34-14.556-7.23-23.718.696-5.778 3.468-15.342 8.964-18.234 5.496-2.898 12.15-3.762 15.624-2.31 3.474 1.44 9.84 8.388 9.84 8.388m24.948-4.064c-9.558.39-19.377 6.09-18.219 20.843 1.674 21.39 10.13 27.188 19.97 27.188 9.833 0 17.638-13.295 17.062-24.875-.582-11.58-4.923-23.738-18.813-23.156zm.375 8.687c.164-.009.337-.006.5 0 8.1.294 8.094 9.255 8.094 14.469 0 5.202-1.15 14.169-9.25 13.875-8.1-.288-7.818-8.953-8.688-15.031-.842-5.894 4.282-13.042 9.344-13.313zm25.605-6.939l.576 44.844 9.84-.294.288-19.086 12.726 17.352h10.992l-1.446-45.714-10.128.87 1.158 23.718-16.782-21.984-7.23.294M476.796 210.99l-1.962 3.096-3.054.384 2.046 2.718-.498 3.444 3.144-1.518 3.414 1.134-.774-3.06 2.124-2.718-3.132-.384-1.308-3.084m.06-13.5l-1.962 3.096-3.054.384 2.046 2.718-.504 3.444 3.144-1.518 3.414 1.134-.768-3.06 2.118-2.718-3.132-.384-1.302-3.084m-4.068-15.06l-1.566 3.318-2.982.75 2.364 2.448-.078 3.492 2.934-1.908 3.528.714-1.14-2.94 1.77-2.964-3.156.012zm-4.848-13.86l-1.566 3.3-2.988.75 2.364 2.466-.072 3.468 2.928-1.902 3.534.726-1.146-2.952 1.776-2.964-3.156.012zm7.92 55.356l-2.004 3.06-3.06.342 2.01 2.754-.552 3.444 3.168-1.488 3.396 1.182-.732-3.06 2.16-2.706-3.126-.408zm-1.656 13.902l-2.004 3.054-3.06.342 2.01 2.754-.552 3.444 3.162-1.488 3.402 1.194-.732-3.066 2.16-2.706-3.126-.414zm-4.596 12.75l-2.148 2.964-3.072.186 1.878 2.85-.714 3.408 3.228-1.326 3.342 1.35-.582-3.108 2.286-2.586-3.102-.576zm-4.5 11.634l-2.148 2.964-3.072.186 1.878 2.85-.714 3.408 3.228-1.332 3.342 1.356-.582-3.102 2.286-2.592-3.102-.576zm-6.942 12.15l-2.148 2.97-3.072.198 1.872 2.832-.714 3.414 3.234-1.338 3.336 1.35-.582-3.096 2.286-2.586-3.102-.576zm-7.524 11.58l-2.148 2.964-3.072.192 1.872 2.844-.708 3.414 3.228-1.338 3.336 1.344-.582-3.102 2.286-2.58-3.102-.57zm-8.49 10.422l-2.148 2.964-3.072.186 1.878 2.85-.714 3.396 3.234-1.326 3.336 1.35-.582-3.108 2.286-2.574-3.102-.588zm-10.608 9.828l-2.148 2.964-3.072.204 1.878 2.832-.714 3.414 3.228-1.338 3.342 1.356-.588-3.102 2.286-2.592-3.102-.57zm-11.97 7.5l-1.89 3.132-3.048.456 2.106 2.67-.426 3.456 3.108-1.59 3.444 1.062-.846-3.042 2.064-2.766-3.138-.318zm-10.698 7.782l-1.89 3.138-3.048.45 2.106 2.682-.426 3.456 3.114-1.59 3.438 1.062-.84-3.048 2.058-2.772-3.138-.306-1.374-3.06m-12.15 6.936l-1.89 3.144-3.048.444 2.106 2.67-.426 3.468 3.108-1.602 3.438 1.062-.84-3.03 2.064-2.778-3.138-.306-1.374-3.06m-14.472 4.23l-1.89 3.144-3.042.444 2.106 2.682-.426 3.456 3.108-1.602 3.438 1.068-.84-3.048 2.064-2.766-3.144-.318z"/></g></svg>