<svg xmlns="http://www.w3.org/2000/svg" xmlns:xlink="http://www.w3.org/1999/xlink" height="580" width="660"><defs><path id="a" transform="matrix(40 0 0 40 0 -205)" d="M0-1L.588.809-.952-.309H.952L-.588.809z"/></defs><path d="M0 0h660v580H0z" fill="#fff"/><g fill="#fec500" stroke-width="1.5"><path d="M325.78 185.52s-1.06 118.22-1.06 126.82c0 8.6 0 20.42-9.5 18.27-9.48-2.15-21.09-2.15-37.97-13.97-16.87-11.82-16.87-13.97-16.87-13.97l15.82-5.38s-15.82-3.22-26.37-10.74c-10.55-7.53-18.99-13.98-18.99-13.98s-1.05 16.13 4.22 27.95c5.28 11.82 15.82 22.57 15.82 22.57v-13.97s14.77 13.97 20.05 17.2c5.27 3.22 26.37 11.82 34.8 17.2 8.44 5.36 23.904 20.41 23.904 20.41s16.186-17.2 26.736-21.5c10.55-4.3 24.26-10.74 30.59-15.04 6.33-4.3 23.2-20.42 23.2-20.42v18.27s11.6-13.97 14.77-23.65c3.17-9.67 4.22-26.87 4.22-26.87s-8.44 6.45-15.82 9.68c-7.39 3.22-28.48 11.82-28.48 11.82l16.87 4.3s-27.42 21.5-36.91 25.8c-17.286 8.311-29.54 6.44-29.54-4.3s1.06-136.5 1.06-136.5zm1.05-39.77h7.38v32.24h-7.38z" stroke="#fec500"/><path d="M274.1 178s29.53-6.45 56.95-6.45 55.9 6.44 55.9 6.44v11.83s-37.97 5.37-60.12 5.37-52.738-6.45-52.738-6.45z" stroke="#fff"/><path d="M347.92 172.08c0-4.9-1.89-9.332-4.945-12.54a16.884 16.884 0 00-5.366-3.798c-1.01-.448-.83-.62-1.93-.855l.033 6.142c1.324.653 1.632 1.304 2.634 2.471 2.004 2.335 3.244 5.56 3.244 9.12 0 7.12-4.96 11.732-11.07 11.732s-11.07-4.612-11.07-11.732c0-3.56 1.24-6.785 3.244-9.12 1.002-1.167 1.31-1.818 2.634-2.47l.032-6.143c-1.099.236-.92.407-1.93.855a16.884 16.884 0 00-5.365 3.798c-3.055 3.208-4.945 7.64-4.945 12.54 0 9.8 8.032 17.74 17.4 17.74 9.368 0 17.4-7.94 17.4-17.74z" fill-rule="evenodd" stroke="#fff"/></g><g fill="#003271" stroke="#fff" stroke-linejoin="round"><path d="M427.63 378.37s-14.01 12.8-27.72 14.62c-13.71 1.83-35.3 8.27-35.3 8.27s-.57 19.72.1 21.43c.67 1.71 1.1 2.16 3.07 2.23 6.39.23 21.95.25 38.88-3.69 22.13-5.15 43.84-18.47 43.84-18.47-5.06-2.08-17.3-3.91-25.2-5.87zm-41.03 30.45c1.5 4-22.18 7.7-21.89 13.87m-132.34-44.32s14.01 12.8 27.72 14.62c13.71 1.83 35.3 8.27 35.3 8.27s.57 19.72-.1 21.43c-.67 1.71-1.1 2.16-3.07 2.23-6.39.23-21.95.25-38.88-3.69-22.13-5.15-43.84-18.47-43.84-18.47 5.06-2.08 17.3-3.91 25.2-5.87zm41.03 30.45c-1.5 4 22.18 7.7 21.89 13.87"/><path d="M277.26 407.99c-2.44-.76-3.86.83-3.86.83v-34.16s1.48-1.34 4.06-.21c9.1 3.97 32.56 12.02 52.54 12.02 19.98 0 43.44-8.05 52.54-12.02 2.58-1.13 4.06.2 4.06.2v34.17s-1.42-1.6-3.86-.83c-9.7 3.01-35.06 10.5-52.74 10.5S286.96 411 277.26 408z"/></g><g transform="translate(330 290)" fill="#fec500"><use xlink:href="#a"/><g id="b"><use xlink:href="#a" transform="rotate(27.69)"/><use xlink:href="#a" transform="rotate(55.38)"/><use xlink:href="#a" transform="rotate(83.08)"/><use xlink:href="#a" transform="rotate(110.77)"/><use xlink:href="#a" transform="rotate(138.46)"/><use xlink:href="#a" transform="rotate(166.15)"/></g><use xlink:href="#b" transform="scale(-1 1)"/></g><path d="M363.248 385.22c5.637-1.534 11.224-3.258 16.789-5.04.075 1.725.134 3.455.178 5.189a718.449 718.449 0 01-10.606 3.196c.01 1.276.016 2.554.018 3.832 3.293-.947 6.586-1.93 9.888-2.917.018 1.66.023 3.325.014 4.993-3.312.955-6.613 1.918-9.91 2.85-.008 1.59-.022 3.18-.04 4.772 3.648-1.016 7.301-2.06 10.97-3.074-.04 1.866-.098 3.737-.174 5.613-5.747 1.514-11.46 3.146-17.2 4.652.085-8.039.11-16.06.073-24.065zm-25.996 5.129c3.606-.332 7.194-.874 10.759-1.552 2.333-.444 4.064-.191 5.213.834a4.32 4.32 0 011.015 1.35c.475.96.711 2.196.709 3.711-.002 1.492-.242 2.84-.72 4.04a8.623 8.623 0 01-1.164 2.07c-1.237 1.634-3.142 2.73-5.72 3.185a121.3 121.3 0 01-3.515.568c-.013 2.958-.04 5.917-.08 8.879-2.161.303-4.33.544-6.505.71a916.26 916.26 0 00.009-23.795zm6.584 9.364c.526-.079 1.052-.161 1.577-.247 1.238-.202 2.106-.607 2.603-1.189.498-.593.747-1.28.745-2.053-.002-.752-.22-1.347-.656-1.788-.436-.442-1.252-.55-2.455-.346-.611.103-1.223.201-1.836.295.013 1.775.02 3.551.022 5.328zm-36.93.117c-.019-3.9.917-6.716 2.81-8.504 1.902-1.796 4.538-2.364 7.95-1.896 3.49.479 6.188 1.743 8.096 3.962 1.908 2.208 2.88 5.168 2.881 8.984.001 2.769-.424 5.04-1.265 6.792-.83 1.74-2.033 3.072-3.595 3.951-1.553.87-3.486 1.187-5.799.897-2.347-.294-4.3-1.035-5.845-2.155-1.538-1.12-2.793-2.717-3.76-4.765-.966-2.048-1.458-4.479-1.472-7.266zm6.403 1.284c.009 2.4.41 4.195 1.194 5.365.795 1.171 1.867 1.857 3.218 2.031 1.388.18 2.465-.219 3.226-1.166.761-.948 1.139-2.754 1.135-5.405-.003-2.234-.406-3.894-1.211-5.003-.796-1.118-1.877-1.757-3.243-1.941-1.308-.177-2.355.183-3.146 1.105-.789.921-1.182 2.59-1.173 5.014zm-34.187-21.324c2.053.736 4.114 1.447 6.185 2.131a465.388 465.388 0 00-.124 8.395c2.303.729 4.608 1.433 6.915 2.105-.002-2.794.007-5.58.03-8.36 2.099.623 4.207 1.216 6.324 1.776-.004 7.944.04 15.921.13 23.93a296.692 296.692 0 01-6.35-1.707c-.053-3.258-.09-6.507-.112-9.748a382.118 382.118 0 01-6.934-2.068c.022 3.264.077 6.541.166 9.832-2.094-.618-4.185-1.243-6.273-1.865a279.447 279.447 0 01.044-24.421z" fill="#fec500"/></svg>