<svg xmlns="http://www.w3.org/2000/svg" width="750" height="500"><path fill="#036" d="M0 0h750v500H0z"/><path d="M41.52 93.346c-21.148 70.501 63.886 127.468 121.808 76.353 60.744-63.782-7.044-149.928-77.44-122.429 51.378-8.834 82.003 50.53 47.454 87.572-33.37 34.089-94.226 11.688-91.822-41.496zm371.043-8.741c-2.695 1.253-4.685 4.898-5.822 7.775-2.699 8.032-5.474 16.047-8.186 24.065-1.416 3.605-2.781 7.274-4.207 10.851-2.616-.353 1.032-4.823.831-6.736.865-3.926 2.787-7.763 2.951-11.77-.657-3 .067-6.894-1.423-9.336-2.223 5.13-5.039 10.044-6.952 15.29-1.439 6.294-3.37 12.477-4.177 18.9-.482 3.325-1.067 6.603-2.147 9.79-2.662-.247-1.959-4.94-3.525-6.873-1.42-4.52-4.282-8.429-6.35-12.67-1.057-1.051-3.485-8.437-3.441-4.321-.238 2.974-.442 5.95-.715 8.922-5.916-11.058-11.85-22.105-17.774-33.159.482 3.59-.015 7.461 1.29 10.854 2.873 6.193 5.498 12.499 8.242 18.75-1.444 1.366-1.735-.892-2.457-1.81l-16.419-28.99c-2.21 1.553-.671 4.416-.956 6.655.903 3.14 2.983 5.951 4.4 8.925 2.59 4.846 5.253 9.669 7.913 14.465-1.907 2.102-2.945-3.85-4.31-5.191-4.95-8.586-9.847-17.203-14.943-25.703-2.233.772-2.924 2.407-2.549 4.571-.369 2.168.53 4.012 1.784 5.755 3.829 6.628 7.694 13.235 11.555 19.844-1.308 1.519-1.708-.7-2.47-1.588l-18.64-29.494c-1.511-.68-3.649-2.495-3.165.518-.719 3.771 3.38 6.408 4.72 9.67 5.526 8.55 11.22 17.146 16.724 25.613-1.152 1.553-1.68-.43-2.423-1.283l-10.475-14.856c-1.304-.34-2.98-1.186-2.487.93-.086 1.342-.444 2.759.696 3.77 5.585 8.383 11.275 16.723 16.796 25.133 1.791 3.663 3.423 7.437 5.313 11.033l9.568 9.847c-2.29 1.844-4.61-4.008-6.89-5.065-2.415-2.718-5.663-4.89-7.027-8.371-1.656-2.59-2.607-5.683-5.163-7.577-2.83-2.124-5.006-5.993-8.29-6.955-1.06 2.34-.195 7.606 2.984 9.415.317.872 4.774 3.874 2.327 3.259-4.8-.528-9.307-2.207-13.805-3.865-2.717 2.607 6.489 4.694 1.322 5.757-3.738.051-6.62-3.337-10.036-4.593-8.514-4.656-17.238-8.944-25.943-13.213l-5.423-1.636c-.502 3.153 4.424 4.043 6.06 6.272 6.605 3.567 13.372 6.946 19.99 10.528-.213 1.989-2.008.485-3.209.293l-37.155-11.965c-2.08-.497-1.717.595-.876 1.998.208 1.623 1.82 1.704 3.079 2.173 9.722 3.262 19.435 6.552 29.163 9.797.383 1.533.704 3.08 1.038 4.625-2.21-1.82-4.388-3.902-7.415-4.1-6.332-1.567-12.857-.238-19.277-.165-3.425-.82-3.87 1.944-.458 2.535 2.742 2.13 6.276.934 9.463 1.103 5.183-.155 10.365-.321 15.548-.506.917 2.953-5.06.977-5.287 3.375-.598 2.848 4.775 2.848 6.715 2.266 2.964.05 5.018-4.344 7.538-3.596-.659 2.818-5.607 3.448-6.168 6.364-.373 2.92 5.588 2.06 7.303.813 1.989-1.653 5.414-4.149 5.597.28.579 4 5.87 2.451 8.746 3.806 5.127.782 10.376 1.106 15.457 1.946 4.86 2.206 9.737 4.395 14.587 6.61-.998 2.753-5.273-1.42-7.488-1.258-3.67-1.024-7.051-3.107-10.95-3.146-3.37-.619-6.755-.547-10.139-.153-10.248.856-20.517 1.55-30.752 2.508-9.527 1.609-19.077 3.15-28.601 4.724-2.42.751-7.68 2.17-2.643 3.146 10.815-.508 21.608-1.418 32.404-2.234.78 1.888-1.54 1.244-2.7 1.545l-26.935 2.734c-2.764 2.044-6.453 3.168-7.96 6.512.433 4.76 6.392.407 9.344.724 7.768-1.307 15.507-2.543 22.997-4.94 2.232.179 7.81-3.806 8.148-.943-8.47 2.612-16.96 5.26-25.5 7.628l-5.456 1.275c-.531 4.371 6.08 1.822 8.777 2.516 5.927-1.386 11.576-3.777 17.434-5.439 3.124-.257 7.856-3.918 10.12-2.415-2.012 2.054-6.683 3.137-9.603 4.836-6.027 2.637-12.14 5.058-18.014 8.052-3.869 3.92 4.111 3.56 6.07 1.53 6.276-2.878 12.474-5.918 18.657-9.017 1.516 1.253-.712 1.852-1.502 2.713-3.502 2.742-6.92 5.578-10.825 7.734-1.513 1.215-3.987 1.64-4.283 3.867 3.43 1.95 6.709-.415 9.784-1.95a984.192 984.192 0 0124.35-15.259c3.537-1.584 7.166-2.956 10.759-4.404 1.388 1.386-.88 1.807-1.741 2.62-3.948 2.642-7.911 5.266-11.85 7.919-4.306 4.454-8.205 9.352-13.29 12.967-2.37 1.983-4.791 3.77-6.665 5.956-3.719 3.74-7.569 7.347-11.253 11.12-1.15 3.813-3.599 7.396-3.328 11.486.047 4.403-.453 8.854-.038 13.227.452 1.818 1.5 5.96 1.855 1.819.2-1.894 1.507-8.424 2.91-3.842.77 1.714 1.53 6.882 2.443 5.985 1.338-2.652 1.586-6.372 3.74-8.383 1.919 1.12 3.435 3.883 5.263.704 2.32-2.7 1.977-6.761 3.131-10.05.995-4.268 1.993-8.535 2.994-12.801 1.818-.526 1.388 1.675 1.84 2.805l1.747 7.891c3.969-1.72 2.348-7.085 3.628-10.48.254-2.543 1.063-9.24 3.795-4.128 1.605 3.848 6.05-.588 5.916-3.387.907-4.434 1.776-8.877 2.705-13.307 1.191 2.122 2.433 4.215 3.65 6.323 4.144-.192 5.57-4.348 8.258-6.812 2.415-2.508 4.57-5.414 7.251-7.596 3.055-1.575 5.918-3.679 9.06-5.034 3.067 2.834-1.56 6.66-3.303 9.092-3.887 4.803-8.686 8.76-12.756 13.41-1.606 1.854-4.12 3.41-3.446 6.17 2.043.911 4.173 1.739 6.23 2.662-3.107 1.557-6.446 2.896-9.313 4.782-2.775 2.4-5.772 4.532-8.682 6.764-.786 2.112-1.294 4.497 1.83 3.619 2.232-.384 8.239.57 3.518 2.767-4.438 2.9-9.576 4.71-13.968 7.582-1.217 1.624-4.482 4.173-.504 4.058 2.657-.382 6.635-4.431 8.61-2.381-2.794 3.086-6.414 6.064-9.47 9.147-1.557 1.204-5.01 4.554-2.966 5.495 4.843-2.315 8.246-6.666 12.371-9.982 1.45-2.303 5.335-4.35 4.105.14-4.79 5.964-9.42 12.097-14.349 17.904.497 5.832 4.247-1.674 6.094-3.239 2.88-3.4 5.559-7.044 9.324-9.53 1.307-.284 4.755-5.196 4.937-3.188-.088 1.67.428 3.534-.991 4.834-2.979 4.014-4.97 8.606-7.409 12.948-.403 1.874-.82 7.259 1.888 4.719 3.223-6.013 7.157-11.635 9.695-18.002 2.602-5.46 4.357-11.32 6.538-16.919 1.835-2.739 2.732-1.81 2.477 1.053.296 2.663.183 8.36 2.022 8.763 3.341-7.635 7.536-14.856 11.1-22.377 1.232-3.67 2.697-7.275 4.22-10.845 1.92-.2 1.038 1.883 1.227 3.093-.129 2.428.257 4.94-.188 7.316-2.07 5.945-3.623 12.076-6.51 17.704-1.75 3.62-4.224 6.88-5.917 10.52-1.696 2.21-1.067 2.226.845.927 3.38-1.548 5.65-4.45 7.993-7.21 3.687-2.957.95 3.765.1 5.191-2.005 5.684-3.303 11.648-5.572 17.262-.028 1.701-.618 5.612 1.55 2.618 4.068-3.18 5.549-8.276 7.983-12.622 1.475 2.156 4.252 3.402 5.596.743-.225-3.357-1.774-6.837-.262-10.09 1.493-5.378 2.719-10.859 3.56-16.372.406-3.352.632-6.742 1.047-10.082 1.865-.96 1.077 2 1.227 3.124v7.666c1.827.201 5.18-3.037 6.134-.912-1.844 1.58-4.66 2.558-6.33 4.277l-.213 6.42 6.827-4.153c1.613 1.135-.526 1.92-1.257 2.858l-5.602 5.227-.094 4.53c1.582-.497 3.176-.96 4.75-1.478 1.298 1.477-.94 1.81-1.868 2.58-1.05.975-3.41 1.142-3.069 2.975-.119 4.61-.288 9.216-.474 13.824.832-1.648 3.767-5.613 3.338-5.839-.962 1.883-4.463 2.01-2.08.05.992-1.204 6.394-5.05 4.486-1.207-1.86 2.682-3.475 6.252-5.427 8.455-.555-.054-1.221 3.888.462 3.109 1.396.95 5.707 1.384 2.73 3.038-1.274 1.28-2.87 2.418-3.95 3.782.09 3.858-.883 10.282-.128 12.523 1.138-1.6 4.883-4.488 4.097-5.243-1.58.754-6.393.395-3.024-.83 2.052-.778 7.784-.998 4.12 2.233-1.951 3.479-6.598 4.574-5.72 8.38.017 2.807-1.133 4.522 2.304 4.008 3.933-.344 4.207 3.489.661 4.537-2.438 1.423-4.568 1.33-3.096 4.562.76 2.124 6.004 3.557 4.688 5.757-.196-2.481-.754.957-2.111-1.532-1.67-1.332-3.82-4.499-3.114-.298-.307 8.014-.624 16.027-.941 24.04 1.653-.505 4.585 1.81 4.614 2.884-1.704 1.58-5.774-5.324-4.716.144.057 2.462-.59 7.013-.089 8.16.82-.69 2.123 1.283 3.13 1.624l3.447 2.384c-.633 1.953-1.98-.06-3.06-.58l-3.798-2.63c.297 3.26-1.134 9.253.177 10.939 1.495 1.102 5.401 4.27 5.305 6.042-1.933.516-4.724-5.252-5.941-4.922-.188 4.862-.363 9.725-.548 14.588 2.03.681 6.142 3.324 7.214 4.989-1.834 1.554-5.706-4.217-7.294-3.484-.288 3.928-.051 7.943-.614 11.826-.745 2.823 7.032 2.126 5.35 5.01-2.868-.945-6.848-5.049-6.871.254-.613 4.227-4.461 8.544-1.466 12.55 1.153 3.253 4.848 4.639 7.614 6.292 3.266-.515 6.402-2.13 9.804-2.257 5.014-.777 10.114-1.057 15.112-1.864 2.112-1.54 4.729-2.992 1.545-4.967-2.534-3.111-1.932-7.545-3.401-11.077-.004-2.875-.595-4.125-3.124-2.05-1.983.393-5.065 4.622-6.188 1.987 2.962-1.434 5.65-3.299 8.651-4.688-.355-3.762-1.082-7.504-1.007-11.294-2.37 1.53-5.87 4.708-8.146 4.269.928-2.117 5.46-3.049 7.391-5.276 1.403-.018.487-2.009.725-3.185l-.096-9.839c-2.195 2.479-4.824 4.246-8.148 4.782-2.472-2.161 3.774-1.382 4.58-3.223 1.495-1.688 4.258-2.74 3.518-5.38l-.075-8.7c-1.932 1.283-5.473 5.884-7.338 3.978 2.017-1.797 6.384-3.517 7.3-6.206l-.12-11.3c-2.082 2.783-4.925 4.689-8.289 5.566-1.65 1.83-5.019.204-1.662-.712 3.275-1.086 6.583-2.272 8.62-5.249 1.85-.992 1.228-2.755 1.295-4.581l-.09-8.048c-3.911 3.469-7.445 7.314-11.325 10.822-2.043-2.156 3.796-4.026 4.625-6.166 1.93-2.314 5.206-4.551 6.696-6.54l-.09-8.78c-1.49 1.378-3.905 3.127-.85 1.478 1.369 1.54-1.033 1.697-2.039 2.365-1.385.65-2.775 1.29-4.158 1.945-1.446-2.716 4.68-4.047 5.901-6.436 1.654.406 1.041-1.152 1.116-2.76l-.064-6.125c-2.044 3.721-6.117 1.563-9.366.888-2.4-.196-.142-.928.855-1.522l7.724-4.148c1.452 1.465-.943 1.743-1.913 2.461l-4.568 2.415c2.855 1.6 6.355.576 7.23-2.197.008-4.903-.134-9.723-.371-14.634-2.256 2.267-3.551 4.747-6.355 5.758 1.311-.607 6.72.18 3.083 1.132-2.086.417-9.05.683-4.177-1.975 2.489-.977 4.105-2.795 5.688-4.883 1.882-1.084 1.864-1.819 1.61-4.034l-.384-9.053c-1.142 1.404-6.007 5.249-4.766 5.245 1.456-.918 7.165-1.184 3.77.464-2.176-.138-6.881 2.893-7.656.237 3.034-1.742 5.263-4.461 7.796-6.859 1.484.19.506-1.99.692-3.338l-1.094-27.178c-1.425 1.266-7.392 6.087-5.21 1.301 1.462-1.676 2.952-4.608 4.577-5.178 1.063-.546.092-2.524.34-3.644.245-2.773-1.446-5.134-2.273-7.68-.057-1.04-2.007-2.857-.35-3.165 1.805 1.532 2.66 5.694 4.122 8.157 2.224 5.148 4.764 10.182 6.721 15.432 1.082 4.368 2.235 8.721 2.391 13.244 1.111-.405 3.183.265 3.107-1.466.259-1.704 1.49-3.46.409-5.092-4.873-13.26-10.413-26.254-15.565-39.404 1.222-1.27 1.627.461 2.106 1.491 2.997 5.974 4.954 12.4 7.451 18.596 2.534 6.718 5.2 13.398 8.25 19.898 4.693-2.73.812-7.621.149-11.594-2.194-7.267-5.16-14.277-7.701-21.428-.755-1.27-2.404-1.867-3.502-2.88-1.616-1.191-3.273-2.399-4.865-3.58 1.324-2.5 4.263 1.895 6.294 2.112 3.494 3.682 4.355-1.977 7.455-2.627.869 3.19-5.024 5.772-1.886 9.456 2.26 7.714 4.29 15.506 7.284 22.978.496 1.347.997 2.692 1.49 4.04-1.013 1.456.43 7.688 2.495 6.08.708-3.363 2.86-6.693 1.032-10.093-2.682-10.252-6.364-20.21-9.463-30.34.04-3.692 2.347 1.574 2.604 3.161 3.563 9.677 7.418 19.265 10.568 29.084-.67 2.884-.648 8.983 3.115 5.537.168-3.851.469-7.794-1.133-11.42-3.258-8.67-5.847-17.594-8.746-26.395-1.655 1.8-4.77.076-5.253-1.913.556-4.373-3.054-4.25-6.316-3.97-1.426-.139 2.49-2.183 2.95-2.926 1.76-.968 5.516-3.932 1.895-4.727-1.157-.53-2.307-1.075-3.469-1.596 1.728-2.974 3.518-5.892 5.807-8.48 1.41-2.571.339-7.184-2.397-8.751-1.984-1.09-1.76-3.604-2.546-5.467-1.035-1.097.004-3.21.83-1.62l1.547 5.316c2.988 1.603 4.375 4.235 4.305 7.552 1.363 3.096-2.228 4.974-3.553 7.317-.79 1.148-1.456 2.385-2.2 3.567 1.664.783 3.363 1.496 5.003 2.328.344 3.126-5.052 5.193-4.656 6.26 5.236-1.405 2.058 5.893 6.01 6.491 1.344-.013 2.512-1.349 3.783-1.904 2.268.429-.952 1.485-.418 2.499 4.227 11.493 8.567 22.996 12.584 34.535-.383 4.175 3.594 4.72 6.071 6.45.343 2.225 1.408 6.452 3.757 5.545.1-5.955.474-11.944.49-17.878.34-2.033-3.114-6.959-.283-7.204 1.59 4.656 3.693 9.195 4.785 13.988.769 3.113-.764 8.17 3.701 8.633 1.97.801.446-6.354 2.557-4.406l3.492 2.769c4.725.113 1.211-5.068 1.29-7.708-1.487-3.694-2.897-7.434-4.374-11.137 2.2-.91-1.181.322-.544-2.037-.508-3.653-2.875-6.4-4.995-9.257-.898-1.935-.838-4.228-2.517-1.479-1.997 1.654-1.117 4.382.284 6.126 2.279 3.528 2.053 8.189 4.9 11.377 1.25 2.055 2.93 4.127 2.495 6.675.111 1.173.204 3.506-1.258 2.376-.196-1.99.534-4.143-.698-5.725-1.508-2.966-3.673-4.818-4.273-8.15-.654-3.35-2.523-6.215-3.933-9.25.316-.736-4.7.405-4.311-1.163 1.387-.195 1.141-.806 3.494-.283 1.78-1.506 1.763-4.342.566-6.23-2.363-5.294-6.002-9.935-8.652-15.069-.668-3.35.663-7.475-2.55-9.81-3.32-3.232-5-7.592-6.856-11.74-2.133-2.972-5.606-4.724-8.085-7.424-1.35.427-6.44.586-3.912-.938 3.482-1.393 5.878.594 8.096 2.951 2.527 1.965 5.21 3.997 6.058 7.224 1.576 3.767 3.627 7.252 6.547 10.143 2.572 2.415 1.244 6.276 1.93 9.374 3.166 5.744 7.401 10.987 9.532 17.24-.46 2.735.755-.875 2.054-.556-.123-3.097.956-7.285-1.048-10.172-2.091-3.888-4.526-7.637-6.417-11.608-1.316-2.835-2.927-6.38-4.394-9.474-1.54-3.576-3.778-6.785-5.894-10.031 2.11-2.207 3.208 4.149 4.845 5.253 3.684 6.517 6.003 13.716 10.03 20.05 1.175 2.78 3.666 5.218 4.193 8.179.405 1.77-.703 7.503.734 7.028.717-1.382 1.447-2.757 2.157-4.143 1.148-.544 3.42-.197 3.696-1.454.398-3.864-3.493-6.676-3.885-10.47-1.1-5.173-3.173-10.066-5.745-14.669-2.761-6.06-6.814-11.444-8.999-17.77-.578-3.691 2.415 1.02 2.477 2.743 2.125 4.835 5.228 9.178 7.423 13.998 2.09 3.921 4.09 7.876 5.239 12.194.787 4.06 2.462 7.813 4.576 11.37.363 1.622-.048 2.887 1.335 3.034.64 1.491-2.466.737-1.238 3.021.353 1.43-.371 6.832-1.443 3.758.094-2.535 1.29-6.658-2.332-4.717-.965.836-1.334 2.43-2.075 3.55-.61 1.523-2.89 1.416-1.338 3.578 2.03 3.024 4.734 5.716 5.265 9.482.43 3.358 3.22 5.633 4.908 8.534 1.83 1.88 3.975 7.638 5.81 6.604.821-3.575-2.319-5.96-3.467-9.066-2.456-5.254-4.684-10.613-7.03-15.918 1.907 1.375 4.336 2.176 5.422 4.432 4.364 5.812 8.654 11.684 13.14 17.401 4.699 2.257 1.813-3.6.377-5.442-3.583-7.233-8.49-13.702-12.724-20.562-.92-.938-3.86-5.502-1.114-4.097l14.499 17.895c1.633 1.115 4.582 2.045 3.6-.734-4.144-7.568-9.42-14.44-14.036-21.73-4.825-6.862-8.923-14.2-13.253-21.391 2.278-1.844 5.268 2.785 7.808 3.39 4.061 2.22 7.682 5.053 11.007 8.256 5.604 4.873 10.992 10.03 16.815 14.632 2.903 1.59 5.166 4.366 8.288 5.402.051-1.049-3.192-4.986-1.83-4.96 3.272.92 6.364 2.28 9.386 3.79 2.025.997 8.36 3.38 5.185-.75-1.01-2.065-5.822-3.183-5.036-5.424.893-.48 2.343 1.028 3.45 1.313 2.543 1.528 5.4 2.222 8.318 2.633 4.265-.19 1.585-4.632-1.295-4.662-6.612-3.521-13.172-7.147-19.751-10.722 1.364-2.763 5.827 1.624 8.4 1.479 1.503-.473 7.025.662 5.092-1.944-.818-1.002-2.509-1.035-3.68-1.645-9.015-3.266-18.048-6.49-27.052-9.781-3.842-2.588-7.748-5.097-11.609-7.645.59-2.366 4.461.682 6.386.44 3.373.882 6.763 1.61 10.267 1.567 2.25.062 6.97.634 7.789.26-1.49-.805-8.066-2.708-4.312-3.733 1.883-.116 7.8-.235 2.755-.423-3.578-.372-7.317-.244-10.773-1.194.442-1.279 2.23-.797 4.565-.549 2.549.874 7.712-.623 8.709 1.515 2.53.81 6.973-.23 10.23-.033 4.505-.397 9.462.225 13.683-.888 1.471-2.292 5.873-3.036 5.792-6.01-.293-2.761-.325-5.607-.78-8.316-.937-1.024-1.135-3.105-2.723-3.197-4.255-.698-8.323-1.868-12.358-3.317-8.396-.205-16.826-.13-25.199-.63-2.713-.176-5.943 2.281-9.06 2.109-4.816.484-9.735.086-14.406 1.575-1.8 1.396-4.304-.618-1.419-.978 3.608-.955 7.258-1.608 11.002-1.551 3.807-.122 7.635-.406 11.164-1.964 2.164-1.468 2.643 1.025 3.067-1.697 1.98-.75 8.318-.22 6.825-2.307-7.82.266-15.646.36-23.47.504-2.813-.279-6.401 1.46-9.185 2.8-3.263 1.32-.571-1.989 1.447-2.077 3.463-2.054 7.773-1.544 11.137-3.775 5.257-2.45 10.197-5.55 15.32-8.242 1.331-1.178 5.035-3.014 1.116-3.396-3.074-.708-6.361 1.063-9.547 1.1-4.2.741.005-2.92 1.584-3.625 4.906-2.522 9.706-5.28 14.398-8.205 1.488-1.136 5.881-1.91 4.467-3.806-3.977 1.328-7.915 3.23-11.986 4.341-1.377.328-7.623 1.1-4.538-1.335 5.997-3.96 11.9-8.067 17.845-12.098 1.981-2.661.546-2.73-1.831-1.643-2.754.838-4.806 3.09-7.37 4.398-.88 1.543-5.814 2.85-3.195.176 2.656-2.308 5.251-4.694 8.023-6.864 1.402-1.95 2.838-6.596-.967-4.407-2.453 1.291-5.607 1.484-7.317 3.87-3.02 3.139-6.097 6.256-9.081 9.409-2.182-2.046 3.461-4.302 4.156-6.469 2.451-2.807 5.032-5.536 7.232-8.537.465-2.462.573-4.195-1.925-2.48l-3.643 1.567c.365 2.54-5.023 5.19-6.733 7.708-2.894 2.47-6.829 3.508-9.375 6.45-2.034-2.173 3.563-3.822 5.002-5.097 4.07-1.98 6.823-5.71 10.099-8.715-3.585.728-7.716.58-9.815 4.153-5.428 5.16-10.71 10.5-16.265 15.51-6.773 4.696-13.655 9.298-20.606 13.685-3.18 1.28-7.698.228-9.203 4.062-2.656 3.735-5.801 7.076-8.76 10.567 3.18-.701 6.202.026 9.075 1.436 2.762.967 5.11 2.876 7.755 4.069-.59 2.63-4.217 4.622-7.072 4.14-1.794-.05-3.41-1.262-5.134-1.78.17-2.069 1.925-.4 3.096-.107 2.3 1.245 5.42.76 7.114-1.281-.885-1.815-5.576-3.649-8.299-4.663-2.471-1.485-5.303-.463-7.983-.43-3.17.72.885-2.089 1.354-3.186 3.508-3.943 6.865-8.009 9.909-12.324-.221-3.185 3.31-5.436 4.486-8.374 3.461-5.1 5.248-11.111 7.902-16.653 1.13-2.312.547-5.012.84-7.514-.084-1.357.397-2.836-.078-4.11-2.463 4.532-4.997 9.06-7.362 13.623-2.914.168-.3-4.45.54-5.65 2.24-4.527 4.766-8.977 6.86-13.54l.182-5.727c-1.887-1.64-2.837 3.956-4.335 5.268-3.28 5.46-6.308 11.1-9.726 16.457-.335 1.812-3.957 3.128-2.505.562 4.885-8.986 9.901-17.94 14.912-26.831 2.014-3.57 1.367-7.74 1.654-11.657-1.93-3.05-3.278 1.642-4.825 2.854-1.978 2.457-2.706 5.685-4.226 8.445-2.466 5.355-5.023 10.676-7.528 16.008-2.803-1.155 1.617-5.341 1.654-7.695 2.403-6.21 4.794-12.423 7.186-18.637-1.198-2.492-3.889 4.084-5.16 5.6-2.281 5.099-4.93 10.025-7.455 15.006-2.7-1.176 1.646-5.322 1.529-7.579 1.307-3.774 3.027-7.512 4.29-11.234-.19-1.405 1.801-5.057.032-5.128zm17.303 67.702c.621 2.482-3.118 3.613-4.656 5.536-1.933.722-8.845 2.418-5.87 3.973 1.967-1.042 3.938-2.076 5.901-3.123 2.513 2.385 6.315 4.938 6.018 8.58-2.388.599-1.369-4.68-4.212-5.17-1.31-2.267-2.968-1.689-4.732-.441-1.403.755-2.834 1.459-4.215 2.253-2.347-3.205.254-5.796 3.631-6.178 3.35-.523 5.3-3.409 7.82-5.336l.07-.057.245-.037zm17.806 6.92c.233 2.802-4.695 1.58-6.023 3.944-2.15 1.04-4.323 4.232-6.243 4.205-2.119-.413 2.547-2.46 3.29-3.613 2.686-2.152 5.428-4.136 8.976-4.535zm22.84 10.949c-.545.521-.163.417 0 0zm-64.524 2.737c2.92 1.098 6.031 1.796 8.503 3.814 3.194 1.13 3.345 4.783 4.272 7.54.09 1.777-1.446 7.43-3.057 6.221.65-2.606 2.963-5.817 1.01-8.798-.258-3.277-3.66-4.187-5.963-5.767l-5.205-1.846.44-1.164zm82.236.314c5.93.243 11.91.502 17.806 1.07.657.694-1.185.736-.912 1.101-7.638-.348-15.274-1.276-22.92-.643-3.58-.46-6.706 2.274-10.331 1.502-1.932.378-6.38-.654-3.337-1.457 3.472.39 7.007.432 10.247-1.057 3.07-.559 6.32-.186 9.447-.516zm-9.124 4.97c6.127.873 12.281 1.417 18.474 1.342 3.903.219 8.468-.172 11.974.45-.583 2.599-6.033.092-8.361.868-6.878-.081-13.77-.08-20.576-1.212-1.318.037-1.726-.17-1.51-1.447zm6.638 6.86c2.522 2.625 6.13 3.098 9.759 2.509 4.269-.277 8.643.88 12.783-.71 3.601-.335-.262 2.026-2.147 1.792-4.184.878-8.46-.283-12.687.246-3.376 1.195-6.142-1.651-8.566-2.285-1.813 1.071-3.804 1.304-5.852 1.153h-8.83c-.597-1.963 1.664-1.068 2.84-1.259 2.943-.02 5.895.042 8.83-.031 1.276-.5 2.516-1.159 3.87-1.416zm-120.27 3.995c3.066 1.262-2.492 4.298-1.587 6.294.137 2.095.384 3.583 1.367.69.45-1.354.866-2.718 1.352-4.059 1.24 2.045 2.869 3.189 5.223 3.21 1.006 1.725 1.488 5.636 2.547 2.023.97-1.865 1.72-4.02 3.116-5.547 2.27 1.296-.315 5.91.346 8.274-.187 3.724.604 7.45.077 11.184.326 2.223-1.867 7.88 2.084 5.183 1.364-.65 1.543-2.572 2.38-3.788 1.512-2.927.953-6.494 1.94-9.59 2.931-.752.27 8.145 3.098 5.322.825-3.01-1.406-5.547-1.652-8.878v-5.914c1.963-.596 1.068 1.665 1.259 2.841-.145 2.37.104 4.728 1.132 6.911 3.232 1.745 2.713-4.266 5.286-5.474 2.8-1.119 1.227-6.959 4.058-6.323-.263 3.599-2.268 6.576-4.75 9.029-1.018 1.715-1.491 5.854-4.405 4.184 2.114 2.168-.285 6.715-2.894 5.946-.577-1.927-.623-4.182-.93-.888-.092 2.748-2.013 4.922-3.003 7.4-2.375 1.305-6.647 2.734-5.085-1.686.29-4.734.633-9.474.052-14.201-.055-1.553.79-6.437.02-5.477-1.092 2.209-2.136 4.458-3.23 6.672-1.351-2.023-.813-6.8-4.016-6.316-1.776-.353-2.403-2.473-2.841.402-.787.85-1.764 5.603-3.178 3.46-.344-2.614-.128-6.675-3.114-3.491-.549-2.126-1.068-4.258-1.605-6.387 1.76-1.068 1.449 1.341 1.916 2.442-.1 3.613 3.764.092 4.219-1.781.27-.557.543-1.113.818-1.667zm49.329 15.95c3.353 6.795 6.907 13.512 10.507 20.197 1.945 4.743 4.293 9.376 5.112 14.482-.768 2.424 4.947 5.713 2.156 6.344-3.082-2.408-3.4-6.234-4.248-9.752-2.013-6.279-4.915-12.264-8.136-18.019-2.323-4.13-4.295-8.425-6.46-12.623l1.069-.63zm-6.858 7.424c3.205.367-2.913 3.703 1.074 4.078 2.065.339 1.532 3.258 3.403 3.75 4.71.268-.51 6.968 4.331 5.983 2.324 1.829-.119 6.563 3.524 7.77 3.027 1.456 2.169 5.044 3.584 7.53.337 1.907 1.428 1.62 2.743.68.98-.65 2.938-1.66 2.569.13-1.707.849-3.415 1.694-5.121 2.546-1.36-2.634-2.57-5.349-2.863-8.337-2.666-2.006-5.081-4.236-4.664-7.9.634-2.81-4.719.052-3.306-3.484 1.855-3.594-2.295-3.132-3.152-5.544-.237-2.42-3.865-2.024-4.073-4.15.597-1.051 1.349-2.004 1.95-3.052zm-19.222 34.7c-.527 1.565-5.561 6.263-1.839 3.294 1.926-1.165 2.201-.407 1.853-2.99l-.01-.218-.004-.086zm-.755 11.168c3.638.62-4.525 4.122-2.772 4.21 1.068-.776 3.35-.676 2.165.67l-5.308 1.633c-1.318-2.826 4.48-4.235 5.852-6.45l.063-.063zm.377 12.05c2.988.092-1.636 3.11-2.485 4.404-3.26 2.65 3.875-2.627 3.303-.007-1.365.958-6.32 4.076-8.033 2.35 2.143-2.44 5.215-4.031 7.215-6.748zm-17.932 10.79c-.165 2.3-.604 5.19 1.607 2.331 2.46-1.51-.258-1.443-1.607-2.33zm-1.07 27.842c-.053 2.16-.869 5.597 1.982 2.894 2.112-.918 3.692-2.575.296-2.547-.758-.123-1.52-.23-2.278-.347zm-.534 23.595c1.898 1.158 6.747 1.447 6.624 3.61-1.36-.211-6.385-1.37-6.624-3.007v-.603zm-8.652 79.499c-7.43.204-14.886-.036-22.305.22-3.205 2.043-6.91 3.385-9.418 6.342-1.898 2.667 3.187 4.952 5.8 4.354 1.318.875 6.022-.837 5.223 1.636-1.231 3.57-5.247 4.198-7.897 6.355-1.634 3.394 2.245 7.611 5.16 4.373 1.727-1.641 3.218-1.83 4.442.195 2.023 1.586-1.417 5.855 3.014 5.625 2.894-1.458 5.477-4.005 8.195-5.935 1.804-2.306 4.724-4.87 5.867-.514 2.649 2.265 5.972 1.702 9.137 1.493 3.887-.133 8.168-.655 10.402-4.317 3.634-1.737 7.099 1.809 8.931 4.653 2.454 1.612 6.545 1.825 5.295-2.257-.964-2.672-.13-5.496 3.08-3.775 3.518.672 6.247 3.336 9.621 4.265-.204-2.564-.24-7.395 3.32-4.113 3.002 2.175 6.137 4.284 9.767 5.246.13-1.515-.27-3.173.22-4.593 2.334-2.398 7.001 4.637 5.978-.724.486-1.84-2.034-5.908.535-5.631 3.546 1.496 7.287 2.53 11.074 3.209-2.507-4.168-6.982-6.458-10.791-9.25-3.678-1.53-7.564-2.744-11.588-2.668-4.342-.396-8.79-.215-13.075-.85-1.834-1.334-1.532-.143-1.197.247-2.561 3.671-7.138 2.96-11.013 3.654-5.413.517-10.883 1.058-16.01 2.984-3.545.461-6.68-2.666-9.246-4.846-1.128-1.562-1.662-3.615-2.52-5.378z" fill="#fff" fill-rule="evenodd"/></svg>