<svg xmlns="http://www.w3.org/2000/svg" width="1000" height="700" viewBox="0 0 3000 2100" shape-rendering="geometricprecision" text-rendering="geometricprecision" fill-rule="evenodd" clip-rule="evenodd"><defs><style>.str0{stroke:#002868;stroke-width:4}.fil4{fill:none}.fil3{fill:#002868}.fil1{fill:#fff}</style></defs><path id="rect2289" fill="#bf0a30" d="M0 0h3000v2100H0z"/><path id="rect2290" class="fil1" d="M150 150h2700v1800H150z"/><path id="rect2291" fill="#002868" d="M225 225h2550v1650H225z"/><path id="path2288" class="fil1" d="M1006.58 1200.68c-9.935-49.674-41.395-91.069-51.33-94.38-9.935-3.311-28.15-8.279-28.15-8.279s13.247-9.935 6.625-28.15c-6.625-18.213-36.429-67.888-38.085-96.036-1.654-28.15 6.624-64.577 0-87.758-6.622-23.18-31.46-43.05-33.115-86.103-1.656-43.05 69.543-102.659 110.94-104.315 41.395-1.655 79.477 13.247 102.659 11.592 23.181-1.657 51.33-31.461 69.544-38.085 18.214-6.622 26.492 3.312 38.082-1.655 11.592-4.967 105.973-82.791 200.353-82.791 94.382 0 165.581 34.773 187.108 34.773 21.525 0 61.264-9.936 91.07 0 29.804 9.934 66.23 54.64 109.283 66.231 43.05 11.591 291.422 56.298 319.57 101.004 28.15 44.707 46.363 109.283 46.363 140.745 0 31.46-8.278 115.906-8.278 132.464 0 16.557 8.278 38.084 4.966 59.61-3.311 21.524-13.246 29.803-13.246 29.803s-6.623-36.428-8.278-57.953c-1.657-21.526 13.245-81.135 11.59-115.906-1.656-34.773-16.558-77.823-16.558-77.823s-9.935 49.674-18.215 81.135c-8.278 31.46-33.115 120.874-33.115 172.204 0 51.33 14.902 125.84 14.902 125.84s-41.396 71.201-44.707 99.35c-3.311 28.148-9.934 94.381-8.279 102.66 1.656 8.278-9.934-3.312-13.246 6.623-3.312 9.935-1.656 23.18-1.656 23.18l-38.084-3.31s1.657-16.56 8.28-28.15c6.623-11.59 16.557-19.87 14.902-34.772-1.656-14.902 1.655-79.478 1.655-79.478s-28.148 48.019-36.428 66.232c-8.28 18.214-8.28 41.396-11.59 49.675-3.312 8.278-9.934 8.278-13.246 18.213-3.313 9.935-8.28 9.935-8.28 9.935l-29.805 1.655s57.955-142.398 61.267-178.826c3.31-36.429-36.43-110.94-44.708-135.776-8.28-24.838-8.28-44.707-16.559-54.641-8.278-9.936-36.427-21.526-46.361-16.56-9.936 4.968-64.577 56.299-76.167 71.2-11.592 14.903-41.396 43.05-41.396 43.05s-66.232-36.427-101.004-44.706c-34.771-8.279-120.874-14.902-120.874-14.902s6.624 127.498 3.31 147.367c-3.31 19.87-19.869 26.493-19.869 39.74V1406c0 9.936-26.492 13.248-33.114 21.526-6.625 8.28 0 14.902-8.28 26.493-8.28 11.59-19.87 8.279-24.837 14.901-4.968 6.625-1.656 46.364-1.656 46.364l-66.233-1.657s26.493-54.64 24.837-86.1c-1.655-31.46-28.148-77.824-33.115-102.66-4.968-24.837-19.87-62.922-39.74-62.922s-36.427 9.936-36.427 9.936 4.968-82.791-23.182-117.562c-28.149-34.772-96.036-31.461-117.562-26.494-21.527 4.967-44.707 36.428-52.986 39.74-8.28 3.312-14.902 0-28.15 4.966-13.244 4.968-29.803 18.215-41.394 28.15z"/><g id="g3286"><g id="g1883"><path id="path1825" class="fil1 str0" d="M1307.59 689.937c0-13.64 11.76-9.876 23.048-15.052 11.289-5.173 21.166-12.7 21.166-12.7l.472 35.28H1309l-1.41-7.528z"/><path id="path1826" class="fil1 str0" d="M1494.32 723.806c-11.76 7.056-14.58.47-22.107-6.586-7.526-7.055-30.105-23.518-30.105-23.518l60.21 9.878-7.998 20.226z"/><path id="path1824" class="fil1" d="M1307.66 687.855c-1.446 13.525-.522 23.33 6.51 29.835 7.054 6.585 12.698 4.234 17.873 3.293 5.174-.942 68.204-26.341 87.49-26.341 19.285 0 45.632.934 60.208 14.582 6.56 6.141 13.17 10.817 12.229 14.581-.941 3.763 23.52-13.171 23.048-23.989-.469-10.819-34.337-32.455-70.556-37.631-36.218-5.173-84.569 23.993-119.476 26.812-12.526 1.193-17.343 3.03-17.326-1.142z" stroke="#002868" stroke-width="4" stroke-linejoin="bevel"/><path id="text1827" class="fil3" d="M1493.26 703.22c-1.228 1.708-.754 3.361.87 4.671 1.101.89 2.93 1.753 4.043.375 1.024-1.271.124-2.444-.721-3.518-.86-1.086-2.057-2.295-2.483-3.619-.67-2.087 1.334-4.014 3.315-4.148 2.357-.161 4.823 2.067 5.455 4.233.333 1.108.046 2.227-.862 3.351l-1.29-1.04c.37-.596.557-1.13.567-1.602.014-1.547-2.074-3.54-3.643-3.405-1.144.098-2.234 1.137-1.745 2.345.514 1.24 1.712 2.437 2.552 3.504 1.168 1.48 1.685 3.125.368 4.756-1.852 2.296-4.588 1.461-6.587-.152-2.199-1.775-3.065-4.45-1.128-6.792l1.289 1.041z"/><path id="path1848" class="fil3" d="M1494.72 693.281l-.9 1.265-3.57-2.533-6.63 9.343-1.46-1.034 6.63-9.343-3.58-2.535.9-1.262z"/><path id="path1847" class="fil3" d="M1470.53 680.407l1.61.739-2.23 4.885 6.15 2.816 2.23-4.886 1.62.741-5.41 11.822-1.62-.74 2.53-5.529-6.15-2.816-2.53 5.529-1.62-.739z"/><path id="path1846" class="fil3" d="M1457.32 677.092c1.183.301 2.148.79 2.895 1.468 1.085.976 1.559 2.323 1.42 4.04l-1.69-.43c.028-.971-.227-1.75-.767-2.33-.539-.589-1.3-1.008-2.283-1.257-1.167-.298-2.262-.11-3.285.56-1.018.674-1.747 1.876-2.187 3.609-.382 1.499-.364 2.803.054 3.914.42 1.106 1.371 1.847 2.86 2.224 1.137.29 2.162.2 3.072-.268.917-.474 1.573-1.445 1.965-2.915l-3.946-1.004.361-1.415 5.531 1.407-1.713 6.741-1.098-.28v-1.725c-.739.489-1.363.798-1.87.93-.858.233-1.864.203-3.02-.09-1.491-.38-2.652-1.19-3.481-2.431-.865-1.51-1.028-3.322-.49-5.439.537-2.11 1.536-3.642 2.997-4.6 1.39-.911 2.947-1.148 4.675-.709z"/><path id="path1844" class="fil3" d="M1443.05 674.852l1.77.182-1.33 12.935-1.77-.182z"/><path id="path1842" class="fil3" d="M1433.04 680.066c.826.045 1.486-.085 1.98-.39.501-.303.776-.884.822-1.745.05-.925-.252-1.575-.905-1.946-.35-.197-.825-.31-1.426-.343l-4.295-.233-.24 4.436 4.064.221m-5.502-6.263l6.01.324c.99.055 1.799.244 2.426.566 1.19.62 1.743 1.676 1.662 3.166-.042.778-.238 1.406-.589 1.883-.346.478-.814.85-1.407 1.12.494.234.86.526 1.094.875.241.35.356.904.345 1.659l-.032 1.745c-.009.495.012.866.064 1.11.084.42.258.694.522.826l-.015.293-2.157-.118a1.62 1.62 0 01-.118-.44c-.026-.18-.036-.523-.033-1.03l.012-2.17c.005-.852-.28-1.438-.853-1.758-.328-.177-.85-.286-1.57-.325l-4.002-.216-.303 5.567-1.758-.095.702-12.982z"/><path id="path1840" class="fil3" d="M1377.29 682.589l1.73-.367 2.38 11.202 6.44-1.369.32 1.515-8.16 1.736z"/><path id="path1839" class="fil3" d="M1369.57 693.318l-3.405-5.03-.525 6.094 3.93-1.064m-4.798-6.652l1.923-.52 7.948 11.32-1.862.503-2.29-3.416-4.964 1.343-.341 4.128-1.744.472 1.33-13.83z"/><path id="path1836" class="fil3" d="M1348.55 692.766l1.635 7.867c.191.924.524 1.657.999 2.197.706.819 1.669 1.101 2.888.847 1.46-.305 2.351-1.011 2.669-2.119.17-.601.16-1.363-.03-2.28l-1.637-7.87 1.75-.363 1.487 7.15c.326 1.565.363 2.814.118 3.745-.455 1.697-1.757 2.77-3.906 3.216-2.149.446-3.767-.02-4.856-1.395-.596-.757-1.057-1.918-1.383-3.482l-1.486-7.15 1.752-.363z"/><path id="path1832" class="fil3" d="M1317.14 702.914l9.02-2.918.49 1.514-7.38 2.39 1.21 3.756 6.83-2.211.46 1.433-6.83 2.21 1.36 4.194 7.51-2.431.48 1.473-9.14 2.959z"/><path id="path1849" class="fil3" d="M1345.81 707.363l-.586 1.26-2.331-.973a7.061 7.061 0 01-3.083 1.715c-1.952.511-3.648.273-5.092-.716-1.301-.988-2.198-2.417-2.688-4.29-.446-1.702-.405-3.268.122-4.7.678-1.836 2.078-3.033 4.202-3.589 2.22-.582 4.05-.298 5.492.847 1.126.896 1.915 2.21 2.37 3.945.479 1.827.49 3.937-.488 5.61l2.082.891m-5.218.094a2.23 2.23 0 00.729-.501l-1.661-.719.579-1.276 1.978.845c.687-1.38.643-2.999.259-4.46-.388-1.478-1.087-2.567-2.1-3.265-1.007-.7-2.182-.874-3.522-.524-1.36.357-2.321 1.074-2.888 2.149-.567 1.07-.615 2.503-.144 4.301.397 1.513 1.092 2.618 2.086 3.315 1.44 1.002 3.16.719 4.684.135z"/></g><g id="use1823"><path id="path2293" class="fil1 str0" d="M1476.77 1013.57s-11.11-9.028-13.887-13.194c-2.778-4.167-10.415-17.359-10.415-17.359l19.442-20.138s14.582 18.055 14.582 21.527c0 3.471-9.722 29.164-9.722 29.164z"/><path id="path2294" class="fil1 str0" d="M1479.55 915.667s-24.302-20.138-26.387-24.998c-2.082-4.861-2.777-22.22-2.777-22.22l11.805-2.777s4.86 4.166 11.11 7.637c6.249 3.473 15.276 4.167 15.276 4.167l-9.027 38.191z"/><path id="path2295" class="fil1 str0" d="M1496.38 741.431s-.319-7.967-.478-11.632c-.16-3.664-5.257-8.285-5.257-8.285s-6.055 5.895-6.375 8.127c-.319 2.23-.477 13.224-.477 13.224l12.587-1.434z"/><path id="path2296" class="fil1 str0" d="M1505.78 1022.14l-4.33-233.827-25.11.864-3.47 234.703z"/><path id="path2297" class="fil4 str0" d="M1481.3 1024.39l2.218-243.656m-2.218 243.656z"/><path id="path2298" class="fil4 str0" d="M1476.86 1024.39l.444-243.656m-.444 243.656z"/><path id="path2299" class="fil4 str0" d="M1494.61 1025.72l1.774-245.875m-1.774 245.875z"/><path id="path2300" class="fil4 str0" d="M1487.96 1025.28c-.443-2.22 1.775-245.876 1.775-245.876m-1.775 245.876z"/><path id="path2301" class="fil4 str0" d="M1502.16 1026.16l.443-246.763m-.443 246.763z"/><path id="path2302" class="fil1 str0" d="M1510.98 1039.46v-14.72l-4.33-3.46h-31.18l-7.79 4.33 1.73 15.59z"/><path id="path2303" class="fil1 str0" d="M1504.83 753.86l-4.62-7.33 9.24-8.125-37.45-.639 8.13 8.764-3.66 7.17z"/><path id="path2304" class="fil1 str0" d="M1501.72 776.963l-6.93-7.17s15.136-14.34 17.208-14.34c2.072 0 3.346 3.346 5.576 3.186 2.231-.16 3.505-1.115 3.505-3.505 0-2.39-2.23-3.506-5.576-3.346l-49.076-.637c-3.505.158-4.621 2.23-4.46 3.983.158 1.753 2.548 3.505 4.62 3.346 2.072-.16 2.708-3.506 4.94-3.346 2.23.16 11.79 13.384 11.79 14.34l-7.966 7.648 26.369-.159z"/><path id="path2305" class="fil1 str0" d="M1507.44 784.468c6.81 7.604 11.345 12.38 10.998 24.265 0 12.5-17.063 31.482-29.784 42.926-12.86 11.573-35.538 19.828-35.538 30.008 0 9.893 1.966 11.154 4.41 14.32-2.014-2.302-12.692-9.483-12.692-26.149 0-16.664 13.888-34.718 29.859-44.44 15.97-9.722 35.413-22.915 35.413-29.858.426-6.187-2.666-11.072-2.666-11.072z"/><path id="path2306" class="fil1 str0" d="M1504.07 889.256c.237 6.826 0 12.524.482 18.08.606 6.56-20.138 20.137-28.47 28.468-8.332 8.333-29.163 17.36-30.552 29.859-1.39 12.498 10.94 24.134 13.817 28.881-3.164-6.618 4.017-14.3 12.256-20.98 7.256-5.885 22.916-14.554 30.865-23.178 7.882-8.55 16.666-22.22 16.666-35.413 0-13.193-8.815-23.634-15.064-25.717z"/><path id="path2307" class="fil1 str0" d="M1510.16 782.46l-8.76 6.454-25.41.797-8.45-7.011 8.45-5.737h25.73z"/></g><g id="g1930"><path id="path1927" class="fil1 str0" d="M1387.51 720.102c-17.945 2.871-22.25 25.84-22.25 25.84s7.894 1.435 7.894 8.613c0 7.177.718 15.79.718 15.79l15.791-17.226-2.153-33.017z"/><path id="path1928" class="fil1 str0" d="M1366.69 745.224c-6.46 6.46-9.33 14.355-9.33 14.355s-8.613-19.38-6.46-23.687c2.153-4.306 7.894-9.33 7.177-13.637-.718-4.306-4.306-5.024-8.612-4.306-4.308.718-4.308 25.122-4.308 31.581 0 6.46 1.437 17.944 5.025 22.25 3.59 4.306 6.46 10.766 10.049 11.484 3.588.718 13.637-14.355 13.637-14.355s1.435-14.354-.719-17.944c-2.153-3.588-6.459-5.74-6.459-5.74z"/><path id="path1926" class="fil1 str0" d="M1433.44 726.561c23.686 13.638 20.816 32.3 20.098 38.76-.719 6.459 0 10.765 0 10.765s10.048 10.049 14.355 16.508c4.306 6.46 16.507 25.122 16.507 25.122l-4.306 4.306s-17.944-12.92-25.121-21.532c-7.177-8.614-38.758-60.29-38.758-60.29l17.225-13.64z"/><path id="path1929" class="fil4 str0" d="M1373.87 964.854l-17.943-252.819m17.943 252.819z"/><path id="path1905" class="fil1 str0" d="M1436.1 960.737l-62.138-.056c0-1.712 8.447-210.04 8.447-221.532 0-11.492-1.71-20.294.734-22.984 2.446-2.69 24.208-1.956 29.098 0 4.89 1.956 19.804 6.603 21.027 9.292 1.223 2.69-2.933 18.827-2.933 24.451 0 5.623 6.356 20.783 5.868 28.606-.49 7.825 6.373 88.395 6.373 93.774 0 6.638-5.445-3.406-7.903-.231-2.951 3.81 8.605 85.451 1.427 88.68z"/><g id="g1911"><path id="path1904" class="fil1 str0" d="M1400.26 697.583s-.733 15.404-.733 19.561 6.845 11.247 11.247 11.98c4.4.734 9.047-4.156 8.558-11.003-.49-6.845-2.69-5.868-2.69-13.936 0-8.07-1.467-13.938-1.467-13.938l-14.915 7.336z"/><path id="path1899" class="fil1 str0" d="M1397.08 679.245c-1.222 6.846-.98 18.093-.246 20.783.735 2.69.735 10.025 5.136 10.758 4.4.734 11.736-8.802 13.938-12.959 2.2-4.156 3.177-9.291 3.177-9.291l-11.735-17.116-10.27 7.825z"/><path id="path1902" class="fil1 str0" d="M1397.57 703.695l6.602-.489m-6.602.489z"/><path id="path1903" class="fil1 str0" d="M1404.41 688.78h5.135m-5.135 0z"/><path id="path1898" class="fil1 str0" d="M1395.86 679.489c-2.2-4.646.733-13.694 9.047-13.45 8.313.246 17.359 12.226 17.359 18.339 0 6.114-1.71 11.736-3.178 11.736-1.467 0-8.313-19.316-13.937-19.56-5.624-.244-5.135 3.178-9.291 2.935z"/></g><path id="path1906" class="fil1 str0" d="M1411.75 751.375c-12.47 24.45-22.005 33.008-26.407 33.254-4.402.243-10.025-.49-10.025-.49l2.484 50.739 35.678.945m-1.73-84.448z"/><path id="path1907" class="fil1 str0" d="M1422.51 752.108c-12.226 48.412-49.88 73.841-49.88 73.841l4.663 75.378 37.035-36.741m8.182-112.478z"/><path id="path1908" class="fil1 str0" d="M1416.4 788.541c-10.025 78.243-44.5 65.772-44.5 65.772l1.904 69.353c28.778-6.901 30.931-29.869 30.931-29.869s10.048 2.87 17.226-4.307c7.177-7.177.718-30.862 2.87-41.63 2.154-10.765 2.872-22.249 2.872-22.249m-11.303-37.07z"/><path id="path1919" class="fil4 str0" d="M1424.83 794.029c-2.871 12.203-5.743 38.04-5.743 38.04m5.743-38.04z"/><path id="path1920" class="fil4 str0" d="M1384.63 833.506c12.2-5.743 27.274-44.502 27.274-44.502m-27.274 44.502z"/><path id="path1921" class="fil4 str0" d="M1415.5 862.217c-1.435 7.894.718 18.66.718 18.66m-.718-18.66z"/><path id="path1922" class="fil4 str0" d="M1416.21 913.894c.717-17.945-1.436-20.098-1.436-20.098m1.436 20.098z"/><path id="path1923" class="fil4 str0" d="M1421.24 743.07c4.306-7.179 5.023-20.098 5.023-20.098m-5.023 20.098z"/><path id="path1925" class="fil4 str0" d="M1437.03 871.546c-7.896-3.588-12.202-6.46-12.202-6.46m12.202 6.46z"/></g><g id="g1775"><path id="path1773" class="fil1 str0" d="M1336.12 1015.2s11.11-9.027 13.887-13.194c2.778-4.166 10.416-17.36 10.416-17.36l-19.442-20.135s-14.583 18.053-14.583 21.524c0 3.473 9.722 29.165 9.722 29.165z"/><path id="path1774" class="fil1 str0" d="M1333.34 917.295s24.305-20.137 26.387-24.998c2.083-4.86 2.777-22.22 2.777-22.22l-11.803-2.778s-4.861 4.167-11.11 7.64c-6.251 3.47-15.277 4.165-15.277 4.165l9.026 38.191z"/><path id="path1764" class="fil1 str0" d="M1316.51 743.059s.319-7.967.477-11.63c.16-3.665 5.26-8.287 5.26-8.287s6.054 5.896 6.373 8.126c.319 2.232.477 13.226.477 13.226l-12.587-1.435z"/><path id="path1760" class="fil1 str0" d="M1307.11 1023.77l4.33-233.831 25.12.867 3.46 234.694z"/><path id="path1765" class="fil4 str0" d="M1331.6 1026.02l-2.22-243.656m2.22 243.656z"/><path id="path1769" class="fil4 str0" d="M1336.04 1026.02l-.443-243.656m.443 243.656z"/><path id="path1767" class="fil4 str0" d="M1318.28 1027.35l-1.775-245.876m1.775 245.876z"/><path id="path1766" class="fil4 str0" d="M1324.94 1026.9c.443-2.22-1.776-245.875-1.776-245.875m1.776 245.875z"/><path id="path1768" class="fil4 str0" d="M1310.74 1027.79l-.444-246.762m.444 246.762z"/><path id="path1759" class="fil1 str0" d="M1301.92 1041.09v-14.72l4.33-3.46h31.17l7.8 4.33-1.73 15.58z"/><path id="path1763" class="fil1 str0" d="M1308.07 755.487l4.62-7.33-9.24-8.126 37.44-.636-8.12 8.762 3.66 7.171z"/><path id="path1762" class="fil1 str0" d="M1311.26 778.114l6.853-6.692s-15.137-14.341-17.209-14.341c-2.072 0-3.346 3.347-5.576 3.187-2.232-.16-3.507-1.115-3.507-3.506 0-2.39 2.231-3.504 5.578-3.346l49.076-.638c3.505.16 4.62 2.232 4.46 3.984-.159 1.753-2.548 3.506-4.62 3.346-2.072-.16-2.71-3.505-4.94-3.346-2.23.16-11.79 13.385-11.79 14.341l7.966 7.648-26.29-.637z"/><path id="path1770" class="fil1 str0" d="M1305.92 786.441c-6.81 8.332-11.611 12.183-11.465 23.92 0 12.5 17.063 31.48 29.783 42.927 12.862 11.572 35.54 19.827 35.54 30.008 0 9.893-1.965 11.154-4.412 14.32 2.015-2.303 12.693-9.484 12.693-26.15 0-16.665-13.887-34.718-29.858-44.44-15.971-9.72-35.413-22.914-35.413-29.858-.18-6.006 3.132-10.727 3.132-10.727z"/><path id="path1772" class="fil1 str0" d="M1308.83 890.883c-.239 6.826 0 12.524-.482 18.08-.607 6.561 20.138 20.136 28.47 28.468 8.332 8.333 29.163 17.36 30.552 29.859 1.39 12.5-10.94 24.134-13.819 28.882 3.166-6.618-4.015-14.3-12.254-20.98-7.256-5.885-22.918-14.554-30.865-23.177-7.882-8.553-16.666-22.22-16.666-35.415 0-13.193 8.815-23.634 15.064-25.717z"/><path id="path1761" class="fil1 str0" d="M1302.73 784.089l8.76 6.452 25.42.798 8.44-7.013-8.44-5.735h-25.73z"/></g><path id="text1791" class="fil3" d="M1360.05 859.923l.977.863-3.192 3.604 6.795-.412 1.383 1.223-5.713.258-.746 7.212-1.303-1.154.696-6-2.185.086-2.28 2.576-.978-.863 6.546-7.393m-4.074-3.966c.936.828 1.444 1.717 1.524 2.668.08.95-.129 1.765-.628 2.442l-.976-.863c.312-.575.424-1.148.338-1.72-.082-.571-.422-1.12-1.018-1.648-.729-.645-1.545-.909-2.449-.794-.897.114-1.815.7-2.75 1.757-.767.866-1.187 1.747-1.263 2.644-.07.896.296 1.698 1.098 2.41.739.652 1.551.867 2.44.642.468-.118.969-.376 1.5-.773l.977.864c-.777.702-1.644 1.1-2.6 1.191-1.147.115-2.22-.269-3.217-1.151-.858-.76-1.35-1.66-1.472-2.697-.161-1.367.396-2.77 1.667-4.206.965-1.09 2.046-1.729 3.241-1.915 1.295-.206 2.491.177 3.588 1.149m-7.936-7.028c1.305 1.157 1.9 2.432 1.785 3.825-.089 1.089-.585 2.142-1.488 3.163-.977 1.103-2.07 1.773-3.278 2.008-1.418.276-2.735-.124-3.953-1.203-1.137-1.006-1.7-2.174-1.685-3.502.061-1.238.582-2.412 1.562-3.518.886-1 1.891-1.636 3.017-1.908 1.445-.347 2.793.03 4.04 1.135m-6.02 7.004c.881.782 1.798 1.031 2.749.748.958-.284 1.8-.838 2.527-1.66.77-.868 1.161-1.769 1.174-2.703.017-.93-.37-1.747-1.157-2.444-.766-.677-1.623-.966-2.573-.867-.946.095-1.873.656-2.779 1.677-.724.82-1.13 1.694-1.216 2.622-.08.929.345 1.804 1.274 2.627m1.731-10.442l-.78.881-2.49-2.206-5.767 6.513-1.016-.902 5.765-6.511-2.49-2.205.779-.881 5.999 5.311m-15.881-5.128c-.349.44-.552.867-.609 1.282-.101.786.268 1.549 1.106 2.292.377.332.765.58 1.17.746.781.321 1.41.214 1.884-.322.357-.403.484-.802.385-1.195-.107-.394-.377-.895-.811-1.498l-.801-1.114c-.523-.726-.842-1.3-.957-1.718-.196-.724-.022-1.393.521-2.008.588-.664 1.302-1.005 2.138-1.025.837-.02 1.676.343 2.52 1.09.773.686 1.264 1.456 1.472 2.31.214.853-.044 1.691-.77 2.513l-.941-.834c.298-.439.461-.838.484-1.196.036-.654-.312-1.306-1.043-1.955-.59-.522-1.126-.773-1.603-.754-.478.018-.862.193-1.154.523-.321.361-.405.76-.251 1.195.102.282.432.814.987 1.592l.828 1.155c.4.557.646 1.054.743 1.493.164.76-.046 1.47-.627 2.129-.727.818-1.543 1.14-2.452.962-.906-.173-1.753-.61-2.54-1.306-.92-.814-1.432-1.687-1.536-2.617-.106-.926.197-1.785.915-2.574l.942.834m-2.991-11.581l5.39 4.773-.803.906-4.412-3.907-1.988 2.244 4.082 3.613-.757.856-4.082-3.614-2.22 2.506 4.49 3.975-.78.88-5.465-4.84 6.545-7.392m-6.417-5.68l-3.45 8.176 7.672-4.438 1.124.994-9.244 5.004-1.061-.94 3.852-9.776 1.107.98m-3.215-2.847l1.011.895-6.544 7.393-1.011-.896 6.544-7.392m-5.923-5.245l1 .887-5.764 6.512 3.745 3.315-.781.881-4.745-4.202 6.545-7.393z"/><path id="text1794" class="fil3" d="M1340.62 951.483l1.182 1.048-1.568 9.294 5.302-5.988.952.842-6.546 7.391-1.123-.993 1.51-9.338-5.3 5.983-.955-.845 6.546-7.394m-2.632-2.33l1.01.895-6.544 7.392-1.012-.895 6.545-7.391m-7.22 1.391l1.77-4.26-4.085 2.21 2.315 2.05m2.218-5.82l1.132 1.002-3.864 9.767-1.096-.972 1.21-2.877-2.922-2.59-2.762 1.507-1.026-.91 9.328-4.927m-9.058-1.979c.47.416.924.651 1.362.703.44.056.879-.16 1.312-.65.467-.529.593-1.057.38-1.586-.115-.28-.344-.574-.687-.876l-2.446-2.166-2.235 2.526 2.314 2.05m-.317-6.323l3.421 3.03c.564.498.956.992 1.177 1.48.414.93.247 1.82-.506 2.669-.392.443-.804.723-1.239.842a2.626 2.626 0 01-1.366.002c.185.373.264.718.24 1.037-.022.323-.215.705-.578 1.15l-.842 1.022c-.241.29-.403.521-.488.691-.148.29-.174.535-.078.738l-.148.167-1.228-1.087c.024-.093.07-.2.14-.317.068-.12.224-.33.465-.63l1.032-1.286c.403-.503.512-.986.32-1.448-.11-.259-.37-.57-.78-.933l-2.28-2.018-2.806 3.17-1.002-.887 6.546-7.392m-4.688-4.492c.696.616 1.178 1.282 1.446 1.999.392 1.035.244 2.11-.447 3.222l-.992-.878c.358-.647.456-1.261.293-1.841-.16-.584-.528-1.132-1.104-1.643-.684-.606-1.49-.86-2.413-.763-.922.1-1.832.66-2.731 1.676-.78.879-1.22 1.766-1.324 2.66-.102.893.285 1.725 1.156 2.498.668.59 1.39.886 2.168.886.785 0 1.564-.428 2.342-1.284l-2.315-2.05.734-.831 3.246 2.874-3.502 3.955-.645-.57.601-1.165c-.668.072-1.197.065-1.587-.022-.66-.142-1.328-.51-2.006-1.11-.875-.777-1.377-1.726-1.505-2.853-.058-1.32.463-2.6 1.56-3.842 1.097-1.238 2.304-1.925 3.622-2.062 1.256-.135 2.39.248 3.403 1.144m-.156-.156z"/><path id="text1797" class="fil3" d="M1490.2 832.63c.392.458.8.762 1.228.907.807.272 1.69.04 2.646-.69a4.45 4.45 0 001.032-1.078c.501-.757.516-1.443.05-2.056-.352-.46-.745-.678-1.181-.655-.437.031-1.02.213-1.75.544l-1.34.615c-.876.4-1.546.619-2.011.653-.805.057-1.476-.266-2.01-.967-.578-.76-.792-1.582-.637-2.467.152-.887.71-1.698 1.672-2.432.885-.676 1.799-1.034 2.743-1.075.946-.049 1.775.397 2.492 1.334l-1.075.82c-.403-.407-.789-.66-1.161-.758-.685-.175-1.444.057-2.28.694-.674.514-1.05 1.024-1.13 1.535-.078.507.026.95.312 1.325.317.413.72.584 1.21.514.32-.051.948-.287 1.886-.711l1.389-.633c.67-.306 1.247-.465 1.73-.475.837-.016 1.542.353 2.114 1.104.714.935.882 1.864.51 2.786-.373.92-1.008 1.723-1.908 2.41-1.05.8-2.077 1.16-3.08 1.077-.999-.08-1.842-.58-2.526-1.501l1.075-.82m-12.837.75l6.152-4.695.79 1.034-5.04 3.844 1.956 2.563 4.66-3.555.746.977-4.66 3.556 2.183 2.86 5.125-3.91.768 1.005-6.241 4.761-6.44-8.44m-8.543 6.52l1.35-1.031 9.481 3.585-5.217-6.838 1.086-.828 6.44 8.441-1.28.977-9.541-3.53 5.213 6.832-1.091.832-6.44-8.44m-3.007 2.292l1.156-.88 6.44 8.44-1.154.882-6.441-8.442m-10.147 7.744l1.637-1.25 7.87 5.287-3.037-8.974 1.62-1.236 6.44 8.44-1.085.83-3.802-4.984a54.82 54.82 0 01-.642-.864 75.959 75.959 0 00-.966-1.29l3.026 8.956-1.133.864-7.857-5.27.198.26c.157.206.402.52.734.94.333.412.577.718.728.916l3.8 4.983-1.09.832-6.441-8.44z"/><path id="text1800" class="fil3" d="M1467.74 951.25l1.143-.873 5.674 7.435 4.275-3.262.767 1.006-5.418 4.134-6.441-8.44m-3.006 2.293l1.155-.882 6.44 8.44-1.153.883-6.442-8.441m-5.937 4.167c1.49-1.137 2.957-1.5 4.405-1.088 1.128.32 2.138 1.063 3.026 2.227.963 1.26 1.442 2.553 1.44 3.875-.004 1.554-.7 2.861-2.09 3.922-1.299.99-2.646 1.34-4.045 1.05-1.294-.322-2.422-1.115-3.387-2.38-.872-1.14-1.334-2.334-1.387-3.578-.067-1.598.612-2.94 2.038-4.027m6.138 7.807c1.009-.77 1.46-1.685 1.36-2.746-.101-1.07-.51-2.073-1.225-3.012-.758-.992-1.627-1.591-2.61-1.799-.979-.211-1.919.027-2.819.715-.873.665-1.356 1.509-1.449 2.532-.096 1.018.302 2.112 1.194 3.281.713.934 1.55 1.543 2.512 1.827.964.277 1.976.012 3.037-.798m-6.105-7.833z"/><g id="g1723"><path id="path1627" class="fil1 str0" d="M1212.19 1036.01l397.043.59-42.35 62.349s-160.582 58.82-167.64 57.643c-7.06-1.175-168.818-58.82-168.818-58.82l-18.235-61.762z"/><path id="path1634" class="fil1 str0" d="M1362.18 971.311v88.819l8.83-2.35v-87.645z"/><path id="path1635" class="fil1 str0" d="M1442.18 970.135l1.76 89.995h8.83l-1.18-89.995z"/><path id="path1630" class="fil1 str0" d="M1353.95 1058.37l.59 15.29h104.11l-.59-15.29z"/><path id="path1629" class="fil1 str0" d="M1348.65 1067.19v14.12l114.12.59-.59-14.71z"/><g id="g1700"><path id="path1653" class="fil1 str0" d="M1490.27 1105.81v25.38l-19.22-1.72.25-30.31z"/><path id="path1652" class="fil1 str0" d="M1339.49 1101.13l-.74 26.86-17-8.87 1.97-16.51z"/><path id="path1651" class="fil1 str0" d="M1322.49 1112.47c-.985-13.058 3.943-19.71 7.884-19.71 3.942 0 142.159-.493 150.043 0 7.884.492 9.854 8.13 9.854 12.319v14.043s-.797-7.6-17.059-8.586c-16.26-.985-6.346 3.411-68.185 2.92-61.841-.494-60.363-2.911-69.725-3.65-9.362-.74-11.825.2-12.812 2.664z"/><path id="text1660" class="fil3" d="M1471.68 1095.75c1.556 0 2.68.64 3.374 1.92.537.991.806 2.348.806 4.072 0 1.633-.245 2.983-.731 4.052-.704 1.533-1.857 2.3-3.457 2.3-1.444 0-2.517-.626-3.222-1.88-.587-1.046-.881-2.451-.881-4.212 0-1.366.176-2.537.528-3.517.66-1.823 1.855-2.735 3.583-2.735m-.015 10.968c.782 0 1.406-.348 1.87-1.04.465-.695.696-1.987.696-3.877 0-1.366-.168-2.488-.503-3.366-.335-.884-.987-1.326-1.955-1.326-.89 0-1.541.42-1.956 1.26-.408.832-.613 2.063-.613 3.69 0 1.226.133 2.211.395 2.954.403 1.137 1.091 1.705 2.066 1.705z"/><path id="path1677" class="fil3" d="M1459.75 1104.86c.045.833.367 1.41.966 1.73.307.167.654.25 1.04.25.722 0 1.337-.3 1.846-.898.509-.604.87-1.826 1.083-3.666-.336.53-.753.906-1.251 1.123a3.96 3.96 0 01-1.595.319c-1.157 0-2.075-.36-2.752-1.082-.67-.722-1.006-1.651-1.006-2.786 0-1.09.332-2.05.998-2.879.665-.828 1.648-1.24 2.946-1.24 1.75 0 2.958.788 3.625 2.365.37.868.554 1.952.554 3.255 0 1.472-.221 2.776-.663 3.91-.732 1.893-1.976 2.838-3.726 2.838-1.174 0-2.067-.309-2.677-.923-.61-.615-.915-1.388-.915-2.316h1.527m2.291-2.467a2.56 2.56 0 001.636-.589c.499-.396.748-1.087.748-2.072 0-.884-.225-1.54-.671-1.972-.443-.437-1.008-.654-1.695-.654-.74 0-1.328.248-1.763.747-.43.49-.646 1.152-.646 1.98 0 .783.19 1.407.57 1.871.38.46.989.689 1.821.689z"/><path id="path1675" class="fil3" d="M1452.58 1100.78c.666 0 1.186-.184 1.56-.553a1.82 1.82 0 00.562-1.334c0-.448-.18-.86-.537-1.233-.357-.376-.902-.564-1.636-.564-.727 0-1.253.188-1.578.564a1.951 1.951 0 00-.485 1.316c0 .565.209 1.008.628 1.326.42.32.914.478 1.486.478m.092 5.95c.7 0 1.278-.187 1.738-.562.464-.38.695-.945.695-1.695 0-.777-.237-1.369-.713-1.77-.475-.403-1.086-.605-1.829-.605-.722 0-1.312.208-1.771.621-.453.409-.68.977-.68 1.704 0 .627.207 1.169.622 1.628.42.454 1.065.68 1.938.68m-2.148-5.371c-.42-.18-.747-.389-.982-.63-.442-.447-.662-1.028-.662-1.745 0-.896.323-1.663.972-2.308.65-.643 1.57-.965 2.761-.965 1.153 0 2.056.306 2.71.915.655.605.983 1.312.983 2.123 0 .75-.191 1.357-.571 1.821-.213.263-.542.52-.99.772.497.23.89.492 1.174.79.531.558.797 1.286.797 2.18 0 1.058-.354 1.956-1.065 2.695-.71.732-1.715 1.098-3.012 1.098-1.17 0-2.16-.316-2.97-.948-.807-.638-1.21-1.56-1.21-2.769 0-.71.174-1.322.521-1.837.347-.521.862-.918 1.544-1.192z"/><path id="path1672" class="fil3" d="M1439.98 1099.26v-1.157c1.091-.107 1.852-.283 2.283-.528.431-.252.752-.843.965-1.772h1.192v11.967h-1.611v-8.51h-2.829z"/><path id="path1671" class="fil3" d="M1368.41 1104.56c.045.834.367 1.41.965 1.728a2.13 2.13 0 001.04.254c.723 0 1.338-.3 1.847-.899.509-.603.87-1.826 1.083-3.667-.336.531-.753.907-1.251 1.124a3.98 3.98 0 01-1.595.32c-1.157 0-2.074-.362-2.752-1.083-.67-.723-1.006-1.651-1.006-2.786 0-1.09.332-2.052.998-2.878.665-.828 1.648-1.243 2.946-1.243 1.75 0 2.958.79 3.625 2.367.37.867.554 1.952.554 3.255 0 1.472-.221 2.776-.663 3.91-.732 1.892-1.976 2.838-3.726 2.838-1.174 0-2.067-.309-2.677-.923-.61-.616-.915-1.387-.915-2.317h1.527m2.291-2.467c.6 0 1.145-.196 1.637-.587.498-.397.747-1.088.747-2.073 0-.885-.225-1.54-.671-1.971-.443-.437-1.009-.655-1.695-.655-.74 0-1.328.248-1.763.747-.43.491-.645 1.152-.645 1.98 0 .783.189 1.407.57 1.871.38.46.988.688 1.82.688z"/><path id="path1669" class="fil3" d="M1361.59 1095.39c1.343 0 2.277.35 2.803 1.049.531.693.797 1.41.797 2.148h-1.494c-.089-.475-.232-.848-.426-1.116-.365-.503-.916-.755-1.654-.755-.844 0-1.517.391-2.015 1.174-.498.778-.775 1.895-.83 3.349.347-.51.784-.89 1.308-1.141a3.768 3.768 0 011.611-.337c1.008 0 1.887.323 2.635.965.75.645 1.126 1.604 1.126 2.88 0 1.09-.355 2.057-1.067 2.902-.71.84-1.723 1.259-3.037 1.259-1.125 0-2.096-.425-2.912-1.275-.817-.856-1.226-2.293-1.226-4.314 0-1.493.183-2.76.546-3.801.7-1.991 1.977-2.987 3.835-2.987m-.109 11.034c.795 0 1.388-.265 1.78-.796.397-.538.596-1.17.596-1.897 0-.615-.178-1.2-.53-1.754-.352-.56-.993-.839-1.921-.839-.65 0-1.22.215-1.712.647-.486.43-.73 1.08-.73 1.946 0 .762.221 1.402.663 1.922.446.513 1.065.77 1.854.77z"/><path id="path1667" class="fil3" d="M1351.67 1100.48c.665 0 1.186-.184 1.56-.553.375-.375.562-.82.562-1.334 0-.448-.18-.86-.537-1.235-.358-.374-.902-.562-1.637-.562-.726 0-1.252.188-1.577.562a1.957 1.957 0 00-.486 1.318c0 .565.21 1.007.63 1.326.418.319.913.478 1.485.478m.091 5.95c.7 0 1.278-.187 1.737-.563.466-.38.697-.944.697-1.694 0-.778-.237-1.369-.713-1.771-.476-.402-1.086-.604-1.83-.604-.721 0-1.31.207-1.77.621-.453.408-.68.976-.68 1.704 0 .627.206 1.169.62 1.627.421.452 1.066.68 1.939.68m-2.148-5.37c-.42-.18-.746-.389-.98-.63-.444-.447-.665-1.03-.665-1.745 0-.896.325-1.664.974-2.308.65-.643 1.57-.965 2.76-.965 1.154 0 2.056.305 2.712.915.654.604.981 1.312.981 2.123 0 .749-.19 1.357-.571 1.821-.212.262-.543.52-.99.771.498.23.89.493 1.175.79.531.559.797 1.285.797 2.182 0 1.056-.355 1.955-1.066 2.694-.71.732-1.714 1.098-3.012 1.098-1.17 0-2.16-.316-2.97-.948-.806-.638-1.209-1.561-1.209-2.77 0-.71.174-1.321.521-1.836.346-.521.861-.918 1.543-1.192z"/><path id="path1664" class="fil3" d="M1339.08 1098.95v-1.157c1.091-.107 1.852-.283 2.282-.528.431-.252.753-.844.965-1.772h1.192v11.967h-1.611v-8.51h-2.828z"/></g><path id="path1628" class="fil1 str0" d="M1243.95 1076.6l325.28 1.77-5.29 12.35-305.28.59z"/><path id="path1631" class="fil1 str0" d="M1356.3 967.782l.59 6.47h20.58l.59-7.058z"/><path id="path1632" class="fil1 str0" d="M1437.47 967.194l.59 7.058h17.65l.59-7.058z"/><path id="path1633" class="fil1 str0" d="M1362.18 957.783l-.59 9.411h88.24v-8.823z"/><path id="path1638" class="fil1 str0" d="M1416.89 1006.02c-1.176-6.471-4.119-35.292-14.118-35.882-9.999-.588-12.939 7.648-12.939 7.648s14.117 1.763 12.94 7.646c-1.176 5.88-7.059 20.588-10 22.351-2.94 1.765 18.823-1.176 24.117-1.763z"/><path id="path1639" class="fil1 str0" d="M1396.89 1003.07l-2.36 40 28.24.59-1.18-38.82z"/><path id="path1637" class="fil1 str0" d="M1371.01 1033.48s-.52-24.697 1.175-31.586c1.178-7.058 5.294-11.764 12.353-11.176 7.059.587 19.412 13.529 19.412 13.529s18.823-17.058 25.881-16.47c8.081 2.326 12.22 8.064 12.986 14.658.196 5.126.615 31.341.615 31.341s-14.672-16.587-19.484-18.353c-4.117-1.177-12.352-2.352-12.352-2.352l-1.123 32-6.523-.238s-.59-15.293-1.178-21.175c-.587-5.882-2.94-11.177-2.94-11.177s-10.588 5.295-14.117 9.411c-4.258 3.881-14.705 11.588-14.705 11.588z"/><g id="g1712"><path id="path1640" class="fil1 str0" d="M1371.58 1035.78l70.604.23v29.41c-.554 25.89-35.663 62.374-35.665 62.375 0 0-35.538-33.542-35.508-63.55-.59-30 .569-28.465.569-28.465z"/><path id="path1641" class="fil3" d="M1381.5 1069.86l.01 26.48 5.01 7.81-.02-34.29z"/><path id="path1642" class="fil3" d="M1392.5 1069.86l.09 42.45 4.91 5.91-.01-48.36z"/><path id="path1643" class="fil3" d="M1403.49 1069.86l.02 54.98 3 2.96 2.97-3.28v-54.66z"/><path id="path1644" class="fil3" d="M1415.48 1069.86l.05 47.65 4.96-6.26-.02-41.39z"/><path id="path1645" class="fil3" d="M1426.47 1069.86l.07 33.03 4.92-7.68.01-25.35z"/><path id="path1646" class="fil3" d="M1371.51 1069.86h5v15.81z"/><path id="path1647" class="fil3" d="M1436.51 1069.86l.02 15.91 5.35-15.91z"/><path id="path1649" class="fil1 str0" d="M1371.01 1035.25l71.17.76v28l-71.17.24z"/></g><path id="_132303184" class="fil3" d="M1406.63 1038.49l2.952 9.082h9.548l-7.726 5.612 2.952 9.082-7.726-5.613-7.726 5.613 2.952-9.082-7.726-5.613h9.548l2.952-9.081zm-1.476 4.54"/></g><g id="g1566"><path id="path1547" class="fil1 str0" d="M1584.98 1020.62l2.48-95.83h6.61l-.83 96.66z"/><path id="path1548" class="fil1 str0" d="M1594.89 876.874v26.437c0 7.435-11.566 18.174-10.74 23.958.827 5.783 8.262 4.956 10.74 3.304 2.48-1.653 15.698-23.959 15.698-37.177s1.651-33.046-1.652-33.871c-3.306-.827-14.872 12.39-14.872 12.39l.826 4.959z"/><path id="path1543" class="fil1 str0" d="M1541.19 1004.1s-1.654 31.394-1.654 39.656c0 8.261-.825 17.349-6.609 22.305-5.783 4.957-10.74 3.306-12.392 6.61-1.651 3.305.827 5.783.827 5.783l37.177-.827s-1.653-29.74-.826-40.481c.826-10.74 8.26-27.263 4.13-30.567-4.13-3.306-17.35-3.306-20.653-2.479z"/><path id="path1544" class="fil1 str0" d="M1502.36 995.014s19.827 15.697 19.002 21.48c-.827 5.782-9.915 12.392-6.61 15.696 3.305 3.305 5.783 2.48 5.783 2.48l27.264-24.786-31.394-25.61-14.045 10.74z"/><path id="path1546" class="fil1 str0" d="M1566.8 1007.41s8.262 11.566 19.002 11.566c10.74 0 24.785-29.742 24.785-29.742s-4.958 40.482-23.959 39.656c-19.001-.826-19.828-13.22-19.828-21.48z"/><path id="path1545" class="fil1 str0" d="M1563.5 907.441c4.957-4.13 6.61-28.089 6.61-28.089l7.434-14.044s12.393 14.044 18.176 13.217c5.783-.827 14.045-.827 14.045-5.782 0-4.958 2.478-12.393-1.652-16.524-4.13-4.13-25.61-21.48-29.742-23.959-4.13-2.478-47.09-7.435-50.395-7.435-3.305 0-16.524 8.262-18.176 15.697-1.651 7.436-4.957 32.22-4.957 38.83 0 6.61.707 16.66.707 16.66l12.512-8.398 4.13 11.566 41.308 8.26z"/><path id="path1549" class="fil1 str0" d="M1519.71 828.13c9.087 9.913 11.566 35.525 11.566 35.525s2.478-14.045 9.088-19.003c6.61-4.956 22.306-5.782 22.306-13.217 0-7.435-17.349-9.914-22.306-9.914-4.957 0-13.219.826-20.654 6.609z"/><path id="path1550" class="fil1 str0" d="M1531.28 824c0 8.26 3.305 11.566 7.435 12.392 4.13.827 14.045-4.131 13.219-8.262-.827-4.13-20.654-4.13-20.654-4.13z"/><path id="path1551" class="fil1 str0" d="M1534.59 823.173s0 9.914 4.956 9.087c4.957-.825 9.087-10.74 9.087-10.74l-14.043 1.653z"/><path id="path1554" class="fil1 str0" d="M1531.67 783.926c-.306 5.825-.92 12.573-1.84 13.799-.92 1.227-3.988 6.133-4.293 8.586-.306 2.454 2.76 2.148 2.76 2.148s-.613 11.347-.92 13.493c-.307 2.146 4.906.305 7.053 3.986 2.147 3.68 2.147 8.893 3.373 7.973 1.226-.92 5.827-5.52 8.28-8.28 2.453-2.76 6.133-.613 7.054-4.292.92-3.68 1.84-31.28 1.84-31.28l-23.307-6.133z"/><path id="path1542" class="fil1 str0" d="M1551.11 1004.93c-9.087.827-12.392-.826-13.219-4.956-.825-4.131-.825-30.57-2.478-39.655-1.652-9.088-4.13-13.22-4.13-13.22s-21.48 15.698-21.48 23.133c0 7.436 6.609 13.218 6.609 13.218l-13.22 11.567s-27.263-15.697-27.263-24.785c0-9.088 28.09-39.656 33.046-46.265 4.959-6.61 6.61-25.61 11.567-26.437 4.958-.826 35.525 1.654 40.482 5.784 4.956 4.13 15.697 22.305 14.871 33.872-.826 11.566-4.957 9.914-5.783 14.045-.826 4.13 0 7.434-.826 13.218-.827 5.783-4.957 1.652-4.957 6.61 0 4.955 1.651 26.436-.827 30.568-2.478 4.13-4.13 3.303-12.392 3.303z"/><path id="path1552" class="fil1 str0" d="M1535.41 775.256c-5.783 4.958-9.089 6.61-7.435 9.915 1.652 3.304 14.87 4.13 16.522 8.261 1.653 4.131 0 10.74 0 10.74l6.61-1.651v19s16.523-13.218 14.87-26.437c-1.651-13.218-18.174-14.87-23.132-15.696-4.957-.826-4.957-1.653-7.435-4.132z"/><path id="path1553" class="fil1 str0" d="M1504.68 897.391c.306 4.292 1.227 26.986-.307 30.36-1.533 3.372-4.293 8.893-.614 13.186 3.681 4.293 7.973 6.132 9.814 2.76 1.84-3.374-.613-19.013 1.533-27.907 2.147-8.893 2.454-24.84.92-26.986-1.533-2.147-10.733-1.227-11.346 8.587z"/><path id="path1555" class="fil4 str0" d="M1531.36 947.069c-4.907-9.813-4.294-19.625-4.294-19.625m4.294 19.625z"/><path id="path1556" class="fil4 str0" d="M1518.48 889.11l.307-32.813m-.307 32.813z"/><path id="path1557" class="fil4 str0" d="M1570.31 879.604s-4.906-3.68-6.44-5.52c-1.534-1.84-3.374-4.6-3.374-4.6m9.814 10.12z"/><path id="path1558" class="fil4 str0" d="M1589.32 876.23c-.307-15.639 19.626-18.706 19.626-18.706m-19.626 18.706z"/><path id="path1559" class="fil4 str0" d="M1527.68 813.978l4.906.307m-4.906-.307z"/><path id="path1560" class="fil4 str0" d="M1530.44 794.965l7.054 6.135m-7.054-6.135z"/></g><g id="g1607"><path id="path1603" class="fil1 str0" d="M1251.25 800.79s-2.588-9.705-.324-11.646c2.266-1.941 16.823-12.295 21.029-11.97 4.207.322 12.294 12.293 12.294 12.293l-32.999 11.323z"/><path id="path1588" class="fil1 str0" d="M1259.51 831.295s-53.509 39.239-54.104 49.346c-.594 10.107 23.783 39.24 23.783 39.24l10.106-9.514s-1.188-7.133-3.566-13.674c-2.378-6.539-7.73-13.674-7.73-13.674s1.19.595 7.135-1.783c5.946-2.378 10.107-5.352 10.107-5.352s-1.783 11.891 1.19 18.431c2.971 6.541 12.485 22.592 12.485 22.592l35.078-2.377s1.189-46.374.594-57.076c-.594-10.702-13.674-30.916-13.674-30.916l-21.404 4.757z"/><path id="path1595" class="fil1 str0" d="M1267.84 1008.47s14.27 10.108 19.62 14.864c5.35 4.757 7.134 7.179 7.134 7.179l.577 5.395-14.84-.05-15.463-17.874 2.972-9.514z"/><path id="path1592" class="fil1 str0" d="M1260.97 830.324c-.646 2.587 14.592 11.672 18.755 16.428 4.162 4.756 13.08 11.297 13.08 11.297s.593-7.73-4.757-17.837c-5.35-10.108-3.086-11.725-5.464-12.319-2.377-.595-23.914-.91-21.614 2.431z"/><path id="path1590" class="fil1 str0" d="M1255.95 923.448s-9.513 39.239-10.702 70.75c-1.19 31.511 6.54 63.02 6.54 63.02l22.592-2.972v-37.455s42.212-43.401 42.212-49.942c0-6.54-23.187-38.05-21.998-42.212 1.19-4.163-.594-10.107-.594-10.107l-38.05 8.918z"/><path id="path1591" class="fil1 str0" d="M1274.97 990.631s6.103-18.972 7.886-24.322c1.784-5.352 2.326-9.514 2.326-9.514s7.03 5.892 6.434 9.46c-.594 3.569-8.917-1.189-16.646 24.376z"/><path id="path1605" class="fil3 str0" d="M1241.22 1004.6s-.647-17.793-1.94-22.969c-1.296-5.178-6.147-20.059-6.147-31.382s2.264-19.088 9.381-28.145c7.118-9.06 14.559-11.971 14.559-11.971s7.117 0 17.792-.324c10.677-.322 20.382-.97 20.382-.97l-.323 11.323s-13.588 3.882-22.323 3.882c-8.736 0-18.117-1.94-18.117-1.94s-14.882 14.234-14.235 27.821c.648 13.589 4.53 33.323 4.206 38.823-.322 5.5-3.235 15.852-3.235 15.852z"/><path id="path1593" class="fil1 str0" d="M1258.65 831.67s-.918-14.05.272-19.995c1.189-5.946 6.54-20.215 6.54-20.215l20.808-.594-.594 27.943-4.162-.594 1.783 9.512s-7.134 3.569-13.675 4.163c-6.538.594-10.972-.22-10.972-.22z"/><path id="path1586" class="fil1 str0" d="M1262.71 810.058c-13.08 2.972-19.846 8.75-24.008 4.59-4.161-4.161 4.756-16.648 23.781-24.376 19.025-7.73 36.862-3.568 38.052 0 1.188 3.567-8.325 10.107-13.08 10.701-4.757.594-13.676 0-17.243 2.378-3.567 2.378-7.502 6.707-7.502 6.707z"/><path id="path1587" class="fil1 str0" d="M1258.39 824.864c-7.35.36-8.813-6.901-5.413-12 3.568-5.352 10.108-14.864 17.836-17.242 7.73-2.378 14.27 0 14.864 4.161 1.415 4.37.246 7.498.246 7.498s-10.975-8.544-15.704-3.93c-4.162 4.757-4.757 13.674-8.323 17.836-1.165 1.746-1.48 3.583-3.506 3.677z"/><path id="path1594" class="fil1 str0" d="M1251.19 911.557c.594-10.107 9.302-12.485 11.891-12.485 2.264 0 5.945 11.296 5.945 19.025 0 7.73-4.757 23.187-8.918 23.781-4.162.594-2.972-20.214-2.972-20.214h-4.758l-1.188-10.107z"/><path id="path1596" class="fil1 str0" d="M1252.38 1056.62l-.594 21.404 46.374-1.19s1.19-3.566-1.784-6.54c-2.973-2.972-16.051-4.161-18.43-8.322-2.379-4.163-2.973-6.541-2.973-6.541l-22.593 1.189z"/><path id="path1598" class="fil4 str0" d="M1272.6 831.201c8.735 5.176 19.088 20.703 19.735 23.293.646 2.587.646 3.558.646 3.558m-20.381-26.851z"/><path id="path1599" class="fil1 str0" d="M1226.01 916.284c4.205-9.058 12.293-8.734 12.293-8.734s11.323 5.824 11 8.734c-.325 2.913-9.06-.322-9.707 1.618-.647 1.942 4.853 8.088 1.942 11-2.911 2.911-12.618-5.823-15.528-12.618z"/><path id="path1601" class="fil4 str0" d="M1282.4 822.954l-3.657-.489m4.853.647z"/><path id="path1602" class="fil4 str0" d="M1274.54 1016.9c.215-9.274-1.186-19.195.647-27.823m-.647 27.823z"/><path id="path1604" class="fil3" d="M1281.66 809.687c0-1.697-1.448-3.074-3.235-3.074s-3.235 1.377-3.235 3.074c0 1.697 1.448 3.072 3.235 3.072s3.235-1.375 3.235-3.072z"/><path id="path1606" class="fil4 str0" d="M1285.22 956.725c1.942-11.97.646-24.263.646-24.263m-.646 24.263z"/></g><path id="path919" class="fil1 str0" d="M1704.59 891.039c0 164.388-133.604 297.804-298.224 297.804-164.617 0-298.221-133.416-298.221-297.804 0-164.389 133.604-297.806 298.221-297.806 164.62 0 298.224 133.416 298.224 297.806zm-59.291-.941c0 132.379-107.041 239.818-238.931 239.818-131.89 0-238.932-107.44-238.932-239.818 0-132.38 107.042-239.817 238.932-239.817s238.93 107.438 238.93 239.817z"/><path id="text1951" class="fil3" d="M1482.86 612.633c3.124 1.146 5.603 2.741 7.437 4.786 2.669 2.948 3.574 6.73 2.717 11.348l-4.458-1.637c.348-2.628-.128-4.806-1.429-6.534-1.294-1.743-3.24-3.091-5.836-4.045-3.077-1.13-6.098-.929-9.057.604-2.946 1.54-5.257 4.595-6.937 9.168-1.452 3.953-1.766 7.493-.945 10.62.826 3.113 3.202 5.389 7.125 6.83 3.003 1.102 5.805 1.145 8.403.13 2.619-1.024 4.667-3.475 6.14-7.352l-10.41-3.822 1.37-3.735 14.6 5.36-6.531 17.793-2.899-1.066.486-4.676c-2.14 1.115-3.917 1.782-5.333 1.999-2.387.39-5.104.026-8.153-1.094-3.938-1.446-6.858-3.965-8.76-7.557-1.917-4.334-1.851-9.294.198-14.877 2.044-5.569 5.18-9.443 9.406-11.624 4.02-2.087 8.308-2.293 12.866-.62z"/><path id="path2004" class="fil3" d="M1248.95 652.119l4.97-2.706 29.43 16.666-13.71-25.212 4.01-2.175 16.91 31.122-4.72 2.567-29.64-16.518 13.69 25.19-4.03 2.189z"/><path id="path2002" class="fil3" d="M1222.46 672.728l3.59-3.258 23.81 26.23-3.59 3.257z"/><path id="path2000" class="fil3" d="M1174.2 721.372l4.221-5.422 29.883 10.37-17.423-26.372 4.177-5.366 27.95 21.763-2.8 3.595-16.496-12.843a196.031 196.031 0 01-2.806-2.246 287.231 287.231 0 00-4.212-3.342l17.366 26.327-2.919 3.748-29.825-10.325.856.667c.687.533 1.743 1.336 3.17 2.406a161.498 161.498 0 013.127 2.342l16.495 12.843-2.814 3.617-27.95-21.762z"/><path id="path1999" class="fil3" d="M1151.4 757.874c2.532-5.719 6.244-9.138 11.135-10.26 3.817-.875 7.96-.325 12.428 1.654 4.835 2.143 8.311 5.15 10.43 9.024 2.486 4.546 2.548 9.488.185 14.824-2.207 4.982-5.588 8.17-10.143 9.565-4.301 1.135-8.877.63-13.728-1.518-4.38-1.94-7.646-4.688-9.798-8.243-2.761-4.564-2.931-9.579-.51-15.046m30.489 12.974c1.712-3.865 1.567-7.27-.434-10.214-2.01-2.964-4.816-5.244-8.416-6.838-3.808-1.687-7.315-2.044-10.523-1.074-3.2.957-5.566 3.16-7.096 6.614-1.484 3.352-1.542 6.597-.171 9.736 1.355 3.131 4.274 5.69 8.758 7.676 3.587 1.588 7.014 2.024 10.284 1.31 3.262-.735 5.795-3.138 7.598-7.21z"/><path id="path1996" class="fil3" d="M1130.93 822.231l1.29-5.442 18.91-5.972-14.22-13.829 1.3-5.468 17.49 17.902 13.89 3.296-1.11 4.669-13.89-3.296z"/><path id="path1994" class="fil3" d="M1120.85 881.05l29.11-5.28-28.4-9.387.25-5.202 29.17-6.605-28.46-8.062.26-5.251 34.93 11.007-.25 5.033-29.73 6.747 28.94 9.631-.24 5.034-35.83 7.538z"/><path id="path1993" class="fil3" d="M1134.11 975.872l-6.99-23.557 4.17-1.234 5.62 18.957 10.31-3.058-4.94-16.667 4.04-1.2 4.94 16.667 15.45-4.579 1.36 4.601z"/><path id="path1992" class="fil3" d="M1149.96 1016.94c-3.804-4.963-5.027-9.859-3.666-14.69 1.06-3.77 3.529-7.142 7.407-10.114 4.197-3.218 8.503-4.828 12.917-4.829 5.183-.003 9.55 2.31 13.1 6.942 3.316 4.324 4.493 8.82 3.533 13.485-1.063 4.32-3.7 8.093-7.91 11.321-3.802 2.915-7.779 4.465-11.932 4.65-5.328.237-9.811-2.018-13.449-6.765m26-20.54c-2.573-3.355-5.63-4.86-9.173-4.514-3.564.344-6.91 1.714-10.036 4.11-3.304 2.533-5.3 5.44-5.985 8.72-.695 3.266.106 6.4 2.404 9.399 2.231 2.908 5.05 4.514 8.463 4.815 3.398.31 7.043-1.025 10.934-4.009 3.113-2.384 5.14-5.185 6.08-8.396.917-3.216.022-6.59-2.687-10.124z"/><path id="path1989" class="fil3" d="M1206.98 1094.86l-16.95-19.48 3.27-2.85 13.88 15.95 8.12-7.06-12.84-14.75 3.09-2.69 12.84 14.75 9.06-7.88-14.12-16.23 3.19-2.77 17.18 19.76z"/><path id="path1987" class="fil3" d="M1222 1109.91l2.37-3.49 9.87 6.71 17.55-25.8 4.02 2.74-17.54 25.8 9.87 6.71-2.38 3.49z"/><path id="path1986" class="fil3" d="M1273.5 1119.64l-2.787 16.312 12.52-10.99-9.733-5.322m-3.109 22.127l-4.76-2.603 5.712-37.246 4.614 2.522-1.937 11.033 12.291 6.72 8.455-7.47 4.315 2.359-28.69 24.685z"/><path id="path1983" class="fil3" d="M1297.74 1156.16l1.36-3.99 11.3 3.84 10.05-29.54 4.61 1.57-10.05 29.54 11.3 3.84-1.35 4z"/><path id="path1982" class="fil3" d="M1362 1149.34c.207-2.003-.004-3.687-.63-5.059-1.202-2.567-3.787-4.17-7.756-4.804-1.777-.284-3.438-.29-4.978-.016-2.984.533-4.677 2.07-5.085 4.609-.303 1.905.075 3.358 1.135 4.357 1.08.987 2.858 1.98 5.336 2.979l4.568 1.828c2.983 1.193 5.051 2.314 6.202 3.36 1.989 1.817 2.75 4.176 2.286 7.081-.502 3.143-2.002 5.549-4.498 7.217-2.499 1.667-5.74 2.183-9.723 1.547-3.668-.587-6.636-1.973-8.907-4.16-2.29-2.172-3.125-5.204-2.502-9.093l4.452.712c-.06 1.912.217 3.429.835 4.553 1.153 2.058 3.46 3.363 6.92 3.915 2.793.448 4.895.181 6.305-.798 1.411-.98 2.24-2.246 2.49-3.802.272-1.715-.241-3.084-1.543-4.106-.855-.657-2.874-1.63-6.052-2.92l-4.727-1.904c-2.278-.918-3.986-1.948-5.122-3.09-1.96-1.99-2.693-4.541-2.196-7.652.62-3.874 2.476-6.417 5.568-7.633 3.077-1.217 6.478-1.528 10.21-.932 4.348.696 7.576 2.352 9.68 4.968 2.11 2.6 2.837 5.784 2.185 9.554l-4.453-.711z"/><path id="path1980" class="fil3" d="M1463.33 1171.03l-25.42 4.55-.77-4.27 20.82-3.73-1.9-10.59-19.25 3.45-.72-4.03 19.25-3.45-2.12-11.82-21.17 3.79-.75-4.15 25.78-4.62z"/><path id="path1978" class="fil3" d="M1520.1 1153.92l-4.6 1.52-4.59-13.9-17.49 5.78 4.59 13.9-4.6 1.52-11.12-33.63 4.6-1.52 5.2 15.73 17.49-5.78-5.2-15.73 4.6-1.52z"/><path id="path1977" class="fil3" d="M1545.09 1141.13l-2.25-3.57 10.11-6.35-16.61-26.42 4.12-2.59 16.61 26.42 10.11-6.36 2.24 3.58z"/><path id="path1976" class="fil3" d="M1629.88 1071.08l-16.29 18.39-3.25-2.87 13.11-14.81-8.05-7.12-11.52 13.01-3.16-2.8 11.52-13.01-12.05-10.68 3.18-3.59z"/><path id="path1975" class="fil3" d="M1653.18 1043.66c-4.147 4.68-8.72 6.814-13.722 6.4-3.902-.322-7.683-2.102-11.342-5.343-3.96-3.507-6.36-7.427-7.202-11.759-.993-5.087.446-9.814 4.314-14.183 3.614-4.08 7.801-6.093 12.565-6.04 4.443.22 8.651 2.088 12.622 5.606 3.586 3.176 5.867 6.785 6.839 10.824 1.248 5.187-.11 10.017-4.074 14.495m-25.123-21.606c-2.803 3.164-3.696 6.452-2.681 9.865 1.017 3.434 3 6.457 5.948 9.068 3.117 2.762 6.35 4.165 9.701 4.212 3.34.059 6.264-1.325 8.769-4.153 2.43-2.744 3.466-5.82 3.112-9.225-.342-3.396-2.348-6.72-6.019-9.969-2.936-2.6-6.072-4.057-9.404-4.368-3.332-.287-6.473 1.237-9.426 4.57z"/><path id="path1972" class="fil3" d="M1687.31 949.566l-1.28 4.625-30.07-8.336-4.79 17.288-4.07-1.127 6.07-21.912z"/><path id="path1971" class="fil3" d="M1671.5 917.131l16.185-3.443-14.842-7.567-1.343 11.01m21.706-5.296l-.656 5.385-36.717 8.47.636-5.218 10.966-2.282 1.696-13.906-10.067-5.09.596-4.884 33.546 17.525z"/><path id="path1968" class="fil3" d="M1689.92 853.339l1.92 25.753-4.33.324-1.57-21.088-10.72.801 1.45 19.501-4.09.306-1.45-19.502-11.98.894 1.6 21.45-4.2.314-1.95-26.114z"/><path id="path1966" class="fil3" d="M1656.23 810.501c-1.85.789-3.223 1.79-4.117 3.002-1.667 2.295-1.816 5.333-.448 9.113.612 1.692 1.411 3.146 2.398 4.363 1.91 2.351 4.074 3.09 6.495 2.214 1.813-.655 2.9-1.691 3.262-3.104.34-1.422.347-3.458.02-6.11l-.612-4.881c-.402-3.19-.423-5.54-.065-7.054.625-2.62 2.32-4.429 5.087-5.43 2.994-1.082 5.824-.936 8.493.441 2.67 1.375 4.69 3.962 6.063 7.755 1.263 3.493 1.488 6.762.676 9.807-.793 3.057-3.04 5.255-6.743 6.595l-1.535-4.24c1.702-.873 2.895-1.852 3.58-2.936 1.24-2.005 1.264-4.655.072-7.951-.962-2.66-2.213-4.37-3.752-5.13-1.54-.76-3.05-.87-4.532-.334-1.633.59-2.58 1.702-2.845 3.336-.16 1.067-.036 3.304.377 6.712l.624 5.055c.3 2.439.226 4.431-.223 5.979-.791 2.68-2.668 4.555-5.631 5.626-3.689 1.335-6.814.943-9.374-1.172-2.555-2.103-4.475-4.93-5.76-8.482-1.499-4.142-1.613-7.767-.345-10.876 1.254-3.104 3.688-5.283 7.302-6.538l1.533 4.24z"/><path id="path1964" class="fil3" d="M1653.99 748.341l-3.61 2.185-6.18-10.212-26.69 16.156-2.52-4.168 26.69-16.155-6.18-10.212 3.61-2.185z"/><path id="path1963" class="fil3" d="M1604.23 717.069l8.75-14.044-15.747 5.438 6.997 8.606m11.246-19.308l3.422 4.21-19.373 32.32-3.317-4.079 5.965-9.482-8.839-10.87-10.65 3.72-3.104-3.816 35.897-12.003z"/><path id="path1960" class="fil3" d="M1566.92 654.469l20.51 15.703-2.64 3.445-16.79-12.858-6.54 8.537 15.53 11.892-2.5 3.254-15.52-11.89-7.3 9.532 17.07 13.079-2.56 3.35-20.79-15.922z"/><path id="path1956" class="fil3" d="M1315.39 618.45c3.228-.81 6.176-.886 8.843-.231 3.864.936 6.743 3.553 8.634 7.851l-4.609 1.158c-1.19-2.37-2.81-3.902-4.858-4.598-2.051-.711-4.417-.73-7.1-.058-3.18.798-5.562 2.665-7.147 5.597-1.568 2.93-1.76 6.757-.573 11.48 1.025 4.086 2.756 7.19 5.195 9.312 2.436 2.109 5.68 2.652 9.733 1.635 3.104-.778 5.443-2.318 7.019-4.62 1.589-2.322 1.902-5.5.939-9.533l-10.758 2.699-.968-3.859 15.085-3.787 4.613 18.383-2.993.753-2.233-4.14c-1.14 2.127-2.235 3.677-3.282 4.653-1.753 1.666-4.204 2.895-7.353 3.685-4.07 1.022-7.901.583-11.494-1.317-4.025-2.502-6.762-6.639-8.21-12.408-1.444-5.753-1.033-10.721 1.23-14.902 2.15-3.988 5.58-6.57 10.287-7.753z"/><path id="path2005" class="fil3" d="M1526.76 650.304c1.994 1.044 3.776 1.47 5.347 1.276 1.585-.188 2.922-1.32 4.01-3.4 1.17-2.237 1.156-4.185-.044-5.847-.645-.881-1.694-1.702-3.148-2.463l-10.383-5.433-5.61 10.726 9.828 5.141m-6.559-21.744l14.53 7.6c2.392 1.252 4.182 2.634 5.37 4.144 2.248 2.881 2.43 6.124.544 9.727-.983 1.88-2.18 3.214-3.59 4-1.394.794-2.98 1.19-4.756 1.185.964 1.14 1.54 2.276 1.728 3.409.201 1.14-.14 2.64-1.02 4.5l-2.053 4.287c-.583 1.22-.95 2.162-1.098 2.827-.266 1.131-.146 2.011.361 2.638l-.368.705-5.214-2.727c-.001-.345.067-.753.206-1.225.138-.473.498-1.335 1.082-2.591l2.483-5.368c.974-2.104.93-3.878-.13-5.32-.61-.809-1.784-1.669-3.522-2.578l-9.679-5.064-7.041 13.461-4.251-2.225 16.418-31.385z"/></g></svg>